<?xml version="1.0" encoding="UTF-8"?>
<svg xmlns="http://www.w3.org/2000/svg" xmlns:xlink="http://www.w3.org/1999/xlink" version="1.2" >
<font id="Cadillac Trim V1 Medium">
<font-face  font-family="Cadillac Trim V1" units-per-em="1000" ascent="750" descent="-250" font-style="normal" font-weight="500" font-stretch="normal" cap-height="700" x-height="541" underline-position="-48" underline-thickness="82" />
<missing-glyph  horiz-adv-x="601" d="M65 800 L536 800 L536 -100 L65 -100 L65 800 Z M439 -16 L439 716 L161 716 L161 -16 L439 -16 Z " />
<glyph glyph-name=".null" d="" />
<glyph glyph-name="nonmarkingreturn" unicode="&#xd;" horiz-adv-x="196" d="" />
<glyph glyph-name="space" unicode="&#x20;" horiz-adv-x="205" d="" />
<glyph glyph-name="A" unicode="A" horiz-adv-x="621" d="M27 78 L210 700 L411 700 L594 78 L594 0 L472 0 L417 203 L192 203 L137 0 L27 0 L27 78 Z M221 306 L389 306 L314 583 L297 583 L221 306 Z " />
<glyph glyph-name="B" unicode="B" horiz-adv-x="596" d="M63 700 L347 700 Q384 700 415 689.5 Q446 679 470.5 662.5 Q495 646 514 624.5 Q533 603 545 581 L545 439 Q533 419 510 397.5 Q487 376 463 363 Q486 352 512 331.5 Q538 311 552 286 L552 119 Q540 98 521.5 76.5 Q503 55 477.5 38 Q452 21 419.5 10.5 Q387 0 347 0 L63 0 L63 700 Z M323 409 Q352 409 377.5 424 Q403 439 419 464 L419 542 Q405 568 378.5 584 Q352 600 317 600 L200 600 L200 409 L323 409 Z M317 100 Q362 100 387 116.5 Q412 133 426 158 L426 258 Q412 282 384 297.5 Q356 313 323 313 L200 313 L200 100 L317 100 Z " />
<glyph glyph-name="C" unicode="C" horiz-adv-x="616" d="M570 277 L570 129 Q559 108 539.5 83 Q520 58 489 36.5 Q458 15 415 0.5 Q372 -14 314 -14 Q256 -14 212 0.5 Q168 15 136.5 37.5 Q105 60 84.5 87 Q64 114 53 138 L53 562 Q64 587 84.5 614 Q105 641 136.5 663.5 Q168 686 212 700.5 Q256 715 314 715 Q372 715 415 700.5 Q458 686 489 664.5 Q520 643 539.5 618 Q559 593 570 572 L570 433 L438 433 L438 535 Q426 564 394.5 586.5 Q363 609 314 609 Q265 609 234.5 586.5 Q204 564 190 535 L190 165 Q202 136 233.5 113.5 Q265 91 314 91 Q363 91 393.5 113.5 Q424 136 438 165 L438 277 L570 277 Z " />
<glyph glyph-name="D" unicode="D" horiz-adv-x="627" d="M438 530 Q426 559 394.5 578 Q363 597 314 597 L200 597 L200 103 L314 103 Q363 103 394.5 122 Q426 141 438 170 L438 530 Z M575 138 Q564 113 544.5 88.5 Q525 64 496 44.5 Q467 25 428.5 12.5 Q390 0 341 0 L63 0 L63 700 L341 700 Q390 700 428.5 687.5 Q467 675 496 655.5 Q525 636 544.5 611.5 Q564 587 575 562 L575 138 Z " />
<glyph glyph-name="E" unicode="E" horiz-adv-x="536" d="M63 700 L487 700 L487 597 L200 597 L200 410 L467 410 L467 307 L200 307 L200 103 L494 103 L494 0 L63 0 L63 700 Z " />
<glyph glyph-name="F" unicode="F" horiz-adv-x="519" d="M63 700 L477 700 L477 597 L200 597 L200 406 L463 406 L463 303 L200 303 L200 0 L63 0 L63 700 Z " />
<glyph glyph-name="G" unicode="G" horiz-adv-x="618" d="M325 382 L570 382 L570 129 Q559 108 539.5 83 Q520 58 489 36.5 Q458 15 415 0.5 Q372 -14 314 -14 Q256 -14 212 0.5 Q168 15 136.5 37.5 Q105 60 84.5 87 Q64 114 53 138 L53 562 Q64 587 84.5 614 Q105 641 136.5 663.5 Q168 686 212 700.5 Q256 715 314 715 Q372 715 415 700.5 Q458 686 489 664.5 Q520 643 539.5 618 Q559 593 570 572 L570 461 L438 461 L438 535 Q426 564 394.5 586.5 Q363 609 314 609 Q265 609 234.5 586.5 Q204 564 190 535 L190 165 Q202 136 234.5 113.5 Q267 91 316 91 Q367 91 398 113 Q429 135 442 162 L442 279 L325 279 L325 382 Z " />
<glyph glyph-name="H" unicode="H" horiz-adv-x="652" d="M63 700 L200 700 L200 412 L452 412 L452 700 L589 700 L589 0 L452 0 L452 309 L200 309 L200 0 L63 0 L63 700 Z " />
<glyph glyph-name="I" unicode="I" horiz-adv-x="263" d="M63 700 L200 700 L200 0 L63 0 L63 700 Z " />
<glyph glyph-name="J" unicode="J" horiz-adv-x="388" d="M20 103 L66 103 Q113 103 145 121 Q177 139 191 171 L191 700 L328 700 L328 138 Q314 109 293 83.5 Q272 58 241.5 39 Q211 20 170 9 Q129 -2 76 -2 Q58 -2 44 -1.5 Q30 -1 20 0 L20 103 Z " />
<glyph glyph-name="K" unicode="K" horiz-adv-x="586" d="M63 700 L200 700 L200 429 L217 429 L456 700 L552 700 L552 622 L343 395 L558 78 L558 0 L453 0 L255 300 L200 240 L200 0 L63 0 L63 700 Z " />
<glyph glyph-name="L" unicode="L" horiz-adv-x="457" d="M63 700 L200 700 L200 103 L435 103 L435 0 L63 0 L63 700 Z " />
<glyph glyph-name="M" unicode="M" horiz-adv-x="803" d="M63 700 L248 700 L396 352 L413 352 L556 700 L739 700 L739 0 L611 0 L611 505 L593 505 L444 152 L358 152 L209 505 L191 505 L191 0 L63 0 L63 700 Z " />
<glyph glyph-name="N" unicode="N" horiz-adv-x="665" d="M63 700 L223 700 L457 226 L474 226 L474 700 L602 700 L602 0 L442 0 L209 474 L191 474 L191 0 L63 0 L63 700 Z " />
<glyph glyph-name="O" unicode="O" horiz-adv-x="628" d="M190 165 Q203 136 234 113.5 Q265 91 314 91 Q363 91 394 113.5 Q425 136 438 165 L438 535 Q425 564 394 586.5 Q363 609 314 609 Q265 609 234 586.5 Q203 564 190 535 L190 165 Z M53 562 Q64 587 84.5 614 Q105 641 136.5 663.5 Q168 686 212 700.5 Q256 715 314 715 Q372 715 416 700.5 Q460 686 491.5 663.5 Q523 641 543.5 614 Q564 587 575 562 L575 138 Q564 114 543.5 87 Q523 60 491.5 37.5 Q460 15 416 0.5 Q372 -14 314 -14 Q256 -14 212 0.5 Q168 15 136.5 37.5 Q105 60 84.5 87 Q64 114 53 138 L53 562 Z " />
<glyph glyph-name="P" unicode="P" horiz-adv-x="585" d="M63 700 L340 700 Q406 700 460.5 669 Q515 638 547 581 L547 368 Q533 344 513 322 Q493 300 467 284 Q441 268 409 258.5 Q377 249 340 249 L200 249 L200 0 L63 0 L63 700 Z M310 352 Q344 352 372 366.5 Q400 381 415 410 L415 539 Q398 571 368.5 584 Q339 597 309 597 L200 597 L200 352 L310 352 Z " />
<glyph glyph-name="Q" unicode="Q" horiz-adv-x="628" d="M53 562 Q64 587 84.5 614 Q105 641 136.5 663.5 Q168 686 212 700.5 Q256 715 314 715 Q372 715 416 700.5 Q460 686 491.5 663.5 Q523 641 543.5 614 Q564 587 575 562 L575 138 Q567 120 554 101 Q541 82 522.5 64 Q504 46 479.5 30 Q455 14 424 3 Q440 -23 466.5 -37.5 Q493 -52 512 -52 L575 -52 L575 -148 L499 -148 Q472 -148 443 -137.5 Q414 -127 388 -109 Q362 -91 341 -66.5 Q320 -42 308 -14 Q252 -13 209 1.5 Q166 16 135 38.5 Q104 61 83.5 87.5 Q63 114 53 138 L53 562 Z M190 165 Q203 136 234 113.5 Q265 91 314 91 Q363 91 394 113.5 Q425 136 438 165 L438 535 Q425 564 394 586.5 Q363 609 314 609 Q265 609 234 586.5 Q203 564 190 535 L190 165 Z " />
<glyph glyph-name="R" unicode="R" horiz-adv-x="603" d="M287 267 L200 267 L200 0 L63 0 L63 700 L346 700 Q411 700 465.5 669 Q520 638 551 581 L551 386 Q531 350 499.5 322.5 Q468 295 426 280 L558 78 L558 0 L453 0 L287 267 Z M315 367 Q391 367 422 425 L422 539 Q407 568 378.5 582.5 Q350 597 315 597 L200 597 L200 367 L315 367 Z " />
<glyph glyph-name="S" unicode="S" horiz-adv-x="593" d="M45 223 L177 223 L177 155 Q188 132 218 111.5 Q248 91 296 91 Q345 91 374.5 112 Q404 133 415 155 L415 234 Q405 253 385.5 268 Q366 283 319 294 L259 308 Q205 321 168 335.5 Q131 350 107 366 Q83 382 69 398.5 Q55 415 45 432 L45 581 Q55 599 73.5 622 Q92 645 122.5 666 Q153 687 195.5 701 Q238 715 296 715 Q354 715 397 700.5 Q440 686 470 665.5 Q500 645 519 622 Q538 599 547 581 L547 486 L415 486 L415 545 Q404 568 374.5 588.5 Q345 609 296 609 Q248 609 218 587.5 Q188 566 177 545 L177 481 Q187 462 207.5 447.5 Q228 433 276 422 L335 408 Q389 395 425 380.5 Q461 366 485 350 Q509 334 523.5 317 Q538 300 547 283 L547 119 Q537 101 518 78 Q499 55 469 34.5 Q439 14 396.5 0 Q354 -14 296 -14 Q238 -14 195.5 0 Q153 14 122.5 34.5 Q92 55 73.5 78 Q55 101 45 119 L45 223 Z " />
<glyph glyph-name="T" unicode="T" horiz-adv-x="534" d="M199 597 L24 597 L24 700 L510 700 L510 597 L336 597 L336 0 L199 0 L199 597 Z " />
<glyph glyph-name="U" unicode="U" horiz-adv-x="641" d="M581 700 L581 138 Q570 114 549.5 87 Q529 60 497.5 37.5 Q466 15 422 0.5 Q378 -14 320 -14 Q263 -14 219 0.5 Q175 15 143.5 37.5 Q112 60 91.5 87 Q71 114 60 138 L60 700 L197 700 L197 165 Q208 136 239.5 113.5 Q271 91 320 91 Q370 91 400.5 113.5 Q431 136 444 165 L444 700 L581 700 Z " />
<glyph glyph-name="V" unicode="V" horiz-adv-x="605" d="M27 622 L27 700 L154 700 L298 149 L316 149 L460 700 L578 700 L578 622 L398 0 L208 0 L27 622 Z " />
<glyph glyph-name="W" unicode="W" horiz-adv-x="915" d="M32 622 L32 700 L159 700 L251 177 L269 177 L391 700 L524 700 L647 177 L665 177 L758 700 L883 700 L883 622 L759 0 L575 0 L463 457 L446 457 L335 0 L156 0 L32 622 Z " />
<glyph glyph-name="X" unicode="X" horiz-adv-x="587" d="M39 78 L206 350 L39 622 L39 700 L156 700 L289 450 L307 450 L443 700 L548 700 L548 622 L380 350 L548 78 L548 0 L431 0 L299 250 L281 250 L144 0 L39 0 L39 78 Z " />
<glyph glyph-name="Y" unicode="Y" horiz-adv-x="564" d="M207 297 L29 622 L29 700 L146 700 L275 440 L293 440 L426 700 L535 700 L535 622 L344 285 L344 0 L207 0 L207 297 Z " />
<glyph glyph-name="Z" unicode="Z" horiz-adv-x="559" d="M39 86 L347 583 L347 597 L45 597 L45 700 L520 700 L520 614 L212 118 L212 103 L520 103 L520 0 L39 0 L39 86 Z " />
<glyph glyph-name="Agrave" unicode="&#xc0;" horiz-adv-x="621" d="M27 78 L210 700 L411 700 L594 78 L594 0 L472 0 L417 203 L192 203 L137 0 L27 0 L27 78 Z M221 306 L389 306 L314 583 L297 583 L221 306 Z M189 849 L189 904 L312 904 L369 762 L369 747 L270 747 L189 849 Z " />
<glyph glyph-name="Aacute" unicode="&#xc1;" horiz-adv-x="621" d="M27 78 L210 700 L411 700 L594 78 L594 0 L472 0 L417 203 L192 203 L137 0 L27 0 L27 78 Z M221 306 L389 306 L314 583 L297 583 L221 306 Z M248 762 L305 904 L428 904 L428 849 L348 747 L248 747 L248 762 Z " />
<glyph glyph-name="Acircumflex" unicode="&#xc2;" horiz-adv-x="621" d="M27 78 L210 700 L411 700 L594 78 L594 0 L472 0 L417 203 L192 203 L137 0 L27 0 L27 78 Z M221 306 L389 306 L314 583 L297 583 L221 306 Z M143 762 L226 904 L389 904 L472 762 L472 747 L383 747 L308 840 L233 747 L143 747 L143 762 Z " />
<glyph glyph-name="Atilde" unicode="&#xc3;" horiz-adv-x="621" d="M27 78 L210 700 L411 700 L594 78 L594 0 L472 0 L417 203 L192 203 L137 0 L27 0 L27 78 Z M221 306 L389 306 L314 583 L297 583 L221 306 Z M499 823 Q491 794 464 772 Q437 750 390 750 Q360 750 340 758 Q320 766 303.5 775.5 Q287 785 273 793 Q259 801 241 801 Q221 801 211 792.5 Q201 784 197 775 L197 755 L121 755 L121 808 Q130 839 158 860 Q186 881 230 881 Q259 881 279 873 Q299 865 315.5 855.5 Q332 846 346.5 838 Q361 830 379 830 Q396 830 407 837.5 Q418 845 423 856 L423 876 L499 876 L499 823 Z " />
<glyph glyph-name="Adieresis" unicode="&#xc4;" horiz-adv-x="621" d="M27 78 L210 700 L411 700 L594 78 L594 0 L472 0 L417 203 L192 203 L137 0 L27 0 L27 78 Z M221 306 L389 306 L314 583 L297 583 L221 306 Z M139 851 Q145 858 159.5 867.5 Q174 877 203 877 Q232 877 247 867.5 Q262 858 267 851 L267 780 Q262 773 247 763.5 Q232 754 203 754 Q174 754 159.5 763.5 Q145 773 139 780 L139 851 Z M351 851 Q356 858 371 867.5 Q386 877 415 877 Q444 877 459 867.5 Q474 858 479 851 L479 780 Q474 773 459 763.5 Q444 754 415 754 Q386 754 371 763.5 Q356 773 351 780 L351 851 Z " />
<glyph glyph-name="Amacron" unicode="&#x100;" horiz-adv-x="621" d="M27 78 L210 700 L411 700 L594 78 L594 0 L472 0 L417 203 L192 203 L137 0 L27 0 L27 78 Z M221 306 L389 306 L314 583 L297 583 L221 306 Z M132 849 L486 849 L486 760 L132 760 L132 849 Z " />
<glyph glyph-name="Abreve" unicode="&#x102;" horiz-adv-x="621" d="M27 78 L210 700 L411 700 L594 78 L594 0 L472 0 L417 203 L192 203 L137 0 L27 0 L27 78 Z M221 306 L389 306 L314 583 L297 583 L221 306 Z M146 870 L240 870 L240 842 Q244 833 260 819.5 Q276 806 309 806 Q342 806 358 819.5 Q374 833 378 842 L378 870 L471 870 L471 824 Q463 807 450 790.5 Q437 774 417.5 761 Q398 748 371.5 740.5 Q345 733 309 733 Q273 733 246.5 740.5 Q220 748 200.5 761 Q181 774 167.5 790.5 Q154 807 146 824 L146 870 Z " />
<glyph glyph-name="Aring" unicode="&#xc5;" horiz-adv-x="621" d="M195 826 Q208 852 238 870 Q268 888 310 888 Q351 888 381 870 Q411 852 425 826 L425 739 Q413 716 388 700 L411 700 L594 78 L594 0 L472 0 L417 203 L192 203 L137 0 L27 0 L27 78 L210 700 L230 700 Q206 716 195 739 L195 826 Z M221 306 L389 306 L314 583 L297 583 L221 306 Z M257 753 Q262 746 275 738.5 Q288 731 310 731 Q332 731 344.5 738.5 Q357 746 362 753 L362 812 Q357 819 344.5 826.5 Q332 834 310 834 Q288 834 275 826.5 Q262 819 257 812 L257 753 Z " />
<glyph glyph-name="Aogonek" unicode="&#x104;" horiz-adv-x="621" d="M399 -112 Q403 -102 414.5 -86 Q426 -70 443 -51 Q460 -32 482 -13 Q489 -6 497 0 L472 0 L417 203 L192 203 L137 0 L27 0 L27 78 L210 700 L411 700 L594 78 L594 0 Q541 -45 518.5 -75.5 Q496 -106 491 -117 L491 -146 Q495 -154 507.5 -159.5 Q520 -165 537 -165 Q553 -165 566 -162.5 Q579 -160 594 -153 L594 -220 Q580 -228 563.5 -232 Q547 -236 517 -236 Q477 -236 444 -223.5 Q411 -211 399 -185 L399 -112 Z M221 306 L389 306 L314 583 L297 583 L221 306 Z " />
<glyph glyph-name="AE" unicode="&#xc6;" horiz-adv-x="845" d="M372 190 L193 190 L127 0 L20 0 L20 78 L246 700 L795 700 L795 597 L509 597 L509 410 L776 410 L776 307 L509 307 L509 103 L803 103 L803 0 L372 0 L372 190 Z M229 293 L372 293 L372 597 L335 597 L229 293 Z " />
<glyph glyph-name="AEacute" unicode="&#x1fc;" horiz-adv-x="845" d="M372 190 L193 190 L127 0 L20 0 L20 78 L246 700 L795 700 L795 597 L509 597 L509 410 L776 410 L776 307 L509 307 L509 103 L803 103 L803 0 L372 0 L372 190 Z M229 293 L372 293 L372 597 L335 597 L229 293 Z M431 762 L488 904 L611 904 L611 849 L531 747 L431 747 L431 762 Z " />
<glyph glyph-name="Cacute" unicode="&#x106;" horiz-adv-x="616" d="M570 277 L570 129 Q559 108 539.5 83 Q520 58 489 36.5 Q458 15 415 0.5 Q372 -14 314 -14 Q256 -14 212 0.5 Q168 15 136.5 37.5 Q105 60 84.5 87 Q64 114 53 138 L53 562 Q64 587 84.5 614 Q105 641 136.5 663.5 Q168 686 212 700.5 Q256 715 314 715 Q372 715 415 700.5 Q458 686 489 664.5 Q520 643 539.5 618 Q559 593 570 572 L570 433 L438 433 L438 535 Q426 564 394.5 586.5 Q363 609 314 609 Q265 609 234.5 586.5 Q204 564 190 535 L190 165 Q202 136 233.5 113.5 Q265 91 314 91 Q363 91 393.5 113.5 Q424 136 438 165 L438 277 L570 277 Z M258 770 L315 912 L438 912 L438 857 L358 755 L258 755 L258 770 Z " />
<glyph glyph-name="Ccircumflex" unicode="&#x108;" horiz-adv-x="616" d="M570 277 L570 129 Q559 108 539.5 83 Q520 58 489 36.5 Q458 15 415 0.5 Q372 -14 314 -14 Q256 -14 212 0.5 Q168 15 136.5 37.5 Q105 60 84.5 87 Q64 114 53 138 L53 562 Q64 587 84.5 614 Q105 641 136.5 663.5 Q168 686 212 700.5 Q256 715 314 715 Q372 715 415 700.5 Q458 686 489 664.5 Q520 643 539.5 618 Q559 593 570 572 L570 433 L438 433 L438 535 Q426 564 394.5 586.5 Q363 609 314 609 Q265 609 234.5 586.5 Q204 564 190 535 L190 165 Q202 136 233.5 113.5 Q265 91 314 91 Q363 91 393.5 113.5 Q424 136 438 165 L438 277 L570 277 Z M153 768 L236 910 L399 910 L482 768 L482 753 L393 753 L318 846 L243 753 L153 753 L153 768 Z " />
<glyph glyph-name="Ccaron" unicode="&#x10c;" horiz-adv-x="616" d="M570 277 L570 129 Q559 108 539.5 83 Q520 58 489 36.5 Q458 15 415 0.5 Q372 -14 314 -14 Q256 -14 212 0.5 Q168 15 136.5 37.5 Q105 60 84.5 87 Q64 114 53 138 L53 562 Q64 587 84.5 614 Q105 641 136.5 663.5 Q168 686 212 700.5 Q256 715 314 715 Q372 715 415 700.5 Q458 686 489 664.5 Q520 643 539.5 618 Q559 593 570 572 L570 433 L438 433 L438 535 Q426 564 394.5 586.5 Q363 609 314 609 Q265 609 234.5 586.5 Q204 564 190 535 L190 165 Q202 136 233.5 113.5 Q265 91 314 91 Q363 91 393.5 113.5 Q424 136 438 165 L438 277 L570 277 Z M151 896 L151 911 L241 911 L316 819 L391 911 L480 911 L480 896 L397 754 L234 754 L151 896 Z " />
<glyph glyph-name="Cdotaccent" unicode="&#x10a;" horiz-adv-x="616" d="M570 277 L570 129 Q559 108 539.5 83 Q520 58 489 36.5 Q458 15 415 0.5 Q372 -14 314 -14 Q256 -14 212 0.5 Q168 15 136.5 37.5 Q105 60 84.5 87 Q64 114 53 138 L53 562 Q64 587 84.5 614 Q105 641 136.5 663.5 Q168 686 212 700.5 Q256 715 314 715 Q372 715 415 700.5 Q458 686 489 664.5 Q520 643 539.5 618 Q559 593 570 572 L570 433 L438 433 L438 535 Q426 564 394.5 586.5 Q363 609 314 609 Q265 609 234.5 586.5 Q204 564 190 535 L190 165 Q202 136 233.5 113.5 Q265 91 314 91 Q363 91 393.5 113.5 Q424 136 438 165 L438 277 L570 277 Z M246 857 Q252 870 269 881 Q286 892 315 892 Q344 892 361.5 881 Q379 870 384 857 L384 799 Q379 786 361.5 775 Q344 764 315 764 Q286 764 269 775 Q252 786 246 799 L246 857 Z " />
<glyph glyph-name="Ccedilla" unicode="&#xc7;" horiz-adv-x="616" d="M229 -167 Q245 -173 264 -177 Q283 -181 303 -181 Q323 -181 334.5 -175 Q346 -169 351 -161 L351 -129 Q341 -110 306 -110 L244 -110 L272 -12 Q240 -9 204 3 Q168 15 136.5 37.5 Q105 60 84.5 87 Q64 114 53 138 L53 562 Q64 587 84.5 614 Q105 641 136.5 663.5 Q168 686 212 700.5 Q256 715 314 715 Q372 715 415 700.5 Q458 686 489 664.5 Q520 643 539.5 618 Q559 593 570 572 L570 433 L438 433 L438 535 Q426 564 394.5 586.5 Q363 609 314 609 Q265 609 234.5 586.5 Q204 564 190 535 L190 165 Q202 136 233.5 113.5 Q265 91 314 91 Q363 91 393.5 113.5 Q424 136 438 165 L438 277 L570 277 L570 129 Q559 108 539.5 83 Q520 58 489 36.5 Q458 15 419 2 Q380 -11 342 -13 L330 -56 L343 -56 Q376 -56 397.5 -72 Q419 -88 427 -105 L427 -190 Q415 -215 384.5 -230.5 Q354 -246 311 -246 Q278 -246 252 -240 Q226 -234 212 -226 L229 -167 Z " />
<glyph glyph-name="Dcaron" unicode="&#x10e;" horiz-adv-x="627" d="M438 530 Q426 559 394.5 578 Q363 597 314 597 L200 597 L200 103 L314 103 Q363 103 394.5 122 Q426 141 438 170 L438 530 Z M575 138 Q564 113 544.5 88.5 Q525 64 496 44.5 Q467 25 428.5 12.5 Q390 0 341 0 L63 0 L63 700 L341 700 Q390 700 428.5 687.5 Q467 675 496 655.5 Q525 636 544.5 611.5 Q564 587 575 562 L575 138 Z M147 889 L147 904 L237 904 L312 812 L387 904 L476 904 L476 889 L393 747 L230 747 L147 889 Z " />
<glyph glyph-name="Dcroat" unicode="&#x110;" horiz-adv-x="653" d="M35 407 L83 407 L83 700 L360 700 Q409 700 448 687.5 Q487 675 515.5 655.5 Q544 636 563.5 611.5 Q583 587 594 562 L594 138 Q583 113 563.5 88.5 Q544 64 515.5 44.5 Q487 25 448 12.5 Q409 0 360 0 L83 0 L83 304 L35 304 L35 407 Z M457 530 Q446 559 414 578 Q382 597 334 597 L219 597 L219 407 L352 407 L352 304 L219 304 L219 103 L334 103 Q382 103 414 122 Q446 141 457 170 L457 530 Z " />
<glyph glyph-name="Egrave" unicode="&#xc8;" horiz-adv-x="536" d="M63 700 L487 700 L487 597 L200 597 L200 410 L467 410 L467 307 L200 307 L200 103 L494 103 L494 0 L63 0 L63 700 Z M160 849 L160 904 L283 904 L340 762 L340 747 L241 747 L160 849 Z " />
<glyph glyph-name="Eacute" unicode="&#xc9;" horiz-adv-x="536" d="M63 700 L487 700 L487 597 L200 597 L200 410 L467 410 L467 307 L200 307 L200 103 L494 103 L494 0 L63 0 L63 700 Z M219 762 L276 904 L399 904 L399 849 L319 747 L219 747 L219 762 Z " />
<glyph glyph-name="Ecircumflex" unicode="&#xca;" horiz-adv-x="536" d="M63 700 L487 700 L487 597 L200 597 L200 410 L467 410 L467 307 L200 307 L200 103 L494 103 L494 0 L63 0 L63 700 Z M111 762 L194 904 L357 904 L440 762 L440 747 L351 747 L276 840 L201 747 L111 747 L111 762 Z " />
<glyph glyph-name="Ecaron" unicode="&#x11a;" horiz-adv-x="536" d="M63 700 L487 700 L487 597 L200 597 L200 410 L467 410 L467 307 L200 307 L200 103 L494 103 L494 0 L63 0 L63 700 Z M112 889 L112 904 L202 904 L277 812 L352 904 L441 904 L441 889 L358 747 L195 747 L112 889 Z " />
<glyph glyph-name="Edieresis" unicode="&#xcb;" horiz-adv-x="536" d="M63 700 L487 700 L487 597 L200 597 L200 410 L467 410 L467 307 L200 307 L200 103 L494 103 L494 0 L63 0 L63 700 Z M106 851 Q112 858 126.5 867.5 Q141 877 170 877 Q199 877 214 867.5 Q229 858 234 851 L234 780 Q229 773 214 763.5 Q199 754 170 754 Q141 754 126.5 763.5 Q112 773 106 780 L106 851 Z M318 851 Q323 858 338 867.5 Q353 877 382 877 Q411 877 426 867.5 Q441 858 446 851 L446 780 Q441 773 426 763.5 Q411 754 382 754 Q353 754 338 763.5 Q323 773 318 780 L318 851 Z " />
<glyph glyph-name="Emacron" unicode="&#x112;" horiz-adv-x="536" d="M63 700 L487 700 L487 597 L200 597 L200 410 L467 410 L467 307 L200 307 L200 103 L494 103 L494 0 L63 0 L63 700 Z M97 849 L451 849 L451 760 L97 760 L97 849 Z " />
<glyph glyph-name="Ebreve" unicode="&#x114;" horiz-adv-x="536" d="M63 700 L487 700 L487 597 L200 597 L200 410 L467 410 L467 307 L200 307 L200 103 L494 103 L494 0 L63 0 L63 700 Z M113 872 L207 872 L207 844 Q211 835 227 821.5 Q243 808 276 808 Q309 808 325 821.5 Q341 835 345 844 L345 872 L438 872 L438 826 Q430 809 417 792.5 Q404 776 384.5 763 Q365 750 338.5 742.5 Q312 735 276 735 Q240 735 213.5 742.5 Q187 750 167.5 763 Q148 776 134.5 792.5 Q121 809 113 826 L113 872 Z " />
<glyph glyph-name="Edotaccent" unicode="&#x116;" horiz-adv-x="536" d="M63 700 L487 700 L487 597 L200 597 L200 410 L467 410 L467 307 L200 307 L200 103 L494 103 L494 0 L63 0 L63 700 Z M210 852 Q216 865 233 876 Q250 887 279 887 Q308 887 325.5 876 Q343 865 348 852 L348 794 Q343 781 325.5 770 Q308 759 279 759 Q250 759 233 770 Q216 781 210 794 L210 852 Z " />
<glyph glyph-name="Eogonek" unicode="&#x118;" horiz-adv-x="536" d="M299 -112 Q303 -102 314.5 -86 Q326 -70 343 -51 Q360 -32 382 -13 Q389 -6 397 0 L63 0 L63 700 L487 700 L487 597 L200 597 L200 410 L467 410 L467 307 L200 307 L200 103 L494 103 L494 0 Q441 -45 418.5 -75.5 Q396 -106 391 -117 L391 -146 Q395 -154 407.5 -159.5 Q420 -165 437 -165 Q453 -165 466 -162.5 Q479 -160 494 -153 L494 -220 Q480 -228 463.5 -232 Q447 -236 417 -236 Q377 -236 344 -223.5 Q311 -211 299 -185 L299 -112 Z " />
<glyph glyph-name="Gcircumflex" unicode="&#x11c;" horiz-adv-x="618" d="M325 382 L570 382 L570 129 Q559 108 539.5 83 Q520 58 489 36.5 Q458 15 415 0.5 Q372 -14 314 -14 Q256 -14 212 0.5 Q168 15 136.5 37.5 Q105 60 84.5 87 Q64 114 53 138 L53 562 Q64 587 84.5 614 Q105 641 136.5 663.5 Q168 686 212 700.5 Q256 715 314 715 Q372 715 415 700.5 Q458 686 489 664.5 Q520 643 539.5 618 Q559 593 570 572 L570 461 L438 461 L438 535 Q426 564 394.5 586.5 Q363 609 314 609 Q265 609 234.5 586.5 Q204 564 190 535 L190 165 Q202 136 234.5 113.5 Q267 91 316 91 Q367 91 398 113 Q429 135 442 162 L442 279 L325 279 L325 382 Z M150 767 L233 909 L396 909 L479 767 L479 752 L390 752 L315 845 L240 752 L150 752 L150 767 Z " />
<glyph glyph-name="Gbreve" unicode="&#x11e;" horiz-adv-x="618" d="M325 382 L570 382 L570 129 Q559 108 539.5 83 Q520 58 489 36.5 Q458 15 415 0.5 Q372 -14 314 -14 Q256 -14 212 0.5 Q168 15 136.5 37.5 Q105 60 84.5 87 Q64 114 53 138 L53 562 Q64 587 84.5 614 Q105 641 136.5 663.5 Q168 686 212 700.5 Q256 715 314 715 Q372 715 415 700.5 Q458 686 489 664.5 Q520 643 539.5 618 Q559 593 570 572 L570 461 L438 461 L438 535 Q426 564 394.5 586.5 Q363 609 314 609 Q265 609 234.5 586.5 Q204 564 190 535 L190 165 Q202 136 234.5 113.5 Q267 91 316 91 Q367 91 398 113 Q429 135 442 162 L442 279 L325 279 L325 382 Z M153 878 L247 878 L247 850 Q251 841 267 827.5 Q283 814 316 814 Q349 814 365 827.5 Q381 841 385 850 L385 878 L478 878 L478 832 Q470 815 457 798.5 Q444 782 424.5 769 Q405 756 378.5 748.5 Q352 741 316 741 Q280 741 253.5 748.5 Q227 756 207.5 769 Q188 782 174.5 798.5 Q161 815 153 832 L153 878 Z " />
<glyph glyph-name="Gdotaccent" unicode="&#x120;" horiz-adv-x="618" d="M325 382 L570 382 L570 129 Q559 108 539.5 83 Q520 58 489 36.5 Q458 15 415 0.5 Q372 -14 314 -14 Q256 -14 212 0.5 Q168 15 136.5 37.5 Q105 60 84.5 87 Q64 114 53 138 L53 562 Q64 587 84.5 614 Q105 641 136.5 663.5 Q168 686 212 700.5 Q256 715 314 715 Q372 715 415 700.5 Q458 686 489 664.5 Q520 643 539.5 618 Q559 593 570 572 L570 461 L438 461 L438 535 Q426 564 394.5 586.5 Q363 609 314 609 Q265 609 234.5 586.5 Q204 564 190 535 L190 165 Q202 136 234.5 113.5 Q267 91 316 91 Q367 91 398 113 Q429 135 442 162 L442 279 L325 279 L325 382 Z M245 856 Q251 869 268 880 Q285 891 314 891 Q343 891 360.5 880 Q378 869 383 856 L383 798 Q378 785 360.5 774 Q343 763 314 763 Q285 763 268 774 Q251 785 245 798 L245 856 Z " />
<glyph glyph-name="Gcommaaccent" unicode="&#x122;" horiz-adv-x="618" d="M325 382 L570 382 L570 129 Q559 108 539.5 83 Q520 58 489 36.5 Q458 15 415 0.5 Q372 -14 314 -14 Q256 -14 212 0.5 Q168 15 136.5 37.5 Q105 60 84.5 87 Q64 114 53 138 L53 562 Q64 587 84.5 614 Q105 641 136.5 663.5 Q168 686 212 700.5 Q256 715 314 715 Q372 715 415 700.5 Q458 686 489 664.5 Q520 643 539.5 618 Q559 593 570 572 L570 461 L438 461 L438 535 Q426 564 394.5 586.5 Q363 609 314 609 Q265 609 234.5 586.5 Q204 564 190 535 L190 165 Q202 136 234.5 113.5 Q267 91 316 91 Q367 91 398 113 Q429 135 442 162 L442 279 L325 279 L325 382 Z M254 -184 L284 -184 Q295 -184 303.5 -181.5 Q312 -179 316 -171 L316 -145 L314 -145 Q285 -145 269 -139.5 Q253 -134 248 -128 L248 -71 Q253 -65 269 -58 Q285 -51 314 -51 Q343 -51 359 -58 Q375 -65 380 -71 L380 -176 Q375 -194 352.5 -210 Q330 -226 295 -226 L254 -226 L254 -184 Z " />
<glyph glyph-name="Hcircumflex" unicode="&#x124;" horiz-adv-x="652" d="M63 700 L200 700 L200 412 L452 412 L452 700 L589 700 L589 0 L452 0 L452 309 L200 309 L200 0 L63 0 L63 700 Z M161 762 L244 904 L407 904 L490 762 L490 747 L401 747 L326 840 L251 747 L161 747 L161 762 Z " />
<glyph glyph-name="Hbar" unicode="&#x126;" horiz-adv-x="652" d="M26 626 L63 626 L63 700 L200 700 L200 626 L452 626 L452 700 L589 700 L589 626 L629 626 L629 542 L589 542 L589 0 L452 0 L452 309 L200 309 L200 0 L63 0 L63 542 L26 542 L26 626 Z M452 412 L452 542 L200 542 L200 412 L452 412 Z " />
<glyph glyph-name="Igrave" unicode="&#xcc;" horiz-adv-x="263" d="M63 700 L200 700 L200 0 L63 0 L63 700 Z M21 849 L21 904 L144 904 L201 762 L201 747 L102 747 L21 849 Z " />
<glyph glyph-name="Iacute" unicode="&#xcd;" horiz-adv-x="263" d="M63 700 L200 700 L200 0 L63 0 L63 700 Z M64 762 L121 904 L244 904 L244 849 L164 747 L64 747 L64 762 Z " />
<glyph glyph-name="Icircumflex" unicode="&#xce;" horiz-adv-x="263" d="M63 700 L200 700 L200 0 L63 0 L63 700 Z M-31 762 L52 904 L215 904 L298 762 L298 747 L209 747 L134 840 L59 747 L-31 747 L-31 762 Z " />
<glyph glyph-name="Itilde" unicode="&#x128;" horiz-adv-x="263" d="M63 700 L200 700 L200 0 L63 0 L63 700 Z M323 824 Q315 795 288 773 Q261 751 214 751 Q184 751 164 759 Q144 767 127.5 776.5 Q111 786 97 794 Q83 802 65 802 Q45 802 35 793.5 Q25 785 21 776 L21 756 L-55 756 L-55 809 Q-46 840 -18 861 Q10 882 54 882 Q83 882 103 874 Q123 866 139.5 856.5 Q156 847 170.5 839 Q185 831 203 831 Q220 831 231 838.5 Q242 846 247 857 L247 877 L323 877 L323 824 Z " />
<glyph glyph-name="Idieresis" unicode="&#xcf;" horiz-adv-x="263" d="M63 700 L200 700 L200 0 L63 0 L63 700 Z M-35 853 Q-29 860 -14.5 869.5 Q0 879 29 879 Q58 879 73 869.5 Q88 860 93 853 L93 782 Q88 775 73 765.5 Q58 756 29 756 Q0 756 -14.5 765.5 Q-29 775 -35 782 L-35 853 Z M177 853 Q182 860 197 869.5 Q212 879 241 879 Q270 879 285 869.5 Q300 860 305 853 L305 782 Q300 775 285 765.5 Q270 756 241 756 Q212 756 197 765.5 Q182 775 177 782 L177 853 Z " />
<glyph glyph-name="Imacron" unicode="&#x12a;" horiz-adv-x="263" d="M63 700 L200 700 L200 0 L63 0 L63 700 Z M-43 849 L311 849 L311 760 L-43 760 L-43 849 Z " />
<glyph glyph-name="Ibreve" unicode="&#x12c;" horiz-adv-x="263" d="M63 700 L200 700 L200 0 L63 0 L63 700 Z M-29 873 L65 873 L65 845 Q69 836 85 822.5 Q101 809 134 809 Q167 809 183 822.5 Q199 836 203 845 L203 873 L296 873 L296 827 Q288 810 275 793.5 Q262 777 242.5 764 Q223 751 196.5 743.5 Q170 736 134 736 Q98 736 71.5 743.5 Q45 751 25.5 764 Q6 777 -7.5 793.5 Q-21 810 -29 827 L-29 873 Z " />
<glyph glyph-name="Idotaccent" unicode="&#x130;" horiz-adv-x="263" d="M63 700 L200 700 L200 0 L63 0 L63 700 Z M65 852 Q71 865 88 876 Q105 887 134 887 Q163 887 180.5 876 Q198 865 203 852 L203 794 Q198 781 180.5 770 Q163 759 134 759 Q105 759 88 770 Q71 781 65 794 L65 852 Z " />
<glyph glyph-name="Iogonek" unicode="&#x12e;" horiz-adv-x="263" d="M5 -112 Q9 -102 20.5 -86 Q32 -70 49 -51 Q66 -32 88 -13 Q95 -6 103 0 L63 0 L63 700 L200 700 L200 0 Q147 -45 124.5 -75.5 Q102 -106 97 -117 L97 -146 Q101 -154 113.5 -159.5 Q126 -165 143 -165 Q159 -165 172 -162.5 Q185 -160 200 -153 L200 -220 Q186 -228 169.5 -232 Q153 -236 123 -236 Q83 -236 50 -223.5 Q17 -211 5 -185 L5 -112 Z " />
<glyph glyph-name="IJ" unicode="&#x132;" horiz-adv-x="632" d="M63 700 L200 700 L200 0 L63 0 L63 700 Z M276 103 L322 103 Q369 103 401 121 Q433 139 447 171 L447 700 L584 700 L584 138 Q570 109 549 83.5 Q528 58 497.5 39 Q467 20 426 9 Q385 -2 332 -2 Q314 -2 300 -1.5 Q286 -1 276 0 L276 103 Z " />
<glyph glyph-name="Jcircumflex" unicode="&#x134;" horiz-adv-x="388" d="M20 103 L66 103 Q113 103 145 121 Q177 139 191 171 L191 700 L328 700 L328 138 Q314 109 293 83.5 Q272 58 241.5 39 Q211 20 170 9 Q129 -2 76 -2 Q58 -2 44 -1.5 Q30 -1 20 0 L20 103 Z M95 762 L178 904 L341 904 L424 762 L424 747 L335 747 L260 840 L185 747 L95 747 L95 762 Z " />
<glyph glyph-name="Kcommaaccent" unicode="&#x136;" horiz-adv-x="586" d="M63 700 L200 700 L200 429 L217 429 L456 700 L552 700 L552 622 L343 395 L558 78 L558 0 L453 0 L255 300 L200 240 L200 0 L63 0 L63 700 Z M245 -182 L275 -182 Q286 -182 294.5 -179.5 Q303 -177 307 -169 L307 -143 L305 -143 Q276 -143 260 -137.5 Q244 -132 239 -126 L239 -69 Q244 -63 260 -56 Q276 -49 305 -49 Q334 -49 350 -56 Q366 -63 371 -69 L371 -174 Q366 -192 343.5 -208 Q321 -224 286 -224 L245 -224 L245 -182 Z " />
<glyph glyph-name="Lacute" unicode="&#x139;" horiz-adv-x="457" d="M63 700 L200 700 L200 103 L435 103 L435 0 L63 0 L63 700 Z M64 762 L121 904 L244 904 L244 849 L164 747 L64 747 L64 762 Z " />
<glyph glyph-name="Lcaron" unicode="&#x13d;" horiz-adv-x="457" d="M63 700 L200 700 L200 103 L435 103 L435 0 L63 0 L63 700 Z M280 516 L300 700 L405 700 L405 634 L361 501 L280 501 L280 516 Z " />
<glyph glyph-name="Lcommaaccent" unicode="&#x13b;" horiz-adv-x="457" d="M63 700 L200 700 L200 103 L435 103 L435 0 L63 0 L63 700 Z M187 -182 L217 -182 Q228 -182 236.5 -179.5 Q245 -177 249 -169 L249 -143 L247 -143 Q218 -143 202 -137.5 Q186 -132 181 -126 L181 -69 Q186 -63 202 -56 Q218 -49 247 -49 Q276 -49 292 -56 Q308 -63 313 -69 L313 -174 Q308 -192 285.5 -208 Q263 -224 228 -224 L187 -224 L187 -182 Z " />
<glyph glyph-name="Lslash" unicode="&#x141;" horiz-adv-x="491" d="M25 265 L98 302 L98 700 L234 700 L234 373 L385 451 L385 353 L234 274 L234 103 L469 103 L469 0 L98 0 L98 203 L25 165 L25 265 Z " />
<glyph glyph-name="Ldot" unicode="&#x13f;" horiz-adv-x="496" d="M63 700 L200 700 L200 103 L435 103 L435 0 L63 0 L63 700 Z M309 424 Q315 436 332 447.5 Q349 459 378 459 Q407 459 424.5 447.5 Q442 436 447 424 L447 366 Q442 353 424.5 342 Q407 331 378 331 Q349 331 332 342 Q315 353 309 366 L309 424 Z " />
<glyph glyph-name="Nacute" unicode="&#x143;" horiz-adv-x="665" d="M63 700 L223 700 L457 226 L474 226 L474 700 L602 700 L602 0 L442 0 L209 474 L191 474 L191 0 L63 0 L63 700 Z M294 758 L351 900 L474 900 L474 845 L394 743 L294 743 L294 758 Z " />
<glyph glyph-name="Ncaron" unicode="&#x147;" horiz-adv-x="665" d="M63 700 L223 700 L457 226 L474 226 L474 700 L602 700 L602 0 L442 0 L209 474 L191 474 L191 0 L63 0 L63 700 Z M179 885 L179 900 L269 900 L344 808 L419 900 L508 900 L508 885 L425 743 L262 743 L179 885 Z " />
<glyph glyph-name="Ntilde" unicode="&#xd1;" horiz-adv-x="665" d="M63 700 L223 700 L457 226 L474 226 L474 700 L602 700 L602 0 L442 0 L209 474 L191 474 L191 0 L63 0 L63 700 Z M529 824 Q521 795 494 773 Q467 751 420 751 Q390 751 370 759 Q350 767 333.5 776.5 Q317 786 303 794 Q289 802 271 802 Q251 802 241 793.5 Q231 785 227 776 L227 756 L151 756 L151 809 Q160 840 188 861 Q216 882 260 882 Q289 882 309 874 Q329 866 345.5 856.5 Q362 847 376.5 839 Q391 831 409 831 Q426 831 437 838.5 Q448 846 453 857 L453 877 L529 877 L529 824 Z " />
<glyph glyph-name="Ncommaaccent" unicode="&#x145;" horiz-adv-x="665" d="M63 700 L223 700 L457 226 L474 226 L474 700 L602 700 L602 0 L442 0 L209 474 L191 474 L191 0 L63 0 L63 700 Z M282 -179 L312 -179 Q323 -179 331.5 -176.5 Q340 -174 344 -166 L344 -140 L342 -140 Q313 -140 297 -134.5 Q281 -129 276 -123 L276 -66 Q281 -60 297 -53 Q313 -46 342 -46 Q371 -46 387 -53 Q403 -60 408 -66 L408 -171 Q403 -189 380.5 -205 Q358 -221 323 -221 L282 -221 L282 -179 Z " />
<glyph glyph-name="Ograve" unicode="&#xd2;" horiz-adv-x="628" d="M190 165 Q203 136 234 113.5 Q265 91 314 91 Q363 91 394 113.5 Q425 136 438 165 L438 535 Q425 564 394 586.5 Q363 609 314 609 Q265 609 234 586.5 Q203 564 190 535 L190 165 Z M53 562 Q64 587 84.5 614 Q105 641 136.5 663.5 Q168 686 212 700.5 Q256 715 314 715 Q372 715 416 700.5 Q460 686 491.5 663.5 Q523 641 543.5 614 Q564 587 575 562 L575 138 Q564 114 543.5 87 Q523 60 491.5 37.5 Q460 15 416 0.5 Q372 -14 314 -14 Q256 -14 212 0.5 Q168 15 136.5 37.5 Q105 60 84.5 87 Q64 114 53 138 L53 562 Z M188 855 L188 910 L311 910 L368 768 L368 753 L269 753 L188 855 Z " />
<glyph glyph-name="Oacute" unicode="&#xd3;" horiz-adv-x="628" d="M190 165 Q203 136 234 113.5 Q265 91 314 91 Q363 91 394 113.5 Q425 136 438 165 L438 535 Q425 564 394 586.5 Q363 609 314 609 Q265 609 234 586.5 Q203 564 190 535 L190 165 Z M53 562 Q64 587 84.5 614 Q105 641 136.5 663.5 Q168 686 212 700.5 Q256 715 314 715 Q372 715 416 700.5 Q460 686 491.5 663.5 Q523 641 543.5 614 Q564 587 575 562 L575 138 Q564 114 543.5 87 Q523 60 491.5 37.5 Q460 15 416 0.5 Q372 -14 314 -14 Q256 -14 212 0.5 Q168 15 136.5 37.5 Q105 60 84.5 87 Q64 114 53 138 L53 562 Z M263 768 L320 910 L443 910 L443 855 L363 753 L263 753 L263 768 Z " />
<glyph glyph-name="Ocircumflex" unicode="&#xd4;" horiz-adv-x="628" d="M190 165 Q203 136 234 113.5 Q265 91 314 91 Q363 91 394 113.5 Q425 136 438 165 L438 535 Q425 564 394 586.5 Q363 609 314 609 Q265 609 234 586.5 Q203 564 190 535 L190 165 Z M53 562 Q64 587 84.5 614 Q105 641 136.5 663.5 Q168 686 212 700.5 Q256 715 314 715 Q372 715 416 700.5 Q460 686 491.5 663.5 Q523 641 543.5 614 Q564 587 575 562 L575 138 Q564 114 543.5 87 Q523 60 491.5 37.5 Q460 15 416 0.5 Q372 -14 314 -14 Q256 -14 212 0.5 Q168 15 136.5 37.5 Q105 60 84.5 87 Q64 114 53 138 L53 562 Z M150 768 L233 910 L396 910 L479 768 L479 753 L390 753 L315 846 L240 753 L150 753 L150 768 Z " />
<glyph glyph-name="Otilde" unicode="&#xd5;" horiz-adv-x="628" d="M190 165 Q203 136 234 113.5 Q265 91 314 91 Q363 91 394 113.5 Q425 136 438 165 L438 535 Q425 564 394 586.5 Q363 609 314 609 Q265 609 234 586.5 Q203 564 190 535 L190 165 Z M53 562 Q64 587 84.5 614 Q105 641 136.5 663.5 Q168 686 212 700.5 Q256 715 314 715 Q372 715 416 700.5 Q460 686 491.5 663.5 Q523 641 543.5 614 Q564 587 575 562 L575 138 Q564 114 543.5 87 Q523 60 491.5 37.5 Q460 15 416 0.5 Q372 -14 314 -14 Q256 -14 212 0.5 Q168 15 136.5 37.5 Q105 60 84.5 87 Q64 114 53 138 L53 562 Z M504 829 Q496 800 469 778 Q442 756 395 756 Q365 756 345 764 Q325 772 308.5 781.5 Q292 791 278 799 Q264 807 246 807 Q226 807 216 798.5 Q206 790 202 781 L202 761 L126 761 L126 814 Q135 845 163 866 Q191 887 235 887 Q264 887 284 879 Q304 871 320.5 861.5 Q337 852 351.5 844 Q366 836 384 836 Q401 836 412 843.5 Q423 851 428 862 L428 882 L504 882 L504 829 Z " />
<glyph glyph-name="Odieresis" unicode="&#xd6;" horiz-adv-x="628" d="M190 165 Q203 136 234 113.5 Q265 91 314 91 Q363 91 394 113.5 Q425 136 438 165 L438 535 Q425 564 394 586.5 Q363 609 314 609 Q265 609 234 586.5 Q203 564 190 535 L190 165 Z M53 562 Q64 587 84.5 614 Q105 641 136.5 663.5 Q168 686 212 700.5 Q256 715 314 715 Q372 715 416 700.5 Q460 686 491.5 663.5 Q523 641 543.5 614 Q564 587 575 562 L575 138 Q564 114 543.5 87 Q523 60 491.5 37.5 Q460 15 416 0.5 Q372 -14 314 -14 Q256 -14 212 0.5 Q168 15 136.5 37.5 Q105 60 84.5 87 Q64 114 53 138 L53 562 Z M144 854 Q150 861 164.5 870.5 Q179 880 208 880 Q237 880 252 870.5 Q267 861 272 854 L272 783 Q267 776 252 766.5 Q237 757 208 757 Q179 757 164.5 766.5 Q150 776 144 783 L144 854 Z M356 854 Q361 861 376 870.5 Q391 880 420 880 Q449 880 464 870.5 Q479 861 484 854 L484 783 Q479 776 464 766.5 Q449 757 420 757 Q391 757 376 766.5 Q361 776 356 783 L356 854 Z " />
<glyph glyph-name="Omacron" unicode="&#x14c;" horiz-adv-x="628" d="M190 165 Q203 136 234 113.5 Q265 91 314 91 Q363 91 394 113.5 Q425 136 438 165 L438 535 Q425 564 394 586.5 Q363 609 314 609 Q265 609 234 586.5 Q203 564 190 535 L190 165 Z M53 562 Q64 587 84.5 614 Q105 641 136.5 663.5 Q168 686 212 700.5 Q256 715 314 715 Q372 715 416 700.5 Q460 686 491.5 663.5 Q523 641 543.5 614 Q564 587 575 562 L575 138 Q564 114 543.5 87 Q523 60 491.5 37.5 Q460 15 416 0.5 Q372 -14 314 -14 Q256 -14 212 0.5 Q168 15 136.5 37.5 Q105 60 84.5 87 Q64 114 53 138 L53 562 Z M137 856 L491 856 L491 767 L137 767 L137 856 Z " />
<glyph glyph-name="Obreve" unicode="&#x14e;" horiz-adv-x="628" d="M190 165 Q203 136 234 113.5 Q265 91 314 91 Q363 91 394 113.5 Q425 136 438 165 L438 535 Q425 564 394 586.5 Q363 609 314 609 Q265 609 234 586.5 Q203 564 190 535 L190 165 Z M53 562 Q64 587 84.5 614 Q105 641 136.5 663.5 Q168 686 212 700.5 Q256 715 314 715 Q372 715 416 700.5 Q460 686 491.5 663.5 Q523 641 543.5 614 Q564 587 575 562 L575 138 Q564 114 543.5 87 Q523 60 491.5 37.5 Q460 15 416 0.5 Q372 -14 314 -14 Q256 -14 212 0.5 Q168 15 136.5 37.5 Q105 60 84.5 87 Q64 114 53 138 L53 562 Z M151 879 L245 879 L245 851 Q249 842 265 828.5 Q281 815 314 815 Q347 815 363 828.5 Q379 842 383 851 L383 879 L476 879 L476 833 Q468 816 455 799.5 Q442 783 422.5 770 Q403 757 376.5 749.5 Q350 742 314 742 Q278 742 251.5 749.5 Q225 757 205.5 770 Q186 783 172.5 799.5 Q159 816 151 833 L151 879 Z " />
<glyph glyph-name="Ohungarumlaut" unicode="&#x150;" horiz-adv-x="628" d="M190 165 Q203 136 234 113.5 Q265 91 314 91 Q363 91 394 113.5 Q425 136 438 165 L438 535 Q425 564 394 586.5 Q363 609 314 609 Q265 609 234 586.5 Q203 564 190 535 L190 165 Z M53 562 Q64 587 84.5 614 Q105 641 136.5 663.5 Q168 686 212 700.5 Q256 715 314 715 Q372 715 416 700.5 Q460 686 491.5 663.5 Q523 641 543.5 614 Q564 587 575 562 L575 138 Q564 114 543.5 87 Q523 60 491.5 37.5 Q460 15 416 0.5 Q372 -14 314 -14 Q256 -14 212 0.5 Q168 15 136.5 37.5 Q105 60 84.5 87 Q64 114 53 138 L53 562 Z M179 762 L219 904 L321 904 L321 858 L261 747 L179 747 L179 762 Z M369 762 L408 904 L509 904 L509 858 L450 747 L369 747 L369 762 Z " />
<glyph glyph-name="Oslash" unicode="&#xd8;" horiz-adv-x="628" d="M53 40 L85 85 Q63 113 53 138 L53 562 Q64 587 84.5 614 Q105 641 136.5 663.5 Q168 686 212 700.5 Q256 715 314 715 Q372 715 416 700 Q460 685 492 662 L519 700 L573 700 L573 660 L542 616 Q553 602 561 588.5 Q569 575 575 562 L575 138 Q564 114 543.5 87 Q523 60 491.5 37.5 Q460 15 416 0.5 Q372 -14 314 -14 Q254 -14 210 1 Q166 16 134 39 L107 0 L53 0 L53 40 Z M314 91 Q363 91 394 113.5 Q425 136 438 165 L438 468 L205 139 Q222 118 249 104.5 Q276 91 314 91 Z M190 233 L421 562 Q404 582 377.5 595.5 Q351 609 314 609 Q265 609 234 586.5 Q203 564 190 535 L190 233 Z " />
<glyph glyph-name="Oslashacute" unicode="&#x1fe;" horiz-adv-x="628" d="M53 40 L85 85 Q63 113 53 138 L53 562 Q64 587 84.5 614 Q105 641 136.5 663.5 Q168 686 212 700.5 Q256 715 314 715 Q372 715 416 700 Q460 685 492 662 L519 700 L573 700 L573 660 L542 616 Q553 602 561 588.5 Q569 575 575 562 L575 138 Q564 114 543.5 87 Q523 60 491.5 37.5 Q460 15 416 0.5 Q372 -14 314 -14 Q254 -14 210 1 Q166 16 134 39 L107 0 L53 0 L53 40 Z M314 91 Q363 91 394 113.5 Q425 136 438 165 L438 468 L205 139 Q222 118 249 104.5 Q276 91 314 91 Z M190 233 L421 562 Q404 582 377.5 595.5 Q351 609 314 609 Q265 609 234 586.5 Q203 564 190 535 L190 233 Z M267 768 L324 910 L447 910 L447 855 L367 753 L267 753 L267 768 Z " />
<glyph glyph-name="OE" unicode="&#x152;" horiz-adv-x="909" d="M52 562 Q63 587 83.5 614 Q104 641 135.5 663.5 Q167 686 211 700.5 Q255 715 313 715 Q349 715 379.5 708 Q410 701 436 687 L436 700 L860 700 L860 597 L573 597 L573 410 L840 410 L840 307 L573 307 L573 103 L867 103 L867 0 L436 0 L436 13 Q410 -2 379.5 -8 Q349 -14 313 -14 Q255 -14 211 0.5 Q167 15 135.5 37.5 Q104 60 83.5 87 Q63 114 52 138 L52 562 Z M189 165 Q201 136 232 113.5 Q263 91 313 91 Q362 91 392.5 113.5 Q423 136 436 165 L436 535 Q424 564 393 586.5 Q362 609 313 609 Q263 609 232.5 586.5 Q202 564 189 535 L189 165 Z " />
<glyph glyph-name="Racute" unicode="&#x154;" horiz-adv-x="603" d="M287 267 L200 267 L200 0 L63 0 L63 700 L346 700 Q411 700 465.5 669 Q520 638 551 581 L551 386 Q531 350 499.5 322.5 Q468 295 426 280 L558 78 L558 0 L453 0 L287 267 Z M315 367 Q391 367 422 425 L422 539 Q407 568 378.5 582.5 Q350 597 315 597 L200 597 L200 367 L315 367 Z M231 762 L288 904 L411 904 L411 849 L331 747 L231 747 L231 762 Z " />
<glyph glyph-name="Rcaron" unicode="&#x158;" horiz-adv-x="603" d="M287 267 L200 267 L200 0 L63 0 L63 700 L346 700 Q411 700 465.5 669 Q520 638 551 581 L551 386 Q531 350 499.5 322.5 Q468 295 426 280 L558 78 L558 0 L453 0 L287 267 Z M315 367 Q391 367 422 425 L422 539 Q407 568 378.5 582.5 Q350 597 315 597 L200 597 L200 367 L315 367 Z M139 889 L139 904 L229 904 L304 812 L379 904 L468 904 L468 889 L385 747 L222 747 L139 889 Z " />
<glyph glyph-name="Rcommaaccent" unicode="&#x156;" horiz-adv-x="603" d="M287 267 L200 267 L200 0 L63 0 L63 700 L346 700 Q411 700 465.5 669 Q520 638 551 581 L551 386 Q531 350 499.5 322.5 Q468 295 426 280 L558 78 L558 0 L453 0 L287 267 Z M315 367 Q391 367 422 425 L422 539 Q407 568 378.5 582.5 Q350 597 315 597 L200 597 L200 367 L315 367 Z M248 -182 L278 -182 Q289 -182 297.5 -179.5 Q306 -177 310 -169 L310 -143 L308 -143 Q279 -143 263 -137.5 Q247 -132 242 -126 L242 -69 Q247 -63 263 -56 Q279 -49 308 -49 Q337 -49 353 -56 Q369 -63 374 -69 L374 -174 Q369 -192 346.5 -208 Q324 -224 289 -224 L248 -224 L248 -182 Z " />
<glyph glyph-name="Sacute" unicode="&#x15a;" horiz-adv-x="593" d="M45 223 L177 223 L177 155 Q188 132 218 111.5 Q248 91 296 91 Q345 91 374.5 112 Q404 133 415 155 L415 234 Q405 253 385.5 268 Q366 283 319 294 L259 308 Q205 321 168 335.5 Q131 350 107 366 Q83 382 69 398.5 Q55 415 45 432 L45 581 Q55 599 73.5 622 Q92 645 122.5 666 Q153 687 195.5 701 Q238 715 296 715 Q354 715 397 700.5 Q440 686 470 665.5 Q500 645 519 622 Q538 599 547 581 L547 486 L415 486 L415 545 Q404 568 374.5 588.5 Q345 609 296 609 Q248 609 218 587.5 Q188 566 177 545 L177 481 Q187 462 207.5 447.5 Q228 433 276 422 L335 408 Q389 395 425 380.5 Q461 366 485 350 Q509 334 523.5 317 Q538 300 547 283 L547 119 Q537 101 518 78 Q499 55 469 34.5 Q439 14 396.5 0 Q354 -14 296 -14 Q238 -14 195.5 0 Q153 14 122.5 34.5 Q92 55 73.5 78 Q55 101 45 119 L45 223 Z M244 768 L301 910 L424 910 L424 855 L344 753 L244 753 L244 768 Z " />
<glyph glyph-name="Scircumflex" unicode="&#x15c;" horiz-adv-x="593" d="M45 223 L177 223 L177 155 Q188 132 218 111.5 Q248 91 296 91 Q345 91 374.5 112 Q404 133 415 155 L415 234 Q405 253 385.5 268 Q366 283 319 294 L259 308 Q205 321 168 335.5 Q131 350 107 366 Q83 382 69 398.5 Q55 415 45 432 L45 581 Q55 599 73.5 622 Q92 645 122.5 666 Q153 687 195.5 701 Q238 715 296 715 Q354 715 397 700.5 Q440 686 470 665.5 Q500 645 519 622 Q538 599 547 581 L547 486 L415 486 L415 545 Q404 568 374.5 588.5 Q345 609 296 609 Q248 609 218 587.5 Q188 566 177 545 L177 481 Q187 462 207.5 447.5 Q228 433 276 422 L335 408 Q389 395 425 380.5 Q461 366 485 350 Q509 334 523.5 317 Q538 300 547 283 L547 119 Q537 101 518 78 Q499 55 469 34.5 Q439 14 396.5 0 Q354 -14 296 -14 Q238 -14 195.5 0 Q153 14 122.5 34.5 Q92 55 73.5 78 Q55 101 45 119 L45 223 Z M138 768 L221 910 L384 910 L467 768 L467 753 L378 753 L303 846 L228 753 L138 753 L138 768 Z " />
<glyph glyph-name="Scaron" unicode="&#x160;" horiz-adv-x="593" d="M45 223 L177 223 L177 155 Q188 132 218 111.5 Q248 91 296 91 Q345 91 374.5 112 Q404 133 415 155 L415 234 Q405 253 385.5 268 Q366 283 319 294 L259 308 Q205 321 168 335.5 Q131 350 107 366 Q83 382 69 398.5 Q55 415 45 432 L45 581 Q55 599 73.5 622 Q92 645 122.5 666 Q153 687 195.5 701 Q238 715 296 715 Q354 715 397 700.5 Q440 686 470 665.5 Q500 645 519 622 Q538 599 547 581 L547 486 L415 486 L415 545 Q404 568 374.5 588.5 Q345 609 296 609 Q248 609 218 587.5 Q188 566 177 545 L177 481 Q187 462 207.5 447.5 Q228 433 276 422 L335 408 Q389 395 425 380.5 Q461 366 485 350 Q509 334 523.5 317 Q538 300 547 283 L547 119 Q537 101 518 78 Q499 55 469 34.5 Q439 14 396.5 0 Q354 -14 296 -14 Q238 -14 195.5 0 Q153 14 122.5 34.5 Q92 55 73.5 78 Q55 101 45 119 L45 223 Z M138 895 L138 910 L228 910 L303 818 L378 910 L467 910 L467 895 L384 753 L221 753 L138 895 Z " />
<glyph glyph-name="Scedilla" unicode="&#x15e;" horiz-adv-x="593" d="M212 -166 Q228 -172 246 -176.5 Q264 -181 284 -181 Q304 -181 316.5 -175.5 Q329 -170 334 -162 L334 -128 Q326 -110 287 -110 L227 -110 L255 -12 Q222 -9 187.5 2.5 Q153 14 122.5 34.5 Q92 55 73.5 78 Q55 101 45 119 L45 223 L177 223 L177 155 Q188 132 218 111.5 Q248 91 296 91 Q345 91 374.5 112 Q404 133 415 155 L415 234 Q405 253 385.5 268 Q366 283 319 294 L259 308 Q205 321 168 335.5 Q131 350 107 366 Q83 382 69 398.5 Q55 415 45 432 L45 581 Q55 599 73.5 622 Q92 645 122.5 666 Q153 687 195.5 701 Q238 715 296 715 Q354 715 397 700.5 Q440 686 470 665.5 Q500 645 519 622 Q538 599 547 581 L547 486 L415 486 L415 545 Q404 568 374.5 588.5 Q345 609 296 609 Q248 609 218 587.5 Q188 566 177 545 L177 481 Q187 462 207.5 447.5 Q228 433 276 422 L335 408 Q389 395 425 380.5 Q461 366 485 350 Q509 334 523.5 317 Q538 300 547 283 L547 119 Q537 101 518 78 Q499 55 469 34.5 Q439 14 400 1.5 Q361 -11 325 -13 L313 -56 L326 -56 Q354 -56 378 -71 Q402 -86 410 -105 L410 -190 Q398 -215 366.5 -230.5 Q335 -246 292 -246 Q259 -246 234 -240 Q209 -234 195 -226 L212 -166 Z " />
<glyph glyph-name="Scommaaccent" unicode="&#x218;" horiz-adv-x="593" d="M45 223 L177 223 L177 155 Q188 132 218 111.5 Q248 91 296 91 Q345 91 374.5 112 Q404 133 415 155 L415 234 Q405 253 385.5 268 Q366 283 319 294 L259 308 Q205 321 168 335.5 Q131 350 107 366 Q83 382 69 398.5 Q55 415 45 432 L45 581 Q55 599 73.5 622 Q92 645 122.5 666 Q153 687 195.5 701 Q238 715 296 715 Q354 715 397 700.5 Q440 686 470 665.5 Q500 645 519 622 Q538 599 547 581 L547 486 L415 486 L415 545 Q404 568 374.5 588.5 Q345 609 296 609 Q248 609 218 587.5 Q188 566 177 545 L177 481 Q187 462 207.5 447.5 Q228 433 276 422 L335 408 Q389 395 425 380.5 Q461 366 485 350 Q509 334 523.5 317 Q538 300 547 283 L547 119 Q537 101 518 78 Q499 55 469 34.5 Q439 14 396.5 0 Q354 -14 296 -14 Q238 -14 195.5 0 Q153 14 122.5 34.5 Q92 55 73.5 78 Q55 101 45 119 L45 223 Z M233 -183 L263 -183 Q274 -183 282.5 -180.5 Q291 -178 295 -170 L295 -144 L293 -144 Q264 -144 248 -138.5 Q232 -133 227 -127 L227 -70 Q232 -64 248 -57 Q264 -50 293 -50 Q322 -50 338 -57 Q354 -64 359 -70 L359 -175 Q354 -193 331.5 -209 Q309 -225 274 -225 L233 -225 L233 -183 Z " />
<glyph glyph-name="Tcaron" unicode="&#x164;" horiz-adv-x="534" d="M199 597 L24 597 L24 700 L510 700 L510 597 L336 597 L336 0 L199 0 L199 597 Z M103 889 L103 904 L193 904 L268 812 L343 904 L432 904 L432 889 L349 747 L186 747 L103 889 Z " />
<glyph glyph-name="Tcommaaccent" unicode="&#x162;" horiz-adv-x="534" d="M186 -167 Q202 -173 222 -177 Q242 -181 262 -181 Q282 -181 292.5 -175 Q303 -169 308 -161 L308 -129 Q298 -110 265 -110 L201 -110 L233 0 L199 0 L199 597 L24 597 L24 700 L510 700 L510 597 L336 597 L336 0 L303 0 L287 -56 L299 -56 Q332 -56 354 -72 Q376 -88 384 -105 L384 -190 Q372 -215 342.5 -230.5 Q313 -246 270 -246 Q237 -246 210 -240 Q183 -234 169 -226 L186 -167 Z " />
<glyph glyph-name="uni021A" unicode="&#x21a;" horiz-adv-x="534" d="M199 597 L24 597 L24 700 L510 700 L510 597 L336 597 L336 0 L199 0 L199 597 Z M207 -182 L237 -182 Q248 -182 256.5 -179.5 Q265 -177 269 -169 L269 -143 L267 -143 Q238 -143 222 -137.5 Q206 -132 201 -126 L201 -69 Q206 -63 222 -56 Q238 -49 267 -49 Q296 -49 312 -56 Q328 -63 333 -69 L333 -174 Q328 -192 305.5 -208 Q283 -224 248 -224 L207 -224 L207 -182 Z " />
<glyph glyph-name="Tbar" unicode="&#x166;" horiz-adv-x="533" d="M74 412 L199 412 L199 597 L24 597 L24 700 L509 700 L509 597 L335 597 L335 412 L461 412 L461 328 L335 328 L335 0 L199 0 L199 328 L74 328 L74 412 Z " />
<glyph glyph-name="Ugrave" unicode="&#xd9;" horiz-adv-x="641" d="M581 700 L581 138 Q570 114 549.5 87 Q529 60 497.5 37.5 Q466 15 422 0.5 Q378 -14 320 -14 Q263 -14 219 0.5 Q175 15 143.5 37.5 Q112 60 91.5 87 Q71 114 60 138 L60 700 L197 700 L197 165 Q208 136 239.5 113.5 Q271 91 320 91 Q370 91 400.5 113.5 Q431 136 444 165 L444 700 L581 700 Z M196 849 L196 904 L319 904 L376 762 L376 747 L277 747 L196 849 Z " />
<glyph glyph-name="Uacute" unicode="&#xda;" horiz-adv-x="641" d="M581 700 L581 138 Q570 114 549.5 87 Q529 60 497.5 37.5 Q466 15 422 0.5 Q378 -14 320 -14 Q263 -14 219 0.5 Q175 15 143.5 37.5 Q112 60 91.5 87 Q71 114 60 138 L60 700 L197 700 L197 165 Q208 136 239.5 113.5 Q271 91 320 91 Q370 91 400.5 113.5 Q431 136 444 165 L444 700 L581 700 Z M266 762 L323 904 L446 904 L446 849 L366 747 L266 747 L266 762 Z " />
<glyph glyph-name="Ucircumflex" unicode="&#xdb;" horiz-adv-x="641" d="M581 700 L581 138 Q570 114 549.5 87 Q529 60 497.5 37.5 Q466 15 422 0.5 Q378 -14 320 -14 Q263 -14 219 0.5 Q175 15 143.5 37.5 Q112 60 91.5 87 Q71 114 60 138 L60 700 L197 700 L197 165 Q208 136 239.5 113.5 Q271 91 320 91 Q370 91 400.5 113.5 Q431 136 444 165 L444 700 L581 700 Z M157 762 L240 904 L403 904 L486 762 L486 747 L397 747 L322 840 L247 747 L157 747 L157 762 Z " />
<glyph glyph-name="Utilde" unicode="&#x168;" horiz-adv-x="641" d="M581 700 L581 138 Q570 114 549.5 87 Q529 60 497.5 37.5 Q466 15 422 0.5 Q378 -14 320 -14 Q263 -14 219 0.5 Q175 15 143.5 37.5 Q112 60 91.5 87 Q71 114 60 138 L60 700 L197 700 L197 165 Q208 136 239.5 113.5 Q271 91 320 91 Q370 91 400.5 113.5 Q431 136 444 165 L444 700 L581 700 Z M512 826 Q504 797 477 775 Q450 753 403 753 Q373 753 353 761 Q333 769 316.5 778.5 Q300 788 286 796 Q272 804 254 804 Q234 804 224 795.5 Q214 787 210 778 L210 758 L134 758 L134 811 Q143 842 171 863 Q199 884 243 884 Q272 884 292 876 Q312 868 328.5 858.5 Q345 849 359.5 841 Q374 833 392 833 Q409 833 420 840.5 Q431 848 436 859 L436 879 L512 879 L512 826 Z " />
<glyph glyph-name="Udieresis" unicode="&#xdc;" horiz-adv-x="641" d="M581 700 L581 138 Q570 114 549.5 87 Q529 60 497.5 37.5 Q466 15 422 0.5 Q378 -14 320 -14 Q263 -14 219 0.5 Q175 15 143.5 37.5 Q112 60 91.5 87 Q71 114 60 138 L60 700 L197 700 L197 165 Q208 136 239.5 113.5 Q271 91 320 91 Q370 91 400.5 113.5 Q431 136 444 165 L444 700 L581 700 Z M152 854 Q158 861 172.5 870.5 Q187 880 216 880 Q245 880 260 870.5 Q275 861 280 854 L280 783 Q275 776 260 766.5 Q245 757 216 757 Q187 757 172.5 766.5 Q158 776 152 783 L152 854 Z M364 854 Q369 861 384 870.5 Q399 880 428 880 Q457 880 472 870.5 Q487 861 492 854 L492 783 Q487 776 472 766.5 Q457 757 428 757 Q399 757 384 766.5 Q369 776 364 783 L364 854 Z " />
<glyph glyph-name="Umacron" unicode="&#x16a;" horiz-adv-x="641" d="M581 700 L581 138 Q570 114 549.5 87 Q529 60 497.5 37.5 Q466 15 422 0.5 Q378 -14 320 -14 Q263 -14 219 0.5 Q175 15 143.5 37.5 Q112 60 91.5 87 Q71 114 60 138 L60 700 L197 700 L197 165 Q208 136 239.5 113.5 Q271 91 320 91 Q370 91 400.5 113.5 Q431 136 444 165 L444 700 L581 700 Z M145 849 L499 849 L499 760 L145 760 L145 849 Z " />
<glyph glyph-name="Ubreve" unicode="&#x16c;" horiz-adv-x="641" d="M581 700 L581 138 Q570 114 549.5 87 Q529 60 497.5 37.5 Q466 15 422 0.5 Q378 -14 320 -14 Q263 -14 219 0.5 Q175 15 143.5 37.5 Q112 60 91.5 87 Q71 114 60 138 L60 700 L197 700 L197 165 Q208 136 239.5 113.5 Q271 91 320 91 Q370 91 400.5 113.5 Q431 136 444 165 L444 700 L581 700 Z M159 864 L253 864 L253 836 Q257 827 273 813.5 Q289 800 322 800 Q355 800 371 813.5 Q387 827 391 836 L391 864 L484 864 L484 818 Q476 801 463 784.5 Q450 768 430.5 755 Q411 742 384.5 734.5 Q358 727 322 727 Q286 727 259.5 734.5 Q233 742 213.5 755 Q194 768 180.5 784.5 Q167 801 159 818 L159 864 Z " />
<glyph glyph-name="Uring" unicode="&#x16e;" horiz-adv-x="641" d="M581 700 L581 138 Q570 114 549.5 87 Q529 60 497.5 37.5 Q466 15 422 0.5 Q378 -14 320 -14 Q263 -14 219 0.5 Q175 15 143.5 37.5 Q112 60 91.5 87 Q71 114 60 138 L60 700 L197 700 L197 165 Q208 136 239.5 113.5 Q271 91 320 91 Q370 91 400.5 113.5 Q431 136 444 165 L444 700 L581 700 Z M272 757 Q277 750 290 742.5 Q303 735 325 735 Q347 735 359.5 742.5 Q372 750 377 757 L377 816 Q372 823 359.5 830.5 Q347 838 325 838 Q303 838 290 830.5 Q277 823 272 816 L272 757 Z M210 830 Q223 856 253 874 Q283 892 325 892 Q366 892 396 874 Q426 856 440 830 L440 743 Q426 717 396 699.5 Q366 682 325 682 Q283 682 253 699.5 Q223 717 210 743 L210 830 Z " />
<glyph glyph-name="Uhungarumlaut" unicode="&#x170;" horiz-adv-x="641" d="M581 700 L581 138 Q570 114 549.5 87 Q529 60 497.5 37.5 Q466 15 422 0.5 Q378 -14 320 -14 Q263 -14 219 0.5 Q175 15 143.5 37.5 Q112 60 91.5 87 Q71 114 60 138 L60 700 L197 700 L197 165 Q208 136 239.5 113.5 Q271 91 320 91 Q370 91 400.5 113.5 Q431 136 444 165 L444 700 L581 700 Z M180 756 L220 898 L322 898 L322 852 L262 741 L180 741 L180 756 Z M370 756 L409 898 L510 898 L510 852 L451 741 L370 741 L370 756 Z " />
<glyph glyph-name="Uogonek" unicode="&#x172;" horiz-adv-x="641" d="M301 -112 Q307 -98 325 -70 Q343 -42 375 -10 Q362 -12 348 -13 Q334 -14 320 -14 Q263 -14 219 0.5 Q175 15 143.5 37.5 Q112 60 91.5 87 Q71 114 60 138 L60 700 L197 700 L197 165 Q208 136 239.5 113.5 Q271 91 320 91 Q370 91 400.5 113.5 Q431 136 444 165 L444 700 L581 700 L581 138 Q571 115 554 91 Q537 67 510 41 Q479 12 457 -15.5 Q435 -43 422 -63.5 Q409 -84 402.5 -97.5 Q396 -111 394 -117 L394 -146 Q398 -154 410.5 -159.5 Q423 -165 440 -165 Q456 -165 469 -162.5 Q482 -160 497 -153 L497 -220 Q483 -228 466.5 -232 Q450 -236 420 -236 Q380 -236 347 -223.5 Q314 -211 301 -185 L301 -112 Z " />
<glyph glyph-name="Wgrave" unicode="&#x1e80;" horiz-adv-x="912" d="M24 622 L24 700 L151 700 L243 177 L261 177 L383 700 L516 700 L639 177 L657 177 L750 700 L875 700 L875 622 L751 0 L567 0 L455 457 L438 457 L327 0 L148 0 L24 622 Z M320 849 L320 904 L443 904 L500 762 L500 747 L401 747 L320 849 Z " />
<glyph glyph-name="Wacute" unicode="&#x1e82;" horiz-adv-x="912" d="M24 622 L24 700 L151 700 L243 177 L261 177 L383 700 L516 700 L639 177 L657 177 L750 700 L875 700 L875 622 L751 0 L567 0 L455 457 L438 457 L327 0 L148 0 L24 622 Z M396 762 L453 904 L576 904 L576 849 L496 747 L396 747 L396 762 Z " />
<glyph glyph-name="Wcircumflex" unicode="&#x174;" horiz-adv-x="912" d="M24 622 L24 700 L151 700 L243 177 L261 177 L383 700 L516 700 L639 177 L657 177 L750 700 L875 700 L875 622 L751 0 L567 0 L455 457 L438 457 L327 0 L148 0 L24 622 Z M286 762 L369 904 L532 904 L615 762 L615 747 L526 747 L451 840 L376 747 L286 747 L286 762 Z " />
<glyph glyph-name="Wdieresis" unicode="&#x1e84;" horiz-adv-x="912" d="M24 622 L24 700 L151 700 L243 177 L261 177 L383 700 L516 700 L639 177 L657 177 L750 700 L875 700 L875 622 L751 0 L567 0 L455 457 L438 457 L327 0 L148 0 L24 622 Z M277 851 Q283 858 297.5 867.5 Q312 877 341 877 Q370 877 385 867.5 Q400 858 405 851 L405 780 Q400 773 385 763.5 Q370 754 341 754 Q312 754 297.5 763.5 Q283 773 277 780 L277 851 Z M489 851 Q494 858 509 867.5 Q524 877 553 877 Q582 877 597 867.5 Q612 858 617 851 L617 780 Q612 773 597 763.5 Q582 754 553 754 Q524 754 509 763.5 Q494 773 489 780 L489 851 Z " />
<glyph glyph-name="Ygrave" unicode="&#x1ef2;" horiz-adv-x="564" d="M207 297 L29 622 L29 700 L146 700 L275 440 L293 440 L426 700 L535 700 L535 622 L344 285 L344 0 L207 0 L207 297 Z M162 849 L162 904 L285 904 L342 762 L342 747 L243 747 L162 849 Z " />
<glyph glyph-name="Yacute" unicode="&#xdd;" horiz-adv-x="564" d="M207 297 L29 622 L29 700 L146 700 L275 440 L293 440 L426 700 L535 700 L535 622 L344 285 L344 0 L207 0 L207 297 Z M229 762 L286 904 L409 904 L409 849 L329 747 L229 747 L229 762 Z " />
<glyph glyph-name="Ycircumflex" unicode="&#x176;" horiz-adv-x="564" d="M207 297 L29 622 L29 700 L146 700 L275 440 L293 440 L426 700 L535 700 L535 622 L344 285 L344 0 L207 0 L207 297 Z M118 762 L201 904 L364 904 L447 762 L447 747 L358 747 L283 840 L208 747 L118 747 L118 762 Z " />
<glyph glyph-name="Ydieresis" unicode="&#x178;" horiz-adv-x="564" d="M207 297 L29 622 L29 700 L146 700 L275 440 L293 440 L426 700 L535 700 L535 622 L344 285 L344 0 L207 0 L207 297 Z M113 851 Q119 858 133.5 867.5 Q148 877 177 877 Q206 877 221 867.5 Q236 858 241 851 L241 780 Q236 773 221 763.5 Q206 754 177 754 Q148 754 133.5 763.5 Q119 773 113 780 L113 851 Z M325 851 Q330 858 345 867.5 Q360 877 389 877 Q418 877 433 867.5 Q448 858 453 851 L453 780 Q448 773 433 763.5 Q418 754 389 754 Q360 754 345 763.5 Q330 773 325 780 L325 851 Z " />
<glyph glyph-name="Zacute" unicode="&#x179;" horiz-adv-x="559" d="M39 86 L347 583 L347 597 L45 597 L45 700 L520 700 L520 614 L212 118 L212 103 L520 103 L520 0 L39 0 L39 86 Z M226 762 L283 904 L406 904 L406 849 L326 747 L226 747 L226 762 Z " />
<glyph glyph-name="Zcaron" unicode="&#x17d;" horiz-adv-x="559" d="M39 86 L347 583 L347 597 L45 597 L45 700 L520 700 L520 614 L212 118 L212 103 L520 103 L520 0 L39 0 L39 86 Z M131 889 L131 904 L221 904 L296 812 L371 904 L460 904 L460 889 L377 747 L214 747 L131 889 Z " />
<glyph glyph-name="Zdotaccent" unicode="&#x17b;" horiz-adv-x="559" d="M39 86 L347 583 L347 597 L45 597 L45 700 L520 700 L520 614 L212 118 L212 103 L520 103 L520 0 L39 0 L39 86 Z M223 852 Q229 865 246 876 Q263 887 292 887 Q321 887 338.5 876 Q356 865 361 852 L361 794 Q356 781 338.5 770 Q321 759 292 759 Q263 759 246 770 Q229 781 223 794 L223 852 Z " />
<glyph glyph-name="Eng" unicode="&#x14a;" horiz-adv-x="665" d="M63 700 L223 700 L459 219 L474 219 L474 700 L602 700 L602 -29 Q590 -57 567.5 -83.5 Q545 -110 512.5 -130 Q480 -150 437.5 -162.5 Q395 -175 342 -175 Q328 -175 317.5 -174.5 Q307 -174 301 -173 L301 -73 Q306 -74 319 -74.5 Q332 -75 340 -75 Q379 -75 408 -61 Q437 -47 454 -24 L209 475 L191 475 L191 0 L63 0 L63 700 Z " />
<glyph glyph-name="Eth" unicode="&#xd0;" horiz-adv-x="657" d="M35 407 L83 407 L83 700 L360 700 Q409 700 448 687.5 Q487 675 515.5 655.5 Q544 636 563.5 611.5 Q583 587 594 562 L594 138 Q583 113 563.5 88.5 Q544 64 515.5 44.5 Q487 25 448 12.5 Q409 0 360 0 L83 0 L83 304 L35 304 L35 407 Z M457 530 Q446 559 414 578 Q382 597 334 597 L219 597 L219 407 L352 407 L352 304 L219 304 L219 103 L334 103 Q382 103 414 122 Q446 141 457 170 L457 530 Z " />
<glyph glyph-name="Thorn" unicode="&#xde;" horiz-adv-x="585" d="M63 700 L200 700 L200 596 L340 596 Q406 596 460.5 565.5 Q515 535 547 478 L547 254 Q533 230 513 208.5 Q493 187 467 170.5 Q441 154 409 144.5 Q377 135 340 135 L200 135 L200 0 L63 0 L63 700 Z M310 238 Q344 238 372 252.5 Q400 267 415 296 L415 436 Q398 467 368.5 480.5 Q339 494 309 494 L200 494 L200 238 L310 238 Z " />
<glyph glyph-name="uni018F" unicode="&#x18f;" horiz-adv-x="617" d="M427 535 Q414 564 383.5 586.5 Q353 609 304 609 Q254 609 223 586.5 Q192 564 180 535 L180 461 L48 461 L48 572 Q58 593 78 618 Q98 643 129 664.5 Q160 686 203 700.5 Q246 715 304 715 Q362 715 405.5 700.5 Q449 686 480.5 663.5 Q512 641 532.5 614 Q553 587 564 562 L564 138 Q553 114 532.5 87 Q512 60 480.5 37.5 Q449 15 405 0.5 Q361 -14 304 -14 Q246 -14 202.5 0.5 Q159 15 128.5 36.5 Q98 58 78.5 83 Q59 108 48 129 L48 376 L427 376 L427 535 Z M301 91 Q351 91 383 113.5 Q415 136 427 165 L427 284 L176 284 L176 162 Q188 135 219 113 Q250 91 301 91 Z " />
<glyph glyph-name="a" unicode="a" horiz-adv-x="551" d="M380 41 Q353 16 316.5 1 Q280 -14 226 -14 Q182 -14 150 -4.5 Q118 5 96 18.5 Q74 32 61.5 46 Q49 60 44 69 L44 229 Q50 239 62.5 254.5 Q75 270 96.5 284.5 Q118 299 150 309.5 Q182 320 226 320 Q277 320 312.5 307.5 Q348 295 373 277 L373 396 Q362 421 336 439.5 Q310 458 268 458 Q227 458 204 441.5 Q181 425 172 413 L172 369 L55 369 L55 454 Q61 463 75.5 479.5 Q90 496 115.5 513 Q141 530 179 542.5 Q217 555 268 555 Q319 555 358.5 542 Q398 529 426.5 509 Q455 489 473 465.5 Q491 442 500 421 L500 0 L380 0 L380 41 Z M262 76 Q304 76 331.5 90 Q359 104 373 124 L373 183 Q359 203 331.5 217.5 Q304 232 262 232 Q220 232 198 218 Q176 204 168 193 L168 115 Q172 110 179 103.5 Q186 97 197.5 91 Q209 85 225 80.5 Q241 76 262 76 Z " />
<glyph glyph-name="b" unicode="b" horiz-adv-x="555" d="M54 700 L181 700 L181 504 Q207 525 242 538.5 Q277 552 323 552 Q366 552 397.5 540 Q429 528 451.5 510 Q474 492 488 471.5 Q502 451 509 434 L509 107 Q502 90 488 69.5 Q474 49 451.5 31 Q429 13 397.5 1 Q366 -11 323 -11 Q275 -11 238 3.5 Q201 18 175 42 L175 0 L54 0 L54 700 Z M285 455 Q248 455 221.5 443 Q195 431 181 414 L181 127 Q195 110 221.5 98 Q248 86 285 86 Q306 86 322.5 91 Q339 96 351 103.5 Q363 111 370.5 119 Q378 127 382 134 L382 407 Q374 421 350.5 438 Q327 455 285 455 Z " />
<glyph glyph-name="c" unicode="c" horiz-adv-x="536" d="M46 421 Q55 442 73.5 466 Q92 490 120 509.5 Q148 529 187.5 542 Q227 555 278 555 Q329 555 367.5 542 Q406 529 433 510.5 Q460 492 476.5 471.5 Q493 451 501 436 L501 333 L383 333 L383 396 Q373 420 346.5 439 Q320 458 278 458 Q236 458 210 439 Q184 420 173 396 L173 145 Q184 121 210 102 Q236 83 278 83 Q320 83 346.5 102 Q373 121 383 145 L383 208 L501 208 L501 105 Q494 90 477.5 69.5 Q461 49 433.5 30.5 Q406 12 367.5 -1 Q329 -14 278 -14 Q227 -14 187.5 -1 Q148 12 120 31.5 Q92 51 73.5 75 Q55 99 46 120 L46 421 Z " />
<glyph glyph-name="d" unicode="d" horiz-adv-x="555" d="M381 44 Q355 21 318.5 5 Q282 -11 232 -11 Q189 -11 157 1 Q125 13 102.5 31 Q80 49 66.5 69.5 Q53 90 46 107 L46 434 Q53 451 66.5 471.5 Q80 492 102.5 510 Q125 528 157 540 Q189 552 232 552 Q278 552 313 538.5 Q348 525 374 504 L374 700 L501 700 L501 0 L381 0 L381 44 Z M270 86 Q307 86 333 98 Q359 110 374 127 L374 414 Q359 431 333 443 Q307 455 270 455 Q249 455 232.5 450 Q216 445 204 437.5 Q192 430 184.5 422 Q177 414 173 407 L173 134 Q181 120 204.5 103 Q228 86 270 86 Z " />
<glyph glyph-name="e" unicode="e" horiz-adv-x="544" d="M46 421 Q55 442 73.5 466 Q92 490 120 509.5 Q148 529 187.5 542 Q227 555 278 555 Q329 555 367.5 542 Q406 529 433 510.5 Q460 492 476.5 471.5 Q493 451 501 436 L501 233 L173 233 L173 144 Q184 121 210 102 Q236 83 278 83 Q320 83 346.5 102 Q373 121 383 144 L383 178 L501 178 L501 105 Q493 90 476.5 69.5 Q460 49 433 30.5 Q406 12 367.5 -1 Q329 -14 278 -14 Q227 -14 187.5 -1 Q148 12 120 31.5 Q92 51 73.5 75 Q55 99 46 120 L46 421 Z M173 322 L383 322 L383 396 Q373 420 346.5 439 Q320 458 278 458 Q236 458 210 439 Q184 420 173 396 L173 322 Z " />
<glyph glyph-name="f" unicode="f" horiz-adv-x="359" d="M24 541 L82 541 L82 632 Q88 647 100 664 Q112 681 132 694.5 Q152 708 182.5 717 Q213 726 255 726 Q286 726 309 722 Q332 718 340 715 L340 627 Q335 628 324.5 629 Q314 630 301 630 Q276 630 259.5 625.5 Q243 621 232.5 615 Q222 609 217 602 Q212 595 209 590 L209 541 L340 541 L340 448 L209 448 L209 0 L82 0 L82 448 L24 448 L24 541 Z " />
<glyph glyph-name="g" unicode="g" horiz-adv-x="555" d="M51 26 L173 26 L173 -25 Q181 -39 204.5 -55.5 Q228 -72 269 -72 Q311 -72 337 -55.5 Q363 -39 374 -15 L374 117 Q348 96 313 82.5 Q278 69 232 69 Q189 69 157 81 Q125 93 102.5 111 Q80 129 66.5 149.5 Q53 170 46 187 L46 434 Q53 451 66.5 471.5 Q80 492 102.5 510 Q125 528 157 540 Q189 552 232 552 Q280 552 316.5 537.5 Q353 523 379 500 L379 541 L501 541 L501 -39 Q492 -61 473.5 -84 Q455 -107 427 -125.5 Q399 -144 359.5 -156 Q320 -168 269 -168 Q218 -168 180 -156 Q142 -144 116 -126.5 Q90 -109 74 -90 Q58 -71 51 -57 L51 26 Z M270 166 Q307 166 333 178 Q359 190 374 207 L374 414 Q359 431 333 443 Q307 455 270 455 Q249 455 232.5 450 Q216 445 204 437.5 Q192 430 184.5 422 Q177 414 173 407 L173 214 Q181 200 204.5 183 Q228 166 270 166 Z " />
<glyph glyph-name="h" unicode="h" horiz-adv-x="561" d="M382 0 L382 407 Q374 421 350.5 438 Q327 455 285 455 Q248 455 221.5 443 Q195 431 181 414 L181 0 L54 0 L54 700 L181 700 L181 504 Q207 525 242 538.5 Q277 552 323 552 Q366 552 397.5 540 Q429 528 451.5 510 Q474 492 488 471.5 Q502 451 509 434 L509 0 L382 0 Z " />
<glyph glyph-name="i" unicode="i" horiz-adv-x="238" d="M50 707 Q56 719 73 730.5 Q90 742 119 742 Q148 742 165.5 730.5 Q183 719 188 707 L188 649 Q183 636 165.5 625 Q148 614 119 614 Q90 614 73 625 Q56 636 50 649 L50 707 Z M55 541 L182 541 L182 0 L55 0 L55 541 Z " />
<glyph glyph-name="j" unicode="j" horiz-adv-x="237" d="M-50 -73 Q-8 -73 18 -52.5 Q44 -32 54 -6 L54 541 L181 541 L181 -34 Q172 -55 154 -79 Q136 -103 108 -123 Q80 -143 40.5 -156 Q1 -169 -50 -169 L-50 -73 Z M49 707 Q54 719 71 730.5 Q88 742 117 742 Q147 742 164.5 730.5 Q182 719 187 707 L187 649 Q182 636 164.5 625 Q147 614 117 614 Q88 614 71 625 Q54 636 49 649 L49 707 Z " />
<glyph glyph-name="k" unicode="k" horiz-adv-x="511" d="M54 700 L181 700 L181 324 L195 324 L401 541 L484 541 L484 470 L321 304 L491 71 L491 0 L396 0 L236 223 L181 167 L181 0 L54 0 L54 700 Z " />
<glyph glyph-name="l" unicode="l" horiz-adv-x="235" d="M54 700 L181 700 L181 0 L54 0 L54 700 Z " />
<glyph glyph-name="m" unicode="m" horiz-adv-x="822" d="M349 0 L349 413 Q341 427 323 441 Q305 455 268 455 Q236 455 214.5 444 Q193 433 181 418 L181 0 L54 0 L54 541 L173 541 L173 498 Q195 521 227.5 536.5 Q260 552 305 552 Q362 552 396.5 531 Q431 510 451 484 Q474 512 509 532 Q544 552 595 552 Q637 552 667.5 540.5 Q698 529 719 512 Q740 495 752 475.5 Q764 456 770 439 L770 0 L643 0 L643 413 Q635 427 617 441 Q599 455 562 455 Q531 455 510 444.5 Q489 434 476 419 L476 0 L349 0 Z " />
<glyph glyph-name="n" unicode="n" horiz-adv-x="561" d="M382 0 L382 407 Q374 421 350.5 438 Q327 455 285 455 Q248 455 221.5 443 Q195 431 181 414 L181 0 L54 0 L54 541 L173 541 L173 497 Q199 520 236 536 Q273 552 323 552 Q366 552 397.5 540 Q429 528 451.5 510 Q474 492 488 471.5 Q502 451 509 434 L509 0 L382 0 Z " />
<glyph glyph-name="o" unicode="o" horiz-adv-x="556" d="M46 421 Q55 442 73.5 466 Q92 490 120 509.5 Q148 529 187.5 542 Q227 555 278 555 Q329 555 368.5 542 Q408 529 436 509.5 Q464 490 482.5 466 Q501 442 510 421 L510 120 Q501 99 482.5 75 Q464 51 436 31.5 Q408 12 368.5 -1 Q329 -14 278 -14 Q227 -14 187.5 -1 Q148 12 120 31.5 Q92 51 73.5 75 Q55 99 46 120 L46 421 Z M173 145 Q184 121 210 102 Q236 83 278 83 Q320 83 346.5 102 Q373 121 383 145 L383 396 Q373 420 346.5 439 Q320 458 278 458 Q236 458 210 439 Q184 420 173 396 L173 145 Z " />
<glyph glyph-name="p" unicode="p" horiz-adv-x="555" d="M54 541 L177 541 L177 500 Q203 523 239 537.5 Q275 552 323 552 Q366 552 397.5 540 Q429 528 451.5 510 Q474 492 488 471.5 Q502 451 509 434 L509 107 Q502 90 488 69.5 Q474 49 451.5 31 Q429 13 397.5 1 Q366 -11 323 -11 Q277 -11 242 2.5 Q207 16 181 37 L181 -159 L54 -159 L54 541 Z M285 455 Q248 455 221.5 443 Q195 431 181 414 L181 127 Q195 110 221.5 98 Q248 86 285 86 Q306 86 322.5 91 Q339 96 351 103.5 Q363 111 370.5 119 Q378 127 382 134 L382 407 Q374 421 350.5 438 Q327 455 285 455 Z " />
<glyph glyph-name="q" unicode="q" horiz-adv-x="555" d="M374 37 Q348 16 313 2.5 Q278 -11 232 -11 Q189 -11 157 1 Q125 13 102.5 31 Q80 49 66.5 69.5 Q53 90 46 107 L46 434 Q53 451 66.5 471.5 Q80 492 102.5 510 Q125 528 157 540 Q189 552 232 552 Q280 552 316.5 537.5 Q353 523 379 500 L379 541 L501 541 L501 -159 L374 -159 L374 37 Z M270 86 Q307 86 333 98 Q359 110 374 127 L374 414 Q359 431 333 443 Q307 455 270 455 Q249 455 232.5 450 Q216 445 204 437.5 Q192 430 184.5 422 Q177 414 173 407 L173 134 Q181 120 204.5 103 Q228 86 270 86 Z " />
<glyph glyph-name="r" unicode="r" horiz-adv-x="371" d="M54 541 L173 541 L173 468 Q194 498 230.5 519.5 Q267 541 327 541 Q330 541 335 541 Q340 541 348 540 L348 428 Q340 429 334 429 Q328 429 324 429 Q269 429 233.5 415.5 Q198 402 181 383 L181 0 L54 0 L54 541 Z " />
<glyph glyph-name="s" unicode="s" horiz-adv-x="516" d="M45 172 L162 172 L162 126 Q173 111 196.5 96.5 Q220 82 258 82 Q296 82 319.5 96.5 Q343 111 354 126 L354 177 Q346 192 325.5 202 Q305 212 276 218 L216 231 Q176 240 146.5 251 Q117 262 96.5 274 Q76 286 63.5 297.5 Q51 309 45 320 L45 454 Q52 466 68 483 Q84 500 110 516 Q136 532 172.5 543.5 Q209 555 258 555 Q307 555 344 543.5 Q381 532 406.5 516 Q432 500 447.5 482.5 Q463 465 471 454 L471 371 L354 371 L354 415 Q343 430 319.5 444.5 Q296 459 258 459 Q220 459 196.5 444.5 Q173 430 162 415 L162 371 Q171 356 191.5 347 Q212 338 241 331 L299 318 Q379 300 419 275 Q459 250 471 230 L471 88 Q463 76 447.5 58.5 Q432 41 406 25 Q380 9 343.5 -2.5 Q307 -14 258 -14 Q209 -14 172.5 -2.5 Q136 9 110 25.5 Q84 42 68 59 Q52 76 45 88 L45 172 Z " />
<glyph glyph-name="t" unicode="t" horiz-adv-x="359" d="M24 541 L82 541 L82 654 L209 654 L209 541 L340 541 L340 448 L209 448 L209 125 Q212 120 217.5 113 Q223 106 233.5 100 Q244 94 260.5 89.5 Q277 85 301 85 Q314 85 324.5 85.5 Q335 86 340 87 L340 0 Q330 -3 308.5 -7 Q287 -11 255 -11 Q213 -11 182.5 -2 Q152 7 132 20.5 Q112 34 100 51 Q88 68 82 83 L82 448 L24 448 L24 541 Z " />
<glyph glyph-name="u" unicode="u" horiz-adv-x="555" d="M179 541 L179 134 Q183 127 190.5 118.5 Q198 110 209 103 Q220 96 236 91 Q252 86 273 86 Q310 86 335 97.5 Q360 109 374 126 L374 541 L501 541 L501 0 L382 0 L382 42 Q356 19 320 4 Q284 -11 235 -11 Q192 -11 160.5 1 Q129 13 107.5 31 Q86 49 72.5 69.5 Q59 90 52 107 L52 541 L179 541 Z " />
<glyph glyph-name="v" unicode="v" horiz-adv-x="528" d="M31 470 L31 541 L151 541 L262 141 L279 141 L391 541 L497 541 L497 470 L349 0 L180 0 L31 470 Z " />
<glyph glyph-name="w" unicode="w" horiz-adv-x="790" d="M34 470 L34 541 L153 541 L233 140 L249 140 L343 541 L461 541 L554 140 L570 140 L650 541 L756 541 L756 470 L642 0 L487 0 L405 335 L393 335 L308 0 L149 0 L34 470 Z " />
<glyph glyph-name="x" unicode="x" horiz-adv-x="501" d="M35 71 L162 271 L35 470 L35 541 L143 541 L246 347 L255 347 L360 541 L467 541 L467 470 L339 271 L467 71 L467 0 L358 0 L255 194 L246 194 L141 0 L35 0 L35 71 Z " />
<glyph glyph-name="y" unicode="y" horiz-adv-x="519" d="M205 7 L33 469 L33 541 L152 541 L257 177 L274 177 L376 541 L486 541 L486 470 L302 -93 Q277 -125 229.5 -147.5 Q182 -170 116 -170 Q92 -170 71.5 -167.5 Q51 -165 40 -162 L40 -72 Q50 -74 66 -74 Q82 -74 90 -74 Q125 -74 152.5 -62 Q180 -50 192 -36 L205 7 Z " />
<glyph glyph-name="z" unicode="z" horiz-adv-x="471" d="M29 86 L285 437 L285 448 L29 448 L29 541 L442 541 L442 460 L181 104 L181 93 L442 93 L442 0 L29 0 L29 86 Z " />
<glyph glyph-name="agrave" unicode="&#xe0;" horiz-adv-x="551" d="M380 41 Q353 16 316.5 1 Q280 -14 226 -14 Q182 -14 150 -4.5 Q118 5 96 18.5 Q74 32 61.5 46 Q49 60 44 69 L44 229 Q50 239 62.5 254.5 Q75 270 96.5 284.5 Q118 299 150 309.5 Q182 320 226 320 Q277 320 312.5 307.5 Q348 295 373 277 L373 396 Q362 421 336 439.5 Q310 458 268 458 Q227 458 204 441.5 Q181 425 172 413 L172 369 L55 369 L55 454 Q61 463 75.5 479.5 Q90 496 115.5 513 Q141 530 179 542.5 Q217 555 268 555 Q319 555 358.5 542 Q398 529 426.5 509 Q455 489 473 465.5 Q491 442 500 421 L500 0 L380 0 L380 41 Z M262 76 Q304 76 331.5 90 Q359 104 373 124 L373 183 Q359 203 331.5 217.5 Q304 232 262 232 Q220 232 198 218 Q176 204 168 193 L168 115 Q172 110 179 103.5 Q186 97 197.5 91 Q209 85 225 80.5 Q241 76 262 76 Z M149 711 L149 767 L272 767 L329 614 L329 598 L230 598 L149 711 Z " />
<glyph glyph-name="aacute" unicode="&#xe1;" horiz-adv-x="551" d="M380 41 Q353 16 316.5 1 Q280 -14 226 -14 Q182 -14 150 -4.5 Q118 5 96 18.5 Q74 32 61.5 46 Q49 60 44 69 L44 229 Q50 239 62.5 254.5 Q75 270 96.5 284.5 Q118 299 150 309.5 Q182 320 226 320 Q277 320 312.5 307.5 Q348 295 373 277 L373 396 Q362 421 336 439.5 Q310 458 268 458 Q227 458 204 441.5 Q181 425 172 413 L172 369 L55 369 L55 454 Q61 463 75.5 479.5 Q90 496 115.5 513 Q141 530 179 542.5 Q217 555 268 555 Q319 555 358.5 542 Q398 529 426.5 509 Q455 489 473 465.5 Q491 442 500 421 L500 0 L380 0 L380 41 Z M262 76 Q304 76 331.5 90 Q359 104 373 124 L373 183 Q359 203 331.5 217.5 Q304 232 262 232 Q220 232 198 218 Q176 204 168 193 L168 115 Q172 110 179 103.5 Q186 97 197.5 91 Q209 85 225 80.5 Q241 76 262 76 Z M222 614 L279 767 L402 767 L402 711 L322 598 L222 598 L222 614 Z " />
<glyph glyph-name="acircumflex" unicode="&#xe2;" horiz-adv-x="551" d="M380 41 Q353 16 316.5 1 Q280 -14 226 -14 Q182 -14 150 -4.5 Q118 5 96 18.5 Q74 32 61.5 46 Q49 60 44 69 L44 229 Q50 239 62.5 254.5 Q75 270 96.5 284.5 Q118 299 150 309.5 Q182 320 226 320 Q277 320 312.5 307.5 Q348 295 373 277 L373 396 Q362 421 336 439.5 Q310 458 268 458 Q227 458 204 441.5 Q181 425 172 413 L172 369 L55 369 L55 454 Q61 463 75.5 479.5 Q90 496 115.5 513 Q141 530 179 542.5 Q217 555 268 555 Q319 555 358.5 542 Q398 529 426.5 509 Q455 489 473 465.5 Q491 442 500 421 L500 0 L380 0 L380 41 Z M262 76 Q304 76 331.5 90 Q359 104 373 124 L373 183 Q359 203 331.5 217.5 Q304 232 262 232 Q220 232 198 218 Q176 204 168 193 L168 115 Q172 110 179 103.5 Q186 97 197.5 91 Q209 85 225 80.5 Q241 76 262 76 Z M113 611 L196 764 L359 764 L442 611 L442 596 L353 596 L278 699 L203 596 L113 596 L113 611 Z " />
<glyph glyph-name="atilde" unicode="&#xe3;" horiz-adv-x="551" d="M380 41 Q353 16 316.5 1 Q280 -14 226 -14 Q182 -14 150 -4.5 Q118 5 96 18.5 Q74 32 61.5 46 Q49 60 44 69 L44 229 Q50 239 62.5 254.5 Q75 270 96.5 284.5 Q118 299 150 309.5 Q182 320 226 320 Q277 320 312.5 307.5 Q348 295 373 277 L373 396 Q362 421 336 439.5 Q310 458 268 458 Q227 458 204 441.5 Q181 425 172 413 L172 369 L55 369 L55 454 Q61 463 75.5 479.5 Q90 496 115.5 513 Q141 530 179 542.5 Q217 555 268 555 Q319 555 358.5 542 Q398 529 426.5 509 Q455 489 473 465.5 Q491 442 500 421 L500 0 L380 0 L380 41 Z M262 76 Q304 76 331.5 90 Q359 104 373 124 L373 183 Q359 203 331.5 217.5 Q304 232 262 232 Q220 232 198 218 Q176 204 168 193 L168 115 Q172 110 179 103.5 Q186 97 197.5 91 Q209 85 225 80.5 Q241 76 262 76 Z M467 682 Q459 654 432 631.5 Q405 609 358 609 Q328 609 308 617 Q288 625 271.5 635 Q255 645 241 653 Q227 661 209 661 Q189 661 179 652 Q169 643 165 635 L165 615 L89 615 L89 668 Q98 699 126 720 Q154 741 198 741 Q227 741 247 733 Q267 725 283.5 715.5 Q300 706 314.5 698 Q329 690 347 690 Q364 690 375 697.5 Q386 705 391 716 L391 736 L467 736 L467 682 Z " />
<glyph glyph-name="adieresis" unicode="&#xe4;" horiz-adv-x="551" d="M380 41 Q353 16 316.5 1 Q280 -14 226 -14 Q182 -14 150 -4.5 Q118 5 96 18.5 Q74 32 61.5 46 Q49 60 44 69 L44 229 Q50 239 62.5 254.5 Q75 270 96.5 284.5 Q118 299 150 309.5 Q182 320 226 320 Q277 320 312.5 307.5 Q348 295 373 277 L373 396 Q362 421 336 439.5 Q310 458 268 458 Q227 458 204 441.5 Q181 425 172 413 L172 369 L55 369 L55 454 Q61 463 75.5 479.5 Q90 496 115.5 513 Q141 530 179 542.5 Q217 555 268 555 Q319 555 358.5 542 Q398 529 426.5 509 Q455 489 473 465.5 Q491 442 500 421 L500 0 L380 0 L380 41 Z M262 76 Q304 76 331.5 90 Q359 104 373 124 L373 183 Q359 203 331.5 217.5 Q304 232 262 232 Q220 232 198 218 Q176 204 168 193 L168 115 Q172 110 179 103.5 Q186 97 197.5 91 Q209 85 225 80.5 Q241 76 262 76 Z M111 716 Q117 722 131.5 731.5 Q146 741 175 741 Q204 741 219 731.5 Q234 722 239 716 L239 640 Q234 633 219 624 Q204 615 175 615 Q146 615 131.5 624.5 Q117 634 111 640 L111 716 Z M325 716 Q330 722 345 731.5 Q360 741 389 741 Q418 741 433 731.5 Q448 722 453 716 L453 640 Q448 633 433 624 Q418 615 389 615 Q360 615 345 624.5 Q330 634 325 640 L325 716 Z " />
<glyph glyph-name="amacron" unicode="&#x101;" horiz-adv-x="551" d="M380 41 Q353 16 316.5 1 Q280 -14 226 -14 Q182 -14 150 -4.5 Q118 5 96 18.5 Q74 32 61.5 46 Q49 60 44 69 L44 229 Q50 239 62.5 254.5 Q75 270 96.5 284.5 Q118 299 150 309.5 Q182 320 226 320 Q277 320 312.5 307.5 Q348 295 373 277 L373 396 Q362 421 336 439.5 Q310 458 268 458 Q227 458 204 441.5 Q181 425 172 413 L172 369 L55 369 L55 454 Q61 463 75.5 479.5 Q90 496 115.5 513 Q141 530 179 542.5 Q217 555 268 555 Q319 555 358.5 542 Q398 529 426.5 509 Q455 489 473 465.5 Q491 442 500 421 L500 0 L380 0 L380 41 Z M262 76 Q304 76 331.5 90 Q359 104 373 124 L373 183 Q359 203 331.5 217.5 Q304 232 262 232 Q220 232 198 218 Q176 204 168 193 L168 115 Q172 110 179 103.5 Q186 97 197.5 91 Q209 85 225 80.5 Q241 76 262 76 Z M99 723 L453 723 L453 634 L99 634 L99 723 Z " />
<glyph glyph-name="abreve" unicode="&#x103;" horiz-adv-x="551" d="M380 41 Q353 16 316.5 1 Q280 -14 226 -14 Q182 -14 150 -4.5 Q118 5 96 18.5 Q74 32 61.5 46 Q49 60 44 69 L44 229 Q50 239 62.5 254.5 Q75 270 96.5 284.5 Q118 299 150 309.5 Q182 320 226 320 Q277 320 312.5 307.5 Q348 295 373 277 L373 396 Q362 421 336 439.5 Q310 458 268 458 Q227 458 204 441.5 Q181 425 172 413 L172 369 L55 369 L55 454 Q61 463 75.5 479.5 Q90 496 115.5 513 Q141 530 179 542.5 Q217 555 268 555 Q319 555 358.5 542 Q398 529 426.5 509 Q455 489 473 465.5 Q491 442 500 421 L500 0 L380 0 L380 41 Z M262 76 Q304 76 331.5 90 Q359 104 373 124 L373 183 Q359 203 331.5 217.5 Q304 232 262 232 Q220 232 198 218 Q176 204 168 193 L168 115 Q172 110 179 103.5 Q186 97 197.5 91 Q209 85 225 80.5 Q241 76 262 76 Z M114 730 L208 730 L208 703 Q212 694 228 680.5 Q244 667 277 667 Q310 667 326 680.5 Q342 694 346 703 L346 730 L439 730 L439 684 Q431 667 418 651 Q405 635 385.5 622 Q366 609 339.5 601.5 Q313 594 277 594 Q241 594 214.5 601.5 Q188 609 168.5 622 Q149 635 135.5 651 Q122 667 114 684 L114 730 Z " />
<glyph glyph-name="aring" unicode="&#xe5;" horiz-adv-x="551" d="M380 41 Q353 16 316.5 1 Q280 -14 226 -14 Q182 -14 150 -4.5 Q118 5 96 18.5 Q74 32 61.5 46 Q49 60 44 69 L44 229 Q50 239 62.5 254.5 Q75 270 96.5 284.5 Q118 299 150 309.5 Q182 320 226 320 Q277 320 312.5 307.5 Q348 295 373 277 L373 396 Q362 421 336 439.5 Q310 458 268 458 Q227 458 204 441.5 Q181 425 172 413 L172 369 L55 369 L55 454 Q61 463 75.5 479.5 Q90 496 115.5 513 Q141 530 179 542.5 Q217 555 268 555 Q319 555 358.5 542 Q398 529 426.5 509 Q455 489 473 465.5 Q491 442 500 421 L500 0 L380 0 L380 41 Z M262 76 Q304 76 331.5 90 Q359 104 373 124 L373 183 Q359 203 331.5 217.5 Q304 232 262 232 Q220 232 198 218 Q176 204 168 193 L168 115 Q172 110 179 103.5 Q186 97 197.5 91 Q209 85 225 80.5 Q241 76 262 76 Z M227 661 Q232 654 245 646.5 Q258 639 280 639 Q302 639 314.5 646.5 Q327 654 332 661 L332 722 Q327 729 314.5 736.5 Q302 744 280 744 Q258 744 245 736.5 Q232 729 227 722 L227 661 Z M165 736 Q178 762 208 780 Q238 798 280 798 Q321 798 351 780 Q381 762 395 736 L395 647 Q381 621 351 603.5 Q321 586 280 586 Q238 586 208 603.5 Q178 621 165 647 L165 736 Z " />
<glyph glyph-name="aogonek" unicode="&#x105;" horiz-adv-x="551" d="M305 -112 Q309 -102 320.5 -86 Q332 -70 349 -51 Q366 -32 388 -13 Q395 -6 403 0 L380 0 L380 41 Q353 16 316.5 1 Q280 -14 226 -14 Q182 -14 150 -4.5 Q118 5 96 18.5 Q74 32 61.5 46 Q49 60 44 69 L44 229 Q50 239 62.5 254.5 Q75 270 96.5 284.5 Q118 299 150 309.5 Q182 320 226 320 Q277 320 312.5 307.5 Q348 295 373 277 L373 396 Q362 421 336 439.5 Q310 458 268 458 Q227 458 204 441.5 Q181 425 172 413 L172 369 L55 369 L55 454 Q61 463 75.5 479.5 Q90 496 115.5 513 Q141 530 179 542.5 Q217 555 268 555 Q319 555 358.5 542 Q398 529 426.5 509 Q455 489 473 465.5 Q491 442 500 421 L500 0 Q447 -45 424.5 -75.5 Q402 -106 397 -117 L397 -146 Q401 -154 413.5 -159.5 Q426 -165 443 -165 Q459 -165 472 -162.5 Q485 -160 500 -153 L500 -220 Q486 -228 469.5 -232 Q453 -236 423 -236 Q383 -236 350 -223.5 Q317 -211 305 -185 L305 -112 Z M262 76 Q304 76 331.5 90 Q359 104 373 124 L373 183 Q359 203 331.5 217.5 Q304 232 262 232 Q220 232 198 218 Q176 204 168 193 L168 115 Q172 110 179 103.5 Q186 97 197.5 91 Q209 85 225 80.5 Q241 76 262 76 Z " />
<glyph glyph-name="ae" unicode="&#xe6;" horiz-adv-x="871" d="M44 229 Q50 239 62.5 254.5 Q75 270 96.5 284.5 Q118 299 150 309.5 Q182 320 226 320 Q274 320 310.5 308 Q347 296 373 277 L373 396 Q362 421 336 439.5 Q310 458 268 458 Q227 458 204 441.5 Q181 425 172 413 L172 369 L55 369 L55 454 Q61 463 75.5 479.5 Q90 496 115.5 513 Q141 530 179 542.5 Q217 555 268 555 Q324 555 365.5 540 Q407 525 436 502 Q465 525 506.5 540 Q548 555 605 555 Q656 555 694.5 542 Q733 529 760 510.5 Q787 492 803.5 471.5 Q820 451 828 436 L828 233 L500 233 L500 144 Q511 121 537 102 Q563 83 605 83 Q647 83 673.5 102 Q700 121 710 144 L710 178 L828 178 L828 105 Q820 90 803.5 69.5 Q787 49 760 30.5 Q733 12 694.5 -1 Q656 -14 605 -14 Q537 -14 490.5 7.5 Q444 29 415 58 Q386 27 340.5 6.5 Q295 -14 226 -14 Q182 -14 150 -4.5 Q118 5 96 18.5 Q74 32 61.5 46 Q49 60 44 69 L44 229 Z M262 76 Q304 76 331.5 90 Q359 104 373 124 L373 183 Q359 203 331.5 217.5 Q304 232 262 232 Q220 232 198 218 Q176 204 168 193 L168 115 Q172 110 179 103.5 Q186 97 197.5 91 Q209 85 225 80.5 Q241 76 262 76 Z M500 322 L710 322 L710 396 Q700 420 673.5 439 Q647 458 605 458 Q563 458 537 439 Q511 420 500 396 L500 322 Z " />
<glyph glyph-name="aeacute" unicode="&#x1fd;" horiz-adv-x="871" d="M44 229 Q50 239 62.5 254.5 Q75 270 96.5 284.5 Q118 299 150 309.5 Q182 320 226 320 Q274 320 310.5 308 Q347 296 373 277 L373 396 Q362 421 336 439.5 Q310 458 268 458 Q227 458 204 441.5 Q181 425 172 413 L172 369 L55 369 L55 454 Q61 463 75.5 479.5 Q90 496 115.5 513 Q141 530 179 542.5 Q217 555 268 555 Q324 555 365.5 540 Q407 525 436 502 Q465 525 506.5 540 Q548 555 605 555 Q656 555 694.5 542 Q733 529 760 510.5 Q787 492 803.5 471.5 Q820 451 828 436 L828 233 L500 233 L500 144 Q511 121 537 102 Q563 83 605 83 Q647 83 673.5 102 Q700 121 710 144 L710 178 L828 178 L828 105 Q820 90 803.5 69.5 Q787 49 760 30.5 Q733 12 694.5 -1 Q656 -14 605 -14 Q537 -14 490.5 7.5 Q444 29 415 58 Q386 27 340.5 6.5 Q295 -14 226 -14 Q182 -14 150 -4.5 Q118 5 96 18.5 Q74 32 61.5 46 Q49 60 44 69 L44 229 Z M262 76 Q304 76 331.5 90 Q359 104 373 124 L373 183 Q359 203 331.5 217.5 Q304 232 262 232 Q220 232 198 218 Q176 204 168 193 L168 115 Q172 110 179 103.5 Q186 97 197.5 91 Q209 85 225 80.5 Q241 76 262 76 Z M500 322 L710 322 L710 396 Q700 420 673.5 439 Q647 458 605 458 Q563 458 537 439 Q511 420 500 396 L500 322 Z M390 614 L447 767 L570 767 L570 711 L490 598 L390 598 L390 614 Z " />
<glyph glyph-name="cacute" unicode="&#x107;" horiz-adv-x="536" d="M46 421 Q55 442 73.5 466 Q92 490 120 509.5 Q148 529 187.5 542 Q227 555 278 555 Q329 555 367.5 542 Q406 529 433 510.5 Q460 492 476.5 471.5 Q493 451 501 436 L501 333 L383 333 L383 396 Q373 420 346.5 439 Q320 458 278 458 Q236 458 210 439 Q184 420 173 396 L173 145 Q184 121 210 102 Q236 83 278 83 Q320 83 346.5 102 Q373 121 383 145 L383 208 L501 208 L501 105 Q494 90 477.5 69.5 Q461 49 433.5 30.5 Q406 12 367.5 -1 Q329 -14 278 -14 Q227 -14 187.5 -1 Q148 12 120 31.5 Q92 51 73.5 75 Q55 99 46 120 L46 421 Z M223 614 L280 767 L403 767 L403 711 L323 598 L223 598 L223 614 Z " />
<glyph glyph-name="ccircumflex" unicode="&#x109;" horiz-adv-x="536" d="M46 421 Q55 442 73.5 466 Q92 490 120 509.5 Q148 529 187.5 542 Q227 555 278 555 Q329 555 367.5 542 Q406 529 433 510.5 Q460 492 476.5 471.5 Q493 451 501 436 L501 333 L383 333 L383 396 Q373 420 346.5 439 Q320 458 278 458 Q236 458 210 439 Q184 420 173 396 L173 145 Q184 121 210 102 Q236 83 278 83 Q320 83 346.5 102 Q373 121 383 145 L383 208 L501 208 L501 105 Q494 90 477.5 69.5 Q461 49 433.5 30.5 Q406 12 367.5 -1 Q329 -14 278 -14 Q227 -14 187.5 -1 Q148 12 120 31.5 Q92 51 73.5 75 Q55 99 46 120 L46 421 Z M115 611 L198 764 L361 764 L444 611 L444 596 L355 596 L280 699 L205 596 L115 596 L115 611 Z " />
<glyph glyph-name="ccaron" unicode="&#x10d;" horiz-adv-x="536" d="M46 421 Q55 442 73.5 466 Q92 490 120 509.5 Q148 529 187.5 542 Q227 555 278 555 Q329 555 367.5 542 Q406 529 433 510.5 Q460 492 476.5 471.5 Q493 451 501 436 L501 333 L383 333 L383 396 Q373 420 346.5 439 Q320 458 278 458 Q236 458 210 439 Q184 420 173 396 L173 145 Q184 121 210 102 Q236 83 278 83 Q320 83 346.5 102 Q373 121 383 145 L383 208 L501 208 L501 105 Q494 90 477.5 69.5 Q461 49 433.5 30.5 Q406 12 367.5 -1 Q329 -14 278 -14 Q227 -14 187.5 -1 Q148 12 120 31.5 Q92 51 73.5 75 Q55 99 46 120 L46 421 Z M113 749 L113 764 L203 764 L278 660 L353 764 L442 764 L442 749 L359 596 L196 596 L113 749 Z " />
<glyph glyph-name="cdotaccent" unicode="&#x10b;" horiz-adv-x="536" d="M46 421 Q55 442 73.5 466 Q92 490 120 509.5 Q148 529 187.5 542 Q227 555 278 555 Q329 555 367.5 542 Q406 529 433 510.5 Q460 492 476.5 471.5 Q493 451 501 436 L501 333 L383 333 L383 396 Q373 420 346.5 439 Q320 458 278 458 Q236 458 210 439 Q184 420 173 396 L173 145 Q184 121 210 102 Q236 83 278 83 Q320 83 346.5 102 Q373 121 383 145 L383 208 L501 208 L501 105 Q494 90 477.5 69.5 Q461 49 433.5 30.5 Q406 12 367.5 -1 Q329 -14 278 -14 Q227 -14 187.5 -1 Q148 12 120 31.5 Q92 51 73.5 75 Q55 99 46 120 L46 421 Z M212 716 Q218 728 235 739.5 Q252 751 281 751 Q310 751 327.5 739.5 Q345 728 350 716 L350 658 Q345 645 327.5 634 Q310 623 281 623 Q252 623 235 634 Q218 645 212 658 L212 716 Z " />
<glyph glyph-name="ccedilla" unicode="&#xe7;" horiz-adv-x="536" d="M195 -166 Q211 -172 229.5 -176.5 Q248 -181 268 -181 Q288 -181 300 -174.5 Q312 -168 317 -160 L317 -129 Q307 -110 271 -110 L210 -110 L238 -12 Q211 -9 187 -1 Q148 12 120 31.5 Q92 51 73.5 75 Q55 99 46 120 L46 421 Q55 442 73.5 466 Q92 490 120 509.5 Q148 529 187.5 542 Q227 555 278 555 Q329 555 367.5 542 Q406 529 433 510.5 Q460 492 476.5 471.5 Q493 451 501 436 L501 333 L383 333 L383 396 Q373 420 346.5 439 Q320 458 278 458 Q236 458 210 439 Q184 420 173 396 L173 145 Q184 121 210 102 Q236 83 278 83 Q320 83 346.5 102 Q373 121 383 145 L383 208 L501 208 L501 105 Q494 90 477.5 69.5 Q461 49 433.5 30.5 Q406 12 367 -1 Q337 -10 308 -12 L296 -56 L309 -56 Q339 -56 362 -70.5 Q385 -85 393 -105 L393 -190 Q381 -215 350 -230.5 Q319 -246 276 -246 Q243 -246 217.5 -240 Q192 -234 178 -226 L195 -166 Z " />
<glyph glyph-name="dcaron" unicode="&#x10f;" horiz-adv-x="707" d="M567 516 L587 700 L692 700 L692 634 L648 501 L567 501 L567 516 Z M381 44 Q355 21 318.5 5 Q282 -11 232 -11 Q189 -11 157 1 Q125 13 102.5 31 Q80 49 66.5 69.5 Q53 90 46 107 L46 434 Q53 451 66.5 471.5 Q80 492 102.5 510 Q125 528 157 540 Q189 552 232 552 Q278 552 313 538.5 Q348 525 374 504 L374 700 L501 700 L501 0 L381 0 L381 44 Z M270 86 Q307 86 333 98 Q359 110 374 127 L374 414 Q359 431 333 443 Q307 455 270 455 Q249 455 232.5 450 Q216 445 204 437.5 Q192 430 184.5 422 Q177 414 173 407 L173 134 Q181 120 204.5 103 Q228 86 270 86 Z " />
<glyph glyph-name="dcroat" unicode="&#x111;" horiz-adv-x="573" d="M215 651 L374 651 L374 700 L501 700 L501 651 L551 651 L551 584 L501 584 L501 0 L381 0 L381 44 Q355 20 317.5 4.5 Q280 -11 232 -11 Q189 -11 157 1 Q125 13 102.5 31 Q80 49 66.5 69.5 Q53 90 46 107 L46 415 Q53 432 66.5 452.5 Q80 473 102.5 491 Q125 509 157 521 Q189 533 232 533 Q278 533 313 519.5 Q348 506 374 485 L374 584 L215 584 L215 651 Z M270 85 Q307 85 333 97 Q359 109 374 126 L374 396 Q359 413 333 425 Q307 437 270 437 Q249 437 232.5 432 Q216 427 204 419.5 Q192 412 184.5 404 Q177 396 173 389 L173 133 Q181 119 204.5 102 Q228 85 270 85 Z " />
<glyph glyph-name="egrave" unicode="&#xe8;" horiz-adv-x="544" d="M46 421 Q55 442 73.5 466 Q92 490 120 509.5 Q148 529 187.5 542 Q227 555 278 555 Q329 555 367.5 542 Q406 529 433 510.5 Q460 492 476.5 471.5 Q493 451 501 436 L501 233 L173 233 L173 144 Q184 121 210 102 Q236 83 278 83 Q320 83 346.5 102 Q373 121 383 144 L383 178 L501 178 L501 105 Q493 90 476.5 69.5 Q460 49 433 30.5 Q406 12 367.5 -1 Q329 -14 278 -14 Q227 -14 187.5 -1 Q148 12 120 31.5 Q92 51 73.5 75 Q55 99 46 120 L46 421 Z M173 322 L383 322 L383 396 Q373 420 346.5 439 Q320 458 278 458 Q236 458 210 439 Q184 420 173 396 L173 322 Z M162 711 L162 767 L285 767 L342 614 L342 598 L243 598 L162 711 Z " />
<glyph glyph-name="eacute" unicode="&#xe9;" horiz-adv-x="544" d="M46 421 Q55 442 73.5 466 Q92 490 120 509.5 Q148 529 187.5 542 Q227 555 278 555 Q329 555 367.5 542 Q406 529 433 510.5 Q460 492 476.5 471.5 Q493 451 501 436 L501 233 L173 233 L173 144 Q184 121 210 102 Q236 83 278 83 Q320 83 346.5 102 Q373 121 383 144 L383 178 L501 178 L501 105 Q493 90 476.5 69.5 Q460 49 433 30.5 Q406 12 367.5 -1 Q329 -14 278 -14 Q227 -14 187.5 -1 Q148 12 120 31.5 Q92 51 73.5 75 Q55 99 46 120 L46 421 Z M173 322 L383 322 L383 396 Q373 420 346.5 439 Q320 458 278 458 Q236 458 210 439 Q184 420 173 396 L173 322 Z M227 614 L284 767 L407 767 L407 711 L327 598 L227 598 L227 614 Z " />
<glyph glyph-name="ecircumflex" unicode="&#xea;" horiz-adv-x="544" d="M46 421 Q55 442 73.5 466 Q92 490 120 509.5 Q148 529 187.5 542 Q227 555 278 555 Q329 555 367.5 542 Q406 529 433 510.5 Q460 492 476.5 471.5 Q493 451 501 436 L501 233 L173 233 L173 144 Q184 121 210 102 Q236 83 278 83 Q320 83 346.5 102 Q373 121 383 144 L383 178 L501 178 L501 105 Q493 90 476.5 69.5 Q460 49 433 30.5 Q406 12 367.5 -1 Q329 -14 278 -14 Q227 -14 187.5 -1 Q148 12 120 31.5 Q92 51 73.5 75 Q55 99 46 120 L46 421 Z M173 322 L383 322 L383 396 Q373 420 346.5 439 Q320 458 278 458 Q236 458 210 439 Q184 420 173 396 L173 322 Z M115 611 L198 764 L361 764 L444 611 L444 596 L355 596 L280 699 L205 596 L115 596 L115 611 Z " />
<glyph glyph-name="ecaron" unicode="&#x11b;" horiz-adv-x="544" d="M46 421 Q55 442 73.5 466 Q92 490 120 509.5 Q148 529 187.5 542 Q227 555 278 555 Q329 555 367.5 542 Q406 529 433 510.5 Q460 492 476.5 471.5 Q493 451 501 436 L501 233 L173 233 L173 144 Q184 121 210 102 Q236 83 278 83 Q320 83 346.5 102 Q373 121 383 144 L383 178 L501 178 L501 105 Q493 90 476.5 69.5 Q460 49 433 30.5 Q406 12 367.5 -1 Q329 -14 278 -14 Q227 -14 187.5 -1 Q148 12 120 31.5 Q92 51 73.5 75 Q55 99 46 120 L46 421 Z M173 322 L383 322 L383 396 Q373 420 346.5 439 Q320 458 278 458 Q236 458 210 439 Q184 420 173 396 L173 322 Z M116 749 L116 764 L206 764 L281 660 L356 764 L445 764 L445 749 L362 596 L199 596 L116 749 Z " />
<glyph glyph-name="edieresis" unicode="&#xeb;" horiz-adv-x="544" d="M46 421 Q55 442 73.5 466 Q92 490 120 509.5 Q148 529 187.5 542 Q227 555 278 555 Q329 555 367.5 542 Q406 529 433 510.5 Q460 492 476.5 471.5 Q493 451 501 436 L501 233 L173 233 L173 144 Q184 121 210 102 Q236 83 278 83 Q320 83 346.5 102 Q373 121 383 144 L383 178 L501 178 L501 105 Q493 90 476.5 69.5 Q460 49 433 30.5 Q406 12 367.5 -1 Q329 -14 278 -14 Q227 -14 187.5 -1 Q148 12 120 31.5 Q92 51 73.5 75 Q55 99 46 120 L46 421 Z M173 322 L383 322 L383 396 Q373 420 346.5 439 Q320 458 278 458 Q236 458 210 439 Q184 420 173 396 L173 322 Z M110 716 Q116 722 130.5 731.5 Q145 741 174 741 Q203 741 218 731.5 Q233 722 238 716 L238 640 Q233 633 218 624 Q203 615 174 615 Q145 615 130.5 624.5 Q116 634 110 640 L110 716 Z M324 716 Q329 722 344 731.5 Q359 741 388 741 Q417 741 432 731.5 Q447 722 452 716 L452 640 Q447 633 432 624 Q417 615 388 615 Q359 615 344 624.5 Q329 634 324 640 L324 716 Z " />
<glyph glyph-name="emacron" unicode="&#x113;" horiz-adv-x="544" d="M46 421 Q55 442 73.5 466 Q92 490 120 509.5 Q148 529 187.5 542 Q227 555 278 555 Q329 555 367.5 542 Q406 529 433 510.5 Q460 492 476.5 471.5 Q493 451 501 436 L501 233 L173 233 L173 144 Q184 121 210 102 Q236 83 278 83 Q320 83 346.5 102 Q373 121 383 144 L383 178 L501 178 L501 105 Q493 90 476.5 69.5 Q460 49 433 30.5 Q406 12 367.5 -1 Q329 -14 278 -14 Q227 -14 187.5 -1 Q148 12 120 31.5 Q92 51 73.5 75 Q55 99 46 120 L46 421 Z M173 322 L383 322 L383 396 Q373 420 346.5 439 Q320 458 278 458 Q236 458 210 439 Q184 420 173 396 L173 322 Z M104 723 L458 723 L458 634 L104 634 L104 723 Z " />
<glyph glyph-name="ebreve" unicode="&#x115;" horiz-adv-x="544" d="M46 421 Q55 442 73.5 466 Q92 490 120 509.5 Q148 529 187.5 542 Q227 555 278 555 Q329 555 367.5 542 Q406 529 433 510.5 Q460 492 476.5 471.5 Q493 451 501 436 L501 233 L173 233 L173 144 Q184 121 210 102 Q236 83 278 83 Q320 83 346.5 102 Q373 121 383 144 L383 178 L501 178 L501 105 Q493 90 476.5 69.5 Q460 49 433 30.5 Q406 12 367.5 -1 Q329 -14 278 -14 Q227 -14 187.5 -1 Q148 12 120 31.5 Q92 51 73.5 75 Q55 99 46 120 L46 421 Z M173 322 L383 322 L383 396 Q373 420 346.5 439 Q320 458 278 458 Q236 458 210 439 Q184 420 173 396 L173 322 Z M115 730 L209 730 L209 703 Q213 694 229 680.5 Q245 667 278 667 Q311 667 327 680.5 Q343 694 347 703 L347 730 L440 730 L440 684 Q432 667 419 651 Q406 635 386.5 622 Q367 609 340.5 601.5 Q314 594 278 594 Q242 594 215.5 601.5 Q189 609 169.5 622 Q150 635 136.5 651 Q123 667 115 684 L115 730 Z " />
<glyph glyph-name="edotaccent" unicode="&#x117;" horiz-adv-x="544" d="M46 421 Q55 442 73.5 466 Q92 490 120 509.5 Q148 529 187.5 542 Q227 555 278 555 Q329 555 367.5 542 Q406 529 433 510.5 Q460 492 476.5 471.5 Q493 451 501 436 L501 233 L173 233 L173 144 Q184 121 210 102 Q236 83 278 83 Q320 83 346.5 102 Q373 121 383 144 L383 178 L501 178 L501 105 Q493 90 476.5 69.5 Q460 49 433 30.5 Q406 12 367.5 -1 Q329 -14 278 -14 Q227 -14 187.5 -1 Q148 12 120 31.5 Q92 51 73.5 75 Q55 99 46 120 L46 421 Z M173 322 L383 322 L383 396 Q373 420 346.5 439 Q320 458 278 458 Q236 458 210 439 Q184 420 173 396 L173 322 Z M212 710 Q218 722 235 733.5 Q252 745 281 745 Q310 745 327.5 733.5 Q345 722 350 710 L350 652 Q345 639 327.5 628 Q310 617 281 617 Q252 617 235 628 Q218 639 212 652 L212 710 Z " />
<glyph glyph-name="eogonek" unicode="&#x119;" horiz-adv-x="544" d="M46 421 Q55 442 73.5 466 Q92 490 120 509.5 Q148 529 187.5 542 Q227 555 278 555 Q329 555 367.5 542 Q406 529 433 510.5 Q460 492 476.5 471.5 Q493 451 501 436 L501 233 L173 233 L173 144 Q184 121 210 102 Q236 83 278 83 Q320 83 346.5 102 Q373 121 383 144 L383 178 L501 178 L501 102 Q451 21 426.5 -34 Q402 -89 398 -106 L398 -135 Q402 -143 414.5 -148.5 Q427 -154 444 -154 Q460 -154 473 -151 Q486 -148 501 -142 L501 -209 Q487 -217 470.5 -221 Q454 -225 424 -225 Q384 -225 351 -212.5 Q318 -200 306 -174 L306 -101 Q309 -90 321.5 -64.5 Q334 -39 353 -5 Q336 -9 317.5 -11.5 Q299 -14 278 -14 Q227 -14 187.5 -1 Q148 12 120 31.5 Q92 51 73.5 75 Q55 99 46 120 L46 421 Z M173 322 L383 322 L383 396 Q373 420 346.5 439 Q320 458 278 458 Q236 458 210 439 Q184 420 173 396 L173 322 Z " />
<glyph glyph-name="gcircumflex" unicode="&#x11d;" horiz-adv-x="555" d="M51 26 L173 26 L173 -25 Q181 -39 204.5 -55.5 Q228 -72 269 -72 Q311 -72 337 -55.5 Q363 -39 374 -15 L374 117 Q348 96 313 82.5 Q278 69 232 69 Q189 69 157 81 Q125 93 102.5 111 Q80 129 66.5 149.5 Q53 170 46 187 L46 434 Q53 451 66.5 471.5 Q80 492 102.5 510 Q125 528 157 540 Q189 552 232 552 Q280 552 316.5 537.5 Q353 523 379 500 L379 541 L501 541 L501 -39 Q492 -61 473.5 -84 Q455 -107 427 -125.5 Q399 -144 359.5 -156 Q320 -168 269 -168 Q218 -168 180 -156 Q142 -144 116 -126.5 Q90 -109 74 -90 Q58 -71 51 -57 L51 26 Z M270 166 Q307 166 333 178 Q359 190 374 207 L374 414 Q359 431 333 443 Q307 455 270 455 Q249 455 232.5 450 Q216 445 204 437.5 Q192 430 184.5 422 Q177 414 173 407 L173 214 Q181 200 204.5 183 Q228 166 270 166 Z M125 611 L208 764 L371 764 L454 611 L454 596 L365 596 L290 699 L215 596 L125 596 L125 611 Z " />
<glyph glyph-name="gbreve" unicode="&#x11f;" horiz-adv-x="555" d="M51 26 L173 26 L173 -25 Q181 -39 204.5 -55.5 Q228 -72 269 -72 Q311 -72 337 -55.5 Q363 -39 374 -15 L374 117 Q348 96 313 82.5 Q278 69 232 69 Q189 69 157 81 Q125 93 102.5 111 Q80 129 66.5 149.5 Q53 170 46 187 L46 434 Q53 451 66.5 471.5 Q80 492 102.5 510 Q125 528 157 540 Q189 552 232 552 Q280 552 316.5 537.5 Q353 523 379 500 L379 541 L501 541 L501 -39 Q492 -61 473.5 -84 Q455 -107 427 -125.5 Q399 -144 359.5 -156 Q320 -168 269 -168 Q218 -168 180 -156 Q142 -144 116 -126.5 Q90 -109 74 -90 Q58 -71 51 -57 L51 26 Z M270 166 Q307 166 333 178 Q359 190 374 207 L374 414 Q359 431 333 443 Q307 455 270 455 Q249 455 232.5 450 Q216 445 204 437.5 Q192 430 184.5 422 Q177 414 173 407 L173 214 Q181 200 204.5 183 Q228 166 270 166 Z M122 730 L216 730 L216 703 Q220 694 236 680.5 Q252 667 285 667 Q318 667 334 680.5 Q350 694 354 703 L354 730 L447 730 L447 684 Q439 667 426 651 Q413 635 393.5 622 Q374 609 347.5 601.5 Q321 594 285 594 Q249 594 222.5 601.5 Q196 609 176.5 622 Q157 635 143.5 651 Q130 667 122 684 L122 730 Z " />
<glyph glyph-name="gdotaccent" unicode="&#x121;" horiz-adv-x="555" d="M51 26 L173 26 L173 -25 Q181 -39 204.5 -55.5 Q228 -72 269 -72 Q311 -72 337 -55.5 Q363 -39 374 -15 L374 117 Q348 96 313 82.5 Q278 69 232 69 Q189 69 157 81 Q125 93 102.5 111 Q80 129 66.5 149.5 Q53 170 46 187 L46 434 Q53 451 66.5 471.5 Q80 492 102.5 510 Q125 528 157 540 Q189 552 232 552 Q280 552 316.5 537.5 Q353 523 379 500 L379 541 L501 541 L501 -39 Q492 -61 473.5 -84 Q455 -107 427 -125.5 Q399 -144 359.5 -156 Q320 -168 269 -168 Q218 -168 180 -156 Q142 -144 116 -126.5 Q90 -109 74 -90 Q58 -71 51 -57 L51 26 Z M270 166 Q307 166 333 178 Q359 190 374 207 L374 414 Q359 431 333 443 Q307 455 270 455 Q249 455 232.5 450 Q216 445 204 437.5 Q192 430 184.5 422 Q177 414 173 407 L173 214 Q181 200 204.5 183 Q228 166 270 166 Z M213 710 Q219 722 236 733.5 Q253 745 282 745 Q311 745 328.5 733.5 Q346 722 351 710 L351 652 Q346 639 328.5 628 Q311 617 282 617 Q253 617 236 628 Q219 639 213 652 L213 710 Z " />
<glyph glyph-name="gcommaaccent" unicode="&#x123;" horiz-adv-x="555" d="M51 26 L173 26 L173 -25 Q181 -39 204.5 -55.5 Q228 -72 269 -72 Q311 -72 337 -55.5 Q363 -39 374 -15 L374 117 Q348 96 313 82.5 Q278 69 232 69 Q189 69 157 81 Q125 93 102.5 111 Q80 129 66.5 149.5 Q53 170 46 187 L46 434 Q53 451 66.5 471.5 Q80 492 102.5 510 Q125 528 157 540 Q189 552 232 552 Q280 552 316.5 537.5 Q353 523 379 500 L379 541 L501 541 L501 -39 Q492 -61 473.5 -84 Q455 -107 427 -125.5 Q399 -144 359.5 -156 Q320 -168 269 -168 Q218 -168 180 -156 Q142 -144 116 -126.5 Q90 -109 74 -90 Q58 -71 51 -57 L51 26 Z M270 166 Q307 166 333 178 Q359 190 374 207 L374 414 Q359 431 333 443 Q307 455 270 455 Q249 455 232.5 450 Q216 445 204 437.5 Q192 430 184.5 422 Q177 414 173 407 L173 214 Q181 200 204.5 183 Q228 166 270 166 Z M220 744 Q225 759 248.5 777 Q272 795 312 795 L345 795 L345 745 L325 745 Q292 745 285 733 L285 708 L289 708 Q317 708 334.5 697 Q352 686 357 674 L357 628 Q352 617 334.5 605.5 Q317 594 289 594 Q260 594 242.5 605.5 Q225 617 220 628 L220 744 Z " />
<glyph glyph-name="hcircumflex" unicode="&#x125;" horiz-adv-x="561" d="M382 0 L382 407 Q374 421 350.5 438 Q327 455 285 455 Q248 455 221.5 443 Q195 431 181 414 L181 0 L54 0 L54 700 L181 700 L181 504 Q207 525 242 538.5 Q277 552 323 552 Q366 552 397.5 540 Q429 528 451.5 510 Q474 492 488 471.5 Q502 451 509 434 L509 0 L382 0 Z M124 762 L207 904 L370 904 L453 762 L453 747 L364 747 L289 840 L214 747 L124 747 L124 762 Z " />
<glyph glyph-name="hbar" unicode="&#x127;" horiz-adv-x="561" d="M22 651 L64 651 L64 700 L191 700 L191 651 L357 651 L357 584 L191 584 L191 485 Q217 506 252 519.5 Q287 533 333 533 Q376 533 407.5 521 Q439 509 461.5 491 Q484 473 498 452.5 Q512 432 519 415 L519 0 L392 0 L392 389 Q384 403 360.5 420 Q337 437 295 437 Q258 437 231.5 425 Q205 413 191 396 L191 0 L64 0 L64 584 L22 584 L22 651 Z " />
<glyph glyph-name="igrave" unicode="&#xec;" horiz-adv-x="238" d="M55 541 L182 541 L182 0 L55 0 L55 541 Z M3 711 L3 767 L126 767 L183 614 L183 598 L84 598 L3 711 Z " />
<glyph glyph-name="iacute" unicode="&#xed;" horiz-adv-x="238" d="M55 541 L182 541 L182 0 L55 0 L55 541 Z M56 614 L113 767 L236 767 L236 711 L156 598 L56 598 L56 614 Z " />
<glyph glyph-name="icircumflex" unicode="&#xee;" horiz-adv-x="238" d="M55 541 L182 541 L182 0 L55 0 L55 541 Z M-45 611 L38 764 L201 764 L284 611 L284 596 L195 596 L120 699 L45 596 L-45 596 L-45 611 Z " />
<glyph glyph-name="itilde" unicode="&#x129;" horiz-adv-x="238" d="M55 541 L182 541 L182 0 L55 0 L55 541 Z M309 682 Q301 654 274 631.5 Q247 609 200 609 Q170 609 150 617 Q130 625 113.5 635 Q97 645 83 653 Q69 661 51 661 Q31 661 21 652 Q11 643 7 635 L7 615 L-69 615 L-69 668 Q-60 699 -32 720 Q-4 741 40 741 Q69 741 89 733 Q109 725 125.5 715.5 Q142 706 156.5 698 Q171 690 189 690 Q206 690 217 697.5 Q228 705 233 716 L233 736 L309 736 L309 682 Z " />
<glyph glyph-name="idieresis" unicode="&#xef;" horiz-adv-x="238" d="M55 541 L182 541 L182 0 L55 0 L55 541 Z M-51 716 Q-45 722 -30.5 731.5 Q-16 741 13 741 Q42 741 57 731.5 Q72 722 77 716 L77 640 Q72 633 57 624 Q42 615 13 615 Q-16 615 -30.5 624.5 Q-45 634 -51 640 L-51 716 Z M163 716 Q168 722 183 731.5 Q198 741 227 741 Q256 741 271 731.5 Q286 722 291 716 L291 640 Q286 633 271 624 Q256 615 227 615 Q198 615 183 624.5 Q168 634 163 640 L163 716 Z " />
<glyph glyph-name="imacron" unicode="&#x12b;" horiz-adv-x="238" d="M55 541 L182 541 L182 0 L55 0 L55 541 Z M-58 723 L296 723 L296 634 L-58 634 L-58 723 Z " />
<glyph glyph-name="ibreve" unicode="&#x12d;" horiz-adv-x="238" d="M55 541 L182 541 L182 0 L55 0 L55 541 Z M-43 730 L51 730 L51 703 Q55 694 71 680.5 Q87 667 120 667 Q153 667 169 680.5 Q185 694 189 703 L189 730 L282 730 L282 684 Q274 667 261 651 Q248 635 228.5 622 Q209 609 182.5 601.5 Q156 594 120 594 Q84 594 57.5 601.5 Q31 609 11.5 622 Q-8 635 -21.5 651 Q-35 667 -43 684 L-43 730 Z " />
<glyph glyph-name="iogonek" unicode="&#x12f;" horiz-adv-x="238" d="M-13 -112 Q-9 -102 2.5 -86 Q14 -70 31 -51 Q48 -32 70 -13 Q77 -6 85 0 L55 0 L55 541 L182 541 L182 0 Q129 -45 106.5 -75.5 Q84 -106 79 -117 L79 -146 Q83 -154 95.5 -159.5 Q108 -165 125 -165 Q141 -165 154 -162.5 Q167 -160 182 -153 L182 -220 Q168 -228 151.5 -232 Q135 -236 105 -236 Q65 -236 32 -223.5 Q-1 -211 -13 -185 L-13 -112 Z M50 707 Q56 719 73 730.5 Q90 742 119 742 Q148 742 165.5 730.5 Q183 719 188 707 L188 649 Q183 636 165.5 625 Q148 614 119 614 Q90 614 73 625 Q56 636 50 649 L50 707 Z " />
<glyph glyph-name="dotlessi" unicode="&#x131;" horiz-adv-x="238" d="M55 541 L182 541 L182 0 L55 0 L55 541 Z " />
<glyph glyph-name="ij" unicode="&#x133;" horiz-adv-x="474" d="M50 707 Q56 719 73 730.5 Q90 742 119 742 Q148 742 165.5 730.5 Q183 719 188 707 L188 649 Q183 636 165.5 625 Q148 614 119 614 Q90 614 73 625 Q56 636 50 649 L50 707 Z M55 541 L182 541 L182 0 L55 0 L55 541 Z M188 -73 Q230 -73 256 -52.5 Q282 -32 292 -6 L292 541 L419 541 L419 -34 Q410 -55 392 -79 Q374 -103 346 -123 Q318 -143 278.5 -156 Q239 -169 188 -169 L188 -73 Z M287 707 Q292 719 309 730.5 Q326 742 355 742 Q385 742 402.5 730.5 Q420 719 425 707 L425 649 Q420 636 402.5 625 Q385 614 355 614 Q326 614 309 625 Q292 636 287 649 L287 707 Z " />
<glyph glyph-name="dotlessj" unicode="&#x237;" horiz-adv-x="237" d="M-50 -73 Q-8 -73 18 -52.5 Q44 -32 54 -6 L54 541 L181 541 L181 -34 Q172 -55 154 -79 Q136 -103 108 -123 Q80 -143 40.5 -156 Q1 -169 -50 -169 L-50 -73 Z " />
<glyph glyph-name="jcircumflex" unicode="&#x135;" horiz-adv-x="237" d="M-50 -73 Q-8 -73 18 -52.5 Q44 -32 54 -6 L54 541 L181 541 L181 -34 Q172 -55 154 -79 Q136 -103 108 -123 Q80 -143 40.5 -156 Q1 -169 -50 -169 L-50 -73 Z M-46 611 L37 764 L200 764 L283 611 L283 596 L194 596 L119 699 L44 596 L-46 596 L-46 611 Z " />
<glyph glyph-name="kcommaaccent" unicode="&#x137;" horiz-adv-x="509" d="M54 700 L181 700 L181 324 L195 324 L401 541 L484 541 L484 470 L321 304 L491 71 L491 0 L396 0 L236 223 L181 167 L181 0 L54 0 L54 700 Z M206 -182 L236 -182 Q247 -182 255.5 -179.5 Q264 -177 268 -169 L268 -143 L266 -143 Q237 -143 221 -137.5 Q205 -132 200 -126 L200 -69 Q205 -63 221 -56 Q237 -49 266 -49 Q295 -49 311 -56 Q327 -63 332 -69 L332 -174 Q327 -192 304.5 -208 Q282 -224 247 -224 L206 -224 L206 -182 Z " />
<glyph glyph-name="kgreenlandic" unicode="&#x138;" horiz-adv-x="511" d="M54 541 L181 541 L181 324 L195 324 L402 541 L484 541 L484 470 L321 304 L491 71 L491 0 L396 0 L236 222 L181 167 L181 0 L54 0 L54 541 Z " />
<glyph glyph-name="lacute" unicode="&#x13a;" horiz-adv-x="235" d="M54 700 L181 700 L181 0 L54 0 L54 700 Z M55 762 L112 904 L235 904 L235 849 L155 747 L55 747 L55 762 Z " />
<glyph glyph-name="lcaron" unicode="&#x13e;" horiz-adv-x="387" d="M247 516 L267 700 L372 700 L372 634 L328 501 L247 501 L247 516 Z M54 700 L181 700 L181 0 L54 0 L54 700 Z " />
<glyph glyph-name="lcommaaccent" unicode="&#x13c;" horiz-adv-x="235" d="M54 700 L181 700 L181 0 L54 0 L54 700 Z M59 -182 L89 -182 Q100 -182 108.5 -179.5 Q117 -177 121 -169 L121 -143 L119 -143 Q90 -143 74 -137.5 Q58 -132 53 -126 L53 -69 Q58 -63 74 -56 Q90 -49 119 -49 Q148 -49 164 -56 Q180 -63 185 -69 L185 -174 Q180 -192 157.5 -208 Q135 -224 100 -224 L59 -224 L59 -182 Z " />
<glyph glyph-name="lslash" unicode="&#x142;" horiz-adv-x="345" d="M29 342 L109 388 L109 700 L236 700 L236 462 L316 509 L316 406 L236 359 L236 0 L109 0 L109 285 L29 239 L29 342 Z " />
<glyph glyph-name="ldot" unicode="&#x140;" horiz-adv-x="424" d="M257 394 Q263 406 280 417.5 Q297 429 326 429 Q355 429 372.5 417.5 Q390 406 395 394 L395 336 Q390 323 372.5 312 Q355 301 326 301 Q297 301 280 312 Q263 323 257 336 L257 394 Z M56 700 L183 700 L183 0 L56 0 L56 700 Z " />
<glyph glyph-name="nacute" unicode="&#x144;" horiz-adv-x="561" d="M382 0 L382 407 Q374 421 350.5 438 Q327 455 285 455 Q248 455 221.5 443 Q195 431 181 414 L181 0 L54 0 L54 541 L173 541 L173 497 Q199 520 236 536 Q273 552 323 552 Q366 552 397.5 540 Q429 528 451.5 510 Q474 492 488 471.5 Q502 451 509 434 L509 0 L382 0 Z M224 617 L281 770 L404 770 L404 714 L324 601 L224 601 L224 617 Z " />
<glyph glyph-name="ncaron" unicode="&#x148;" horiz-adv-x="561" d="M382 0 L382 407 Q374 421 350.5 438 Q327 455 285 455 Q248 455 221.5 443 Q195 431 181 414 L181 0 L54 0 L54 541 L173 541 L173 497 Q199 520 236 536 Q273 552 323 552 Q366 552 397.5 540 Q429 528 451.5 510 Q474 492 488 471.5 Q502 451 509 434 L509 0 L382 0 Z M118 752 L118 767 L208 767 L283 663 L358 767 L447 767 L447 752 L364 599 L201 599 L118 752 Z " />
<glyph glyph-name="ntilde" unicode="&#xf1;" horiz-adv-x="561" d="M382 0 L382 407 Q374 421 350.5 438 Q327 455 285 455 Q248 455 221.5 443 Q195 431 181 414 L181 0 L54 0 L54 541 L173 541 L173 497 Q199 520 236 536 Q273 552 323 552 Q366 552 397.5 540 Q429 528 451.5 510 Q474 492 488 471.5 Q502 451 509 434 L509 0 L382 0 Z M471 685 Q463 657 436 634.5 Q409 612 362 612 Q332 612 312 620 Q292 628 275.5 638 Q259 648 245 656 Q231 664 213 664 Q193 664 183 655 Q173 646 169 638 L169 618 L93 618 L93 671 Q102 702 130 723 Q158 744 202 744 Q231 744 251 736 Q271 728 287.5 718.5 Q304 709 318.5 701 Q333 693 351 693 Q368 693 379 700.5 Q390 708 395 719 L395 739 L471 739 L471 685 Z " />
<glyph glyph-name="ncommaaccent" unicode="&#x146;" horiz-adv-x="561" d="M382 0 L382 407 Q374 421 350.5 438 Q327 455 285 455 Q248 455 221.5 443 Q195 431 181 414 L181 0 L54 0 L54 541 L173 541 L173 497 Q199 520 236 536 Q273 552 323 552 Q366 552 397.5 540 Q429 528 451.5 510 Q474 492 488 471.5 Q502 451 509 434 L509 0 L382 0 Z M220 -180 L250 -180 Q261 -180 269.5 -177.5 Q278 -175 282 -167 L282 -141 L280 -141 Q251 -141 235 -135.5 Q219 -130 214 -124 L214 -67 Q219 -61 235 -54 Q251 -47 280 -47 Q309 -47 325 -54 Q341 -61 346 -67 L346 -172 Q341 -190 318.5 -206 Q296 -222 261 -222 L220 -222 L220 -180 Z " />
<glyph glyph-name="napostrophe" unicode="&#x149;" horiz-adv-x="561" d="M382 0 L382 407 Q374 421 350.5 438 Q327 455 285 455 Q248 455 221.5 443 Q195 431 181 414 L181 0 L54 0 L54 541 L173 541 L173 497 Q199 520 236 536 Q273 552 323 552 Q366 552 397.5 540 Q429 528 451.5 510 Q474 492 488 471.5 Q502 451 509 434 L509 0 L382 0 Z M24 624 L54 624 Q65 624 73.5 626.5 Q82 629 86 637 L86 663 L84 663 Q55 663 39 668.5 Q23 674 18 680 L18 737 Q23 743 39 750 Q55 757 84 757 Q113 757 129 750 Q145 743 150 737 L150 632 Q145 614 122.5 598 Q100 582 65 582 L24 582 L24 624 Z " />
<glyph glyph-name="ograve" unicode="&#xf2;" horiz-adv-x="556" d="M46 421 Q55 442 73.5 466 Q92 490 120 509.5 Q148 529 187.5 542 Q227 555 278 555 Q329 555 368.5 542 Q408 529 436 509.5 Q464 490 482.5 466 Q501 442 510 421 L510 120 Q501 99 482.5 75 Q464 51 436 31.5 Q408 12 368.5 -1 Q329 -14 278 -14 Q227 -14 187.5 -1 Q148 12 120 31.5 Q92 51 73.5 75 Q55 99 46 120 L46 421 Z M173 145 Q184 121 210 102 Q236 83 278 83 Q320 83 346.5 102 Q373 121 383 145 L383 396 Q373 420 346.5 439 Q320 458 278 458 Q236 458 210 439 Q184 420 173 396 L173 145 Z M156 714 L156 770 L279 770 L336 617 L336 601 L237 601 L156 714 Z " />
<glyph glyph-name="oacute" unicode="&#xf3;" horiz-adv-x="556" d="M46 421 Q55 442 73.5 466 Q92 490 120 509.5 Q148 529 187.5 542 Q227 555 278 555 Q329 555 368.5 542 Q408 529 436 509.5 Q464 490 482.5 466 Q501 442 510 421 L510 120 Q501 99 482.5 75 Q464 51 436 31.5 Q408 12 368.5 -1 Q329 -14 278 -14 Q227 -14 187.5 -1 Q148 12 120 31.5 Q92 51 73.5 75 Q55 99 46 120 L46 421 Z M173 145 Q184 121 210 102 Q236 83 278 83 Q320 83 346.5 102 Q373 121 383 145 L383 396 Q373 420 346.5 439 Q320 458 278 458 Q236 458 210 439 Q184 420 173 396 L173 145 Z M228 617 L285 770 L408 770 L408 714 L328 601 L228 601 L228 617 Z " />
<glyph glyph-name="ocircumflex" unicode="&#xf4;" horiz-adv-x="556" d="M46 421 Q55 442 73.5 466 Q92 490 120 509.5 Q148 529 187.5 542 Q227 555 278 555 Q329 555 368.5 542 Q408 529 436 509.5 Q464 490 482.5 466 Q501 442 510 421 L510 120 Q501 99 482.5 75 Q464 51 436 31.5 Q408 12 368.5 -1 Q329 -14 278 -14 Q227 -14 187.5 -1 Q148 12 120 31.5 Q92 51 73.5 75 Q55 99 46 120 L46 421 Z M173 145 Q184 121 210 102 Q236 83 278 83 Q320 83 346.5 102 Q373 121 383 145 L383 396 Q373 420 346.5 439 Q320 458 278 458 Q236 458 210 439 Q184 420 173 396 L173 145 Z M116 611 L199 764 L362 764 L445 611 L445 596 L356 596 L281 699 L206 596 L116 596 L116 611 Z " />
<glyph glyph-name="otilde" unicode="&#xf5;" horiz-adv-x="556" d="M46 421 Q55 442 73.5 466 Q92 490 120 509.5 Q148 529 187.5 542 Q227 555 278 555 Q329 555 368.5 542 Q408 529 436 509.5 Q464 490 482.5 466 Q501 442 510 421 L510 120 Q501 99 482.5 75 Q464 51 436 31.5 Q408 12 368.5 -1 Q329 -14 278 -14 Q227 -14 187.5 -1 Q148 12 120 31.5 Q92 51 73.5 75 Q55 99 46 120 L46 421 Z M173 145 Q184 121 210 102 Q236 83 278 83 Q320 83 346.5 102 Q373 121 383 145 L383 396 Q373 420 346.5 439 Q320 458 278 458 Q236 458 210 439 Q184 420 173 396 L173 145 Z M469 685 Q461 657 434 634.5 Q407 612 360 612 Q330 612 310 620 Q290 628 273.5 638 Q257 648 243 656 Q229 664 211 664 Q191 664 181 655 Q171 646 167 638 L167 618 L91 618 L91 671 Q100 702 128 723 Q156 744 200 744 Q229 744 249 736 Q269 728 285.5 718.5 Q302 709 316.5 701 Q331 693 349 693 Q366 693 377 700.5 Q388 708 393 719 L393 739 L469 739 L469 685 Z " />
<glyph glyph-name="odieresis" unicode="&#xf6;" horiz-adv-x="556" d="M46 421 Q55 442 73.5 466 Q92 490 120 509.5 Q148 529 187.5 542 Q227 555 278 555 Q329 555 368.5 542 Q408 529 436 509.5 Q464 490 482.5 466 Q501 442 510 421 L510 120 Q501 99 482.5 75 Q464 51 436 31.5 Q408 12 368.5 -1 Q329 -14 278 -14 Q227 -14 187.5 -1 Q148 12 120 31.5 Q92 51 73.5 75 Q55 99 46 120 L46 421 Z M173 145 Q184 121 210 102 Q236 83 278 83 Q320 83 346.5 102 Q373 121 383 145 L383 396 Q373 420 346.5 439 Q320 458 278 458 Q236 458 210 439 Q184 420 173 396 L173 145 Z M108 716 Q114 722 128.5 731.5 Q143 741 172 741 Q201 741 216 731.5 Q231 722 236 716 L236 640 Q231 633 216 624 Q201 615 172 615 Q143 615 128.5 624.5 Q114 634 108 640 L108 716 Z M322 716 Q327 722 342 731.5 Q357 741 386 741 Q415 741 430 731.5 Q445 722 450 716 L450 640 Q445 633 430 624 Q415 615 386 615 Q357 615 342 624.5 Q327 634 322 640 L322 716 Z " />
<glyph glyph-name="omacron" unicode="&#x14d;" horiz-adv-x="556" d="M46 421 Q55 442 73.5 466 Q92 490 120 509.5 Q148 529 187.5 542 Q227 555 278 555 Q329 555 368.5 542 Q408 529 436 509.5 Q464 490 482.5 466 Q501 442 510 421 L510 120 Q501 99 482.5 75 Q464 51 436 31.5 Q408 12 368.5 -1 Q329 -14 278 -14 Q227 -14 187.5 -1 Q148 12 120 31.5 Q92 51 73.5 75 Q55 99 46 120 L46 421 Z M173 145 Q184 121 210 102 Q236 83 278 83 Q320 83 346.5 102 Q373 121 383 145 L383 396 Q373 420 346.5 439 Q320 458 278 458 Q236 458 210 439 Q184 420 173 396 L173 145 Z M102 723 L456 723 L456 634 L102 634 L102 723 Z " />
<glyph glyph-name="obreve" unicode="&#x14f;" horiz-adv-x="556" d="M46 421 Q55 442 73.5 466 Q92 490 120 509.5 Q148 529 187.5 542 Q227 555 278 555 Q329 555 368.5 542 Q408 529 436 509.5 Q464 490 482.5 466 Q501 442 510 421 L510 120 Q501 99 482.5 75 Q464 51 436 31.5 Q408 12 368.5 -1 Q329 -14 278 -14 Q227 -14 187.5 -1 Q148 12 120 31.5 Q92 51 73.5 75 Q55 99 46 120 L46 421 Z M173 145 Q184 121 210 102 Q236 83 278 83 Q320 83 346.5 102 Q373 121 383 145 L383 396 Q373 420 346.5 439 Q320 458 278 458 Q236 458 210 439 Q184 420 173 396 L173 145 Z M117 732 L211 732 L211 705 Q215 696 231 682.5 Q247 669 280 669 Q313 669 329 682.5 Q345 696 349 705 L349 732 L442 732 L442 686 Q434 669 421 653 Q408 637 388.5 624 Q369 611 342.5 603.5 Q316 596 280 596 Q244 596 217.5 603.5 Q191 611 171.5 624 Q152 637 138.5 653 Q125 669 117 686 L117 732 Z " />
<glyph glyph-name="ohungarumlaut" unicode="&#x151;" horiz-adv-x="556" d="M46 421 Q55 442 73.5 466 Q92 490 120 509.5 Q148 529 187.5 542 Q227 555 278 555 Q329 555 368.5 542 Q408 529 436 509.5 Q464 490 482.5 466 Q501 442 510 421 L510 120 Q501 99 482.5 75 Q464 51 436 31.5 Q408 12 368.5 -1 Q329 -14 278 -14 Q227 -14 187.5 -1 Q148 12 120 31.5 Q92 51 73.5 75 Q55 99 46 120 L46 421 Z M173 145 Q184 121 210 102 Q236 83 278 83 Q320 83 346.5 102 Q373 121 383 145 L383 396 Q373 420 346.5 439 Q320 458 278 458 Q236 458 210 439 Q184 420 173 396 L173 145 Z M140 607 L180 760 L282 760 L282 713 L222 592 L140 592 L140 607 Z M330 607 L369 760 L470 760 L470 713 L411 592 L330 592 L330 607 Z " />
<glyph glyph-name="oslash" unicode="&#xf8;" horiz-adv-x="556" d="M46 40 L74 74 Q55 97 46 120 L46 421 Q55 442 73.5 466 Q92 490 120 509.5 Q148 529 187.5 542 Q227 555 278 555 Q328 555 365.5 543 Q403 531 432 512 L456 541 L510 541 L510 501 L482 466 Q491 455 498 443.5 Q505 432 510 421 L510 120 Q501 99 482.5 75 Q464 51 436 31.5 Q408 12 368.5 -1 Q329 -14 278 -14 Q227 -14 189.5 -2 Q152 10 123 29 L100 0 L46 0 L46 40 Z M278 83 Q320 83 346.5 102 Q373 121 383 145 L383 346 L194 115 Q208 101 229 92 Q250 83 278 83 Z M173 195 L362 426 Q348 440 326.5 449 Q305 458 278 458 Q236 458 210 439 Q184 420 173 396 L173 195 Z " />
<glyph glyph-name="oslashacute" unicode="&#x1ff;" horiz-adv-x="556" d="M46 40 L74 74 Q55 97 46 120 L46 421 Q55 442 73.5 466 Q92 490 120 509.5 Q148 529 187.5 542 Q227 555 278 555 Q328 555 365.5 543 Q403 531 432 512 L456 541 L510 541 L510 501 L482 466 Q491 455 498 443.5 Q505 432 510 421 L510 120 Q501 99 482.5 75 Q464 51 436 31.5 Q408 12 368.5 -1 Q329 -14 278 -14 Q227 -14 189.5 -2 Q152 10 123 29 L100 0 L46 0 L46 40 Z M278 83 Q320 83 346.5 102 Q373 121 383 145 L383 346 L194 115 Q208 101 229 92 Q250 83 278 83 Z M173 195 L362 426 Q348 440 326.5 449 Q305 458 278 458 Q236 458 210 439 Q184 420 173 396 L173 195 Z M238 617 L295 770 L418 770 L418 714 L338 601 L238 601 L238 617 Z " />
<glyph glyph-name="oe" unicode="&#x153;" horiz-adv-x="882" d="M46 421 Q55 442 73.5 466 Q92 490 120 509.5 Q148 529 187.5 542 Q227 555 278 555 Q335 555 376 540 Q417 525 446 502 Q475 525 516.5 540 Q558 555 615 555 Q666 555 704.5 542 Q743 529 770 510.5 Q797 492 813.5 471.5 Q830 451 838 436 L838 236 L510 236 L510 144 Q521 121 547 102 Q573 83 615 83 Q657 83 683.5 102 Q710 121 720 144 L720 178 L838 178 L838 105 Q830 90 813.5 69.5 Q797 49 770 30.5 Q743 12 704.5 -1 Q666 -14 615 -14 Q558 -14 516.5 1 Q475 16 446 39 Q417 16 376 1 Q335 -14 278 -14 Q227 -14 187.5 -1 Q148 12 120 31.5 Q92 51 73.5 75 Q55 99 46 120 L46 421 Z M173 145 Q184 121 210 102 Q236 83 278 83 Q320 83 346.5 102 Q373 121 383 145 L383 396 Q373 420 346.5 439 Q320 458 278 458 Q236 458 210 439 Q184 420 173 396 L173 145 Z M510 321 L720 321 L720 396 Q710 420 683.5 439 Q657 458 615 458 Q573 458 547 439 Q521 420 510 396 L510 321 Z " />
<glyph glyph-name="racute" unicode="&#x155;" horiz-adv-x="371" d="M54 541 L173 541 L173 468 Q194 498 230.5 519.5 Q267 541 327 541 Q330 541 335 541 Q340 541 348 540 L348 428 Q340 429 334 429 Q328 429 324 429 Q269 429 233.5 415.5 Q198 402 181 383 L181 0 L54 0 L54 541 Z M141 614 L198 767 L321 767 L321 711 L241 598 L141 598 L141 614 Z " />
<glyph glyph-name="rcaron" unicode="&#x159;" horiz-adv-x="371" d="M54 541 L173 541 L173 468 Q194 498 230.5 519.5 Q267 541 327 541 Q330 541 335 541 Q340 541 348 540 L348 428 Q340 429 334 429 Q328 429 324 429 Q269 429 233.5 415.5 Q198 402 181 383 L181 0 L54 0 L54 541 Z M43 750 L43 765 L133 765 L208 661 L283 765 L372 765 L372 750 L289 597 L126 597 L43 750 Z " />
<glyph glyph-name="rcommaaccent" unicode="&#x157;" horiz-adv-x="371" d="M54 541 L173 541 L173 468 Q194 498 230.5 519.5 Q267 541 327 541 Q330 541 335 541 Q340 541 348 540 L348 428 Q340 429 334 429 Q328 429 324 429 Q269 429 233.5 415.5 Q198 402 181 383 L181 0 L54 0 L54 541 Z M58 -182 L88 -182 Q99 -182 107.5 -179.5 Q116 -177 120 -169 L120 -143 L118 -143 Q89 -143 73 -137.5 Q57 -132 52 -126 L52 -69 Q57 -63 73 -56 Q89 -49 118 -49 Q147 -49 163 -56 Q179 -63 184 -69 L184 -174 Q179 -192 156.5 -208 Q134 -224 99 -224 L58 -224 L58 -182 Z " />
<glyph glyph-name="sacute" unicode="&#x15b;" horiz-adv-x="516" d="M45 172 L162 172 L162 126 Q173 111 196.5 96.5 Q220 82 258 82 Q296 82 319.5 96.5 Q343 111 354 126 L354 177 Q346 192 325.5 202 Q305 212 276 218 L216 231 Q176 240 146.5 251 Q117 262 96.5 274 Q76 286 63.5 297.5 Q51 309 45 320 L45 454 Q52 466 68 483 Q84 500 110 516 Q136 532 172.5 543.5 Q209 555 258 555 Q307 555 344 543.5 Q381 532 406.5 516 Q432 500 447.5 482.5 Q463 465 471 454 L471 371 L354 371 L354 415 Q343 430 319.5 444.5 Q296 459 258 459 Q220 459 196.5 444.5 Q173 430 162 415 L162 371 Q171 356 191.5 347 Q212 338 241 331 L299 318 Q379 300 419 275 Q459 250 471 230 L471 88 Q463 76 447.5 58.5 Q432 41 406 25 Q380 9 343.5 -2.5 Q307 -14 258 -14 Q209 -14 172.5 -2.5 Q136 9 110 25.5 Q84 42 68 59 Q52 76 45 88 L45 172 Z M204 617 L261 770 L384 770 L384 714 L304 601 L204 601 L204 617 Z " />
<glyph glyph-name="scircumflex" unicode="&#x15d;" horiz-adv-x="516" d="M45 172 L162 172 L162 126 Q173 111 196.5 96.5 Q220 82 258 82 Q296 82 319.5 96.5 Q343 111 354 126 L354 177 Q346 192 325.5 202 Q305 212 276 218 L216 231 Q176 240 146.5 251 Q117 262 96.5 274 Q76 286 63.5 297.5 Q51 309 45 320 L45 454 Q52 466 68 483 Q84 500 110 516 Q136 532 172.5 543.5 Q209 555 258 555 Q307 555 344 543.5 Q381 532 406.5 516 Q432 500 447.5 482.5 Q463 465 471 454 L471 371 L354 371 L354 415 Q343 430 319.5 444.5 Q296 459 258 459 Q220 459 196.5 444.5 Q173 430 162 415 L162 371 Q171 356 191.5 347 Q212 338 241 331 L299 318 Q379 300 419 275 Q459 250 471 230 L471 88 Q463 76 447.5 58.5 Q432 41 406 25 Q380 9 343.5 -2.5 Q307 -14 258 -14 Q209 -14 172.5 -2.5 Q136 9 110 25.5 Q84 42 68 59 Q52 76 45 88 L45 172 Z M97 613 L180 766 L343 766 L426 613 L426 598 L337 598 L262 701 L187 598 L97 598 L97 613 Z " />
<glyph glyph-name="scaron" unicode="&#x161;" horiz-adv-x="516" d="M45 172 L162 172 L162 126 Q173 111 196.5 96.5 Q220 82 258 82 Q296 82 319.5 96.5 Q343 111 354 126 L354 177 Q346 192 325.5 202 Q305 212 276 218 L216 231 Q176 240 146.5 251 Q117 262 96.5 274 Q76 286 63.5 297.5 Q51 309 45 320 L45 454 Q52 466 68 483 Q84 500 110 516 Q136 532 172.5 543.5 Q209 555 258 555 Q307 555 344 543.5 Q381 532 406.5 516 Q432 500 447.5 482.5 Q463 465 471 454 L471 371 L354 371 L354 415 Q343 430 319.5 444.5 Q296 459 258 459 Q220 459 196.5 444.5 Q173 430 162 415 L162 371 Q171 356 191.5 347 Q212 338 241 331 L299 318 Q379 300 419 275 Q459 250 471 230 L471 88 Q463 76 447.5 58.5 Q432 41 406 25 Q380 9 343.5 -2.5 Q307 -14 258 -14 Q209 -14 172.5 -2.5 Q136 9 110 25.5 Q84 42 68 59 Q52 76 45 88 L45 172 Z M96 752 L96 767 L186 767 L261 663 L336 767 L425 767 L425 752 L342 599 L179 599 L96 752 Z " />
<glyph glyph-name="scedilla" unicode="&#x15f;" horiz-adv-x="516" d="M178 -166 Q194 -172 210.5 -176.5 Q227 -181 247 -181 Q267 -181 280.5 -176 Q294 -171 300 -162 L300 -127 Q290 -110 250 -110 L193 -110 L221 -12 Q196 -9 172 -2 Q136 9 110 25.5 Q84 42 68 59 Q52 76 45 88 L45 172 L162 172 L162 126 Q173 111 196.5 96.5 Q220 82 258 82 Q296 82 319.5 96.5 Q343 111 354 126 L354 177 Q346 192 325.5 202 Q305 212 276 218 L216 231 Q176 240 146.5 251 Q117 262 96.5 274 Q76 286 63.5 297.5 Q51 309 45 320 L45 454 Q52 466 68 483 Q84 500 110 516 Q136 532 172.5 543.5 Q209 555 258 555 Q307 555 344 543.5 Q381 532 406.5 516 Q432 500 447.5 482.5 Q463 465 471 454 L471 371 L354 371 L354 415 Q343 430 319.5 444.5 Q296 459 258 459 Q220 459 196.5 444.5 Q173 430 162 415 L162 371 Q171 356 191.5 347 Q212 338 241 331 L299 318 Q379 300 419 275 Q459 250 471 230 L471 88 Q463 76 447.5 58.5 Q432 41 406 25 Q380 9 343 -2 Q315 -11 291 -12 L279 -56 L292 -56 Q319 -56 343.5 -70 Q368 -84 376 -105 L376 -190 Q361 -218 329.5 -232 Q298 -246 255 -246 Q222 -246 198.5 -240 Q175 -234 161 -226 L178 -166 Z " />
<glyph glyph-name="scommaaccent" unicode="&#x219;" horiz-adv-x="516" d="M45 172 L162 172 L162 126 Q173 111 196.5 96.5 Q220 82 258 82 Q296 82 319.5 96.5 Q343 111 354 126 L354 177 Q346 192 325.5 202 Q305 212 276 218 L216 231 Q176 240 146.5 251 Q117 262 96.5 274 Q76 286 63.5 297.5 Q51 309 45 320 L45 454 Q52 466 68 483 Q84 500 110 516 Q136 532 172.5 543.5 Q209 555 258 555 Q307 555 344 543.5 Q381 532 406.5 516 Q432 500 447.5 482.5 Q463 465 471 454 L471 371 L354 371 L354 415 Q343 430 319.5 444.5 Q296 459 258 459 Q220 459 196.5 444.5 Q173 430 162 415 L162 371 Q171 356 191.5 347 Q212 338 241 331 L299 318 Q379 300 419 275 Q459 250 471 230 L471 88 Q463 76 447.5 58.5 Q432 41 406 25 Q380 9 343.5 -2.5 Q307 -14 258 -14 Q209 -14 172.5 -2.5 Q136 9 110 25.5 Q84 42 68 59 Q52 76 45 88 L45 172 Z M199 -184 L229 -184 Q240 -184 248.5 -181.5 Q257 -179 261 -171 L261 -145 L259 -145 Q230 -145 214 -139.5 Q198 -134 193 -128 L193 -71 Q198 -65 214 -58 Q230 -51 259 -51 Q288 -51 304 -58 Q320 -65 325 -71 L325 -176 Q320 -194 297.5 -210 Q275 -226 240 -226 L199 -226 L199 -184 Z " />
<glyph glyph-name="germandbls" unicode="&#xdf;" horiz-adv-x="559" d="M54 591 Q64 611 83 633 Q102 655 129.5 673 Q157 691 194.5 703 Q232 715 280 715 Q328 715 365.5 703.5 Q403 692 430 675 Q457 658 474 639 Q491 620 499 606 L499 433 Q488 414 467.5 396.5 Q447 379 424 369 Q464 349 485.5 323 Q507 297 518 272 L518 120 Q490 59 433.5 29.5 Q377 0 273 0 L273 98 Q313 98 342.5 106.5 Q372 115 391 153 L391 253 Q377 285 347 299.5 Q317 314 285 314 L285 411 Q317 411 342.5 423.5 Q368 436 382 458 L382 565 Q369 588 342.5 602.5 Q316 617 280 617 Q242 617 217 601 Q192 585 181 565 L181 0 L54 0 L54 591 Z " />
<glyph glyph-name="tcaron" unicode="&#x165;" horiz-adv-x="423" d="M24 541 L82 541 L82 654 L209 654 L209 541 L340 541 L340 448 L209 448 L209 125 Q212 120 217.5 113 Q223 106 233.5 100 Q244 94 260.5 89.5 Q277 85 301 85 Q314 85 324.5 85.5 Q335 86 340 87 L340 0 Q330 -3 308.5 -7 Q287 -11 255 -11 Q213 -11 182.5 -2 Q152 7 132 20.5 Q112 34 100 51 Q88 68 82 83 L82 448 L24 448 L24 541 Z M279 615 L299 799 L404 799 L404 733 L360 600 L279 600 L279 615 Z " />
<glyph glyph-name="tcommaaccent" unicode="&#x163;" horiz-adv-x="359" d="M129 -167 Q145 -173 162 -177 Q179 -181 199 -181 Q219 -181 232.5 -175.5 Q246 -170 251 -162 L251 -128 Q241 -109 202 -110 L144 -110 L176 0 Q149 9 132 20 Q112 34 100 51 Q88 68 82 83 L82 448 L24 448 L24 541 L82 541 L82 654 L209 654 L209 541 L340 541 L340 448 L209 448 L209 125 Q212 120 217.5 113 Q223 106 233.5 100 Q244 94 260.5 89.5 Q277 85 301 85 Q314 85 324.5 85.5 Q335 86 340 87 L340 0 Q330 -3 308.5 -7 Q287 -11 255 -11 Q254 -11 243 -11 L230 -56 L245 -56 Q272 -56 295.5 -70 Q319 -84 327 -105 L327 -190 Q315 -215 282.5 -230.5 Q250 -246 207 -246 Q174 -246 150 -240 Q126 -234 112 -226 L129 -167 Z " />
<glyph glyph-name="uni021B" unicode="&#x21b;" horiz-adv-x="359" d="M24 541 L82 541 L82 654 L209 654 L209 541 L340 541 L340 448 L209 448 L209 125 Q212 120 217.5 113 Q223 106 233.5 100 Q244 94 260.5 89.5 Q277 85 301 85 Q314 85 324.5 85.5 Q335 86 340 87 L340 0 Q330 -3 308.5 -7 Q287 -11 255 -11 Q213 -11 182.5 -2 Q152 7 132 20.5 Q112 34 100 51 Q88 68 82 83 L82 448 L24 448 L24 541 Z M151 -182 L181 -182 Q192 -182 200.5 -179.5 Q209 -177 213 -169 L213 -143 L211 -143 Q182 -143 166 -137.5 Q150 -132 145 -126 L145 -69 Q150 -63 166 -56 Q182 -49 211 -49 Q240 -49 256 -56 Q272 -63 277 -69 L277 -174 Q272 -192 249.5 -208 Q227 -224 192 -224 L151 -224 L151 -182 Z " />
<glyph glyph-name="tbar" unicode="&#x167;" horiz-adv-x="359" d="M24 541 L82 541 L82 654 L209 654 L209 541 L340 541 L340 448 L209 448 L209 329 L340 329 L340 236 L209 236 L209 125 Q212 120 217.5 113 Q223 106 233.5 100 Q244 94 260.5 89.5 Q277 85 301 85 Q314 85 324.5 85.5 Q335 86 340 87 L340 0 Q330 -3 308.5 -7 Q287 -11 255 -11 Q213 -11 182.5 -2 Q152 7 132 20.5 Q112 34 100 51 Q88 68 82 83 L82 236 L24 236 L24 329 L82 329 L82 448 L24 448 L24 541 Z " />
<glyph glyph-name="ugrave" unicode="&#xf9;" horiz-adv-x="555" d="M179 541 L179 134 Q183 127 190.5 118.5 Q198 110 209 103 Q220 96 236 91 Q252 86 273 86 Q310 86 335 97.5 Q360 109 374 126 L374 541 L501 541 L501 0 L382 0 L382 42 Q356 19 320 4 Q284 -11 235 -11 Q192 -11 160.5 1 Q129 13 107.5 31 Q86 49 72.5 69.5 Q59 90 52 107 L52 541 L179 541 Z M153 711 L153 767 L276 767 L333 614 L333 598 L234 598 L153 711 Z " />
<glyph glyph-name="uacute" unicode="&#xfa;" horiz-adv-x="555" d="M179 541 L179 134 Q183 127 190.5 118.5 Q198 110 209 103 Q220 96 236 91 Q252 86 273 86 Q310 86 335 97.5 Q360 109 374 126 L374 541 L501 541 L501 0 L382 0 L382 42 Q356 19 320 4 Q284 -11 235 -11 Q192 -11 160.5 1 Q129 13 107.5 31 Q86 49 72.5 69.5 Q59 90 52 107 L52 541 L179 541 Z M222 614 L279 767 L402 767 L402 711 L322 598 L222 598 L222 614 Z " />
<glyph glyph-name="ucircumflex" unicode="&#xfb;" horiz-adv-x="555" d="M179 541 L179 134 Q183 127 190.5 118.5 Q198 110 209 103 Q220 96 236 91 Q252 86 273 86 Q310 86 335 97.5 Q360 109 374 126 L374 541 L501 541 L501 0 L382 0 L382 42 Q356 19 320 4 Q284 -11 235 -11 Q192 -11 160.5 1 Q129 13 107.5 31 Q86 49 72.5 69.5 Q59 90 52 107 L52 541 L179 541 Z M113 611 L196 764 L359 764 L442 611 L442 596 L353 596 L278 699 L203 596 L113 596 L113 611 Z " />
<glyph glyph-name="utilde" unicode="&#x169;" horiz-adv-x="555" d="M179 541 L179 134 Q183 127 190.5 118.5 Q198 110 209 103 Q220 96 236 91 Q252 86 273 86 Q310 86 335 97.5 Q360 109 374 126 L374 541 L501 541 L501 0 L382 0 L382 42 Q356 19 320 4 Q284 -11 235 -11 Q192 -11 160.5 1 Q129 13 107.5 31 Q86 49 72.5 69.5 Q59 90 52 107 L52 541 L179 541 Z M467 682 Q459 654 432 631.5 Q405 609 358 609 Q328 609 308 617 Q288 625 271.5 635 Q255 645 241 653 Q227 661 209 661 Q189 661 179 652 Q169 643 165 635 L165 615 L89 615 L89 668 Q98 699 126 720 Q154 741 198 741 Q227 741 247 733 Q267 725 283.5 715.5 Q300 706 314.5 698 Q329 690 347 690 Q364 690 375 697.5 Q386 705 391 716 L391 736 L467 736 L467 682 Z " />
<glyph glyph-name="udieresis" unicode="&#xfc;" horiz-adv-x="555" d="M179 541 L179 134 Q183 127 190.5 118.5 Q198 110 209 103 Q220 96 236 91 Q252 86 273 86 Q310 86 335 97.5 Q360 109 374 126 L374 541 L501 541 L501 0 L382 0 L382 42 Q356 19 320 4 Q284 -11 235 -11 Q192 -11 160.5 1 Q129 13 107.5 31 Q86 49 72.5 69.5 Q59 90 52 107 L52 541 L179 541 Z M108 716 Q114 722 128.5 731.5 Q143 741 172 741 Q201 741 216 731.5 Q231 722 236 716 L236 640 Q231 633 216 624 Q201 615 172 615 Q143 615 128.5 624.5 Q114 634 108 640 L108 716 Z M322 716 Q327 722 342 731.5 Q357 741 386 741 Q415 741 430 731.5 Q445 722 450 716 L450 640 Q445 633 430 624 Q415 615 386 615 Q357 615 342 624.5 Q327 634 322 640 L322 716 Z " />
<glyph glyph-name="umacron" unicode="&#x16b;" horiz-adv-x="555" d="M179 541 L179 134 Q183 127 190.5 118.5 Q198 110 209 103 Q220 96 236 91 Q252 86 273 86 Q310 86 335 97.5 Q360 109 374 126 L374 541 L501 541 L501 0 L382 0 L382 42 Q356 19 320 4 Q284 -11 235 -11 Q192 -11 160.5 1 Q129 13 107.5 31 Q86 49 72.5 69.5 Q59 90 52 107 L52 541 L179 541 Z M99 723 L453 723 L453 634 L99 634 L99 723 Z " />
<glyph glyph-name="ubreve" unicode="&#x16d;" horiz-adv-x="555" d="M179 541 L179 134 Q183 127 190.5 118.5 Q198 110 209 103 Q220 96 236 91 Q252 86 273 86 Q310 86 335 97.5 Q360 109 374 126 L374 541 L501 541 L501 0 L382 0 L382 42 Q356 19 320 4 Q284 -11 235 -11 Q192 -11 160.5 1 Q129 13 107.5 31 Q86 49 72.5 69.5 Q59 90 52 107 L52 541 L179 541 Z M113 730 L207 730 L207 703 Q211 694 227 680.5 Q243 667 276 667 Q309 667 325 680.5 Q341 694 345 703 L345 730 L438 730 L438 684 Q430 667 417 651 Q404 635 384.5 622 Q365 609 338.5 601.5 Q312 594 276 594 Q240 594 213.5 601.5 Q187 609 167.5 622 Q148 635 134.5 651 Q121 667 113 684 L113 730 Z " />
<glyph glyph-name="uring" unicode="&#x16f;" horiz-adv-x="555" d="M179 541 L179 134 Q183 127 190.5 118.5 Q198 110 209 103 Q220 96 236 91 Q252 86 273 86 Q310 86 335 97.5 Q360 109 374 126 L374 541 L501 541 L501 0 L382 0 L382 42 Q356 19 320 4 Q284 -11 235 -11 Q192 -11 160.5 1 Q129 13 107.5 31 Q86 49 72.5 69.5 Q59 90 52 107 L52 541 L179 541 Z M225 661 Q230 654 243 646.5 Q256 639 278 639 Q300 639 312.5 646.5 Q325 654 330 661 L330 722 Q325 729 312.5 736.5 Q300 744 278 744 Q256 744 243 736.5 Q230 729 225 722 L225 661 Z M163 736 Q176 762 206 780 Q236 798 278 798 Q319 798 349 780 Q379 762 393 736 L393 647 Q379 621 349 603.5 Q319 586 278 586 Q236 586 206 603.5 Q176 621 163 647 L163 736 Z " />
<glyph glyph-name="uhungarumlaut" unicode="&#x171;" horiz-adv-x="555" d="M179 541 L179 134 Q183 127 190.5 118.5 Q198 110 209 103 Q220 96 236 91 Q252 86 273 86 Q310 86 335 97.5 Q360 109 374 126 L374 541 L501 541 L501 0 L382 0 L382 42 Q356 19 320 4 Q284 -11 235 -11 Q192 -11 160.5 1 Q129 13 107.5 31 Q86 49 72.5 69.5 Q59 90 52 107 L52 541 L179 541 Z M138 606 L178 759 L280 759 L280 712 L220 591 L138 591 L138 606 Z M328 606 L367 759 L468 759 L468 712 L409 591 L328 591 L328 606 Z " />
<glyph glyph-name="uogonek" unicode="&#x173;" horiz-adv-x="555" d="M306 -112 Q310 -102 321.5 -86 Q333 -70 350 -51 Q367 -32 389 -13 Q396 -6 404 0 L382 0 L382 42 Q356 19 320 4 Q284 -11 235 -11 Q192 -11 160.5 1 Q129 13 107.5 31 Q86 49 72.5 69.5 Q59 90 52 107 L52 541 L179 541 L179 134 Q183 127 190.5 118.5 Q198 110 209 103 Q220 96 236 91 Q252 86 273 86 Q310 86 335 97.5 Q360 109 374 126 L374 541 L501 541 L501 0 Q448 -45 425.5 -75.5 Q403 -106 398 -117 L398 -146 Q402 -154 414.5 -159.5 Q427 -165 444 -165 Q460 -165 473 -162.5 Q486 -160 501 -153 L501 -220 Q487 -228 470.5 -232 Q454 -236 424 -236 Q384 -236 351 -223.5 Q318 -211 306 -185 L306 -112 Z " />
<glyph glyph-name="wgrave" unicode="&#x1e81;" horiz-adv-x="790" d="M34 470 L34 541 L153 541 L233 140 L249 140 L343 541 L461 541 L554 140 L570 140 L650 541 L756 541 L756 470 L642 0 L487 0 L405 335 L393 335 L308 0 L149 0 L34 470 Z M270 711 L270 767 L393 767 L450 614 L450 598 L351 598 L270 711 Z " />
<glyph glyph-name="wacute" unicode="&#x1e83;" horiz-adv-x="790" d="M34 470 L34 541 L153 541 L233 140 L249 140 L343 541 L461 541 L554 140 L570 140 L650 541 L756 541 L756 470 L642 0 L487 0 L405 335 L393 335 L308 0 L149 0 L34 470 Z M351 614 L408 767 L531 767 L531 711 L451 598 L351 598 L351 614 Z " />
<glyph glyph-name="wcircumflex" unicode="&#x175;" horiz-adv-x="790" d="M34 470 L34 541 L153 541 L233 140 L249 140 L343 541 L461 541 L554 140 L570 140 L650 541 L756 541 L756 470 L642 0 L487 0 L405 335 L393 335 L308 0 L149 0 L34 470 Z M233 611 L316 764 L479 764 L562 611 L562 596 L473 596 L398 699 L323 596 L233 596 L233 611 Z " />
<glyph glyph-name="wdieresis" unicode="&#x1e85;" horiz-adv-x="790" d="M34 470 L34 541 L153 541 L233 140 L249 140 L343 541 L461 541 L554 140 L570 140 L650 541 L756 541 L756 470 L642 0 L487 0 L405 335 L393 335 L308 0 L149 0 L34 470 Z M228 716 Q234 722 248.5 731.5 Q263 741 292 741 Q321 741 336 731.5 Q351 722 356 716 L356 640 Q351 633 336 624 Q321 615 292 615 Q263 615 248.5 624.5 Q234 634 228 640 L228 716 Z M442 716 Q447 722 462 731.5 Q477 741 506 741 Q535 741 550 731.5 Q565 722 570 716 L570 640 Q565 633 550 624 Q535 615 506 615 Q477 615 462 624.5 Q447 634 442 640 L442 716 Z " />
<glyph glyph-name="ygrave" unicode="&#x1ef3;" horiz-adv-x="519" d="M205 7 L33 469 L33 541 L152 541 L257 177 L274 177 L376 541 L486 541 L486 470 L302 -93 Q277 -125 229.5 -147.5 Q182 -170 116 -170 Q92 -170 71.5 -167.5 Q51 -165 40 -162 L40 -72 Q50 -74 66 -74 Q82 -74 90 -74 Q125 -74 152.5 -62 Q180 -50 192 -36 L205 7 Z M137 711 L137 767 L260 767 L317 614 L317 598 L218 598 L137 711 Z " />
<glyph glyph-name="yacute" unicode="&#xfd;" horiz-adv-x="519" d="M205 7 L33 469 L33 541 L152 541 L257 177 L274 177 L376 541 L486 541 L486 470 L302 -93 Q277 -125 229.5 -147.5 Q182 -170 116 -170 Q92 -170 71.5 -167.5 Q51 -165 40 -162 L40 -72 Q50 -74 66 -74 Q82 -74 90 -74 Q125 -74 152.5 -62 Q180 -50 192 -36 L205 7 Z M205 614 L262 767 L385 767 L385 711 L305 598 L205 598 L205 614 Z " />
<glyph glyph-name="ycircumflex" unicode="&#x177;" horiz-adv-x="519" d="M205 7 L33 469 L33 541 L152 541 L257 177 L274 177 L376 541 L486 541 L486 470 L302 -93 Q277 -125 229.5 -147.5 Q182 -170 116 -170 Q92 -170 71.5 -167.5 Q51 -165 40 -162 L40 -72 Q50 -74 66 -74 Q82 -74 90 -74 Q125 -74 152.5 -62 Q180 -50 192 -36 L205 7 Z M99 611 L182 764 L345 764 L428 611 L428 596 L339 596 L264 699 L189 596 L99 596 L99 611 Z " />
<glyph glyph-name="ydieresis" unicode="&#xff;" horiz-adv-x="519" d="M205 7 L33 469 L33 541 L152 541 L257 177 L274 177 L376 541 L486 541 L486 470 L302 -93 Q277 -125 229.5 -147.5 Q182 -170 116 -170 Q92 -170 71.5 -167.5 Q51 -165 40 -162 L40 -72 Q50 -74 66 -74 Q82 -74 90 -74 Q125 -74 152.5 -62 Q180 -50 192 -36 L205 7 Z M91 716 Q97 722 111.5 731.5 Q126 741 155 741 Q184 741 199 731.5 Q214 722 219 716 L219 640 Q214 633 199 624 Q184 615 155 615 Q126 615 111.5 624.5 Q97 634 91 640 L91 716 Z M305 716 Q310 722 325 731.5 Q340 741 369 741 Q398 741 413 731.5 Q428 722 433 716 L433 640 Q428 633 413 624 Q398 615 369 615 Q340 615 325 624.5 Q310 634 305 640 L305 716 Z " />
<glyph glyph-name="zacute" unicode="&#x17a;" horiz-adv-x="471" d="M29 86 L285 437 L285 448 L29 448 L29 541 L442 541 L442 460 L181 104 L181 93 L442 93 L442 0 L29 0 L29 86 Z M185 614 L242 767 L365 767 L365 711 L285 598 L185 598 L185 614 Z " />
<glyph glyph-name="zcaron" unicode="&#x17e;" horiz-adv-x="471" d="M29 86 L285 437 L285 448 L29 448 L29 541 L442 541 L442 460 L181 104 L181 93 L442 93 L442 0 L29 0 L29 86 Z M80 749 L80 764 L170 764 L245 660 L320 764 L409 764 L409 749 L326 596 L163 596 L80 749 Z " />
<glyph glyph-name="zdotaccent" unicode="&#x17c;" horiz-adv-x="471" d="M29 86 L285 437 L285 448 L29 448 L29 541 L442 541 L442 460 L181 104 L181 93 L442 93 L442 0 L29 0 L29 86 Z M177 707 Q183 719 200 730.5 Q217 742 246 742 Q275 742 292.5 730.5 Q310 719 315 707 L315 649 Q310 636 292.5 625 Q275 614 246 614 Q217 614 200 625 Q183 636 177 649 L177 707 Z " />
<glyph glyph-name="eng" unicode="&#x14b;" horiz-adv-x="561" d="M278 -73 Q320 -73 346 -52.5 Q372 -32 382 -6 L382 407 Q374 421 350.5 438 Q327 455 285 455 Q248 455 221.5 443 Q195 431 181 414 L181 0 L54 0 L54 541 L173 541 L173 497 Q199 520 236 536 Q273 552 323 552 Q366 552 397.5 540 Q429 528 451.5 510 Q474 492 488 471.5 Q502 451 509 434 L509 -34 Q500 -55 482 -79 Q464 -103 435.5 -123 Q407 -143 368 -156 Q329 -169 278 -169 L278 -73 Z " />
<glyph glyph-name="eth" unicode="&#xf0;" horiz-adv-x="556" d="M166 574 L272 608 Q235 638 195 660 L277 725 Q309 712 340 692 Q371 672 398 649 L510 685 L510 623 L446 602 Q470 576 486.5 552.5 Q503 529 510 512 L510 121 Q501 99 482.5 75.5 Q464 52 436 32 Q408 12 368.5 -1 Q329 -14 278 -14 Q227 -14 187.5 -1 Q148 12 120 31.5 Q92 51 73.5 75 Q55 99 46 120 L46 348 Q53 370 68 393.5 Q83 417 106.5 436.5 Q130 456 162 468.5 Q194 481 236 481 Q286 481 321 468.5 Q356 456 383 433 L383 486 Q375 503 359.5 522.5 Q344 542 324 562 L166 511 L166 574 Z M173 145 Q184 121 210 102 Q236 83 278 83 Q320 83 346.5 102 Q373 121 383 145 L383 343 Q373 357 346.5 371 Q320 385 278 385 Q236 385 210 366 Q184 347 173 323 L173 145 Z " />
<glyph glyph-name="thorn" unicode="&#xfe;" horiz-adv-x="555" d="M54 700 L181 700 L181 504 Q207 525 242 538.5 Q277 552 323 552 Q366 552 397.5 540 Q429 528 451.5 510 Q474 492 488 471.5 Q502 451 509 434 L509 107 Q502 90 488 69.5 Q474 49 451.5 31 Q429 13 397.5 1 Q366 -11 323 -11 Q277 -11 242 2.5 Q207 16 181 37 L181 -159 L54 -159 L54 700 Z M285 455 Q248 455 221.5 443 Q195 431 181 414 L181 127 Q195 110 221.5 98 Q248 86 285 86 Q306 86 322.5 91 Q339 96 351 103.5 Q363 111 370.5 119 Q378 127 382 134 L382 407 Q374 421 350.5 438 Q327 455 285 455 Z " />
<glyph glyph-name="uni0259" unicode="&#x259;" horiz-adv-x="544" d="M499 120 Q490 99 471.5 75 Q453 51 425 31.5 Q397 12 357.5 -1 Q318 -14 267 -14 Q216 -14 177.5 -1 Q139 12 112 30.5 Q85 49 68 69.5 Q51 90 44 105 L44 308 L372 308 L372 397 Q361 420 335 439 Q309 458 267 458 Q225 458 198.5 439 Q172 420 162 397 L162 363 L44 363 L44 436 Q51 451 68 471.5 Q85 492 112 510.5 Q139 529 177.5 542 Q216 555 267 555 Q318 555 357.5 542 Q397 529 425 509.5 Q453 490 471.5 466 Q490 442 499 421 L499 120 Z M372 218 L162 218 L162 145 Q172 121 198.5 102 Q225 83 267 83 Q309 83 335 102 Q361 121 372 145 L372 218 Z " />
<glyph glyph-name="longs" unicode="&#x17f;" horiz-adv-x="318" d="M54 621 Q60 636 72 652.5 Q84 669 104 683 Q124 697 154.5 706 Q185 715 227 715 Q258 715 281 711 Q304 707 312 704 L312 616 Q307 617 296.5 617.5 Q286 618 273 618 Q249 618 232.5 613.5 Q216 609 205.5 603 Q195 597 189.5 590 Q184 583 181 578 L181 0 L54 0 L54 621 Z " />
<glyph glyph-name="ff" unicode="&#xfb00;" horiz-adv-x="668" d="M24 541 L82 541 L82 632 Q88 647 100 664 Q112 681 132 694.5 Q152 708 182.5 717 Q213 726 255 726 Q286 726 309 722 Q332 718 340 715 L340 627 Q335 628 324.5 629 Q314 630 301 630 Q277 630 260.5 625.5 Q244 621 233.5 615 Q223 609 217.5 602 Q212 595 209 590 L209 541 L392 541 L392 632 Q398 647 410 664 Q422 681 442.5 694.5 Q463 708 493 717 Q523 726 565 726 Q596 726 619 722 Q642 718 651 715 L651 627 Q646 628 635 629 Q624 630 611 630 Q587 630 570.5 625.5 Q554 621 543.5 615 Q533 609 527.5 602 Q522 595 519 590 L519 541 L651 541 L651 448 L519 448 L519 0 L392 0 L392 448 L209 448 L209 0 L82 0 L82 448 L24 448 L24 541 Z " />
<glyph glyph-name="fi" unicode="&#xfb01;" horiz-adv-x="596" d="M24 541 L82 541 L82 632 Q88 647 100 664 Q112 681 132 694.5 Q152 708 182.5 717 Q213 726 255 726 Q286 726 309 722 Q332 718 340 715 L340 627 Q335 628 324.5 629 Q314 630 301 630 Q276 630 259.5 625.5 Q243 621 232.5 615 Q222 609 217 602 Q212 595 209 590 L209 541 L340 541 L340 448 L209 448 L209 0 L82 0 L82 448 L24 448 L24 541 Z M408 707 Q414 719 431 730.5 Q448 742 477 742 Q506 742 523.5 730.5 Q541 719 546 707 L546 649 Q541 636 523.5 625 Q506 614 477 614 Q448 614 431 625 Q414 636 408 649 L408 707 Z M413 541 L540 541 L540 0 L413 0 L413 541 Z " />
<glyph glyph-name="fl" unicode="&#xfb02;" horiz-adv-x="594" d="M24 541 L82 541 L82 632 Q88 647 100 664 Q112 681 132 694.5 Q152 708 182.5 717 Q213 726 255 726 Q286 726 309 722 Q332 718 340 715 L340 627 Q335 628 324.5 629 Q314 630 301 630 Q276 630 259.5 625.5 Q243 621 232.5 615 Q222 609 217 602 Q212 595 209 590 L209 541 L340 541 L340 448 L209 448 L209 0 L82 0 L82 448 L24 448 L24 541 Z M412 700 L539 700 L539 0 L412 0 L412 700 Z " />
<glyph glyph-name="ampersand" unicode="&#x26;" horiz-adv-x="687" d="M106 604 Q114 619 131.5 638 Q149 657 176.5 674 Q204 691 241.5 703 Q279 715 328 715 Q377 715 414.5 703 Q452 691 479.5 674 Q507 657 524.5 638 Q542 619 551 604 L551 509 L424 509 L424 578 Q413 592 389 604.5 Q365 617 328 617 Q292 617 267.5 604 Q243 591 232 578 L232 481 L471 257 L471 345 L582 345 L582 153 L663 77 L663 0 L589 0 L522 63 Q485 29 435.5 7.5 Q386 -14 312 -14 Q255 -14 211.5 -1.5 Q168 11 136 30.5 Q104 50 83.5 73.5 Q63 97 53 120 L53 274 Q70 307 101.5 336 Q133 365 182 382 L106 454 L106 604 Z M316 84 Q358 84 389.5 98 Q421 112 444 136 L259 310 Q231 303 210 288 Q189 273 180 252 L180 149 Q194 120 231 102 Q268 84 316 84 Z " />
<glyph glyph-name="grave" unicode="&#x60;" horiz-adv-x="450" d="M135 711 L135 767 L258 767 L315 614 L315 598 L216 598 L135 711 Z " />
<glyph glyph-name="acute" unicode="&#xb4;" horiz-adv-x="450" d="M135 614 L192 767 L315 767 L315 711 L235 598 L135 598 L135 614 Z " />
<glyph glyph-name="circumflex" unicode="&#x2c6;" horiz-adv-x="450" d="M60 611 L143 764 L306 764 L389 611 L389 596 L300 596 L225 699 L150 596 L60 596 L60 611 Z " />
<glyph glyph-name="caron" unicode="&#x2c7;" horiz-adv-x="450" d="M60 749 L60 764 L150 764 L225 660 L300 764 L389 764 L389 749 L306 596 L143 596 L60 749 Z " />
<glyph glyph-name="commaaccent" unicode="&#xf6c3;" horiz-adv-x="450" d="M165 -182 L195 -182 Q206 -182 214.5 -179.5 Q223 -177 227 -169 L227 -143 L225 -143 Q196 -143 180 -137.5 Q164 -132 159 -126 L159 -69 Q164 -63 180 -56 Q196 -49 225 -49 Q254 -49 270 -56 Q286 -63 291 -69 L291 -174 Q286 -192 263.5 -208 Q241 -224 206 -224 L165 -224 L165 -182 Z " />
<glyph glyph-name="tilde" unicode="&#x2dc;" horiz-adv-x="450" d="M414 682 Q406 654 379 631.5 Q352 609 305 609 Q275 609 255 617 Q235 625 218.5 635 Q202 645 188 653 Q174 661 156 661 Q136 661 126 652 Q116 643 112 635 L112 615 L36 615 L36 668 Q45 699 73 720 Q101 741 145 741 Q174 741 194 733 Q214 725 230.5 715.5 Q247 706 261.5 698 Q276 690 294 690 Q311 690 322 697.5 Q333 705 338 716 L338 736 L414 736 L414 682 Z " />
<glyph glyph-name="dieresis" unicode="&#xa8;" horiz-adv-x="450" d="M55 716 Q61 722 75.5 731.5 Q90 741 119 741 Q148 741 163 731.5 Q178 722 183 716 L183 640 Q178 633 163 624 Q148 615 119 615 Q90 615 75.5 624.5 Q61 634 55 640 L55 716 Z M269 716 Q274 722 289 731.5 Q304 741 333 741 Q362 741 377 731.5 Q392 722 397 716 L397 640 Q392 633 377 624 Q362 615 333 615 Q304 615 289 624.5 Q274 634 269 640 L269 716 Z " />
<glyph glyph-name="macron" unicode="&#xaf;" horiz-adv-x="450" d="M48 723 L402 723 L402 634 L48 634 L48 723 Z " />
<glyph glyph-name="breve" unicode="&#x2d8;" horiz-adv-x="450" d="M62 730 L156 730 L156 703 Q160 694 176 680.5 Q192 667 225 667 Q258 667 274 680.5 Q290 694 294 703 L294 730 L387 730 L387 684 Q379 667 366 651 Q353 635 333.5 622 Q314 609 287.5 601.5 Q261 594 225 594 Q189 594 162.5 601.5 Q136 609 116.5 622 Q97 635 83.5 651 Q70 667 62 684 L62 730 Z " />
<glyph glyph-name="ring" unicode="&#x2da;" horiz-adv-x="450" d="M173 661 Q178 654 191 646.5 Q204 639 226 639 Q248 639 260.5 646.5 Q273 654 278 661 L278 722 Q273 729 260.5 736.5 Q248 744 226 744 Q204 744 191 736.5 Q178 729 173 722 L173 661 Z M111 736 Q124 762 154 780 Q184 798 226 798 Q267 798 297 780 Q327 762 341 736 L341 647 Q327 621 297 603.5 Q267 586 226 586 Q184 586 154 603.5 Q124 621 111 647 L111 736 Z " />
<glyph glyph-name="hungarumlaut" unicode="&#x2dd;" horiz-adv-x="450" d="M62 606 L102 759 L204 759 L204 712 L144 591 L62 591 L62 606 Z M252 606 L291 759 L392 759 L392 712 L333 591 L252 591 L252 606 Z " />
<glyph glyph-name="dotaccent" unicode="&#x2d9;" horiz-adv-x="450" d="M156 707 Q162 719 179 730.5 Q196 742 225 742 Q254 742 271.5 730.5 Q289 719 294 707 L294 649 Q289 636 271.5 625 Q254 614 225 614 Q196 614 179 625 Q162 636 156 649 L156 707 Z " />
<glyph glyph-name="cedilla" unicode="&#xb8;" horiz-adv-x="450" d="M133 -167 Q150 -173 168.5 -177 Q187 -181 207 -181 Q227 -181 238.5 -175 Q250 -169 255 -162 L255 -127 Q245 -110 210 -110 L148 -110 L181 3 L251 3 L234 -56 L242 -56 Q280 -56 301.5 -72 Q323 -88 331 -105 L331 -190 Q319 -215 288.5 -230.5 Q258 -246 215 -246 Q182 -246 156.5 -240 Q131 -234 116 -226 L133 -167 Z " />
<glyph glyph-name="ogonek" unicode="&#x2db;" horiz-adv-x="450" d="M132 -112 Q136 -102 147.5 -86 Q159 -70 176 -51 Q193 -32 215 -13 Q237 6 262 21 L327 0 Q274 -45 251.5 -75.5 Q229 -106 224 -117 L224 -146 Q228 -153 240.5 -158 Q253 -163 270 -163 Q286 -163 299 -161 Q312 -159 327 -153 L327 -220 Q313 -228 296.5 -232 Q280 -236 250 -236 Q210 -236 177 -223.5 Q144 -211 132 -185 L132 -112 Z " />
<glyph glyph-name="comma" unicode="&#x2c;" horiz-adv-x="210" d="M48 -66 L74 -66 Q82 -66 91 -60.5 Q100 -55 105 -47 L105 -10 Q76 -10 58.5 1.5 Q41 13 36 25 L36 97 Q41 109 58.5 120.5 Q76 132 105 132 Q134 132 151.5 120.5 Q169 109 174 97 L174 -58 Q172 -66 164.5 -76.5 Q157 -87 145.5 -97 Q134 -107 117.5 -114 Q101 -121 81 -121 L48 -121 L48 -66 Z " />
<glyph glyph-name="semicolon" unicode="&#x3b;" horiz-adv-x="224" d="M55 -66 L81 -66 Q89 -66 98 -60.5 Q107 -55 112 -47 L112 -10 Q83 -10 65.5 1.5 Q48 13 43 25 L43 97 Q48 109 65.5 120.5 Q83 132 112 132 Q141 132 158.5 120.5 Q176 109 181 97 L181 -58 Q179 -66 171.5 -76.5 Q164 -87 152.5 -97 Q141 -107 124.5 -114 Q108 -121 88 -121 L55 -121 L55 -66 Z M43 429 Q48 441 65.5 452.5 Q83 464 112 464 Q141 464 158.5 452.5 Q176 441 181 429 L181 357 Q176 345 158.5 333.5 Q141 322 112 322 Q83 322 65.5 333.5 Q48 345 43 357 L43 429 Z " />
<glyph glyph-name="colon" unicode="&#x3a;" horiz-adv-x="224" d="M43 97 Q48 109 65.5 120.5 Q83 132 112 132 Q141 132 158.5 120.5 Q176 109 181 97 L181 25 Q176 13 158.5 1.5 Q141 -10 112 -10 Q83 -10 65.5 1.5 Q48 13 43 25 L43 97 Z M43 429 Q48 441 65.5 452.5 Q83 464 112 464 Q141 464 158.5 452.5 Q176 441 181 429 L181 357 Q176 345 158.5 333.5 Q141 322 112 322 Q83 322 65.5 333.5 Q48 345 43 357 L43 429 Z " />
<glyph glyph-name="period" unicode="&#x2e;" horiz-adv-x="210" d="M36 97 Q41 109 58.5 120.5 Q76 132 105 132 Q134 132 151.5 120.5 Q169 109 174 97 L174 25 Q169 13 151.5 1.5 Q134 -10 105 -10 Q76 -10 58.5 1.5 Q41 13 36 25 L36 97 Z " />
<glyph glyph-name="ellipsis" unicode="&#x2026;" horiz-adv-x="618" d="M36 97 Q41 109 58.5 120.5 Q76 132 105 132 Q134 132 151.5 120.5 Q169 109 174 97 L174 25 Q169 13 151.5 1.5 Q134 -10 105 -10 Q76 -10 58.5 1.5 Q41 13 36 25 L36 97 Z M240 97 Q245 109 262.5 120.5 Q280 132 309 132 Q338 132 355.5 120.5 Q373 109 378 97 L378 25 Q373 13 355.5 1.5 Q338 -10 309 -10 Q280 -10 262.5 1.5 Q245 13 240 25 L240 97 Z M444 97 Q449 109 466.5 120.5 Q484 132 513 132 Q542 132 559.5 120.5 Q577 109 582 97 L582 25 Q577 13 559.5 1.5 Q542 -10 513 -10 Q484 -10 466.5 1.5 Q449 13 444 25 L444 97 Z " />
<glyph glyph-name="hyphen" unicode="&#x2d;" horiz-adv-x="365" d="M37 387 L328 387 L328 285 L37 285 L37 387 Z " />
<glyph glyph-name="exclam" unicode="&#x21;" horiz-adv-x="281" d="M69 568 L69 700 L211 700 L211 568 L195 177 L85 177 L69 568 Z M71 92 Q77 103 94 115 Q111 127 140 127 Q170 127 187 115 Q204 103 209 92 L209 25 Q204 13 187 1.5 Q170 -10 140 -10 Q111 -10 94 1.5 Q77 13 71 25 L71 92 Z " />
<glyph glyph-name="exclamdown" unicode="&#xa1;" horiz-adv-x="281" d="M212 -23 L212 -155 L70 -155 L70 -23 L86 368 L196 368 L212 -23 Z M210 453 Q204 442 187 430 Q170 418 141 418 Q111 418 94 430 Q77 442 72 453 L72 520 Q77 532 94 543.5 Q111 555 141 555 Q170 555 187 543.5 Q204 532 210 520 L210 453 Z " />
<glyph glyph-name="question" unicode="&#x3f;" horiz-adv-x="536" d="M157 299 L304 401 Q328 418 347.5 433 Q367 448 375 460 L375 556 Q361 577 332.5 593.5 Q304 610 263 610 Q221 610 193 593.5 Q165 577 151 556 L151 484 L29 484 L29 608 Q41 623 60 642 Q79 661 107.5 677 Q136 693 174.5 704 Q213 715 263 715 Q317 715 357.5 702.5 Q398 690 427.5 671.5 Q457 653 476.5 632 Q496 611 507 593 L507 416 Q502 408 493 398.5 Q484 389 472.5 380 Q461 371 449 362 Q437 353 427 346 L286 248 L286 187 L157 187 L157 299 Z M153 97 Q158 109 175 120.5 Q192 132 221 132 Q251 132 268.5 120.5 Q286 109 291 97 L291 25 Q286 13 268.5 1.5 Q251 -10 221 -10 Q192 -10 175 1.5 Q158 13 153 25 L153 97 Z " />
<glyph glyph-name="questiondown" unicode="&#xbf;" horiz-adv-x="536" d="M379 246 L232 144 Q208 127 188.5 112 Q169 97 161 85 L161 -11 Q175 -32 203.5 -48.5 Q232 -65 273 -65 Q315 -65 343 -48.5 Q371 -32 385 -11 L385 61 L507 61 L507 -63 Q495 -78 476 -97 Q457 -116 428.5 -132 Q400 -148 361.5 -159 Q323 -170 273 -170 Q219 -170 178.5 -157.5 Q138 -145 108.5 -126.5 Q79 -108 59.5 -87 Q40 -66 29 -48 L29 129 Q33 137 42.5 146.5 Q52 156 63.5 165 Q75 174 87 182.5 Q99 191 109 199 L250 297 L250 358 L379 358 L379 246 Z M383 448 Q378 436 361 424.5 Q344 413 315 413 Q285 413 267.5 424.5 Q250 436 245 448 L245 520 Q250 532 267.5 543.5 Q285 555 315 555 Q344 555 361 543.5 Q378 532 383 520 L383 448 Z " />
<glyph glyph-name="quoteleft" unicode="&#x2018;" horiz-adv-x="211" d="M163.003 658.996 L137.005 658.996 Q129.005 658.996 120.006 653.496 Q111.006 647.997 106.006 639.997 L106.006 602.999 Q135.005 602.999 152.504 591.5 Q170.003 580.001 175.002 568.002 L175.002 496.006 Q170.003 484.007 152.504 472.507 Q135.005 461.008 106.006 461.008 Q77.0082 461.008 59.5092 472.507 Q42.0103 484.007 37.0106 496.006 L37.0106 650.996 Q39.0105 658.996 46.51 669.495 Q54.0096 679.995 65.5089 689.994 Q77.0082 699.993 93.5072 706.993 Q110.006 713.993 130.005 713.993 L163.003 713.993 L163.003 658.996 Z " />
<glyph glyph-name="quoteright" unicode="&#x2019;" horiz-adv-x="211" d="M49 516 L75 516 Q83 516 92 521.5 Q101 527 106 535 L106 572 Q77 572 59.5 583.5 Q42 595 37 607 L37 679 Q42 691 59.5 702.5 Q77 714 106 714 Q135 714 152.5 702.5 Q170 691 175 679 L175 524 Q173 516 165.5 505.5 Q158 495 146.5 485 Q135 475 118.5 468 Q102 461 82 461 L49 461 L49 516 Z " />
<glyph glyph-name="quotedblleft" unicode="&#x201c;" horiz-adv-x="405" d="M163.003 658.996 L137.005 658.996 Q129.005 658.996 120.006 653.496 Q111.006 647.997 106.006 639.997 L106.006 602.999 Q135.005 602.999 152.504 591.5 Q170.003 580.001 175.002 568.002 L175.002 496.006 Q170.003 484.007 152.504 472.507 Q135.005 461.008 106.006 461.008 Q77.0082 461.008 59.5092 472.507 Q42.0103 484.007 37.0106 496.006 L37.0106 650.996 Q39.0105 658.996 46.51 669.495 Q54.0096 679.995 65.5089 689.994 Q77.0082 699.993 93.5072 706.993 Q110.006 713.993 130.005 713.993 L163.003 713.993 L163.003 658.996 Z M357.003 658.996 L331.005 658.996 Q323.005 658.996 314.006 653.496 Q305.006 647.997 300.006 639.997 L300.006 602.999 Q329.005 602.999 346.504 591.5 Q364.003 580.001 369.002 568.002 L369.002 496.006 Q364.003 484.007 346.504 472.507 Q329.005 461.008 300.006 461.008 Q271.008 461.008 253.509 472.507 Q236.01 484.007 231.011 496.006 L231.011 650.996 Q233.01 658.996 240.51 669.495 Q248.01 679.995 259.509 689.994 Q271.008 699.993 287.507 706.993 Q304.006 713.993 324.005 713.993 L357.003 713.993 L357.003 658.996 Z " />
<glyph glyph-name="quotedblright" unicode="&#x201d;" horiz-adv-x="405" d="M49 516 L75 516 Q83 516 92 521.5 Q101 527 106 535 L106 572 Q77 572 59.5 583.5 Q42 595 37 607 L37 679 Q42 691 59.5 702.5 Q77 714 106 714 Q135 714 152.5 702.5 Q170 691 175 679 L175 524 Q173 516 165.5 505.5 Q158 495 146.5 485 Q135 475 118.5 468 Q102 461 82 461 L49 461 L49 516 Z M243 516 L269 516 Q277 516 286 521.5 Q295 527 300 535 L300 572 Q271 572 253.5 583.5 Q236 595 231 607 L231 679 Q236 691 253.5 702.5 Q271 714 300 714 Q329 714 346.5 702.5 Q364 691 369 679 L369 524 Q367 516 359.5 505.5 Q352 495 340.5 485 Q329 475 312.5 468 Q296 461 276 461 L243 461 L243 516 Z " />
<glyph glyph-name="quotesinglbase" unicode="&#x201a;" horiz-adv-x="211" d="M49 -66 L75 -66 Q83 -66 92 -60.5 Q101 -55 106 -47 L106 -10 Q77 -10 59.5 1.5 Q42 13 37 25 L37 97 Q42 109 59.5 120.5 Q77 132 106 132 Q135 132 152.5 120.5 Q170 109 175 97 L175 -58 Q173 -66 165.5 -76.5 Q158 -87 146.5 -97 Q135 -107 118.5 -114 Q102 -121 82 -121 L49 -121 L49 -66 Z " />
<glyph glyph-name="quotedblbase" unicode="&#x201e;" horiz-adv-x="406" d="M49 -66 L75 -66 Q83 -66 92 -60.5 Q101 -55 106 -47 L106 -10 Q77 -10 59.5 1.5 Q42 13 37 25 L37 97 Q42 109 59.5 120.5 Q77 132 106 132 Q135 132 152.5 120.5 Q170 109 175 97 L175 -58 Q173 -66 165.5 -76.5 Q158 -87 146.5 -97 Q135 -107 118.5 -114 Q102 -121 82 -121 L49 -121 L49 -66 Z M243 -66 L269 -66 Q277 -66 286 -60.5 Q295 -55 300 -47 L300 -10 Q271 -10 253.5 1.5 Q236 13 231 25 L231 97 Q236 109 253.5 120.5 Q271 132 300 132 Q329 132 346.5 120.5 Q364 109 369 97 L369 -58 Q367 -66 359.5 -76.5 Q352 -87 340.5 -97 Q329 -107 312.5 -114 Q296 -121 276 -121 L243 -121 L243 -66 Z " />
<glyph glyph-name="guilsinglleft" unicode="&#x2039;" horiz-adv-x="348" d="M37 242 L37 338 L214 541 L306 541 L306 473 L141 290 L306 107 L306 40 L214 40 L37 242 Z " />
<glyph glyph-name="guilsinglright" unicode="&#x203a;" horiz-adv-x="348" d="M42 107 L207 290 L42 473 L42 541 L135 541 L311 338 L311 242 L135 40 L42 40 L42 107 Z " />
<glyph glyph-name="guillemotleft" unicode="&#xab;" horiz-adv-x="612" d="M37 242 L37 338 L214 541 L306 541 L306 473 L141 290 L306 107 L306 40 L214 40 L37 242 Z M301 242 L301 338 L478 541 L570 541 L570 473 L405 290 L570 107 L570 40 L478 40 L301 242 Z " />
<glyph glyph-name="guillemotright" unicode="&#xbb;" horiz-adv-x="613" d="M42 107 L207 290 L42 473 L42 541 L135 541 L311 338 L311 242 L135 40 L42 40 L42 107 Z M307 107 L472 290 L307 473 L307 541 L400 541 L576 338 L576 242 L400 40 L307 40 L307 107 Z " />
<glyph glyph-name="slash" unicode="&#x2f;" horiz-adv-x="404" d="M42 -42 L254 731 L361 731 L361 663 L150 -110 L42 -110 L42 -42 Z " />
<glyph glyph-name="bar" unicode="&#x7c;" horiz-adv-x="321" d="M92 790 L228 790 L228 -130 L92 -130 L92 790 Z " />
<glyph glyph-name="endash" unicode="&#x2013;" horiz-adv-x="565" d="M37 387 L528 387 L528 285 L37 285 L37 387 Z " />
<glyph glyph-name="emdash" unicode="&#x2014;" horiz-adv-x="865" d="M37 387 L828 387 L828 285 L37 285 L37 387 Z " />
<glyph glyph-name="bullet" unicode="&#x2022;" horiz-adv-x="342" d="M54 414 Q68 436 98.5 452.5 Q129 469 171 469 Q212 469 242 453 Q272 437 288 414 L288 285 Q272 260 242 243.5 Q212 227 171 227 Q129 227 98.5 244.5 Q68 262 54 285 L54 414 Z " />
<glyph glyph-name="periodcentered" unicode="&#xb7;" horiz-adv-x="210" d="M36 379 Q41 391 58.5 402.5 Q76 414 105 414 Q134 414 151.5 402.5 Q169 391 174 379 L174 307 Q169 295 151.5 283.5 Q134 272 105 272 Q76 272 58.5 283.5 Q41 295 36 307 L36 379 Z " />
<glyph glyph-name="parenleft" unicode="&#x28;" horiz-adv-x="364" d="M320 607 Q290 607 268.5 597 Q247 587 232.5 570.5 Q218 554 209.5 534 Q201 514 197 494 L197 42 Q201 21 209.5 0.5 Q218 -20 232 -37 Q246 -54 267.5 -64.5 Q289 -75 320 -75 L330 -75 L330 -168 L320 -168 Q262 -168 217.5 -153 Q173 -138 141 -115 Q109 -92 88 -63 Q67 -34 56 -5 L56 537 Q67 565 88 594.5 Q109 624 141 647 Q173 670 217.5 685 Q262 700 320 700 L330 700 L330 607 L320 607 L320 607 Z " />
<glyph glyph-name="parenright" unicode="&#x29;" horiz-adv-x="364" d="M44.0195 607 Q74.0177 607 95.5164 597 Q117.015 587 131.514 570.5 Q146.013 554 154.513 534 Q163.012 514 167.012 494 L167.012 42 Q163.012 21 154.513 0.5 Q146.013 -20 132.014 -37 Q118.015 -54 96.5163 -64.5 Q75.0176 -75 44.0195 -75 L34.0201 -75 L34.0201 -168 L44.0195 -168 Q102.016 -168 146.513 -153 Q191.011 -138 223.009 -115 Q255.007 -92 276.005 -63 Q297.004 -34 308.003 -5 L308.003 537 Q297.004 565 276.005 594.5 Q255.007 624 223.009 647 Q191.011 670 146.513 685 Q102.016 700 44.0195 700 L34.0201 700 L34.0201 607 L44.0195 607 L44.0195 607 Z " />
<glyph glyph-name="bracketleft" unicode="&#x5b;" horiz-adv-x="367" d="M202 -75 L326 -75 L326 -168 L65 -168 L65 700 L326 700 L326 607 L202 607 L202 -75 Z " />
<glyph glyph-name="bracketright" unicode="&#x5d;" horiz-adv-x="367" d="M165.012 -75 L41.0199 -75 L41.0199 -168 L302.004 -168 L302.004 700 L41.0199 700 L41.0199 607 L165.012 607 L165.012 -75 Z " />
<glyph glyph-name="braceleft" unicode="&#x7b;" horiz-adv-x="382" d="M86 163 Q80 196 61.5 205.5 Q43 215 23 215 L23 308 Q43 308 61.5 317.5 Q80 327 86 360 L86 537 Q97 565 118 594.5 Q139 624 171 647 Q203 670 247.5 685 Q292 700 350 700 L350 607 Q321 607 300.5 598.5 Q280 590 265 576 Q250 562 241 543.5 Q232 525 227 505 L227 341 Q208 291 161 261 Q207 233 227 182 L227 18 Q232 -2 241 -20.5 Q250 -39 265 -53 Q280 -67 300.5 -75.5 Q321 -84 350 -84 L350 -177 Q292 -177 247.5 -162 Q203 -147 171 -124 Q139 -101 118 -72 Q97 -43 86 -14 L86 163 Z " />
<glyph glyph-name="braceright" unicode="&#x7d;" horiz-adv-x="382" d="M296.005 163 Q302.005 196 320.504 205.5 Q339.003 215 359.001 215 L359.001 308 Q339.003 308 320.504 317.5 Q302.005 327 296.005 360 L296.005 537 Q285.006 565 264.007 594.5 Q243.008 624 211.01 647 Q179.012 670 134.515 685 Q90.0178 700 32.0214 700 L32.0214 607 Q61.0196 607 81.5183 598.5 Q102.017 590 117.016 576 Q132.015 562 141.015 543.5 Q150.014 525 155.014 505 L155.014 341 Q174.013 291 221.01 261 Q175.013 233 155.014 182 L155.014 18 Q150.014 -2 141.015 -20.5 Q132.015 -39 117.016 -53 Q102.017 -67 81.5183 -75.5 Q61.0196 -84 32.0214 -84 L32.0214 -177 Q90.0178 -177 134.515 -162 Q179.012 -147 211.01 -124 Q243.008 -101 264.007 -72 Q285.006 -43 296.005 -14 L296.005 163 Z " />
<glyph glyph-name="asterisk" unicode="&#x2a;" horiz-adv-x="493" d="M214 584 L193 739 Q205 747 219 749.5 Q233 752 247 752 Q261 752 275 749.5 Q289 747 300 739 L278 584 L420 653 Q431 645 438 632 Q445 619 450 606 Q454 593 455.5 579 Q457 565 454 551 L297 523 L408 408 Q403 395 393 384.5 Q383 374 372 366 Q361 358 348 352 Q335 346 321 345 L246 483 L172 345 Q158 346 145 352 Q132 358 121 366 Q110 374 100 384.5 Q90 395 85 408 L195 523 L39 551 Q36 565 37.5 579 Q39 593 43 606 Q48 619 55 632 Q62 645 73 653 L214 584 Z " />
<glyph glyph-name="dagger" unicode="&#x2020;" horiz-adv-x="639" d="M253 370 L125 360 L32 360 L32 474 L125 474 L251 463 L249 568 L249 700 L387 700 L387 568 L384 463 L514 474 L607 474 L607 360 L514 360 L382 370 L371 -168 L265 -168 L253 370 Z " />
<glyph glyph-name="daggerdbl" unicode="&#x2021;" horiz-adv-x="659" d="M42 284 L135 284 L266 273 L263 437 L135 427 L42 427 L42 541 L135 541 L261 530 L260 568 L260 700 L398 700 L398 568 L397 530 L524 541 L617 541 L617 427 L524 427 L395 437 L391 273 L524 284 L617 284 L617 170 L524 170 L389 181 L382 -168 L276 -168 L268 181 L135 170 L42 170 L42 284 Z " />
<glyph glyph-name="section" unicode="&#xa7;" horiz-adv-x="521" d="M473 247 Q465 236 450.5 220 Q436 204 412 189 Q437 176 451.5 162 Q466 148 473 137 L473 8 Q466 -4 450 -21 Q434 -38 408.5 -54.5 Q383 -71 346 -82.5 Q309 -94 260 -94 Q210 -94 173.5 -82.5 Q137 -71 111.5 -54.5 Q86 -38 70.5 -20.5 Q55 -3 47 8 L47 90 L165 90 L165 39 Q175 24 199 9.5 Q223 -5 261 -5 Q298 -5 321.5 9.5 Q345 24 356 39 L356 92 Q347 107 327 116.5 Q307 126 278 133 L220 146 Q140 163 99.5 188.5 Q59 214 47 234 L47 373 Q55 384 69.5 400 Q84 416 109 431 Q83 445 68.5 458.5 Q54 472 47 483 L47 613 Q54 624 70 641.5 Q86 659 112 675.5 Q138 692 174.5 703.5 Q211 715 261 715 Q310 715 346.5 703 Q383 691 408.5 674.5 Q434 658 449.5 641 Q465 624 473 613 L473 531 L356 531 L356 582 Q345 597 321.5 611.5 Q298 626 260 626 Q223 626 199 611.5 Q175 597 165 582 L165 528 Q173 514 193.5 504.5 Q214 495 243 488 L301 475 Q380 458 420.5 432.5 Q461 407 473 387 L473 247 Z M258 386 Q222 385 198.5 370.5 Q175 356 165 342 L165 280 Q173 265 193 255.5 Q213 246 242 239 L264 234 Q300 235 322.5 249 Q345 263 356 278 L356 341 Q348 355 327.5 364.5 Q307 374 278 382 L258 386 Z " />
<glyph glyph-name="paragraph" unicode="&#xb6;" horiz-adv-x="668" d="M504 700 L600 700 L600 -100 L504 -100 L504 700 Z M397 -100 L301 -100 L301 239 L251 239 Q213 239 181 248.5 Q149 258 123 274 Q97 290 77 312 Q57 334 44 358 L44 581 Q76 638 130.5 669 Q185 700 251 700 L397 700 L397 -100 Z " />
<glyph glyph-name="asciicircum" unicode="&#x5e;" horiz-adv-x="508" d="M42 416 L193 700 L314 700 L465 416 L465 342 L383 342 L263 576 L245 576 L125 342 L42 342 L42 416 Z " />
<glyph glyph-name="asciitilde" unicode="&#x7e;" horiz-adv-x="584" d="M33 398 Q49 410 70 421 Q88 429 113.5 436.5 Q139 444 171 444 Q207 444 241 436 Q275 428 308 418.5 Q341 409 373.5 401 Q406 393 439 393 Q464 393 484.5 400 Q505 407 520 415 Q538 425 551 437 L551 325 Q538 315 521 308 Q507 301 486.5 296 Q466 291 440 291 Q401 291 367 299 Q333 307 300.5 316.5 Q268 326 236 334 Q204 342 169 342 Q140 342 115 334 Q90 326 72 316 Q51 305 33 291 L33 398 Z " />
<glyph glyph-name="brokenbar" unicode="&#xa6;" horiz-adv-x="323" d="M92 790 L228 790 L228 392 L92 392 L92 790 Z M92 292 L228 292 L228 -130 L92 -130 L92 292 Z " />
<glyph glyph-name="backslash" unicode="&#x5c;" horiz-adv-x="404" d="M42 663 L42 731 L150 731 L361 -42 L361 -110 L254 -110 L42 663 Z " />
<glyph glyph-name="underscore" unicode="&#x5f;" horiz-adv-x="506" d="M-5 -58 L511 -58 L511 -140 L-5 -140 L-5 -58 Z " />
<glyph glyph-name="quotesingle" unicode="&#x27;" horiz-adv-x="184" d="M37 590 L37 700 L147 700 L147 591 L131 461 L53 461 L37 590 Z " />
<glyph glyph-name="quotedbl" unicode="&#x22;" horiz-adv-x="364" d="M37 590 L37 700 L147 700 L147 591 L131 461 L53 461 L37 590 Z M217 590 L217 700 L327 700 L327 591 L311 461 L233 461 L217 590 Z " />
<glyph glyph-name="at" unicode="&#x40;" horiz-adv-x="939" d="M696 -98 Q646 -128 589 -144.5 Q532 -161 470 -161 Q398 -161 333 -143.5 Q268 -126 213 -92.5 Q158 -59 116.5 -11 Q75 37 50 97 L50 456 Q75 516 118.5 564 Q162 612 218 645.5 Q274 679 339 696.5 Q404 714 472 714 Q562 714 633.5 687.5 Q705 661 757.5 621.5 Q810 582 842.5 537 Q875 492 889 455 L889 108 Q877 89 859.5 75 Q842 61 821 52 Q800 43 777.5 38.5 Q755 34 733 34 Q682 34 644.5 51 Q607 68 584 100 Q558 73 518.5 53.5 Q479 34 425 34 Q387 34 357 45.5 Q327 57 305.5 74 Q284 91 270 110 Q256 129 250 145 L250 405 Q256 421 269.5 440 Q283 459 304 476 Q325 493 354 504.5 Q383 516 421 516 Q471 516 506 498.5 Q541 481 564 455 L564 503 L677 503 L677 135 Q695 104 740 104 Q763 104 777.5 112 Q792 120 804 137 L804 438 Q793 464 768 499 Q743 534 702 565 Q661 596 603.5 617.5 Q546 639 470 639 Q413 639 361.5 625.5 Q310 612 266.5 586 Q223 560 189.5 522.5 Q156 485 135 436 L135 117 Q156 68 190 30 Q224 -8 267.5 -34 Q311 -60 362.5 -73.5 Q414 -87 470 -87 Q521 -87 566 -74.5 Q611 -62 652 -39 L696 -98 Z M459 119 Q497 119 523.5 132 Q550 145 564 162 L564 387 Q550 404 523.5 417.5 Q497 431 459 431 Q418 431 395 414.5 Q372 398 364 384 L364 166 Q368 160 375.5 151.5 Q383 143 395 136 Q407 129 423 124 Q439 119 459 119 Z " />
<glyph glyph-name="copyright" unicode="&#xa9;" horiz-adv-x="803" d="M206 477 Q213 490 227.5 507.5 Q242 525 265.5 541 Q289 557 322.5 568 Q356 579 400 579 Q444 579 477 568.5 Q510 558 533 544 Q556 530 570 514 Q584 498 591 488 L591 397 L494 397 L494 455 Q484 469 461.5 483.5 Q439 498 402 498 Q366 498 343.5 483.5 Q321 469 311 455 L311 243 Q321 229 343.5 214.5 Q366 200 402 200 Q439 200 461.5 214.5 Q484 229 494 243 L494 301 L591 301 L591 210 Q584 199 570 183.5 Q556 168 533 154 Q510 140 477.5 129.5 Q445 119 400 119 Q356 119 322.5 130.5 Q289 142 265.5 158 Q242 174 227.5 191.5 Q213 209 206 222 L206 477 Z M35 350 Q35 426 64 492.5 Q93 559 142.5 608.5 Q192 658 259 686.5 Q326 715 401 715 Q476 715 543 686.5 Q610 658 659.5 608.5 Q709 559 738 492.5 Q767 426 767 350 Q767 274 738 207.5 Q709 141 659.5 91.5 Q610 42 543 13.5 Q476 -15 401 -15 Q326 -15 259 13.5 Q192 42 142.5 91.5 Q93 141 64 207.5 Q35 274 35 350 Z M401 40 Q465 40 521 64 Q577 88 618.5 130 Q660 172 683.5 228.5 Q707 285 707 350 Q707 414 683.5 470.5 Q660 527 618.5 569 Q577 611 521 635.5 Q465 660 401 660 Q337 660 281 635.5 Q225 611 184 569 Q143 527 119 470.5 Q95 414 95 350 Q95 285 119 228.5 Q143 172 184 130 Q225 88 281 64 Q337 40 401 40 Z " />
<glyph glyph-name="registered" unicode="&#xae;" horiz-adv-x="518" d="M20 585 Q20 634 39 677.5 Q58 721 90.5 753.5 Q123 786 166.5 805 Q210 824 259 824 Q308 824 351.5 805 Q395 786 427.5 753.5 Q460 721 479 677.5 Q498 634 498 585 Q498 536 479 492.5 Q460 449 427.5 416.5 Q395 384 351.5 365 Q308 346 259 346 Q210 346 166.5 365 Q123 384 90.5 416.5 Q58 449 39 492.5 Q20 536 20 585 Z M259 380 Q301 380 338 396 Q375 412 402.5 440 Q430 468 445.5 505.5 Q461 543 461 585 Q461 627 445.5 664.5 Q430 702 402.5 730 Q375 758 338 774 Q301 790 259 790 Q217 790 180 774 Q143 758 115.5 730 Q88 702 72.5 664.5 Q57 627 57 585 Q57 543 72.5 505.5 Q88 468 115.5 440 Q143 412 180 396 Q217 380 259 380 Z M261 541 L222 541 L222 448 L160 448 L160 729 L285 729 Q311 729 336 714.5 Q361 700 373 675 L373 596 Q365 579 352 567.5 Q339 556 323 549 L369 485 L369 448 L315 448 L261 541 Z M273 592 Q284 592 295.5 596 Q307 600 313 614 L313 657 Q307 670 295.5 674.5 Q284 679 273 679 L222 679 L222 592 L273 592 Z " />
<glyph glyph-name="trademark" unicode="&#x2122;" horiz-adv-x="801" d="M349 700 L472 700 L548 456 L559 456 L634 700 L752 700 L752 310 L672 310 L672 573 L662 573 L580 310 L522 310 L439 573 L429 573 L429 310 L349 310 L349 700 Z M25 700 L312 700 L312 633 L211 633 L211 310 L125 310 L125 633 L25 633 L25 700 Z " />
<glyph glyph-name="uni2117" unicode="&#x2117;" horiz-adv-x="803" d="M258 567 L451 567 Q495 567 532.5 543.5 Q570 520 589 479 L589 353 Q570 312 532.5 288 Q495 264 451 264 L349 264 L349 123 L258 123 L258 567 Z M433 334 Q453 334 471 343.5 Q489 353 500 376 L500 456 Q489 479 471 488.5 Q453 498 433 498 L349 498 L349 334 L433 334 Z M35 350 Q35 426 64 492.5 Q93 559 142.5 608.5 Q192 658 259 686.5 Q326 715 401 715 Q476 715 543 686.5 Q610 658 659.5 608.5 Q709 559 738 492.5 Q767 426 767 350 Q767 274 738 207.5 Q709 141 659.5 91.5 Q610 42 543 13.5 Q476 -15 401 -15 Q326 -15 259 13.5 Q192 42 142.5 91.5 Q93 141 64 207.5 Q35 274 35 350 Z M401 40 Q465 40 521 64 Q577 88 618.5 130 Q660 172 683.5 228.5 Q707 285 707 350 Q707 414 683.5 470.5 Q660 527 618.5 569 Q577 611 521 635.5 Q465 660 401 660 Q337 660 281 635.5 Q225 611 184 569 Q143 527 119 470.5 Q95 414 95 350 Q95 285 119 228.5 Q143 172 184 130 Q225 88 281 64 Q337 40 401 40 Z " />
<glyph glyph-name="currency" unicode="&#xa4;" horiz-adv-x="591" d="M57 576 L141 576 L168 548 Q194 561 225.5 568.5 Q257 576 295 576 Q334 576 365.5 568.5 Q397 561 423 548 L451 576 L533 576 L533 514 L502 483 Q517 462 527 441 L527 228 Q517 207 503 187 L533 157 L533 95 L451 95 L423 122 Q397 109 365.5 101.5 Q334 94 295 94 Q256 94 224.5 101.5 Q193 109 167 121 L141 95 L57 95 L57 157 L87 187 Q71 208 63 228 L63 441 Q73 462 88 483 L57 514 L57 576 Z M190 253 Q201 229 227 210 Q253 191 295 191 Q337 191 363.5 210 Q390 229 400 253 L400 417 Q390 441 363.5 460 Q337 479 295 479 Q253 479 227 460 Q201 441 190 417 L190 253 Z " />
<glyph glyph-name="Euro" unicode="&#x20ac;" horiz-adv-x="597" d="M29 453 L82 453 L82 582 Q91 603 111 626 Q131 649 161 669 Q191 689 232 702 Q273 715 324 715 Q375 715 415 702 Q455 689 483.5 671 Q512 653 530 632.5 Q548 612 556 597 L556 509 L435 509 L435 553 Q424 577 395 595.5 Q366 614 324 614 Q282 614 253 595.5 Q224 577 213 553 L213 453 L442 453 L442 388 L213 388 L213 323 L442 323 L442 258 L213 258 L213 148 Q224 124 253 105 Q282 86 324 86 Q366 86 395 105 Q424 124 435 148 L435 191 L556 191 L556 103 Q548 88 530.5 68 Q513 48 484 30 Q455 12 415 -1 Q375 -14 324 -14 Q273 -14 232 -1 Q191 12 161 31.5 Q131 51 111 74.5 Q91 98 82 118 L82 258 L29 258 L29 323 L82 323 L82 388 L29 388 L29 453 Z " />
<glyph glyph-name="dollar" unicode="&#x24;" horiz-adv-x="589" d="M53 223 L184 223 L184 147 Q188 138 197 127.5 Q206 117 219.5 107.5 Q233 98 251.5 92 Q270 86 294 86 Q318 86 337 92 Q356 98 369.5 107.5 Q383 117 392 127.5 Q401 138 405 147 L405 240 Q397 258 380 273 Q363 288 317 299 L257 313 Q203 326 167 341 Q131 356 108 372 Q85 388 72.5 404.5 Q60 421 53 436 L53 582 Q59 595 72.5 614.5 Q86 634 109.5 653.5 Q133 673 166 689 Q199 705 243 711 L243 793 L347 793 L347 711 Q390 704 423 688.5 Q456 673 479 654 Q502 635 516 615.5 Q530 596 536 582 L536 486 L405 486 L405 553 Q401 562 392.5 572.5 Q384 583 370 592.5 Q356 602 337 608 Q318 614 294 614 Q270 614 251 608 Q232 602 218.5 592.5 Q205 583 196.5 572.5 Q188 562 184 553 L184 480 Q187 472 192.5 464 Q198 456 208 448.5 Q218 441 234 434 Q250 427 274 421 L333 407 Q387 394 422.5 379 Q458 364 480.5 348 Q503 332 515.5 315.5 Q528 299 536 283 L536 118 Q529 103 514.5 83.5 Q500 64 477 45.5 Q454 27 422 11.5 Q390 -4 347 -10 L347 -93 L243 -93 L243 -10 Q200 -4 167.5 11.5 Q135 27 111.5 45.5 Q88 64 74 83.5 Q60 103 53 118 L53 223 Z " />
<glyph glyph-name="cent" unicode="&#xa2;" horiz-adv-x="536" d="M46 421 Q54 439 68.5 459.5 Q83 480 105.5 498.5 Q128 517 158 531 Q188 545 227 551 L227 634 L332 634 L332 550 Q369 544 398 530 Q427 516 447.5 499.5 Q468 483 481.5 466 Q495 449 501 436 L501 333 L383 333 L383 396 Q373 420 346.5 439 Q320 458 278 458 Q236 458 210 439 Q184 420 173 396 L173 145 Q184 121 210 102 Q236 83 278 83 Q320 83 346.5 102 Q373 121 383 145 L383 208 L501 208 L501 105 Q495 92 481.5 74.5 Q468 57 447.5 40.5 Q427 24 398 10.5 Q369 -3 332 -9 L332 -93 L227 -93 L227 -10 Q188 -4 158 10 Q128 24 105.5 42 Q83 60 68.5 80.5 Q54 101 46 120 L46 421 Z " />
<glyph glyph-name="sterling" unicode="&#xa3;" horiz-adv-x="607" d="M36 387 L89 387 L89 582 Q98 602 117.5 625 Q137 648 167.5 668 Q198 688 238.5 701.5 Q279 715 330 715 Q381 715 421 702 Q461 689 490 670.5 Q519 652 537 632 Q555 612 563 597 L563 504 L442 504 L442 553 Q431 577 401.5 595.5 Q372 614 330 614 Q288 614 259 595 Q230 576 220 553 L220 387 L459 387 L459 310 L220 310 L220 155 Q214 142 205.5 129 Q197 116 186 103 L563 103 L563 0 L41 0 L41 88 Q52 90 66.5 100.5 Q81 111 89 132 L89 310 L36 310 L36 387 Z " />
<glyph glyph-name="florin" unicode="&#x192;" horiz-adv-x="425" d="M79 516 L137 516 L137 619 Q143 634 155 651 Q167 668 187 682 Q207 696 235.5 705 Q264 714 305 714 Q335 714 359.5 710 Q384 706 395 702 L395 617 L349 617 Q326 617 311 612.5 Q296 608 286 601.5 Q276 595 271 588 Q266 581 264 575 L264 516 L395 516 L395 422 L264 422 L264 -87 Q258 -102 246 -119 Q234 -136 214 -150 Q194 -164 165 -173 Q136 -182 96 -182 Q65 -182 40.5 -178 Q16 -174 5 -171 L5 -86 L52 -86 Q75 -86 90 -81.5 Q105 -77 114.5 -70.5 Q124 -64 129 -56.5 Q134 -49 137 -44 L137 422 L79 422 L79 516 Z " />
<glyph glyph-name="yen" unicode="&#xa5;" horiz-adv-x="587" d="M32 403 L162 403 L32 632 L32 700 L162 700 L293 443 L307 443 L438 700 L555 700 L555 632 L425 403 L555 403 L555 338 L388 338 L359 286 L359 260 L555 260 L555 195 L359 195 L359 0 L222 0 L222 195 L32 195 L32 260 L222 260 L222 298 L199 338 L32 338 L32 403 Z " />
<glyph glyph-name="uni20A8" unicode="&#x20a8;" horiz-adv-x="516" d="M53 513 L296 513 L296 544 Q290 559 278.5 571 Q267 583 253 591.5 Q239 600 224 604 Q209 608 196 608 L53 608 L53 700 L500 700 L500 635 L384 635 Q411 610 428 575 L428 513 L500 513 L500 448 L428 448 L428 396 Q414 367 392 344 Q370 321 343 304.5 Q316 288 286.5 279 Q257 270 228 270 L220 270 L428 68 L428 0 L311 0 L53 270 L53 353 L196 353 Q209 353 224 357 Q239 361 253 369.5 Q267 378 278.5 390 Q290 402 296 418 L296 448 L53 448 L53 513 Z " />
<glyph glyph-name="uni20BA" unicode="&#x20ba;" horiz-adv-x="587" d="M29 417 L93 448 L93 700 L224 700 L224 511 L410 602 L410 528 L224 437 L224 363 L410 453 L410 379 L224 289 L224 100 L325 100 Q367 100 394.5 119 Q422 138 432 162 L436 252 L558 252 L558 117 Q550 102 532 82 Q514 62 485 44 Q456 26 416 13 Q376 0 325 0 L93 0 L93 226 L29 195 L29 269 L93 300 L93 374 L29 343 L29 417 Z " />
<glyph glyph-name="uni20BD" unicode="&#x20bd;" horiz-adv-x="595" d="M20 371 L73 371 L73 700 L350 700 Q416 700 470 669 Q524 638 556 581 L556 398 Q529 349 477 315 Q425 281 350 281 L210 281 L210 214 L466 214 L466 149 L210 149 L210 0 L73 0 L73 149 L20 149 L20 214 L73 214 L73 281 L20 281 L20 371 Z M210 371 L320 371 Q354 371 382 385.5 Q410 400 425 429 L425 539 Q408 571 379 584.5 Q350 598 319 598 L210 598 L210 371 Z " />
<glyph glyph-name="ordfeminine" unicode="&#xaa;" horiz-adv-x="413" d="M281 385 Q262 370 234.5 359.5 Q207 349 172 349 Q144 349 123 355 Q102 361 87.5 370 Q73 379 64.5 388 Q56 397 52 403 L52 502 Q56 508 65 518 Q74 528 88 537.5 Q102 547 123 554 Q144 561 172 561 Q207 561 233.5 550.5 Q260 540 279 526 L279 607 Q271 625 252 638 Q233 651 202 651 Q171 651 154.5 639.5 Q138 628 133 620 L133 594 L58 594 L58 643 Q63 650 73 661.5 Q83 673 100.5 683.5 Q118 694 143 702 Q168 710 202 710 Q236 710 262.5 701.5 Q289 693 308.5 680 Q328 667 340.5 651 Q353 635 359 619 L359 358 L281 358 L281 385 Z M196 401 Q227 401 247.5 410 Q268 419 279 433 L279 476 Q268 489 247.5 499 Q227 509 196 509 Q165 509 150 499.5 Q135 490 129 482 L129 428 Q134 421 149.5 411 Q165 401 196 401 Z " />
<glyph glyph-name="ordmasculine" unicode="&#xba;" horiz-adv-x="417" d="M51 619 Q57 635 70 651 Q83 667 102.5 680 Q122 693 148 701.5 Q174 710 208 710 Q242 710 268.5 701.5 Q295 693 314.5 680 Q334 667 347 651 Q360 635 366 619 L366 441 Q360 425 347 408.5 Q334 392 314.5 379 Q295 366 268.5 357.5 Q242 349 208 349 Q174 349 148 357.5 Q122 366 102.5 379 Q83 392 70 408.5 Q57 425 51 441 L51 619 Z M131 451 Q139 434 158 421.5 Q177 409 208 409 Q239 409 258.5 421.5 Q278 434 286 451 L286 607 Q278 625 258.5 638 Q239 651 208 651 Q177 651 158 638 Q139 625 131 607 L131 451 Z " />
<glyph glyph-name="numbersign" unicode="&#x23;" horiz-adv-x="573" d="M310 68 L330 194 L191 194 L160 0 L71 0 L71 68 L91 194 L29 194 L29 285 L105 285 L126 416 L65 416 L65 507 L141 507 L172 700 L262 700 L262 632 L241 507 L380 507 L412 700 L501 700 L501 632 L481 507 L543 507 L543 416 L466 416 L445 285 L508 285 L508 194 L431 194 L400 0 L310 0 L310 68 Z M206 285 L345 285 L366 416 L227 416 L206 285 Z " />
<glyph glyph-name="uni2116" unicode="&#x2116;" horiz-adv-x="1010" d="M616 605 Q623 620 636.5 638 Q650 656 672 671.5 Q694 687 724.5 697 Q755 707 796 707 Q836 707 866.5 697 Q897 687 919 671.5 Q941 656 954.5 638 Q968 620 975 605 L975 440 Q968 425 954.5 407 Q941 389 919 374 Q897 359 866.5 348.5 Q836 338 796 338 Q755 338 724.5 348.5 Q694 359 672 374 Q650 389 636.5 407 Q623 425 616 440 L616 605 Z M713 460 Q722 443 741.5 428 Q761 413 796 413 Q830 413 850 428 Q870 443 878 460 L878 586 Q870 603 850 617.5 Q830 632 796 632 Q761 632 741.5 617.5 Q722 603 713 586 L713 460 Z M63 700 L221 700 L398 231 L413 231 L413 700 L541 700 L541 0 L384 0 L207 468 L191 468 L191 0 L63 0 L63 700 Z M616 292 L975 292 L975 212 L616 212 L616 292 Z " />
<glyph glyph-name="zero" unicode="0" horiz-adv-x="589" d="M53 582 Q62 603 81.5 626 Q101 649 131.5 669 Q162 689 202.5 702 Q243 715 294 715 Q345 715 386 702 Q427 689 457 669 Q487 649 507 626 Q527 603 536 582 L536 118 Q527 98 507 74.5 Q487 51 457 31.5 Q427 12 386 -1 Q345 -14 294 -14 Q243 -14 202.5 -1 Q162 12 131.5 31.5 Q101 51 81.5 74.5 Q62 98 53 118 L53 582 Z M184 148 Q194 124 223 105 Q252 86 294 86 Q336 86 365.5 105 Q395 124 405 148 L405 553 Q395 577 365.5 595.5 Q336 614 294 614 Q252 614 223 595.5 Q194 577 184 553 L184 148 Z " />
<glyph glyph-name="one" unicode="1" horiz-adv-x="412" d="M47 89 L158 89 L158 568 L46 518 L46 615 L199 700 L289 700 L289 89 L395 89 L395 0 L47 0 L47 89 Z " />
<glyph glyph-name="two" unicode="2" horiz-adv-x="566" d="M44 99 L334 383 Q359 408 372 422 Q385 436 387 444 L387 553 Q376 576 347 595 Q318 614 276 614 Q234 614 207.5 596.5 Q181 579 170 562 L170 467 L49 467 L49 607 Q57 619 74.5 637.5 Q92 656 119.5 673 Q147 690 186 702.5 Q225 715 276 715 Q328 715 368.5 702 Q409 689 439 669 Q469 649 489 625.5 Q509 602 518 582 L518 414 Q513 402 494.5 381 Q476 360 453 338 L219 113 L219 105 L523 105 L523 0 L44 0 L44 99 Z " />
<glyph glyph-name="three" unicode="3" horiz-adv-x="572" d="M47 208 L168 208 L168 148 Q179 124 208 105 Q237 86 279 86 Q321 86 350 105 Q379 124 390 148 L390 247 Q380 274 351 294.5 Q322 315 280 315 L195 315 L195 410 L275 410 Q317 410 343.5 429 Q370 448 381 466 L381 562 Q370 579 343.5 596.5 Q317 614 275 614 Q233 614 205.5 596.5 Q178 579 168 562 L168 500 L47 500 L47 607 Q54 619 71.5 637 Q89 655 117 672.5 Q145 690 184.5 702.5 Q224 715 275 715 Q326 715 366 702 Q406 689 435.5 670 Q465 651 484 629.5 Q503 608 512 592 L512 447 Q502 429 475 406.5 Q448 384 408 367 Q451 350 480 322.5 Q509 295 521 270 L521 118 Q512 98 492.5 75 Q473 52 443 32 Q413 12 372 -1 Q331 -14 279 -14 Q228 -14 188.5 -1 Q149 12 120 30 Q91 48 73 68 Q55 88 47 103 L47 208 Z " />
<glyph glyph-name="four" unicode="4" horiz-adv-x="585" d="M25 254 L286 700 L483 700 L483 257 L566 257 L566 156 L483 156 L483 0 L357 0 L357 156 L25 156 L25 254 Z M357 257 L357 590 L340 590 L148 257 L357 257 Z " />
<glyph glyph-name="five" unicode="5" horiz-adv-x="562" d="M50 204 L172 204 L172 148 Q183 124 212 105 Q241 86 283 86 Q325 86 354 105 Q383 124 393 148 L393 295 Q383 318 354 337 Q325 356 283 356 Q240 356 215.5 340 Q191 324 181 310 L60 310 L60 700 L510 700 L510 594 L181 594 L181 404 Q209 427 242 439.5 Q275 452 323 452 Q361 452 392.5 442 Q424 432 448.5 416.5 Q473 401 489.5 381 Q506 361 515 341 L515 103 Q506 88 488 67.5 Q470 47 441.5 29 Q413 11 373.5 -1.5 Q334 -14 283 -14 Q232 -14 192.5 -1.5 Q153 11 124.5 29 Q96 47 77.5 67.5 Q59 88 50 103 L50 204 Z " />
<glyph glyph-name="six" unicode="6" horiz-adv-x="577" d="M53 582 Q62 603 82 626.5 Q102 650 132 669.5 Q162 689 202.5 702 Q243 715 294 715 Q345 715 385 702.5 Q425 690 453.5 671.5 Q482 653 500 632.5 Q518 612 527 597 L527 497 L405 497 L405 553 Q395 576 365.5 595 Q336 614 294 614 Q252 614 223 595 Q194 576 184 553 L184 391 Q212 413 247.5 427 Q283 441 328 441 Q368 441 401 431 Q434 421 459 405.5 Q484 390 501 370 Q518 350 527 330 L527 103 Q519 88 501 68 Q483 48 454 30 Q425 12 385 -1 Q345 -14 294 -14 Q243 -14 202.5 -1 Q162 12 131.5 31.5 Q101 51 81.5 74.5 Q62 98 53 118 L53 582 Z M293 345 Q259 345 231.5 334 Q204 323 184 305 L184 148 Q194 124 223 105 Q252 86 294 86 Q336 86 365.5 105 Q395 124 405 148 L405 287 Q396 310 366 327.5 Q336 345 293 345 Z " />
<glyph glyph-name="seven" unicode="7" horiz-adv-x="498" d="M117 78 L337 579 L337 594 L15 594 L15 700 L469 700 L469 603 L221 0 L117 0 L117 78 Z " />
<glyph glyph-name="eight" unicode="8" horiz-adv-x="583" d="M63 607 Q70 619 87.5 637 Q105 655 132.5 672.5 Q160 690 199.5 702.5 Q239 715 290 715 Q342 715 381 702.5 Q420 690 448 672.5 Q476 655 493 636.5 Q510 618 518 607 L518 437 Q509 423 487.5 401.5 Q466 380 430 361 Q471 341 496 313.5 Q521 286 532 262 L532 118 Q523 98 503.5 74.5 Q484 51 454 31.5 Q424 12 383 -1 Q342 -14 290 -14 Q239 -14 198 -1 Q157 12 127 31.5 Q97 51 77.5 74.5 Q58 98 49 118 L49 262 Q60 285 85 312.5 Q110 340 149 361 Q114 379 93 401 Q72 423 63 437 L63 607 Z M180 148 Q191 124 219.5 105 Q248 86 290 86 Q332 86 361.5 105 Q391 124 401 148 L401 256 Q391 280 361.5 299 Q332 318 290 318 Q248 318 219.5 299 Q191 280 180 256 L180 148 Z M184 454 Q195 437 221.5 419.5 Q248 402 290 402 Q332 402 359 419.5 Q386 437 397 454 L397 562 Q386 579 359 596.5 Q332 614 290 614 Q248 614 221.5 596.5 Q195 579 184 562 L184 454 Z " />
<glyph glyph-name="nine" unicode="9" horiz-adv-x="575" d="M523 118 Q513 97 493.5 74 Q474 51 444 31.5 Q414 12 373 -1 Q332 -14 281 -14 Q230 -14 190.5 -1.5 Q151 11 122.5 29 Q94 47 76 67.5 Q58 88 49 103 L49 198 L170 198 L170 148 Q180 124 209.5 105 Q239 86 281 86 Q323 86 352 105 Q381 124 392 148 L392 299 Q364 277 328 263.5 Q292 250 246 250 Q207 250 175 260 Q143 270 117.5 286 Q92 302 75 322.5 Q58 343 49 363 L49 597 Q57 612 75 632 Q93 652 121.5 670.5 Q150 689 190 702 Q230 715 281 715 Q332 715 373 702 Q414 689 444 669 Q474 649 494 625.5 Q514 602 523 582 L523 118 Z M283 346 Q316 346 343 357 Q370 368 392 388 L392 553 Q381 576 352 595 Q323 614 281 614 Q239 614 210 595 Q181 576 171 553 L171 405 Q181 381 210.5 363.5 Q240 346 283 346 Z " />
<glyph glyph-name="zero.superior" unicode="&#x2070;" horiz-adv-x="432" d="M50 629 Q56 641 69.5 655 Q83 669 104 681 Q125 693 153 701 Q181 709 216 709 Q251 709 279 701 Q307 693 327.5 681 Q348 669 361.5 655 Q375 641 381 629 L381 351 Q375 339 361.5 325 Q348 311 327.5 299 Q307 287 279 279 Q251 271 216 271 Q181 271 153 279 Q125 287 104 299 Q83 311 69.5 325 Q56 339 50 351 L50 629 Z M143 371 Q150 359 169 349 Q188 339 216 339 Q243 339 262.5 349 Q282 359 288 371 L288 610 Q282 621 262.5 631 Q243 641 216 641 Q188 641 169 631 Q150 621 143 610 L143 371 Z " />
<glyph glyph-name="one.superior" unicode="&#xb9;" horiz-adv-x="311" d="M44 341 L116 341 L116 624 L44 618 L44 674 L132 700 L209 700 L209 341 L277 341 L277 280 L44 280 L44 341 Z " />
<glyph glyph-name="two.superior" unicode="&#xb2;" horiz-adv-x="416" d="M44 349 L241 510 Q257 522 265.5 530.5 Q274 539 276 543 L276 610 Q269 621 250 631 Q231 641 203 641 Q176 641 158 632 Q140 623 133 614 L133 557 L47 557 L47 644 Q53 651 64.5 662 Q76 673 95 683.5 Q114 694 141 701.5 Q168 709 203 709 Q239 709 266.5 701 Q294 693 314.5 681 Q335 669 348.5 655 Q362 641 369 629 L369 522 Q366 517 354.5 506 Q343 495 326 483 L168 358 L168 355 L372 355 L372 280 L44 280 L44 349 Z " />
<glyph glyph-name="three.superior" unicode="&#xb3;" horiz-adv-x="420" d="M47 407 L132 407 L132 371 Q139 359 158.5 349 Q178 339 205 339 Q233 339 252 349 Q271 359 279 371 L279 428 Q271 442 252 452.5 Q233 463 205 463 L147 463 L147 529 L203 529 Q229 529 247 539 Q265 549 272 558 L272 614 Q265 623 247 632 Q229 641 203 641 Q175 641 157 631.5 Q139 622 132 614 L132 577 L47 577 L47 644 Q52 651 63.5 662 Q75 673 94.5 683.5 Q114 694 141 701.5 Q168 709 203 709 Q237 709 264.5 701 Q292 693 312.5 681.5 Q333 670 345.5 656.5 Q358 643 364 633 L364 545 Q358 535 340 522 Q322 509 295 499 Q324 489 343.5 473.5 Q363 458 371 444 L371 351 Q365 339 351.5 325 Q338 311 317.5 299 Q297 287 269 279 Q241 271 205 271 Q170 271 143 279 Q116 287 96.5 298 Q77 309 64.5 320.5 Q52 332 47 340 L47 407 Z " />
<glyph glyph-name="four.superior" unicode="&#x2074;" horiz-adv-x="429" d="M32 437 L207 700 L346 700 L346 439 L401 439 L401 369 L346 369 L346 280 L257 280 L257 369 L32 369 L32 437 Z M257 439 L257 624 L245 624 L119 439 L257 439 Z " />
<glyph glyph-name="five.superior" unicode="&#x2075;" horiz-adv-x="412" d="M49 403 L134 403 L134 371 Q142 359 161 349 Q180 339 208 339 Q235 339 254 349 Q273 359 281 371 L281 459 Q273 471 254.5 480.5 Q236 490 208 490 Q179 490 163 481.5 Q147 473 140 466 L140 455 L55 455 L55 700 L363 700 L363 625 L140 625 L140 523 Q157 537 181 545.5 Q205 554 237 554 Q288 554 321 533.5 Q354 513 366 490 L366 340 Q360 332 348 320 Q336 308 316.5 297 Q297 286 270 278.5 Q243 271 208 271 Q173 271 146 278.5 Q119 286 99.5 297 Q80 308 67.5 319.5 Q55 331 49 340 L49 403 Z " />
<glyph glyph-name="six.superior" unicode="&#x2076;" horiz-adv-x="423" d="M50 629 Q57 641 70.5 655 Q84 669 104.5 681 Q125 693 153 701 Q181 709 216 709 Q251 709 278.5 701.5 Q306 694 325.5 683 Q345 672 357 660 Q369 648 375 640 L375 576 L288 576 L288 610 Q282 621 262.5 631 Q243 641 216 641 Q188 641 169 631 Q150 621 143 610 L143 509 Q161 525 186 535.5 Q211 546 244 546 Q296 546 329 525.5 Q362 505 375 481 L375 340 Q369 332 357 320.5 Q345 309 325.5 298 Q306 287 278.5 279 Q251 271 216 271 Q181 271 153 279 Q125 287 104 299 Q83 311 69.5 325 Q56 339 50 351 L50 629 Z M215 482 Q192 482 174.5 475.5 Q157 469 143 459 L143 371 Q150 359 169 349 Q188 339 216 339 Q243 339 262.5 349 Q282 359 288 371 L288 450 Q282 462 262.5 472 Q243 482 215 482 Z " />
<glyph glyph-name="seven.superior" unicode="&#x2077;" horiz-adv-x="370" d="M89 333 L242 620 L242 625 L27 625 L27 700 L338 700 L338 636 L172 280 L89 280 L89 333 Z " />
<glyph glyph-name="eight.superior" unicode="&#x2078;" horiz-adv-x="424" d="M56 644 Q61 651 73 662 Q85 673 104 683.5 Q123 694 150 701.5 Q177 709 212 709 Q247 709 274 701.5 Q301 694 320 683.5 Q339 673 351 662 Q363 651 368 644 L368 539 Q362 531 349 519.5 Q336 508 314 497 Q339 484 354.5 468.5 Q370 453 378 440 L378 351 Q372 339 358.5 325 Q345 311 324 299 Q303 287 275 279 Q247 271 212 271 Q177 271 149 279 Q121 287 100 299 Q79 311 65.5 325 Q52 339 46 351 L46 440 Q53 453 68.5 468.5 Q84 484 109 497 Q88 508 75 519.5 Q62 531 56 539 L56 644 Z M139 371 Q146 359 165.5 349 Q185 339 212 339 Q240 339 259 349 Q278 359 285 371 L285 435 Q278 447 259 457 Q240 467 212 467 Q185 467 165.5 457 Q146 447 139 435 L139 371 Z M142 552 Q149 544 167 535 Q185 526 212 526 Q240 526 257.5 535 Q275 544 282 552 L282 614 Q275 622 257.5 631.5 Q240 641 212 641 Q185 641 167 631.5 Q149 622 142 614 L142 552 Z " />
<glyph glyph-name="nine.superior" unicode="&#x2079;" horiz-adv-x="422" d="M372 351 Q366 339 352.5 325 Q339 311 318 299 Q297 287 269 279 Q241 271 206 271 Q171 271 144.5 278.5 Q118 286 98.5 297 Q79 308 66.5 319.5 Q54 331 48 340 L48 400 L133 400 L133 371 Q140 359 159.5 349 Q179 339 206 339 Q233 339 252.5 349 Q272 359 280 371 L280 466 Q261 449 236 438.5 Q211 428 177 428 Q126 428 93 448.5 Q60 469 48 493 L48 640 Q53 648 65 659.5 Q77 671 97 682 Q117 693 144 701 Q171 709 206 709 Q241 709 269 701 Q297 693 318 681 Q339 669 352.5 655 Q366 641 372 629 L372 351 Z M208 492 Q230 492 247.5 498 Q265 504 280 515 L280 610 Q272 621 252.5 631 Q233 641 206 641 Q179 641 159.5 631 Q140 621 133 610 L133 524 Q140 513 159.5 502.5 Q179 492 208 492 Z " />
<glyph glyph-name="uni00A0" unicode="&#xa0;" horiz-adv-x="205" d="" />
<glyph glyph-name="fraction" unicode="&#x2044;" horiz-adv-x="181" d="M-179 55 L301 700 L360 700 L360 645 L-120 0 L-179 0 L-179 55 Z " />
<glyph glyph-name="onequarter" unicode="&#xbc;" horiz-adv-x="899" d="M175 55 L655 700 L714 700 L714 645 L234 0 L175 0 L175 55 Z M45 341 L117 341 L117 624 L45 618 L45 674 L133 700 L210 700 L210 341 L278 341 L278 280 L45 280 L45 341 Z M485 158 L660 421 L799 421 L799 160 L854 160 L854 90 L799 90 L799 1 L710 1 L710 90 L485 90 L485 158 Z M710 160 L710 345 L698 345 L572 160 L710 160 Z " />
<glyph glyph-name="onehalf" unicode="&#xbd;" horiz-adv-x="943" d="M45 341 L117 341 L117 624 L45 618 L45 674 L133 700 L210 700 L210 341 L278 341 L278 280 L45 280 L45 341 Z M175 55 L655 700 L714 700 L714 645 L234 0 L175 0 L175 55 Z M571 70 L768 231 Q784 243 792.5 251.5 Q801 260 803 264 L803 331 Q796 342 777 352 Q758 362 730 362 Q703 362 685 353 Q667 344 660 335 L660 278 L574 278 L574 365 Q580 372 591.5 383 Q603 394 622 404.5 Q641 415 668 422.5 Q695 430 730 430 Q766 430 793.5 422 Q821 414 841.5 402 Q862 390 875.5 376 Q889 362 896 350 L896 243 Q893 238 881.5 227 Q870 216 853 204 L695 79 L695 76 L899 76 L899 1 L571 1 L571 70 Z " />
<glyph glyph-name="threequarters" unicode="&#xbe;" horiz-adv-x="938" d="M225 55 L705 700 L764 700 L764 645 L284 0 L225 0 L225 55 Z M532 158 L707 421 L846 421 L846 160 L901 160 L901 90 L846 90 L846 1 L757 1 L757 90 L532 90 L532 158 Z M757 160 L757 345 L745 345 L619 160 L757 160 Z M46 407 L131 407 L131 371 Q138 359 157.5 349 Q177 339 204 339 Q232 339 251 349 Q270 359 278 371 L278 428 Q270 442 251 452.5 Q232 463 204 463 L146 463 L146 529 L202 529 Q228 529 246 539 Q264 549 271 558 L271 614 Q264 623 246 632 Q228 641 202 641 Q174 641 156 631.5 Q138 622 131 614 L131 577 L46 577 L46 644 Q51 651 62.5 662 Q74 673 93.5 683.5 Q113 694 140 701.5 Q167 709 202 709 Q236 709 263.5 701 Q291 693 311.5 681.5 Q332 670 344.5 656.5 Q357 643 363 633 L363 545 Q357 535 339 522 Q321 509 294 499 Q323 489 342.5 473.5 Q362 458 370 444 L370 351 Q364 339 350.5 325 Q337 311 316.5 299 Q296 287 268 279 Q240 271 204 271 Q169 271 142 279 Q115 287 95.5 298 Q76 309 63.5 320.5 Q51 332 46 340 L46 407 Z " />
<glyph glyph-name="fiveeighths" unicode="&#x215d;" horiz-adv-x="995" d="M229 55 L709 700 L768 700 L768 645 L288 0 L229 0 L229 55 Z M41 403 L126 403 L126 371 Q134 359 153 349 Q172 339 200 339 Q227 339 246 349 Q265 359 273 371 L273 459 Q265 471 246.5 480.5 Q228 490 200 490 Q171 490 155 481.5 Q139 473 132 466 L132 455 L47 455 L47 700 L355 700 L355 625 L132 625 L132 523 Q149 537 173 545.5 Q197 554 229 554 Q280 554 313 533.5 Q346 513 358 490 L358 340 Q352 332 340 320 Q328 308 308.5 297 Q289 286 262 278.5 Q235 271 200 271 Q165 271 138 278.5 Q111 286 91.5 297 Q72 308 59.5 319.5 Q47 331 41 340 L41 403 Z M639 365 Q644 372 656 383 Q668 394 687 404.5 Q706 415 733 422.5 Q760 430 795 430 Q830 430 857 422.5 Q884 415 903 404.5 Q922 394 934 383 Q946 372 951 365 L951 260 Q945 252 932 240.5 Q919 229 897 218 Q922 205 937.5 189.5 Q953 174 961 161 L961 72 Q955 60 941.5 46 Q928 32 907 20 Q886 8 858 0 Q830 -8 795 -8 Q760 -8 732 0 Q704 8 683 20 Q662 32 648.5 46 Q635 60 629 72 L629 161 Q636 174 651.5 189.5 Q667 205 692 218 Q671 229 658 240.5 Q645 252 639 260 L639 365 Z M722 92 Q729 80 748.5 70 Q768 60 795 60 Q823 60 842 70 Q861 80 868 92 L868 156 Q861 168 842 178 Q823 188 795 188 Q768 188 748.5 178 Q729 168 722 156 L722 92 Z M725 273 Q732 265 750 256 Q768 247 795 247 Q823 247 840.5 256 Q858 265 865 273 L865 335 Q858 343 840.5 352.5 Q823 362 795 362 Q768 362 750 352.5 Q732 343 725 335 L725 273 Z " />
<glyph glyph-name="oneeighth" unicode="&#x215b;" horiz-adv-x="965" d="M191 55 L671 700 L730 700 L730 645 L250 0 L191 0 L191 55 Z M47 341 L119 341 L119 624 L47 618 L47 674 L135 700 L212 700 L212 341 L280 341 L280 280 L47 280 L47 341 Z M601 365 Q606 372 618 383 Q630 394 649 404.5 Q668 415 695 422.5 Q722 430 757 430 Q792 430 819 422.5 Q846 415 865 404.5 Q884 394 896 383 Q908 372 913 365 L913 260 Q907 252 894 240.5 Q881 229 859 218 Q884 205 899.5 189.5 Q915 174 923 161 L923 72 Q917 60 903.5 46 Q890 32 869 20 Q848 8 820 0 Q792 -8 757 -8 Q722 -8 694 0 Q666 8 645 20 Q624 32 610.5 46 Q597 60 591 72 L591 161 Q598 174 613.5 189.5 Q629 205 654 218 Q633 229 620 240.5 Q607 252 601 260 L601 365 Z M684 92 Q691 80 710.5 70 Q730 60 757 60 Q785 60 804 70 Q823 80 830 92 L830 156 Q823 168 804 178 Q785 188 757 188 Q730 188 710.5 178 Q691 168 684 156 L684 92 Z M687 273 Q694 265 712 256 Q730 247 757 247 Q785 247 802.5 256 Q820 265 827 273 L827 335 Q820 343 802.5 352.5 Q785 362 757 362 Q730 362 712 352.5 Q694 343 687 335 L687 273 Z " />
<glyph glyph-name="seveneighths" unicode="&#x215e;" horiz-adv-x="941" d="M167 55 L647 700 L706 700 L706 645 L226 0 L167 0 L167 55 Z M108 333 L261 620 L261 625 L46 625 L46 700 L357 700 L357 636 L191 280 L108 280 L108 333 Z M577 365 Q582 372 594 383 Q606 394 625 404.5 Q644 415 671 422.5 Q698 430 733 430 Q768 430 795 422.5 Q822 415 841 404.5 Q860 394 872 383 Q884 372 889 365 L889 260 Q883 252 870 240.5 Q857 229 835 218 Q860 205 875.5 189.5 Q891 174 899 161 L899 72 Q893 60 879.5 46 Q866 32 845 20 Q824 8 796 0 Q768 -8 733 -8 Q698 -8 670 0 Q642 8 621 20 Q600 32 586.5 46 Q573 60 567 72 L567 161 Q574 174 589.5 189.5 Q605 205 630 218 Q609 229 596 240.5 Q583 252 577 260 L577 365 Z M660 92 Q667 80 686.5 70 Q706 60 733 60 Q761 60 780 70 Q799 80 806 92 L806 156 Q799 168 780 178 Q761 188 733 188 Q706 188 686.5 178 Q667 168 660 156 L660 92 Z M663 273 Q670 265 688 256 Q706 247 733 247 Q761 247 778.5 256 Q796 265 803 273 L803 335 Q796 343 778.5 352.5 Q761 362 733 362 Q706 362 688 352.5 Q670 343 663 335 L663 273 Z " />
<glyph glyph-name="threeeighths" unicode="&#x215c;" horiz-adv-x="997" d="M629 365 Q634 372 646 383 Q658 394 677 404.5 Q696 415 723 422.5 Q750 430 785 430 Q820 430 847 422.5 Q874 415 893 404.5 Q912 394 924 383 Q936 372 941 365 L941 260 Q935 252 922 240.5 Q909 229 887 218 Q912 205 927.5 189.5 Q943 174 951 161 L951 72 Q945 60 931.5 46 Q918 32 897 20 Q876 8 848 0 Q820 -8 785 -8 Q750 -8 722 0 Q694 8 673 20 Q652 32 638.5 46 Q625 60 619 72 L619 161 Q626 174 641.5 189.5 Q657 205 682 218 Q661 229 648 240.5 Q635 252 629 260 L629 365 Z M712 92 Q719 80 738.5 70 Q758 60 785 60 Q813 60 832 70 Q851 80 858 92 L858 156 Q851 168 832 178 Q813 188 785 188 Q758 188 738.5 178 Q719 168 712 156 L712 92 Z M715 273 Q722 265 740 256 Q758 247 785 247 Q813 247 830.5 256 Q848 265 855 273 L855 335 Q848 343 830.5 352.5 Q813 362 785 362 Q758 362 740 352.5 Q722 343 715 335 L715 273 Z M42 407 L127 407 L127 371 Q134 359 153.5 349 Q173 339 200 339 Q228 339 247 349 Q266 359 274 371 L274 428 Q266 442 247 452.5 Q228 463 200 463 L142 463 L142 529 L198 529 Q224 529 242 539 Q260 549 267 558 L267 614 Q260 623 242 632 Q224 641 198 641 Q170 641 152 631.5 Q134 622 127 614 L127 577 L42 577 L42 644 Q47 651 58.5 662 Q70 673 89.5 683.5 Q109 694 136 701.5 Q163 709 198 709 Q232 709 259.5 701 Q287 693 307.5 681.5 Q328 670 340.5 656.5 Q353 643 359 633 L359 545 Q353 535 335 522 Q317 509 290 499 Q319 489 338.5 473.5 Q358 458 366 444 L366 351 Q360 339 346.5 325 Q333 311 312.5 299 Q292 287 264 279 Q236 271 200 271 Q165 271 138 279 Q111 287 91.5 298 Q72 309 59.5 320.5 Q47 332 42 340 L42 407 Z M223 55 L703 700 L762 700 L762 645 L282 0 L223 0 L223 55 Z " />
<glyph glyph-name="twothirds" unicode="&#x2154;" horiz-adv-x="1029" d="M658 128 L743 128 L743 92 Q750 80 769.5 70 Q789 60 816 60 Q844 60 863 70 Q882 80 890 92 L890 149 Q882 163 863 173.5 Q844 184 816 184 L758 184 L758 250 L814 250 Q840 250 858 260 Q876 270 883 279 L883 335 Q876 344 858 353 Q840 362 814 362 Q786 362 768 352.5 Q750 343 743 335 L743 298 L658 298 L658 365 Q663 372 674.5 383 Q686 394 705.5 404.5 Q725 415 752 422.5 Q779 430 814 430 Q848 430 875.5 422 Q903 414 923.5 402.5 Q944 391 956.5 377.5 Q969 364 975 354 L975 266 Q969 256 951 243 Q933 230 906 220 Q935 210 954.5 194.5 Q974 179 982 165 L982 72 Q976 60 962.5 46 Q949 32 928.5 20 Q908 8 880 0 Q852 -8 816 -8 Q781 -8 754 0 Q727 8 707.5 19 Q688 30 675.5 41.5 Q663 53 658 61 L658 128 Z M43 349 L240 510 Q256 522 264.5 530.5 Q273 539 275 543 L275 610 Q268 621 249 631 Q230 641 202 641 Q175 641 157 632 Q139 623 132 614 L132 557 L46 557 L46 644 Q52 651 63.5 662 Q75 673 94 683.5 Q113 694 140 701.5 Q167 709 202 709 Q238 709 265.5 701 Q293 693 313.5 681 Q334 669 347.5 655 Q361 641 368 629 L368 522 Q365 517 353.5 506 Q342 495 325 483 L167 358 L167 355 L371 355 L371 280 L43 280 L43 349 Z M262 55 L742 700 L801 700 L801 645 L321 0 L262 0 L262 55 Z " />
<glyph glyph-name="uniE000" unicode="&#xe000;" horiz-adv-x="999" d="M235 55 L715 700 L774 700 L774 645 L294 0 L235 0 L235 55 Z M48 629 Q55 641 68.5 655 Q82 669 102.5 681 Q123 693 151 701 Q179 709 214 709 Q249 709 276.5 701.5 Q304 694 323.5 683 Q343 672 355 660 Q367 648 373 640 L373 576 L286 576 L286 610 Q280 621 260.5 631 Q241 641 214 641 Q186 641 167 631 Q148 621 141 610 L141 509 Q159 525 184 535.5 Q209 546 242 546 Q294 546 327 525.5 Q360 505 373 481 L373 340 Q367 332 355 320.5 Q343 309 323.5 298 Q304 287 276.5 279 Q249 271 214 271 Q179 271 151 279 Q123 287 102 299 Q81 311 67.5 325 Q54 339 48 351 L48 629 Z M213 482 Q190 482 172.5 475.5 Q155 469 141 459 L141 371 Q148 359 167 349 Q186 339 214 339 Q241 339 260.5 349 Q280 359 286 371 L286 450 Q280 462 260.5 472 Q241 482 213 482 Z M643 365 Q648 372 660 383 Q672 394 691 404.5 Q710 415 737 422.5 Q764 430 799 430 Q834 430 861 422.5 Q888 415 907 404.5 Q926 394 938 383 Q950 372 955 365 L955 260 Q949 252 936 240.5 Q923 229 901 218 Q926 205 941.5 189.5 Q957 174 965 161 L965 72 Q959 60 945.5 46 Q932 32 911 20 Q890 8 862 0 Q834 -8 799 -8 Q764 -8 736 0 Q708 8 687 20 Q666 32 652.5 46 Q639 60 633 72 L633 161 Q640 174 655.5 189.5 Q671 205 696 218 Q675 229 662 240.5 Q649 252 643 260 L643 365 Z M726 92 Q733 80 752.5 70 Q772 60 799 60 Q827 60 846 70 Q865 80 872 92 L872 156 Q865 168 846 178 Q827 188 799 188 Q772 188 752.5 178 Q733 168 726 156 L726 92 Z M729 273 Q736 265 754 256 Q772 247 799 247 Q827 247 844.5 256 Q862 265 869 273 L869 335 Q862 343 844.5 352.5 Q827 362 799 362 Q772 362 754 352.5 Q736 343 729 335 L729 273 Z " />
<glyph glyph-name="uniE001" unicode="&#xe001;" horiz-adv-x="1244" d="M593 62 L665 62 L665 345 L593 339 L593 395 L681 421 L758 421 L758 62 L826 62 L826 1 L593 1 L593 62 Z M879 350 Q886 362 899.5 376 Q913 390 933.5 402 Q954 414 982 422 Q1010 430 1045 430 Q1080 430 1107.5 422.5 Q1135 415 1154.5 404 Q1174 393 1186 381 Q1198 369 1204 361 L1204 297 L1117 297 L1117 331 Q1111 342 1091.5 352 Q1072 362 1045 362 Q1017 362 998 352 Q979 342 972 331 L972 230 Q990 246 1015 256.5 Q1040 267 1073 267 Q1125 267 1158 246.5 Q1191 226 1204 202 L1204 61 Q1198 53 1186 41.5 Q1174 30 1154.5 19 Q1135 8 1107.5 0 Q1080 -8 1045 -8 Q1010 -8 982 0 Q954 8 933 20 Q912 32 898.5 46 Q885 60 879 72 L879 350 Z M1044 203 Q1021 203 1003.5 196.5 Q986 190 972 180 L972 92 Q979 80 998 70 Q1017 60 1045 60 Q1072 60 1091.5 70 Q1111 80 1117 92 L1117 171 Q1111 183 1091.5 193 Q1072 203 1044 203 Z M164 55 L644 700 L703 700 L703 645 L223 0 L164 0 L164 55 Z M38 341 L110 341 L110 624 L38 618 L38 674 L126 700 L203 700 L203 341 L271 341 L271 280 L38 280 L38 341 Z " />
<glyph glyph-name="percent" unicode="&#x25;" horiz-adv-x="900" d="M137 449 Q144 435 163.5 424.5 Q183 414 210 414 Q237 414 256 424.5 Q275 435 282 449 L282 606 Q275 620 256 630.5 Q237 641 210 641 Q183 641 163.5 630.5 Q144 620 137 606 L137 449 Z M45 619 Q51 635 64.5 651 Q78 667 98.5 680 Q119 693 147 701 Q175 709 210 709 Q245 709 273 701 Q301 693 321.5 680 Q342 667 355.5 651 Q369 635 375 619 L375 435 Q369 419 355.5 403 Q342 387 321.5 374.5 Q301 362 273 354 Q245 346 210 346 Q175 346 147 354 Q119 362 98.5 374.5 Q78 387 64.5 403 Q51 419 45 435 L45 619 Z M617 94 Q625 80 644 69.5 Q663 59 690 59 Q718 59 736.5 69.5 Q755 80 762 94 L762 251 Q755 265 736.5 276 Q718 287 690 287 Q663 287 644 276 Q625 265 617 251 L617 94 Z M525 265 Q531 281 544.5 296.5 Q558 312 578.5 325 Q599 338 627 346 Q655 354 690 354 Q725 354 753 346 Q781 338 801.5 325 Q822 312 835.5 296.5 Q849 281 855 265 L855 81 Q849 65 835.5 49 Q822 33 801.5 20 Q781 7 753 -1 Q725 -9 690 -9 Q655 -9 627 -1 Q599 7 578.5 20 Q558 33 544.5 49 Q531 65 525 81 L525 265 Z M181 59 L657 700 L720 700 L720 641 L244 0 L181 0 L181 59 Z " />
<glyph glyph-name="perthousand" unicode="&#x2030;" horiz-adv-x="1286" d="M137 449 Q144 435 163.5 424.5 Q183 414 210 414 Q237 414 256 424.5 Q275 435 282 449 L282 606 Q275 620 256 630.5 Q237 641 210 641 Q183 641 163.5 630.5 Q144 620 137 606 L137 449 Z M45 619 Q51 635 64.5 651 Q78 667 98.5 680 Q119 693 147 701 Q175 709 210 709 Q245 709 273 701 Q301 693 321.5 680 Q342 667 355.5 651 Q369 635 375 619 L375 435 Q369 419 355.5 403 Q342 387 321.5 374.5 Q301 362 273 354 Q245 346 210 346 Q175 346 147 354 Q119 362 98.5 374.5 Q78 387 64.5 403 Q51 419 45 435 L45 619 Z M617 94 Q625 80 644 69.5 Q663 59 690 59 Q718 59 736.5 69.5 Q755 80 762 94 L762 251 Q755 265 736.5 276 Q718 287 690 287 Q663 287 644 276 Q625 265 617 251 L617 94 Z M525 265 Q531 281 544.5 296.5 Q558 312 578.5 325 Q599 338 627 346 Q655 354 690 354 Q725 354 753 346 Q781 338 801.5 325 Q822 312 835.5 296.5 Q849 281 855 265 L855 81 Q849 65 835.5 49 Q822 33 801.5 20 Q781 7 753 -1 Q725 -9 690 -9 Q655 -9 627 -1 Q599 7 578.5 20 Q558 33 544.5 49 Q531 65 525 81 L525 265 Z M1003 94 Q1011 80 1030 69.5 Q1049 59 1076 59 Q1104 59 1122.5 69.5 Q1141 80 1148 94 L1148 251 Q1141 265 1122.5 276 Q1104 287 1076 287 Q1049 287 1030 276 Q1011 265 1003 251 L1003 94 Z M911 265 Q917 281 930.5 296.5 Q944 312 964.5 325 Q985 338 1013 346 Q1041 354 1076 354 Q1111 354 1139 346 Q1167 338 1187.5 325 Q1208 312 1221.5 296.5 Q1235 281 1241 265 L1241 81 Q1235 65 1221.5 49 Q1208 33 1187.5 20 Q1167 7 1139 -1 Q1111 -9 1076 -9 Q1041 -9 1013 -1 Q985 7 964.5 20 Q944 33 930.5 49 Q917 65 911 81 L911 265 Z M181 59 L657 700 L720 700 L720 641 L244 0 L181 0 L181 59 Z " />
<glyph glyph-name="plus" unicode="&#x2b;" horiz-adv-x="585" d="M37 387 L241 387 L241 591 L344 591 L344 387 L548 387 L548 285 L344 285 L344 80 L241 80 L241 285 L37 285 L37 387 Z " />
<glyph glyph-name="minus" unicode="&#x2212;" horiz-adv-x="585" d="M37 387 L548 387 L548 285 L37 285 L37 387 Z " />
<glyph glyph-name="plusminus" unicode="&#xb1;" horiz-adv-x="585" d="M37 459 L241 459 L241 639 L344 639 L344 459 L548 459 L548 358 L344 358 L344 177 L241 177 L241 358 L37 358 L37 459 Z M37 122 L548 122 L548 20 L37 20 L37 122 Z " />
<glyph glyph-name="multiply" unicode="&#xd7;" horiz-adv-x="585" d="M47 163 L219 336 L47 508 L47 576 L125 576 L293 408 L461 576 L537 576 L537 508 L365 336 L537 163 L537 95 L461 95 L293 262 L125 95 L47 95 L47 163 Z " />
<glyph glyph-name="divide" unicode="&#xf7;" horiz-adv-x="585" d="M37 387 L548 387 L548 285 L37 285 L37 387 Z M224 184 Q229 196 246.5 207.5 Q264 219 293 219 Q322 219 339.5 207.5 Q357 196 362 184 L362 112 Q357 100 339.5 88.5 Q322 77 293 77 Q264 77 246.5 88.5 Q229 100 224 112 L224 184 Z M224 565 Q229 577 246.5 588.5 Q264 600 293 600 Q322 600 339.5 588.5 Q357 577 362 565 L362 493 Q357 481 339.5 469.5 Q322 458 293 458 Q264 458 246.5 469.5 Q229 481 224 493 L224 565 Z " />
<glyph glyph-name="equal" unicode="&#x3d;" horiz-adv-x="585" d="M37 283 L548 283 L548 181 L37 181 L37 283 Z M37 493 L548 493 L548 391 L37 391 L37 493 Z " />
<glyph glyph-name="notequal" unicode="&#x2260;" horiz-adv-x="585" d="M37 493 L302 493 L341 591 L444 591 L405 493 L548 493 L548 391 L365 391 L323 282 L548 282 L548 180 L283 180 L244 80 L141 80 L180 180 L37 180 L37 282 L220 282 L262 391 L37 391 L37 493 Z " />
<glyph glyph-name="approxequal" unicode="&#x2248;" horiz-adv-x="585" d="M34 263 Q50 275 71 286 Q89 294 114.5 301.5 Q140 309 172 309 Q208 309 242 301 Q276 293 309 283.5 Q342 274 374.5 266 Q407 258 440 258 Q465 258 485.5 265 Q506 272 521 280 Q539 290 552 302 L552 190 Q539 180 522 173 Q508 166 487.5 161 Q467 156 441 156 Q402 156 368 164 Q334 172 301.5 181.5 Q269 191 237 199 Q205 207 170 207 Q141 207 116 199 Q91 191 73 181 Q52 170 34 156 L34 263 Z M34 474 Q50 486 71 497 Q89 505 114.5 512.5 Q140 520 172 520 Q208 520 242 512 Q276 504 309 494.5 Q342 485 374.5 477 Q407 469 440 469 Q465 469 485.5 476 Q506 483 521 491 Q539 501 552 513 L552 401 Q539 391 522 384 Q508 377 487.5 372 Q467 367 441 367 Q402 367 368 375 Q334 383 301.5 392.5 Q269 402 237 410 Q205 418 170 418 Q141 418 116 410 Q91 402 73 392 Q52 381 34 367 L34 474 Z " />
<glyph glyph-name="less" unicode="&#x3c;" horiz-adv-x="585" d="M29 341 L465 541 L557 541 L557 471 L160 297 L557 123 L557 53 L465 53 L29 252 L29 341 Z " />
<glyph glyph-name="greater" unicode="&#x3e;" horiz-adv-x="585" d="M29 123 L425 297 L29 471 L29 541 L121 541 L557 341 L557 252 L121 53 L29 53 L29 123 Z " />
<glyph glyph-name="lessequal" unicode="&#x2264;" horiz-adv-x="585" d="M37 403 L456 583 L548 583 L548 513 L199 381 L548 248 L548 178 L456 178 L37 336 L37 403 Z M37 122 L548 122 L548 20 L37 20 L37 122 Z " />
<glyph glyph-name="greaterequal" unicode="&#x2265;" horiz-adv-x="585" d="M37 248 L387 381 L37 513 L37 583 L129 583 L548 403 L548 336 L129 178 L37 178 L37 248 Z M37 122 L548 122 L548 20 L37 20 L37 122 Z " />
<glyph glyph-name="logicalnot" unicode="&#xac;" horiz-adv-x="585" d="M37 387 L548 387 L548 80 L445 80 L445 285 L37 285 L37 387 Z " />
<glyph glyph-name="uni00AD" unicode="&#xad;" horiz-adv-x="365" d="M37 387 L328 387 L328 285 L37 285 L37 387 Z " />
<glyph glyph-name="Delta" unicode="&#x2206;" horiz-adv-x="621" d="M27 78 L210 700 L411 700 L594 78 L594 0 L27 0 L27 78 Z M167 103 L441 103 L314 576 L297 576 L167 103 Z " />
<glyph glyph-name="uni0394" unicode="&#x394;" horiz-adv-x="621" d="M27 78 L210 700 L411 700 L594 78 L594 0 L27 0 L27 78 Z M167 103 L441 103 L314 576 L297 576 L167 103 Z " />
<glyph glyph-name="Omega" unicode="&#x2126;" horiz-adv-x="626" d="M53 107 L201 107 L201 165 Q140 186 104.5 224.5 Q69 263 53 300 L53 562 Q64 587 84.5 614 Q105 641 136.5 663.5 Q168 686 211.5 700.5 Q255 715 313 715 Q371 715 414.5 700.5 Q458 686 489.5 663.5 Q521 641 541.5 614 Q562 587 573 562 L573 300 Q556 263 520.5 225 Q485 187 425 166 L425 107 L574 107 L574 0 L342 0 L342 244 Q381 251 404 272 Q427 293 437 316 L437 535 Q425 564 393 586.5 Q361 609 313 609 Q264 609 232.5 586.5 Q201 564 189 535 L189 316 Q199 293 222 272 Q245 251 284 244 L284 0 L53 0 L53 107 Z " />
<glyph glyph-name="uni03A9" unicode="&#x3a9;" horiz-adv-x="626" d="M53 107 L201 107 L201 165 Q140 186 104.5 224.5 Q69 263 53 300 L53 562 Q64 587 84.5 614 Q105 641 136.5 663.5 Q168 686 211.5 700.5 Q255 715 313 715 Q371 715 414.5 700.5 Q458 686 489.5 663.5 Q521 641 541.5 614 Q562 587 573 562 L573 300 Q556 263 520.5 225 Q485 187 425 166 L425 107 L574 107 L574 0 L342 0 L342 244 Q381 251 404 272 Q427 293 437 316 L437 535 Q425 564 393 586.5 Q361 609 313 609 Q264 609 232.5 586.5 Q201 564 189 535 L189 316 Q199 293 222 272 Q245 251 284 244 L284 0 L53 0 L53 107 Z " />
<glyph glyph-name="mu" unicode="&#xb5;" horiz-adv-x="554" d="M500 0 L382 0 L382 57 Q359 29 322 9 Q285 -11 230 -11 Q216 -11 203 -9 Q190 -7 179 -5 L179 -159 L52 -159 L52 541 L179 541 L179 129 Q183 123 190.5 115.5 Q198 108 209 101.5 Q220 95 236 90 Q252 85 273 85 Q311 85 335 96.5 Q359 108 373 123 L373 541 L500 541 L500 0 Z " />
<glyph glyph-name="uni03BC" unicode="&#x3bc;" horiz-adv-x="554" d="M500 0 L382 0 L382 57 Q359 29 322 9 Q285 -11 230 -11 Q216 -11 203 -9 Q190 -7 179 -5 L179 -159 L52 -159 L52 541 L179 541 L179 129 Q183 123 190.5 115.5 Q198 108 209 101.5 Q220 95 236 90 Q252 85 273 85 Q311 85 335 96.5 Q359 108 373 123 L373 541 L500 541 L500 0 Z " />
<glyph glyph-name="pi" unicode="&#x3c0;" horiz-adv-x="700" d="M407 449 L238 449 L238 0 L111 0 L111 449 L34 449 L34 541 L663 541 L663 449 L534 449 L534 125 Q537 120 542.5 113 Q548 106 558.5 100 Q569 94 585.5 89.5 Q602 85 626 85 Q639 85 649.5 85.5 Q660 86 665 87 L665 0 Q654 -3 632.5 -7 Q611 -11 579 -11 Q537 -11 507 -2 Q477 7 457 20.5 Q437 34 425 51 Q413 68 407 83 L407 449 Z " />
<glyph glyph-name="degree" unicode="&#xb0;" horiz-adv-x="387" d="M31 722 Q37 734 50 749 Q63 764 83 777 Q103 790 130 798.5 Q157 807 193 807 Q229 807 256.5 798 Q284 789 304 776.5 Q324 764 336.5 749 Q349 734 355 722 L355 592 Q349 580 336.5 565 Q324 550 304 537 Q284 524 256.5 515 Q229 506 193 506 Q157 506 130 515 Q103 524 83 537 Q63 550 50 565 Q37 580 31 592 L31 722 Z M121 616 Q129 603 146.5 592 Q164 581 193 581 Q222 581 240 592 Q258 603 266 616 L266 697 Q258 710 240 721 Q222 732 193 732 Q164 732 146.5 721 Q129 710 121 697 L121 616 Z " />
<glyph glyph-name="infinity" unicode="&#x221e;" horiz-adv-x="752" d="M92 469 Q98 485 111.5 501 Q125 517 145.5 530 Q166 543 194 551 Q222 559 257 559 Q295 559 325 549.5 Q355 540 376 525 Q397 540 426.5 549.5 Q456 559 495 559 Q530 559 558 551 Q586 543 606.5 530 Q627 517 640.5 501 Q654 485 660 469 L660 211 Q654 195 640.5 179 Q627 163 606.5 150 Q586 137 558 129 Q530 121 495 121 Q456 121 426.5 130.5 Q397 140 376 155 Q355 140 325 130.5 Q295 121 257 121 Q222 121 194 129 Q166 137 145.5 150 Q125 163 111.5 179 Q98 195 92 211 L92 469 Z M567 457 Q560 471 541 481 Q522 491 495 491 Q468 491 448.5 481 Q429 471 422 457 L422 223 Q429 209 448.5 199.5 Q468 190 495 190 Q522 190 541 199.5 Q560 209 567 223 L567 457 Z M329 457 Q322 471 303.5 481 Q285 491 257 491 Q230 491 211 481 Q192 471 185 457 L185 223 Q192 209 211 199.5 Q230 190 257 190 Q285 190 303.5 199.5 Q322 209 329 223 L329 457 Z " />
</font>
</svg>
