<?xml version="1.0" encoding="UTF-8"?>
<svg xmlns="http://www.w3.org/2000/svg" xmlns:xlink="http://www.w3.org/1999/xlink" version="1.2" >
<font id="Cadillac Trim V1 Light">
<font-face  font-family="Cadillac Trim V1" units-per-em="1000" ascent="750" descent="-250" font-style="normal" font-weight="300" font-stretch="normal" cap-height="700" x-height="536" underline-position="-66" underline-thickness="45" />
<missing-glyph  horiz-adv-x="597" d="M89 800 L508 800 L508 -100 L89 -100 L89 800 Z M457 -55 L457 755 L140 755 L140 -55 L457 -55 Z " />
<glyph glyph-name=".null" d="" />
<glyph glyph-name="nonmarkingreturn" unicode="&#xd;" horiz-adv-x="196" d="" />
<glyph glyph-name="space" unicode="&#x20;" horiz-adv-x="208" d="" />
<glyph glyph-name="A" unicode="A" horiz-adv-x="599" d="M32 44 L249 700 L350 700 L566 44 L566 0 L514 0 L434 247 L160 247 L80 0 L32 0 L32 44 Z M177 299 L417 299 L306 645 L290 645 L177 299 Z " />
<glyph glyph-name="B" unicode="B" horiz-adv-x="579" d="M82 700 L326 700 Q393 700 440.5 665.5 Q488 631 514 582 L514 451 Q498 423 469 400 Q440 377 411 363 Q426 357 443 348 Q460 339 475.5 327 Q491 315 504.5 301 Q518 287 527 272 L527 118 Q515 97 497.5 76 Q480 55 455.5 38 Q431 21 399 10.5 Q367 0 326 0 L82 0 L82 700 Z M322 387 Q360 387 395.5 408.5 Q431 430 454 465 L454 563 Q434 602 397 625 Q360 648 312 648 L145 648 L145 387 L322 387 Z M312 52 Q376 52 411.5 76.5 Q447 101 467 138 L467 257 Q447 291 406.5 313.5 Q366 336 322 336 L145 336 L145 52 L312 52 Z " />
<glyph glyph-name="C" unicode="C" horiz-adv-x="616" d="M556 259 L556 136 Q545 112 525.5 85.5 Q506 59 476.5 37 Q447 15 406.5 1 Q366 -13 313 -13 Q260 -13 219 1.5 Q178 16 148 38 Q118 60 98.5 87 Q79 114 68 139 L68 562 Q79 587 98.5 614 Q118 641 148 663 Q178 685 219 699.5 Q260 714 313 714 Q366 714 407 700 Q448 686 477.5 664 Q507 642 526 615.5 Q545 589 556 565 L556 452 L495 452 L495 547 Q486 569 470 589.5 Q454 610 431 626 Q408 642 378.5 651.5 Q349 661 313 661 Q277 661 247.5 651.5 Q218 642 195 626 Q172 610 156 589.5 Q140 569 131 547 L131 154 Q140 132 156 111.5 Q172 91 195 75 Q218 59 247.5 49.5 Q277 40 313 40 Q349 40 378.5 49.5 Q408 59 431 75 Q454 91 470 111.5 Q486 132 495 154 L495 259 L556 259 Z " />
<glyph glyph-name="D" unicode="D" horiz-adv-x="623" d="M492 545 Q474 590 428 619 Q382 648 310 648 L145 648 L145 52 L310 52 Q382 52 428 81 Q474 110 492 155 L492 545 Z M555 138 Q544 113 524.5 88 Q505 63 476 43.5 Q447 24 408 12 Q369 0 318 0 L82 0 L82 700 L318 700 Q369 700 408 688 Q447 676 476 656.5 Q505 637 524.5 612 Q544 587 555 562 L555 138 Z " />
<glyph glyph-name="E" unicode="E" horiz-adv-x="542" d="M82 700 L482 700 L482 648 L145 648 L145 387 L459 387 L459 335 L145 335 L145 52 L491 52 L491 0 L82 0 L82 700 Z " />
<glyph glyph-name="F" unicode="F" horiz-adv-x="519" d="M82 700 L472 700 L472 648 L145 648 L145 387 L454 387 L454 335 L145 335 L145 0 L82 0 L82 700 Z " />
<glyph glyph-name="G" unicode="G" horiz-adv-x="616" d="M332 358 L556 358 L556 136 Q545 112 525.5 85.5 Q506 59 476.5 37 Q447 15 406.5 1 Q366 -13 313 -13 Q260 -13 219 1.5 Q178 16 148 38 Q118 60 98.5 87 Q79 114 68 139 L68 562 Q79 587 98.5 614 Q118 641 148 663 Q178 685 219 699.5 Q260 714 313 714 Q366 714 407 700 Q448 686 477.5 664 Q507 642 526 615.5 Q545 589 556 565 L556 467 L495 467 L495 547 Q486 569 470 589.5 Q454 610 431 626 Q408 642 378.5 651.5 Q349 661 313 661 Q277 661 247.5 651.5 Q218 642 195 626 Q172 610 156 589.5 Q140 569 131 547 L131 154 Q140 132 156 111.5 Q172 91 195.5 75 Q219 59 248.5 49.5 Q278 40 314 40 Q350 40 379.5 49.5 Q409 59 432 74.5 Q455 90 471 110.5 Q487 131 496 153 L496 306 L332 306 L332 358 Z " />
<glyph glyph-name="H" unicode="H" horiz-adv-x="641" d="M82 700 L145 700 L145 387 L496 387 L496 700 L559 700 L559 0 L496 0 L496 335 L145 335 L145 0 L82 0 L82 700 Z " />
<glyph glyph-name="I" unicode="I" horiz-adv-x="227" d="M82 700 L145 700 L145 0 L82 0 L82 700 Z " />
<glyph glyph-name="J" unicode="J" horiz-adv-x="386" d="M20 52 L64 52 Q130 52 178 80 Q226 108 246 156 L246 700 L309 700 L309 139 Q296 110 275.5 84.5 Q255 59 225 40 Q195 21 155.5 10 Q116 -1 67 -1 Q56 -1 44.5 -1 Q33 -1 20 0 L20 52 Z " />
<glyph glyph-name="K" unicode="K" horiz-adv-x="559" d="M82 700 L145 700 L145 360 L158 360 L478 700 L517 700 L517 656 L272 399 L526 44 L526 0 L485 0 L231 356 L145 265 L145 0 L82 0 L82 700 Z " />
<glyph glyph-name="L" unicode="L" horiz-adv-x="452" d="M82 700 L145 700 L145 52 L428 52 L428 0 L82 0 L82 700 Z " />
<glyph glyph-name="M" unicode="M" horiz-adv-x="790" d="M82 700 L183 700 L388 263 L404 263 L608 700 L709 700 L709 0 L648 0 L648 619 L632 619 L427 185 L363 185 L158 619 L142 619 L142 0 L82 0 L82 700 Z " />
<glyph glyph-name="N" unicode="N" horiz-adv-x="657" d="M82 700 L176 700 L499 89 L515 89 L515 700 L575 700 L575 0 L481 0 L158 612 L142 612 L142 0 L82 0 L82 700 Z " />
<glyph glyph-name="O" unicode="O" horiz-adv-x="626" d="M131 154 Q140 132 156 111.5 Q172 91 195 75 Q218 59 247.5 49.5 Q277 40 313 40 Q349 40 378.5 49.5 Q408 59 431 75 Q454 91 470 111.5 Q486 132 495 154 L495 547 Q486 569 470 589.5 Q454 610 431 626 Q408 642 378.5 651.5 Q349 661 313 661 Q277 661 247.5 651.5 Q218 642 195 626 Q172 610 156 589.5 Q140 569 131 547 L131 154 Z M68 562 Q79 587 98.5 614 Q118 641 148 663 Q178 685 219 699.5 Q260 714 313 714 Q366 714 407 699.5 Q448 685 478 663 Q508 641 527.5 614 Q547 587 558 562 L558 139 Q547 114 527.5 87 Q508 60 478 38 Q448 16 407 1.5 Q366 -13 313 -13 Q260 -13 219 1.5 Q178 16 148 38 Q118 60 98.5 87 Q79 114 68 139 L68 562 Z " />
<glyph glyph-name="P" unicode="P" horiz-adv-x="561" d="M82 700 L317 700 Q378 700 430 669 Q482 638 512 582 L512 388 Q485 338 435 304 Q385 270 317 270 L145 270 L145 0 L82 0 L82 700 Z M304 322 Q350 322 388.5 344 Q427 366 450 408 L450 562 Q424 610 383 629 Q342 648 303 648 L145 648 L145 322 L304 322 Z " />
<glyph glyph-name="Q" unicode="Q" horiz-adv-x="626" d="M68 562 Q79 587 98.5 614 Q118 641 148 663 Q178 685 219 699.5 Q260 714 313 714 Q366 714 407 699.5 Q448 685 478 663 Q508 641 527.5 614 Q547 587 558 562 L558 139 Q549 118 533 95 Q517 72 494.5 51.5 Q472 31 441.5 15.5 Q411 0 372 -7 Q382 -29 398.5 -45.5 Q415 -62 433.5 -73.5 Q452 -85 470.5 -91 Q489 -97 503 -97 L559 -97 L559 -145 L496 -145 Q469 -145 441 -134.5 Q413 -124 387.5 -106 Q362 -88 342.5 -64 Q323 -40 313 -13 Q260 -13 219 1.5 Q178 16 148 38 Q118 60 98.5 87 Q79 114 68 139 L68 562 Z M131 154 Q140 132 156 111.5 Q172 91 195 75 Q218 59 247.5 49.5 Q277 40 313 40 Q349 40 378.5 49.5 Q408 59 431 75 Q454 91 470 111.5 Q486 132 495 154 L495 547 Q486 569 470 589.5 Q454 610 431 626 Q408 642 378.5 651.5 Q349 661 313 661 Q277 661 247.5 651.5 Q218 642 195 626 Q172 610 156 589.5 Q140 569 131 547 L131 154 Z " />
<glyph glyph-name="R" unicode="R" horiz-adv-x="584" d="M278 297 L145 297 L145 0 L82 0 L82 700 L325 700 Q387 700 439 668.5 Q491 637 520 582 L520 414 Q495 369 451.5 337 Q408 305 348 298 L524 44 L524 0 L482 0 L278 297 Z M312 348 Q361 348 398.5 369.5 Q436 391 459 431 L459 562 Q436 606 396.5 627 Q357 648 312 648 L145 648 L145 348 L312 348 Z " />
<glyph glyph-name="S" unicode="S" horiz-adv-x="585" d="M57 216 L119 216 L119 137 Q127 121 141.5 104 Q156 87 178 72.5 Q200 58 228.5 49 Q257 40 293 40 Q329 40 357.5 49.5 Q386 59 407.5 73 Q429 87 443.5 104.5 Q458 122 466 137 L466 237 Q459 250 449.5 262 Q440 274 424 285.5 Q408 297 385 307 Q362 317 328 326 L250 346 Q200 358 167.5 372.5 Q135 387 113.5 402 Q92 417 79.5 433 Q67 449 57 466 L57 582 Q67 600 85 623 Q103 646 131.5 666.5 Q160 687 199.5 700.5 Q239 714 293 714 Q346 714 386 700 Q426 686 454.5 665.5 Q483 645 501 622.5 Q519 600 528 582 L528 495 L466 495 L466 564 Q458 580 443.5 597 Q429 614 407.5 628.5 Q386 643 357.5 652 Q329 661 293 661 Q257 661 228.5 651.5 Q200 642 178 628 Q156 614 141.5 596.5 Q127 579 119 564 L119 489 Q126 475 136 463.5 Q146 452 162 441.5 Q178 431 202 421 Q226 411 262 401 L338 381 Q387 369 419 354.5 Q451 340 472 324.5 Q493 309 505.5 292.5 Q518 276 528 259 L528 118 Q518 100 500 77.5 Q482 55 453.5 34.5 Q425 14 385.5 0.5 Q346 -13 293 -13 Q239 -13 199.5 1 Q160 15 131.5 35 Q103 55 85 77.5 Q67 100 57 118 L57 216 Z " />
<glyph glyph-name="T" unicode="T" horiz-adv-x="524" d="M231 648 L25 648 L25 700 L499 700 L499 648 L294 648 L294 0 L231 0 L231 648 Z " />
<glyph glyph-name="U" unicode="U" horiz-adv-x="644" d="M567 700 L567 139 Q556 114 536.5 87 Q517 60 487 38 Q457 16 416 1.5 Q375 -13 322 -13 Q269 -13 228 1.5 Q187 16 157 38 Q127 60 107.5 87 Q88 114 77 139 L77 700 L140 700 L140 154 Q149 132 165 111.5 Q181 91 204 75 Q227 59 256.5 49.5 Q286 40 322 40 Q358 40 387.5 49.5 Q417 59 440 75 Q463 91 479 111.5 Q495 132 504 154 L504 700 L567 700 Z " />
<glyph glyph-name="V" unicode="V" horiz-adv-x="582" d="M32 656 L32 700 L89 700 L285 68 L301 68 L497 700 L549 700 L549 656 L342 0 L240 0 L32 656 Z " />
<glyph glyph-name="W" unicode="W" horiz-adv-x="883" d="M37 656 L37 700 L94 700 L220 76 L236 76 L401 700 L481 700 L647 76 L663 76 L789 700 L845 700 L845 656 L708 0 L610 0 L447 603 L431 603 L269 0 L175 0 L37 656 Z " />
<glyph glyph-name="X" unicode="X" horiz-adv-x="570" d="M50 44 L241 350 L50 656 L50 700 L98 700 L279 398 L295 398 L477 700 L520 700 L520 656 L328 351 L520 44 L520 0 L472 0 L292 303 L276 303 L93 0 L50 0 L50 44 Z " />
<glyph glyph-name="Y" unicode="Y" horiz-adv-x="543" d="M237 315 L38 656 L38 700 L84 700 L264 386 L280 386 L460 700 L505 700 L505 656 L301 310 L301 0 L237 0 L237 315 Z " />
<glyph glyph-name="Z" unicode="Z" horiz-adv-x="565" d="M50 44 L431 636 L431 648 L59 648 L59 700 L515 700 L515 656 L135 64 L135 52 L515 52 L515 0 L50 0 L50 44 Z " />
<glyph glyph-name="Agrave" unicode="&#xc0;" horiz-adv-x="599" d="M32 44 L249 700 L350 700 L566 44 L566 0 L514 0 L434 247 L160 247 L80 0 L32 0 L32 44 Z M177 299 L417 299 L306 645 L290 645 L177 299 Z M198 870 L198 901 L252 901 L323 769 L323 753 L279 753 L198 870 Z " />
<glyph glyph-name="Aacute" unicode="&#xc1;" horiz-adv-x="599" d="M32 44 L249 700 L350 700 L566 44 L566 0 L514 0 L434 247 L160 247 L80 0 L32 0 L32 44 Z M177 299 L417 299 L306 645 L290 645 L177 299 Z M271 769 L342 901 L396 901 L396 870 L315 753 L271 753 L271 769 Z " />
<glyph glyph-name="Acircumflex" unicode="&#xc2;" horiz-adv-x="599" d="M32 44 L249 700 L350 700 L566 44 L566 0 L514 0 L434 247 L160 247 L80 0 L32 0 L32 44 Z M177 299 L417 299 L306 645 L290 645 L177 299 Z M163 769 L257 901 L336 901 L431 769 L431 753 L388 753 L297 867 L205 753 L163 753 L163 769 Z " />
<glyph glyph-name="Atilde" unicode="&#xc3;" horiz-adv-x="599" d="M32 44 L249 700 L350 700 L566 44 L566 0 L514 0 L434 247 L160 247 L80 0 L32 0 L32 44 Z M177 299 L417 299 L306 645 L290 645 L177 299 Z M468 818 Q458 795 436 778 Q414 761 376 761 Q350 761 330 769.5 Q310 778 292.5 788.5 Q275 799 258.5 807.5 Q242 816 223 816 Q198 816 186 805 Q174 794 169 786 L169 767 L127 767 L127 802 Q139 829 163 844 Q187 859 220 859 Q246 859 266 850.5 Q286 842 303.5 831.5 Q321 821 337.5 812.5 Q354 804 373 804 Q394 804 407.5 813 Q421 822 426 834 L426 853 L468 853 L468 818 Z " />
<glyph glyph-name="Adieresis" unicode="&#xc4;" horiz-adv-x="599" d="M32 44 L249 700 L350 700 L566 44 L566 0 L514 0 L434 247 L160 247 L80 0 L32 0 L32 44 Z M177 299 L417 299 L306 645 L290 645 L177 299 Z M163 835 Q167 839 176 844 Q185 849 200 849 Q215 849 224.5 844 Q234 839 237 835 L237 787 Q234 783 224.5 778 Q215 773 200 773 Q185 773 176 778 Q167 783 163 787 L163 835 Z M359 835 Q363 839 372 844 Q381 849 396 849 Q411 849 420.5 844 Q430 839 433 835 L433 787 Q430 783 420.5 778 Q411 773 396 773 Q381 773 372 778 Q363 783 359 787 L359 835 Z " />
<glyph glyph-name="Amacron" unicode="&#x100;" horiz-adv-x="599" d="M32 44 L249 700 L350 700 L566 44 L566 0 L514 0 L434 247 L160 247 L80 0 L32 0 L32 44 Z M177 299 L417 299 L306 645 L290 645 L177 299 Z M139 821 L455 821 L455 774 L139 774 L139 821 Z " />
<glyph glyph-name="Abreve" unicode="&#x102;" horiz-adv-x="599" d="M32 44 L249 700 L350 700 L566 44 L566 0 L514 0 L434 247 L160 247 L80 0 L32 0 L32 44 Z M177 299 L417 299 L306 645 L290 645 L177 299 Z M166 859 L214 859 L214 835 Q216 830 221.5 822.5 Q227 815 237 808 Q247 801 261.5 796 Q276 791 297 791 Q318 791 332.5 796 Q347 801 356.5 808 Q366 815 371.5 822.5 Q377 830 379 835 L379 859 L427 859 L427 821 Q422 810 412 797.5 Q402 785 386.5 774.5 Q371 764 349 757 Q327 750 297 750 Q267 750 245 757 Q223 764 207.5 774.5 Q192 785 182 797.5 Q172 810 166 821 L166 859 Z " />
<glyph glyph-name="Aring" unicode="&#xc5;" horiz-adv-x="599" d="M32 44 L245 688 Q242 690 240 691 Q216 707 206 726 L206 805 Q216 825 240 840.5 Q264 856 299 856 Q334 856 357.5 840.5 Q381 825 391 805 L391 726 Q381 707 357 691 Q355 690 353 689 L566 44 L566 0 L514 0 L434 247 L160 247 L80 0 L32 0 L32 44 Z M177 299 L417 299 L306 645 L290 645 L177 299 Z M244 736 Q249 727 263 718 Q277 709 299 709 Q321 709 334.5 718 Q348 727 353 736 L353 796 Q348 805 334.5 813.5 Q321 822 299 822 Q277 822 263 813.5 Q249 805 244 796 L244 736 Z " />
<glyph glyph-name="Aogonek" unicode="&#x104;" horiz-adv-x="599" d="M397 -120 Q402 -110 413 -94.5 Q424 -79 441 -60.5 Q458 -42 480 -22 Q495 -8 512 4 L434 247 L160 247 L80 0 L32 0 L32 44 L249 700 L350 700 L566 44 L566 0 Q506 -45 477.5 -80 Q449 -115 444 -126 L444 -164 Q449 -171 463.5 -179 Q478 -187 498 -187 Q518 -187 533.5 -183.5 Q549 -180 566 -171 L566 -210 Q551 -219 534.5 -223 Q518 -227 492 -227 Q458 -227 432.5 -214.5 Q407 -202 397 -182 L397 -120 Z M177 299 L417 299 L306 645 L290 645 L177 299 Z " />
<glyph glyph-name="AE" unicode="&#xc6;" horiz-adv-x="838" d="M377 236 L164 236 L70 0 L23 0 L23 44 L291 700 L778 700 L778 648 L441 648 L441 387 L755 387 L755 335 L441 335 L441 52 L787 52 L787 0 L377 0 L377 236 Z M185 288 L377 288 L377 648 L329 648 L185 288 Z " />
<glyph glyph-name="AEacute" unicode="&#x1fc;" horiz-adv-x="838" d="M377 236 L164 236 L70 0 L23 0 L23 44 L291 700 L778 700 L778 648 L441 648 L441 387 L755 387 L755 335 L441 335 L441 52 L787 52 L787 0 L377 0 L377 236 Z M185 288 L377 288 L377 648 L329 648 L185 288 Z M469 769 L540 901 L594 901 L594 870 L513 753 L469 753 L469 769 Z " />
<glyph glyph-name="Cacute" unicode="&#x106;" horiz-adv-x="616" d="M556 259 L556 136 Q545 112 525.5 85.5 Q506 59 476.5 37 Q447 15 406.5 1 Q366 -13 313 -13 Q260 -13 219 1.5 Q178 16 148 38 Q118 60 98.5 87 Q79 114 68 139 L68 562 Q79 587 98.5 614 Q118 641 148 663 Q178 685 219 699.5 Q260 714 313 714 Q366 714 407 700 Q448 686 477.5 664 Q507 642 526 615.5 Q545 589 556 565 L556 452 L495 452 L495 547 Q486 569 470 589.5 Q454 610 431 626 Q408 642 378.5 651.5 Q349 661 313 661 Q277 661 247.5 651.5 Q218 642 195 626 Q172 610 156 589.5 Q140 569 131 547 L131 154 Q140 132 156 111.5 Q172 91 195 75 Q218 59 247.5 49.5 Q277 40 313 40 Q349 40 378.5 49.5 Q408 59 431 75 Q454 91 470 111.5 Q486 132 495 154 L495 259 L556 259 Z M285 772 L356 904 L410 904 L410 873 L329 756 L285 756 L285 772 Z " />
<glyph glyph-name="Ccircumflex" unicode="&#x108;" horiz-adv-x="616" d="M556 259 L556 136 Q545 112 525.5 85.5 Q506 59 476.5 37 Q447 15 406.5 1 Q366 -13 313 -13 Q260 -13 219 1.5 Q178 16 148 38 Q118 60 98.5 87 Q79 114 68 139 L68 562 Q79 587 98.5 614 Q118 641 148 663 Q178 685 219 699.5 Q260 714 313 714 Q366 714 407 700 Q448 686 477.5 664 Q507 642 526 615.5 Q545 589 556 565 L556 452 L495 452 L495 547 Q486 569 470 589.5 Q454 610 431 626 Q408 642 378.5 651.5 Q349 661 313 661 Q277 661 247.5 651.5 Q218 642 195 626 Q172 610 156 589.5 Q140 569 131 547 L131 154 Q140 132 156 111.5 Q172 91 195 75 Q218 59 247.5 49.5 Q277 40 313 40 Q349 40 378.5 49.5 Q408 59 431 75 Q454 91 470 111.5 Q486 132 495 154 L495 259 L556 259 Z M184 771 L278 903 L357 903 L452 771 L452 755 L409 755 L318 869 L226 755 L184 755 L184 771 Z " />
<glyph glyph-name="Ccaron" unicode="&#x10c;" horiz-adv-x="616" d="M556 259 L556 136 Q545 112 525.5 85.5 Q506 59 476.5 37 Q447 15 406.5 1 Q366 -13 313 -13 Q260 -13 219 1.5 Q178 16 148 38 Q118 60 98.5 87 Q79 114 68 139 L68 562 Q79 587 98.5 614 Q118 641 148 663 Q178 685 219 699.5 Q260 714 313 714 Q366 714 407 700 Q448 686 477.5 664 Q507 642 526 615.5 Q545 589 556 565 L556 452 L495 452 L495 547 Q486 569 470 589.5 Q454 610 431 626 Q408 642 378.5 651.5 Q349 661 313 661 Q277 661 247.5 651.5 Q218 642 195 626 Q172 610 156 589.5 Q140 569 131 547 L131 154 Q140 132 156 111.5 Q172 91 195 75 Q218 59 247.5 49.5 Q277 40 313 40 Q349 40 378.5 49.5 Q408 59 431 75 Q454 91 470 111.5 Q486 132 495 154 L495 259 L556 259 Z M180 888 L180 903 L222 903 L314 790 L405 903 L448 903 L448 888 L353 755 L274 755 L180 888 Z " />
<glyph glyph-name="Cdotaccent" unicode="&#x10a;" horiz-adv-x="616" d="M556 259 L556 136 Q545 112 525.5 85.5 Q506 59 476.5 37 Q447 15 406.5 1 Q366 -13 313 -13 Q260 -13 219 1.5 Q178 16 148 38 Q118 60 98.5 87 Q79 114 68 139 L68 562 Q79 587 98.5 614 Q118 641 148 663 Q178 685 219 699.5 Q260 714 313 714 Q366 714 407 700 Q448 686 477.5 664 Q507 642 526 615.5 Q545 589 556 565 L556 452 L495 452 L495 547 Q486 569 470 589.5 Q454 610 431 626 Q408 642 378.5 651.5 Q349 661 313 661 Q277 661 247.5 651.5 Q218 642 195 626 Q172 610 156 589.5 Q140 569 131 547 L131 154 Q140 132 156 111.5 Q172 91 195 75 Q218 59 247.5 49.5 Q277 40 313 40 Q349 40 378.5 49.5 Q408 59 431 75 Q454 91 470 111.5 Q486 132 495 154 L495 259 L556 259 Z M275 844 Q278 850 287.5 856 Q297 862 313 862 Q328 862 337.5 856 Q347 850 351 844 L351 801 Q347 795 337.5 789.5 Q328 784 313 784 Q297 784 287.5 789.5 Q278 795 275 801 L275 844 Z " />
<glyph glyph-name="Ccedilla" unicode="&#xc7;" horiz-adv-x="616" d="M237 -179 Q253 -188 273 -195 Q293 -202 317 -202 Q338 -202 351.5 -193.5 Q365 -185 369 -176 L369 -121 Q365 -113 351.5 -104.5 Q338 -96 318 -96 L261 -96 L285 -12 Q249 -9 219 1 Q178 16 148 38 Q118 60 98.5 87 Q79 114 68 139 L68 562 Q79 587 98.5 614 Q118 641 148 663 Q178 685 219 699.5 Q260 714 313 714 Q366 714 407 700 Q448 686 477.5 664 Q507 642 526 615.5 Q545 589 556 565 L556 452 L495 452 L495 547 Q486 569 470 589.5 Q454 610 431 626 Q408 642 378.5 651.5 Q349 661 313 661 Q277 661 247.5 651.5 Q218 642 195 626 Q172 610 156 589.5 Q140 569 131 547 L131 154 Q140 132 156 111.5 Q172 91 195 75 Q218 59 247.5 49.5 Q277 40 313 40 Q349 40 378.5 49.5 Q408 59 431 75 Q454 91 470 111.5 Q486 132 495 154 L495 259 L556 259 L556 136 Q545 112 525.5 85.5 Q506 59 476.5 37 Q447 15 406 1 Q369 -12 321 -13 L306 -65 L327 -65 Q360 -65 380.5 -79.5 Q401 -94 409 -110 L409 -189 Q400 -207 377 -221.5 Q354 -236 319 -236 Q290 -236 267 -229 Q244 -222 228 -211 L237 -179 Z " />
<glyph glyph-name="Dcaron" unicode="&#x10e;" horiz-adv-x="623" d="M492 545 Q474 590 428 619 Q382 648 310 648 L145 648 L145 52 L310 52 Q382 52 428 81 Q474 110 492 155 L492 545 Z M555 138 Q544 113 524.5 88 Q505 63 476 43.5 Q447 24 408 12 Q369 0 318 0 L82 0 L82 700 L318 700 Q369 700 408 688 Q447 676 476 656.5 Q505 637 524.5 612 Q544 587 555 562 L555 138 Z M173 886 L173 901 L215 901 L307 788 L398 901 L441 901 L441 886 L346 753 L267 753 L173 886 Z " />
<glyph glyph-name="Dcroat" unicode="&#x110;" horiz-adv-x="651" d="M45 382 L108 382 L108 700 L345 700 Q396 700 435 688 Q474 676 503 656.5 Q532 637 551.5 612 Q571 587 582 562 L582 138 Q571 113 551.5 88 Q532 63 503 43.5 Q474 24 435 12 Q396 0 345 0 L108 0 L108 330 L45 330 L45 382 Z M518 545 Q501 590 455 619 Q409 648 337 648 L172 648 L172 382 L364 382 L364 330 L172 330 L172 52 L337 52 Q409 52 455 81 Q501 110 518 155 L518 545 Z " />
<glyph glyph-name="Egrave" unicode="&#xc8;" horiz-adv-x="542" d="M82 700 L482 700 L482 648 L145 648 L145 387 L459 387 L459 335 L145 335 L145 52 L491 52 L491 0 L82 0 L82 700 Z M200 870 L200 901 L254 901 L325 769 L325 753 L281 753 L200 870 Z " />
<glyph glyph-name="Eacute" unicode="&#xc9;" horiz-adv-x="542" d="M82 700 L482 700 L482 648 L145 648 L145 387 L459 387 L459 335 L145 335 L145 52 L491 52 L491 0 L82 0 L82 700 Z M262 769 L333 901 L387 901 L387 870 L306 753 L262 753 L262 769 Z " />
<glyph glyph-name="Ecircumflex" unicode="&#xca;" horiz-adv-x="542" d="M82 700 L482 700 L482 648 L145 648 L145 387 L459 387 L459 335 L145 335 L145 52 L491 52 L491 0 L82 0 L82 700 Z M150 769 L244 901 L323 901 L418 769 L418 753 L375 753 L284 867 L192 753 L150 753 L150 769 Z " />
<glyph glyph-name="Ecaron" unicode="&#x11a;" horiz-adv-x="542" d="M82 700 L482 700 L482 648 L145 648 L145 387 L459 387 L459 335 L145 335 L145 52 L491 52 L491 0 L82 0 L82 700 Z M157 886 L157 901 L199 901 L291 788 L382 901 L425 901 L425 886 L330 753 L251 753 L157 886 Z " />
<glyph glyph-name="Edieresis" unicode="&#xcb;" horiz-adv-x="542" d="M82 700 L482 700 L482 648 L145 648 L145 387 L459 387 L459 335 L145 335 L145 52 L491 52 L491 0 L82 0 L82 700 Z M150 835 Q154 839 163 844 Q172 849 187 849 Q202 849 211.5 844 Q221 839 224 835 L224 787 Q221 783 211.5 778 Q202 773 187 773 Q172 773 163 778 Q154 783 150 787 L150 835 Z M346 835 Q350 839 359 844 Q368 849 383 849 Q398 849 407.5 844 Q417 839 420 835 L420 787 Q417 783 407.5 778 Q398 773 383 773 Q368 773 359 778 Q350 783 346 787 L346 835 Z " />
<glyph glyph-name="Emacron" unicode="&#x112;" horiz-adv-x="542" d="M82 700 L482 700 L482 648 L145 648 L145 387 L459 387 L459 335 L145 335 L145 52 L491 52 L491 0 L82 0 L82 700 Z M125 821 L441 821 L441 774 L125 774 L125 821 Z " />
<glyph glyph-name="Ebreve" unicode="&#x114;" horiz-adv-x="542" d="M82 700 L482 700 L482 648 L145 648 L145 387 L459 387 L459 335 L145 335 L145 52 L491 52 L491 0 L82 0 L82 700 Z M152 859 L200 859 L200 835 Q202 830 207.5 822.5 Q213 815 223 808 Q233 801 247.5 796 Q262 791 283 791 Q304 791 318.5 796 Q333 801 342.5 808 Q352 815 357.5 822.5 Q363 830 365 835 L365 859 L413 859 L413 821 Q408 810 398 797.5 Q388 785 372.5 774.5 Q357 764 335 757 Q313 750 283 750 Q253 750 231 757 Q209 764 193.5 774.5 Q178 785 168 797.5 Q158 810 152 821 L152 859 Z " />
<glyph glyph-name="Edotaccent" unicode="&#x116;" horiz-adv-x="542" d="M82 700 L482 700 L482 648 L145 648 L145 387 L459 387 L459 335 L145 335 L145 52 L491 52 L491 0 L82 0 L82 700 Z M254 842 Q257 848 266.5 854 Q276 860 292 860 Q307 860 316.5 854 Q326 848 330 842 L330 799 Q326 793 316.5 787.5 Q307 782 292 782 Q276 782 266.5 787.5 Q257 793 254 799 L254 842 Z " />
<glyph glyph-name="Eogonek" unicode="&#x118;" horiz-adv-x="542" d="M322 -120 Q327 -110 338 -94.5 Q349 -79 366 -60.5 Q383 -42 405 -22 Q418 -10 432 0 L82 0 L82 700 L482 700 L482 648 L145 648 L145 387 L459 387 L459 335 L145 335 L145 52 L491 52 L491 0 Q431 -45 402.5 -80.5 Q374 -116 369 -126 L369 -164 Q374 -172 390.5 -179.5 Q407 -187 423 -187 Q443 -187 458.5 -183 Q474 -179 491 -171 L491 -210 Q476 -219 459.5 -223 Q443 -227 417 -227 Q383 -227 357.5 -214.5 Q332 -202 322 -182 L322 -120 Z " />
<glyph glyph-name="Gcircumflex" unicode="&#x11c;" horiz-adv-x="616" d="M332 358 L556 358 L556 136 Q545 112 525.5 85.5 Q506 59 476.5 37 Q447 15 406.5 1 Q366 -13 313 -13 Q260 -13 219 1.5 Q178 16 148 38 Q118 60 98.5 87 Q79 114 68 139 L68 562 Q79 587 98.5 614 Q118 641 148 663 Q178 685 219 699.5 Q260 714 313 714 Q366 714 407 700 Q448 686 477.5 664 Q507 642 526 615.5 Q545 589 556 565 L556 467 L495 467 L495 547 Q486 569 470 589.5 Q454 610 431 626 Q408 642 378.5 651.5 Q349 661 313 661 Q277 661 247.5 651.5 Q218 642 195 626 Q172 610 156 589.5 Q140 569 131 547 L131 154 Q140 132 156 111.5 Q172 91 195.5 75 Q219 59 248.5 49.5 Q278 40 314 40 Q350 40 379.5 49.5 Q409 59 432 74.5 Q455 90 471 110.5 Q487 131 496 153 L496 306 L332 306 L332 358 Z M180 771 L274 903 L353 903 L448 771 L448 755 L405 755 L314 869 L222 755 L180 755 L180 771 Z " />
<glyph glyph-name="Gbreve" unicode="&#x11e;" horiz-adv-x="616" d="M332 358 L556 358 L556 136 Q545 112 525.5 85.5 Q506 59 476.5 37 Q447 15 406.5 1 Q366 -13 313 -13 Q260 -13 219 1.5 Q178 16 148 38 Q118 60 98.5 87 Q79 114 68 139 L68 562 Q79 587 98.5 614 Q118 641 148 663 Q178 685 219 699.5 Q260 714 313 714 Q366 714 407 700 Q448 686 477.5 664 Q507 642 526 615.5 Q545 589 556 565 L556 467 L495 467 L495 547 Q486 569 470 589.5 Q454 610 431 626 Q408 642 378.5 651.5 Q349 661 313 661 Q277 661 247.5 651.5 Q218 642 195 626 Q172 610 156 589.5 Q140 569 131 547 L131 154 Q140 132 156 111.5 Q172 91 195.5 75 Q219 59 248.5 49.5 Q278 40 314 40 Q350 40 379.5 49.5 Q409 59 432 74.5 Q455 90 471 110.5 Q487 131 496 153 L496 306 L332 306 L332 358 Z M184 861 L232 861 L232 837 Q234 832 239.5 824.5 Q245 817 255 810 Q265 803 279.5 798 Q294 793 315 793 Q336 793 350.5 798 Q365 803 374.5 810 Q384 817 389.5 824.5 Q395 832 397 837 L397 861 L445 861 L445 823 Q440 812 430 799.5 Q420 787 404.5 776.5 Q389 766 367 759 Q345 752 315 752 Q285 752 263 759 Q241 766 225.5 776.5 Q210 787 200 799.5 Q190 812 184 823 L184 861 Z " />
<glyph glyph-name="Gdotaccent" unicode="&#x120;" horiz-adv-x="616" d="M332 358 L556 358 L556 136 Q545 112 525.5 85.5 Q506 59 476.5 37 Q447 15 406.5 1 Q366 -13 313 -13 Q260 -13 219 1.5 Q178 16 148 38 Q118 60 98.5 87 Q79 114 68 139 L68 562 Q79 587 98.5 614 Q118 641 148 663 Q178 685 219 699.5 Q260 714 313 714 Q366 714 407 700 Q448 686 477.5 664 Q507 642 526 615.5 Q545 589 556 565 L556 467 L495 467 L495 547 Q486 569 470 589.5 Q454 610 431 626 Q408 642 378.5 651.5 Q349 661 313 661 Q277 661 247.5 651.5 Q218 642 195 626 Q172 610 156 589.5 Q140 569 131 547 L131 154 Q140 132 156 111.5 Q172 91 195.5 75 Q219 59 248.5 49.5 Q278 40 314 40 Q350 40 379.5 49.5 Q409 59 432 74.5 Q455 90 471 110.5 Q487 131 496 153 L496 306 L332 306 L332 358 Z M275 843 Q278 849 287.5 855 Q297 861 313 861 Q328 861 337.5 855 Q347 849 351 843 L351 800 Q347 794 337.5 788.5 Q328 783 313 783 Q297 783 287.5 788.5 Q278 794 275 800 L275 843 Z " />
<glyph glyph-name="Gcommaaccent" unicode="&#x122;" horiz-adv-x="616" d="M332 358 L556 358 L556 136 Q545 112 525.5 85.5 Q506 59 476.5 37 Q447 15 406.5 1 Q366 -13 313 -13 Q260 -13 219 1.5 Q178 16 148 38 Q118 60 98.5 87 Q79 114 68 139 L68 562 Q79 587 98.5 614 Q118 641 148 663 Q178 685 219 699.5 Q260 714 313 714 Q366 714 407 700 Q448 686 477.5 664 Q507 642 526 615.5 Q545 589 556 565 L556 467 L495 467 L495 547 Q486 569 470 589.5 Q454 610 431 626 Q408 642 378.5 651.5 Q349 661 313 661 Q277 661 247.5 651.5 Q218 642 195 626 Q172 610 156 589.5 Q140 569 131 547 L131 154 Q140 132 156 111.5 Q172 91 195.5 75 Q219 59 248.5 49.5 Q278 40 314 40 Q350 40 379.5 49.5 Q409 59 432 74.5 Q455 90 471 110.5 Q487 131 496 153 L496 306 L332 306 L332 358 Z M283 -165 L296 -165 Q307 -165 312 -156 L312 -126 Q298 -126 289 -122.5 Q280 -119 277 -115 L277 -74 Q280 -70 289 -66 Q298 -62 312 -62 Q326 -62 335 -66 Q344 -70 346 -74 L346 -159 Q344 -167 332.5 -177.5 Q321 -188 301 -188 L283 -188 L283 -165 Z " />
<glyph glyph-name="Hcircumflex" unicode="&#x124;" horiz-adv-x="641" d="M82 700 L145 700 L145 387 L496 387 L496 700 L559 700 L559 0 L496 0 L496 335 L145 335 L145 0 L82 0 L82 700 Z M187 769 L281 901 L360 901 L455 769 L455 753 L412 753 L321 867 L229 753 L187 753 L187 769 Z " />
<glyph glyph-name="Hbar" unicode="&#x126;" horiz-adv-x="641" d="M32 608 L82 608 L82 700 L145 700 L145 608 L496 608 L496 700 L559 700 L559 608 L617 608 L617 563 L559 563 L559 0 L496 0 L496 334 L145 334 L145 0 L82 0 L82 563 L32 563 L32 608 Z M496 387 L496 563 L145 563 L145 387 L496 387 Z " />
<glyph glyph-name="Igrave" unicode="&#xcc;" horiz-adv-x="227" d="M82 700 L145 700 L145 0 L82 0 L82 700 Z M21 870 L21 901 L75 901 L146 769 L146 753 L102 753 L21 870 Z " />
<glyph glyph-name="Iacute" unicode="&#xcd;" horiz-adv-x="227" d="M82 700 L145 700 L145 0 L82 0 L82 700 Z M82 769 L153 901 L207 901 L207 870 L126 753 L82 753 L82 769 Z " />
<glyph glyph-name="Icircumflex" unicode="&#xce;" horiz-adv-x="227" d="M82 700 L145 700 L145 0 L82 0 L82 700 Z M-19 769 L75 901 L154 901 L249 769 L249 753 L206 753 L115 867 L23 753 L-19 753 L-19 769 Z " />
<glyph glyph-name="Itilde" unicode="&#x128;" horiz-adv-x="227" d="M82 700 L145 700 L145 0 L82 0 L82 700 Z M286 818 Q276 795 254 778 Q232 761 194 761 Q168 761 148 769.5 Q128 778 110.5 788.5 Q93 799 76.5 807.5 Q60 816 41 816 Q16 816 4 805 Q-8 794 -13 786 L-13 767 L-55 767 L-55 802 Q-43 829 -19 844 Q5 859 38 859 Q64 859 84 850.5 Q104 842 121.5 831.5 Q139 821 155.5 812.5 Q172 804 191 804 Q212 804 225.5 813 Q239 822 244 834 L244 853 L286 853 L286 818 Z " />
<glyph glyph-name="Idieresis" unicode="&#xcf;" horiz-adv-x="227" d="M82 700 L145 700 L145 0 L82 0 L82 700 Z M-19 836 Q-15 840 -6 845 Q3 850 18 850 Q33 850 42.5 845 Q52 840 55 836 L55 788 Q52 784 42.5 779 Q33 774 18 774 Q3 774 -6 779 Q-15 784 -19 788 L-19 836 Z M177 836 Q181 840 190 845 Q199 850 214 850 Q229 850 238.5 845 Q248 840 251 836 L251 788 Q248 784 238.5 779 Q229 774 214 774 Q199 774 190 779 Q181 784 177 788 L177 836 Z " />
<glyph glyph-name="Imacron" unicode="&#x12a;" horiz-adv-x="227" d="M82 700 L145 700 L145 0 L82 0 L82 700 Z M-43 821 L273 821 L273 774 L-43 774 L-43 821 Z " />
<glyph glyph-name="Ibreve" unicode="&#x12c;" horiz-adv-x="227" d="M82 700 L145 700 L145 0 L82 0 L82 700 Z M-16 859 L32 859 L32 835 Q34 830 39.5 822.5 Q45 815 55 808 Q65 801 79.5 796 Q94 791 115 791 Q136 791 150.5 796 Q165 801 174.5 808 Q184 815 189.5 822.5 Q195 830 197 835 L197 859 L245 859 L245 821 Q240 810 230 797.5 Q220 785 204.5 774.5 Q189 764 167 757 Q145 750 115 750 Q85 750 63 757 Q41 764 25.5 774.5 Q10 785 0 797.5 Q-10 810 -16 821 L-16 859 Z " />
<glyph glyph-name="Idotaccent" unicode="&#x130;" horiz-adv-x="227" d="M82 700 L145 700 L145 0 L82 0 L82 700 Z M77 842 Q80 848 89.5 854 Q99 860 115 860 Q130 860 139.5 854 Q149 848 153 842 L153 799 Q149 793 139.5 787.5 Q130 782 115 782 Q99 782 89.5 787.5 Q80 793 77 799 L77 842 Z " />
<glyph glyph-name="Iogonek" unicode="&#x12e;" horiz-adv-x="227" d="M-24 -120 Q-19 -110 -8 -94.5 Q3 -79 20 -60.5 Q37 -42 59 -22 Q70 -12 82 -3 L82 700 L145 700 L145 0 Q85 -45 56.5 -80.5 Q28 -116 23 -126 L23 -164 Q28 -173 42.5 -180 Q57 -187 77 -187 Q97 -187 112.5 -183.5 Q128 -180 145 -171 L145 -210 Q130 -219 113.5 -223 Q97 -227 71 -227 Q37 -227 11.5 -214.5 Q-14 -202 -24 -182 L-24 -120 Z " />
<glyph glyph-name="IJ" unicode="&#x132;" horiz-adv-x="604" d="M82 700 L145 700 L145 0 L82 0 L82 700 Z M238 52 L282 52 Q348 52 396 80 Q444 108 464 156 L464 700 L527 700 L527 139 Q514 110 493.5 84.5 Q473 59 443 40 Q413 21 373.5 10 Q334 -1 285 -1 Q274 -1 262.5 -1 Q251 -1 238 0 L238 52 Z " />
<glyph glyph-name="Jcircumflex" unicode="&#x134;" horiz-adv-x="386" d="M20 52 L64 52 Q130 52 178 80 Q226 108 246 156 L246 700 L309 700 L309 139 Q296 110 275.5 84.5 Q255 59 225 40 Q195 21 155.5 10 Q116 -1 67 -1 Q56 -1 44.5 -1 Q33 -1 20 0 L20 52 Z M143 769 L237 901 L316 901 L411 769 L411 753 L368 753 L277 867 L185 753 L143 753 L143 769 Z " />
<glyph glyph-name="Kcommaaccent" unicode="&#x136;" horiz-adv-x="559" d="M82 700 L145 700 L145 360 L158 360 L478 700 L517 700 L517 656 L272 399 L526 44 L526 0 L485 0 L231 356 L145 265 L145 0 L82 0 L82 700 Z M260 -165 L273 -165 Q284 -165 289 -156 L289 -126 Q275 -126 266 -122.5 Q257 -119 254 -115 L254 -74 Q257 -70 266 -66 Q275 -62 289 -62 Q303 -62 312 -66 Q321 -70 323 -74 L323 -159 Q321 -167 309.5 -177.5 Q298 -188 278 -188 L260 -188 L260 -165 Z " />
<glyph glyph-name="Lacute" unicode="&#x139;" horiz-adv-x="452" d="M82 700 L145 700 L145 52 L428 52 L428 0 L82 0 L82 700 Z M82 769 L153 901 L207 901 L207 870 L126 753 L82 753 L82 769 Z " />
<glyph glyph-name="Lcaron" unicode="&#x13d;" horiz-adv-x="452" d="M82 700 L145 700 L145 52 L428 52 L428 0 L82 0 L82 700 Z M262 554 L280 700 L331 700 L331 665 L301 538 L262 538 L262 554 Z " />
<glyph glyph-name="Lcommaaccent" unicode="&#x13b;" horiz-adv-x="452" d="M82 700 L145 700 L145 52 L428 52 L428 0 L82 0 L82 700 Z M228 -165 L241 -165 Q252 -165 257 -156 L257 -126 Q243 -126 234 -122.5 Q225 -119 222 -115 L222 -74 Q225 -70 234 -66 Q243 -62 257 -62 Q271 -62 280 -66 Q289 -70 291 -74 L291 -159 Q289 -167 277.5 -177.5 Q266 -188 246 -188 L228 -188 L228 -165 Z " />
<glyph glyph-name="Lslash" unicode="&#x141;" horiz-adv-x="483" d="M28 248 L113 292 L113 700 L176 700 L176 325 L378 430 L378 376 L176 271 L176 52 L459 52 L459 0 L113 0 L113 238 L28 194 L28 248 Z " />
<glyph glyph-name="Ldot" unicode="&#x13f;" horiz-adv-x="471" d="M82 700 L145 700 L145 52 L428 52 L428 0 L82 0 L82 700 Z M306 409 Q309 415 318.5 420.5 Q328 426 344 426 Q359 426 368.5 420.5 Q378 415 382 409 L382 366 Q378 360 368.5 354.5 Q359 349 344 349 Q328 349 318.5 354.5 Q309 360 306 366 L306 409 Z " />
<glyph glyph-name="Nacute" unicode="&#x143;" horiz-adv-x="657" d="M82 700 L176 700 L499 89 L515 89 L515 700 L575 700 L575 0 L481 0 L158 612 L142 612 L142 0 L82 0 L82 700 Z M323 762 L394 894 L448 894 L448 863 L367 746 L323 746 L323 762 Z " />
<glyph glyph-name="Ncaron" unicode="&#x147;" horiz-adv-x="657" d="M82 700 L176 700 L499 89 L515 89 L515 700 L575 700 L575 0 L481 0 L158 612 L142 612 L142 0 L82 0 L82 700 Z M214 879 L214 894 L256 894 L348 781 L439 894 L482 894 L482 879 L387 746 L308 746 L214 879 Z " />
<glyph glyph-name="Ntilde" unicode="&#xd1;" horiz-adv-x="657" d="M82 700 L176 700 L499 89 L515 89 L515 700 L575 700 L575 0 L481 0 L158 612 L142 612 L142 0 L82 0 L82 700 Z M504 818 Q494 795 472 778 Q450 761 412 761 Q386 761 366 769.5 Q346 778 328.5 788.5 Q311 799 294.5 807.5 Q278 816 259 816 Q234 816 222 805 Q210 794 205 786 L205 767 L163 767 L163 802 Q175 829 199 844 Q223 859 256 859 Q282 859 302 850.5 Q322 842 339.5 831.5 Q357 821 373.5 812.5 Q390 804 409 804 Q430 804 443.5 813 Q457 822 462 834 L462 853 L504 853 L504 818 Z " />
<glyph glyph-name="Ncommaaccent" unicode="&#x145;" horiz-adv-x="657" d="M82 700 L176 700 L499 89 L515 89 L515 700 L575 700 L575 0 L481 0 L158 612 L142 612 L142 0 L82 0 L82 700 Z M308 -164 L321 -164 Q332 -164 337 -155 L337 -125 Q323 -125 314 -121.5 Q305 -118 302 -114 L302 -73 Q305 -69 314 -65 Q323 -61 337 -61 Q351 -61 360 -65 Q369 -69 371 -73 L371 -158 Q369 -166 357.5 -176.5 Q346 -187 326 -187 L308 -187 L308 -164 Z " />
<glyph glyph-name="Ograve" unicode="&#xd2;" horiz-adv-x="626" d="M131 154 Q140 132 156 111.5 Q172 91 195 75 Q218 59 247.5 49.5 Q277 40 313 40 Q349 40 378.5 49.5 Q408 59 431 75 Q454 91 470 111.5 Q486 132 495 154 L495 547 Q486 569 470 589.5 Q454 610 431 626 Q408 642 378.5 651.5 Q349 661 313 661 Q277 661 247.5 651.5 Q218 642 195 626 Q172 610 156 589.5 Q140 569 131 547 L131 154 Z M68 562 Q79 587 98.5 614 Q118 641 148 663 Q178 685 219 699.5 Q260 714 313 714 Q366 714 407 699.5 Q448 685 478 663 Q508 641 527.5 614 Q547 587 558 562 L558 139 Q547 114 527.5 87 Q508 60 478 38 Q448 16 407 1.5 Q366 -13 313 -13 Q260 -13 219 1.5 Q178 16 148 38 Q118 60 98.5 87 Q79 114 68 139 L68 562 Z M211 872 L211 903 L265 903 L336 771 L336 755 L292 755 L211 872 Z " />
<glyph glyph-name="Oacute" unicode="&#xd3;" horiz-adv-x="626" d="M131 154 Q140 132 156 111.5 Q172 91 195 75 Q218 59 247.5 49.5 Q277 40 313 40 Q349 40 378.5 49.5 Q408 59 431 75 Q454 91 470 111.5 Q486 132 495 154 L495 547 Q486 569 470 589.5 Q454 610 431 626 Q408 642 378.5 651.5 Q349 661 313 661 Q277 661 247.5 651.5 Q218 642 195 626 Q172 610 156 589.5 Q140 569 131 547 L131 154 Z M68 562 Q79 587 98.5 614 Q118 641 148 663 Q178 685 219 699.5 Q260 714 313 714 Q366 714 407 699.5 Q448 685 478 663 Q508 641 527.5 614 Q547 587 558 562 L558 139 Q547 114 527.5 87 Q508 60 478 38 Q448 16 407 1.5 Q366 -13 313 -13 Q260 -13 219 1.5 Q178 16 148 38 Q118 60 98.5 87 Q79 114 68 139 L68 562 Z M290 771 L361 903 L415 903 L415 872 L334 755 L290 755 L290 771 Z " />
<glyph glyph-name="Ocircumflex" unicode="&#xd4;" horiz-adv-x="626" d="M131 154 Q140 132 156 111.5 Q172 91 195 75 Q218 59 247.5 49.5 Q277 40 313 40 Q349 40 378.5 49.5 Q408 59 431 75 Q454 91 470 111.5 Q486 132 495 154 L495 547 Q486 569 470 589.5 Q454 610 431 626 Q408 642 378.5 651.5 Q349 661 313 661 Q277 661 247.5 651.5 Q218 642 195 626 Q172 610 156 589.5 Q140 569 131 547 L131 154 Z M68 562 Q79 587 98.5 614 Q118 641 148 663 Q178 685 219 699.5 Q260 714 313 714 Q366 714 407 699.5 Q448 685 478 663 Q508 641 527.5 614 Q547 587 558 562 L558 139 Q547 114 527.5 87 Q508 60 478 38 Q448 16 407 1.5 Q366 -13 313 -13 Q260 -13 219 1.5 Q178 16 148 38 Q118 60 98.5 87 Q79 114 68 139 L68 562 Z M179 771 L273 903 L352 903 L447 771 L447 755 L404 755 L313 869 L221 755 L179 755 L179 771 Z " />
<glyph glyph-name="Otilde" unicode="&#xd5;" horiz-adv-x="626" d="M131 154 Q140 132 156 111.5 Q172 91 195 75 Q218 59 247.5 49.5 Q277 40 313 40 Q349 40 378.5 49.5 Q408 59 431 75 Q454 91 470 111.5 Q486 132 495 154 L495 547 Q486 569 470 589.5 Q454 610 431 626 Q408 642 378.5 651.5 Q349 661 313 661 Q277 661 247.5 651.5 Q218 642 195 626 Q172 610 156 589.5 Q140 569 131 547 L131 154 Z M68 562 Q79 587 98.5 614 Q118 641 148 663 Q178 685 219 699.5 Q260 714 313 714 Q366 714 407 699.5 Q448 685 478 663 Q508 641 527.5 614 Q547 587 558 562 L558 139 Q547 114 527.5 87 Q508 60 478 38 Q448 16 407 1.5 Q366 -13 313 -13 Q260 -13 219 1.5 Q178 16 148 38 Q118 60 98.5 87 Q79 114 68 139 L68 562 Z M483 820 Q473 797 451 780 Q429 763 391 763 Q365 763 345 771.5 Q325 780 307.5 790.5 Q290 801 273.5 809.5 Q257 818 238 818 Q213 818 201 807 Q189 796 184 788 L184 769 L142 769 L142 804 Q154 831 178 846 Q202 861 235 861 Q261 861 281 852.5 Q301 844 318.5 833.5 Q336 823 352.5 814.5 Q369 806 388 806 Q409 806 422.5 815 Q436 824 441 836 L441 855 L483 855 L483 820 Z " />
<glyph glyph-name="Odieresis" unicode="&#xd6;" horiz-adv-x="626" d="M131 154 Q140 132 156 111.5 Q172 91 195 75 Q218 59 247.5 49.5 Q277 40 313 40 Q349 40 378.5 49.5 Q408 59 431 75 Q454 91 470 111.5 Q486 132 495 154 L495 547 Q486 569 470 589.5 Q454 610 431 626 Q408 642 378.5 651.5 Q349 661 313 661 Q277 661 247.5 651.5 Q218 642 195 626 Q172 610 156 589.5 Q140 569 131 547 L131 154 Z M68 562 Q79 587 98.5 614 Q118 641 148 663 Q178 685 219 699.5 Q260 714 313 714 Q366 714 407 699.5 Q448 685 478 663 Q508 641 527.5 614 Q547 587 558 562 L558 139 Q547 114 527.5 87 Q508 60 478 38 Q448 16 407 1.5 Q366 -13 313 -13 Q260 -13 219 1.5 Q178 16 148 38 Q118 60 98.5 87 Q79 114 68 139 L68 562 Z M178 836 Q182 840 191 845 Q200 850 215 850 Q230 850 239.5 845 Q249 840 252 836 L252 788 Q249 784 239.5 779 Q230 774 215 774 Q200 774 191 779 Q182 784 178 788 L178 836 Z M374 836 Q378 840 387 845 Q396 850 411 850 Q426 850 435.5 845 Q445 840 448 836 L448 788 Q445 784 435.5 779 Q426 774 411 774 Q396 774 387 779 Q378 784 374 788 L374 836 Z " />
<glyph glyph-name="Omacron" unicode="&#x14c;" horiz-adv-x="626" d="M131 154 Q140 132 156 111.5 Q172 91 195 75 Q218 59 247.5 49.5 Q277 40 313 40 Q349 40 378.5 49.5 Q408 59 431 75 Q454 91 470 111.5 Q486 132 495 154 L495 547 Q486 569 470 589.5 Q454 610 431 626 Q408 642 378.5 651.5 Q349 661 313 661 Q277 661 247.5 651.5 Q218 642 195 626 Q172 610 156 589.5 Q140 569 131 547 L131 154 Z M68 562 Q79 587 98.5 614 Q118 641 148 663 Q178 685 219 699.5 Q260 714 313 714 Q366 714 407 699.5 Q448 685 478 663 Q508 641 527.5 614 Q547 587 558 562 L558 139 Q547 114 527.5 87 Q508 60 478 38 Q448 16 407 1.5 Q366 -13 313 -13 Q260 -13 219 1.5 Q178 16 148 38 Q118 60 98.5 87 Q79 114 68 139 L68 562 Z M155 823 L471 823 L471 776 L155 776 L155 823 Z " />
<glyph glyph-name="Obreve" unicode="&#x14e;" horiz-adv-x="626" d="M131 154 Q140 132 156 111.5 Q172 91 195 75 Q218 59 247.5 49.5 Q277 40 313 40 Q349 40 378.5 49.5 Q408 59 431 75 Q454 91 470 111.5 Q486 132 495 154 L495 547 Q486 569 470 589.5 Q454 610 431 626 Q408 642 378.5 651.5 Q349 661 313 661 Q277 661 247.5 651.5 Q218 642 195 626 Q172 610 156 589.5 Q140 569 131 547 L131 154 Z M68 562 Q79 587 98.5 614 Q118 641 148 663 Q178 685 219 699.5 Q260 714 313 714 Q366 714 407 699.5 Q448 685 478 663 Q508 641 527.5 614 Q547 587 558 562 L558 139 Q547 114 527.5 87 Q508 60 478 38 Q448 16 407 1.5 Q366 -13 313 -13 Q260 -13 219 1.5 Q178 16 148 38 Q118 60 98.5 87 Q79 114 68 139 L68 562 Z M182 861 L230 861 L230 837 Q232 832 237.5 824.5 Q243 817 253 810 Q263 803 277.5 798 Q292 793 313 793 Q334 793 348.5 798 Q363 803 372.5 810 Q382 817 387.5 824.5 Q393 832 395 837 L395 861 L443 861 L443 823 Q438 812 428 799.5 Q418 787 402.5 776.5 Q387 766 365 759 Q343 752 313 752 Q283 752 261 759 Q239 766 223.5 776.5 Q208 787 198 799.5 Q188 812 182 823 L182 861 Z " />
<glyph glyph-name="Ohungarumlaut" unicode="&#x150;" horiz-adv-x="626" d="M131 154 Q140 132 156 111.5 Q172 91 195 75 Q218 59 247.5 49.5 Q277 40 313 40 Q349 40 378.5 49.5 Q408 59 431 75 Q454 91 470 111.5 Q486 132 495 154 L495 547 Q486 569 470 589.5 Q454 610 431 626 Q408 642 378.5 651.5 Q349 661 313 661 Q277 661 247.5 651.5 Q218 642 195 626 Q172 610 156 589.5 Q140 569 131 547 L131 154 Z M68 562 Q79 587 98.5 614 Q118 641 148 663 Q178 685 219 699.5 Q260 714 313 714 Q366 714 407 699.5 Q448 685 478 663 Q508 641 527.5 614 Q547 587 558 562 L558 139 Q547 114 527.5 87 Q508 60 478 38 Q448 16 407 1.5 Q366 -13 313 -13 Q260 -13 219 1.5 Q178 16 148 38 Q118 60 98.5 87 Q79 114 68 139 L68 562 Z M209 766 L262 898 L311 898 L311 870 L248 750 L209 750 L209 766 Z M379 766 L431 898 L480 898 L480 870 L417 750 L379 750 L379 766 Z " />
<glyph glyph-name="Oslash" unicode="&#xd8;" horiz-adv-x="626" d="M68 25 L105 79 Q80 108 68 139 L68 562 Q79 587 98.5 614 Q118 641 148 663 Q178 685 219 699.5 Q260 714 313 714 Q374 714 418 695.5 Q462 677 493 650 L527 700 L558 700 L558 675 L521 621 Q533 607 542 591.5 Q551 576 558 562 L558 139 Q547 114 527.5 87 Q508 60 478 38 Q448 16 407 1.5 Q366 -13 313 -13 Q252 -13 208 5 Q164 23 133 50 L99 0 L68 0 L68 25 Z M131 154 Q133 149 135.5 143.5 Q138 138 141 133 L460 601 Q435 627 398 644 Q361 661 313 661 Q277 661 247.5 651.5 Q218 642 195 626 Q172 610 156 589.5 Q140 569 131 547 L131 154 Z M495 547 Q493 552 490.5 557 Q488 562 485 567 L166 99 Q191 73 228 56.5 Q265 40 313 40 Q349 40 378.5 49.5 Q408 59 431 75 Q454 91 470 111.5 Q486 132 495 154 L495 547 Z " />
<glyph glyph-name="Oslashacute" unicode="&#x1fe;" horiz-adv-x="626" d="M68 25 L105 79 Q80 108 68 139 L68 562 Q79 587 98.5 614 Q118 641 148 663 Q178 685 219 699.5 Q260 714 313 714 Q374 714 418 695.5 Q462 677 493 650 L527 700 L558 700 L558 675 L521 621 Q533 607 542 591.5 Q551 576 558 562 L558 139 Q547 114 527.5 87 Q508 60 478 38 Q448 16 407 1.5 Q366 -13 313 -13 Q252 -13 208 5 Q164 23 133 50 L99 0 L68 0 L68 25 Z M131 154 Q133 149 135.5 143.5 Q138 138 141 133 L460 601 Q435 627 398 644 Q361 661 313 661 Q277 661 247.5 651.5 Q218 642 195 626 Q172 610 156 589.5 Q140 569 131 547 L131 154 Z M495 547 Q493 552 490.5 557 Q488 562 485 567 L166 99 Q191 73 228 56.5 Q265 40 313 40 Q349 40 378.5 49.5 Q408 59 431 75 Q454 91 470 111.5 Q486 132 495 154 L495 547 Z M291 771 L362 903 L416 903 L416 872 L335 755 L291 755 L291 771 Z " />
<glyph glyph-name="OE" unicode="&#x152;" horiz-adv-x="954" d="M67 562 Q78 587 97.5 614 Q117 641 147 663 Q177 685 218 699.5 Q259 714 312 714 Q373 714 418 695.5 Q463 677 494 649 L494 700 L894 700 L894 648 L557 648 L557 387 L871 387 L871 335 L557 335 L557 52 L903 52 L903 0 L494 0 L494 51 Q463 24 418 5.5 Q373 -13 312 -13 Q259 -13 218 1.5 Q177 16 147 38 Q117 60 97.5 87 Q78 114 67 139 L67 562 Z M130 154 Q139 132 155 111.5 Q171 91 194 75 Q217 59 246.5 49.5 Q276 40 312 40 Q348 40 377.5 49.5 Q407 59 430 75 Q453 91 469 111.5 Q485 132 494 154 L494 547 Q485 569 469 589.5 Q453 610 430 626 Q407 642 377.5 651.5 Q348 661 312 661 Q276 661 246.5 651.5 Q217 642 194 626 Q171 610 155 589.5 Q139 569 130 547 L130 154 Z " />
<glyph glyph-name="Racute" unicode="&#x154;" horiz-adv-x="584" d="M278 297 L145 297 L145 0 L82 0 L82 700 L325 700 Q387 700 439 668.5 Q491 637 520 582 L520 414 Q495 369 451.5 337 Q408 305 348 298 L524 44 L524 0 L482 0 L278 297 Z M312 348 Q361 348 398.5 369.5 Q436 391 459 431 L459 562 Q436 606 396.5 627 Q357 648 312 648 L145 648 L145 348 L312 348 Z M249 769 L320 901 L374 901 L374 870 L293 753 L249 753 L249 769 Z " />
<glyph glyph-name="Rcaron" unicode="&#x158;" horiz-adv-x="584" d="M278 297 L145 297 L145 0 L82 0 L82 700 L325 700 Q387 700 439 668.5 Q491 637 520 582 L520 414 Q495 369 451.5 337 Q408 305 348 298 L524 44 L524 0 L482 0 L278 297 Z M312 348 Q361 348 398.5 369.5 Q436 391 459 431 L459 562 Q436 606 396.5 627 Q357 648 312 648 L145 648 L145 348 L312 348 Z M159 886 L159 901 L201 901 L293 788 L384 901 L427 901 L427 886 L332 753 L253 753 L159 886 Z " />
<glyph glyph-name="Rcommaaccent" unicode="&#x156;" horiz-adv-x="584" d="M278 297 L145 297 L145 0 L82 0 L82 700 L325 700 Q387 700 439 668.5 Q491 637 520 582 L520 414 Q495 369 451.5 337 Q408 305 348 298 L524 44 L524 0 L482 0 L278 297 Z M312 348 Q361 348 398.5 369.5 Q436 391 459 431 L459 562 Q436 606 396.5 627 Q357 648 312 648 L145 648 L145 348 L312 348 Z M259 -165 L272 -165 Q283 -165 288 -156 L288 -126 Q274 -126 265 -122.5 Q256 -119 253 -115 L253 -74 Q256 -70 265 -66 Q274 -62 288 -62 Q302 -62 311 -66 Q320 -70 322 -74 L322 -159 Q320 -167 308.5 -177.5 Q297 -188 277 -188 L259 -188 L259 -165 Z " />
<glyph glyph-name="Sacute" unicode="&#x15a;" horiz-adv-x="585" d="M57 216 L119 216 L119 137 Q127 121 141.5 104 Q156 87 178 72.5 Q200 58 228.5 49 Q257 40 293 40 Q329 40 357.5 49.5 Q386 59 407.5 73 Q429 87 443.5 104.5 Q458 122 466 137 L466 237 Q459 250 449.5 262 Q440 274 424 285.5 Q408 297 385 307 Q362 317 328 326 L250 346 Q200 358 167.5 372.5 Q135 387 113.5 402 Q92 417 79.5 433 Q67 449 57 466 L57 582 Q67 600 85 623 Q103 646 131.5 666.5 Q160 687 199.5 700.5 Q239 714 293 714 Q346 714 386 700 Q426 686 454.5 665.5 Q483 645 501 622.5 Q519 600 528 582 L528 495 L466 495 L466 564 Q458 580 443.5 597 Q429 614 407.5 628.5 Q386 643 357.5 652 Q329 661 293 661 Q257 661 228.5 651.5 Q200 642 178 628 Q156 614 141.5 596.5 Q127 579 119 564 L119 489 Q126 475 136 463.5 Q146 452 162 441.5 Q178 431 202 421 Q226 411 262 401 L338 381 Q387 369 419 354.5 Q451 340 472 324.5 Q493 309 505.5 292.5 Q518 276 528 259 L528 118 Q518 100 500 77.5 Q482 55 453.5 34.5 Q425 14 385.5 0.5 Q346 -13 293 -13 Q239 -13 199.5 1 Q160 15 131.5 35 Q103 55 85 77.5 Q67 100 57 118 L57 216 Z M268 771 L339 903 L393 903 L393 872 L312 755 L268 755 L268 771 Z " />
<glyph glyph-name="Scircumflex" unicode="&#x15c;" horiz-adv-x="585" d="M57 216 L119 216 L119 137 Q127 121 141.5 104 Q156 87 178 72.5 Q200 58 228.5 49 Q257 40 293 40 Q329 40 357.5 49.5 Q386 59 407.5 73 Q429 87 443.5 104.5 Q458 122 466 137 L466 237 Q459 250 449.5 262 Q440 274 424 285.5 Q408 297 385 307 Q362 317 328 326 L250 346 Q200 358 167.5 372.5 Q135 387 113.5 402 Q92 417 79.5 433 Q67 449 57 466 L57 582 Q67 600 85 623 Q103 646 131.5 666.5 Q160 687 199.5 700.5 Q239 714 293 714 Q346 714 386 700 Q426 686 454.5 665.5 Q483 645 501 622.5 Q519 600 528 582 L528 495 L466 495 L466 564 Q458 580 443.5 597 Q429 614 407.5 628.5 Q386 643 357.5 652 Q329 661 293 661 Q257 661 228.5 651.5 Q200 642 178 628 Q156 614 141.5 596.5 Q127 579 119 564 L119 489 Q126 475 136 463.5 Q146 452 162 441.5 Q178 431 202 421 Q226 411 262 401 L338 381 Q387 369 419 354.5 Q451 340 472 324.5 Q493 309 505.5 292.5 Q518 276 528 259 L528 118 Q518 100 500 77.5 Q482 55 453.5 34.5 Q425 14 385.5 0.5 Q346 -13 293 -13 Q239 -13 199.5 1 Q160 15 131.5 35 Q103 55 85 77.5 Q67 100 57 118 L57 216 Z M166 771 L260 903 L339 903 L434 771 L434 755 L391 755 L300 869 L208 755 L166 755 L166 771 Z " />
<glyph glyph-name="Scaron" unicode="&#x160;" horiz-adv-x="585" d="M57 216 L119 216 L119 137 Q127 121 141.5 104 Q156 87 178 72.5 Q200 58 228.5 49 Q257 40 293 40 Q329 40 357.5 49.5 Q386 59 407.5 73 Q429 87 443.5 104.5 Q458 122 466 137 L466 237 Q459 250 449.5 262 Q440 274 424 285.5 Q408 297 385 307 Q362 317 328 326 L250 346 Q200 358 167.5 372.5 Q135 387 113.5 402 Q92 417 79.5 433 Q67 449 57 466 L57 582 Q67 600 85 623 Q103 646 131.5 666.5 Q160 687 199.5 700.5 Q239 714 293 714 Q346 714 386 700 Q426 686 454.5 665.5 Q483 645 501 622.5 Q519 600 528 582 L528 495 L466 495 L466 564 Q458 580 443.5 597 Q429 614 407.5 628.5 Q386 643 357.5 652 Q329 661 293 661 Q257 661 228.5 651.5 Q200 642 178 628 Q156 614 141.5 596.5 Q127 579 119 564 L119 489 Q126 475 136 463.5 Q146 452 162 441.5 Q178 431 202 421 Q226 411 262 401 L338 381 Q387 369 419 354.5 Q451 340 472 324.5 Q493 309 505.5 292.5 Q518 276 528 259 L528 118 Q518 100 500 77.5 Q482 55 453.5 34.5 Q425 14 385.5 0.5 Q346 -13 293 -13 Q239 -13 199.5 1 Q160 15 131.5 35 Q103 55 85 77.5 Q67 100 57 118 L57 216 Z M165 888 L165 903 L207 903 L299 790 L390 903 L433 903 L433 888 L338 755 L259 755 L165 888 Z " />
<glyph glyph-name="Scedilla" unicode="&#x15e;" horiz-adv-x="585" d="M216 -175 Q232 -184 252 -191 Q272 -198 296 -198 Q317 -198 328.5 -189.5 Q340 -181 344 -172 L344 -125 Q340 -117 328.5 -108.5 Q317 -100 297 -100 L239 -100 L264 -11 Q228 -9 194 3 Q160 15 131.5 35 Q103 55 85 77.5 Q67 100 57 118 L57 216 L119 216 L119 137 Q127 121 141.5 104 Q156 87 178 72.5 Q200 58 228.5 49 Q257 40 293 40 Q329 40 357.5 49.5 Q386 59 407.5 73 Q429 87 443.5 104.5 Q458 122 466 137 L466 237 Q459 250 449.5 262 Q440 274 424 285.5 Q408 297 385 307 Q362 317 328 326 L250 346 Q200 358 167.5 372.5 Q135 387 113.5 402 Q92 417 79.5 433 Q67 449 57 466 L57 582 Q67 600 85 623 Q103 646 131.5 666.5 Q160 687 199.5 700.5 Q239 714 293 714 Q346 714 386 700 Q426 686 454.5 665.5 Q483 645 501 622.5 Q519 600 528 582 L528 495 L466 495 L466 564 Q458 580 443.5 597 Q429 614 407.5 628.5 Q386 643 357.5 652 Q329 661 293 661 Q257 661 228.5 651.5 Q200 642 178 628 Q156 614 141.5 596.5 Q127 579 119 564 L119 489 Q126 475 136 463.5 Q146 452 162 441.5 Q178 431 202 421 Q226 411 262 401 L338 381 Q387 369 419 354.5 Q451 340 472 324.5 Q493 309 505.5 292.5 Q518 276 528 259 L528 118 Q518 100 500 77.5 Q482 55 453.5 34.5 Q425 14 387 1 Q349 -12 305 -13 L290 -65 L306 -65 Q339 -65 359.5 -79.5 Q380 -94 388 -110 L388 -189 Q379 -207 356 -221.5 Q333 -236 298 -236 Q269 -236 246 -229 Q223 -222 207 -211 L216 -175 Z " />
<glyph glyph-name="Scommaaccent" unicode="&#x218;" horiz-adv-x="585" d="M57 216 L119 216 L119 137 Q127 121 141.5 104 Q156 87 178 72.5 Q200 58 228.5 49 Q257 40 293 40 Q329 40 357.5 49.5 Q386 59 407.5 73 Q429 87 443.5 104.5 Q458 122 466 137 L466 237 Q459 250 449.5 262 Q440 274 424 285.5 Q408 297 385 307 Q362 317 328 326 L250 346 Q200 358 167.5 372.5 Q135 387 113.5 402 Q92 417 79.5 433 Q67 449 57 466 L57 582 Q67 600 85 623 Q103 646 131.5 666.5 Q160 687 199.5 700.5 Q239 714 293 714 Q346 714 386 700 Q426 686 454.5 665.5 Q483 645 501 622.5 Q519 600 528 582 L528 495 L466 495 L466 564 Q458 580 443.5 597 Q429 614 407.5 628.5 Q386 643 357.5 652 Q329 661 293 661 Q257 661 228.5 651.5 Q200 642 178 628 Q156 614 141.5 596.5 Q127 579 119 564 L119 489 Q126 475 136 463.5 Q146 452 162 441.5 Q178 431 202 421 Q226 411 262 401 L338 381 Q387 369 419 354.5 Q451 340 472 324.5 Q493 309 505.5 292.5 Q518 276 528 259 L528 118 Q518 100 500 77.5 Q482 55 453.5 34.5 Q425 14 385.5 0.5 Q346 -13 293 -13 Q239 -13 199.5 1 Q160 15 131.5 35 Q103 55 85 77.5 Q67 100 57 118 L57 216 Z M261 -165 L274 -165 Q285 -165 290 -156 L290 -126 Q276 -126 267 -122.5 Q258 -119 255 -115 L255 -74 Q258 -70 267 -66 Q276 -62 290 -62 Q304 -62 313 -66 Q322 -70 324 -74 L324 -159 Q322 -167 310.5 -177.5 Q299 -188 279 -188 L261 -188 L261 -165 Z " />
<glyph glyph-name="Tcaron" unicode="&#x164;" horiz-adv-x="524" d="M231 648 L25 648 L25 700 L499 700 L499 648 L294 648 L294 0 L231 0 L231 648 Z M129 886 L129 901 L171 901 L263 788 L354 901 L397 901 L397 886 L302 753 L223 753 L129 886 Z " />
<glyph glyph-name="Tcommaaccent" unicode="&#x162;" horiz-adv-x="524" d="M191 -175 Q207 -185 227.5 -191.5 Q248 -198 272 -198 Q293 -198 304 -189.5 Q315 -181 319 -172 L319 -125 Q316 -117 304 -108.5 Q292 -100 273 -100 L214 -100 L242 0 L231 0 L231 648 L25 648 L25 700 L499 700 L499 648 L294 648 L294 0 L284 0 L265 -65 L281 -65 Q312 -65 334 -79.5 Q356 -94 363 -110 L363 -189 Q355 -207 331 -221.5 Q307 -236 274 -236 Q245 -236 222 -229 Q199 -222 182 -211 L191 -175 Z " />
<glyph glyph-name="uni021A" unicode="&#x21a;" horiz-adv-x="524" d="M231 648 L25 648 L25 700 L499 700 L499 648 L294 648 L294 0 L231 0 L231 648 Z M233 -165 L246 -165 Q257 -165 262 -156 L262 -126 Q248 -126 239 -122.5 Q230 -119 227 -115 L227 -74 Q230 -70 239 -66 Q248 -62 262 -62 Q276 -62 285 -66 Q294 -70 296 -74 L296 -159 Q294 -167 282.5 -177.5 Q271 -188 251 -188 L233 -188 L233 -165 Z " />
<glyph glyph-name="Tbar" unicode="&#x166;" horiz-adv-x="524" d="M82 404 L231 404 L231 648 L25 648 L25 700 L499 700 L499 648 L294 648 L294 404 L443 404 L443 359 L294 359 L294 0 L231 0 L231 359 L82 359 L82 404 Z " />
<glyph glyph-name="Ugrave" unicode="&#xd9;" horiz-adv-x="644" d="M567 700 L567 139 Q556 114 536.5 87 Q517 60 487 38 Q457 16 416 1.5 Q375 -13 322 -13 Q269 -13 228 1.5 Q187 16 157 38 Q127 60 107.5 87 Q88 114 77 139 L77 700 L140 700 L140 154 Q149 132 165 111.5 Q181 91 204 75 Q227 59 256.5 49.5 Q286 40 322 40 Q358 40 387.5 49.5 Q417 59 440 75 Q463 91 479 111.5 Q495 132 504 154 L504 700 L567 700 Z M228 870 L228 901 L282 901 L353 769 L353 753 L309 753 L228 870 Z " />
<glyph glyph-name="Uacute" unicode="&#xda;" horiz-adv-x="644" d="M567 700 L567 139 Q556 114 536.5 87 Q517 60 487 38 Q457 16 416 1.5 Q375 -13 322 -13 Q269 -13 228 1.5 Q187 16 157 38 Q127 60 107.5 87 Q88 114 77 139 L77 700 L140 700 L140 154 Q149 132 165 111.5 Q181 91 204 75 Q227 59 256.5 49.5 Q286 40 322 40 Q358 40 387.5 49.5 Q417 59 440 75 Q463 91 479 111.5 Q495 132 504 154 L504 700 L567 700 Z M298 769 L369 901 L423 901 L423 870 L342 753 L298 753 L298 769 Z " />
<glyph glyph-name="Ucircumflex" unicode="&#xdb;" horiz-adv-x="644" d="M567 700 L567 139 Q556 114 536.5 87 Q517 60 487 38 Q457 16 416 1.5 Q375 -13 322 -13 Q269 -13 228 1.5 Q187 16 157 38 Q127 60 107.5 87 Q88 114 77 139 L77 700 L140 700 L140 154 Q149 132 165 111.5 Q181 91 204 75 Q227 59 256.5 49.5 Q286 40 322 40 Q358 40 387.5 49.5 Q417 59 440 75 Q463 91 479 111.5 Q495 132 504 154 L504 700 L567 700 Z M189 769 L283 901 L362 901 L457 769 L457 753 L414 753 L323 867 L231 753 L189 753 L189 769 Z " />
<glyph glyph-name="Utilde" unicode="&#x168;" horiz-adv-x="644" d="M567 700 L567 139 Q556 114 536.5 87 Q517 60 487 38 Q457 16 416 1.5 Q375 -13 322 -13 Q269 -13 228 1.5 Q187 16 157 38 Q127 60 107.5 87 Q88 114 77 139 L77 700 L140 700 L140 154 Q149 132 165 111.5 Q181 91 204 75 Q227 59 256.5 49.5 Q286 40 322 40 Q358 40 387.5 49.5 Q417 59 440 75 Q463 91 479 111.5 Q495 132 504 154 L504 700 L567 700 Z M494 819 Q484 796 462 779 Q440 762 402 762 Q376 762 356 770.5 Q336 779 318.5 789.5 Q301 800 284.5 808.5 Q268 817 249 817 Q224 817 212 806 Q200 795 195 787 L195 768 L153 768 L153 803 Q165 830 189 845 Q213 860 246 860 Q272 860 292 851.5 Q312 843 329.5 832.5 Q347 822 363.5 813.5 Q380 805 399 805 Q420 805 433.5 814 Q447 823 452 835 L452 854 L494 854 L494 819 Z " />
<glyph glyph-name="Udieresis" unicode="&#xdc;" horiz-adv-x="644" d="M567 700 L567 139 Q556 114 536.5 87 Q517 60 487 38 Q457 16 416 1.5 Q375 -13 322 -13 Q269 -13 228 1.5 Q187 16 157 38 Q127 60 107.5 87 Q88 114 77 139 L77 700 L140 700 L140 154 Q149 132 165 111.5 Q181 91 204 75 Q227 59 256.5 49.5 Q286 40 322 40 Q358 40 387.5 49.5 Q417 59 440 75 Q463 91 479 111.5 Q495 132 504 154 L504 700 L567 700 Z M188 836 Q192 840 201 845 Q210 850 225 850 Q240 850 249.5 845 Q259 840 262 836 L262 788 Q259 784 249.5 779 Q240 774 225 774 Q210 774 201 779 Q192 784 188 788 L188 836 Z M384 836 Q388 840 397 845 Q406 850 421 850 Q436 850 445.5 845 Q455 840 458 836 L458 788 Q455 784 445.5 779 Q436 774 421 774 Q406 774 397 779 Q388 784 384 788 L384 836 Z " />
<glyph glyph-name="Umacron" unicode="&#x16a;" horiz-adv-x="644" d="M567 700 L567 139 Q556 114 536.5 87 Q517 60 487 38 Q457 16 416 1.5 Q375 -13 322 -13 Q269 -13 228 1.5 Q187 16 157 38 Q127 60 107.5 87 Q88 114 77 139 L77 700 L140 700 L140 154 Q149 132 165 111.5 Q181 91 204 75 Q227 59 256.5 49.5 Q286 40 322 40 Q358 40 387.5 49.5 Q417 59 440 75 Q463 91 479 111.5 Q495 132 504 154 L504 700 L567 700 Z M168 821 L484 821 L484 774 L168 774 L168 821 Z " />
<glyph glyph-name="Ubreve" unicode="&#x16c;" horiz-adv-x="644" d="M567 700 L567 139 Q556 114 536.5 87 Q517 60 487 38 Q457 16 416 1.5 Q375 -13 322 -13 Q269 -13 228 1.5 Q187 16 157 38 Q127 60 107.5 87 Q88 114 77 139 L77 700 L140 700 L140 154 Q149 132 165 111.5 Q181 91 204 75 Q227 59 256.5 49.5 Q286 40 322 40 Q358 40 387.5 49.5 Q417 59 440 75 Q463 91 479 111.5 Q495 132 504 154 L504 700 L567 700 Z M195 850 L243 850 L243 826 Q245 821 250.5 813.5 Q256 806 266 799 Q276 792 290.5 787 Q305 782 326 782 Q347 782 361.5 787 Q376 792 385.5 799 Q395 806 400.5 813.5 Q406 821 408 826 L408 850 L456 850 L456 812 Q451 801 441 788.5 Q431 776 415.5 765.5 Q400 755 378 748 Q356 741 326 741 Q296 741 274 748 Q252 755 236.5 765.5 Q221 776 211 788.5 Q201 801 195 812 L195 850 Z " />
<glyph glyph-name="Uring" unicode="&#x16e;" horiz-adv-x="644" d="M567 700 L567 139 Q556 114 536.5 87 Q517 60 487 38 Q457 16 416 1.5 Q375 -13 322 -13 Q269 -13 228 1.5 Q187 16 157 38 Q127 60 107.5 87 Q88 114 77 139 L77 700 L140 700 L140 154 Q149 132 165 111.5 Q181 91 204 75 Q227 59 256.5 49.5 Q286 40 322 40 Q358 40 387.5 49.5 Q417 59 440 75 Q463 91 479 111.5 Q495 132 504 154 L504 700 L567 700 Z M274 746 Q279 737 293 728 Q307 719 329 719 Q351 719 364.5 728 Q378 737 383 746 L383 806 Q378 815 364.5 823.5 Q351 832 329 832 Q307 832 293 823.5 Q279 815 274 806 L274 746 Z M236 815 Q246 835 270 850.5 Q294 866 329 866 Q364 866 387.5 850.5 Q411 835 421 815 L421 736 Q411 717 387.5 701.5 Q364 686 329 686 Q294 686 270 701.5 Q246 717 236 736 L236 815 Z " />
<glyph glyph-name="Uhungarumlaut" unicode="&#x170;" horiz-adv-x="644" d="M567 700 L567 139 Q556 114 536.5 87 Q517 60 487 38 Q457 16 416 1.5 Q375 -13 322 -13 Q269 -13 228 1.5 Q187 16 157 38 Q127 60 107.5 87 Q88 114 77 139 L77 700 L140 700 L140 154 Q149 132 165 111.5 Q181 91 204 75 Q227 59 256.5 49.5 Q286 40 322 40 Q358 40 387.5 49.5 Q417 59 440 75 Q463 91 479 111.5 Q495 132 504 154 L504 700 L567 700 Z M217 764 L270 896 L319 896 L319 868 L256 748 L217 748 L217 764 Z M387 764 L439 896 L488 896 L488 868 L425 748 L387 748 L387 764 Z " />
<glyph glyph-name="Uogonek" unicode="&#x172;" horiz-adv-x="644" d="M314 -120 Q319 -105 338 -73.5 Q357 -42 392 -5 Q358 -13 322 -13 Q269 -13 228 1.5 Q187 16 157 38 Q127 60 107.5 87 Q88 114 77 139 L77 700 L140 700 L140 154 Q149 132 165 111.5 Q181 91 204 75 Q227 59 256.5 49.5 Q286 40 322 40 Q358 40 387.5 49.5 Q417 59 440 75 Q463 91 479 111.5 Q495 132 504 154 L504 700 L567 700 L567 139 Q556 113 536 86.5 Q516 60 486 37 Q453 8 430 -19.5 Q407 -47 392 -69 Q377 -91 369.5 -106 Q362 -121 360 -126 L360 -164 Q365 -173 380 -181 Q395 -189 415 -189 Q435 -189 450.5 -184.5 Q466 -180 483 -171 L483 -210 Q467 -219 450.5 -223 Q434 -227 408 -227 Q374 -227 348.5 -214.5 Q323 -202 314 -182 L314 -120 Z " />
<glyph glyph-name="Wgrave" unicode="&#x1e80;" horiz-adv-x="882" d="M35 656 L35 700 L92 700 L218 76 L234 76 L399 700 L479 700 L645 76 L661 76 L787 700 L843 700 L843 656 L706 0 L608 0 L445 603 L429 603 L267 0 L173 0 L35 656 Z M336 870 L336 901 L390 901 L461 769 L461 753 L417 753 L336 870 Z " />
<glyph glyph-name="Wacute" unicode="&#x1e82;" horiz-adv-x="882" d="M35 656 L35 700 L92 700 L218 76 L234 76 L399 700 L479 700 L645 76 L661 76 L787 700 L843 700 L843 656 L706 0 L608 0 L445 603 L429 603 L267 0 L173 0 L35 656 Z M415 769 L486 901 L540 901 L540 870 L459 753 L415 753 L415 769 Z " />
<glyph glyph-name="Wcircumflex" unicode="&#x174;" horiz-adv-x="882" d="M35 656 L35 700 L92 700 L218 76 L234 76 L399 700 L479 700 L645 76 L661 76 L787 700 L843 700 L843 656 L706 0 L608 0 L445 603 L429 603 L267 0 L173 0 L35 656 Z M305 769 L399 901 L478 901 L573 769 L573 753 L530 753 L439 867 L347 753 L305 753 L305 769 Z " />
<glyph glyph-name="Wdieresis" unicode="&#x1e84;" horiz-adv-x="882" d="M35 656 L35 700 L92 700 L218 76 L234 76 L399 700 L479 700 L645 76 L661 76 L787 700 L843 700 L843 656 L706 0 L608 0 L445 603 L429 603 L267 0 L173 0 L35 656 Z M302 835 Q306 839 315 844 Q324 849 339 849 Q354 849 363.5 844 Q373 839 376 835 L376 787 Q373 783 363.5 778 Q354 773 339 773 Q324 773 315 778 Q306 783 302 787 L302 835 Z M498 835 Q502 839 511 844 Q520 849 535 849 Q550 849 559.5 844 Q569 839 572 835 L572 787 Q569 783 559.5 778 Q550 773 535 773 Q520 773 511 778 Q502 783 498 787 L498 835 Z " />
<glyph glyph-name="Ygrave" unicode="&#x1ef2;" horiz-adv-x="543" d="M237 315 L38 656 L38 700 L84 700 L264 386 L280 386 L460 700 L505 700 L505 656 L301 310 L301 0 L237 0 L237 315 Z M181 870 L181 901 L235 901 L306 769 L306 753 L262 753 L181 870 Z " />
<glyph glyph-name="Yacute" unicode="&#xdd;" horiz-adv-x="543" d="M237 315 L38 656 L38 700 L84 700 L264 386 L280 386 L460 700 L505 700 L505 656 L301 310 L301 0 L237 0 L237 315 Z M243 769 L314 901 L368 901 L368 870 L287 753 L243 753 L243 769 Z " />
<glyph glyph-name="Ycircumflex" unicode="&#x176;" horiz-adv-x="543" d="M237 315 L38 656 L38 700 L84 700 L264 386 L280 386 L460 700 L505 700 L505 656 L301 310 L301 0 L237 0 L237 315 Z M136 769 L230 901 L309 901 L404 769 L404 753 L361 753 L270 867 L178 753 L136 753 L136 769 Z " />
<glyph glyph-name="Ydieresis" unicode="&#x178;" horiz-adv-x="543" d="M237 315 L38 656 L38 700 L84 700 L264 386 L280 386 L460 700 L505 700 L505 656 L301 310 L301 0 L237 0 L237 315 Z M140 835 Q144 839 153 844 Q162 849 177 849 Q192 849 201.5 844 Q211 839 214 835 L214 787 Q211 783 201.5 778 Q192 773 177 773 Q162 773 153 778 Q144 783 140 787 L140 835 Z M336 835 Q340 839 349 844 Q358 849 373 849 Q388 849 397.5 844 Q407 839 410 835 L410 787 Q407 783 397.5 778 Q388 773 373 773 Q358 773 349 778 Q340 783 336 787 L336 835 Z " />
<glyph glyph-name="Zacute" unicode="&#x179;" horiz-adv-x="565" d="M50 44 L431 636 L431 648 L59 648 L59 700 L515 700 L515 656 L135 64 L135 52 L515 52 L515 0 L50 0 L50 44 Z M252 769 L323 901 L377 901 L377 870 L296 753 L252 753 L252 769 Z " />
<glyph glyph-name="Zcaron" unicode="&#x17d;" horiz-adv-x="565" d="M50 44 L431 636 L431 648 L59 648 L59 700 L515 700 L515 656 L135 64 L135 52 L515 52 L515 0 L50 0 L50 44 Z M168 886 L168 901 L210 901 L302 788 L393 901 L436 901 L436 886 L341 753 L262 753 L168 886 Z " />
<glyph glyph-name="Zdotaccent" unicode="&#x17b;" horiz-adv-x="565" d="M50 44 L431 636 L431 648 L59 648 L59 700 L515 700 L515 656 L135 64 L135 52 L515 52 L515 0 L50 0 L50 44 Z M257 842 Q260 848 269.5 854 Q279 860 295 860 Q310 860 319.5 854 Q329 848 333 842 L333 799 Q329 793 319.5 787.5 Q310 782 295 782 Q279 782 269.5 787.5 Q260 793 257 799 L257 842 Z " />
<glyph glyph-name="Eng" unicode="&#x14a;" horiz-adv-x="657" d="M82 700 L176 700 L504 79 L515 79 L515 700 L575 700 L575 -22 Q563 -51 541.5 -77.5 Q520 -104 489.5 -125 Q459 -146 419 -158.5 Q379 -171 330 -171 Q317 -171 305.5 -170.5 Q294 -170 288 -169 L288 -118 Q293 -119 308 -119.5 Q323 -120 330 -120 Q387 -120 431 -95 Q475 -70 499 -32 L158 612 L142 612 L142 0 L82 0 L82 700 Z " />
<glyph glyph-name="Eth" unicode="&#xd0;" horiz-adv-x="660" d="M45 382 L108 382 L108 700 L345 700 Q396 700 435 688 Q474 676 503 656.5 Q532 637 551.5 612 Q571 587 582 562 L582 138 Q571 113 551.5 88 Q532 63 503 43.5 Q474 24 435 12 Q396 0 345 0 L108 0 L108 330 L45 330 L45 382 Z M518 545 Q501 590 455 619 Q409 648 337 648 L172 648 L172 382 L364 382 L364 330 L172 330 L172 52 L337 52 Q409 52 455 81 Q501 110 518 155 L518 545 Z " />
<glyph glyph-name="Thorn" unicode="&#xde;" horiz-adv-x="561" d="M82 700 L145 700 L145 589 L317 589 Q378 589 430 557.5 Q482 526 512 471 L512 266 Q485 216 435 182.5 Q385 149 317 149 L145 149 L145 0 L82 0 L82 700 Z M304 201 Q350 201 388.5 222.5 Q427 244 450 286 L450 451 Q424 498 383 517 Q342 536 303 536 L145 536 L145 201 L304 201 Z " />
<glyph glyph-name="uni018F" unicode="&#x18f;" horiz-adv-x="616" d="M485 547 Q476 569 460 589.5 Q444 610 421 626 Q398 642 368.5 651.5 Q339 661 303 661 Q267 661 237.5 651.5 Q208 642 185 626 Q162 610 146 589.5 Q130 569 121 547 L121 467 L60 467 L60 565 Q71 589 90.5 615.5 Q110 642 139.5 664 Q169 686 209.5 700 Q250 714 303 714 Q356 714 397 699.5 Q438 685 468 663 Q498 641 517.5 614 Q537 587 548 562 L548 139 Q537 114 517.5 87 Q498 60 468 38 Q438 16 397 1.5 Q356 -13 303 -13 Q250 -13 209.5 1 Q169 15 139.5 37 Q110 59 90.5 85.5 Q71 112 60 136 L60 356 L485 356 L485 547 Z M302 40 Q338 40 367.5 49.5 Q397 59 420.5 75 Q444 91 460 111.5 Q476 132 485 154 L485 307 L120 307 L120 153 Q129 131 145 110.5 Q161 90 184 74.5 Q207 59 236.5 49.5 Q266 40 302 40 Z " />
<glyph glyph-name="a" unicode="a" horiz-adv-x="535" d="M410 52 Q383 25 340 6 Q297 -13 237 -13 Q193 -13 161 -2.5 Q129 8 107 21.5 Q85 35 72.5 49 Q60 63 55 71 L55 224 Q60 232 72.5 246.5 Q85 261 106.5 275 Q128 289 159.5 299.5 Q191 310 233 310 Q294 310 338 292 Q382 274 409 248 L409 404 Q393 442 355 470.5 Q317 499 256 499 Q226 499 203 492 Q180 485 163.5 474.5 Q147 464 136.5 452.5 Q126 441 120 433 L120 379 L64 379 L64 454 Q70 463 83.5 478.5 Q97 494 120 510 Q143 526 176.5 537.5 Q210 549 256 549 Q302 549 337.5 536.5 Q373 524 399.5 505 Q426 486 442.5 463 Q459 440 468 419 L468 0 L410 0 L410 52 Z M245 37 Q305 37 347 59.5 Q389 82 409 111 L409 186 Q389 216 347 239.5 Q305 263 245 263 Q215 263 192.5 257 Q170 251 154.5 242 Q139 233 129 223 Q119 213 114 206 L114 94 Q118 88 127.5 78 Q137 68 153 59 Q169 50 191.5 43.5 Q214 37 245 37 Z " />
<glyph glyph-name="b" unicode="b" horiz-adv-x="541" d="M72 700 L131 700 L131 491 Q157 514 197 531 Q237 548 291 548 Q335 548 367.5 536.5 Q400 525 423.5 509 Q447 493 461 474.5 Q475 456 482 443 L482 93 Q475 80 461 62 Q447 44 423.5 27.5 Q400 11 367.5 -0.5 Q335 -12 291 -12 Q236 -12 195.5 5 Q155 22 129 47 L129 0 L72 0 L72 700 Z M283 498 Q228 498 189.5 478.5 Q151 459 131 432 L131 102 Q151 76 189.5 57 Q228 38 283 38 Q313 38 336.5 45 Q360 52 377 62.5 Q394 73 405.5 85.5 Q417 98 423 108 L423 428 Q417 438 405.5 450.5 Q394 463 377 473.5 Q360 484 336.5 491 Q313 498 283 498 Z " />
<glyph glyph-name="c" unicode="c" horiz-adv-x="521" d="M59 419 Q68 440 85 463 Q102 486 128 505 Q154 524 189 536.5 Q224 549 270 549 Q316 549 351.5 537 Q387 525 412.5 506 Q438 487 454.5 465 Q471 443 479 424 L479 342 L423 342 L423 404 Q408 441 369.5 470 Q331 499 270 499 Q240 499 215 491 Q190 483 171 470 Q152 457 138.5 439.5 Q125 422 118 404 L118 132 Q125 114 138.5 96.5 Q152 79 171 66 Q190 53 215 45 Q240 37 270 37 Q331 37 369.5 66 Q408 95 423 132 L423 194 L479 194 L479 112 Q471 93 454.5 71 Q438 49 412.5 30.5 Q387 12 351.5 -0.5 Q316 -13 270 -13 Q224 -13 189 -0.5 Q154 12 128 31 Q102 50 85 73 Q68 96 59 117 L59 419 Z " />
<glyph glyph-name="d" unicode="d" horiz-adv-x="540" d="M411 46 Q385 22 344.5 5 Q304 -12 250 -12 Q206 -12 173.5 -0.5 Q141 11 117.5 27 Q94 43 80 61 Q66 79 59 93 L59 443 Q66 456 80 474 Q94 492 117.5 508.5 Q141 525 173.5 536.5 Q206 548 250 548 Q304 548 343.5 531 Q383 514 410 491 L410 700 L469 700 L469 0 L411 0 L411 46 Z M258 38 Q313 38 351 57.5 Q389 77 410 103 L410 433 Q389 459 351 478.5 Q313 498 258 498 Q228 498 204.5 491 Q181 484 164 473.5 Q147 463 135.5 450.5 Q124 438 118 428 L118 108 Q124 98 135.5 85.5 Q147 73 164 62.5 Q181 52 204.5 45 Q228 38 258 38 Z " />
<glyph glyph-name="e" unicode="e" horiz-adv-x="534" d="M59 419 Q68 440 85 463 Q102 486 128 505 Q154 524 189 536.5 Q224 549 270 549 Q316 549 351.5 536.5 Q387 524 412.5 505.5 Q438 487 454.5 465.5 Q471 444 479 425 L479 256 L118 256 L118 132 Q125 114 138.5 96.5 Q152 79 171 66 Q190 53 215 45 Q240 37 270 37 Q331 37 369.5 66 Q408 95 423 132 L423 177 L479 177 L479 111 Q470 92 453.5 70 Q437 48 411.5 29.5 Q386 11 351 -1 Q316 -13 270 -13 Q224 -13 189 -0.5 Q154 12 128 31 Q102 50 85 73 Q68 96 59 117 L59 419 Z M118 303 L423 303 L423 404 Q408 441 369.5 470 Q331 499 270 499 Q240 499 215 491 Q190 483 171 470 Q152 457 138.5 439.5 Q125 422 118 404 L118 303 Z " />
<glyph glyph-name="f" unicode="f" horiz-adv-x="347" d="M25 536 L98 536 L98 627 Q104 640 114.5 655.5 Q125 671 143.5 684.5 Q162 698 190 707.5 Q218 717 260 717 Q284 717 303.5 714.5 Q323 712 330 710 L330 664 Q322 666 308 667 Q294 668 278 668 Q245 668 223.5 661 Q202 654 188.5 644.5 Q175 635 167.5 624 Q160 613 157 605 L157 536 L330 536 L330 489 L157 489 L157 0 L98 0 L98 489 L25 489 L25 536 Z " />
<glyph glyph-name="g" unicode="g" horiz-adv-x="540" d="M59 14 L118 14 L118 -49 Q123 -58 134 -70 Q145 -82 162.5 -93 Q180 -104 203.5 -111.5 Q227 -119 257 -119 Q320 -119 357.5 -93 Q395 -67 410 -32 L410 125 Q384 101 344 84.5 Q304 68 250 68 Q206 68 173.5 79.5 Q141 91 117.5 107 Q94 123 80 141 Q66 159 59 173 L59 443 Q66 456 80 474 Q94 492 117.5 508.5 Q141 525 173.5 536.5 Q206 548 250 548 Q304 548 344 531 Q384 514 411 490 L411 536 L469 536 L469 -47 Q460 -68 443.5 -90 Q427 -112 400.5 -129 Q374 -146 338.5 -157 Q303 -168 257 -168 Q211 -168 177 -156 Q143 -144 119 -127.5 Q95 -111 80.5 -93 Q66 -75 59 -64 L59 14 Z M258 118 Q313 118 351 137.5 Q389 157 410 183 L410 433 Q389 459 351 478.5 Q313 498 258 498 Q228 498 204.5 491 Q181 484 164 473.5 Q147 463 135.5 450.5 Q124 438 118 428 L118 188 Q124 178 135.5 165.5 Q147 153 164 142.5 Q181 132 204.5 125 Q228 118 258 118 Z " />
<glyph glyph-name="h" unicode="h" horiz-adv-x="550" d="M423 0 L423 428 Q417 438 405.5 450.5 Q394 463 377 473.5 Q360 484 336.5 491 Q313 498 283 498 Q228 498 189.5 478.5 Q151 459 131 432 L131 0 L72 0 L72 700 L131 700 L131 491 Q157 514 197 531 Q237 548 291 548 Q335 548 367.5 536.5 Q400 525 423.5 509 Q447 493 461 474.5 Q475 456 482 443 L482 0 L423 0 Z " />
<glyph glyph-name="i" unicode="i" horiz-adv-x="203" d="M64 701 Q67 707 76.5 712.5 Q86 718 102 718 Q117 718 126.5 712.5 Q136 707 140 701 L140 658 Q136 652 126.5 646.5 Q117 641 102 641 Q86 641 76.5 646.5 Q67 652 64 658 L64 701 Z M72 536 L131 536 L131 0 L72 0 L72 536 Z " />
<glyph glyph-name="j" unicode="j" horiz-adv-x="203" d="M-80 -121 Q-50 -121 -25 -113 Q0 -105 19 -91.5 Q38 -78 51 -60.5 Q64 -43 72 -24 L72 536 L131 536 L131 -40 Q122 -61 105 -84 Q88 -107 62 -126 Q36 -145 1 -157.5 Q-34 -170 -80 -170 L-80 -121 Z M63 701 Q67 707 76.5 712.5 Q86 718 101 718 Q117 718 126.5 712.5 Q136 707 139 701 L139 658 Q136 652 126.5 646.5 Q117 641 101 641 Q86 641 76.5 646.5 Q67 652 63 658 L63 701 Z " />
<glyph glyph-name="k" unicode="k" horiz-adv-x="479" d="M72 700 L131 700 L131 260 L141 260 L415 536 L450 536 L450 496 L254 302 L459 40 L459 0 L421 0 L214 263 L131 181 L131 0 L72 0 L72 700 Z " />
<glyph glyph-name="l" unicode="l" horiz-adv-x="203" d="M72 700 L131 700 L131 0 L72 0 L72 700 Z " />
<glyph glyph-name="m" unicode="m" horiz-adv-x="797" d="M371 0 L371 436 Q366 446 357 457 Q348 468 334.5 477 Q321 486 302 492 Q283 498 257 498 Q212 498 180 479.5 Q148 461 131 435 L131 0 L72 0 L72 536 L128 536 L128 492 Q151 515 185 531.5 Q219 548 267 548 Q326 548 361 526 Q396 504 413 480 Q435 506 472 527 Q509 548 566 548 Q605 548 633.5 537.5 Q662 527 681.5 512 Q701 497 712 480 Q723 463 729 451 L729 0 L670 0 L670 436 Q665 446 656 457 Q647 468 633.5 477 Q620 486 601 492 Q582 498 556 498 Q511 498 479 479.5 Q447 461 430 436 L430 0 L371 0 Z " />
<glyph glyph-name="n" unicode="n" horiz-adv-x="550" d="M423 0 L423 428 Q417 438 406 450.5 Q395 463 377.5 473.5 Q360 484 336.5 491 Q313 498 283 498 Q228 498 189.5 478 Q151 458 131 432 L131 0 L72 0 L72 536 L128 536 L128 488 Q154 513 194.5 530.5 Q235 548 291 548 Q335 548 367.5 536.5 Q400 525 423.5 509 Q447 493 461 474.5 Q475 456 482 443 L482 0 L423 0 Z " />
<glyph glyph-name="o" unicode="o" horiz-adv-x="541" d="M59 419 Q68 440 85 463 Q102 486 128 505 Q154 524 189 536.5 Q224 549 270 549 Q316 549 351.5 536.5 Q387 524 413 505 Q439 486 456 463 Q473 440 482 419 L482 117 Q473 96 456 73 Q439 50 413 31 Q387 12 351.5 -0.5 Q316 -13 270 -13 Q224 -13 189 -0.5 Q154 12 128 31 Q102 50 85 73 Q68 96 59 117 L59 419 Z M118 132 Q125 114 138.5 96.5 Q152 79 171 66 Q190 53 215 45 Q240 37 270 37 Q301 37 326 45 Q351 53 370 66 Q389 79 402 96.5 Q415 114 423 132 L423 404 Q415 422 402 439.5 Q389 457 370 470 Q351 483 326 491 Q301 499 270 499 Q240 499 215 491 Q190 483 171 470 Q152 457 138.5 439.5 Q125 422 118 404 L118 132 Z " />
<glyph glyph-name="p" unicode="p" horiz-adv-x="541" d="M72 536 L129 536 L129 489 Q155 513 195.5 530.5 Q236 548 291 548 Q335 548 367.5 536.5 Q400 525 423.5 509 Q447 493 461 474.5 Q475 456 482 443 L482 93 Q475 80 461 62 Q447 44 423.5 27.5 Q400 11 367.5 -0.5 Q335 -12 291 -12 Q237 -12 197 4.5 Q157 21 131 45 L131 -164 L72 -164 L72 536 Z M283 498 Q228 498 189.5 478.5 Q151 459 131 432 L131 102 Q151 76 189.5 57 Q228 38 283 38 Q313 38 336.5 45 Q360 52 377 62.5 Q394 73 405.5 85.5 Q417 98 423 108 L423 428 Q417 438 405.5 450.5 Q394 463 377 473.5 Q360 484 336.5 491 Q313 498 283 498 Z " />
<glyph glyph-name="q" unicode="q" horiz-adv-x="540" d="M410 45 Q384 21 344 4.5 Q304 -12 250 -12 Q206 -12 173.5 -0.5 Q141 11 117.5 27 Q94 43 80 61 Q66 79 59 93 L59 443 Q66 456 80 474 Q94 492 117.5 508.5 Q141 525 173.5 536.5 Q206 548 250 548 Q304 548 344 531 Q384 514 411 490 L411 536 L469 536 L469 -164 L410 -164 L410 45 Z M258 38 Q313 38 351 57.5 Q389 77 410 103 L410 433 Q389 459 351 478.5 Q313 498 258 498 Q228 498 204.5 491 Q181 484 164 473.5 Q147 463 135.5 450.5 Q124 438 118 428 L118 108 Q124 98 135.5 85.5 Q147 73 164 62.5 Q181 52 204.5 45 Q228 38 258 38 Z " />
<glyph glyph-name="r" unicode="r" horiz-adv-x="342" d="M72 536 L128 536 L128 467 Q151 495 192.5 515.5 Q234 536 296 536 Q299 536 304.5 536 Q310 536 318 535 L318 481 Q308 482 302.5 482 Q297 482 295 482 Q235 482 193.5 461.5 Q152 441 131 414 L131 0 L72 0 L72 536 Z " />
<glyph glyph-name="s" unicode="s" horiz-adv-x="501" d="M59 165 L115 165 L115 101 Q122 91 134 79.5 Q146 68 163 58.5 Q180 49 201.5 43 Q223 37 250 37 Q277 37 299 43 Q321 49 338 58.5 Q355 68 367 79.5 Q379 91 386 101 L386 184 Q374 204 347 217.5 Q320 231 278 242 L210 259 Q146 275 109 297.5 Q72 320 59 342 L59 454 Q66 466 81 482 Q96 498 119.5 513 Q143 528 175.5 538.5 Q208 549 250 549 Q293 549 325.5 538.5 Q358 528 381 513 Q404 498 419 482 Q434 466 442 454 L442 372 L386 372 L386 435 Q379 445 367 456.5 Q355 468 338 477.5 Q321 487 299 493 Q277 499 250 499 Q223 499 201 493 Q179 487 162.5 477.5 Q146 468 134 456.5 Q122 445 115 435 L115 367 Q128 346 154.5 333 Q181 320 223 309 L291 292 Q355 276 392 253.5 Q429 231 442 208 L442 82 Q434 70 419 53.5 Q404 37 381 22.5 Q358 8 325.5 -2.5 Q293 -13 250 -13 Q208 -13 175.5 -2.5 Q143 8 119.5 23 Q96 38 81 54 Q66 70 59 82 L59 165 Z " />
<glyph glyph-name="t" unicode="t" horiz-adv-x="347" d="M25 536 L98 536 L98 651 L157 651 L157 536 L330 536 L330 489 L157 489 L157 104 Q160 96 167.5 85 Q175 74 188.5 64.5 Q202 55 223.5 48 Q245 41 278 41 Q294 41 308 42 Q322 43 330 45 L330 -1 Q323 -3 304 -5.5 Q285 -8 260 -8 Q218 -8 190 1.5 Q162 11 143.5 24.5 Q125 38 114.5 53.5 Q104 69 98 82 L98 489 L25 489 L25 536 Z " />
<glyph glyph-name="u" unicode="u" horiz-adv-x="540" d="M127 536 L127 108 Q133 98 143.5 85.5 Q154 73 170 62.5 Q186 52 209 45 Q232 38 262 38 Q316 38 353 57.5 Q390 77 409 103 L409 536 L468 536 L468 0 L412 0 L412 46 Q386 22 347 5 Q308 -12 254 -12 Q210 -12 178 -1 Q146 10 124 26.5 Q102 43 88.5 60.5 Q75 78 68 92 L68 536 L127 536 Z " />
<glyph glyph-name="v" unicode="v" horiz-adv-x="497" d="M37 496 L37 536 L85 536 L242 63 L256 63 L413 536 L460 536 L460 496 L291 0 L206 0 L37 496 Z " />
<glyph glyph-name="w" unicode="w" horiz-adv-x="762" d="M41 496 L41 536 L91 536 L203 61 L217 61 L345 536 L419 536 L547 61 L561 61 L673 536 L721 536 L721 496 L598 0 L512 0 L388 450 L374 450 L250 0 L165 0 L41 496 Z " />
<glyph glyph-name="x" unicode="x" horiz-adv-x="463" d="M44 40 L192 268 L44 496 L44 536 L86 536 L227 309 L236 309 L378 536 L419 536 L419 496 L271 268 L419 40 L419 0 L378 0 L235 228 L227 228 L85 0 L44 0 L44 40 Z " />
<glyph glyph-name="y" unicode="y" horiz-adv-x="491" d="M222 -7 L40 494 L40 536 L88 536 L245 82 L257 82 L406 536 L454 536 L454 497 L251 -96 Q239 -114 220 -127.5 Q201 -141 179 -150.5 Q157 -160 133.5 -165 Q110 -170 88 -170 Q70 -170 56.5 -168.5 Q43 -167 37 -165 L37 -118 Q48 -120 60.5 -120 Q73 -120 80 -120 Q121 -120 153.5 -104 Q186 -88 203 -68 L222 -7 Z " />
<glyph glyph-name="z" unicode="z" horiz-adv-x="454" d="M33 44 L344 480 L344 489 L33 489 L33 536 L421 536 L421 494 L108 56 L108 47 L421 47 L421 0 L33 0 L33 44 Z " />
<glyph glyph-name="agrave" unicode="&#xe0;" horiz-adv-x="535" d="M410 52 Q383 25 340 6 Q297 -13 237 -13 Q193 -13 161 -2.5 Q129 8 107 21.5 Q85 35 72.5 49 Q60 63 55 71 L55 224 Q60 232 72.5 246.5 Q85 261 106.5 275 Q128 289 159.5 299.5 Q191 310 233 310 Q294 310 338 292 Q382 274 409 248 L409 404 Q393 442 355 470.5 Q317 499 256 499 Q226 499 203 492 Q180 485 163.5 474.5 Q147 464 136.5 452.5 Q126 441 120 433 L120 379 L64 379 L64 454 Q70 463 83.5 478.5 Q97 494 120 510 Q143 526 176.5 537.5 Q210 549 256 549 Q302 549 337.5 536.5 Q373 524 399.5 505 Q426 486 442.5 463 Q459 440 468 419 L468 0 L410 0 L410 52 Z M245 37 Q305 37 347 59.5 Q389 82 409 111 L409 186 Q389 216 347 239.5 Q305 263 245 263 Q215 263 192.5 257 Q170 251 154.5 242 Q139 233 129 223 Q119 213 114 206 L114 94 Q118 88 127.5 78 Q137 68 153 59 Q169 50 191.5 43.5 Q214 37 245 37 Z M167 734 L167 765 L221 765 L292 615 L292 599 L248 599 L167 734 Z " />
<glyph glyph-name="aacute" unicode="&#xe1;" horiz-adv-x="535" d="M410 52 Q383 25 340 6 Q297 -13 237 -13 Q193 -13 161 -2.5 Q129 8 107 21.5 Q85 35 72.5 49 Q60 63 55 71 L55 224 Q60 232 72.5 246.5 Q85 261 106.5 275 Q128 289 159.5 299.5 Q191 310 233 310 Q294 310 338 292 Q382 274 409 248 L409 404 Q393 442 355 470.5 Q317 499 256 499 Q226 499 203 492 Q180 485 163.5 474.5 Q147 464 136.5 452.5 Q126 441 120 433 L120 379 L64 379 L64 454 Q70 463 83.5 478.5 Q97 494 120 510 Q143 526 176.5 537.5 Q210 549 256 549 Q302 549 337.5 536.5 Q373 524 399.5 505 Q426 486 442.5 463 Q459 440 468 419 L468 0 L410 0 L410 52 Z M245 37 Q305 37 347 59.5 Q389 82 409 111 L409 186 Q389 216 347 239.5 Q305 263 245 263 Q215 263 192.5 257 Q170 251 154.5 242 Q139 233 129 223 Q119 213 114 206 L114 94 Q118 88 127.5 78 Q137 68 153 59 Q169 50 191.5 43.5 Q214 37 245 37 Z M237 615 L308 765 L362 765 L362 734 L281 599 L237 599 L237 615 Z " />
<glyph glyph-name="acircumflex" unicode="&#xe2;" horiz-adv-x="535" d="M410 52 Q383 25 340 6 Q297 -13 237 -13 Q193 -13 161 -2.5 Q129 8 107 21.5 Q85 35 72.5 49 Q60 63 55 71 L55 224 Q60 232 72.5 246.5 Q85 261 106.5 275 Q128 289 159.5 299.5 Q191 310 233 310 Q294 310 338 292 Q382 274 409 248 L409 404 Q393 442 355 470.5 Q317 499 256 499 Q226 499 203 492 Q180 485 163.5 474.5 Q147 464 136.5 452.5 Q126 441 120 433 L120 379 L64 379 L64 454 Q70 463 83.5 478.5 Q97 494 120 510 Q143 526 176.5 537.5 Q210 549 256 549 Q302 549 337.5 536.5 Q373 524 399.5 505 Q426 486 442.5 463 Q459 440 468 419 L468 0 L410 0 L410 52 Z M245 37 Q305 37 347 59.5 Q389 82 409 111 L409 186 Q389 216 347 239.5 Q305 263 245 263 Q215 263 192.5 257 Q170 251 154.5 242 Q139 233 129 223 Q119 213 114 206 L114 94 Q118 88 127.5 78 Q137 68 153 59 Q169 50 191.5 43.5 Q214 37 245 37 Z M131 614 L225 764 L304 764 L399 614 L399 599 L356 599 L265 730 L173 599 L131 599 L131 614 Z " />
<glyph glyph-name="atilde" unicode="&#xe3;" horiz-adv-x="535" d="M410 52 Q383 25 340 6 Q297 -13 237 -13 Q193 -13 161 -2.5 Q129 8 107 21.5 Q85 35 72.5 49 Q60 63 55 71 L55 224 Q60 232 72.5 246.5 Q85 261 106.5 275 Q128 289 159.5 299.5 Q191 310 233 310 Q294 310 338 292 Q382 274 409 248 L409 404 Q393 442 355 470.5 Q317 499 256 499 Q226 499 203 492 Q180 485 163.5 474.5 Q147 464 136.5 452.5 Q126 441 120 433 L120 379 L64 379 L64 454 Q70 463 83.5 478.5 Q97 494 120 510 Q143 526 176.5 537.5 Q210 549 256 549 Q302 549 337.5 536.5 Q373 524 399.5 505 Q426 486 442.5 463 Q459 440 468 419 L468 0 L410 0 L410 52 Z M245 37 Q305 37 347 59.5 Q389 82 409 111 L409 186 Q389 216 347 239.5 Q305 263 245 263 Q215 263 192.5 257 Q170 251 154.5 242 Q139 233 129 223 Q119 213 114 206 L114 94 Q118 88 127.5 78 Q137 68 153 59 Q169 50 191.5 43.5 Q214 37 245 37 Z M438 684 Q428 661 406 644.5 Q384 628 346 628 Q320 628 300 636.5 Q280 645 262.5 655.5 Q245 666 228.5 674.5 Q212 683 193 683 Q168 683 156 672 Q144 661 139 653 L139 634 L97 634 L97 669 Q109 696 133 711 Q157 726 190 726 Q216 726 236 717 Q256 708 273.5 697.5 Q291 687 307.5 678.5 Q324 670 343 670 Q364 670 377.5 679.5 Q391 689 396 701 L396 720 L438 720 L438 684 Z " />
<glyph glyph-name="adieresis" unicode="&#xe4;" horiz-adv-x="535" d="M410 52 Q383 25 340 6 Q297 -13 237 -13 Q193 -13 161 -2.5 Q129 8 107 21.5 Q85 35 72.5 49 Q60 63 55 71 L55 224 Q60 232 72.5 246.5 Q85 261 106.5 275 Q128 289 159.5 299.5 Q191 310 233 310 Q294 310 338 292 Q382 274 409 248 L409 404 Q393 442 355 470.5 Q317 499 256 499 Q226 499 203 492 Q180 485 163.5 474.5 Q147 464 136.5 452.5 Q126 441 120 433 L120 379 L64 379 L64 454 Q70 463 83.5 478.5 Q97 494 120 510 Q143 526 176.5 537.5 Q210 549 256 549 Q302 549 337.5 536.5 Q373 524 399.5 505 Q426 486 442.5 463 Q459 440 468 419 L468 0 L410 0 L410 52 Z M245 37 Q305 37 347 59.5 Q389 82 409 111 L409 186 Q389 216 347 239.5 Q305 263 245 263 Q215 263 192.5 257 Q170 251 154.5 242 Q139 233 129 223 Q119 213 114 206 L114 94 Q118 88 127.5 78 Q137 68 153 59 Q169 50 191.5 43.5 Q214 37 245 37 Z M133 704 Q136 708 145.5 713 Q155 718 170 718 Q185 718 194 713 Q203 708 207 704 L207 655 Q203 651 194 646 Q185 641 170 641 Q155 641 145.5 646 Q136 651 133 655 L133 704 Z M330 704 Q333 708 342 713 Q351 718 366 718 Q382 718 391 713 Q400 708 403 704 L403 655 Q400 651 391 646 Q382 641 366 641 Q351 641 342 646 Q333 651 330 655 L330 704 Z " />
<glyph glyph-name="amacron" unicode="&#x101;" horiz-adv-x="535" d="M410 52 Q383 25 340 6 Q297 -13 237 -13 Q193 -13 161 -2.5 Q129 8 107 21.5 Q85 35 72.5 49 Q60 63 55 71 L55 224 Q60 232 72.5 246.5 Q85 261 106.5 275 Q128 289 159.5 299.5 Q191 310 233 310 Q294 310 338 292 Q382 274 409 248 L409 404 Q393 442 355 470.5 Q317 499 256 499 Q226 499 203 492 Q180 485 163.5 474.5 Q147 464 136.5 452.5 Q126 441 120 433 L120 379 L64 379 L64 454 Q70 463 83.5 478.5 Q97 494 120 510 Q143 526 176.5 537.5 Q210 549 256 549 Q302 549 337.5 536.5 Q373 524 399.5 505 Q426 486 442.5 463 Q459 440 468 419 L468 0 L410 0 L410 52 Z M245 37 Q305 37 347 59.5 Q389 82 409 111 L409 186 Q389 216 347 239.5 Q305 263 245 263 Q215 263 192.5 257 Q170 251 154.5 242 Q139 233 129 223 Q119 213 114 206 L114 94 Q118 88 127.5 78 Q137 68 153 59 Q169 50 191.5 43.5 Q214 37 245 37 Z M106 706 L422 706 L422 659 L106 659 L106 706 Z " />
<glyph glyph-name="abreve" unicode="&#x103;" horiz-adv-x="535" d="M410 52 Q383 25 340 6 Q297 -13 237 -13 Q193 -13 161 -2.5 Q129 8 107 21.5 Q85 35 72.5 49 Q60 63 55 71 L55 224 Q60 232 72.5 246.5 Q85 261 106.5 275 Q128 289 159.5 299.5 Q191 310 233 310 Q294 310 338 292 Q382 274 409 248 L409 404 Q393 442 355 470.5 Q317 499 256 499 Q226 499 203 492 Q180 485 163.5 474.5 Q147 464 136.5 452.5 Q126 441 120 433 L120 379 L64 379 L64 454 Q70 463 83.5 478.5 Q97 494 120 510 Q143 526 176.5 537.5 Q210 549 256 549 Q302 549 337.5 536.5 Q373 524 399.5 505 Q426 486 442.5 463 Q459 440 468 419 L468 0 L410 0 L410 52 Z M245 37 Q305 37 347 59.5 Q389 82 409 111 L409 186 Q389 216 347 239.5 Q305 263 245 263 Q215 263 192.5 257 Q170 251 154.5 242 Q139 233 129 223 Q119 213 114 206 L114 94 Q118 88 127.5 78 Q137 68 153 59 Q169 50 191.5 43.5 Q214 37 245 37 Z M133 718 L181 718 L181 693 Q183 688 188.5 681 Q194 674 204 667 Q214 660 228.5 655 Q243 650 264 650 Q285 650 299.5 655 Q314 660 323.5 667 Q333 674 338.5 681 Q344 688 346 693 L346 718 L394 718 L394 679 Q389 668 379 655.5 Q369 643 353.5 632.5 Q338 622 316 615 Q294 608 264 608 Q234 608 212 615 Q190 622 174.5 632.5 Q159 643 149 655.5 Q139 668 133 679 L133 718 Z " />
<glyph glyph-name="aring" unicode="&#xe5;" horiz-adv-x="535" d="M410 52 Q383 25 340 6 Q297 -13 237 -13 Q193 -13 161 -2.5 Q129 8 107 21.5 Q85 35 72.5 49 Q60 63 55 71 L55 224 Q60 232 72.5 246.5 Q85 261 106.5 275 Q128 289 159.5 299.5 Q191 310 233 310 Q294 310 338 292 Q382 274 409 248 L409 404 Q393 442 355 470.5 Q317 499 256 499 Q226 499 203 492 Q180 485 163.5 474.5 Q147 464 136.5 452.5 Q126 441 120 433 L120 379 L64 379 L64 454 Q70 463 83.5 478.5 Q97 494 120 510 Q143 526 176.5 537.5 Q210 549 256 549 Q302 549 337.5 536.5 Q373 524 399.5 505 Q426 486 442.5 463 Q459 440 468 419 L468 0 L410 0 L410 52 Z M245 37 Q305 37 347 59.5 Q389 82 409 111 L409 186 Q389 216 347 239.5 Q305 263 245 263 Q215 263 192.5 257 Q170 251 154.5 242 Q139 233 129 223 Q119 213 114 206 L114 94 Q118 88 127.5 78 Q137 68 153 59 Q169 50 191.5 43.5 Q214 37 245 37 Z M212 655 Q217 645 231.5 636.5 Q246 628 267 628 Q290 628 303.5 636.5 Q317 645 322 655 L322 714 Q317 724 303.5 732.5 Q290 741 267 741 Q246 741 231.5 732.5 Q217 724 212 714 L212 655 Z M175 724 Q185 743 208.5 758.5 Q232 774 267 774 Q302 774 325.5 758.5 Q349 743 359 724 L359 645 Q349 625 325.5 609.5 Q302 594 267 594 Q232 594 208.5 609.5 Q185 625 175 645 L175 724 Z " />
<glyph glyph-name="aogonek" unicode="&#x105;" horiz-adv-x="535" d="M299 -120 Q304 -110 315 -94.5 Q326 -79 343 -60.5 Q360 -42 382 -22 Q395 -10 410 0 L410 52 Q383 25 340 6 Q297 -13 237 -13 Q193 -13 161 -2.5 Q129 8 107 21.5 Q85 35 72.5 49 Q60 63 55 71 L55 224 Q60 232 72.5 246.5 Q85 261 106.5 275 Q128 289 159.5 299.5 Q191 310 233 310 Q294 310 338 292 Q382 274 409 248 L409 404 Q393 442 355 470.5 Q317 499 256 499 Q226 499 203 492 Q180 485 163.5 474.5 Q147 464 136.5 452.5 Q126 441 120 433 L120 379 L64 379 L64 454 Q70 463 83.5 478.5 Q97 494 120 510 Q143 526 176.5 537.5 Q210 549 256 549 Q302 549 337.5 536.5 Q373 524 399.5 505 Q426 486 442.5 463 Q459 440 468 419 L468 0 Q408 -45 379.5 -80.5 Q351 -116 346 -126 L346 -164 Q351 -173 365.5 -181 Q380 -189 400 -189 Q420 -189 435.5 -184.5 Q451 -180 468 -171 L468 -210 Q453 -219 436.5 -223 Q420 -227 394 -227 Q360 -227 334.5 -214.5 Q309 -202 299 -182 L299 -120 Z M245 37 Q305 37 347 59.5 Q389 82 409 111 L409 186 Q389 216 347 239.5 Q305 263 245 263 Q215 263 192.5 257 Q170 251 154.5 242 Q139 233 129 223 Q119 213 114 206 L114 94 Q118 88 127.5 78 Q137 68 153 59 Q169 50 191.5 43.5 Q214 37 245 37 Z " />
<glyph glyph-name="ae" unicode="&#xe6;" horiz-adv-x="884" d="M55 224 Q60 232 72.5 246.5 Q85 261 106.5 275 Q128 289 159.5 299.5 Q191 310 233 310 Q294 310 337.5 292.5 Q381 275 409 249 L409 404 Q394 442 356 470.5 Q318 499 257 499 Q227 499 204 492 Q181 485 164.5 475 Q148 465 137 453.5 Q126 442 120 434 L120 379 L64 379 L64 454 Q70 463 83.5 478.5 Q97 494 120.5 510 Q144 526 177.5 537.5 Q211 549 257 549 Q323 549 367.5 524.5 Q412 500 438 468 Q464 500 509 524.5 Q554 549 620 549 Q666 549 701.5 536.5 Q737 524 762.5 505.5 Q788 487 804.5 465.5 Q821 444 829 425 L829 256 L468 256 L468 132 Q475 114 488.5 96.5 Q502 79 521 66 Q540 53 565 45 Q590 37 620 37 Q681 37 719.5 66 Q758 95 773 132 L773 177 L829 177 L829 111 Q820 92 803.5 70 Q787 48 761.5 29.5 Q736 11 701 -1 Q666 -13 620 -13 Q551 -13 506.5 12.5 Q462 38 436 71 Q406 34 358 10.5 Q310 -13 237 -13 Q193 -13 161 -2.5 Q129 8 107 21.5 Q85 35 72.5 49 Q60 63 55 71 L55 224 Z M245 37 Q305 37 347 59.5 Q389 82 409 111 L409 186 Q389 216 347 239.5 Q305 263 245 263 Q215 263 192.5 256.5 Q170 250 154 241 Q138 232 128 222 Q118 212 113 205 L113 95 Q117 89 127 79 Q137 69 153 59.5 Q169 50 191.5 43.5 Q214 37 245 37 Z M468 303 L773 303 L773 404 Q758 441 719.5 470 Q681 499 620 499 Q590 499 565 491 Q540 483 521 470 Q502 457 488.5 439.5 Q475 422 468 404 L468 303 Z " />
<glyph glyph-name="aeacute" unicode="&#x1fd;" horiz-adv-x="884" d="M55 224 Q60 232 72.5 246.5 Q85 261 106.5 275 Q128 289 159.5 299.5 Q191 310 233 310 Q294 310 337.5 292.5 Q381 275 409 249 L409 404 Q394 442 356 470.5 Q318 499 257 499 Q227 499 204 492 Q181 485 164.5 475 Q148 465 137 453.5 Q126 442 120 434 L120 379 L64 379 L64 454 Q70 463 83.5 478.5 Q97 494 120.5 510 Q144 526 177.5 537.5 Q211 549 257 549 Q323 549 367.5 524.5 Q412 500 438 468 Q464 500 509 524.5 Q554 549 620 549 Q666 549 701.5 536.5 Q737 524 762.5 505.5 Q788 487 804.5 465.5 Q821 444 829 425 L829 256 L468 256 L468 132 Q475 114 488.5 96.5 Q502 79 521 66 Q540 53 565 45 Q590 37 620 37 Q681 37 719.5 66 Q758 95 773 132 L773 177 L829 177 L829 111 Q820 92 803.5 70 Q787 48 761.5 29.5 Q736 11 701 -1 Q666 -13 620 -13 Q551 -13 506.5 12.5 Q462 38 436 71 Q406 34 358 10.5 Q310 -13 237 -13 Q193 -13 161 -2.5 Q129 8 107 21.5 Q85 35 72.5 49 Q60 63 55 71 L55 224 Z M245 37 Q305 37 347 59.5 Q389 82 409 111 L409 186 Q389 216 347 239.5 Q305 263 245 263 Q215 263 192.5 256.5 Q170 250 154 241 Q138 232 128 222 Q118 212 113 205 L113 95 Q117 89 127 79 Q137 69 153 59.5 Q169 50 191.5 43.5 Q214 37 245 37 Z M468 303 L773 303 L773 404 Q758 441 719.5 470 Q681 499 620 499 Q590 499 565 491 Q540 483 521 470 Q502 457 488.5 439.5 Q475 422 468 404 L468 303 Z M417 615 L488 765 L542 765 L542 734 L461 599 L417 599 L417 615 Z " />
<glyph glyph-name="cacute" unicode="&#x107;" horiz-adv-x="521" d="M59 419 Q68 440 85 463 Q102 486 128 505 Q154 524 189 536.5 Q224 549 270 549 Q316 549 351.5 537 Q387 525 412.5 506 Q438 487 454.5 465 Q471 443 479 424 L479 342 L423 342 L423 404 Q408 441 369.5 470 Q331 499 270 499 Q240 499 215 491 Q190 483 171 470 Q152 457 138.5 439.5 Q125 422 118 404 L118 132 Q125 114 138.5 96.5 Q152 79 171 66 Q190 53 215 45 Q240 37 270 37 Q331 37 369.5 66 Q408 95 423 132 L423 194 L479 194 L479 112 Q471 93 454.5 71 Q438 49 412.5 30.5 Q387 12 351.5 -0.5 Q316 -13 270 -13 Q224 -13 189 -0.5 Q154 12 128 31 Q102 50 85 73 Q68 96 59 117 L59 419 Z M242 615 L313 765 L367 765 L367 734 L286 599 L242 599 L242 615 Z " />
<glyph glyph-name="ccircumflex" unicode="&#x109;" horiz-adv-x="521" d="M59 419 Q68 440 85 463 Q102 486 128 505 Q154 524 189 536.5 Q224 549 270 549 Q316 549 351.5 537 Q387 525 412.5 506 Q438 487 454.5 465 Q471 443 479 424 L479 342 L423 342 L423 404 Q408 441 369.5 470 Q331 499 270 499 Q240 499 215 491 Q190 483 171 470 Q152 457 138.5 439.5 Q125 422 118 404 L118 132 Q125 114 138.5 96.5 Q152 79 171 66 Q190 53 215 45 Q240 37 270 37 Q331 37 369.5 66 Q408 95 423 132 L423 194 L479 194 L479 112 Q471 93 454.5 71 Q438 49 412.5 30.5 Q387 12 351.5 -0.5 Q316 -13 270 -13 Q224 -13 189 -0.5 Q154 12 128 31 Q102 50 85 73 Q68 96 59 117 L59 419 Z M138 614 L232 764 L311 764 L406 614 L406 599 L363 599 L272 730 L180 599 L138 599 L138 614 Z " />
<glyph glyph-name="ccaron" unicode="&#x10d;" horiz-adv-x="521" d="M59 419 Q68 440 85 463 Q102 486 128 505 Q154 524 189 536.5 Q224 549 270 549 Q316 549 351.5 537 Q387 525 412.5 506 Q438 487 454.5 465 Q471 443 479 424 L479 342 L423 342 L423 404 Q408 441 369.5 470 Q331 499 270 499 Q240 499 215 491 Q190 483 171 470 Q152 457 138.5 439.5 Q125 422 118 404 L118 132 Q125 114 138.5 96.5 Q152 79 171 66 Q190 53 215 45 Q240 37 270 37 Q331 37 369.5 66 Q408 95 423 132 L423 194 L479 194 L479 112 Q471 93 454.5 71 Q438 49 412.5 30.5 Q387 12 351.5 -0.5 Q316 -13 270 -13 Q224 -13 189 -0.5 Q154 12 128 31 Q102 50 85 73 Q68 96 59 117 L59 419 Z M135 748 L135 764 L177 764 L269 633 L360 764 L403 764 L403 748 L308 599 L229 599 L135 748 Z " />
<glyph glyph-name="cdotaccent" unicode="&#x10b;" horiz-adv-x="521" d="M59 419 Q68 440 85 463 Q102 486 128 505 Q154 524 189 536.5 Q224 549 270 549 Q316 549 351.5 537 Q387 525 412.5 506 Q438 487 454.5 465 Q471 443 479 424 L479 342 L423 342 L423 404 Q408 441 369.5 470 Q331 499 270 499 Q240 499 215 491 Q190 483 171 470 Q152 457 138.5 439.5 Q125 422 118 404 L118 132 Q125 114 138.5 96.5 Q152 79 171 66 Q190 53 215 45 Q240 37 270 37 Q331 37 369.5 66 Q408 95 423 132 L423 194 L479 194 L479 112 Q471 93 454.5 71 Q438 49 412.5 30.5 Q387 12 351.5 -0.5 Q316 -13 270 -13 Q224 -13 189 -0.5 Q154 12 128 31 Q102 50 85 73 Q68 96 59 117 L59 419 Z M236 704 Q239 710 248.5 715.5 Q258 721 274 721 Q289 721 298.5 715.5 Q308 710 312 704 L312 661 Q308 655 298.5 649.5 Q289 644 274 644 Q258 644 248.5 649.5 Q239 655 236 661 L236 704 Z " />
<glyph glyph-name="ccedilla" unicode="&#xe7;" horiz-adv-x="521" d="M190 -175 Q206 -184 226 -191 Q246 -198 270 -198 Q291 -198 302.5 -189.5 Q314 -181 318 -172 L318 -125 Q314 -116 302.5 -108 Q291 -100 271 -100 L213 -100 L238 -11 Q211 -8 189 0 Q154 12 128 31 Q102 50 85 73 Q68 96 59 117 L59 419 Q68 440 85 463 Q102 486 128 505 Q154 524 189 536.5 Q224 549 270 549 Q316 549 351.5 537 Q387 525 412.5 506 Q438 487 454.5 465 Q471 443 479 424 L479 342 L423 342 L423 404 Q408 441 369.5 470 Q331 499 270 499 Q240 499 215 491 Q190 483 171 470 Q152 457 138.5 439.5 Q125 422 118 404 L118 132 Q125 114 138.5 96.5 Q152 79 171 66 Q190 53 215 45 Q240 37 270 37 Q331 37 369.5 66 Q408 95 423 132 L423 194 L479 194 L479 112 Q471 93 454.5 71 Q438 49 412.5 30.5 Q387 12 351 0 Q319 -11 279 -13 L264 -65 L280 -65 Q311 -65 332.5 -79 Q354 -93 362 -110 L362 -189 Q353 -207 330 -221.5 Q307 -236 272 -236 Q243 -236 220 -229 Q197 -222 181 -211 L190 -175 Z " />
<glyph glyph-name="dcaron" unicode="&#x10f;" horiz-adv-x="662" d="M563 554 L581 700 L632 700 L632 665 L602 538 L563 538 L563 554 Z M411 46 Q385 22 344.5 5 Q304 -12 250 -12 Q206 -12 173.5 -0.5 Q141 11 117.5 27 Q94 43 80 61 Q66 79 59 93 L59 443 Q66 456 80 474 Q94 492 117.5 508.5 Q141 525 173.5 536.5 Q206 548 250 548 Q304 548 343.5 531 Q383 514 410 491 L410 700 L469 700 L469 0 L411 0 L411 46 Z M258 38 Q313 38 351 57.5 Q389 77 410 103 L410 433 Q389 459 351 478.5 Q313 498 258 498 Q228 498 204.5 491 Q181 484 164 473.5 Q147 463 135.5 450.5 Q124 438 118 428 L118 108 Q124 98 135.5 85.5 Q147 73 164 62.5 Q181 52 204.5 45 Q228 38 258 38 Z " />
<glyph glyph-name="dcroat" unicode="&#x111;" horiz-adv-x="565" d="M222 646 L410 646 L410 700 L469 700 L469 646 L534 646 L534 609 L469 609 L469 0 L411 0 L411 46 Q385 22 344.5 5 Q304 -12 250 -12 Q206 -12 173.5 -0.5 Q141 11 117.5 27 Q94 43 80 61 Q66 79 59 93 L59 438 Q66 451 80 469 Q94 487 117.5 503.5 Q141 520 173.5 531.5 Q206 543 250 543 Q304 543 343.5 526 Q383 509 410 486 L410 609 L222 609 L222 646 Z M258 38 Q313 38 351 57.5 Q389 77 410 103 L410 428 Q389 454 351 473.5 Q313 493 258 493 Q228 493 204.5 486 Q181 479 164 468.5 Q147 458 135.5 445.5 Q124 433 118 423 L118 108 Q124 98 135.5 85.5 Q147 73 164 62.5 Q181 52 204.5 45 Q228 38 258 38 Z " />
<glyph glyph-name="egrave" unicode="&#xe8;" horiz-adv-x="534" d="M59 419 Q68 440 85 463 Q102 486 128 505 Q154 524 189 536.5 Q224 549 270 549 Q316 549 351.5 536.5 Q387 524 412.5 505.5 Q438 487 454.5 465.5 Q471 444 479 425 L479 256 L118 256 L118 132 Q125 114 138.5 96.5 Q152 79 171 66 Q190 53 215 45 Q240 37 270 37 Q331 37 369.5 66 Q408 95 423 132 L423 177 L479 177 L479 111 Q470 92 453.5 70 Q437 48 411.5 29.5 Q386 11 351 -1 Q316 -13 270 -13 Q224 -13 189 -0.5 Q154 12 128 31 Q102 50 85 73 Q68 96 59 117 L59 419 Z M118 303 L423 303 L423 404 Q408 441 369.5 470 Q331 499 270 499 Q240 499 215 491 Q190 483 171 470 Q152 457 138.5 439.5 Q125 422 118 404 L118 303 Z M179 734 L179 765 L233 765 L304 615 L304 599 L260 599 L179 734 Z " />
<glyph glyph-name="eacute" unicode="&#xe9;" horiz-adv-x="534" d="M59 419 Q68 440 85 463 Q102 486 128 505 Q154 524 189 536.5 Q224 549 270 549 Q316 549 351.5 536.5 Q387 524 412.5 505.5 Q438 487 454.5 465.5 Q471 444 479 425 L479 256 L118 256 L118 132 Q125 114 138.5 96.5 Q152 79 171 66 Q190 53 215 45 Q240 37 270 37 Q331 37 369.5 66 Q408 95 423 132 L423 177 L479 177 L479 111 Q470 92 453.5 70 Q437 48 411.5 29.5 Q386 11 351 -1 Q316 -13 270 -13 Q224 -13 189 -0.5 Q154 12 128 31 Q102 50 85 73 Q68 96 59 117 L59 419 Z M118 303 L423 303 L423 404 Q408 441 369.5 470 Q331 499 270 499 Q240 499 215 491 Q190 483 171 470 Q152 457 138.5 439.5 Q125 422 118 404 L118 303 Z M247 615 L318 765 L372 765 L372 734 L291 599 L247 599 L247 615 Z " />
<glyph glyph-name="ecircumflex" unicode="&#xea;" horiz-adv-x="534" d="M59 419 Q68 440 85 463 Q102 486 128 505 Q154 524 189 536.5 Q224 549 270 549 Q316 549 351.5 536.5 Q387 524 412.5 505.5 Q438 487 454.5 465.5 Q471 444 479 425 L479 256 L118 256 L118 132 Q125 114 138.5 96.5 Q152 79 171 66 Q190 53 215 45 Q240 37 270 37 Q331 37 369.5 66 Q408 95 423 132 L423 177 L479 177 L479 111 Q470 92 453.5 70 Q437 48 411.5 29.5 Q386 11 351 -1 Q316 -13 270 -13 Q224 -13 189 -0.5 Q154 12 128 31 Q102 50 85 73 Q68 96 59 117 L59 419 Z M118 303 L423 303 L423 404 Q408 441 369.5 470 Q331 499 270 499 Q240 499 215 491 Q190 483 171 470 Q152 457 138.5 439.5 Q125 422 118 404 L118 303 Z M137 614 L231 764 L310 764 L405 614 L405 599 L362 599 L271 730 L179 599 L137 599 L137 614 Z " />
<glyph glyph-name="ecaron" unicode="&#x11b;" horiz-adv-x="534" d="M59 419 Q68 440 85 463 Q102 486 128 505 Q154 524 189 536.5 Q224 549 270 549 Q316 549 351.5 536.5 Q387 524 412.5 505.5 Q438 487 454.5 465.5 Q471 444 479 425 L479 256 L118 256 L118 132 Q125 114 138.5 96.5 Q152 79 171 66 Q190 53 215 45 Q240 37 270 37 Q331 37 369.5 66 Q408 95 423 132 L423 177 L479 177 L479 111 Q470 92 453.5 70 Q437 48 411.5 29.5 Q386 11 351 -1 Q316 -13 270 -13 Q224 -13 189 -0.5 Q154 12 128 31 Q102 50 85 73 Q68 96 59 117 L59 419 Z M118 303 L423 303 L423 404 Q408 441 369.5 470 Q331 499 270 499 Q240 499 215 491 Q190 483 171 470 Q152 457 138.5 439.5 Q125 422 118 404 L118 303 Z M139 748 L139 764 L181 764 L273 633 L364 764 L407 764 L407 748 L312 599 L233 599 L139 748 Z " />
<glyph glyph-name="edieresis" unicode="&#xeb;" horiz-adv-x="534" d="M59 419 Q68 440 85 463 Q102 486 128 505 Q154 524 189 536.5 Q224 549 270 549 Q316 549 351.5 536.5 Q387 524 412.5 505.5 Q438 487 454.5 465.5 Q471 444 479 425 L479 256 L118 256 L118 132 Q125 114 138.5 96.5 Q152 79 171 66 Q190 53 215 45 Q240 37 270 37 Q331 37 369.5 66 Q408 95 423 132 L423 177 L479 177 L479 111 Q470 92 453.5 70 Q437 48 411.5 29.5 Q386 11 351 -1 Q316 -13 270 -13 Q224 -13 189 -0.5 Q154 12 128 31 Q102 50 85 73 Q68 96 59 117 L59 419 Z M118 303 L423 303 L423 404 Q408 441 369.5 470 Q331 499 270 499 Q240 499 215 491 Q190 483 171 470 Q152 457 138.5 439.5 Q125 422 118 404 L118 303 Z M139 704 Q142 708 151.5 713 Q161 718 176 718 Q191 718 200 713 Q209 708 213 704 L213 655 Q209 651 200 646 Q191 641 176 641 Q161 641 151.5 646 Q142 651 139 655 L139 704 Z M336 704 Q339 708 348 713 Q357 718 372 718 Q388 718 397 713 Q406 708 409 704 L409 655 Q406 651 397 646 Q388 641 372 641 Q357 641 348 646 Q339 651 336 655 L336 704 Z " />
<glyph glyph-name="emacron" unicode="&#x113;" horiz-adv-x="534" d="M59 419 Q68 440 85 463 Q102 486 128 505 Q154 524 189 536.5 Q224 549 270 549 Q316 549 351.5 536.5 Q387 524 412.5 505.5 Q438 487 454.5 465.5 Q471 444 479 425 L479 256 L118 256 L118 132 Q125 114 138.5 96.5 Q152 79 171 66 Q190 53 215 45 Q240 37 270 37 Q331 37 369.5 66 Q408 95 423 132 L423 177 L479 177 L479 111 Q470 92 453.5 70 Q437 48 411.5 29.5 Q386 11 351 -1 Q316 -13 270 -13 Q224 -13 189 -0.5 Q154 12 128 31 Q102 50 85 73 Q68 96 59 117 L59 419 Z M118 303 L423 303 L423 404 Q408 441 369.5 470 Q331 499 270 499 Q240 499 215 491 Q190 483 171 470 Q152 457 138.5 439.5 Q125 422 118 404 L118 303 Z M115 706 L431 706 L431 659 L115 659 L115 706 Z " />
<glyph glyph-name="ebreve" unicode="&#x115;" horiz-adv-x="534" d="M59 419 Q68 440 85 463 Q102 486 128 505 Q154 524 189 536.5 Q224 549 270 549 Q316 549 351.5 536.5 Q387 524 412.5 505.5 Q438 487 454.5 465.5 Q471 444 479 425 L479 256 L118 256 L118 132 Q125 114 138.5 96.5 Q152 79 171 66 Q190 53 215 45 Q240 37 270 37 Q331 37 369.5 66 Q408 95 423 132 L423 177 L479 177 L479 111 Q470 92 453.5 70 Q437 48 411.5 29.5 Q386 11 351 -1 Q316 -13 270 -13 Q224 -13 189 -0.5 Q154 12 128 31 Q102 50 85 73 Q68 96 59 117 L59 419 Z M118 303 L423 303 L423 404 Q408 441 369.5 470 Q331 499 270 499 Q240 499 215 491 Q190 483 171 470 Q152 457 138.5 439.5 Q125 422 118 404 L118 303 Z M140 718 L188 718 L188 693 Q190 688 195.5 681 Q201 674 211 667 Q221 660 235.5 655 Q250 650 271 650 Q292 650 306.5 655 Q321 660 330.5 667 Q340 674 345.5 681 Q351 688 353 693 L353 718 L401 718 L401 679 Q396 668 386 655.5 Q376 643 360.5 632.5 Q345 622 323 615 Q301 608 271 608 Q241 608 219 615 Q197 622 181.5 632.5 Q166 643 156 655.5 Q146 668 140 679 L140 718 Z " />
<glyph glyph-name="edotaccent" unicode="&#x117;" horiz-adv-x="534" d="M59 419 Q68 440 85 463 Q102 486 128 505 Q154 524 189 536.5 Q224 549 270 549 Q316 549 351.5 536.5 Q387 524 412.5 505.5 Q438 487 454.5 465.5 Q471 444 479 425 L479 256 L118 256 L118 132 Q125 114 138.5 96.5 Q152 79 171 66 Q190 53 215 45 Q240 37 270 37 Q331 37 369.5 66 Q408 95 423 132 L423 177 L479 177 L479 111 Q470 92 453.5 70 Q437 48 411.5 29.5 Q386 11 351 -1 Q316 -13 270 -13 Q224 -13 189 -0.5 Q154 12 128 31 Q102 50 85 73 Q68 96 59 117 L59 419 Z M118 303 L423 303 L423 404 Q408 441 369.5 470 Q331 499 270 499 Q240 499 215 491 Q190 483 171 470 Q152 457 138.5 439.5 Q125 422 118 404 L118 303 Z M235 702 Q238 708 247.5 713.5 Q257 719 273 719 Q288 719 297.5 713.5 Q307 708 311 702 L311 659 Q307 653 297.5 647.5 Q288 642 273 642 Q257 642 247.5 647.5 Q238 653 235 659 L235 702 Z " />
<glyph glyph-name="eogonek" unicode="&#x119;" horiz-adv-x="534" d="M59 419 Q68 440 85 463 Q102 486 128 505 Q154 524 189 536.5 Q224 549 270 549 Q316 549 351.5 536.5 Q387 524 412.5 505.5 Q438 487 454.5 465.5 Q471 444 479 425 L479 256 L118 256 L118 132 Q125 114 138.5 96.5 Q152 79 171 66 Q190 53 215 45 Q240 37 270 37 Q331 37 369.5 66 Q408 95 423 132 L423 177 L479 177 L479 106 Q459 78 439.5 47 Q420 16 403.5 -14 Q387 -44 374.5 -70.5 Q362 -97 356 -115 L356 -154 Q361 -163 376 -171 Q391 -179 411 -179 Q431 -179 446.5 -174.5 Q462 -170 479 -161 L479 -200 Q464 -209 447 -213 Q430 -217 404 -217 Q371 -217 345 -204.5 Q319 -192 310 -172 L310 -109 Q313 -98 327.5 -68 Q342 -38 365 4 Q345 -4 321.5 -8.5 Q298 -13 270 -13 Q224 -13 189 -0.5 Q154 12 128 31 Q102 50 85 73 Q68 96 59 117 L59 419 Z M118 303 L423 303 L423 404 Q408 441 369.5 470 Q331 499 270 499 Q240 499 215 491 Q190 483 171 470 Q152 457 138.5 439.5 Q125 422 118 404 L118 303 Z " />
<glyph glyph-name="gcircumflex" unicode="&#x11d;" horiz-adv-x="541" d="M59 14 L118 14 L118 -49 Q123 -58 134 -70 Q145 -82 162.5 -93 Q180 -104 203.5 -111.5 Q227 -119 257 -119 Q320 -119 357.5 -93 Q395 -67 410 -32 L410 125 Q384 101 344 84.5 Q304 68 250 68 Q206 68 173.5 79.5 Q141 91 117.5 107 Q94 123 80 141 Q66 159 59 173 L59 443 Q66 456 80 474 Q94 492 117.5 508.5 Q141 525 173.5 536.5 Q206 548 250 548 Q304 548 344 531 Q384 514 411 490 L411 536 L469 536 L469 -47 Q460 -68 443.5 -90 Q427 -112 400.5 -129 Q374 -146 338.5 -157 Q303 -168 257 -168 Q211 -168 177 -156 Q143 -144 119 -127.5 Q95 -111 80.5 -93 Q66 -75 59 -64 L59 14 Z M258 118 Q313 118 351 137.5 Q389 157 410 183 L410 433 Q389 459 351 478.5 Q313 498 258 498 Q228 498 204.5 491 Q181 484 164 473.5 Q147 463 135.5 450.5 Q124 438 118 428 L118 188 Q124 178 135.5 165.5 Q147 153 164 142.5 Q181 132 204.5 125 Q228 118 258 118 Z M140 614 L234 764 L313 764 L408 614 L408 599 L365 599 L274 730 L182 599 L140 599 L140 614 Z " />
<glyph glyph-name="gbreve" unicode="&#x11f;" horiz-adv-x="541" d="M59 14 L118 14 L118 -49 Q123 -58 134 -70 Q145 -82 162.5 -93 Q180 -104 203.5 -111.5 Q227 -119 257 -119 Q320 -119 357.5 -93 Q395 -67 410 -32 L410 125 Q384 101 344 84.5 Q304 68 250 68 Q206 68 173.5 79.5 Q141 91 117.5 107 Q94 123 80 141 Q66 159 59 173 L59 443 Q66 456 80 474 Q94 492 117.5 508.5 Q141 525 173.5 536.5 Q206 548 250 548 Q304 548 344 531 Q384 514 411 490 L411 536 L469 536 L469 -47 Q460 -68 443.5 -90 Q427 -112 400.5 -129 Q374 -146 338.5 -157 Q303 -168 257 -168 Q211 -168 177 -156 Q143 -144 119 -127.5 Q95 -111 80.5 -93 Q66 -75 59 -64 L59 14 Z M258 118 Q313 118 351 137.5 Q389 157 410 183 L410 433 Q389 459 351 478.5 Q313 498 258 498 Q228 498 204.5 491 Q181 484 164 473.5 Q147 463 135.5 450.5 Q124 438 118 428 L118 188 Q124 178 135.5 165.5 Q147 153 164 142.5 Q181 132 204.5 125 Q228 118 258 118 Z M138 718 L186 718 L186 693 Q188 688 193.5 681 Q199 674 209 667 Q219 660 233.5 655 Q248 650 269 650 Q290 650 304.5 655 Q319 660 328.5 667 Q338 674 343.5 681 Q349 688 351 693 L351 718 L399 718 L399 679 Q394 668 384 655.5 Q374 643 358.5 632.5 Q343 622 321 615 Q299 608 269 608 Q239 608 217 615 Q195 622 179.5 632.5 Q164 643 154 655.5 Q144 668 138 679 L138 718 Z " />
<glyph glyph-name="gdotaccent" unicode="&#x121;" horiz-adv-x="541" d="M59 14 L118 14 L118 -49 Q123 -58 134 -70 Q145 -82 162.5 -93 Q180 -104 203.5 -111.5 Q227 -119 257 -119 Q320 -119 357.5 -93 Q395 -67 410 -32 L410 125 Q384 101 344 84.5 Q304 68 250 68 Q206 68 173.5 79.5 Q141 91 117.5 107 Q94 123 80 141 Q66 159 59 173 L59 443 Q66 456 80 474 Q94 492 117.5 508.5 Q141 525 173.5 536.5 Q206 548 250 548 Q304 548 344 531 Q384 514 411 490 L411 536 L469 536 L469 -47 Q460 -68 443.5 -90 Q427 -112 400.5 -129 Q374 -146 338.5 -157 Q303 -168 257 -168 Q211 -168 177 -156 Q143 -144 119 -127.5 Q95 -111 80.5 -93 Q66 -75 59 -64 L59 14 Z M258 118 Q313 118 351 137.5 Q389 157 410 183 L410 433 Q389 459 351 478.5 Q313 498 258 498 Q228 498 204.5 491 Q181 484 164 473.5 Q147 463 135.5 450.5 Q124 438 118 428 L118 188 Q124 178 135.5 165.5 Q147 153 164 142.5 Q181 132 204.5 125 Q228 118 258 118 Z M234 702 Q237 708 246.5 713.5 Q256 719 272 719 Q287 719 296.5 713.5 Q306 708 310 702 L310 659 Q306 653 296.5 647.5 Q287 642 272 642 Q256 642 246.5 647.5 Q237 653 234 659 L234 702 Z " />
<glyph glyph-name="gcommaaccent" unicode="&#x123;" horiz-adv-x="541" d="M59 14 L118 14 L118 -49 Q123 -58 134 -70 Q145 -82 162.5 -93 Q180 -104 203.5 -111.5 Q227 -119 257 -119 Q320 -119 357.5 -93 Q395 -67 410 -32 L410 125 Q384 101 344 84.5 Q304 68 250 68 Q206 68 173.5 79.5 Q141 91 117.5 107 Q94 123 80 141 Q66 159 59 173 L59 443 Q66 456 80 474 Q94 492 117.5 508.5 Q141 525 173.5 536.5 Q206 548 250 548 Q304 548 344 531 Q384 514 411 490 L411 536 L469 536 L469 -47 Q460 -68 443.5 -90 Q427 -112 400.5 -129 Q374 -146 338.5 -157 Q303 -168 257 -168 Q211 -168 177 -156 Q143 -144 119 -127.5 Q95 -111 80.5 -93 Q66 -75 59 -64 L59 14 Z M258 118 Q313 118 351 137.5 Q389 157 410 183 L410 433 Q389 459 351 478.5 Q313 498 258 498 Q228 498 204.5 491 Q181 484 164 473.5 Q147 463 135.5 450.5 Q124 438 118 428 L118 188 Q124 178 135.5 165.5 Q147 153 164 142.5 Q181 132 204.5 125 Q228 118 258 118 Z M238 714 Q240 722 253 733 Q266 744 288 744 L306 744 L306 716 L293 716 Q279 716 274 708 L274 676 L275 676 Q289 676 299 670.5 Q309 665 312 660 L312 625 Q309 620 299 614 Q289 608 275 608 Q261 608 250.5 614 Q240 620 238 625 L238 714 Z " />
<glyph glyph-name="hcircumflex" unicode="&#x125;" horiz-adv-x="549" d="M423 0 L423 428 Q417 438 405.5 450.5 Q394 463 377 473.5 Q360 484 336.5 491 Q313 498 283 498 Q228 498 189.5 478.5 Q151 459 131 432 L131 0 L72 0 L72 700 L131 700 L131 491 Q157 514 197 531 Q237 548 291 548 Q335 548 367.5 536.5 Q400 525 423.5 509 Q447 493 461 474.5 Q475 456 482 443 L482 0 L423 0 Z M150 769 L244 901 L323 901 L418 769 L418 753 L375 753 L284 867 L192 753 L150 753 L150 769 Z " />
<glyph glyph-name="hbar" unicode="&#x127;" horiz-adv-x="560" d="M31 646 L82 646 L82 700 L141 700 L141 646 L339 646 L339 609 L141 609 L141 486 Q167 509 207 526 Q247 543 301 543 Q345 543 377.5 531.5 Q410 520 433.5 504 Q457 488 471 469.5 Q485 451 492 438 L492 0 L433 0 L433 423 Q427 433 415.5 445.5 Q404 458 387 468.5 Q370 479 346.5 486 Q323 493 293 493 Q238 493 199.5 473.5 Q161 454 141 427 L141 0 L82 0 L82 609 L31 609 L31 646 Z " />
<glyph glyph-name="igrave" unicode="&#xec;" horiz-adv-x="203" d="M72 536 L131 536 L131 0 L72 0 L72 536 Z M7 734 L7 765 L61 765 L132 615 L132 599 L88 599 L7 734 Z " />
<glyph glyph-name="iacute" unicode="&#xed;" horiz-adv-x="203" d="M72 536 L131 536 L131 0 L72 0 L72 536 Z M73 615 L144 765 L198 765 L198 734 L117 599 L73 599 L73 615 Z " />
<glyph glyph-name="icircumflex" unicode="&#xee;" horiz-adv-x="203" d="M72 536 L131 536 L131 0 L72 0 L72 536 Z M-31 614 L63 764 L142 764 L237 614 L237 599 L194 599 L103 730 L11 599 L-31 599 L-31 614 Z " />
<glyph glyph-name="itilde" unicode="&#x129;" horiz-adv-x="203" d="M72 536 L131 536 L131 0 L72 0 L72 536 Z M273 684 Q263 661 241 644.5 Q219 628 181 628 Q155 628 135 636.5 Q115 645 97.5 655.5 Q80 666 63.5 674.5 Q47 683 28 683 Q3 683 -9 672 Q-21 661 -26 653 L-26 634 L-68 634 L-68 669 Q-56 696 -32 711 Q-8 726 25 726 Q51 726 71 717 Q91 708 108.5 697.5 Q126 687 142.5 678.5 Q159 670 178 670 Q199 670 212.5 679.5 Q226 689 231 701 L231 720 L273 720 L273 684 Z " />
<glyph glyph-name="idieresis" unicode="&#xef;" horiz-adv-x="203" d="M72 536 L131 536 L131 0 L72 0 L72 536 Z M-32 704 Q-29 708 -19.5 713 Q-10 718 5 718 Q20 718 29 713 Q38 708 42 704 L42 655 Q38 651 29 646 Q20 641 5 641 Q-10 641 -19.5 646 Q-29 651 -32 655 L-32 704 Z M165 704 Q168 708 177 713 Q186 718 201 718 Q217 718 226 713 Q235 708 238 704 L238 655 Q235 651 226 646 Q217 641 201 641 Q186 641 177 646 Q168 651 165 655 L165 704 Z " />
<glyph glyph-name="imacron" unicode="&#x12b;" horiz-adv-x="203" d="M72 536 L131 536 L131 0 L72 0 L72 536 Z M-55 706 L261 706 L261 659 L-55 659 L-55 706 Z " />
<glyph glyph-name="ibreve" unicode="&#x12d;" horiz-adv-x="203" d="M72 536 L131 536 L131 0 L72 0 L72 536 Z M-28 718 L20 718 L20 693 Q22 688 27.5 681 Q33 674 43 667 Q53 660 67.5 655 Q82 650 103 650 Q124 650 138.5 655 Q153 660 162.5 667 Q172 674 177.5 681 Q183 688 185 693 L185 718 L233 718 L233 679 Q228 668 218 655.5 Q208 643 192.5 632.5 Q177 622 155 615 Q133 608 103 608 Q73 608 51 615 Q29 622 13.5 632.5 Q-2 643 -12 655.5 Q-22 668 -28 679 L-28 718 Z " />
<glyph glyph-name="iogonek" unicode="&#x12f;" horiz-adv-x="203" d="M-38 -120 Q-33 -110 -22 -94.5 Q-11 -79 6 -60.5 Q23 -42 45 -22 Q58 -10 72 0 L72 536 L131 536 L131 0 Q71 -45 42.5 -80.5 Q14 -116 9 -126 L9 -164 Q14 -173 28.5 -181 Q43 -189 63 -189 Q83 -189 98.5 -184.5 Q114 -180 131 -171 L131 -210 Q116 -219 99.5 -223 Q83 -227 57 -227 Q23 -227 -2.5 -214.5 Q-28 -202 -38 -182 L-38 -120 Z M64 701 Q67 707 76.5 712.5 Q86 718 102 718 Q117 718 126.5 712.5 Q136 707 140 701 L140 658 Q136 652 126.5 646.5 Q117 641 102 641 Q86 641 76.5 646.5 Q67 652 64 658 L64 701 Z " />
<glyph glyph-name="dotlessi" unicode="&#x131;" horiz-adv-x="203" d="M72 536 L131 536 L131 0 L72 0 L72 536 Z " />
<glyph glyph-name="ij" unicode="&#x133;" horiz-adv-x="407" d="M64 701 Q67 707 76.5 712.5 Q86 718 102 718 Q117 718 126.5 712.5 Q136 707 140 701 L140 658 Q136 652 126.5 646.5 Q117 641 102 641 Q86 641 76.5 646.5 Q67 652 64 658 L64 701 Z M72 536 L131 536 L131 0 L72 0 L72 536 Z M123 -121 Q153 -121 178 -113 Q203 -105 222 -91.5 Q241 -78 254 -60.5 Q267 -43 275 -24 L275 536 L334 536 L334 -40 Q325 -61 308 -84 Q291 -107 265 -126 Q239 -145 204 -157.5 Q169 -170 123 -170 L123 -121 Z M266 701 Q270 707 279.5 712.5 Q289 718 304 718 Q320 718 329.5 712.5 Q339 707 342 701 L342 658 Q339 652 329.5 646.5 Q320 641 304 641 Q289 641 279.5 646.5 Q270 652 266 658 L266 701 Z " />
<glyph glyph-name="dotlessj" unicode="&#x237;" horiz-adv-x="203" d="M-80 -121 Q-50 -121 -25 -113 Q0 -105 19 -91.5 Q38 -78 51 -60.5 Q64 -43 72 -24 L72 536 L131 536 L131 -40 Q122 -61 105 -84 Q88 -107 62 -126 Q36 -145 1 -157.5 Q-34 -170 -80 -170 L-80 -121 Z " />
<glyph glyph-name="jcircumflex" unicode="&#x135;" horiz-adv-x="203" d="M-80 -121 Q-50 -121 -25 -113 Q0 -105 19 -91.5 Q38 -78 51 -60.5 Q64 -43 72 -24 L72 536 L131 536 L131 -40 Q122 -61 105 -84 Q88 -107 62 -126 Q36 -145 1 -157.5 Q-34 -170 -80 -170 L-80 -121 Z M-31 614 L63 764 L142 764 L237 614 L237 599 L194 599 L103 730 L11 599 L-31 599 L-31 614 Z " />
<glyph glyph-name="kcommaaccent" unicode="&#x137;" horiz-adv-x="479" d="M72 700 L131 700 L131 260 L141 260 L415 536 L450 536 L450 496 L254 302 L459 40 L459 0 L421 0 L214 263 L131 181 L131 0 L72 0 L72 700 Z M223 -165 L236 -165 Q247 -165 252 -156 L252 -126 Q238 -126 229 -122.5 Q220 -119 217 -115 L217 -74 Q220 -70 229 -66 Q238 -62 252 -62 Q266 -62 275 -66 Q284 -70 286 -74 L286 -159 Q284 -167 272.5 -177.5 Q261 -188 241 -188 L223 -188 L223 -165 Z " />
<glyph glyph-name="kgreenlandic" unicode="&#x138;" horiz-adv-x="479" d="M72 536 L131 536 L131 259 L141 259 L415 536 L450 536 L450 496 L254 302 L459 40 L459 0 L421 0 L214 263 L131 181 L131 0 L72 0 L72 536 Z " />
<glyph glyph-name="lacute" unicode="&#x13a;" horiz-adv-x="203" d="M72 700 L131 700 L131 0 L72 0 L72 700 Z M73 769 L144 901 L198 901 L198 870 L117 753 L73 753 L73 769 Z " />
<glyph glyph-name="lcaron" unicode="&#x13e;" horiz-adv-x="325" d="M226 554 L244 700 L295 700 L295 665 L265 538 L226 538 L226 554 Z M72 700 L131 700 L131 0 L72 0 L72 700 Z " />
<glyph glyph-name="lcommaaccent" unicode="&#x13c;" horiz-adv-x="203" d="M72 700 L131 700 L131 0 L72 0 L72 700 Z M74 -165 L87 -165 Q98 -165 103 -156 L103 -126 Q89 -126 80 -122.5 Q71 -119 68 -115 L68 -74 Q71 -70 80 -66 Q89 -62 103 -62 Q117 -62 126 -66 Q135 -70 137 -74 L137 -159 Q135 -167 123.5 -177.5 Q112 -188 92 -188 L74 -188 L74 -165 Z " />
<glyph glyph-name="lslash" unicode="&#x142;" horiz-adv-x="336" d="M31 333 L139 395 L139 700 L197 700 L197 429 L305 491 L305 437 L197 375 L197 0 L139 0 L139 341 L31 279 L31 333 Z " />
<glyph glyph-name="ldot" unicode="&#x140;" horiz-adv-x="355" d="M72 700 L131 700 L131 0 L72 0 L72 700 Z M243 389 Q246 395 255.5 400.5 Q265 406 281 406 Q296 406 305.5 400.5 Q315 395 319 389 L319 346 Q315 340 305.5 334.5 Q296 329 281 329 Q265 329 255.5 334.5 Q246 340 243 346 L243 389 Z " />
<glyph glyph-name="nacute" unicode="&#x144;" horiz-adv-x="549" d="M423 0 L423 428 Q417 438 406 450.5 Q395 463 377.5 473.5 Q360 484 336.5 491 Q313 498 283 498 Q228 498 189.5 478 Q151 458 131 432 L131 0 L72 0 L72 536 L128 536 L128 488 Q154 513 194.5 530.5 Q235 548 291 548 Q335 548 367.5 536.5 Q400 525 423.5 509 Q447 493 461 474.5 Q475 456 482 443 L482 0 L423 0 Z M250 616 L321 766 L375 766 L375 735 L294 600 L250 600 L250 616 Z " />
<glyph glyph-name="ncaron" unicode="&#x148;" horiz-adv-x="549" d="M423 0 L423 428 Q417 438 406 450.5 Q395 463 377.5 473.5 Q360 484 336.5 491 Q313 498 283 498 Q228 498 189.5 478 Q151 458 131 432 L131 0 L72 0 L72 536 L128 536 L128 488 Q154 513 194.5 530.5 Q235 548 291 548 Q335 548 367.5 536.5 Q400 525 423.5 509 Q447 493 461 474.5 Q475 456 482 443 L482 0 L423 0 Z M142 749 L142 765 L184 765 L276 634 L367 765 L410 765 L410 749 L315 600 L236 600 L142 749 Z " />
<glyph glyph-name="ntilde" unicode="&#xf1;" horiz-adv-x="549" d="M423 0 L423 428 Q417 438 406 450.5 Q395 463 377.5 473.5 Q360 484 336.5 491 Q313 498 283 498 Q228 498 189.5 478 Q151 458 131 432 L131 0 L72 0 L72 536 L128 536 L128 488 Q154 513 194.5 530.5 Q235 548 291 548 Q335 548 367.5 536.5 Q400 525 423.5 509 Q447 493 461 474.5 Q475 456 482 443 L482 0 L423 0 Z M448 685 Q438 662 416 645.5 Q394 629 356 629 Q330 629 310 637.5 Q290 646 272.5 656.5 Q255 667 238.5 675.5 Q222 684 203 684 Q178 684 166 673 Q154 662 149 654 L149 635 L107 635 L107 670 Q119 697 143 712 Q167 727 200 727 Q226 727 246 718 Q266 709 283.5 698.5 Q301 688 317.5 679.5 Q334 671 353 671 Q374 671 387.5 680.5 Q401 690 406 702 L406 721 L448 721 L448 685 Z " />
<glyph glyph-name="ncommaaccent" unicode="&#x146;" horiz-adv-x="549" d="M423 0 L423 428 Q417 438 406 450.5 Q395 463 377.5 473.5 Q360 484 336.5 491 Q313 498 283 498 Q228 498 189.5 478 Q151 458 131 432 L131 0 L72 0 L72 536 L128 536 L128 488 Q154 513 194.5 530.5 Q235 548 291 548 Q335 548 367.5 536.5 Q400 525 423.5 509 Q447 493 461 474.5 Q475 456 482 443 L482 0 L423 0 Z M246 -164 L259 -164 Q270 -164 275 -155 L275 -125 Q261 -125 252 -121.5 Q243 -118 240 -114 L240 -73 Q243 -69 252 -65 Q261 -61 275 -61 Q289 -61 298 -65 Q307 -69 309 -73 L309 -158 Q307 -166 295.5 -176.5 Q284 -187 264 -187 L246 -187 L246 -164 Z " />
<glyph glyph-name="napostrophe" unicode="&#x149;" horiz-adv-x="549" d="M423 0 L423 428 Q417 438 406 450.5 Q395 463 377.5 473.5 Q360 484 336.5 491 Q313 498 283 498 Q228 498 189.5 478 Q151 458 131 432 L131 0 L72 0 L72 536 L128 536 L128 488 Q154 513 194.5 530.5 Q235 548 291 548 Q335 548 367.5 536.5 Q400 525 423.5 509 Q447 493 461 474.5 Q475 456 482 443 L482 0 L423 0 Z M25 624 L38 624 Q49 624 54 633 L54 663 Q40 663 31 666.5 Q22 670 19 674 L19 715 Q22 719 31 723 Q40 727 54 727 Q68 727 77 723 Q86 719 88 715 L88 630 Q86 622 74.5 611.5 Q63 601 43 601 L25 601 L25 624 Z " />
<glyph glyph-name="ograve" unicode="&#xf2;" horiz-adv-x="541" d="M59 419 Q68 440 85 463 Q102 486 128 505 Q154 524 189 536.5 Q224 549 270 549 Q316 549 351.5 536.5 Q387 524 413 505 Q439 486 456 463 Q473 440 482 419 L482 117 Q473 96 456 73 Q439 50 413 31 Q387 12 351.5 -0.5 Q316 -13 270 -13 Q224 -13 189 -0.5 Q154 12 128 31 Q102 50 85 73 Q68 96 59 117 L59 419 Z M118 132 Q125 114 138.5 96.5 Q152 79 171 66 Q190 53 215 45 Q240 37 270 37 Q301 37 326 45 Q351 53 370 66 Q389 79 402 96.5 Q415 114 423 132 L423 404 Q415 422 402 439.5 Q389 457 370 470 Q351 483 326 491 Q301 499 270 499 Q240 499 215 491 Q190 483 171 470 Q152 457 138.5 439.5 Q125 422 118 404 L118 132 Z M177 735 L177 766 L231 766 L302 616 L302 600 L258 600 L177 735 Z " />
<glyph glyph-name="oacute" unicode="&#xf3;" horiz-adv-x="541" d="M59 419 Q68 440 85 463 Q102 486 128 505 Q154 524 189 536.5 Q224 549 270 549 Q316 549 351.5 536.5 Q387 524 413 505 Q439 486 456 463 Q473 440 482 419 L482 117 Q473 96 456 73 Q439 50 413 31 Q387 12 351.5 -0.5 Q316 -13 270 -13 Q224 -13 189 -0.5 Q154 12 128 31 Q102 50 85 73 Q68 96 59 117 L59 419 Z M118 132 Q125 114 138.5 96.5 Q152 79 171 66 Q190 53 215 45 Q240 37 270 37 Q301 37 326 45 Q351 53 370 66 Q389 79 402 96.5 Q415 114 423 132 L423 404 Q415 422 402 439.5 Q389 457 370 470 Q351 483 326 491 Q301 499 270 499 Q240 499 215 491 Q190 483 171 470 Q152 457 138.5 439.5 Q125 422 118 404 L118 132 Z M247 616 L318 766 L372 766 L372 735 L291 600 L247 600 L247 616 Z " />
<glyph glyph-name="ocircumflex" unicode="&#xf4;" horiz-adv-x="541" d="M59 419 Q68 440 85 463 Q102 486 128 505 Q154 524 189 536.5 Q224 549 270 549 Q316 549 351.5 536.5 Q387 524 413 505 Q439 486 456 463 Q473 440 482 419 L482 117 Q473 96 456 73 Q439 50 413 31 Q387 12 351.5 -0.5 Q316 -13 270 -13 Q224 -13 189 -0.5 Q154 12 128 31 Q102 50 85 73 Q68 96 59 117 L59 419 Z M118 132 Q125 114 138.5 96.5 Q152 79 171 66 Q190 53 215 45 Q240 37 270 37 Q301 37 326 45 Q351 53 370 66 Q389 79 402 96.5 Q415 114 423 132 L423 404 Q415 422 402 439.5 Q389 457 370 470 Q351 483 326 491 Q301 499 270 499 Q240 499 215 491 Q190 483 171 470 Q152 457 138.5 439.5 Q125 422 118 404 L118 132 Z M139 614 L233 764 L312 764 L407 614 L407 599 L364 599 L273 730 L181 599 L139 599 L139 614 Z " />
<glyph glyph-name="otilde" unicode="&#xf5;" horiz-adv-x="541" d="M59 419 Q68 440 85 463 Q102 486 128 505 Q154 524 189 536.5 Q224 549 270 549 Q316 549 351.5 536.5 Q387 524 413 505 Q439 486 456 463 Q473 440 482 419 L482 117 Q473 96 456 73 Q439 50 413 31 Q387 12 351.5 -0.5 Q316 -13 270 -13 Q224 -13 189 -0.5 Q154 12 128 31 Q102 50 85 73 Q68 96 59 117 L59 419 Z M118 132 Q125 114 138.5 96.5 Q152 79 171 66 Q190 53 215 45 Q240 37 270 37 Q301 37 326 45 Q351 53 370 66 Q389 79 402 96.5 Q415 114 423 132 L423 404 Q415 422 402 439.5 Q389 457 370 470 Q351 483 326 491 Q301 499 270 499 Q240 499 215 491 Q190 483 171 470 Q152 457 138.5 439.5 Q125 422 118 404 L118 132 Z M442 685 Q432 662 410 645.5 Q388 629 350 629 Q324 629 304 637.5 Q284 646 266.5 656.5 Q249 667 232.5 675.5 Q216 684 197 684 Q172 684 160 673 Q148 662 143 654 L143 635 L101 635 L101 670 Q113 697 137 712 Q161 727 194 727 Q220 727 240 718 Q260 709 277.5 698.5 Q295 688 311.5 679.5 Q328 671 347 671 Q368 671 381.5 680.5 Q395 690 400 702 L400 721 L442 721 L442 685 Z " />
<glyph glyph-name="odieresis" unicode="&#xf6;" horiz-adv-x="541" d="M59 419 Q68 440 85 463 Q102 486 128 505 Q154 524 189 536.5 Q224 549 270 549 Q316 549 351.5 536.5 Q387 524 413 505 Q439 486 456 463 Q473 440 482 419 L482 117 Q473 96 456 73 Q439 50 413 31 Q387 12 351.5 -0.5 Q316 -13 270 -13 Q224 -13 189 -0.5 Q154 12 128 31 Q102 50 85 73 Q68 96 59 117 L59 419 Z M118 132 Q125 114 138.5 96.5 Q152 79 171 66 Q190 53 215 45 Q240 37 270 37 Q301 37 326 45 Q351 53 370 66 Q389 79 402 96.5 Q415 114 423 132 L423 404 Q415 422 402 439.5 Q389 457 370 470 Q351 483 326 491 Q301 499 270 499 Q240 499 215 491 Q190 483 171 470 Q152 457 138.5 439.5 Q125 422 118 404 L118 132 Z M136 704 Q139 708 148.5 713 Q158 718 173 718 Q188 718 197 713 Q206 708 210 704 L210 655 Q206 651 197 646 Q188 641 173 641 Q158 641 148.5 646 Q139 651 136 655 L136 704 Z M333 704 Q336 708 345 713 Q354 718 369 718 Q385 718 394 713 Q403 708 406 704 L406 655 Q403 651 394 646 Q385 641 369 641 Q354 641 345 646 Q336 651 333 655 L333 704 Z " />
<glyph glyph-name="omacron" unicode="&#x14d;" horiz-adv-x="541" d="M59 419 Q68 440 85 463 Q102 486 128 505 Q154 524 189 536.5 Q224 549 270 549 Q316 549 351.5 536.5 Q387 524 413 505 Q439 486 456 463 Q473 440 482 419 L482 117 Q473 96 456 73 Q439 50 413 31 Q387 12 351.5 -0.5 Q316 -13 270 -13 Q224 -13 189 -0.5 Q154 12 128 31 Q102 50 85 73 Q68 96 59 117 L59 419 Z M118 132 Q125 114 138.5 96.5 Q152 79 171 66 Q190 53 215 45 Q240 37 270 37 Q301 37 326 45 Q351 53 370 66 Q389 79 402 96.5 Q415 114 423 132 L423 404 Q415 422 402 439.5 Q389 457 370 470 Q351 483 326 491 Q301 499 270 499 Q240 499 215 491 Q190 483 171 470 Q152 457 138.5 439.5 Q125 422 118 404 L118 132 Z M114 706 L430 706 L430 659 L114 659 L114 706 Z " />
<glyph glyph-name="obreve" unicode="&#x14f;" horiz-adv-x="541" d="M59 419 Q68 440 85 463 Q102 486 128 505 Q154 524 189 536.5 Q224 549 270 549 Q316 549 351.5 536.5 Q387 524 413 505 Q439 486 456 463 Q473 440 482 419 L482 117 Q473 96 456 73 Q439 50 413 31 Q387 12 351.5 -0.5 Q316 -13 270 -13 Q224 -13 189 -0.5 Q154 12 128 31 Q102 50 85 73 Q68 96 59 117 L59 419 Z M118 132 Q125 114 138.5 96.5 Q152 79 171 66 Q190 53 215 45 Q240 37 270 37 Q301 37 326 45 Q351 53 370 66 Q389 79 402 96.5 Q415 114 423 132 L423 404 Q415 422 402 439.5 Q389 457 370 470 Q351 483 326 491 Q301 499 270 499 Q240 499 215 491 Q190 483 171 470 Q152 457 138.5 439.5 Q125 422 118 404 L118 132 Z M141 719 L189 719 L189 694 Q191 689 196.5 682 Q202 675 212 668 Q222 661 236.5 656 Q251 651 272 651 Q293 651 307.5 656 Q322 661 331.5 668 Q341 675 346.5 682 Q352 689 354 694 L354 719 L402 719 L402 680 Q397 669 387 656.5 Q377 644 361.5 633.5 Q346 623 324 616 Q302 609 272 609 Q242 609 220 616 Q198 623 182.5 633.5 Q167 644 157 656.5 Q147 669 141 680 L141 719 Z " />
<glyph glyph-name="ohungarumlaut" unicode="&#x151;" horiz-adv-x="541" d="M59 419 Q68 440 85 463 Q102 486 128 505 Q154 524 189 536.5 Q224 549 270 549 Q316 549 351.5 536.5 Q387 524 413 505 Q439 486 456 463 Q473 440 482 419 L482 117 Q473 96 456 73 Q439 50 413 31 Q387 12 351.5 -0.5 Q316 -13 270 -13 Q224 -13 189 -0.5 Q154 12 128 31 Q102 50 85 73 Q68 96 59 117 L59 419 Z M118 132 Q125 114 138.5 96.5 Q152 79 171 66 Q190 53 215 45 Q240 37 270 37 Q301 37 326 45 Q351 53 370 66 Q389 79 402 96.5 Q415 114 423 132 L423 404 Q415 422 402 439.5 Q389 457 370 470 Q351 483 326 491 Q301 499 270 499 Q240 499 215 491 Q190 483 171 470 Q152 457 138.5 439.5 Q125 422 118 404 L118 132 Z M159 609 L212 759 L261 759 L261 731 L198 594 L159 594 L159 609 Z M329 609 L381 759 L430 759 L430 731 L367 594 L329 594 L329 609 Z " />
<glyph glyph-name="oslash" unicode="&#xf8;" horiz-adv-x="541" d="M59 419 Q68 440 85 463 Q102 486 128 505 Q154 524 189 536.5 Q224 549 270 549 Q321 549 358 534.5 Q395 520 422 498 L451 536 L482 536 L482 511 L450 470 Q471 445 482 419 L482 117 Q473 96 456 73 Q439 50 413 31 Q387 12 351.5 -0.5 Q316 -13 270 -13 Q219 -13 182 1 Q145 15 119 37 L90 0 L59 0 L59 25 L90 66 Q70 90 59 117 L59 419 Z M414 422 L152 81 Q172 61 201.5 49 Q231 37 270 37 Q301 37 326 45 Q351 53 370 66 Q389 79 402 96.5 Q415 114 423 132 L423 404 L414 422 Z M118 132 Q121 123 127 114 L388 454 Q368 474 338.5 486.5 Q309 499 270 499 Q240 499 215 491 Q190 483 171 470 Q152 457 138.5 439.5 Q125 422 118 404 L118 132 Z " />
<glyph glyph-name="oslashacute" unicode="&#x1ff;" horiz-adv-x="541" d="M59 419 Q68 440 85 463 Q102 486 128 505 Q154 524 189 536.5 Q224 549 270 549 Q321 549 358 534.5 Q395 520 422 498 L451 536 L482 536 L482 511 L450 470 Q471 445 482 419 L482 117 Q473 96 456 73 Q439 50 413 31 Q387 12 351.5 -0.5 Q316 -13 270 -13 Q219 -13 182 1 Q145 15 119 37 L90 0 L59 0 L59 25 L90 66 Q70 90 59 117 L59 419 Z M414 422 L152 81 Q172 61 201.5 49 Q231 37 270 37 Q301 37 326 45 Q351 53 370 66 Q389 79 402 96.5 Q415 114 423 132 L423 404 L414 422 Z M118 132 Q121 123 127 114 L388 454 Q368 474 338.5 486.5 Q309 499 270 499 Q240 499 215 491 Q190 483 171 470 Q152 457 138.5 439.5 Q125 422 118 404 L118 132 Z M261 616 L332 766 L386 766 L386 735 L305 600 L261 600 L261 616 Z " />
<glyph glyph-name="oe" unicode="&#x153;" horiz-adv-x="898" d="M59 419 Q68 440 85 463 Q102 486 128 505 Q154 524 189 536.5 Q224 549 270 549 Q337 549 381.5 524.5 Q426 500 452 468 Q478 500 522.5 524.5 Q567 549 634 549 Q680 549 715.5 536.5 Q751 524 776.5 505.5 Q802 487 818.5 465.5 Q835 444 843 425 L843 256 L482 256 L482 132 Q489 114 502.5 96.5 Q516 79 535 66 Q554 53 579 45 Q604 37 634 37 Q695 37 733.5 66 Q772 95 787 132 L787 177 L843 177 L843 111 Q834 92 817.5 70 Q801 48 775.5 29.5 Q750 11 715 -1 Q680 -13 634 -13 Q567 -13 522.5 11.5 Q478 36 452 68 Q426 36 381.5 11.5 Q337 -13 270 -13 Q224 -13 189 -0.5 Q154 12 128 31 Q102 50 85 73 Q68 96 59 117 L59 419 Z M118 132 Q125 114 138.5 96.5 Q152 79 171 66 Q190 53 215 45 Q240 37 270 37 Q301 37 326 45 Q351 53 370 66 Q389 79 402 96.5 Q415 114 423 132 L423 404 Q415 422 402 439.5 Q389 457 370 470 Q351 483 326 491 Q301 499 270 499 Q240 499 215 491 Q190 483 171 470 Q152 457 138.5 439.5 Q125 422 118 404 L118 132 Z M482 303 L787 303 L787 404 Q772 441 733.5 470 Q695 499 634 499 Q604 499 579 491 Q554 483 535 470 Q516 457 502.5 439.5 Q489 422 482 404 L482 303 Z " />
<glyph glyph-name="racute" unicode="&#x155;" horiz-adv-x="342" d="M72 536 L128 536 L128 467 Q151 495 192.5 515.5 Q234 536 296 536 Q299 536 304.5 536 Q310 536 318 535 L318 481 Q308 482 302.5 482 Q297 482 295 482 Q235 482 193.5 461.5 Q152 441 131 414 L131 0 L72 0 L72 536 Z M163 615 L234 765 L288 765 L288 734 L207 599 L163 599 L163 615 Z " />
<glyph glyph-name="rcaron" unicode="&#x159;" horiz-adv-x="342" d="M72 536 L128 536 L128 467 Q151 495 192.5 515.5 Q234 536 296 536 Q299 536 304.5 536 Q310 536 318 535 L318 481 Q308 482 302.5 482 Q297 482 295 482 Q235 482 193.5 461.5 Q152 441 131 414 L131 0 L72 0 L72 536 Z M67 748 L67 764 L109 764 L201 633 L292 764 L335 764 L335 748 L240 599 L161 599 L67 748 Z " />
<glyph glyph-name="rcommaaccent" unicode="&#x157;" horiz-adv-x="342" d="M72 536 L128 536 L128 467 Q151 495 192.5 515.5 Q234 536 296 536 Q299 536 304.5 536 Q310 536 318 535 L318 481 Q308 482 302.5 482 Q297 482 295 482 Q235 482 193.5 461.5 Q152 441 131 414 L131 0 L72 0 L72 536 Z M73 -165 L86 -165 Q97 -165 102 -156 L102 -126 Q88 -126 79 -122.5 Q70 -119 67 -115 L67 -74 Q70 -70 79 -66 Q88 -62 102 -62 Q116 -62 125 -66 Q134 -70 136 -74 L136 -159 Q134 -167 122.5 -177.5 Q111 -188 91 -188 L73 -188 L73 -165 Z " />
<glyph glyph-name="sacute" unicode="&#x15b;" horiz-adv-x="501" d="M59 165 L115 165 L115 101 Q122 91 134 79.5 Q146 68 163 58.5 Q180 49 201.5 43 Q223 37 250 37 Q277 37 299 43 Q321 49 338 58.5 Q355 68 367 79.5 Q379 91 386 101 L386 184 Q374 204 347 217.5 Q320 231 278 242 L210 259 Q146 275 109 297.5 Q72 320 59 342 L59 454 Q66 466 81 482 Q96 498 119.5 513 Q143 528 175.5 538.5 Q208 549 250 549 Q293 549 325.5 538.5 Q358 528 381 513 Q404 498 419 482 Q434 466 442 454 L442 372 L386 372 L386 435 Q379 445 367 456.5 Q355 468 338 477.5 Q321 487 299 493 Q277 499 250 499 Q223 499 201 493 Q179 487 162.5 477.5 Q146 468 134 456.5 Q122 445 115 435 L115 367 Q128 346 154.5 333 Q181 320 223 309 L291 292 Q355 276 392 253.5 Q429 231 442 208 L442 82 Q434 70 419 53.5 Q404 37 381 22.5 Q358 8 325.5 -2.5 Q293 -13 250 -13 Q208 -13 175.5 -2.5 Q143 8 119.5 23 Q96 38 81 54 Q66 70 59 82 L59 165 Z M223 616 L294 766 L348 766 L348 735 L267 600 L223 600 L223 616 Z " />
<glyph glyph-name="scircumflex" unicode="&#x15d;" horiz-adv-x="501" d="M59 165 L115 165 L115 101 Q122 91 134 79.5 Q146 68 163 58.5 Q180 49 201.5 43 Q223 37 250 37 Q277 37 299 43 Q321 49 338 58.5 Q355 68 367 79.5 Q379 91 386 101 L386 184 Q374 204 347 217.5 Q320 231 278 242 L210 259 Q146 275 109 297.5 Q72 320 59 342 L59 454 Q66 466 81 482 Q96 498 119.5 513 Q143 528 175.5 538.5 Q208 549 250 549 Q293 549 325.5 538.5 Q358 528 381 513 Q404 498 419 482 Q434 466 442 454 L442 372 L386 372 L386 435 Q379 445 367 456.5 Q355 468 338 477.5 Q321 487 299 493 Q277 499 250 499 Q223 499 201 493 Q179 487 162.5 477.5 Q146 468 134 456.5 Q122 445 115 435 L115 367 Q128 346 154.5 333 Q181 320 223 309 L291 292 Q355 276 392 253.5 Q429 231 442 208 L442 82 Q434 70 419 53.5 Q404 37 381 22.5 Q358 8 325.5 -2.5 Q293 -13 250 -13 Q208 -13 175.5 -2.5 Q143 8 119.5 23 Q96 38 81 54 Q66 70 59 82 L59 165 Z M121 615 L215 765 L294 765 L389 615 L389 600 L346 600 L255 731 L163 600 L121 600 L121 615 Z " />
<glyph glyph-name="scaron" unicode="&#x161;" horiz-adv-x="501" d="M59 165 L115 165 L115 101 Q122 91 134 79.5 Q146 68 163 58.5 Q180 49 201.5 43 Q223 37 250 37 Q277 37 299 43 Q321 49 338 58.5 Q355 68 367 79.5 Q379 91 386 101 L386 184 Q374 204 347 217.5 Q320 231 278 242 L210 259 Q146 275 109 297.5 Q72 320 59 342 L59 454 Q66 466 81 482 Q96 498 119.5 513 Q143 528 175.5 538.5 Q208 549 250 549 Q293 549 325.5 538.5 Q358 528 381 513 Q404 498 419 482 Q434 466 442 454 L442 372 L386 372 L386 435 Q379 445 367 456.5 Q355 468 338 477.5 Q321 487 299 493 Q277 499 250 499 Q223 499 201 493 Q179 487 162.5 477.5 Q146 468 134 456.5 Q122 445 115 435 L115 367 Q128 346 154.5 333 Q181 320 223 309 L291 292 Q355 276 392 253.5 Q429 231 442 208 L442 82 Q434 70 419 53.5 Q404 37 381 22.5 Q358 8 325.5 -2.5 Q293 -13 250 -13 Q208 -13 175.5 -2.5 Q143 8 119.5 23 Q96 38 81 54 Q66 70 59 82 L59 165 Z M118 749 L118 765 L160 765 L252 634 L343 765 L386 765 L386 749 L291 600 L212 600 L118 749 Z " />
<glyph glyph-name="scedilla" unicode="&#x15f;" horiz-adv-x="501" d="M178 -175 Q194 -184 214 -191 Q234 -198 255 -198 Q276 -198 289 -190.5 Q302 -183 306 -172 L306 -125 Q302 -115 289 -107.5 Q276 -100 256 -100 L201 -100 L226 -12 Q194 -9 168.5 -0.5 Q143 8 119.5 23 Q96 38 81 54 Q66 70 59 82 L59 165 L115 165 L115 101 Q122 91 134 79.5 Q146 68 163 58.5 Q180 49 201.5 43 Q223 37 250 37 Q277 37 299 43 Q321 49 338 58.5 Q355 68 367 79.5 Q379 91 386 101 L386 184 Q374 204 347 217.5 Q320 231 278 242 L210 259 Q146 275 109 297.5 Q72 320 59 342 L59 454 Q66 466 81 482 Q96 498 119.5 513 Q143 528 175.5 538.5 Q208 549 250 549 Q293 549 325.5 538.5 Q358 528 381 513 Q404 498 419 482 Q434 466 442 454 L442 372 L386 372 L386 435 Q379 445 367 456.5 Q355 468 338 477.5 Q321 487 299 493 Q277 499 250 499 Q223 499 201 493 Q179 487 162.5 477.5 Q146 468 134 456.5 Q122 445 115 435 L115 367 Q128 346 154.5 333 Q181 320 223 309 L291 292 Q355 276 392 253.5 Q429 231 442 208 L442 82 Q434 70 419 53.5 Q404 37 381 22.5 Q358 8 327 -1.5 Q296 -11 267 -12 L252 -65 L265 -65 Q298 -65 319.5 -78 Q341 -91 350 -110 L350 -189 Q341 -208 316.5 -222 Q292 -236 257 -236 Q232 -236 208.5 -229 Q185 -222 169 -211 L178 -175 Z " />
<glyph glyph-name="scommaaccent" unicode="&#x219;" horiz-adv-x="501" d="M59 165 L115 165 L115 101 Q122 91 134 79.5 Q146 68 163 58.5 Q180 49 201.5 43 Q223 37 250 37 Q277 37 299 43 Q321 49 338 58.5 Q355 68 367 79.5 Q379 91 386 101 L386 184 Q374 204 347 217.5 Q320 231 278 242 L210 259 Q146 275 109 297.5 Q72 320 59 342 L59 454 Q66 466 81 482 Q96 498 119.5 513 Q143 528 175.5 538.5 Q208 549 250 549 Q293 549 325.5 538.5 Q358 528 381 513 Q404 498 419 482 Q434 466 442 454 L442 372 L386 372 L386 435 Q379 445 367 456.5 Q355 468 338 477.5 Q321 487 299 493 Q277 499 250 499 Q223 499 201 493 Q179 487 162.5 477.5 Q146 468 134 456.5 Q122 445 115 435 L115 367 Q128 346 154.5 333 Q181 320 223 309 L291 292 Q355 276 392 253.5 Q429 231 442 208 L442 82 Q434 70 419 53.5 Q404 37 381 22.5 Q358 8 325.5 -2.5 Q293 -13 250 -13 Q208 -13 175.5 -2.5 Q143 8 119.5 23 Q96 38 81 54 Q66 70 59 82 L59 165 Z M220 -165 L233 -165 Q244 -165 249 -156 L249 -126 Q235 -126 226 -122.5 Q217 -119 214 -115 L214 -74 Q217 -70 226 -66 Q235 -62 249 -62 Q263 -62 272 -66 Q281 -70 283 -74 L283 -159 Q281 -167 269.5 -177.5 Q258 -188 238 -188 L220 -188 L220 -165 Z " />
<glyph glyph-name="germandbls" unicode="&#xdf;" horiz-adv-x="549" d="M72 602 Q83 621 100.5 641 Q118 661 143 677 Q168 693 200.5 703.5 Q233 714 274 714 Q315 714 348 703.5 Q381 693 406 677.5 Q431 662 448 643 Q465 624 475 607 L475 444 Q460 421 434.5 401.5 Q409 382 380 371 Q427 354 454.5 324 Q482 294 495 262 L495 117 Q466 51 412.5 25.5 Q359 0 272 0 L272 51 Q297 51 321.5 53 Q346 55 367 63 Q388 71 405.5 88 Q423 105 436 134 L436 250 Q425 275 408 293 Q391 311 371 322 Q351 333 328.5 338.5 Q306 344 284 344 L284 393 Q329 393 364.5 411.5 Q400 430 419 459 L419 586 Q400 618 363.5 641 Q327 664 274 664 Q246 664 223.5 657.5 Q201 651 183 640 Q165 629 152 615 Q139 601 131 586 L131 0 L72 0 L72 602 Z " />
<glyph glyph-name="tcaron" unicode="&#x165;" horiz-adv-x="367" d="M255 632 L273 778 L324 778 L324 743 L294 616 L255 616 L255 632 Z M25 536 L98 536 L98 651 L157 651 L157 536 L330 536 L330 489 L157 489 L157 104 Q160 96 167.5 85 Q175 74 188.5 64.5 Q202 55 223.5 48 Q245 41 278 41 Q294 41 308 42 Q322 43 330 45 L330 -1 Q323 -3 304 -5.5 Q285 -8 260 -8 Q218 -8 190 1.5 Q162 11 143.5 24.5 Q125 38 114.5 53.5 Q104 69 98 82 L98 489 L25 489 L25 536 Z " />
<glyph glyph-name="tcommaaccent" unicode="&#x163;" horiz-adv-x="347" d="M135 -175 Q151 -184 171 -191 Q191 -198 215 -198 Q236 -198 247.5 -189.5 Q259 -181 263 -172 L263 -125 Q259 -117 247.5 -108.5 Q236 -100 216 -100 L158 -100 L187 2 L188 2 Q161 11 143 24 Q125 38 114.5 53.5 Q104 69 98 82 L98 489 L25 489 L25 536 L98 536 L98 651 L157 651 L157 536 L330 536 L330 489 L157 489 L157 104 Q160 96 167.5 85 Q175 74 188.5 64.5 Q202 55 223.5 48 Q245 41 278 41 Q294 41 308 42 Q322 43 330 45 L330 -1 Q323 -3 304 -5.5 Q285 -8 260 -8 Q239 -8 226 -5 L209 -65 L225 -65 Q258 -65 278.5 -79.5 Q299 -94 307 -110 L307 -189 Q298 -207 275 -221.5 Q252 -236 217 -236 Q188 -236 165 -229 Q142 -222 126 -211 L135 -175 Z " />
<glyph glyph-name="uni021B" unicode="&#x21b;" horiz-adv-x="347" d="M25 536 L98 536 L98 651 L157 651 L157 536 L330 536 L330 489 L157 489 L157 104 Q160 96 167.5 85 Q175 74 188.5 64.5 Q202 55 223.5 48 Q245 41 278 41 Q294 41 308 42 Q322 43 330 45 L330 -1 Q323 -3 304 -5.5 Q285 -8 260 -8 Q218 -8 190 1.5 Q162 11 143.5 24.5 Q125 38 114.5 53.5 Q104 69 98 82 L98 489 L25 489 L25 536 Z M180 -165 L193 -165 Q204 -165 209 -156 L209 -126 Q195 -126 186 -122.5 Q177 -119 174 -115 L174 -74 Q177 -70 186 -66 Q195 -62 209 -62 Q223 -62 232 -66 Q241 -70 243 -74 L243 -159 Q241 -167 229.5 -177.5 Q218 -188 198 -188 L180 -188 L180 -165 Z " />
<glyph glyph-name="tbar" unicode="&#x167;" horiz-adv-x="347" d="M25 536 L98 536 L98 651 L157 651 L157 536 L330 536 L330 489 L157 489 L157 313 L330 313 L330 266 L157 266 L157 104 Q160 96 167.5 85 Q175 74 188.5 64.5 Q202 55 223.5 48 Q245 41 278 41 Q294 41 308 42 Q322 43 330 45 L330 -1 Q323 -3 304 -5.5 Q285 -8 260 -8 Q218 -8 190 1.5 Q162 11 143.5 24.5 Q125 38 114.5 53.5 Q104 69 98 82 L98 266 L25 266 L25 313 L98 313 L98 489 L25 489 L25 536 Z " />
<glyph glyph-name="ugrave" unicode="&#xf9;" horiz-adv-x="540" d="M127 536 L127 108 Q133 98 143.5 85.5 Q154 73 170 62.5 Q186 52 209 45 Q232 38 262 38 Q316 38 353 57.5 Q390 77 409 103 L409 536 L468 536 L468 0 L412 0 L412 46 Q386 22 347 5 Q308 -12 254 -12 Q210 -12 178 -1 Q146 10 124 26.5 Q102 43 88.5 60.5 Q75 78 68 92 L68 536 L127 536 Z M177 734 L177 765 L231 765 L302 615 L302 599 L258 599 L177 734 Z " />
<glyph glyph-name="uacute" unicode="&#xfa;" horiz-adv-x="540" d="M127 536 L127 108 Q133 98 143.5 85.5 Q154 73 170 62.5 Q186 52 209 45 Q232 38 262 38 Q316 38 353 57.5 Q390 77 409 103 L409 536 L468 536 L468 0 L412 0 L412 46 Q386 22 347 5 Q308 -12 254 -12 Q210 -12 178 -1 Q146 10 124 26.5 Q102 43 88.5 60.5 Q75 78 68 92 L68 536 L127 536 Z M242 615 L313 765 L367 765 L367 734 L286 599 L242 599 L242 615 Z " />
<glyph glyph-name="ucircumflex" unicode="&#xfb;" horiz-adv-x="540" d="M127 536 L127 108 Q133 98 143.5 85.5 Q154 73 170 62.5 Q186 52 209 45 Q232 38 262 38 Q316 38 353 57.5 Q390 77 409 103 L409 536 L468 536 L468 0 L412 0 L412 46 Q386 22 347 5 Q308 -12 254 -12 Q210 -12 178 -1 Q146 10 124 26.5 Q102 43 88.5 60.5 Q75 78 68 92 L68 536 L127 536 Z M137 614 L231 764 L310 764 L405 614 L405 599 L362 599 L271 730 L179 599 L137 599 L137 614 Z " />
<glyph glyph-name="utilde" unicode="&#x169;" horiz-adv-x="540" d="M127 536 L127 108 Q133 98 143.5 85.5 Q154 73 170 62.5 Q186 52 209 45 Q232 38 262 38 Q316 38 353 57.5 Q390 77 409 103 L409 536 L468 536 L468 0 L412 0 L412 46 Q386 22 347 5 Q308 -12 254 -12 Q210 -12 178 -1 Q146 10 124 26.5 Q102 43 88.5 60.5 Q75 78 68 92 L68 536 L127 536 Z M441 684 Q431 661 409 644.5 Q387 628 349 628 Q323 628 303 636.5 Q283 645 265.5 655.5 Q248 666 231.5 674.5 Q215 683 196 683 Q171 683 159 672 Q147 661 142 653 L142 634 L100 634 L100 669 Q112 696 136 711 Q160 726 193 726 Q219 726 239 717 Q259 708 276.5 697.5 Q294 687 310.5 678.5 Q327 670 346 670 Q367 670 380.5 679.5 Q394 689 399 701 L399 720 L441 720 L441 684 Z " />
<glyph glyph-name="udieresis" unicode="&#xfc;" horiz-adv-x="540" d="M127 536 L127 108 Q133 98 143.5 85.5 Q154 73 170 62.5 Q186 52 209 45 Q232 38 262 38 Q316 38 353 57.5 Q390 77 409 103 L409 536 L468 536 L468 0 L412 0 L412 46 Q386 22 347 5 Q308 -12 254 -12 Q210 -12 178 -1 Q146 10 124 26.5 Q102 43 88.5 60.5 Q75 78 68 92 L68 536 L127 536 Z M138 704 Q141 708 150.5 713 Q160 718 175 718 Q190 718 199 713 Q208 708 212 704 L212 655 Q208 651 199 646 Q190 641 175 641 Q160 641 150.5 646 Q141 651 138 655 L138 704 Z M335 704 Q338 708 347 713 Q356 718 371 718 Q387 718 396 713 Q405 708 408 704 L408 655 Q405 651 396 646 Q387 641 371 641 Q356 641 347 646 Q338 651 335 655 L335 704 Z " />
<glyph glyph-name="umacron" unicode="&#x16b;" horiz-adv-x="540" d="M127 536 L127 108 Q133 98 143.5 85.5 Q154 73 170 62.5 Q186 52 209 45 Q232 38 262 38 Q316 38 353 57.5 Q390 77 409 103 L409 536 L468 536 L468 0 L412 0 L412 46 Q386 22 347 5 Q308 -12 254 -12 Q210 -12 178 -1 Q146 10 124 26.5 Q102 43 88.5 60.5 Q75 78 68 92 L68 536 L127 536 Z M111 706 L427 706 L427 659 L111 659 L111 706 Z " />
<glyph glyph-name="ubreve" unicode="&#x16d;" horiz-adv-x="540" d="M127 536 L127 108 Q133 98 143.5 85.5 Q154 73 170 62.5 Q186 52 209 45 Q232 38 262 38 Q316 38 353 57.5 Q390 77 409 103 L409 536 L468 536 L468 0 L412 0 L412 46 Q386 22 347 5 Q308 -12 254 -12 Q210 -12 178 -1 Q146 10 124 26.5 Q102 43 88.5 60.5 Q75 78 68 92 L68 536 L127 536 Z M138 718 L186 718 L186 693 Q188 688 193.5 681 Q199 674 209 667 Q219 660 233.5 655 Q248 650 269 650 Q290 650 304.5 655 Q319 660 328.5 667 Q338 674 343.5 681 Q349 688 351 693 L351 718 L399 718 L399 679 Q394 668 384 655.5 Q374 643 358.5 632.5 Q343 622 321 615 Q299 608 269 608 Q239 608 217 615 Q195 622 179.5 632.5 Q164 643 154 655.5 Q144 668 138 679 L138 718 Z " />
<glyph glyph-name="uring" unicode="&#x16f;" horiz-adv-x="540" d="M127 536 L127 108 Q133 98 143.5 85.5 Q154 73 170 62.5 Q186 52 209 45 Q232 38 262 38 Q316 38 353 57.5 Q390 77 409 103 L409 536 L468 536 L468 0 L412 0 L412 46 Q386 22 347 5 Q308 -12 254 -12 Q210 -12 178 -1 Q146 10 124 26.5 Q102 43 88.5 60.5 Q75 78 68 92 L68 536 L127 536 Z M215 655 Q220 645 234.5 636.5 Q249 628 270 628 Q293 628 306.5 636.5 Q320 645 325 655 L325 714 Q320 724 306.5 732.5 Q293 741 270 741 Q249 741 234.5 732.5 Q220 724 215 714 L215 655 Z M178 724 Q188 743 211.5 758.5 Q235 774 270 774 Q305 774 328.5 758.5 Q352 743 362 724 L362 645 Q352 625 328.5 609.5 Q305 594 270 594 Q235 594 211.5 609.5 Q188 625 178 645 L178 724 Z " />
<glyph glyph-name="uhungarumlaut" unicode="&#x171;" horiz-adv-x="540" d="M127 536 L127 108 Q133 98 143.5 85.5 Q154 73 170 62.5 Q186 52 209 45 Q232 38 262 38 Q316 38 353 57.5 Q390 77 409 103 L409 536 L468 536 L468 0 L412 0 L412 46 Q386 22 347 5 Q308 -12 254 -12 Q210 -12 178 -1 Q146 10 124 26.5 Q102 43 88.5 60.5 Q75 78 68 92 L68 536 L127 536 Z M163 609 L216 759 L265 759 L265 731 L202 594 L163 594 L163 609 Z M333 609 L385 759 L434 759 L434 731 L371 594 L333 594 L333 609 Z " />
<glyph glyph-name="uogonek" unicode="&#x173;" horiz-adv-x="540" d="M299 -120 Q304 -110 315 -94.5 Q326 -79 343 -60.5 Q360 -42 382 -22 Q396 -9 412 2 L412 46 Q386 22 347 5 Q308 -12 254 -12 Q210 -12 178 -1 Q146 10 124 26.5 Q102 43 88.5 60.5 Q75 78 68 92 L68 536 L127 536 L127 108 Q133 98 143.5 85.5 Q154 73 170 62.5 Q186 52 209 45 Q232 38 262 38 Q316 38 353 57.5 Q390 77 409 103 L409 536 L468 536 L468 0 Q408 -45 379.5 -80.5 Q351 -116 346 -126 L346 -164 Q351 -173 365.5 -181 Q380 -189 400 -189 Q420 -189 435.5 -184.5 Q451 -180 468 -171 L468 -210 Q453 -219 436.5 -223 Q420 -227 394 -227 Q360 -227 334.5 -214.5 Q309 -202 299 -182 L299 -120 Z " />
<glyph glyph-name="wgrave" unicode="&#x1e81;" horiz-adv-x="762" d="M41 496 L41 536 L91 536 L203 61 L217 61 L345 536 L419 536 L547 61 L561 61 L673 536 L721 536 L721 496 L598 0 L512 0 L388 450 L374 450 L250 0 L165 0 L41 496 Z M277 734 L277 765 L331 765 L402 615 L402 599 L358 599 L277 734 Z " />
<glyph glyph-name="wacute" unicode="&#x1e83;" horiz-adv-x="762" d="M41 496 L41 536 L91 536 L203 61 L217 61 L345 536 L419 536 L547 61 L561 61 L673 536 L721 536 L721 496 L598 0 L512 0 L388 450 L374 450 L250 0 L165 0 L41 496 Z M357 615 L428 765 L482 765 L482 734 L401 599 L357 599 L357 615 Z " />
<glyph glyph-name="wcircumflex" unicode="&#x175;" horiz-adv-x="762" d="M41 496 L41 536 L91 536 L203 61 L217 61 L345 536 L419 536 L547 61 L561 61 L673 536 L721 536 L721 496 L598 0 L512 0 L388 450 L374 450 L250 0 L165 0 L41 496 Z M246 614 L340 764 L419 764 L514 614 L514 599 L471 599 L380 730 L288 599 L246 599 L246 614 Z " />
<glyph glyph-name="wdieresis" unicode="&#x1e85;" horiz-adv-x="762" d="M41 496 L41 536 L91 536 L203 61 L217 61 L345 536 L419 536 L547 61 L561 61 L673 536 L721 536 L721 496 L598 0 L512 0 L388 450 L374 450 L250 0 L165 0 L41 496 Z M245 704 Q248 708 257.5 713 Q267 718 282 718 Q297 718 306 713 Q315 708 319 704 L319 655 Q315 651 306 646 Q297 641 282 641 Q267 641 257.5 646 Q248 651 245 655 L245 704 Z M442 704 Q445 708 454 713 Q463 718 478 718 Q494 718 503 713 Q512 708 515 704 L515 655 Q512 651 503 646 Q494 641 478 641 Q463 641 454 646 Q445 651 442 655 L442 704 Z " />
<glyph glyph-name="ygrave" unicode="&#x1ef3;" horiz-adv-x="491" d="M222 -7 L40 494 L40 536 L88 536 L245 82 L257 82 L406 536 L454 536 L454 497 L251 -96 Q239 -114 220 -127.5 Q201 -141 179 -150.5 Q157 -160 133.5 -165 Q110 -170 88 -170 Q70 -170 56.5 -168.5 Q43 -167 37 -165 L37 -118 Q48 -120 60.5 -120 Q73 -120 80 -120 Q121 -120 153.5 -104 Q186 -88 203 -68 L222 -7 Z M155 734 L155 765 L209 765 L280 615 L280 599 L236 599 L155 734 Z " />
<glyph glyph-name="yacute" unicode="&#xfd;" horiz-adv-x="491" d="M222 -7 L40 494 L40 536 L88 536 L245 82 L257 82 L406 536 L454 536 L454 497 L251 -96 Q239 -114 220 -127.5 Q201 -141 179 -150.5 Q157 -160 133.5 -165 Q110 -170 88 -170 Q70 -170 56.5 -168.5 Q43 -167 37 -165 L37 -118 Q48 -120 60.5 -120 Q73 -120 80 -120 Q121 -120 153.5 -104 Q186 -88 203 -68 L222 -7 Z M217 615 L288 765 L342 765 L342 734 L261 599 L217 599 L217 615 Z " />
<glyph glyph-name="ycircumflex" unicode="&#x177;" horiz-adv-x="491" d="M222 -7 L40 494 L40 536 L88 536 L245 82 L257 82 L406 536 L454 536 L454 497 L251 -96 Q239 -114 220 -127.5 Q201 -141 179 -150.5 Q157 -160 133.5 -165 Q110 -170 88 -170 Q70 -170 56.5 -168.5 Q43 -167 37 -165 L37 -118 Q48 -120 60.5 -120 Q73 -120 80 -120 Q121 -120 153.5 -104 Q186 -88 203 -68 L222 -7 Z M116 614 L210 764 L289 764 L384 614 L384 599 L341 599 L250 730 L158 599 L116 599 L116 614 Z " />
<glyph glyph-name="ydieresis" unicode="&#xff;" horiz-adv-x="491" d="M222 -7 L40 494 L40 536 L88 536 L245 82 L257 82 L406 536 L454 536 L454 497 L251 -96 Q239 -114 220 -127.5 Q201 -141 179 -150.5 Q157 -160 133.5 -165 Q110 -170 88 -170 Q70 -170 56.5 -168.5 Q43 -167 37 -165 L37 -118 Q48 -120 60.5 -120 Q73 -120 80 -120 Q121 -120 153.5 -104 Q186 -88 203 -68 L222 -7 Z M110 704 Q113 708 122.5 713 Q132 718 147 718 Q162 718 171 713 Q180 708 184 704 L184 655 Q180 651 171 646 Q162 641 147 641 Q132 641 122.5 646 Q113 651 110 655 L110 704 Z M307 704 Q310 708 319 713 Q328 718 343 718 Q359 718 368 713 Q377 708 380 704 L380 655 Q377 651 368 646 Q359 641 343 641 Q328 641 319 646 Q310 651 307 655 L307 704 Z " />
<glyph glyph-name="zacute" unicode="&#x17a;" horiz-adv-x="454" d="M33 44 L344 480 L344 489 L33 489 L33 536 L421 536 L421 494 L108 56 L108 47 L421 47 L421 0 L33 0 L33 44 Z M204 615 L275 765 L329 765 L329 734 L248 599 L204 599 L204 615 Z " />
<glyph glyph-name="zcaron" unicode="&#x17e;" horiz-adv-x="454" d="M33 44 L344 480 L344 489 L33 489 L33 536 L421 536 L421 494 L108 56 L108 47 L421 47 L421 0 L33 0 L33 44 Z M102 748 L102 764 L144 764 L236 633 L327 764 L370 764 L370 748 L275 599 L196 599 L102 748 Z " />
<glyph glyph-name="zdotaccent" unicode="&#x17c;" horiz-adv-x="454" d="M33 44 L344 480 L344 489 L33 489 L33 536 L421 536 L421 494 L108 56 L108 47 L421 47 L421 0 L33 0 L33 44 Z M199 701 Q202 707 211.5 712.5 Q221 718 237 718 Q252 718 261.5 712.5 Q271 707 275 701 L275 658 Q271 652 261.5 646.5 Q252 641 237 641 Q221 641 211.5 646.5 Q202 652 199 658 L199 701 Z " />
<glyph glyph-name="eng" unicode="&#x14b;" horiz-adv-x="550" d="M271 -121 Q301 -121 326 -113 Q351 -105 370 -91.5 Q389 -78 402 -60.5 Q415 -43 423 -24 L423 428 Q417 438 406 450.5 Q395 463 377.5 473.5 Q360 484 336.5 491 Q313 498 283 498 Q228 498 189.5 478 Q151 458 131 432 L131 0 L72 0 L72 536 L128 536 L128 488 Q154 513 194.5 530.5 Q235 548 291 548 Q335 548 367.5 536.5 Q400 525 423.5 509 Q447 493 461 474.5 Q475 456 482 443 L482 -40 Q473 -61 456 -84 Q439 -107 413 -126 Q387 -145 352 -157.5 Q317 -170 271 -170 L271 -121 Z " />
<glyph glyph-name="eth" unicode="&#xf0;" horiz-adv-x="541" d="M178 578 L311 621 Q267 660 221 685 L263 717 Q292 703 319 683.5 Q346 664 371 641 L482 677 L482 640 L399 613 Q430 581 451.5 550.5 Q473 520 482 500 L482 118 Q473 96 456 73 Q439 50 413 31 Q387 12 351.5 -0.5 Q316 -13 270 -13 Q224 -13 189 -0.5 Q154 12 128 31 Q102 50 85 73 Q68 96 59 117 L59 362 Q67 383 83 406 Q99 429 123.5 448 Q148 467 181.5 479 Q215 491 259 491 Q316 491 356 474.5 Q396 458 423 435 L423 485 Q414 507 392 536 Q370 565 341 594 L178 541 L178 578 Z M118 132 Q125 114 138.5 96.5 Q152 79 171 66 Q190 53 215 45 Q240 37 270 37 Q301 37 326 45 Q351 53 370 66 Q389 79 402 96.5 Q415 114 423 132 L423 375 Q416 385 402 397 Q388 409 368.5 418.5 Q349 428 324.5 434.5 Q300 441 270 441 Q209 441 171 412.5 Q133 384 118 347 L118 132 Z " />
<glyph glyph-name="thorn" unicode="&#xfe;" horiz-adv-x="541" d="M72 700 L131 700 L131 491 Q157 514 197 531 Q237 548 291 548 Q335 548 367.5 536.5 Q400 525 423.5 509 Q447 493 461 474.5 Q475 456 482 443 L482 93 Q475 80 461 62 Q447 44 423.5 27.5 Q400 11 367.5 -0.5 Q335 -12 291 -12 Q237 -12 197 4.5 Q157 21 131 45 L131 -164 L72 -164 L72 700 Z M283 498 Q228 498 189.5 478.5 Q151 459 131 432 L131 102 Q151 76 189.5 57 Q228 38 283 38 Q313 38 336.5 45 Q360 52 377 62.5 Q394 73 405.5 85.5 Q417 98 423 108 L423 428 Q417 438 405.5 450.5 Q394 463 377 473.5 Q360 484 336.5 491 Q313 498 283 498 Z " />
<glyph glyph-name="uni0259" unicode="&#x259;" horiz-adv-x="534" d="M475 117 Q466 96 449 73 Q432 50 406 31 Q380 12 345 -0.5 Q310 -13 264 -13 Q218 -13 182.5 -0.5 Q147 12 121.5 30.5 Q96 49 79.5 70.5 Q63 92 55 111 L55 280 L416 280 L416 404 Q408 422 395 439.5 Q382 457 363 470 Q344 483 319 491 Q294 499 264 499 Q203 499 164.5 470 Q126 441 111 404 L111 359 L55 359 L55 425 Q64 444 80 466 Q96 488 121.5 506.5 Q147 525 182.5 537 Q218 549 264 549 Q310 549 345 536.5 Q380 524 406 505 Q432 486 449 463 Q466 440 475 419 L475 117 Z M416 233 L111 233 L111 132 Q126 95 164.5 66 Q203 37 264 37 Q294 37 319 45 Q344 53 363 66 Q382 79 395 96.5 Q408 114 416 132 L416 233 Z " />
<glyph glyph-name="longs" unicode="&#x17f;" horiz-adv-x="326" d="M73 623 Q79 636 89.5 651.5 Q100 667 118.5 681 Q137 695 165 704.5 Q193 714 235 714 Q259 714 278.5 711 Q298 708 305 706 L305 661 Q297 662 283 663 Q269 664 253 664 Q220 664 198.5 657 Q177 650 163.5 640.5 Q150 631 142.5 620 Q135 609 132 601 L132 0 L73 0 L73 623 Z " />
<glyph glyph-name="ff" unicode="&#xfb00;" horiz-adv-x="643" d="M25 536 L98 536 L98 627 Q104 640 114.5 655.5 Q125 671 143.5 684.5 Q162 698 190 707.5 Q218 717 260 717 Q284 717 303.5 714.5 Q323 712 330 710 L330 664 Q322 666 308 667 Q294 668 278 668 Q245 668 223.5 661 Q202 654 188.5 644.5 Q175 635 167.5 624 Q160 613 157 605 L157 536 L395 536 L395 627 Q401 640 411.5 655.5 Q422 671 440.5 684.5 Q459 698 487 707.5 Q515 717 557 717 Q581 717 600.5 714.5 Q620 712 628 710 L628 664 Q620 666 605.5 667 Q591 668 575 668 Q542 668 520.5 661 Q499 654 485.5 644.5 Q472 635 464.5 624 Q457 613 454 605 L454 536 L628 536 L628 489 L454 489 L454 0 L395 0 L395 489 L157 489 L157 0 L98 0 L98 489 L25 489 L25 536 Z " />
<glyph glyph-name="fi" unicode="&#xfb01;" horiz-adv-x="550" d="M25 536 L98 536 L98 627 Q104 640 114.5 655.5 Q125 671 143.5 684.5 Q162 698 190 707.5 Q218 717 260 717 Q284 717 303.5 714.5 Q323 712 330 710 L330 664 Q322 666 308 667 Q294 668 278 668 Q245 668 223.5 661 Q202 654 188.5 644.5 Q175 635 167.5 624 Q160 613 157 605 L157 536 L330 536 L330 489 L157 489 L157 0 L98 0 L98 489 L25 489 L25 536 Z M410 701 Q413 707 422.5 712.5 Q432 718 448 718 Q463 718 472.5 712.5 Q482 707 486 701 L486 658 Q482 652 472.5 646.5 Q463 641 448 641 Q432 641 422.5 646.5 Q413 652 410 658 L410 701 Z M418 536 L477 536 L477 0 L418 0 L418 536 Z " />
<glyph glyph-name="fl" unicode="&#xfb02;" horiz-adv-x="549" d="M25 536 L98 536 L98 627 Q104 640 114.5 655.5 Q125 671 143.5 684.5 Q162 698 190 707.5 Q218 717 260 717 Q284 717 303.5 714.5 Q323 712 330 710 L330 664 Q322 666 308 667 Q294 668 278 668 Q245 668 223.5 661 Q202 654 188.5 644.5 Q175 635 167.5 624 Q160 613 157 605 L157 536 L330 536 L330 489 L157 489 L157 0 L98 0 L98 489 L25 489 L25 536 Z M418 700 L477 700 L477 0 L418 0 L418 700 Z " />
<glyph glyph-name="ampersand" unicode="&#x26;" horiz-adv-x="678" d="M127 623 Q134 634 149.5 649.5 Q165 665 189.5 679.5 Q214 694 247 704 Q280 714 321 714 Q362 714 395 704 Q428 694 452 680 Q476 666 492 650.5 Q508 635 516 624 L516 537 L457 537 L457 609 Q449 618 436.5 627.5 Q424 637 407 645 Q390 653 368.5 658.5 Q347 664 321 664 Q295 664 273.5 658.5 Q252 653 235 644.5 Q218 636 205.5 626.5 Q193 617 185 608 L185 480 L495 185 L495 318 L549 318 L549 134 L646 42 L646 0 L615 0 L522 88 Q505 68 484 49.5 Q463 31 436.5 17 Q410 3 377 -5 Q344 -13 305 -13 Q256 -13 217.5 -1.5 Q179 10 150 28.5 Q121 47 101.5 70 Q82 93 72 117 L72 269 Q92 311 127.5 340 Q163 369 212 383 L127 464 L127 623 Z M306 37 Q366 37 409.5 61.5 Q453 86 482 126 L251 345 Q209 336 176.5 313 Q144 290 130 255 L130 133 Q151 88 197 62.5 Q243 37 306 37 Z " />
<glyph glyph-name="grave" unicode="&#x60;" horiz-adv-x="415" d="M145 734 L145 765 L199 765 L270 615 L270 599 L226 599 L145 734 Z " />
<glyph glyph-name="acute" unicode="&#xb4;" horiz-adv-x="415" d="M145 615 L216 765 L270 765 L270 734 L189 599 L145 599 L145 615 Z " />
<glyph glyph-name="circumflex" unicode="&#x2c6;" horiz-adv-x="415" d="M74 614 L168 764 L247 764 L342 614 L342 599 L299 599 L208 730 L116 599 L74 599 L74 614 Z " />
<glyph glyph-name="caron" unicode="&#x2c7;" horiz-adv-x="415" d="M74 748 L74 764 L116 764 L208 633 L299 764 L342 764 L342 748 L247 599 L168 599 L74 748 Z " />
<glyph glyph-name="commaaccent" unicode="&#xf6c3;" horiz-adv-x="415" d="M179 -165 L192 -165 Q203 -165 208 -156 L208 -126 Q194 -126 185 -122.5 Q176 -119 173 -115 L173 -74 Q176 -70 185 -66 Q194 -62 208 -62 Q222 -62 231 -66 Q240 -70 242 -74 L242 -159 Q240 -167 228.5 -177.5 Q217 -188 197 -188 L179 -188 L179 -165 Z " />
<glyph glyph-name="tilde" unicode="&#x2dc;" horiz-adv-x="415" d="M378 684 Q368 661 346 644.5 Q324 628 286 628 Q260 628 240 636.5 Q220 645 202.5 655.5 Q185 666 168.5 674.5 Q152 683 133 683 Q108 683 96 672 Q84 661 79 653 L79 634 L37 634 L37 669 Q49 696 73 711 Q97 726 130 726 Q156 726 176 717 Q196 708 213.5 697.5 Q231 687 247.5 678.5 Q264 670 283 670 Q304 670 317.5 679.5 Q331 689 336 701 L336 720 L378 720 L378 684 Z " />
<glyph glyph-name="dieresis" unicode="&#xa8;" horiz-adv-x="415" d="M74 704 Q77 708 86.5 713 Q96 718 111 718 Q126 718 135 713 Q144 708 148 704 L148 655 Q144 651 135 646 Q126 641 111 641 Q96 641 86.5 646 Q77 651 74 655 L74 704 Z M271 704 Q274 708 283 713 Q292 718 307 718 Q323 718 332 713 Q341 708 344 704 L344 655 Q341 651 332 646 Q323 641 307 641 Q292 641 283 646 Q274 651 271 655 L271 704 Z " />
<glyph glyph-name="macron" unicode="&#xaf;" horiz-adv-x="415" d="M50 706 L366 706 L366 659 L50 659 L50 706 Z " />
<glyph glyph-name="breve" unicode="&#x2d8;" horiz-adv-x="415" d="M77 718 L125 718 L125 693 Q127 688 132.5 681 Q138 674 148 667 Q158 660 172.5 655 Q187 650 208 650 Q229 650 243.5 655 Q258 660 267.5 667 Q277 674 282.5 681 Q288 688 290 693 L290 718 L338 718 L338 679 Q333 668 323 655.5 Q313 643 297.5 632.5 Q282 622 260 615 Q238 608 208 608 Q178 608 156 615 Q134 622 118.5 632.5 Q103 643 93 655.5 Q83 668 77 679 L77 718 Z " />
<glyph glyph-name="ring" unicode="&#x2da;" horiz-adv-x="415" d="M153 655 Q158 645 172.5 636.5 Q187 628 208 628 Q231 628 244.5 636.5 Q258 645 263 655 L263 714 Q258 724 244.5 732.5 Q231 741 208 741 Q187 741 172.5 732.5 Q158 724 153 714 L153 655 Z M116 724 Q126 743 149.5 758.5 Q173 774 208 774 Q243 774 266.5 758.5 Q290 743 300 724 L300 645 Q290 625 266.5 609.5 Q243 594 208 594 Q173 594 149.5 609.5 Q126 625 116 645 L116 724 Z " />
<glyph glyph-name="hungarumlaut" unicode="&#x2dd;" horiz-adv-x="415" d="M74 609 L127 759 L176 759 L176 731 L113 594 L74 594 L74 609 Z M244 609 L296 759 L345 759 L345 731 L282 594 L244 594 L244 609 Z " />
<glyph glyph-name="dotaccent" unicode="&#x2d9;" horiz-adv-x="415" d="M170 701 Q173 707 182.5 712.5 Q192 718 208 718 Q223 718 232.5 712.5 Q242 707 246 701 L246 658 Q242 652 232.5 646.5 Q223 641 208 641 Q192 641 182.5 646.5 Q173 652 170 658 L170 701 Z " />
<glyph glyph-name="cedilla" unicode="&#xb8;" horiz-adv-x="415" d="M126 -175 Q142 -184 162 -191 Q182 -198 206 -198 Q227 -198 238.5 -189.5 Q250 -181 254 -172 L254 -125 Q250 -116 238.5 -108 Q227 -100 207 -100 L149 -100 L178 2 L220 2 L200 -65 L216 -65 Q247 -65 268.5 -79 Q290 -93 298 -110 L298 -189 Q289 -207 266 -221.5 Q243 -236 208 -236 Q179 -236 156 -229 Q133 -222 117 -211 L126 -175 Z " />
<glyph glyph-name="ogonek" unicode="&#x2db;" horiz-adv-x="415" d="M131 -120 Q136 -110 147 -94.5 Q158 -79 175 -60.5 Q192 -42 214.5 -22 Q237 -2 265 16 L300 0 Q240 -45 211.5 -80.5 Q183 -116 178 -126 L178 -164 Q183 -173 197.5 -180 Q212 -187 232 -187 Q252 -187 267.5 -183.5 Q283 -180 300 -171 L300 -210 Q285 -219 268.5 -223 Q252 -227 226 -227 Q192 -227 166.5 -214.5 Q141 -202 131 -182 L131 -120 Z " />
<glyph glyph-name="comma" unicode="&#x2c;" horiz-adv-x="164" d="M50 -68 L66 -68 Q70 -68 75 -65 Q80 -62 82 -58 L82 -7 Q68 -7 57.5 -1 Q47 5 44 11 L44 58 Q47 64 57.5 69.5 Q68 75 82 75 Q96 75 107 69.5 Q118 64 120 58 L120 -64 Q118 -72 104.5 -85.5 Q91 -99 69 -99 L50 -99 L50 -68 Z " />
<glyph glyph-name="semicolon" unicode="&#x3b;" horiz-adv-x="183" d="M59 -68 L75 -68 Q79 -68 84 -65 Q89 -62 91 -58 L91 -7 Q77 -7 66.5 -1 Q56 5 53 11 L53 58 Q56 64 66.5 69.5 Q77 75 91 75 Q105 75 116 69.5 Q127 64 129 58 L129 -64 Q127 -72 113.5 -85.5 Q100 -99 78 -99 L59 -99 L59 -68 Z M53 420 Q56 426 66 431.5 Q76 437 91 437 Q107 437 117 431.5 Q127 426 129 420 L129 373 Q127 367 117 361 Q107 355 91 355 Q76 355 66 361 Q56 367 53 373 L53 420 Z " />
<glyph glyph-name="colon" unicode="&#x3a;" horiz-adv-x="183" d="M53 58 Q56 64 66 69.5 Q76 75 91 75 Q107 75 117 69.5 Q127 64 129 58 L129 11 Q127 5 117 -1 Q107 -7 91 -7 Q76 -7 66 -1 Q56 5 53 11 L53 58 Z M53 420 Q56 426 66 431.5 Q76 437 91 437 Q107 437 117 431.5 Q127 426 129 420 L129 373 Q127 367 117 361 Q107 355 91 355 Q76 355 66 361 Q56 367 53 373 L53 420 Z " />
<glyph glyph-name="period" unicode="&#x2e;" horiz-adv-x="164" d="M44 58 Q47 64 57 69.5 Q67 75 82 75 Q98 75 108 69.5 Q118 64 120 58 L120 11 Q118 5 108 -1 Q98 -7 82 -7 Q67 -7 57 -1 Q47 5 44 11 L44 58 Z " />
<glyph glyph-name="ellipsis" unicode="&#x2026;" horiz-adv-x="490" d="M44 58 Q47 64 57 69.5 Q67 75 82 75 Q98 75 108 69.5 Q118 64 120 58 L120 11 Q118 5 108 -1 Q98 -7 82 -7 Q67 -7 57 -1 Q47 5 44 11 L44 58 Z M207 58 Q210 64 220 69.5 Q230 75 245 75 Q261 75 271 69.5 Q281 64 283 58 L283 11 Q281 5 271 -1 Q261 -7 245 -7 Q230 -7 220 -1 Q210 5 207 11 L207 58 Z M370 58 Q373 64 383 69.5 Q393 75 408 75 Q424 75 434 69.5 Q444 64 446 58 L446 11 Q444 5 434 -1 Q424 -7 408 -7 Q393 -7 383 -1 Q373 5 370 11 L370 58 Z " />
<glyph glyph-name="hyphen" unicode="&#x2d;" horiz-adv-x="362" d="M46 364 L316 364 L316 314 L46 314 L46 364 Z " />
<glyph glyph-name="exclam" unicode="&#x21;" horiz-adv-x="258" d="M96 605 L96 700 L162 700 L162 605 L154 141 L104 141 L96 605 Z M91 56 Q94 62 104 67.5 Q114 73 129 73 Q145 73 155 67.5 Q165 62 167 56 L167 11 Q165 5 155 -1 Q145 -7 129 -7 Q114 -7 104 -1 Q94 5 91 11 L91 56 Z " />
<glyph glyph-name="exclamdown" unicode="&#xa1;" horiz-adv-x="258" d="M162 -62 L162 -157 L96 -157 L96 -62 L104 402 L154 402 L162 -62 Z M167 487 Q164 481 154 475.5 Q144 470 129 470 Q113 470 103 475.5 Q93 481 91 487 L91 532 Q93 538 103 544 Q113 550 129 550 Q144 550 154 544 Q164 538 167 532 L167 487 Z " />
<glyph glyph-name="question" unicode="&#x3f;" horiz-adv-x="522" d="M182 267 L349 389 Q369 403 390.5 420.5 Q412 438 420 451 L420 584 Q410 598 394.5 612 Q379 626 359 637 Q339 648 314 654.5 Q289 661 259 661 Q200 661 159.5 637 Q119 613 99 584 L99 498 L40 498 L40 607 Q52 624 70.5 643 Q89 662 115.5 677.5 Q142 693 177.5 703.5 Q213 714 259 714 Q306 714 342.5 703 Q379 692 406.5 675.5 Q434 659 452.5 639.5 Q471 620 482 602 L482 430 Q472 412 447 391.5 Q422 371 401 356 L243 240 L243 153 L182 153 L182 267 Z M174 58 Q177 64 187 69.5 Q197 75 212 75 Q228 75 238 69.5 Q248 64 250 58 L250 11 Q248 5 238 -1 Q228 -7 212 -7 Q197 -7 187 -1 Q177 5 174 11 L174 58 Z " />
<glyph glyph-name="questiondown" unicode="&#xbf;" horiz-adv-x="522" d="M340 275 L173 153 Q153 139 131.5 121.5 Q110 104 102 91 L102 -42 Q122 -71 163 -95 Q204 -119 263 -119 Q322 -119 362.5 -95 Q403 -71 423 -42 L423 44 L482 44 L482 -65 Q470 -82 451.5 -101 Q433 -120 406.5 -135.5 Q380 -151 344.5 -161.5 Q309 -172 263 -172 Q216 -172 179.5 -161 Q143 -150 115.5 -133.5 Q88 -117 69.5 -97.5 Q51 -78 40 -60 L40 112 Q50 130 75 150.5 Q100 171 121 186 L279 302 L279 389 L340 389 L340 275 Z M348 484 Q345 478 335 472.5 Q325 467 310 467 Q294 467 284 472.5 Q274 478 272 484 L272 531 Q274 537 284 543 Q294 549 310 549 Q325 549 335 543 Q345 537 348 531 L348 484 Z " />
<glyph glyph-name="quoteleft" unicode="&#x2018;" horiz-adv-x="168" d="M116.003 682.996 L100.004 682.996 Q96.0043 682.996 91.0046 679.996 Q86.0049 676.996 84.005 672.996 L84.005 622 Q98.0042 622 108.504 616 Q119.003 610 122.003 604.001 L122.003 557.004 Q119.003 551.004 108.504 545.504 Q98.0042 540.005 84.005 540.005 Q70.0059 540.005 59.0065 545.504 Q48.0072 551.004 46.0073 557.004 L46.0073 678.996 Q48.0072 686.996 61.5064 700.495 Q75.0056 713.994 97.0042 713.994 L116.003 713.994 L116.003 682.996 Z " />
<glyph glyph-name="quoteright" unicode="&#x2019;" horiz-adv-x="168" d="M52 570 L68 570 Q72 570 77 573 Q82 576 84 580 L84 631 Q70 631 59.5 637 Q49 643 46 649 L46 696 Q49 702 59.5 707.5 Q70 713 84 713 Q98 713 109 707.5 Q120 702 122 696 L122 574 Q120 566 106.5 552.5 Q93 539 71 539 L52 539 L52 570 Z " />
<glyph glyph-name="quotedblleft" unicode="&#x201c;" horiz-adv-x="318" d="M116.003 682.996 L100.004 682.996 Q96.0043 682.996 91.0046 679.996 Q86.0049 676.996 84.005 672.996 L84.005 622 Q98.0042 622 108.504 616 Q119.003 610 122.003 604.001 L122.003 557.004 Q119.003 551.004 108.504 545.504 Q98.0042 540.005 84.005 540.005 Q70.0059 540.005 59.0065 545.504 Q48.0072 551.004 46.0073 557.004 L46.0073 678.996 Q48.0072 686.996 61.5064 700.495 Q75.0056 713.994 97.0042 713.994 L116.003 713.994 L116.003 682.996 Z M266.003 682.996 L250.004 682.996 Q246.004 682.996 241.005 679.996 Q236.005 676.996 234.005 672.996 L234.005 622 Q248.004 622 258.504 616 Q269.003 610 272.003 604.001 L272.003 557.004 Q269.003 551.004 258.504 545.504 Q248.004 540.005 234.005 540.005 Q220.006 540.005 209.007 545.504 Q198.007 551.004 196.007 557.004 L196.007 678.996 Q198.007 686.996 211.506 700.495 Q225.006 713.994 247.004 713.994 L266.003 713.994 L266.003 682.996 Z " />
<glyph glyph-name="quotedblright" unicode="&#x201d;" horiz-adv-x="318" d="M52 570 L68 570 Q72 570 77 573 Q82 576 84 580 L84 631 Q70 631 59.5 637 Q49 643 46 649 L46 696 Q49 702 59.5 707.5 Q70 713 84 713 Q98 713 109 707.5 Q120 702 122 696 L122 574 Q120 566 106.5 552.5 Q93 539 71 539 L52 539 L52 570 Z M202 570 L218 570 Q222 570 227 573 Q232 576 234 580 L234 631 Q220 631 209.5 637 Q199 643 196 649 L196 696 Q199 702 209.5 707.5 Q220 713 234 713 Q248 713 259 707.5 Q270 702 272 696 L272 574 Q270 566 256.5 552.5 Q243 539 221 539 L202 539 L202 570 Z " />
<glyph glyph-name="quotesinglbase" unicode="&#x201a;" horiz-adv-x="168" d="M52 -68 L68 -68 Q72 -68 77 -65 Q82 -62 84 -58 L84 -7 Q70 -7 59.5 -1 Q49 5 46 11 L46 58 Q49 64 59.5 69.5 Q70 75 84 75 Q98 75 109 69.5 Q120 64 122 58 L122 -64 Q120 -72 106.5 -85.5 Q93 -99 71 -99 L52 -99 L52 -68 Z " />
<glyph glyph-name="quotedblbase" unicode="&#x201e;" horiz-adv-x="319" d="M52 -68 L68 -68 Q72 -68 77 -65 Q82 -62 84 -58 L84 -7 Q70 -7 59.5 -1 Q49 5 46 11 L46 58 Q49 64 59.5 69.5 Q70 75 84 75 Q98 75 109 69.5 Q120 64 122 58 L122 -64 Q120 -72 106.5 -85.5 Q93 -99 71 -99 L52 -99 L52 -68 Z M203 -68 L219 -68 Q223 -68 228 -65 Q233 -62 235 -58 L235 -7 Q221 -7 210.5 -1 Q200 5 197 11 L197 58 Q200 64 210.5 69.5 Q221 75 235 75 Q249 75 260 69.5 Q271 64 273 58 L273 -64 Q271 -72 257.5 -85.5 Q244 -99 222 -99 L203 -99 L203 -68 Z " />
<glyph glyph-name="guilsinglleft" unicode="&#x2039;" horiz-adv-x="329" d="M46 278 L46 319 L232 536 L274 536 L274 503 L98 298 L274 95 L274 61 L232 61 L46 278 Z " />
<glyph glyph-name="guilsinglright" unicode="&#x203a;" horiz-adv-x="330" d="M55 95 L232 298 L55 503 L55 536 L98 536 L284 319 L284 278 L98 61 L55 61 L55 95 Z " />
<glyph glyph-name="guillemotleft" unicode="&#xab;" horiz-adv-x="576" d="M46 278 L46 319 L232 536 L274 536 L274 503 L98 298 L274 95 L274 61 L232 61 L46 278 Z M293 278 L293 319 L479 536 L521 536 L521 503 L345 298 L521 95 L521 61 L479 61 L293 278 Z " />
<glyph glyph-name="guillemotright" unicode="&#xbb;" horiz-adv-x="577" d="M55 95 L232 298 L55 503 L55 536 L98 536 L284 319 L284 278 L98 61 L55 61 L55 95 Z M302 95 L479 298 L302 503 L302 536 L345 536 L531 319 L531 278 L345 61 L302 61 L302 95 Z " />
<glyph glyph-name="slash" unicode="&#x2f;" horiz-adv-x="380" d="M54 -76 L275 731 L325 731 L325 697 L104 -110 L54 -110 L54 -76 Z " />
<glyph glyph-name="bar" unicode="&#x7c;" horiz-adv-x="326" d="M132 790 L194 790 L194 -130 L132 -130 L132 790 Z " />
<glyph glyph-name="endash" unicode="&#x2013;" horiz-adv-x="562" d="M46 364 L516 364 L516 314 L46 314 L46 364 Z " />
<glyph glyph-name="emdash" unicode="&#x2014;" horiz-adv-x="862" d="M46 364 L816 364 L816 314 L46 314 L46 364 Z " />
<glyph glyph-name="bullet" unicode="&#x2022;" horiz-adv-x="317" d="M72 408 Q83 424 105 436 Q127 448 158 448 Q188 448 210.5 436.5 Q233 425 245 408 L245 313 Q233 295 210.5 282.5 Q188 270 158 270 Q127 270 105 283 Q83 296 72 313 L72 408 Z " />
<glyph glyph-name="periodcentered" unicode="&#xb7;" horiz-adv-x="164" d="M44 365 Q47 371 57 376.5 Q67 382 82 382 Q98 382 108 376.5 Q118 371 120 365 L120 318 Q118 312 108 306 Q98 300 82 300 Q67 300 57 306 Q47 312 44 318 L44 365 Z " />
<glyph glyph-name="parenleft" unicode="&#x28;" horiz-adv-x="370" d="M322 652 Q285 652 255 641 Q225 630 202.5 612 Q180 594 164.5 571.5 Q149 549 140 525 L140 8 Q149 -16 164.5 -39 Q180 -62 202.5 -80 Q225 -98 254.5 -109 Q284 -120 322 -120 L329 -120 L329 -168 L322 -168 Q269 -168 228 -154 Q187 -140 157 -117.5 Q127 -95 107 -67.5 Q87 -40 76 -13 L76 545 Q87 572 107 599.5 Q127 627 157 649.5 Q187 672 228 686 Q269 700 322 700 L329 700 L329 652 L322 652 L322 652 Z " />
<glyph glyph-name="parenright" unicode="&#x29;" horiz-adv-x="370" d="M48.0197 652 Q85.0174 652 115.016 641 Q145.014 630 167.512 612 Q190.011 594 205.51 571.5 Q221.009 549 230.009 525 L230.009 8 Q221.009 -16 205.51 -39 Q190.011 -62 167.512 -80 Q145.014 -98 115.516 -109 Q86.0173 -120 48.0197 -120 L41.0201 -120 L41.0201 -168 L48.0197 -168 Q101.016 -168 142.014 -154 Q183.011 -140 213.01 -117.5 Q243.008 -95 263.007 -67.5 Q283.005 -40 294.005 -13 L294.005 545 Q283.005 572 263.007 599.5 Q243.008 627 213.01 649.5 Q183.011 672 142.014 686 Q101.016 700 48.0197 700 L41.0201 700 L41.0201 652 L48.0197 652 L48.0197 652 Z " />
<glyph glyph-name="bracketleft" unicode="&#x5b;" horiz-adv-x="366" d="M152 -120 L311 -120 L311 -168 L89 -168 L89 700 L311 700 L311 652 L152 652 L152 -120 Z " />
<glyph glyph-name="bracketright" unicode="&#x5d;" horiz-adv-x="366" d="M214.009 -120 L55.019 -120 L55.019 -168 L277.005 -168 L277.005 700 L55.019 700 L55.019 652 L214.009 652 L214.009 -120 Z " />
<glyph glyph-name="braceleft" unicode="&#x7b;" horiz-adv-x="388" d="M104 186 Q99 205 89 215.5 Q79 226 66.5 231.5 Q54 237 41 238.5 Q28 240 17 240 L17 287 Q28 287 41 288.5 Q54 290 66.5 295.5 Q79 301 89 311.5 Q99 322 104 341 L104 545 Q115 572 135 599.5 Q155 627 185 649.5 Q215 672 256 686 Q297 700 351 700 L351 652 Q314 652 284.5 642 Q255 632 232 614.5 Q209 597 193.5 574.5 Q178 552 169 528 L169 328 Q160 304 145 288.5 Q130 273 112 263 Q130 254 145 238.5 Q160 223 169 199 L169 -1 Q178 -25 193.5 -47.5 Q209 -70 232 -87.5 Q255 -105 284.5 -115 Q314 -125 351 -125 L351 -173 Q297 -173 256 -159 Q215 -145 185 -122.5 Q155 -100 135 -72.5 Q115 -45 104 -18 L104 186 Z " />
<glyph glyph-name="braceright" unicode="&#x7d;" horiz-adv-x="388" d="M284.006 186 Q289.006 205 299.005 215.5 Q309.005 226 321.504 231.5 Q334.003 237 347.003 238.5 Q360.002 240 371.001 240 L371.001 287 Q360.002 287 347.003 288.5 Q334.003 290 321.504 295.5 Q309.005 301 299.005 311.5 Q289.006 322 284.006 341 L284.006 545 Q273.007 572 253.008 599.5 Q233.009 627 203.011 649.5 Q173.013 672 132.016 686 Q91.0181 700 37.0214 700 L37.0214 652 Q74.0192 652 103.517 642 Q133.016 632 156.014 614.5 Q179.013 597 194.512 574.5 Q210.011 552 219.01 528 L219.01 328 Q228.01 304 243.009 288.5 Q258.008 273 276.007 263 Q258.008 254 243.009 238.5 Q228.01 223 219.01 199 L219.01 -1 Q210.011 -25 194.512 -47.5 Q179.013 -70 156.014 -87.5 Q133.016 -105 103.517 -115 Q74.0192 -125 37.0214 -125 L37.0214 -173 Q91.0181 -173 132.016 -159 Q173.013 -145 203.011 -122.5 Q233.009 -100 253.008 -72.5 Q273.007 -45 284.006 -18 L284.006 186 Z " />
<glyph glyph-name="asterisk" unicode="&#x2a;" horiz-adv-x="497" d="M235 560 L221 740 Q227 745 234.5 746.5 Q242 748 249 748 Q256 748 263.5 746.5 Q271 745 277 740 L263 560 L432 629 Q437 625 441 618.5 Q445 612 448 605 Q450 598 450.5 591 Q451 584 449 576 L270 532 L389 392 Q387 385 381.5 379.5 Q376 374 371 369 Q366 365 359.5 361.5 Q353 358 345 359 L249 513 L153 359 Q145 358 138.5 361.5 Q132 365 127 369 Q122 374 116 379.5 Q110 385 108 392 L227 532 L48 576 Q46 584 46.5 591 Q47 598 49 605 Q52 612 56 618.5 Q60 625 65 629 L235 560 Z " />
<glyph glyph-name="dagger" unicode="&#x2020;" horiz-adv-x="623" d="M280 410 L127 403 L45 403 L45 460 L127 460 L279 452 L278 605 L278 700 L343 700 L343 605 L341 452 L496 460 L579 460 L579 403 L496 403 L340 410 L334 -168 L286 -168 L280 410 Z " />
<glyph glyph-name="daggerdbl" unicode="&#x2021;" horiz-adv-x="643" d="M54 276 L137 276 L292 268 L290 486 L137 480 L54 480 L54 536 L137 536 L290 529 L289 605 L289 700 L354 700 L354 605 L353 529 L506 536 L589 536 L589 480 L506 480 L352 486 L350 268 L506 276 L589 276 L589 219 L506 219 L349 226 L345 -168 L297 -168 L293 226 L137 219 L54 219 L54 276 Z " />
<glyph glyph-name="section" unicode="&#xa7;" horiz-adv-x="509" d="M446 246 Q435 230 412 209 Q389 188 350 173 Q388 158 412 140.5 Q436 123 446 106 L446 -4 Q438 -16 423.5 -32 Q409 -48 385.5 -63 Q362 -78 329.5 -88.5 Q297 -99 254 -99 Q211 -99 179 -88.5 Q147 -78 123.5 -63 Q100 -48 85.5 -32 Q71 -16 63 -4 L63 78 L119 78 L119 12 Q126 2 138 -9.5 Q150 -21 167 -30.5 Q184 -40 206 -46 Q228 -52 255 -52 Q282 -52 304 -46 Q326 -40 342.5 -30.5 Q359 -21 371 -9.5 Q383 2 390 12 L390 85 Q377 105 350.5 118.5 Q324 132 282 142 L215 159 Q151 174 113.5 197 Q76 220 63 243 L63 368 Q74 384 97 405.5 Q120 427 159 441 Q120 456 96.5 474 Q73 492 63 509 L63 619 Q71 631 86 647 Q101 663 124 678 Q147 693 179.5 703.5 Q212 714 255 714 Q298 714 330 703.5 Q362 693 385.5 678 Q409 663 423.5 647 Q438 631 446 619 L446 536 L390 536 L390 602 Q383 612 371 623.5 Q359 635 342 644.5 Q325 654 303 660 Q281 666 254 666 Q200 666 166.5 644.5 Q133 623 119 602 L119 530 Q132 510 158.5 496.5 Q185 483 227 472 L294 456 Q358 441 395.5 418 Q433 395 446 372 L446 246 Z M252 416 Q225 416 203.5 409.5 Q182 403 165.5 393.5 Q149 384 137.5 373 Q126 362 119 352 L119 264 Q131 244 158 230.5 Q185 217 227 206 L256 199 Q310 200 343 221 Q376 242 390 263 L390 350 Q378 371 351 384.5 Q324 398 282 409 L252 416 Z " />
<glyph glyph-name="paragraph" unicode="&#xb6;" horiz-adv-x="659" d="M519 700 L569 700 L569 -100 L519 -100 L519 700 Z M369 -100 L320 -100 L320 260 L250 260 Q182 260 132 294 Q82 328 55 378 L55 582 Q84 638 136.5 669 Q189 700 250 700 L369 700 L369 -100 Z " />
<glyph glyph-name="asciicircum" unicode="&#x5e;" horiz-adv-x="517" d="M54 378 L224 700 L293 700 L463 378 L463 342 L424 342 L266 645 L252 645 L94 342 L54 342 L54 378 Z " />
<glyph glyph-name="asciitilde" unicode="&#x7e;" horiz-adv-x="581" d="M32 372 Q48 384 69 395 Q87 403 112.5 410.5 Q138 418 170 418 Q206 418 240 410 Q274 402 307 392.5 Q340 383 372.5 375 Q405 367 438 367 Q463 367 483.5 374 Q504 381 519 389 Q537 399 550 411 L550 351 Q537 341 520 334 Q506 327 485.5 322 Q465 317 439 317 Q400 317 366 325 Q332 333 299.5 342.5 Q267 352 235 360 Q203 368 168 368 Q139 368 114 360 Q89 352 71 342 Q50 331 32 317 L32 372 Z " />
<glyph glyph-name="brokenbar" unicode="&#xa6;" horiz-adv-x="326" d="M132 272 L194 272 L194 -130 L132 -130 L132 272 Z M132 790 L194 790 L194 404 L132 404 L132 790 Z " />
<glyph glyph-name="backslash" unicode="&#x5c;" horiz-adv-x="380" d="M54 697 L54 731 L104 731 L325 -76 L325 -110 L275 -110 L54 697 Z " />
<glyph glyph-name="underscore" unicode="&#x5f;" horiz-adv-x="488" d="M-5 -75 L493 -75 L493 -120 L-5 -120 L-5 -75 Z " />
<glyph glyph-name="quotesingle" unicode="&#x27;" horiz-adv-x="145" d="M46 639 L46 700 L100 700 L100 640 L90 522 L55 522 L46 639 Z " />
<glyph glyph-name="quotedbl" unicode="&#x22;" horiz-adv-x="292" d="M46 639 L46 700 L100 700 L100 640 L90 522 L55 522 L46 639 Z M192 639 L192 700 L246 700 L246 640 L236 522 L201 522 L192 639 Z " />
<glyph glyph-name="at" unicode="&#x40;" horiz-adv-x="947" d="M699 -97 Q649 -127 592.5 -143.5 Q536 -160 474 -160 Q405 -160 342.5 -142 Q280 -124 227.5 -91 Q175 -58 134.5 -10.5 Q94 37 70 96 L70 457 Q95 516 136 563.5 Q177 611 230 644 Q283 677 345 695 Q407 713 475 713 Q565 713 634.5 685.5 Q704 658 754 618 Q804 578 835 534 Q866 490 879 456 L879 106 Q858 67 823 48.5 Q788 30 750 30 Q704 30 672 49.5 Q640 69 623 100 Q598 72 555.5 51 Q513 30 452 30 Q410 30 379 41 Q348 52 325.5 68 Q303 84 289.5 102 Q276 120 269 133 L269 420 Q276 433 289.5 451 Q303 469 325 485 Q347 501 378 512 Q409 523 451 523 Q510 523 550 503 Q590 483 615 456 L615 511 L669 511 L669 119 Q680 96 701 83.5 Q722 71 752 71 Q782 71 800 83 Q818 95 832 117 L832 446 Q821 473 794.5 512 Q768 551 724 586 Q680 621 618 646 Q556 671 474 671 Q413 671 358 655.5 Q303 640 257 610.5 Q211 581 175 539.5 Q139 498 116 446 L116 108 Q139 55 175 13 Q211 -29 257.5 -58 Q304 -87 359 -103 Q414 -119 474 -119 Q528 -119 577.5 -105.5 Q627 -92 671 -66 L699 -97 Z M463 76 Q518 76 556.5 96 Q595 116 615 142 L615 410 Q595 437 556.5 457 Q518 477 462 477 Q432 477 409 470 Q386 463 369 452.5 Q352 442 340.5 429.5 Q329 417 323 407 L323 146 Q329 136 340.5 123.5 Q352 111 369 100.5 Q386 90 409.5 83 Q433 76 463 76 Z " />
<glyph glyph-name="copyright" unicode="&#xa9;" horiz-adv-x="819" d="M223 482 Q230 494 245 510 Q260 526 282.5 541 Q305 556 336.5 566 Q368 576 409 576 Q450 576 481 566 Q512 556 534.5 541.5 Q557 527 571.5 511.5 Q586 496 594 485 L594 407 L544 407 L544 468 Q537 478 525 489.5 Q513 501 496.5 510.5 Q480 520 458.5 526.5 Q437 533 410 533 Q383 533 361 526.5 Q339 520 322.5 510.5 Q306 501 294 489.5 Q282 478 275 468 L275 229 Q282 218 294 207 Q306 196 322.5 186 Q339 176 361 170 Q383 164 410 164 Q437 164 458.5 170.5 Q480 177 496.5 186.5 Q513 196 525 207.5 Q537 219 544 229 L544 290 L594 290 L594 211 Q586 200 571.5 184 Q557 168 534.5 154 Q512 140 481 130 Q450 120 409 120 Q368 120 336.5 130.5 Q305 141 282.5 155.5 Q260 170 245 186.5 Q230 203 223 215 L223 482 Z M45 350 Q45 425 73.5 491.5 Q102 558 151.5 607.5 Q201 657 267.5 685.5 Q334 714 409 714 Q484 714 550.5 685.5 Q617 657 666.5 607.5 Q716 558 744.5 491.5 Q773 425 773 350 Q773 275 744.5 208.5 Q716 142 666.5 92.5 Q617 43 550.5 14.5 Q484 -14 409 -14 Q334 -14 267.5 14.5 Q201 43 151.5 92.5 Q102 142 73.5 208.5 Q45 275 45 350 Z M409 21 Q477 21 536.5 47 Q596 73 640 117.5 Q684 162 709.5 222 Q735 282 735 350 Q735 418 709.5 478 Q684 538 640 582.5 Q596 627 536.5 653 Q477 679 409 679 Q341 679 282 653 Q223 627 178.5 582.5 Q134 538 108.5 478 Q83 418 83 350 Q83 282 108.5 222 Q134 162 178.5 117.5 Q223 73 282 47 Q341 21 409 21 Z " />
<glyph glyph-name="registered" unicode="&#xae;" horiz-adv-x="518" d="M20 585 Q20 634 39 677.5 Q58 721 90.5 753.5 Q123 786 166.5 805 Q210 824 259 824 Q308 824 351.5 805 Q395 786 427.5 753.5 Q460 721 479 677.5 Q498 634 498 585 Q498 536 479 492.5 Q460 449 427.5 416.5 Q395 384 351.5 365 Q308 346 259 346 Q210 346 166.5 365 Q123 384 90.5 416.5 Q58 449 39 492.5 Q20 536 20 585 Z M259 372 Q303 372 341 389 Q379 406 407.5 435 Q436 464 452.5 502.5 Q469 541 469 585 Q469 629 452.5 667.5 Q436 706 407.5 735 Q379 764 341 781 Q303 798 259 798 Q215 798 177 781 Q139 764 110.5 735 Q82 706 65.5 667.5 Q49 629 49 585 Q49 541 65.5 502.5 Q82 464 110.5 435 Q139 406 177 389 Q215 372 259 372 Z M262 554 L205 554 L205 447 L170 447 L170 732 L282 732 Q307 732 330.5 718 Q354 704 366 680 L366 607 Q355 586 337 573 Q319 560 299 556 L360 469 L360 447 L332 447 L262 554 Z M276 585 Q292 585 307 591 Q322 597 332 617 L332 670 Q322 690 307 696 Q292 702 276 702 L205 702 L205 585 L276 585 Z " />
<glyph glyph-name="trademark" unicode="&#x2122;" horiz-adv-x="784" d="M358 700 L431 700 L536 381 L546 381 L648 700 L720 700 L720 310 L679 310 L679 644 L669 644 L560 310 L518 310 L409 644 L399 644 L399 310 L358 310 L358 700 Z M28 700 L312 700 L312 665 L192 665 L192 310 L148 310 L148 665 L28 665 L28 700 Z " />
<glyph glyph-name="uni2117" unicode="&#x2117;" horiz-adv-x="819" d="M274 575 L456 575 Q499 575 535.5 550.5 Q572 526 593 484 L593 366 Q572 324 535.5 300 Q499 276 456 276 L323 276 L323 107 L274 107 L274 575 Z M445 318 Q474 318 501 331.5 Q528 345 545 380 L545 470 Q528 505 501 519 Q474 533 445 533 L323 533 L323 318 L445 318 Z M45 350 Q45 425 73.5 491.5 Q102 558 151.5 607.5 Q201 657 267.5 685.5 Q334 714 409 714 Q484 714 550.5 685.5 Q617 657 666.5 607.5 Q716 558 744.5 491.5 Q773 425 773 350 Q773 275 744.5 208.5 Q716 142 666.5 92.5 Q617 43 550.5 14.5 Q484 -14 409 -14 Q334 -14 267.5 14.5 Q201 43 151.5 92.5 Q102 142 73.5 208.5 Q45 275 45 350 Z M409 21 Q477 21 536.5 47 Q596 73 640 117.5 Q684 162 709.5 222 Q735 282 735 350 Q735 418 709.5 478 Q684 538 640 582.5 Q596 627 536.5 653 Q477 679 409 679 Q341 679 282 653 Q223 627 178.5 582.5 Q134 538 108.5 478 Q83 418 83 350 Q83 282 108.5 222 Q134 162 178.5 117.5 Q223 73 282 47 Q341 21 409 21 Z " />
<glyph glyph-name="currency" unicode="&#xa4;" horiz-adv-x="590" d="M73 561 L115 561 L155 519 Q181 538 215.5 549.5 Q250 561 295 561 Q340 561 374 549.5 Q408 538 434 519 L476 561 L517 561 L517 529 L473 484 Q484 471 492.5 457.5 Q501 444 506 431 L506 246 Q495 219 473 192 L517 148 L517 116 L476 116 L435 157 Q409 139 374.5 127.5 Q340 116 295 116 Q250 116 215.5 127.5 Q181 139 155 157 L115 116 L73 116 L73 148 L117 192 Q94 219 84 246 L84 431 Q89 444 97.5 457.5 Q106 471 117 484 L73 529 L73 561 Z M142 260 Q158 223 196 194.5 Q234 166 295 166 Q356 166 394 194.5 Q432 223 448 260 L448 416 Q432 453 394 482 Q356 511 295 511 Q234 511 196 482 Q158 453 142 416 L142 260 Z " />
<glyph glyph-name="Euro" unicode="&#x20ac;" horiz-adv-x="592" d="M33 440 L99 440 L99 584 Q108 605 126 628 Q144 651 172 670 Q200 689 237 701.5 Q274 714 320 714 Q366 714 402.5 701.5 Q439 689 466.5 670.5 Q494 652 512 630 Q530 608 538 589 L538 517 L481 517 L481 568 Q473 586 458.5 603.5 Q444 621 423.5 634 Q403 647 376.5 655 Q350 663 320 663 Q290 663 263.5 655 Q237 647 216.5 634 Q196 621 181 603.5 Q166 586 159 568 L159 440 L421 440 L421 403 L159 403 L159 314 L421 314 L421 277 L159 277 L159 133 Q166 115 181 97.5 Q196 80 216.5 67 Q237 54 263.5 46 Q290 38 320 38 Q350 38 376.5 46 Q403 54 423.5 67 Q444 80 458.5 97.5 Q473 115 481 133 L481 184 L538 184 L538 112 Q530 93 512 71 Q494 49 466.5 30.5 Q439 12 402.5 -0.5 Q366 -13 320 -13 Q274 -13 237 -0.5 Q200 12 172 31 Q144 50 126 73 Q108 96 99 117 L99 277 L33 277 L33 314 L99 314 L99 403 L33 403 L33 440 Z " />
<glyph glyph-name="dollar" unicode="&#x24;" horiz-adv-x="579" d="M68 216 L128 216 L128 132 Q135 118 147.5 101.5 Q160 85 179.5 71 Q199 57 226 47.5 Q253 38 289 38 Q325 38 352.5 47.5 Q380 57 399.5 71.5 Q419 86 431.5 102 Q444 118 450 132 L450 241 Q444 254 436.5 266 Q429 278 415.5 288.5 Q402 299 380.5 309 Q359 319 325 328 L247 348 Q197 360 165 374.5 Q133 389 113.5 404.5 Q94 420 84 435.5 Q74 451 68 466 L68 584 Q73 598 87 618.5 Q101 639 125 658.5 Q149 678 183.5 693.5 Q218 709 263 713 L263 796 L315 796 L315 713 Q360 709 394 694 Q428 679 452 659.5 Q476 640 490.5 619.5 Q505 599 511 584 L511 495 L450 495 L450 568 Q445 581 432.5 598 Q420 615 400 629 Q380 643 352.5 653 Q325 663 289 663 Q253 663 225.5 653.5 Q198 644 178.5 629.5 Q159 615 146.5 598.5 Q134 582 128 568 L128 485 Q132 474 139.5 463 Q147 452 161 441 Q175 430 198 419.5 Q221 409 257 400 L334 380 Q383 368 414 353.5 Q445 339 464 323.5 Q483 308 493 292.5 Q503 277 511 262 L511 116 Q504 101 489 80.5 Q474 60 450 40.5 Q426 21 392.5 6.5 Q359 -8 315 -12 L315 -96 L263 -96 L263 -12 Q219 -8 185.5 6.5 Q152 21 128 40.5 Q104 60 89.5 80.5 Q75 101 68 116 L68 216 Z " />
<glyph glyph-name="cent" unicode="&#xa2;" horiz-adv-x="521" d="M59 419 Q67 439 82.5 460.5 Q98 482 121 500 Q144 518 175 531.5 Q206 545 247 548 L247 632 L300 632 L300 547 Q339 543 369 530 Q399 517 421 499 Q443 481 457 461.5 Q471 442 479 424 L479 342 L423 342 L423 404 Q408 441 369.5 470 Q331 499 270 499 Q240 499 215 491 Q190 483 171 470 Q152 457 138.5 439.5 Q125 422 118 404 L118 132 Q125 114 138.5 96.5 Q152 79 171 66 Q190 53 215 45 Q240 37 270 37 Q331 37 369.5 66 Q408 95 423 132 L423 194 L479 194 L479 112 Q471 94 457 74.5 Q443 55 421 37 Q399 19 369 6 Q339 -7 300 -11 L300 -96 L247 -96 L247 -12 Q206 -9 175 4 Q144 17 121 35.5 Q98 54 82.5 75.5 Q67 97 59 117 L59 419 Z " />
<glyph glyph-name="sterling" unicode="&#xa3;" horiz-adv-x="606" d="M46 373 L111 373 L111 584 Q120 605 138.5 627.5 Q157 650 184.5 669.5 Q212 689 249 701.5 Q286 714 332 714 Q378 714 415 701.5 Q452 689 479.5 670 Q507 651 525 629.5 Q543 608 551 589 L551 515 L494 515 L494 568 Q486 586 471 603 Q456 620 435.5 633.5 Q415 647 388.5 655 Q362 663 332 663 Q302 663 275.5 655 Q249 647 228.5 633.5 Q208 620 193 603 Q178 586 171 568 L171 373 L439 373 L439 331 L171 331 L171 105 Q163 92 153 77.5 Q143 63 129 50 L551 50 L551 0 L47 0 L47 45 Q59 49 79.5 63.5 Q100 78 111 107 L111 331 L46 331 L46 373 Z " />
<glyph glyph-name="florin" unicode="&#x192;" horiz-adv-x="438" d="M102 515 L175 515 L175 622 Q181 635 192 650.5 Q203 666 221 680 Q239 694 267 703.5 Q295 713 336 713 Q361 713 380.5 710 Q400 707 408 704 L408 663 L354 663 Q322 663 300.5 656 Q279 649 265.5 639.5 Q252 630 244.5 619 Q237 608 234 600 L234 515 L408 515 L408 467 L234 467 L234 -92 Q228 -105 217.5 -121 Q207 -137 189 -150.5 Q171 -164 143 -173.5 Q115 -183 74 -183 Q49 -183 29.5 -180 Q10 -177 2 -175 L2 -134 L56 -134 Q88 -134 109.5 -127 Q131 -120 144.5 -110.5 Q158 -101 165 -90 Q172 -79 175 -71 L175 467 L102 467 L102 515 Z " />
<glyph glyph-name="yen" unicode="&#xa5;" horiz-adv-x="557" d="M37 363 L218 363 L37 666 L37 700 L94 700 L276 385 L286 385 L467 700 L520 700 L520 666 L339 363 L520 363 L520 326 L317 326 L309 312 L309 229 L520 229 L520 192 L309 192 L309 0 L246 0 L246 192 L37 192 L37 229 L246 229 L246 317 L240 326 L37 326 L37 363 Z " />
<glyph glyph-name="uni20A8" unicode="&#x20a8;" horiz-adv-x="522" d="M68 516 L368 516 L368 554 Q359 578 342 596 Q325 614 305.5 626 Q286 638 266 644.5 Q246 651 231 651 L68 651 L68 700 L508 700 L508 663 L352 663 Q377 646 397.5 622.5 Q418 599 430 571 L430 516 L508 516 L508 480 L430 480 L430 427 Q418 398 397 374 Q376 350 350.5 333 Q325 316 297.5 306.5 Q270 297 247 297 L150 297 L430 34 L430 0 L378 0 L68 297 L68 344 L231 344 Q246 344 266.5 350 Q287 356 306.5 368.5 Q326 381 342.5 399 Q359 417 368 441 L368 480 L68 480 L68 516 Z " />
<glyph glyph-name="uni20BA" unicode="&#x20ba;" horiz-adv-x="560" d="M37 403 L105 436 L105 700 L165 700 L165 465 L382 570 L382 527 L165 422 L165 327 L382 432 L382 389 L165 284 L165 51 L310 51 Q340 51 366.5 59 Q393 67 413.5 80 Q434 93 448.5 110 Q463 127 471 146 L471 249 L528 249 L528 125 Q520 105 502 83.5 Q484 62 456.5 43 Q429 24 392.5 12 Q356 0 310 0 L105 0 L105 255 L37 223 L37 266 L105 298 L105 393 L37 360 L37 403 Z " />
<glyph glyph-name="uni20BD" unicode="&#x20bd;" horiz-adv-x="565" d="M20 349 L85 349 L85 700 L320 700 Q381 700 432.5 669 Q484 638 513 582 L513 418 Q486 368 437 336 Q388 304 320 304 L148 304 L148 215 L437 215 L437 178 L148 178 L148 0 L85 0 L85 178 L20 178 L20 215 L85 215 L85 304 L20 304 L20 349 Z M148 349 L307 349 Q353 349 391.5 370.5 Q430 392 453 434 L453 562 Q427 610 386.5 629.5 Q346 649 306 649 L148 649 L148 349 Z " />
<glyph glyph-name="ordfeminine" unicode="&#xaa;" horiz-adv-x="408" d="M300 396 Q281 379 251 367 Q221 355 181 355 Q152 355 131 361.5 Q110 368 95.5 376.5 Q81 385 72.5 394 Q64 403 60 408 L60 504 Q64 509 72.5 518.5 Q81 528 95.5 537 Q110 546 131 552.5 Q152 559 181 559 Q221 559 251 546.5 Q281 534 300 518 L300 614 Q289 637 264 654.5 Q239 672 198 672 Q158 672 137.5 657.5 Q117 643 109 633 L109 602 L66 602 L66 646 Q70 652 79.5 662.5 Q89 673 105 683 Q121 693 143.5 700.5 Q166 708 198 708 Q230 708 254.5 700 Q279 692 297 680 Q315 668 326.5 653 Q338 638 344 623 L344 363 L300 363 L300 396 Z M190 388 Q232 388 260 402 Q288 416 300 434 L300 478 Q288 496 260 511 Q232 526 190 526 Q150 526 131 513 Q112 500 104 491 L104 423 Q110 415 129.5 401.5 Q149 388 190 388 Z " />
<glyph glyph-name="ordmasculine" unicode="&#xba;" horiz-adv-x="410" d="M59 623 Q65 638 77 653 Q89 668 107 680 Q125 692 149 700 Q173 708 205 708 Q236 708 260.5 700 Q285 692 303 680 Q321 668 333 653 Q345 638 351 623 L351 440 Q345 425 333 410 Q321 395 303 383 Q285 371 260.5 363 Q236 355 205 355 Q173 355 149 363 Q125 371 107 383 Q89 395 77 410 Q65 425 59 440 L59 623 Z M103 448 Q114 425 139 408 Q164 391 205 391 Q246 391 271 408 Q296 425 307 448 L307 614 Q296 637 271 654.5 Q246 672 205 672 Q164 672 139 654.5 Q114 637 103 614 L103 448 Z " />
<glyph glyph-name="numbersign" unicode="&#x23;" horiz-adv-x="586" d="M342 34 L370 208 L170 208 L137 0 L93 0 L93 34 L121 208 L37 208 L37 254 L128 254 L158 439 L73 439 L73 484 L165 484 L200 700 L245 700 L245 666 L215 484 L414 484 L449 700 L493 700 L493 666 L463 484 L549 484 L549 439 L456 439 L427 254 L512 254 L512 208 L419 208 L386 0 L342 0 L342 34 Z M178 254 L377 254 L407 439 L208 439 L178 254 Z " />
<glyph glyph-name="uni2116" unicode="&#x2116;" horiz-adv-x="963" d="M596 611 Q603 625 615.5 641.5 Q628 658 647 672.5 Q666 687 693.5 696.5 Q721 706 758 706 Q794 706 821 696.5 Q848 687 867.5 672.5 Q887 658 899 641.5 Q911 625 918 611 L918 435 Q911 421 899 404.5 Q887 388 867.5 374 Q848 360 821 350 Q794 340 758 340 Q721 340 693.5 350 Q666 360 647 374 Q628 388 615.5 404.5 Q603 421 596 435 L596 611 Z M645 448 Q651 436 660.5 424.5 Q670 413 683.5 403.5 Q697 394 715.5 388 Q734 382 758 382 Q782 382 800 388 Q818 394 831.5 403.5 Q845 413 854 424.5 Q863 436 869 448 L869 599 Q863 611 854 622.5 Q845 634 831.5 644 Q818 654 800 660 Q782 666 758 666 Q734 666 715.5 660 Q697 654 683.5 644 Q670 634 660.5 622.5 Q651 611 645 599 L645 448 Z M82 700 L173 700 L423 92 L436 92 L436 700 L497 700 L497 0 L405 0 L155 608 L142 608 L142 0 L82 0 L82 700 Z M596 280 L918 280 L918 236 L596 236 L596 280 Z " />
<glyph glyph-name="zero" unicode="0" horiz-adv-x="579" d="M68 584 Q77 605 95.5 628 Q114 651 141.5 670 Q169 689 206 701.5 Q243 714 289 714 Q335 714 372 701.5 Q409 689 437 670 Q465 651 483.5 628 Q502 605 511 584 L511 117 Q502 96 483.5 73 Q465 50 437 31 Q409 12 372 -0.5 Q335 -13 289 -13 Q243 -13 206 -0.5 Q169 12 141.5 31 Q114 50 95.5 73 Q77 96 68 117 L68 584 Z M128 133 Q135 115 150 97.5 Q165 80 185.5 67 Q206 54 232.5 46 Q259 38 289 38 Q319 38 345.5 46 Q372 54 393 67 Q414 80 428.5 97.5 Q443 115 450 133 L450 568 Q443 586 428.5 603.5 Q414 621 393 634 Q372 647 345.5 655 Q319 663 289 663 Q259 663 232.5 655 Q206 647 185.5 634 Q165 621 150 603.5 Q135 586 128 568 L128 133 Z " />
<glyph glyph-name="one" unicode="1" horiz-adv-x="404" d="M60 46 L185 46 L185 633 L59 574 L59 621 L206 700 L245 700 L245 46 L364 46 L364 0 L60 0 L60 46 Z " />
<glyph glyph-name="two" unicode="2" horiz-adv-x="556" d="M55 50 L382 382 Q429 431 434 445 L434 568 Q426 586 411.5 603 Q397 620 376.5 633.5 Q356 647 330 655 Q304 663 273 663 Q243 663 218 655.5 Q193 648 174 636.5 Q155 625 141.5 611 Q128 597 120 585 L120 483 L63 483 L63 606 Q72 620 88.5 638.5 Q105 657 131 674 Q157 691 192 702.5 Q227 714 273 714 Q319 714 356 701.5 Q393 689 421 669.5 Q449 650 467.5 627.5 Q486 605 495 584 L495 428 Q487 416 469.5 394.5 Q452 373 433 354 L136 57 L136 51 L504 51 L504 0 L55 0 L55 50 Z " />
<glyph glyph-name="three" unicode="3" horiz-adv-x="570" d="M63 196 L120 196 L120 133 Q127 115 142 98 Q157 81 177.5 67.5 Q198 54 224.5 46 Q251 38 281 38 Q311 38 337.5 46 Q364 54 384.5 67.5 Q405 81 419.5 98 Q434 115 442 133 L442 248 Q434 266 419.5 283.5 Q405 301 384.5 314.5 Q364 328 338 336.5 Q312 345 281 345 L210 345 L210 392 L273 392 Q303 392 328 400 Q353 408 372.5 420 Q392 432 405 446 Q418 460 426 472 L426 585 Q418 597 405 610.5 Q392 624 372.5 636 Q353 648 328 655.5 Q303 663 273 663 Q243 663 218 655.5 Q193 648 173.5 636 Q154 624 140.5 610.5 Q127 597 120 585 L120 514 L63 514 L63 606 Q70 619 86.5 637.5 Q103 656 129 673 Q155 690 191 702 Q227 714 273 714 Q319 714 355 702 Q391 690 417.5 672.5 Q444 655 461 635.5 Q478 616 486 601 L486 462 Q480 452 470 439.5 Q460 427 445 414.5 Q430 402 410 390.5 Q390 379 366 371 Q420 355 454 322.5 Q488 290 502 259 L502 117 Q493 96 475 73.5 Q457 51 429 31.5 Q401 12 364 -0.5 Q327 -13 281 -13 Q235 -13 198.5 -0.5 Q162 12 134.5 30.5 Q107 49 89 71 Q71 93 63 112 L63 196 Z " />
<glyph glyph-name="four" unicode="4" horiz-adv-x="560" d="M28 235 L335 700 L437 700 L437 236 L535 236 L535 185 L437 185 L437 0 L378 0 L378 185 L28 185 L28 235 Z M378 236 L378 648 L362 648 L91 236 L378 236 Z " />
<glyph glyph-name="five" unicode="5" horiz-adv-x="563" d="M64 202 L121 202 L121 133 Q128 115 143 98 Q158 81 178.5 67.5 Q199 54 225.5 46 Q252 38 282 38 Q312 38 338.5 46 Q365 54 385.5 67 Q406 80 420.5 97.5 Q435 115 443 133 L443 315 Q428 351 386 379 Q344 407 282 407 Q252 407 228 399.5 Q204 392 186.5 381.5 Q169 371 157 359 Q145 347 138 339 L80 339 L80 700 L492 700 L492 647 L138 647 L138 402 Q163 425 199.5 441.5 Q236 458 291 458 Q335 458 370 446.5 Q405 435 431 417 Q457 399 474 377.5 Q491 356 500 335 L500 112 Q492 93 474 71 Q456 49 429 30.5 Q402 12 365 -0.5 Q328 -13 282 -13 Q236 -13 199.5 -0.5 Q163 12 136 30.5 Q109 49 91 71 Q73 93 64 112 L64 202 Z " />
<glyph glyph-name="six" unicode="6" horiz-adv-x="571" d="M68 584 Q77 605 95.5 628 Q114 651 141.5 670 Q169 689 206 701.5 Q243 714 289 714 Q335 714 372 701.5 Q409 689 436 670.5 Q463 652 481 630 Q499 608 508 589 L508 506 L450 506 L450 568 Q443 586 428.5 603 Q414 620 393 633.5 Q372 647 345.5 655 Q319 663 289 663 Q259 663 232.5 655 Q206 647 185.5 633.5 Q165 620 150 603 Q135 586 128 568 L128 367 Q156 396 199 416 Q242 436 302 436 Q344 436 378 424.5 Q412 413 438 395 Q464 377 481.5 355.5 Q499 334 508 313 L508 112 Q499 93 481 71 Q463 49 436 30.5 Q409 12 372 -0.5 Q335 -13 289 -13 Q243 -13 206 -0.5 Q169 12 141.5 31 Q114 50 95.5 73 Q77 96 68 117 L68 584 Z M289 385 Q232 385 191 360.5 Q150 336 128 303 L128 133 Q135 115 150 98 Q165 81 185.5 67.5 Q206 54 232.5 46 Q259 38 289 38 Q319 38 345.5 46 Q372 54 393 67.5 Q414 81 428.5 98 Q443 115 450 133 L450 293 Q443 311 428.5 327.5 Q414 344 393 357 Q372 370 345.5 377.5 Q319 385 289 385 Z " />
<glyph glyph-name="seven" unicode="7" horiz-adv-x="478" d="M120 44 L387 636 L387 647 L15 647 L15 700 L449 700 L449 651 L165 0 L120 0 L120 44 Z " />
<glyph glyph-name="eight" unicode="8" horiz-adv-x="577" d="M78 606 Q85 619 102 637.5 Q119 656 145 673 Q171 690 206.5 702 Q242 714 288 714 Q334 714 370 702 Q406 690 432 673 Q458 656 474 637.5 Q490 619 498 606 L498 452 Q487 434 460 406.5 Q433 379 386 361 Q435 342 466 310.5 Q497 279 510 250 L510 117 Q501 96 482.5 73 Q464 50 436 31 Q408 12 371 -0.5 Q334 -13 288 -13 Q242 -13 205 -0.5 Q168 12 140.5 31 Q113 50 94.5 73 Q76 96 67 117 L67 250 Q79 279 110 310.5 Q141 342 190 361 Q144 379 116.5 406 Q89 433 78 452 L78 606 Z M127 133 Q134 115 149 98 Q164 81 184.5 67.5 Q205 54 231.5 46 Q258 38 288 38 Q319 38 345 46 Q371 54 392 67.5 Q413 81 427.5 98 Q442 115 449 133 L449 244 Q442 262 427.5 279 Q413 296 392 309.5 Q371 323 345 331 Q319 339 288 339 Q258 339 231.5 331 Q205 323 184.5 309.5 Q164 296 149 279 Q134 262 127 244 L127 133 Z M135 462 Q142 450 155.5 436 Q169 422 188.5 410 Q208 398 233 390.5 Q258 383 288 383 Q319 383 344 390.5 Q369 398 388 410 Q407 422 420.5 436 Q434 450 441 462 L441 585 Q434 597 420.5 610.5 Q407 624 388 636 Q369 648 344 655.5 Q319 663 288 663 Q258 663 233 655.5 Q208 648 188.5 636 Q169 624 155.5 610.5 Q142 597 135 585 L135 462 Z " />
<glyph glyph-name="nine" unicode="9" horiz-adv-x="571" d="M503 117 Q494 96 475.5 73 Q457 50 429 31 Q401 12 364.5 -0.5 Q328 -13 282 -13 Q236 -13 199 -0.5 Q162 12 135 30.5 Q108 49 90 71 Q72 93 63 112 L63 191 L120 191 L120 133 Q127 115 142 98 Q157 81 178 67.5 Q199 54 225 46 Q251 38 282 38 Q312 38 338.5 46 Q365 54 385.5 67.5 Q406 81 420.5 98 Q435 115 443 133 L443 330 Q414 301 371.5 281 Q329 261 272 261 Q229 261 194.5 272.5 Q160 284 133.5 301.5 Q107 319 89.5 340.5 Q72 362 63 383 L63 589 Q72 608 90 629.5 Q108 651 135 670 Q162 689 199 701.5 Q236 714 282 714 Q328 714 364.5 701.5 Q401 689 429 669.5 Q457 650 475.5 627.5 Q494 605 503 584 L503 117 Z M282 312 Q338 312 379 335.5 Q420 359 443 392 L443 568 Q435 586 420.5 603 Q406 620 385.5 633.5 Q365 647 338.5 655 Q312 663 282 663 Q251 663 225 655 Q199 647 178 633.5 Q157 620 142 603 Q127 586 120 568 L120 404 Q135 367 177.5 339.5 Q220 312 282 312 Z " />
<glyph glyph-name="zero.superior" unicode="&#x2070;" horiz-adv-x="425" d="M60 630 Q66 643 78.5 656.5 Q91 670 110 681.5 Q129 693 154.5 700.5 Q180 708 212 708 Q244 708 269.5 700.5 Q295 693 314.5 681.5 Q334 670 346.5 656.5 Q359 643 365 630 L365 350 Q359 338 346.5 324 Q334 310 314.5 298.5 Q295 287 269.5 279.5 Q244 272 212 272 Q180 272 154.5 279.5 Q129 287 110 298.5 Q91 310 78.5 324 Q66 338 60 350 L60 630 Z M108 362 Q118 342 145.5 326 Q173 310 212 310 Q252 310 279.5 326 Q307 342 316 362 L316 619 Q307 639 279.5 654.5 Q252 670 212 670 Q173 670 145.5 654.5 Q118 639 108 619 L108 362 Z " />
<glyph glyph-name="one.superior" unicode="&#xb9;" horiz-adv-x="295" d="M54 315 L132 315 L132 658 L53 648 L53 679 L144 700 L180 700 L180 315 L254 315 L254 280 L54 280 L54 315 Z " />
<glyph glyph-name="two.superior" unicode="&#xb2;" horiz-adv-x="409" d="M51 318 L273 507 Q286 518 295 526 Q304 534 306 539 L306 619 Q295 639 268 654.5 Q241 670 201 670 Q161 670 136.5 656 Q112 642 102 628 L102 566 L56 566 L56 643 Q62 651 73.5 662.5 Q85 674 102.5 684 Q120 694 144.5 701 Q169 708 201 708 Q233 708 258.5 700.5 Q284 693 303 681.5 Q322 670 335 656 Q348 642 354 630 L354 525 Q351 520 339.5 509.5 Q328 499 314 488 L118 323 L118 321 L360 321 L360 280 L51 280 L51 318 Z " />
<glyph glyph-name="three.superior" unicode="&#xb3;" horiz-adv-x="419" d="M56 399 L102 399 L102 362 Q112 342 139.5 326 Q167 310 206 310 Q246 310 273.5 326 Q301 342 311 362 L311 429 Q301 449 273.5 465 Q246 481 206 481 L157 481 L157 518 L201 518 Q240 518 265.5 533 Q291 548 300 562 L300 628 Q291 641 265.5 655.5 Q240 670 201 670 Q162 670 137 655.5 Q112 641 102 628 L102 586 L56 586 L56 643 Q61 651 72.5 662 Q84 673 102 683.5 Q120 694 144.5 701 Q169 708 201 708 Q232 708 257 700.5 Q282 693 300.5 682.5 Q319 672 331 660 Q343 648 348 639 L348 555 Q341 543 321 527.5 Q301 512 269 502 Q305 492 327.5 473 Q350 454 359 437 L359 350 Q353 338 340.5 324.5 Q328 311 309 299 Q290 287 264 279.5 Q238 272 206 272 Q174 272 148.5 279.5 Q123 287 104.5 298 Q86 309 74 321.5 Q62 334 56 345 L56 399 Z " />
<glyph glyph-name="four.superior" unicode="&#x2074;" horiz-adv-x="414" d="M34 425 L237 700 L317 700 L317 425 L383 425 L383 387 L317 387 L317 280 L270 280 L270 387 L34 387 L34 425 Z M270 425 L270 659 L259 659 L83 425 L270 425 Z " />
<glyph glyph-name="five.superior" unicode="&#x2075;" horiz-adv-x="413" d="M57 402 L102 402 L102 362 Q113 342 140 326 Q167 310 207 310 Q247 310 274 326 Q301 342 312 362 L312 466 Q301 486 274 502 Q247 518 207 518 Q167 518 145 504.5 Q123 491 113 482 L113 477 L68 477 L68 700 L352 700 L352 659 L113 659 L113 519 Q130 533 155.5 544 Q181 555 219 555 Q247 555 269.5 548.5 Q292 542 309.5 531.5 Q327 521 339 508 Q351 495 357 483 L357 345 Q351 334 339 321.5 Q327 309 308 298 Q289 287 264 279.5 Q239 272 207 272 Q175 272 150 279.5 Q125 287 106 298 Q87 309 75 321.5 Q63 334 57 345 L57 402 Z " />
<glyph glyph-name="six.superior" unicode="&#x2076;" horiz-adv-x="420" d="M60 630 Q66 642 78.5 656 Q91 670 110 681.5 Q129 693 154.5 700.5 Q180 708 212 708 Q244 708 269 700.5 Q294 693 313 682 Q332 671 344 658 Q356 645 362 635 L362 582 L316 582 L316 619 Q307 639 279.5 654.5 Q252 670 212 670 Q173 670 145.5 654.5 Q118 639 108 619 L108 495 Q127 515 155 529 Q183 543 223 543 Q251 543 274 536 Q297 529 314.5 518.5 Q332 508 344 495.5 Q356 483 362 471 L362 345 Q356 334 344 321.5 Q332 309 313 298 Q294 287 269 279.5 Q244 272 212 272 Q180 272 154.5 279.5 Q129 287 110 298.5 Q91 310 78.5 324 Q66 338 60 350 L60 630 Z M212 506 Q177 506 150 492.5 Q123 479 108 461 L108 362 Q118 342 145.5 326 Q173 310 212 310 Q252 310 279.5 326 Q307 342 316 362 L316 454 Q307 474 279.5 490 Q252 506 212 506 Z " />
<glyph glyph-name="seven.superior" unicode="&#x2077;" horiz-adv-x="357" d="M96 312 L271 655 L271 659 L25 659 L25 700 L323 700 L323 664 L137 280 L96 280 L96 312 Z " />
<glyph glyph-name="eight.superior" unicode="&#x2078;" horiz-adv-x="423" d="M66 643 Q71 651 82.5 662 Q94 673 112 683.5 Q130 694 154.5 701 Q179 708 211 708 Q243 708 267.5 701 Q292 694 310 683.5 Q328 673 339.5 662 Q351 651 356 643 L356 549 Q349 538 331.5 523 Q314 508 285 497 Q317 485 336.5 467 Q356 449 364 432 L364 350 Q358 338 345.5 324 Q333 310 313.5 298.5 Q294 287 268.5 279.5 Q243 272 211 272 Q179 272 153.5 279.5 Q128 287 109 298.5 Q90 310 77 324 Q64 338 58 350 L58 432 Q66 449 85.5 467 Q105 485 136 497 Q107 508 90.5 523 Q74 538 66 549 L66 643 Z M107 362 Q117 342 144.5 326 Q172 310 211 310 Q251 310 278.5 326 Q306 342 315 362 L315 428 Q306 448 278.5 464 Q251 480 211 480 Q172 480 144.5 464 Q117 448 107 428 L107 362 Z M112 556 Q122 542 147 528 Q172 514 211 514 Q251 514 276 528 Q301 542 310 556 L310 628 Q301 641 276 655.5 Q251 670 211 670 Q172 670 147 655.5 Q122 641 112 628 L112 556 Z " />
<glyph glyph-name="nine.superior" unicode="&#x2079;" horiz-adv-x="419" d="M360 350 Q354 338 341 324 Q328 310 309 298.5 Q290 287 264.5 279.5 Q239 272 207 272 Q175 272 150 279.5 Q125 287 106 298 Q87 309 75 321.5 Q63 334 57 345 L57 396 L102 396 L102 362 Q112 342 139.5 326 Q167 310 207 310 Q246 310 273.5 326 Q301 342 311 362 L311 481 Q292 461 263.5 447.5 Q235 434 195 434 Q167 434 144.5 440.5 Q122 447 104.5 457.5 Q87 468 75 481 Q63 494 57 506 L57 635 Q62 645 74.5 658 Q87 671 105.5 682 Q124 693 149.5 700.5 Q175 708 207 708 Q239 708 264.5 700.5 Q290 693 309 681.5 Q328 670 341 656 Q354 642 360 630 L360 350 Z M207 471 Q242 471 268.5 483.5 Q295 496 311 515 L311 619 Q301 639 273.5 654.5 Q246 670 207 670 Q167 670 139.5 654.5 Q112 639 102 619 L102 523 Q112 503 139.5 487 Q167 471 207 471 Z " />
<glyph glyph-name="uni00A0" unicode="&#xa0;" horiz-adv-x="208" d="" />
<glyph glyph-name="fraction" unicode="&#x2044;" horiz-adv-x="156" d="M-187 29 L311 700 L343 700 L343 671 L-155 0 L-187 0 L-187 29 Z " />
<glyph glyph-name="onequarter" unicode="&#xbc;" horiz-adv-x="854" d="M156 29 L654 700 L686 700 L686 671 L188 0 L156 0 L156 29 Z M50 315 L128 315 L128 658 L49 648 L49 679 L140 700 L176 700 L176 315 L250 315 L250 280 L50 280 L50 315 Z M457 146 L660 421 L740 421 L740 146 L806 146 L806 108 L740 108 L740 1 L693 1 L693 108 L457 108 L457 146 Z M693 146 L693 380 L682 380 L506 146 L693 146 Z " />
<glyph glyph-name="onehalf" unicode="&#xbd;" horiz-adv-x="905" d="M50 315 L128 315 L128 658 L49 648 L49 679 L140 700 L176 700 L176 315 L250 315 L250 280 L50 280 L50 315 Z M156 29 L654 700 L686 700 L686 671 L188 0 L156 0 L156 29 Z M548 39 L770 228 Q783 239 792 247 Q801 255 803 260 L803 340 Q792 360 765 375.5 Q738 391 698 391 Q658 391 633.5 377 Q609 363 599 349 L599 287 L553 287 L553 364 Q559 372 570.5 383.5 Q582 395 599.5 405 Q617 415 641.5 422 Q666 429 698 429 Q730 429 755.5 421.5 Q781 414 800 402.5 Q819 391 832 377 Q845 363 851 351 L851 246 Q848 241 836.5 230.5 Q825 220 811 209 L615 44 L615 42 L857 42 L857 1 L548 1 L548 39 Z " />
<glyph glyph-name="threequarters" unicode="&#xbe;" horiz-adv-x="900" d="M203 29 L701 700 L733 700 L733 671 L235 0 L203 0 L203 29 Z M503 146 L706 421 L786 421 L786 146 L852 146 L852 108 L786 108 L786 1 L739 1 L739 108 L503 108 L503 146 Z M739 146 L739 380 L728 380 L552 146 L739 146 Z M49 399 L95 399 L95 362 Q105 342 132.5 326 Q160 310 199 310 Q239 310 266.5 326 Q294 342 304 362 L304 429 Q294 449 266.5 465 Q239 481 199 481 L150 481 L150 518 L194 518 Q233 518 258.5 533 Q284 548 293 562 L293 628 Q284 641 258.5 655.5 Q233 670 194 670 Q155 670 130 655.5 Q105 641 95 628 L95 586 L49 586 L49 643 Q54 651 65.5 662 Q77 673 95 683.5 Q113 694 137.5 701 Q162 708 194 708 Q225 708 250 700.5 Q275 693 293.5 682.5 Q312 672 324 660 Q336 648 341 639 L341 555 Q334 543 314 527.5 Q294 512 262 502 Q298 492 320.5 473 Q343 454 352 437 L352 350 Q346 338 333.5 324.5 Q321 311 302 299 Q283 287 257 279.5 Q231 272 199 272 Q167 272 141.5 279.5 Q116 287 97.5 298 Q79 309 67 321.5 Q55 334 49 345 L49 399 Z " />
<glyph glyph-name="fiveeighths" unicode="&#x215d;" horiz-adv-x="980" d="M221 29 L719 700 L751 700 L751 671 L253 0 L221 0 L221 29 Z M49 402 L94 402 L94 362 Q105 342 132 326 Q159 310 199 310 Q239 310 266 326 Q293 342 304 362 L304 466 Q293 486 266 502 Q239 518 199 518 Q159 518 137 504.5 Q115 491 105 482 L105 477 L60 477 L60 700 L344 700 L344 659 L105 659 L105 519 Q122 533 147.5 544 Q173 555 211 555 Q239 555 261.5 548.5 Q284 542 301.5 531.5 Q319 521 331 508 Q343 495 349 483 L349 345 Q343 334 331 321.5 Q319 309 300 298 Q281 287 256 279.5 Q231 272 199 272 Q167 272 142 279.5 Q117 287 98 298 Q79 309 67 321.5 Q55 334 49 345 L49 402 Z M634 364 Q639 372 650.5 383 Q662 394 680 404.5 Q698 415 722.5 422 Q747 429 779 429 Q811 429 835.5 422 Q860 415 878 404.5 Q896 394 907.5 383 Q919 372 924 364 L924 270 Q917 259 899.5 244 Q882 229 853 218 Q885 206 904.5 188 Q924 170 932 153 L932 71 Q926 59 913.5 45 Q901 31 881.5 19.5 Q862 8 836.5 0.5 Q811 -7 779 -7 Q747 -7 721.5 0.5 Q696 8 677 19.5 Q658 31 645 45 Q632 59 626 71 L626 153 Q634 170 653.5 188 Q673 206 704 218 Q675 229 658.5 244 Q642 259 634 270 L634 364 Z M675 83 Q685 63 712.5 47 Q740 31 779 31 Q819 31 846.5 47 Q874 63 883 83 L883 149 Q874 169 846.5 185 Q819 201 779 201 Q740 201 712.5 185 Q685 169 675 149 L675 83 Z M680 277 Q690 263 715 249 Q740 235 779 235 Q819 235 844 249 Q869 263 878 277 L878 349 Q869 362 844 376.5 Q819 391 779 391 Q740 391 715 376.5 Q690 362 680 349 L680 277 Z " />
<glyph glyph-name="oneeighth" unicode="&#x215b;" horiz-adv-x="942" d="M57 315 L135 315 L135 658 L56 648 L56 679 L147 700 L183 700 L183 315 L257 315 L257 280 L57 280 L57 315 Z M596 364 Q601 372 612.5 383 Q624 394 642 404.5 Q660 415 684.5 422 Q709 429 741 429 Q773 429 797.5 422 Q822 415 840 404.5 Q858 394 869.5 383 Q881 372 886 364 L886 270 Q879 259 861.5 244 Q844 229 815 218 Q847 206 866.5 188 Q886 170 894 153 L894 71 Q888 59 875.5 45 Q863 31 843.5 19.5 Q824 8 798.5 0.5 Q773 -7 741 -7 Q709 -7 683.5 0.5 Q658 8 639 19.5 Q620 31 607 45 Q594 59 588 71 L588 153 Q596 170 615.5 188 Q635 206 666 218 Q637 229 620.5 244 Q604 259 596 270 L596 364 Z M637 83 Q647 63 674.5 47 Q702 31 741 31 Q781 31 808.5 47 Q836 63 845 83 L845 149 Q836 169 808.5 185 Q781 201 741 201 Q702 201 674.5 185 Q647 169 637 149 L637 83 Z M642 277 Q652 263 677 249 Q702 235 741 235 Q781 235 806 249 Q831 263 840 277 L840 349 Q831 362 806 376.5 Q781 391 741 391 Q702 391 677 376.5 Q652 362 642 349 L642 277 Z M183 29 L681 700 L713 700 L713 671 L215 0 L183 0 L183 29 Z " />
<glyph glyph-name="seveneighths" unicode="&#x215e;" horiz-adv-x="918" d="M115 312 L290 655 L290 659 L44 659 L44 700 L342 700 L342 664 L156 280 L115 280 L115 312 Z M572 364 Q577 372 588.5 383 Q600 394 618 404.5 Q636 415 660.5 422 Q685 429 717 429 Q749 429 773.5 422 Q798 415 816 404.5 Q834 394 845.5 383 Q857 372 862 364 L862 270 Q855 259 837.5 244 Q820 229 791 218 Q823 206 842.5 188 Q862 170 870 153 L870 71 Q864 59 851.5 45 Q839 31 819.5 19.5 Q800 8 774.5 0.5 Q749 -7 717 -7 Q685 -7 659.5 0.5 Q634 8 615 19.5 Q596 31 583 45 Q570 59 564 71 L564 153 Q572 170 591.5 188 Q611 206 642 218 Q613 229 596.5 244 Q580 259 572 270 L572 364 Z M613 83 Q623 63 650.5 47 Q678 31 717 31 Q757 31 784.5 47 Q812 63 821 83 L821 149 Q812 169 784.5 185 Q757 201 717 201 Q678 201 650.5 185 Q623 169 613 149 L613 83 Z M618 277 Q628 263 653 249 Q678 235 717 235 Q757 235 782 249 Q807 263 816 277 L816 349 Q807 362 782 376.5 Q757 391 717 391 Q678 391 653 376.5 Q628 362 618 349 L618 277 Z M159 29 L657 700 L689 700 L689 671 L191 0 L159 0 L159 29 Z " />
<glyph glyph-name="threeeighths" unicode="&#x215c;" horiz-adv-x="974" d="M51 399 L97 399 L97 362 Q107 342 134.5 326 Q162 310 201 310 Q241 310 268.5 326 Q296 342 306 362 L306 429 Q296 449 268.5 465 Q241 481 201 481 L152 481 L152 518 L196 518 Q235 518 260.5 533 Q286 548 295 562 L295 628 Q286 641 260.5 655.5 Q235 670 196 670 Q157 670 132 655.5 Q107 641 97 628 L97 586 L51 586 L51 643 Q56 651 67.5 662 Q79 673 97 683.5 Q115 694 139.5 701 Q164 708 196 708 Q227 708 252 700.5 Q277 693 295.5 682.5 Q314 672 326 660 Q338 648 343 639 L343 555 Q336 543 316 527.5 Q296 512 264 502 Q300 492 322.5 473 Q345 454 354 437 L354 350 Q348 338 335.5 324.5 Q323 311 304 299 Q285 287 259 279.5 Q233 272 201 272 Q169 272 143.5 279.5 Q118 287 99.5 298 Q81 309 69 321.5 Q57 334 51 345 L51 399 Z M628 364 Q633 372 644.5 383 Q656 394 674 404.5 Q692 415 716.5 422 Q741 429 773 429 Q805 429 829.5 422 Q854 415 872 404.5 Q890 394 901.5 383 Q913 372 918 364 L918 270 Q911 259 893.5 244 Q876 229 847 218 Q879 206 898.5 188 Q918 170 926 153 L926 71 Q920 59 907.5 45 Q895 31 875.5 19.5 Q856 8 830.5 0.5 Q805 -7 773 -7 Q741 -7 715.5 0.5 Q690 8 671 19.5 Q652 31 639 45 Q626 59 620 71 L620 153 Q628 170 647.5 188 Q667 206 698 218 Q669 229 652.5 244 Q636 259 628 270 L628 364 Z M669 83 Q679 63 706.5 47 Q734 31 773 31 Q813 31 840.5 47 Q868 63 877 83 L877 149 Q868 169 840.5 185 Q813 201 773 201 Q734 201 706.5 185 Q679 169 669 149 L669 83 Z M674 277 Q684 263 709 249 Q734 235 773 235 Q813 235 838 249 Q863 263 872 277 L872 349 Q863 362 838 376.5 Q813 391 773 391 Q734 391 709 376.5 Q684 362 674 349 L674 277 Z M215 29 L713 700 L745 700 L745 671 L247 0 L215 0 L215 29 Z " />
</font>
</svg>
