<?xml version="1.0" encoding="UTF-8"?>
<svg xmlns="http://www.w3.org/2000/svg" xmlns:xlink="http://www.w3.org/1999/xlink" version="1.2" >
<font id="Cadillac Trim V1 Bold">
<font-face  font-family="Cadillac Trim V1" units-per-em="1000" ascent="750" descent="-250" font-style="normal" font-weight="700" font-stretch="normal" cap-height="700" x-height="544" underline-position="-36" underline-thickness="110" />
<missing-glyph  horiz-adv-x="605" d="M47 800 L557 800 L557 -100 L47 -100 L47 800 Z M427 13 L427 687 L177 687 L177 13 L427 13 Z " />
<glyph glyph-name=".null" d="" />
<glyph glyph-name="nonmarkingreturn" unicode="&#xd;" horiz-adv-x="196" d="" />
<glyph glyph-name="space" unicode="&#x20;" horiz-adv-x="202" d="" />
<glyph glyph-name="A" unicode="A" horiz-adv-x="637" d="M23 102 L182 700 L455 700 L614 102 L614 0 L440 0 L402 171 L217 171 L178 0 L23 0 L23 102 Z M371 310 L321 537 L302 537 L249 310 L371 310 Z " />
<glyph glyph-name="B" unicode="B" horiz-adv-x="611" d="M50 700 L362 700 Q401 700 433.5 689 Q466 678 491.5 661 Q517 644 535.5 623 Q554 602 565 581 L565 429 Q557 414 537.5 393.5 Q518 373 498 362 Q516 351 536.5 333 Q557 315 570 295 L570 120 Q558 98 538.5 76.5 Q519 55 493 38 Q467 21 434 10.5 Q401 0 362 0 L50 0 L50 700 Z M324 419 Q347 419 364 429 Q381 439 391 456 L391 527 Q383 544 365 554.5 Q347 565 321 565 L240 565 L240 419 L324 419 Z M321 135 Q351 135 369 146 Q387 157 396 174 L396 258 Q388 274 368.5 284.5 Q349 295 324 295 L240 295 L240 135 L321 135 Z " />
<glyph glyph-name="C" unicode="C" horiz-adv-x="614" d="M41 562 Q52 586 73 613 Q94 640 127 662.5 Q160 685 206 700 Q252 715 313 715 Q374 715 419 700.5 Q464 686 495.5 665 Q527 644 546.5 619.5 Q566 595 577 576 L577 420 L395 420 L395 527 Q387 545 366 558.5 Q345 572 313 572 Q281 572 261 558.5 Q241 545 231 527 L231 173 Q239 155 260 141.5 Q281 128 313 128 Q345 128 365 141.5 Q385 155 395 173 L395 290 L577 290 L577 124 Q566 104 546.5 80 Q527 56 495.5 35 Q464 14 419 -0.5 Q374 -15 313 -15 Q252 -15 206 0 Q160 15 127 37.5 Q94 60 73 87 Q52 114 41 138 L41 562 Z " />
<glyph glyph-name="D" unicode="D" horiz-adv-x="631" d="M318 139 Q350 139 370.5 151.5 Q391 164 399 182 L399 518 Q391 536 370.5 548.5 Q350 561 318 561 L240 561 L240 139 L318 139 Z M50 700 L358 700 Q406 700 444 687.5 Q482 675 510.5 655.5 Q539 636 558.5 611.5 Q578 587 589 562 L589 138 Q578 113 558.5 88.5 Q539 64 510.5 44.5 Q482 25 444 12.5 Q406 0 358 0 L50 0 L50 700 Z " />
<glyph glyph-name="E" unicode="E" horiz-adv-x="536" d="M50 700 L490 700 L490 561 L240 561 L240 427 L474 427 L474 287 L240 287 L240 139 L496 139 L496 0 L50 0 L50 700 Z " />
<glyph glyph-name="F" unicode="F" horiz-adv-x="518" d="M50 700 L480 700 L480 561 L240 561 L240 420 L470 420 L470 281 L240 281 L240 0 L50 0 L50 700 Z " />
<glyph glyph-name="G" unicode="G" horiz-adv-x="617" d="M41 562 Q52 586 73 613 Q94 640 127 662.5 Q160 685 206 700 Q252 715 313 715 Q374 715 419 700.5 Q464 686 495.5 665 Q527 644 546.5 619.5 Q566 595 577 576 L577 456 L395 456 L395 527 Q387 545 366 558.5 Q345 572 313 572 Q281 572 261 558.5 Q241 545 231 527 L231 173 Q239 155 261.5 141.5 Q284 128 316 128 Q351 128 371.5 140.5 Q392 153 401 168 L401 264 L318 264 L318 399 L577 399 L577 124 Q566 104 546.5 80 Q527 56 495.5 35 Q464 14 419 -0.5 Q374 -15 313 -15 Q252 -15 206 0 Q160 15 127 37.5 Q94 60 73 87 Q52 114 41 138 L41 562 Z " />
<glyph glyph-name="H" unicode="H" horiz-adv-x="660" d="M50 700 L240 700 L240 430 L420 430 L420 700 L610 700 L610 0 L420 0 L420 291 L240 291 L240 0 L50 0 L50 700 Z " />
<glyph glyph-name="I" unicode="I" horiz-adv-x="290" d="M50 700 L240 700 L240 0 L50 0 L50 700 Z " />
<glyph glyph-name="J" unicode="J" horiz-adv-x="387" d="M20 139 L67 139 Q99 139 120.5 150.5 Q142 162 150 182 L150 700 L340 700 L340 138 Q326 108 304.5 82 Q283 56 252 37.5 Q221 19 179 8 Q137 -3 82 -3 Q59 -3 43.5 -2 Q28 -1 20 0 L20 139 Z " />
<glyph glyph-name="K" unicode="K" horiz-adv-x="605" d="M50 700 L240 700 L240 474 L256 474 L444 700 L576 700 L576 598 L395 393 L582 102 L582 0 L429 0 L271 257 L240 222 L240 0 L50 0 L50 700 Z " />
<glyph glyph-name="L" unicode="L" horiz-adv-x="460" d="M50 700 L240 700 L240 139 L439 139 L439 0 L50 0 L50 700 Z " />
<glyph glyph-name="M" unicode="M" horiz-adv-x="811" d="M50 700 L296 700 L401 413 L420 413 L519 700 L761 700 L761 0 L584 0 L584 421 L565 421 L456 128 L354 128 L245 421 L226 421 L226 0 L50 0 L50 700 Z " />
<glyph glyph-name="N" unicode="N" horiz-adv-x="671" d="M50 700 L258 700 L426 324 L445 324 L445 700 L621 700 L621 0 L413 0 L245 375 L226 375 L226 0 L50 0 L50 700 Z " />
<glyph glyph-name="O" unicode="O" horiz-adv-x="626" d="M395 527 Q387 545 366 558.5 Q345 572 313 572 Q281 572 260 558.5 Q239 545 231 527 L231 173 Q239 155 260 141.5 Q281 128 313 128 Q345 128 366 141.5 Q387 155 395 173 L395 527 Z M41 562 Q52 586 73 613 Q94 640 127 662.5 Q160 685 206 700 Q252 715 313 715 Q374 715 420 700 Q466 685 499 662.5 Q532 640 553 613 Q574 586 585 562 L585 138 Q574 114 553 87 Q532 60 499 37.5 Q466 15 420 0 Q374 -15 313 -15 Q252 -15 206 0 Q160 15 127 37.5 Q94 60 73 87 Q52 114 41 138 L41 562 Z " />
<glyph glyph-name="P" unicode="P" horiz-adv-x="605" d="M50 700 L357 700 Q425 700 481.5 669.5 Q538 639 572 581 L572 354 Q559 330 538.5 308 Q518 286 491 269.5 Q464 253 430.5 243.5 Q397 234 357 234 L240 234 L240 0 L50 0 L50 700 Z M314 373 Q340 373 359.5 382.5 Q379 392 389 411 L389 523 Q378 543 357.5 552 Q337 561 314 561 L240 561 L240 373 L314 373 Z " />
<glyph glyph-name="Q" unicode="Q" horiz-adv-x="626" d="M41 562 Q52 586 73 613 Q94 640 127 662.5 Q160 685 206 700 Q252 715 313 715 Q374 715 420 700 Q466 685 499 662.5 Q532 640 553 613 Q574 586 585 562 L585 138 Q571 108 542.5 74.5 Q514 41 465 17 Q475 0 492.5 -9.5 Q510 -19 524 -19 L591 -19 L591 -150 L502 -150 Q478 -150 449.5 -139.5 Q421 -129 394.5 -111 Q368 -93 345.5 -68.5 Q323 -44 311 -15 Q251 -15 205 0 Q159 15 126.5 37.5 Q94 60 73 87 Q52 114 41 138 L41 562 Z M395 527 Q387 545 366 558.5 Q345 572 313 572 Q281 572 260 558.5 Q239 545 231 527 L231 173 Q239 155 260 141.5 Q281 128 313 128 Q345 128 366 141.5 Q387 155 395 173 L395 527 Z " />
<glyph glyph-name="R" unicode="R" horiz-adv-x="617" d="M50 700 L361 700 Q429 700 485 669 Q541 638 574 581 L574 366 Q557 335 531.5 311 Q506 287 473 271 L582 102 L582 0 L431 0 L288 246 L240 246 L240 0 L50 0 L50 700 Z M318 377 Q375 377 394 414 L394 523 Q385 541 365 551 Q345 561 318 561 L240 561 L240 377 L318 377 Z " />
<glyph glyph-name="S" unicode="S" horiz-adv-x="598" d="M37 227 L219 227 L219 169 Q227 153 247 140.5 Q267 128 299 128 Q331 128 350.5 140.5 Q370 153 379 169 L379 234 Q371 248 357 257.5 Q343 267 312 274 L267 284 Q209 297 169.5 312 Q130 327 103.5 343 Q77 359 61.5 376 Q46 393 37 409 L37 581 Q46 598 65.5 621 Q85 644 116.5 665 Q148 686 193 700.5 Q238 715 299 715 Q360 715 405 700.5 Q450 686 481.5 665 Q513 644 532.5 621 Q552 598 561 581 L561 478 L379 478 L379 531 Q371 547 351 559.5 Q331 572 299 572 Q267 572 247 558.5 Q227 545 219 531 L219 476 Q226 463 240.5 453.5 Q255 444 287 437 L333 427 Q390 415 429.5 399.5 Q469 384 495 367.5 Q521 351 536.5 334 Q552 317 561 301 L561 120 Q551 102 531.5 78.5 Q512 55 480.5 34 Q449 13 404.5 -1 Q360 -15 299 -15 Q238 -15 193 -0.5 Q148 14 116.5 35 Q85 56 66 79 Q47 102 37 120 L37 227 Z " />
<glyph glyph-name="T" unicode="T" horiz-adv-x="540" d="M175 561 L23 561 L23 700 L516 700 L516 561 L365 561 L365 0 L175 0 L175 561 Z " />
<glyph glyph-name="U" unicode="U" horiz-adv-x="638" d="M47 700 L237 700 L237 173 Q245 155 266 141.5 Q287 128 319 128 Q351 128 371 141.5 Q391 155 401 173 L401 700 L591 700 L591 138 Q580 114 559 87 Q538 60 505 37.5 Q472 15 426 0 Q380 -15 319 -15 Q258 -15 212 0 Q166 15 133 37.5 Q100 60 79 87 Q58 114 47 138 L47 700 Z " />
<glyph glyph-name="V" unicode="V" horiz-adv-x="627" d="M23 598 L23 700 L207 700 L312 214 L331 214 L439 700 L604 700 L604 598 L444 0 L184 0 L23 598 Z " />
<glyph glyph-name="W" unicode="W" horiz-adv-x="938" d="M28 598 L28 700 L210 700 L277 255 L296 255 L387 700 L550 700 L642 255 L661 255 L727 700 L910 700 L910 598 L796 0 L547 0 L471 332 L452 332 L377 0 L142 0 L28 598 Z " />
<glyph glyph-name="X" unicode="X" horiz-adv-x="605" d="M31 102 L180 350 L31 598 L31 700 L204 700 L300 488 L319 488 L418 700 L574 700 L574 598 L425 350 L574 102 L574 0 L401 0 L306 212 L287 212 L188 0 L31 0 L31 102 Z " />
<glyph glyph-name="Y" unicode="Y" horiz-adv-x="588" d="M194 285 L24 598 L24 700 L196 700 L292 479 L311 479 L409 700 L564 700 L564 598 L384 266 L384 0 L194 0 L194 285 Z " />
<glyph glyph-name="Z" unicode="Z" horiz-adv-x="555" d="M31 118 L286 543 L286 561 L35 561 L35 700 L524 700 L524 582 L268 157 L268 139 L524 139 L524 0 L31 0 L31 118 Z " />
<glyph glyph-name="Agrave" unicode="&#xc0;" horiz-adv-x="637" d="M23 102 L182 700 L455 700 L614 102 L614 0 L440 0 L402 171 L217 171 L178 0 L23 0 L23 102 Z M371 310 L321 537 L302 537 L249 310 L371 310 Z M189 828 L189 901 L346 901 L397 753 L397 737 L269 737 L189 828 Z " />
<glyph glyph-name="Aacute" unicode="&#xc1;" horiz-adv-x="637" d="M23 102 L182 700 L455 700 L614 102 L614 0 L440 0 L402 171 L217 171 L178 0 L23 0 L23 102 Z M371 310 L321 537 L302 537 L249 310 L371 310 Z M237 753 L286 901 L445 901 L445 828 L364 737 L237 737 L237 753 Z " />
<glyph glyph-name="Acircumflex" unicode="&#xc2;" horiz-adv-x="637" d="M23 102 L182 700 L455 700 L614 102 L614 0 L440 0 L402 171 L217 171 L178 0 L23 0 L23 102 Z M371 310 L321 537 L302 537 L249 310 L371 310 Z M128 753 L203 901 L428 901 L502 753 L502 737 L376 737 L316 827 L254 737 L128 737 L128 753 Z " />
<glyph glyph-name="Atilde" unicode="&#xc3;" horiz-adv-x="637" d="M23 102 L182 700 L455 700 L614 102 L614 0 L440 0 L402 171 L217 171 L178 0 L23 0 L23 102 Z M371 310 L321 537 L302 537 L249 310 L371 310 Z M521 823 Q517 807 507.5 791.5 Q498 776 482.5 764 Q467 752 446.5 745 Q426 738 400 738 Q368 738 347.5 745.5 Q327 753 311.5 762 Q296 771 283 778.5 Q270 786 254 786 Q237 786 228.5 779 Q220 772 217 764 L217 743 L116 743 L116 809 Q123 843 154 868.5 Q185 894 237 894 Q268 894 288.5 886.5 Q309 879 325 870 Q341 861 354 853.5 Q367 846 383 846 Q412 846 419 869 L419 889 L521 889 L521 823 Z " />
<glyph glyph-name="Adieresis" unicode="&#xc4;" horiz-adv-x="637" d="M23 102 L182 700 L455 700 L614 102 L614 0 L440 0 L402 171 L217 171 L178 0 L23 0 L23 102 Z M371 310 L321 537 L302 537 L249 310 L371 310 Z M123 856 Q131 864 149.5 877 Q168 890 206 890 Q245 890 263.5 877 Q282 864 289 856 L289 769 Q286 765 279.5 759.5 Q273 754 263.5 748.5 Q254 743 239.5 739.5 Q225 736 206 736 Q168 736 149.5 748.5 Q131 761 123 769 L123 856 Z M346 856 Q353 864 371.5 877 Q390 890 429 890 Q468 890 486.5 877 Q505 864 511 856 L511 769 Q505 761 486.5 748.5 Q468 736 429 736 Q390 736 371.5 748.5 Q353 761 346 769 L346 856 Z " />
<glyph glyph-name="Amacron" unicode="&#x100;" horiz-adv-x="637" d="M23 102 L182 700 L455 700 L614 102 L614 0 L440 0 L402 171 L217 171 L178 0 L23 0 L23 102 Z M371 310 L321 537 L302 537 L249 310 L371 310 Z M128 866 L508 866 L508 748 L128 748 L128 866 Z " />
<glyph glyph-name="Abreve" unicode="&#x102;" horiz-adv-x="637" d="M23 102 L182 700 L455 700 L614 102 L614 0 L440 0 L402 171 L217 171 L178 0 L23 0 L23 102 Z M371 310 L321 537 L302 537 L249 310 L371 310 Z M131 882 L258 882 L258 854 Q262 846 276.5 835 Q291 824 318 824 Q345 824 358.5 835 Q372 846 376 854 L376 882 L503 882 L503 831 Q482 788 439.5 759.5 Q397 731 318 731 Q278 731 248 738.5 Q218 746 195.5 759.5 Q173 773 157 791.5 Q141 810 131 831 L131 882 Z " />
<glyph glyph-name="Aring" unicode="&#xc5;" horiz-adv-x="637" d="M23 102 L182 700 L221 700 Q198 717 185 741 L185 837 Q202 868 236.5 887 Q271 906 317 906 Q362 906 397 887 Q432 868 448 837 L448 741 Q435 717 412 700 L455 700 L614 102 L614 0 L440 0 L402 171 L217 171 L178 0 L23 0 L23 102 Z M371 310 L321 537 L302 537 L249 310 L371 310 Z M266 759 Q271 752 283 745 Q295 738 317 738 Q339 738 351 745 Q363 752 367 759 L367 818 Q363 826 351 833 Q339 840 317 840 Q295 840 283 833 Q271 826 266 818 L266 759 Z " />
<glyph glyph-name="Aogonek" unicode="&#x104;" horiz-adv-x="637" d="M399 -107 Q403 -97 415 -80 Q427 -63 444 -44 Q461 -25 473.5 -14 Q486 -3 490 0 L440 0 L402 171 L217 171 L178 0 L23 0 L23 102 L182 700 L455 700 L614 102 L614 0 Q567 -44 548 -71.5 Q529 -99 524 -110 L524 -132 Q528 -140 539.5 -144 Q551 -148 565 -148 Q587 -148 614 -141 L614 -228 Q601 -234 584.5 -238 Q568 -242 534 -242 Q489 -242 451.5 -230 Q414 -218 399 -187 L399 -107 Z M371 310 L321 537 L302 537 L249 310 L371 310 Z " />
<glyph glyph-name="AE" unicode="&#xc6;" horiz-adv-x="854" d="M17 102 L215 700 L808 700 L808 561 L558 561 L558 427 L792 427 L792 287 L558 287 L558 139 L814 139 L814 0 L368 0 L368 157 L223 157 L177 0 L17 0 L17 102 Z M368 296 L368 561 L340 561 L263 296 L368 296 Z " />
<glyph glyph-name="AEacute" unicode="&#x1fc;" horiz-adv-x="854" d="M17 102 L215 700 L808 700 L808 561 L558 561 L558 427 L792 427 L792 287 L558 287 L558 139 L814 139 L814 0 L368 0 L368 157 L223 157 L177 0 L17 0 L17 102 Z M368 296 L368 561 L340 561 L263 296 L368 296 Z M410 753 L459 901 L618 901 L618 828 L537 737 L410 737 L410 753 Z " />
<glyph glyph-name="Cacute" unicode="&#x106;" horiz-adv-x="614" d="M41 562 Q52 586 73 613 Q94 640 127 662.5 Q160 685 206 700 Q252 715 313 715 Q374 715 419 700.5 Q464 686 495.5 665 Q527 644 546.5 619.5 Q566 595 577 576 L577 420 L395 420 L395 527 Q387 545 366 558.5 Q345 572 313 572 Q281 572 261 558.5 Q241 545 231 527 L231 173 Q239 155 260 141.5 Q281 128 313 128 Q345 128 365 141.5 Q385 155 395 173 L395 290 L577 290 L577 124 Q566 104 546.5 80 Q527 56 495.5 35 Q464 14 419 -0.5 Q374 -15 313 -15 Q252 -15 206 0 Q160 15 127 37.5 Q94 60 73 87 Q52 114 41 138 L41 562 Z M243 765 L292 913 L451 913 L451 840 L370 749 L243 749 L243 765 Z " />
<glyph glyph-name="Ccircumflex" unicode="&#x108;" horiz-adv-x="614" d="M41 562 Q52 586 73 613 Q94 640 127 662.5 Q160 685 206 700 Q252 715 313 715 Q374 715 419 700.5 Q464 686 495.5 665 Q527 644 546.5 619.5 Q566 595 577 576 L577 420 L395 420 L395 527 Q387 545 366 558.5 Q345 572 313 572 Q281 572 261 558.5 Q241 545 231 527 L231 173 Q239 155 260 141.5 Q281 128 313 128 Q345 128 365 141.5 Q385 155 395 173 L395 290 L577 290 L577 124 Q566 104 546.5 80 Q527 56 495.5 35 Q464 14 419 -0.5 Q374 -15 313 -15 Q252 -15 206 0 Q160 15 127 37.5 Q94 60 73 87 Q52 114 41 138 L41 562 Z M130 763 L205 911 L430 911 L504 763 L504 747 L378 747 L318 837 L256 747 L130 747 L130 763 Z " />
<glyph glyph-name="Ccaron" unicode="&#x10c;" horiz-adv-x="614" d="M41 562 Q52 586 73 613 Q94 640 127 662.5 Q160 685 206 700 Q252 715 313 715 Q374 715 419 700.5 Q464 686 495.5 665 Q527 644 546.5 619.5 Q566 595 577 576 L577 420 L395 420 L395 527 Q387 545 366 558.5 Q345 572 313 572 Q281 572 261 558.5 Q241 545 231 527 L231 173 Q239 155 260 141.5 Q281 128 313 128 Q345 128 365 141.5 Q385 155 395 173 L395 290 L577 290 L577 124 Q566 104 546.5 80 Q527 56 495.5 35 Q464 14 419 -0.5 Q374 -15 313 -15 Q252 -15 206 0 Q160 15 127 37.5 Q94 60 73 87 Q52 114 41 138 L41 562 Z M129 897 L129 912 L255 912 L317 822 L377 912 L503 912 L503 897 L429 748 L204 748 L129 897 Z " />
<glyph glyph-name="Cdotaccent" unicode="&#x10a;" horiz-adv-x="614" d="M41 562 Q52 586 73 613 Q94 640 127 662.5 Q160 685 206 700 Q252 715 313 715 Q374 715 419 700.5 Q464 686 495.5 665 Q527 644 546.5 619.5 Q566 595 577 576 L577 420 L395 420 L395 527 Q387 545 366 558.5 Q345 572 313 572 Q281 572 261 558.5 Q241 545 231 527 L231 173 Q239 155 260 141.5 Q281 128 313 128 Q345 128 365 141.5 Q385 155 395 173 L395 290 L577 290 L577 124 Q566 104 546.5 80 Q527 56 495.5 35 Q464 14 419 -0.5 Q374 -15 313 -15 Q252 -15 206 0 Q160 15 127 37.5 Q94 60 73 87 Q52 114 41 138 L41 562 Z M223 862 Q231 879 253 894.5 Q275 910 314 910 Q354 910 376 894.5 Q398 879 406 862 L406 798 Q398 781 376 765.5 Q354 750 314 750 Q275 750 253 765.5 Q231 781 223 798 L223 862 Z " />
<glyph glyph-name="Ccedilla" unicode="&#xc7;" horiz-adv-x="614" d="M221 -163 Q238 -166 254.5 -169 Q271 -172 288 -172 Q307 -172 322 -167 Q337 -162 341 -153 L341 -130 Q337 -122 323.5 -119 Q310 -116 293 -116 L234 -116 L262 -12 Q232 -8 206 0 Q160 15 127 37.5 Q94 60 73 87 Q52 114 41 138 L41 562 Q52 586 73 613 Q94 640 127 662.5 Q160 685 206 700 Q252 715 313 715 Q374 715 419 700.5 Q464 686 495.5 665 Q527 644 546.5 619.5 Q566 595 577 576 L577 420 L395 420 L395 527 Q387 545 366 558.5 Q345 572 313 572 Q281 572 261 558.5 Q241 545 231 527 L231 173 Q239 155 260 141.5 Q281 128 313 128 Q345 128 365 141.5 Q385 155 395 173 L395 290 L577 290 L577 124 Q566 104 546.5 80 Q527 56 495.5 35 Q464 14 424.5 2 Q385 -10 350 -14 L341 -48 L351 -48 Q382 -48 406.5 -60 Q431 -72 444 -101 L444 -190 Q429 -221 388.5 -237.5 Q348 -254 299 -254 Q264 -254 238.5 -249 Q213 -244 200 -237 L221 -163 Z " />
<glyph glyph-name="Dcaron" unicode="&#x10e;" horiz-adv-x="631" d="M318 139 Q350 139 370.5 151.5 Q391 164 399 182 L399 518 Q391 536 370.5 548.5 Q350 561 318 561 L240 561 L240 139 L318 139 Z M50 700 L358 700 Q406 700 444 687.5 Q482 675 510.5 655.5 Q539 636 558.5 611.5 Q578 587 589 562 L589 138 Q578 113 558.5 88.5 Q539 64 510.5 44.5 Q482 25 444 12.5 Q406 0 358 0 L50 0 L50 700 Z M129 886 L129 901 L255 901 L317 811 L377 901 L503 901 L503 886 L429 737 L204 737 L129 886 Z " />
<glyph glyph-name="Dcroat" unicode="&#x110;" horiz-adv-x="653" d="M64 285 L28 285 L28 425 L64 425 L64 700 L372 700 Q420 700 458 687.5 Q496 675 524.5 655.5 Q553 636 572.5 611.5 Q592 587 603 562 L603 138 Q592 113 572.5 88.5 Q553 64 524.5 44.5 Q496 25 458 12.5 Q420 0 372 0 L64 0 L64 285 Z M332 139 Q364 139 384.5 151.5 Q405 164 413 182 L413 518 Q405 536 384.5 548.5 Q364 561 332 561 L254 561 L254 425 L343 425 L343 285 L254 285 L254 139 L332 139 Z " />
<glyph glyph-name="Egrave" unicode="&#xc8;" horiz-adv-x="536" d="M50 700 L490 700 L490 561 L240 561 L240 427 L474 427 L474 287 L240 287 L240 139 L496 139 L496 0 L50 0 L50 700 Z M145 828 L145 901 L302 901 L353 753 L353 737 L225 737 L145 828 Z " />
<glyph glyph-name="Eacute" unicode="&#xc9;" horiz-adv-x="536" d="M50 700 L490 700 L490 561 L240 561 L240 427 L474 427 L474 287 L240 287 L240 139 L496 139 L496 0 L50 0 L50 700 Z M204 753 L253 901 L412 901 L412 828 L331 737 L204 737 L204 753 Z " />
<glyph glyph-name="Ecircumflex" unicode="&#xca;" horiz-adv-x="536" d="M50 700 L490 700 L490 561 L240 561 L240 427 L474 427 L474 287 L240 287 L240 139 L496 139 L496 0 L50 0 L50 700 Z M85 753 L160 901 L385 901 L459 753 L459 737 L333 737 L273 827 L211 737 L85 737 L85 753 Z " />
<glyph glyph-name="Ecaron" unicode="&#x11a;" horiz-adv-x="536" d="M50 700 L490 700 L490 561 L240 561 L240 427 L474 427 L474 287 L240 287 L240 139 L496 139 L496 0 L50 0 L50 700 Z M93 886 L93 901 L219 901 L281 811 L341 901 L467 901 L467 886 L393 737 L168 737 L93 886 Z " />
<glyph glyph-name="Edieresis" unicode="&#xcb;" horiz-adv-x="536" d="M50 700 L490 700 L490 561 L240 561 L240 427 L474 427 L474 287 L240 287 L240 139 L496 139 L496 0 L50 0 L50 700 Z M77 856 Q85 864 103.5 877 Q122 890 160 890 Q199 890 217.5 877 Q236 864 243 856 L243 769 Q240 765 233.5 759.5 Q227 754 217.5 748.5 Q208 743 193.5 739.5 Q179 736 160 736 Q122 736 103.5 748.5 Q85 761 77 769 L77 856 Z M300 856 Q307 864 325.5 877 Q344 890 383 890 Q422 890 440.5 877 Q459 864 465 856 L465 769 Q459 761 440.5 748.5 Q422 736 383 736 Q344 736 325.5 748.5 Q307 761 300 769 L300 856 Z " />
<glyph glyph-name="Emacron" unicode="&#x112;" horiz-adv-x="536" d="M50 700 L490 700 L490 561 L240 561 L240 427 L474 427 L474 287 L240 287 L240 139 L496 139 L496 0 L50 0 L50 700 Z M81 866 L461 866 L461 748 L81 748 L81 866 Z " />
<glyph glyph-name="Ebreve" unicode="&#x114;" horiz-adv-x="536" d="M50 700 L490 700 L490 561 L240 561 L240 427 L474 427 L474 287 L240 287 L240 139 L496 139 L496 0 L50 0 L50 700 Z M85 885 L212 885 L212 857 Q216 849 230.5 838 Q245 827 272 827 Q299 827 312.5 838 Q326 849 330 857 L330 885 L457 885 L457 834 Q436 791 393.5 762.5 Q351 734 272 734 Q232 734 202 741.5 Q172 749 149.5 762.5 Q127 776 111 794.5 Q95 813 85 834 L85 885 Z " />
<glyph glyph-name="Edotaccent" unicode="&#x116;" horiz-adv-x="536" d="M50 700 L490 700 L490 561 L240 561 L240 427 L474 427 L474 287 L240 287 L240 139 L496 139 L496 0 L50 0 L50 700 Z M182 854 Q190 871 212 886.5 Q234 902 273 902 Q313 902 335 886.5 Q357 871 365 854 L365 790 Q357 773 335 757.5 Q313 742 273 742 Q234 742 212 757.5 Q190 773 182 790 L182 854 Z " />
<glyph glyph-name="Eogonek" unicode="&#x118;" horiz-adv-x="536" d="M281 -107 Q285 -97 297 -80 Q309 -63 326 -44 Q343 -25 364 -6 Q368 -3 372 0 L50 0 L50 700 L490 700 L490 561 L240 561 L240 427 L474 427 L474 287 L240 287 L240 139 L496 139 L496 0 Q449 -44 430 -71.5 Q411 -99 406 -110 L406 -132 Q410 -140 421.5 -144 Q433 -148 447 -148 Q469 -148 496 -141 L496 -228 Q483 -234 466.5 -238 Q450 -242 416 -242 Q371 -242 333.5 -230 Q296 -218 281 -187 L281 -107 Z " />
<glyph glyph-name="Gcircumflex" unicode="&#x11c;" horiz-adv-x="617" d="M41 562 Q52 586 73 613 Q94 640 127 662.5 Q160 685 206 700 Q252 715 313 715 Q374 715 419 700.5 Q464 686 495.5 665 Q527 644 546.5 619.5 Q566 595 577 576 L577 456 L395 456 L395 527 Q387 545 366 558.5 Q345 572 313 572 Q281 572 261 558.5 Q241 545 231 527 L231 173 Q239 155 261.5 141.5 Q284 128 316 128 Q351 128 371.5 140.5 Q392 153 401 168 L401 264 L318 264 L318 399 L577 399 L577 124 Q566 104 546.5 80 Q527 56 495.5 35 Q464 14 419 -0.5 Q374 -15 313 -15 Q252 -15 206 0 Q160 15 127 37.5 Q94 60 73 87 Q52 114 41 138 L41 562 Z M126 760 L201 908 L426 908 L500 760 L500 744 L374 744 L314 834 L252 744 L126 744 L126 760 Z " />
<glyph glyph-name="Gbreve" unicode="&#x11e;" horiz-adv-x="617" d="M41 562 Q52 586 73 613 Q94 640 127 662.5 Q160 685 206 700 Q252 715 313 715 Q374 715 419 700.5 Q464 686 495.5 665 Q527 644 546.5 619.5 Q566 595 577 576 L577 456 L395 456 L395 527 Q387 545 366 558.5 Q345 572 313 572 Q281 572 261 558.5 Q241 545 231 527 L231 173 Q239 155 261.5 141.5 Q284 128 316 128 Q351 128 371.5 140.5 Q392 153 401 168 L401 264 L318 264 L318 399 L577 399 L577 124 Q566 104 546.5 80 Q527 56 495.5 35 Q464 14 419 -0.5 Q374 -15 313 -15 Q252 -15 206 0 Q160 15 127 37.5 Q94 60 73 87 Q52 114 41 138 L41 562 Z M129 894 L256 894 L256 866 Q260 858 274.5 847 Q289 836 316 836 Q343 836 356.5 847 Q370 858 374 866 L374 894 L501 894 L501 843 Q480 800 437.5 771.5 Q395 743 316 743 Q276 743 246 750.5 Q216 758 193.5 771.5 Q171 785 155 803.5 Q139 822 129 843 L129 894 Z " />
<glyph glyph-name="Gdotaccent" unicode="&#x120;" horiz-adv-x="617" d="M41 562 Q52 586 73 613 Q94 640 127 662.5 Q160 685 206 700 Q252 715 313 715 Q374 715 419 700.5 Q464 686 495.5 665 Q527 644 546.5 619.5 Q566 595 577 576 L577 456 L395 456 L395 527 Q387 545 366 558.5 Q345 572 313 572 Q281 572 261 558.5 Q241 545 231 527 L231 173 Q239 155 261.5 141.5 Q284 128 316 128 Q351 128 371.5 140.5 Q392 153 401 168 L401 264 L318 264 L318 399 L577 399 L577 124 Q566 104 546.5 80 Q527 56 495.5 35 Q464 14 419 -0.5 Q374 -15 313 -15 Q252 -15 206 0 Q160 15 127 37.5 Q94 60 73 87 Q52 114 41 138 L41 562 Z M222 860 Q230 877 252 892.5 Q274 908 313 908 Q353 908 375 892.5 Q397 877 405 860 L405 796 Q397 779 375 763.5 Q353 748 313 748 Q274 748 252 763.5 Q230 779 222 796 L222 860 Z " />
<glyph glyph-name="Gcommaaccent" unicode="&#x122;" horiz-adv-x="617" d="M41 562 Q52 586 73 613 Q94 640 127 662.5 Q160 685 206 700 Q252 715 313 715 Q374 715 419 700.5 Q464 686 495.5 665 Q527 644 546.5 619.5 Q566 595 577 576 L577 456 L395 456 L395 527 Q387 545 366 558.5 Q345 572 313 572 Q281 572 261 558.5 Q241 545 231 527 L231 173 Q239 155 261.5 141.5 Q284 128 316 128 Q351 128 371.5 140.5 Q392 153 401 168 L401 264 L318 264 L318 399 L577 399 L577 124 Q566 104 546.5 80 Q527 56 495.5 35 Q464 14 419 -0.5 Q374 -15 313 -15 Q252 -15 206 0 Q160 15 127 37.5 Q94 60 73 87 Q52 114 41 138 L41 562 Z M234 -197 L273 -197 Q287 -197 299.5 -194.5 Q312 -192 317 -181 L317 -161 L314 -161 Q274 -161 252.5 -154 Q231 -147 224 -139 L224 -69 Q231 -61 252.5 -52 Q274 -43 314 -43 Q353 -43 374 -52 Q395 -61 402 -69 L402 -184 Q399 -194 391 -205.5 Q383 -217 369 -226.5 Q355 -236 335 -242.5 Q315 -249 289 -249 L234 -249 L234 -197 Z " />
<glyph glyph-name="Hcircumflex" unicode="&#x124;" horiz-adv-x="660" d="M50 700 L240 700 L240 430 L420 430 L420 700 L610 700 L610 0 L420 0 L420 291 L240 291 L240 0 L50 0 L50 700 Z M142 753 L217 901 L442 901 L516 753 L516 737 L390 737 L330 827 L268 737 L142 737 L142 753 Z " />
<glyph glyph-name="Hbar" unicode="&#x126;" horiz-adv-x="660" d="M50 527 L22 527 L22 638 L50 638 L50 700 L240 700 L240 638 L420 638 L420 700 L610 700 L610 638 L638 638 L638 527 L610 527 L610 0 L420 0 L420 291 L240 291 L240 0 L50 0 L50 527 Z M420 430 L420 527 L240 527 L240 430 L420 430 Z " />
<glyph glyph-name="Igrave" unicode="&#xcc;" horiz-adv-x="290" d="M50 700 L240 700 L240 0 L50 0 L50 700 Z M27 828 L27 901 L184 901 L235 753 L235 737 L107 737 L27 828 Z " />
<glyph glyph-name="Iacute" unicode="&#xcd;" horiz-adv-x="290" d="M50 700 L240 700 L240 0 L50 0 L50 700 Z M57 753 L106 901 L265 901 L265 828 L184 737 L57 737 L57 753 Z " />
<glyph glyph-name="Icircumflex" unicode="&#xce;" horiz-adv-x="290" d="M50 700 L240 700 L240 0 L50 0 L50 700 Z M-39 753 L36 901 L261 901 L335 753 L335 737 L209 737 L149 827 L87 737 L-39 737 L-39 753 Z " />
<glyph glyph-name="Itilde" unicode="&#x128;" horiz-adv-x="290" d="M50 700 L240 700 L240 0 L50 0 L50 700 Z M350 825 Q346 809 336.5 793.5 Q327 778 311.5 766 Q296 754 275.5 747 Q255 740 229 740 Q197 740 176.5 747.5 Q156 755 140.5 764 Q125 773 112 780.5 Q99 788 83 788 Q66 788 57.5 781 Q49 774 46 766 L46 745 L-55 745 L-55 811 Q-48 845 -17 870.5 Q14 896 66 896 Q97 896 117.5 888.5 Q138 881 154 872 Q170 863 183 855.5 Q196 848 212 848 Q241 848 248 871 L248 891 L350 891 L350 825 Z " />
<glyph glyph-name="Idieresis" unicode="&#xcf;" horiz-adv-x="290" d="M50 700 L240 700 L240 0 L50 0 L50 700 Z M-46 859 Q-38 867 -19.5 880 Q-1 893 37 893 Q76 893 94.5 880 Q113 867 120 859 L120 772 Q117 768 110.5 762.5 Q104 757 94.5 751.5 Q85 746 70.5 742.5 Q56 739 37 739 Q-1 739 -19.5 751.5 Q-38 764 -46 772 L-46 859 Z M177 859 Q184 867 202.5 880 Q221 893 260 893 Q299 893 317.5 880 Q336 867 342 859 L342 772 Q336 764 317.5 751.5 Q299 739 260 739 Q221 739 202.5 751.5 Q184 764 177 772 L177 859 Z " />
<glyph glyph-name="Imacron" unicode="&#x12a;" horiz-adv-x="290" d="M50 700 L240 700 L240 0 L50 0 L50 700 Z M-42 866 L338 866 L338 748 L-42 748 L-42 866 Z " />
<glyph glyph-name="Ibreve" unicode="&#x12c;" horiz-adv-x="290" d="M50 700 L240 700 L240 0 L50 0 L50 700 Z M-39 887 L88 887 L88 859 Q92 851 106.5 840 Q121 829 148 829 Q175 829 188.5 840 Q202 851 206 859 L206 887 L333 887 L333 836 Q312 793 269.5 764.5 Q227 736 148 736 Q108 736 78 743.5 Q48 751 25.5 764.5 Q3 778 -13 796.5 Q-29 815 -39 836 L-39 887 Z " />
<glyph glyph-name="Idotaccent" unicode="&#x130;" horiz-adv-x="290" d="M50 700 L240 700 L240 0 L50 0 L50 700 Z M56 854 Q64 871 86 886.5 Q108 902 147 902 Q187 902 209 886.5 Q231 871 239 854 L239 790 Q231 773 209 757.5 Q187 742 147 742 Q108 742 86 757.5 Q64 773 56 790 L56 854 Z " />
<glyph glyph-name="Iogonek" unicode="&#x12e;" horiz-adv-x="290" d="M25 -107 Q29 -97 41 -80 Q53 -63 70 -44 Q87 -25 108 -6 Q112 -3 116 0 L50 0 L50 700 L240 700 L240 0 Q193 -44 174 -71.5 Q155 -99 150 -110 L150 -132 Q154 -140 165.5 -144 Q177 -148 191 -148 Q213 -148 240 -141 L240 -228 Q227 -234 210.5 -238 Q194 -242 160 -242 Q115 -242 77.5 -230 Q40 -218 25 -187 L25 -107 Z " />
<glyph glyph-name="IJ" unicode="&#x132;" horiz-adv-x="671" d="M50 700 L240 700 L240 0 L50 0 L50 700 Z M304 139 L351 139 Q383 139 404.5 150.5 Q426 162 434 182 L434 700 L624 700 L624 138 Q610 108 588.5 82 Q567 56 536 37.5 Q505 19 463 8 Q421 -3 366 -3 Q343 -3 327.5 -2 Q312 -1 304 0 L304 139 Z " />
<glyph glyph-name="Jcircumflex" unicode="&#x134;" horiz-adv-x="387" d="M20 139 L67 139 Q99 139 120.5 150.5 Q142 162 150 182 L150 700 L340 700 L340 138 Q326 108 304.5 82 Q283 56 252 37.5 Q221 19 179 8 Q137 -3 82 -3 Q59 -3 43.5 -2 Q28 -1 20 0 L20 139 Z M51 753 L126 901 L351 901 L425 753 L425 737 L299 737 L239 827 L177 737 L51 737 L51 753 Z " />
<glyph glyph-name="Kcommaaccent" unicode="&#x136;" horiz-adv-x="605" d="M50 700 L240 700 L240 474 L256 474 L444 700 L576 700 L576 598 L395 393 L582 102 L582 0 L429 0 L271 257 L240 222 L240 0 L50 0 L50 700 Z M237 -194 L276 -194 Q290 -194 302.5 -191.5 Q315 -189 320 -178 L320 -158 L317 -158 Q277 -158 255.5 -151 Q234 -144 227 -136 L227 -66 Q234 -58 255.5 -49 Q277 -40 317 -40 Q356 -40 377 -49 Q398 -58 405 -66 L405 -181 Q402 -191 394 -202.5 Q386 -214 372 -223.5 Q358 -233 338 -239.5 Q318 -246 292 -246 L237 -246 L237 -194 Z " />
<glyph glyph-name="Lacute" unicode="&#x139;" horiz-adv-x="460" d="M50 700 L240 700 L240 139 L439 139 L439 0 L50 0 L50 700 Z M57 753 L106 901 L265 901 L265 828 L184 737 L57 737 L57 753 Z " />
<glyph glyph-name="Lcaron" unicode="&#x13d;" horiz-adv-x="490" d="M50 700 L240 700 L240 139 L439 139 L439 0 L50 0 L50 700 Z M295 489 L317 700 L460 700 L460 610 L407 473 L295 473 L295 489 Z " />
<glyph glyph-name="Lcommaaccent" unicode="&#x13b;" horiz-adv-x="460" d="M50 700 L240 700 L240 139 L439 139 L439 0 L50 0 L50 700 Z M161 -194 L200 -194 Q214 -194 226.5 -191.5 Q239 -189 244 -178 L244 -158 L241 -158 Q201 -158 179.5 -151 Q158 -144 151 -136 L151 -66 Q158 -58 179.5 -49 Q201 -40 241 -40 Q280 -40 301 -49 Q322 -58 329 -66 L329 -181 Q326 -191 318 -202.5 Q310 -214 296 -223.5 Q282 -233 262 -239.5 Q242 -246 216 -246 L161 -246 L161 -194 Z " />
<glyph glyph-name="Lslash" unicode="&#x141;" horiz-adv-x="497" d="M86 169 L22 136 L22 277 L86 310 L86 700 L276 700 L276 408 L390 467 L390 327 L276 267 L276 139 L476 139 L476 0 L86 0 L86 169 Z " />
<glyph glyph-name="Ldot" unicode="&#x13f;" horiz-adv-x="514" d="M50 700 L240 700 L240 139 L439 139 L439 0 L50 0 L50 700 Z M309 427 Q317 444 339 459.5 Q361 475 400 475 Q440 475 462 459.5 Q484 444 492 427 L492 363 Q484 346 462 330.5 Q440 315 400 315 Q361 315 339 330.5 Q317 346 309 363 L309 427 Z " />
<glyph glyph-name="Nacute" unicode="&#x143;" horiz-adv-x="671" d="M50 700 L258 700 L426 324 L445 324 L445 700 L621 700 L621 0 L413 0 L245 375 L226 375 L226 0 L50 0 L50 700 Z M280 752 L329 900 L488 900 L488 827 L407 736 L280 736 L280 752 Z " />
<glyph glyph-name="Ncaron" unicode="&#x147;" horiz-adv-x="671" d="M50 700 L258 700 L426 324 L445 324 L445 700 L621 700 L621 0 L413 0 L245 375 L226 375 L226 0 L50 0 L50 700 Z M154 885 L154 900 L280 900 L342 810 L402 900 L528 900 L528 885 L454 736 L229 736 L154 885 Z " />
<glyph glyph-name="Ntilde" unicode="&#xd1;" horiz-adv-x="671" d="M50 700 L258 700 L426 324 L445 324 L445 700 L621 700 L621 0 L413 0 L245 375 L226 375 L226 0 L50 0 L50 700 Z M547 824 Q543 808 533.5 792.5 Q524 777 508.5 765 Q493 753 472.5 746 Q452 739 426 739 Q394 739 373.5 746.5 Q353 754 337.5 763 Q322 772 309 779.5 Q296 787 280 787 Q263 787 254.5 780 Q246 773 243 765 L243 744 L142 744 L142 810 Q149 844 180 869.5 Q211 895 263 895 Q294 895 314.5 887.5 Q335 880 351 871 Q367 862 380 854.5 Q393 847 409 847 Q438 847 445 870 L445 890 L547 890 L547 824 Z " />
<glyph glyph-name="Ncommaaccent" unicode="&#x145;" horiz-adv-x="671" d="M50 700 L258 700 L426 324 L445 324 L445 700 L621 700 L621 0 L413 0 L245 375 L226 375 L226 0 L50 0 L50 700 Z M266 -190 L305 -190 Q319 -190 331.5 -187.5 Q344 -185 349 -174 L349 -154 L346 -154 Q306 -154 284.5 -147 Q263 -140 256 -132 L256 -62 Q263 -54 284.5 -45 Q306 -36 346 -36 Q385 -36 406 -45 Q427 -54 434 -62 L434 -177 Q431 -187 423 -198.5 Q415 -210 401 -219.5 Q387 -229 367 -235.5 Q347 -242 321 -242 L266 -242 L266 -190 Z " />
<glyph glyph-name="Ograve" unicode="&#xd2;" horiz-adv-x="626" d="M395 527 Q387 545 366 558.5 Q345 572 313 572 Q281 572 260 558.5 Q239 545 231 527 L231 173 Q239 155 260 141.5 Q281 128 313 128 Q345 128 366 141.5 Q387 155 395 173 L395 527 Z M41 562 Q52 586 73 613 Q94 640 127 662.5 Q160 685 206 700 Q252 715 313 715 Q374 715 420 700 Q466 685 499 662.5 Q532 640 553 613 Q574 586 585 562 L585 138 Q574 114 553 87 Q532 60 499 37.5 Q466 15 420 0 Q374 -15 313 -15 Q252 -15 206 0 Q160 15 127 37.5 Q94 60 73 87 Q52 114 41 138 L41 562 Z M176 838 L176 911 L333 911 L384 763 L384 747 L256 747 L176 838 Z " />
<glyph glyph-name="Oacute" unicode="&#xd3;" horiz-adv-x="626" d="M395 527 Q387 545 366 558.5 Q345 572 313 572 Q281 572 260 558.5 Q239 545 231 527 L231 173 Q239 155 260 141.5 Q281 128 313 128 Q345 128 366 141.5 Q387 155 395 173 L395 527 Z M41 562 Q52 586 73 613 Q94 640 127 662.5 Q160 685 206 700 Q252 715 313 715 Q374 715 420 700 Q466 685 499 662.5 Q532 640 553 613 Q574 586 585 562 L585 138 Q574 114 553 87 Q532 60 499 37.5 Q466 15 420 0 Q374 -15 313 -15 Q252 -15 206 0 Q160 15 127 37.5 Q94 60 73 87 Q52 114 41 138 L41 562 Z M248 763 L297 911 L456 911 L456 838 L375 747 L248 747 L248 763 Z " />
<glyph glyph-name="Ocircumflex" unicode="&#xd4;" horiz-adv-x="626" d="M395 527 Q387 545 366 558.5 Q345 572 313 572 Q281 572 260 558.5 Q239 545 231 527 L231 173 Q239 155 260 141.5 Q281 128 313 128 Q345 128 366 141.5 Q387 155 395 173 L395 527 Z M41 562 Q52 586 73 613 Q94 640 127 662.5 Q160 685 206 700 Q252 715 313 715 Q374 715 420 700 Q466 685 499 662.5 Q532 640 553 613 Q574 586 585 562 L585 138 Q574 114 553 87 Q532 60 499 37.5 Q466 15 420 0 Q374 -15 313 -15 Q252 -15 206 0 Q160 15 127 37.5 Q94 60 73 87 Q52 114 41 138 L41 562 Z M127 763 L202 911 L427 911 L501 763 L501 747 L375 747 L315 837 L253 747 L127 747 L127 763 Z " />
<glyph glyph-name="Otilde" unicode="&#xd5;" horiz-adv-x="626" d="M395 527 Q387 545 366 558.5 Q345 572 313 572 Q281 572 260 558.5 Q239 545 231 527 L231 173 Q239 155 260 141.5 Q281 128 313 128 Q345 128 366 141.5 Q387 155 395 173 L395 527 Z M41 562 Q52 586 73 613 Q94 640 127 662.5 Q160 685 206 700 Q252 715 313 715 Q374 715 420 700 Q466 685 499 662.5 Q532 640 553 613 Q574 586 585 562 L585 138 Q574 114 553 87 Q532 60 499 37.5 Q466 15 420 0 Q374 -15 313 -15 Q252 -15 206 0 Q160 15 127 37.5 Q94 60 73 87 Q52 114 41 138 L41 562 Z M517 833 Q513 817 503.5 801.5 Q494 786 478.5 774 Q463 762 442.5 755 Q422 748 396 748 Q364 748 343.5 755.5 Q323 763 307.5 772 Q292 781 279 788.5 Q266 796 250 796 Q233 796 224.5 789 Q216 782 213 774 L213 753 L112 753 L112 819 Q119 853 150 878.5 Q181 904 233 904 Q264 904 284.5 896.5 Q305 889 321 880 Q337 871 350 863.5 Q363 856 379 856 Q408 856 415 879 L415 899 L517 899 L517 833 Z " />
<glyph glyph-name="Odieresis" unicode="&#xd6;" horiz-adv-x="626" d="M395 527 Q387 545 366 558.5 Q345 572 313 572 Q281 572 260 558.5 Q239 545 231 527 L231 173 Q239 155 260 141.5 Q281 128 313 128 Q345 128 366 141.5 Q387 155 395 173 L395 527 Z M41 562 Q52 586 73 613 Q94 640 127 662.5 Q160 685 206 700 Q252 715 313 715 Q374 715 420 700 Q466 685 499 662.5 Q532 640 553 613 Q574 586 585 562 L585 138 Q574 114 553 87 Q532 60 499 37.5 Q466 15 420 0 Q374 -15 313 -15 Q252 -15 206 0 Q160 15 127 37.5 Q94 60 73 87 Q52 114 41 138 L41 562 Z M119 860 Q127 868 145.5 881 Q164 894 202 894 Q241 894 259.5 881 Q278 868 285 860 L285 773 Q282 769 275.5 763.5 Q269 758 259.5 752.5 Q250 747 235.5 743.5 Q221 740 202 740 Q164 740 145.5 752.5 Q127 765 119 773 L119 860 Z M342 860 Q349 868 367.5 881 Q386 894 425 894 Q464 894 482.5 881 Q501 868 507 860 L507 773 Q501 765 482.5 752.5 Q464 740 425 740 Q386 740 367.5 752.5 Q349 765 342 773 L342 860 Z " />
<glyph glyph-name="Omacron" unicode="&#x14c;" horiz-adv-x="626" d="M395 527 Q387 545 366 558.5 Q345 572 313 572 Q281 572 260 558.5 Q239 545 231 527 L231 173 Q239 155 260 141.5 Q281 128 313 128 Q345 128 366 141.5 Q387 155 395 173 L395 527 Z M41 562 Q52 586 73 613 Q94 640 127 662.5 Q160 685 206 700 Q252 715 313 715 Q374 715 420 700 Q466 685 499 662.5 Q532 640 553 613 Q574 586 585 562 L585 138 Q574 114 553 87 Q532 60 499 37.5 Q466 15 420 0 Q374 -15 313 -15 Q252 -15 206 0 Q160 15 127 37.5 Q94 60 73 87 Q52 114 41 138 L41 562 Z M124 876 L504 876 L504 758 L124 758 L124 876 Z " />
<glyph glyph-name="Obreve" unicode="&#x14e;" horiz-adv-x="626" d="M395 527 Q387 545 366 558.5 Q345 572 313 572 Q281 572 260 558.5 Q239 545 231 527 L231 173 Q239 155 260 141.5 Q281 128 313 128 Q345 128 366 141.5 Q387 155 395 173 L395 527 Z M41 562 Q52 586 73 613 Q94 640 127 662.5 Q160 685 206 700 Q252 715 313 715 Q374 715 420 700 Q466 685 499 662.5 Q532 640 553 613 Q574 586 585 562 L585 138 Q574 114 553 87 Q532 60 499 37.5 Q466 15 420 0 Q374 -15 313 -15 Q252 -15 206 0 Q160 15 127 37.5 Q94 60 73 87 Q52 114 41 138 L41 562 Z M127 896 L254 896 L254 868 Q258 860 272.5 849 Q287 838 314 838 Q341 838 354.5 849 Q368 860 372 868 L372 896 L499 896 L499 845 Q478 802 435.5 773.5 Q393 745 314 745 Q274 745 244 752.5 Q214 760 191.5 773.5 Q169 787 153 805.5 Q137 824 127 845 L127 896 Z " />
<glyph glyph-name="Ohungarumlaut" unicode="&#x150;" horiz-adv-x="626" d="M395 527 Q387 545 366 558.5 Q345 572 313 572 Q281 572 260 558.5 Q239 545 231 527 L231 173 Q239 155 260 141.5 Q281 128 313 128 Q345 128 366 141.5 Q387 155 395 173 L395 527 Z M41 562 Q52 586 73 613 Q94 640 127 662.5 Q160 685 206 700 Q252 715 313 715 Q374 715 420 700 Q466 685 499 662.5 Q532 640 553 613 Q574 586 585 562 L585 138 Q574 114 553 87 Q532 60 499 37.5 Q466 15 420 0 Q374 -15 313 -15 Q252 -15 206 0 Q160 15 127 37.5 Q94 60 73 87 Q52 114 41 138 L41 562 Z M157 761 L188 910 L327 910 L327 850 L270 746 L157 746 L157 761 Z M361 761 L392 910 L530 910 L530 850 L473 746 L361 746 L361 761 Z " />
<glyph glyph-name="Oslash" unicode="&#xd8;" horiz-adv-x="626" d="M41 52 L69 91 Q49 117 41 138 L41 562 Q52 586 73 613 Q94 640 127 662.5 Q160 685 206 700 Q252 715 313 715 Q370 715 414 701.5 Q458 688 491 668 L514 700 L585 700 L585 648 L556 609 Q566 597 573 585 Q580 573 585 562 L585 138 Q574 114 553 87 Q532 60 499 37.5 Q466 15 420 0 Q374 -15 313 -15 Q255 -15 211 -2 Q167 11 135 32 L112 0 L41 0 L41 52 Z M231 157 Q239 139 260 125.5 Q281 112 313 112 Q345 112 365 125.5 Q385 139 395 157 L395 388 L231 163 L231 157 Z M395 537 L395 543 Q387 561 366 574.5 Q345 588 313 588 Q281 588 261 574.5 Q241 561 231 543 L231 312 L395 537 Z " />
<glyph glyph-name="Oslashacute" unicode="&#x1fe;" horiz-adv-x="626" d="M41 52 L69 91 Q49 117 41 138 L41 562 Q52 586 73 613 Q94 640 127 662.5 Q160 685 206 700 Q252 715 313 715 Q370 715 414 701.5 Q458 688 491 668 L514 700 L585 700 L585 648 L556 609 Q566 597 573 585 Q580 573 585 562 L585 138 Q574 114 553 87 Q532 60 499 37.5 Q466 15 420 0 Q374 -15 313 -15 Q255 -15 211 -2 Q167 11 135 32 L112 0 L41 0 L41 52 Z M231 157 Q239 139 260 125.5 Q281 112 313 112 Q345 112 365 125.5 Q385 139 395 157 L395 388 L231 163 L231 157 Z M395 537 L395 543 Q387 561 366 574.5 Q345 588 313 588 Q281 588 261 574.5 Q241 561 231 543 L231 312 L395 537 Z M255 763 L304 911 L463 911 L463 838 L382 747 L255 747 L255 763 Z " />
<glyph glyph-name="OE" unicode="&#x152;" horiz-adv-x="881" d="M41 562 Q52 586 73 613 Q94 640 127 662.5 Q160 685 206 700 Q252 715 313 715 Q344 715 370.5 711 Q397 707 420 700 L835 700 L835 561 L584 561 L584 427 L819 427 L819 287 L584 287 L584 139 L841 139 L841 0 L420 0 Q397 -7 370.5 -11 Q344 -15 313 -15 Q252 -15 206 0 Q160 15 127 37.5 Q94 60 73 87 Q52 114 41 138 L41 562 Z M394 527 Q386 545 365.5 558.5 Q345 572 313 572 Q280 572 260.5 558.5 Q241 545 231 527 L231 173 Q239 155 259.5 141.5 Q280 128 313 128 Q345 128 365 141.5 Q385 155 394 173 L394 527 Z " />
<glyph glyph-name="Racute" unicode="&#x154;" horiz-adv-x="617" d="M50 700 L361 700 Q429 700 485 669 Q541 638 574 581 L574 366 Q557 335 531.5 311 Q506 287 473 271 L582 102 L582 0 L431 0 L288 246 L240 246 L240 0 L50 0 L50 700 Z M318 377 Q375 377 394 414 L394 523 Q385 541 365 551 Q345 561 318 561 L240 561 L240 377 L318 377 Z M224 753 L273 901 L432 901 L432 828 L351 737 L224 737 L224 753 Z " />
<glyph glyph-name="Rcaron" unicode="&#x158;" horiz-adv-x="617" d="M50 700 L361 700 Q429 700 485 669 Q541 638 574 581 L574 366 Q557 335 531.5 311 Q506 287 473 271 L582 102 L582 0 L431 0 L288 246 L240 246 L240 0 L50 0 L50 700 Z M318 377 Q375 377 394 414 L394 523 Q385 541 365 551 Q345 561 318 561 L240 561 L240 377 L318 377 Z M124 886 L124 901 L250 901 L312 811 L372 901 L498 901 L498 886 L424 737 L199 737 L124 886 Z " />
<glyph glyph-name="Rcommaaccent" unicode="&#x156;" horiz-adv-x="617" d="M50 700 L361 700 Q429 700 485 669 Q541 638 574 581 L574 366 Q557 335 531.5 311 Q506 287 473 271 L582 102 L582 0 L431 0 L288 246 L240 246 L240 0 L50 0 L50 700 Z M318 377 Q375 377 394 414 L394 523 Q385 541 365 551 Q345 561 318 561 L240 561 L240 377 L318 377 Z M243 -194 L282 -194 Q296 -194 308.5 -191.5 Q321 -189 326 -178 L326 -158 L323 -158 Q283 -158 261.5 -151 Q240 -144 233 -136 L233 -66 Q240 -58 261.5 -49 Q283 -40 323 -40 Q362 -40 383 -49 Q404 -58 411 -66 L411 -181 Q408 -191 400 -202.5 Q392 -214 378 -223.5 Q364 -233 344 -239.5 Q324 -246 298 -246 L243 -246 L243 -194 Z " />
<glyph glyph-name="Sacute" unicode="&#x15a;" horiz-adv-x="598" d="M37 227 L219 227 L219 169 Q227 153 247 140.5 Q267 128 299 128 Q331 128 350.5 140.5 Q370 153 379 169 L379 234 Q371 248 357 257.5 Q343 267 312 274 L267 284 Q209 297 169.5 312 Q130 327 103.5 343 Q77 359 61.5 376 Q46 393 37 409 L37 581 Q46 598 65.5 621 Q85 644 116.5 665 Q148 686 193 700.5 Q238 715 299 715 Q360 715 405 700.5 Q450 686 481.5 665 Q513 644 532.5 621 Q552 598 561 581 L561 478 L379 478 L379 531 Q371 547 351 559.5 Q331 572 299 572 Q267 572 247 558.5 Q227 545 219 531 L219 476 Q226 463 240.5 453.5 Q255 444 287 437 L333 427 Q390 415 429.5 399.5 Q469 384 495 367.5 Q521 351 536.5 334 Q552 317 561 301 L561 120 Q551 102 531.5 78.5 Q512 55 480.5 34 Q449 13 404.5 -1 Q360 -15 299 -15 Q238 -15 193 -0.5 Q148 14 116.5 35 Q85 56 66 79 Q47 102 37 120 L37 227 Z M233 763 L282 911 L441 911 L441 838 L360 747 L233 747 L233 763 Z " />
<glyph glyph-name="Scircumflex" unicode="&#x15c;" horiz-adv-x="598" d="M37 227 L219 227 L219 169 Q227 153 247 140.5 Q267 128 299 128 Q331 128 350.5 140.5 Q370 153 379 169 L379 234 Q371 248 357 257.5 Q343 267 312 274 L267 284 Q209 297 169.5 312 Q130 327 103.5 343 Q77 359 61.5 376 Q46 393 37 409 L37 581 Q46 598 65.5 621 Q85 644 116.5 665 Q148 686 193 700.5 Q238 715 299 715 Q360 715 405 700.5 Q450 686 481.5 665 Q513 644 532.5 621 Q552 598 561 581 L561 478 L379 478 L379 531 Q371 547 351 559.5 Q331 572 299 572 Q267 572 247 558.5 Q227 545 219 531 L219 476 Q226 463 240.5 453.5 Q255 444 287 437 L333 427 Q390 415 429.5 399.5 Q469 384 495 367.5 Q521 351 536.5 334 Q552 317 561 301 L561 120 Q551 102 531.5 78.5 Q512 55 480.5 34 Q449 13 404.5 -1 Q360 -15 299 -15 Q238 -15 193 -0.5 Q148 14 116.5 35 Q85 56 66 79 Q47 102 37 120 L37 227 Z M118 763 L193 911 L418 911 L492 763 L492 747 L366 747 L306 837 L244 747 L118 747 L118 763 Z " />
<glyph glyph-name="Scaron" unicode="&#x160;" horiz-adv-x="598" d="M37 227 L219 227 L219 169 Q227 153 247 140.5 Q267 128 299 128 Q331 128 350.5 140.5 Q370 153 379 169 L379 234 Q371 248 357 257.5 Q343 267 312 274 L267 284 Q209 297 169.5 312 Q130 327 103.5 343 Q77 359 61.5 376 Q46 393 37 409 L37 581 Q46 598 65.5 621 Q85 644 116.5 665 Q148 686 193 700.5 Q238 715 299 715 Q360 715 405 700.5 Q450 686 481.5 665 Q513 644 532.5 621 Q552 598 561 581 L561 478 L379 478 L379 531 Q371 547 351 559.5 Q331 572 299 572 Q267 572 247 558.5 Q227 545 219 531 L219 476 Q226 463 240.5 453.5 Q255 444 287 437 L333 427 Q390 415 429.5 399.5 Q469 384 495 367.5 Q521 351 536.5 334 Q552 317 561 301 L561 120 Q551 102 531.5 78.5 Q512 55 480.5 34 Q449 13 404.5 -1 Q360 -15 299 -15 Q238 -15 193 -0.5 Q148 14 116.5 35 Q85 56 66 79 Q47 102 37 120 L37 227 Z M118 896 L118 911 L244 911 L306 821 L366 911 L492 911 L492 896 L418 747 L193 747 L118 896 Z " />
<glyph glyph-name="Scedilla" unicode="&#x15e;" horiz-adv-x="598" d="M204 -163 Q223 -167 240.5 -169.5 Q258 -172 274 -172 Q292 -172 306 -166.5 Q320 -161 324 -154 L324 -130 Q320 -123 308 -119.5 Q296 -116 278 -116 L217 -116 L247 -11 Q215 -7 181.5 3.5 Q148 14 116.5 35 Q85 56 66 79 Q47 102 37 120 L37 227 L219 227 L219 169 Q227 153 247 140.5 Q267 128 299 128 Q331 128 350.5 140.5 Q370 153 379 169 L379 234 Q371 248 357 257.5 Q343 267 312 274 L267 284 Q209 297 169.5 312 Q130 327 103.5 343 Q77 359 61.5 376 Q46 393 37 409 L37 581 Q46 598 65.5 621 Q85 644 116.5 665 Q148 686 193 700.5 Q238 715 299 715 Q360 715 405 700.5 Q450 686 481.5 665 Q513 644 532.5 621 Q552 598 561 581 L561 478 L379 478 L379 531 Q371 547 351 559.5 Q331 572 299 572 Q267 572 247 558.5 Q227 545 219 531 L219 476 Q226 463 240.5 453.5 Q255 444 287 437 L333 427 Q390 415 429.5 399.5 Q469 384 495 367.5 Q521 351 536.5 334 Q552 317 561 301 L561 120 Q551 102 531.5 78.5 Q512 55 480.5 34 Q449 13 409.5 1.5 Q370 -10 333 -14 L324 -48 L334 -48 Q369 -48 392.5 -62 Q416 -76 427 -101 L427 -190 Q412 -220 373.5 -237 Q335 -254 286 -254 Q251 -254 223.5 -249 Q196 -244 183 -237 L204 -163 Z " />
<glyph glyph-name="Scommaaccent" unicode="&#x218;" horiz-adv-x="598" d="M37 227 L219 227 L219 169 Q227 153 247 140.5 Q267 128 299 128 Q331 128 350.5 140.5 Q370 153 379 169 L379 234 Q371 248 357 257.5 Q343 267 312 274 L267 284 Q209 297 169.5 312 Q130 327 103.5 343 Q77 359 61.5 376 Q46 393 37 409 L37 581 Q46 598 65.5 621 Q85 644 116.5 665 Q148 686 193 700.5 Q238 715 299 715 Q360 715 405 700.5 Q450 686 481.5 665 Q513 644 532.5 621 Q552 598 561 581 L561 478 L379 478 L379 531 Q371 547 351 559.5 Q331 572 299 572 Q267 572 247 558.5 Q227 545 219 531 L219 476 Q226 463 240.5 453.5 Q255 444 287 437 L333 427 Q390 415 429.5 399.5 Q469 384 495 367.5 Q521 351 536.5 334 Q552 317 561 301 L561 120 Q551 102 531.5 78.5 Q512 55 480.5 34 Q449 13 404.5 -1 Q360 -15 299 -15 Q238 -15 193 -0.5 Q148 14 116.5 35 Q85 56 66 79 Q47 102 37 120 L37 227 Z M216 -195 L255 -195 Q269 -195 281.5 -192.5 Q294 -190 299 -179 L299 -159 L296 -159 Q256 -159 234.5 -152 Q213 -145 206 -137 L206 -67 Q213 -59 234.5 -50 Q256 -41 296 -41 Q335 -41 356 -50 Q377 -59 384 -67 L384 -182 Q381 -192 373 -203.5 Q365 -215 351 -224.5 Q337 -234 317 -240.5 Q297 -247 271 -247 L216 -247 L216 -195 Z " />
<glyph glyph-name="Tcaron" unicode="&#x164;" horiz-adv-x="540" d="M175 561 L23 561 L23 700 L516 700 L516 561 L365 561 L365 0 L175 0 L175 561 Z M85 886 L85 901 L211 901 L273 811 L333 901 L459 901 L459 886 L385 737 L160 737 L85 886 Z " />
<glyph glyph-name="Tcommaaccent" unicode="&#x162;" horiz-adv-x="540" d="M179 -162 Q196 -166 213.5 -168.5 Q231 -171 248 -171 Q267 -171 281 -166 Q295 -161 299 -153 L299 -130 Q295 -123 282.5 -119.5 Q270 -116 253 -116 L192 -116 L225 0 L175 0 L175 561 L23 561 L23 700 L516 700 L516 561 L365 561 L365 0 L312 0 L299 -48 L309 -48 Q349 -48 371.5 -65 Q394 -82 402 -101 L402 -190 Q389 -217 353 -235.5 Q317 -254 259 -254 Q224 -254 198 -249 Q172 -244 159 -237 L179 -162 Z " />
<glyph glyph-name="uni021A" unicode="&#x21a;" horiz-adv-x="540" d="M175 561 L23 561 L23 700 L516 700 L516 561 L365 561 L365 0 L175 0 L175 561 Z M191 -194 L230 -194 Q244 -194 256.5 -191.5 Q269 -189 274 -178 L274 -158 L271 -158 Q231 -158 209.5 -151 Q188 -144 181 -136 L181 -66 Q188 -58 209.5 -49 Q231 -40 271 -40 Q310 -40 331 -49 Q352 -58 359 -66 L359 -181 Q356 -191 348 -202.5 Q340 -214 326 -223.5 Q312 -233 292 -239.5 Q272 -246 246 -246 L191 -246 L191 -194 Z " />
<glyph glyph-name="Tbar" unicode="&#x166;" horiz-adv-x="540" d="M175 306 L69 306 L69 418 L175 418 L175 561 L23 561 L23 700 L516 700 L516 561 L365 561 L365 418 L473 418 L473 306 L365 306 L365 0 L175 0 L175 306 Z " />
<glyph glyph-name="Ugrave" unicode="&#xd9;" horiz-adv-x="640" d="M48 700 L238 700 L238 173 Q246 155 267 141.5 Q288 128 320 128 Q352 128 372 141.5 Q392 155 402 173 L402 700 L592 700 L592 138 Q581 114 560 87 Q539 60 506 37.5 Q473 15 427 0 Q381 -15 320 -15 Q259 -15 213 0 Q167 15 134 37.5 Q101 60 80 87 Q59 114 48 138 L48 700 Z M180 828 L180 901 L337 901 L388 753 L388 737 L260 737 L180 828 Z " />
<glyph glyph-name="Uacute" unicode="&#xda;" horiz-adv-x="640" d="M48 700 L238 700 L238 173 Q246 155 267 141.5 Q288 128 320 128 Q352 128 372 141.5 Q392 155 402 173 L402 700 L592 700 L592 138 Q581 114 560 87 Q539 60 506 37.5 Q473 15 427 0 Q381 -15 320 -15 Q259 -15 213 0 Q167 15 134 37.5 Q101 60 80 87 Q59 114 48 138 L48 700 Z M249 753 L298 901 L457 901 L457 828 L376 737 L249 737 L249 753 Z " />
<glyph glyph-name="Ucircumflex" unicode="&#xdb;" horiz-adv-x="640" d="M48 700 L238 700 L238 173 Q246 155 267 141.5 Q288 128 320 128 Q352 128 372 141.5 Q392 155 402 173 L402 700 L592 700 L592 138 Q581 114 560 87 Q539 60 506 37.5 Q473 15 427 0 Q381 -15 320 -15 Q259 -15 213 0 Q167 15 134 37.5 Q101 60 80 87 Q59 114 48 138 L48 700 Z M134 753 L209 901 L434 901 L508 753 L508 737 L382 737 L322 827 L260 737 L134 737 L134 753 Z " />
<glyph glyph-name="Utilde" unicode="&#x168;" horiz-adv-x="640" d="M48 700 L238 700 L238 173 Q246 155 267 141.5 Q288 128 320 128 Q352 128 372 141.5 Q392 155 402 173 L402 700 L592 700 L592 138 Q581 114 560 87 Q539 60 506 37.5 Q473 15 427 0 Q381 -15 320 -15 Q259 -15 213 0 Q167 15 134 37.5 Q101 60 80 87 Q59 114 48 138 L48 700 Z M525 827 Q521 811 511.5 795.5 Q502 780 486.5 768 Q471 756 450.5 749 Q430 742 404 742 Q372 742 351.5 749.5 Q331 757 315.5 766 Q300 775 287 782.5 Q274 790 258 790 Q241 790 232.5 783 Q224 776 221 768 L221 747 L120 747 L120 813 Q127 847 158 872.5 Q189 898 241 898 Q272 898 292.5 890.5 Q313 883 329 874 Q345 865 358 857.5 Q371 850 387 850 Q416 850 423 873 L423 893 L525 893 L525 827 Z " />
<glyph glyph-name="Udieresis" unicode="&#xdc;" horiz-adv-x="640" d="M48 700 L238 700 L238 173 Q246 155 267 141.5 Q288 128 320 128 Q352 128 372 141.5 Q392 155 402 173 L402 700 L592 700 L592 138 Q581 114 560 87 Q539 60 506 37.5 Q473 15 427 0 Q381 -15 320 -15 Q259 -15 213 0 Q167 15 134 37.5 Q101 60 80 87 Q59 114 48 138 L48 700 Z M126 860 Q134 868 152.5 881 Q171 894 209 894 Q248 894 266.5 881 Q285 868 292 860 L292 773 Q289 769 282.5 763.5 Q276 758 266.5 752.5 Q257 747 242.5 743.5 Q228 740 209 740 Q171 740 152.5 752.5 Q134 765 126 773 L126 860 Z M349 860 Q356 868 374.5 881 Q393 894 432 894 Q471 894 489.5 881 Q508 868 514 860 L514 773 Q508 765 489.5 752.5 Q471 740 432 740 Q393 740 374.5 752.5 Q356 765 349 773 L349 860 Z " />
<glyph glyph-name="Umacron" unicode="&#x16a;" horiz-adv-x="640" d="M48 700 L238 700 L238 173 Q246 155 267 141.5 Q288 128 320 128 Q352 128 372 141.5 Q392 155 402 173 L402 700 L592 700 L592 138 Q581 114 560 87 Q539 60 506 37.5 Q473 15 427 0 Q381 -15 320 -15 Q259 -15 213 0 Q167 15 134 37.5 Q101 60 80 87 Q59 114 48 138 L48 700 Z M130 866 L510 866 L510 748 L130 748 L130 866 Z " />
<glyph glyph-name="Ubreve" unicode="&#x16c;" horiz-adv-x="640" d="M48 700 L238 700 L238 173 Q246 155 267 141.5 Q288 128 320 128 Q352 128 372 141.5 Q392 155 402 173 L402 700 L592 700 L592 138 Q581 114 560 87 Q539 60 506 37.5 Q473 15 427 0 Q381 -15 320 -15 Q259 -15 213 0 Q167 15 134 37.5 Q101 60 80 87 Q59 114 48 138 L48 700 Z M133 878 L260 878 L260 850 Q264 842 278.5 831 Q293 820 320 820 Q347 820 360.5 831 Q374 842 378 850 L378 878 L505 878 L505 827 Q484 784 441.5 755.5 Q399 727 320 727 Q280 727 250 734.5 Q220 742 197.5 755.5 Q175 769 159 787.5 Q143 806 133 827 L133 878 Z " />
<glyph glyph-name="Uring" unicode="&#x16e;" horiz-adv-x="640" d="M48 700 L238 700 L238 173 Q246 155 267 141.5 Q288 128 320 128 Q352 128 372 141.5 Q392 155 402 173 L402 700 L592 700 L592 138 Q581 114 560 87 Q539 60 506 37.5 Q473 15 427 0 Q381 -15 320 -15 Q259 -15 213 0 Q167 15 134 37.5 Q101 60 80 87 Q59 114 48 138 L48 700 Z M270 780 Q275 773 287 766 Q299 759 321 759 Q343 759 355 766 Q367 773 371 780 L371 839 Q367 847 355 854 Q343 861 321 861 Q299 861 287 854 Q275 847 270 839 L270 780 Z M189 858 Q206 889 240.5 908 Q275 927 321 927 Q366 927 401 908 Q436 889 452 858 L452 762 Q436 731 401 711.5 Q366 692 321 692 Q275 692 240.5 711.5 Q206 731 189 762 L189 858 Z " />
<glyph glyph-name="Uhungarumlaut" unicode="&#x170;" horiz-adv-x="640" d="M48 700 L238 700 L238 173 Q246 155 267 141.5 Q288 128 320 128 Q352 128 372 141.5 Q392 155 402 173 L402 700 L592 700 L592 138 Q581 114 560 87 Q539 60 506 37.5 Q473 15 427 0 Q381 -15 320 -15 Q259 -15 213 0 Q167 15 134 37.5 Q101 60 80 87 Q59 114 48 138 L48 700 Z M155 751 L186 900 L325 900 L325 840 L268 736 L155 736 L155 751 Z M359 751 L390 900 L528 900 L528 840 L471 736 L359 736 L359 751 Z " />
<glyph glyph-name="Uogonek" unicode="&#x172;" horiz-adv-x="638" d="M293 -107 Q299 -93 317 -66.5 Q335 -40 364 -12 Q343 -15 319 -15 Q258 -15 212 0 Q166 15 133 37.5 Q100 60 79 87 Q58 114 47 138 L47 700 L237 700 L237 173 Q245 155 266 141.5 Q287 128 319 128 Q351 128 371 141.5 Q391 155 401 173 L401 700 L591 700 L591 138 Q582 118 567 97.5 Q552 77 530 54 Q497 18 476.5 -10 Q456 -38 443.5 -58.5 Q431 -79 425.5 -91.5 Q420 -104 418 -110 L418 -132 Q422 -140 433.5 -144 Q445 -148 459 -148 Q481 -148 508 -141 L508 -228 Q495 -234 478 -238 Q461 -242 428 -242 Q384 -242 345.5 -230 Q307 -218 293 -187 L293 -107 Z " />
<glyph glyph-name="Wgrave" unicode="&#x1e80;" horiz-adv-x="934" d="M15 598 L15 700 L197 700 L264 255 L283 255 L374 700 L537 700 L629 255 L648 255 L714 700 L897 700 L897 598 L783 0 L534 0 L458 332 L439 332 L364 0 L129 0 L15 598 Z M314 828 L314 901 L471 901 L522 753 L522 737 L394 737 L314 828 Z " />
<glyph glyph-name="Wacute" unicode="&#x1e82;" horiz-adv-x="934" d="M15 598 L15 700 L197 700 L264 255 L283 255 L374 700 L537 700 L629 255 L648 255 L714 700 L897 700 L897 598 L783 0 L534 0 L458 332 L439 332 L364 0 L129 0 L15 598 Z M389 753 L438 901 L597 901 L597 828 L516 737 L389 737 L389 753 Z " />
<glyph glyph-name="Wcircumflex" unicode="&#x174;" horiz-adv-x="934" d="M15 598 L15 700 L197 700 L264 255 L283 255 L374 700 L537 700 L629 255 L648 255 L714 700 L897 700 L897 598 L783 0 L534 0 L458 332 L439 332 L364 0 L129 0 L15 598 Z M272 753 L347 901 L572 901 L646 753 L646 737 L520 737 L460 827 L398 737 L272 737 L272 753 Z " />
<glyph glyph-name="Wdieresis" unicode="&#x1e84;" horiz-adv-x="934" d="M15 598 L15 700 L197 700 L264 255 L283 255 L374 700 L537 700 L629 255 L648 255 L714 700 L897 700 L897 598 L783 0 L534 0 L458 332 L439 332 L364 0 L129 0 L15 598 Z M259 856 Q267 864 285.5 877 Q304 890 342 890 Q381 890 399.5 877 Q418 864 425 856 L425 769 Q422 765 415.5 759.5 Q409 754 399.5 748.5 Q390 743 375.5 739.5 Q361 736 342 736 Q304 736 285.5 748.5 Q267 761 259 769 L259 856 Z M482 856 Q489 864 507.5 877 Q526 890 565 890 Q604 890 622.5 877 Q641 864 647 856 L647 769 Q641 761 622.5 748.5 Q604 736 565 736 Q526 736 507.5 748.5 Q489 761 482 769 L482 856 Z " />
<glyph glyph-name="Ygrave" unicode="&#x1ef2;" horiz-adv-x="588" d="M194 285 L24 598 L24 700 L196 700 L292 479 L311 479 L409 700 L564 700 L564 598 L384 266 L384 0 L194 0 L194 285 Z M160 828 L160 901 L317 901 L368 753 L368 737 L240 737 L160 828 Z " />
<glyph glyph-name="Yacute" unicode="&#xdd;" horiz-adv-x="588" d="M194 285 L24 598 L24 700 L196 700 L292 479 L311 479 L409 700 L564 700 L564 598 L384 266 L384 0 L194 0 L194 285 Z M231 753 L280 901 L439 901 L439 828 L358 737 L231 737 L231 753 Z " />
<glyph glyph-name="Ycircumflex" unicode="&#x176;" horiz-adv-x="588" d="M194 285 L24 598 L24 700 L196 700 L292 479 L311 479 L409 700 L564 700 L564 598 L384 266 L384 0 L194 0 L194 285 Z M113 753 L188 901 L413 901 L487 753 L487 737 L361 737 L301 827 L239 737 L113 737 L113 753 Z " />
<glyph glyph-name="Ydieresis" unicode="&#x178;" horiz-adv-x="588" d="M194 285 L24 598 L24 700 L196 700 L292 479 L311 479 L409 700 L564 700 L564 598 L384 266 L384 0 L194 0 L194 285 Z M106 856 Q114 864 132.5 877 Q151 890 189 890 Q228 890 246.5 877 Q265 864 272 856 L272 769 Q269 765 262.5 759.5 Q256 754 246.5 748.5 Q237 743 222.5 739.5 Q208 736 189 736 Q151 736 132.5 748.5 Q114 761 106 769 L106 856 Z M329 856 Q336 864 354.5 877 Q373 890 412 890 Q451 890 469.5 877 Q488 864 494 856 L494 769 Q488 761 469.5 748.5 Q451 736 412 736 Q373 736 354.5 748.5 Q336 761 329 769 L329 856 Z " />
<glyph glyph-name="Zacute" unicode="&#x179;" horiz-adv-x="555" d="M31 118 L286 543 L286 561 L35 561 L35 700 L524 700 L524 582 L268 157 L268 139 L524 139 L524 0 L31 0 L31 118 Z M214 753 L263 901 L422 901 L422 828 L341 737 L214 737 L214 753 Z " />
<glyph glyph-name="Zcaron" unicode="&#x17d;" horiz-adv-x="555" d="M31 118 L286 543 L286 561 L35 561 L35 700 L524 700 L524 582 L268 157 L268 139 L524 139 L524 0 L31 0 L31 118 Z M104 886 L104 901 L230 901 L292 811 L352 901 L478 901 L478 886 L404 737 L179 737 L104 886 Z " />
<glyph glyph-name="Zdotaccent" unicode="&#x17b;" horiz-adv-x="555" d="M31 118 L286 543 L286 561 L35 561 L35 700 L524 700 L524 582 L268 157 L268 139 L524 139 L524 0 L31 0 L31 118 Z M198 854 Q206 871 228 886.5 Q250 902 289 902 Q329 902 351 886.5 Q373 871 381 854 L381 790 Q373 773 351 757.5 Q329 742 289 742 Q250 742 228 757.5 Q206 773 198 790 L198 854 Z " />
<glyph glyph-name="Eng" unicode="&#x14a;" horiz-adv-x="671" d="M50 700 L258 700 L427 320 L445 320 L445 700 L621 700 L621 -33 Q609 -62 585.5 -88 Q562 -114 528.5 -134 Q495 -154 450.5 -166 Q406 -178 351 -178 Q337 -178 326 -177.5 Q315 -177 310 -176 L310 -40 Q315 -41 326.5 -41.5 Q338 -42 347 -42 Q373 -42 391.5 -34.5 Q410 -27 421 -15 L245 377 L226 377 L226 0 L50 0 L50 700 Z " />
<glyph glyph-name="Eth" unicode="&#xd0;" horiz-adv-x="655" d="M64 285 L28 285 L28 425 L64 425 L64 700 L372 700 Q420 700 458 687.5 Q496 675 524.5 655.5 Q553 636 572.5 611.5 Q592 587 603 562 L603 138 Q592 113 572.5 88.5 Q553 64 524.5 44.5 Q496 25 458 12.5 Q420 0 372 0 L64 0 L64 285 Z M332 139 Q364 139 384.5 151.5 Q405 164 413 182 L413 518 Q405 536 384.5 548.5 Q364 561 332 561 L254 561 L254 425 L343 425 L343 285 L254 285 L254 139 L332 139 Z " />
<glyph glyph-name="Thorn" unicode="&#xde;" horiz-adv-x="601" d="M50 700 L240 700 L240 602 L357 602 Q425 602 481.5 571.5 Q538 541 572 482 L572 246 Q559 222 538.5 200 Q518 178 491 161.5 Q464 145 430.5 135 Q397 125 357 125 L240 125 L240 0 L50 0 L50 700 Z M314 265 Q340 265 359.5 274 Q379 283 389 303 L389 424 Q378 444 357.5 453 Q337 462 314 462 L240 462 L240 265 L314 265 Z " />
<glyph glyph-name="uni018F" unicode="&#x18f;" horiz-adv-x="617" d="M39 391 L385 391 L385 527 Q376 545 356 558.5 Q336 572 304 572 Q271 572 250.5 558.5 Q230 545 222 527 L222 456 L39 456 L39 576 Q50 595 70 619.5 Q90 644 121.5 665 Q153 686 198 700.5 Q243 715 304 715 Q365 715 410.5 700 Q456 685 489 662.5 Q522 640 543 613 Q564 586 575 562 L575 138 Q564 114 543 87 Q522 60 489 37.5 Q456 15 410.5 0 Q365 -15 304 -15 Q243 -15 198 -0.5 Q153 14 121.5 35 Q90 56 70 80 Q50 104 39 124 L39 391 Z M216 168 Q225 153 245.5 140.5 Q266 128 301 128 Q333 128 355 141.5 Q377 155 385 173 L385 267 L216 267 L216 168 Z " />
<glyph glyph-name="a" unicode="a" horiz-adv-x="563" d="M36 233 Q42 245 54.5 261 Q67 277 88 291.5 Q109 306 139 316.5 Q169 327 209 327 Q255 327 289 313 Q323 299 347 279 L347 390 Q339 406 321 417 Q303 428 277 428 Q250 428 233 418 Q216 408 210 398 L210 363 L47 363 L47 453 Q54 462 70 480 Q86 498 113.5 516 Q141 534 181 547 Q221 560 277 560 Q332 560 373.5 546.5 Q415 533 445 512.5 Q475 492 494 467.5 Q513 443 523 422 L523 0 L353 0 L353 38 Q328 15 293 0 Q258 -15 209 -15 Q169 -15 139 -6 Q109 3 87.5 16 Q66 29 53.5 43.5 Q41 58 36 68 L36 233 Z M208 123 Q214 115 229.5 105 Q245 95 274 95 Q301 95 319 103 Q337 111 347 122 L347 188 Q337 199 318.5 207.5 Q300 216 274 216 Q245 216 229 206.5 Q213 197 208 190 L208 123 Z " />
<glyph glyph-name="b" unicode="b" horiz-adv-x="566" d="M42 700 L218 700 L218 503 Q241 526 273.5 541 Q306 556 351 556 Q390 556 420.5 543.5 Q451 531 472.5 511.5 Q494 492 508 469.5 Q522 447 529 428 L529 117 Q522 97 508 74.5 Q494 52 472.5 33 Q451 14 420.5 1.5 Q390 -11 351 -11 Q303 -11 268.5 6 Q234 23 211 49 L211 0 L42 0 L42 700 Z M353 392 Q348 401 331.5 412 Q315 423 286 423 Q262 423 245 416.5 Q228 410 218 400 L218 145 Q228 135 245 128 Q262 121 287 121 Q315 121 331.5 132.5 Q348 144 353 153 L353 392 Z " />
<glyph glyph-name="c" unicode="c" horiz-adv-x="548" d="M37 422 Q46 443 65 467.5 Q84 492 114 512.5 Q144 533 186 546.5 Q228 560 283 560 Q338 560 379 546.5 Q420 533 448 514.5 Q476 496 493 476.5 Q510 457 517 445 L517 325 L355 325 L355 390 Q348 405 329 416.5 Q310 428 283 428 Q256 428 238 416.5 Q220 405 213 390 L213 154 Q220 140 238 128.5 Q256 117 283 117 Q310 117 329 128.5 Q348 140 355 154 L355 219 L517 219 L517 99 Q511 87 494 68 Q477 49 448.5 30.5 Q420 12 379 -1.5 Q338 -15 283 -15 Q228 -15 186 -1.5 Q144 12 114 32 Q84 52 65 76.5 Q46 101 37 122 L37 422 Z " />
<glyph glyph-name="d" unicode="d" horiz-adv-x="565" d="M37 428 Q44 447 58 469.5 Q72 492 93.5 511.5 Q115 531 145.5 543.5 Q176 556 215 556 Q260 556 292.5 541 Q325 526 348 503 L348 700 L524 700 L524 0 L355 0 L355 49 Q332 23 297.5 6 Q263 -11 215 -11 Q176 -11 145.5 1.5 Q115 14 93.5 33 Q72 52 58 74.5 Q44 97 37 117 L37 428 Z M348 399 Q337 409 320 416 Q303 423 279 423 Q251 423 234.5 412 Q218 401 213 392 L213 153 Q218 143 234.5 132 Q251 121 280 121 Q303 121 320 127.5 Q337 134 348 145 L348 399 Z " />
<glyph glyph-name="e" unicode="e" horiz-adv-x="552" d="M37 422 Q46 443 65 467.5 Q84 492 114 512.5 Q144 533 186 546.5 Q228 560 283 560 Q338 560 379 546.5 Q420 533 448.5 514.5 Q477 496 493.5 476.5 Q510 457 517 445 L517 226 L213 226 L213 154 Q220 140 238 128.5 Q256 117 283 117 Q310 117 329 128.5 Q348 140 355 154 L355 186 L517 186 L517 99 Q510 87 493.5 67.5 Q477 48 448.5 30 Q420 12 379 -1.5 Q338 -15 283 -15 Q228 -15 186 -1.5 Q144 12 114 32 Q84 52 65 76.5 Q46 101 37 122 L37 422 Z M355 331 L355 391 Q348 406 329 417 Q310 428 283 428 Q256 428 238 417 Q220 406 213 391 L213 331 L355 331 Z " />
<glyph glyph-name="f" unicode="f" horiz-adv-x="368" d="M71 418 L23 418 L23 544 L71 544 L71 636 Q77 653 90 670 Q103 687 124.5 701 Q146 715 177.5 723.5 Q209 732 251 732 Q286 732 311.5 727.5 Q337 723 348 719 L348 600 Q340 602 318 602 Q280 602 265.5 593 Q251 584 247 578 L247 544 L348 544 L348 418 L247 418 L247 0 L71 0 L71 418 Z " />
<glyph glyph-name="g" unicode="g" horiz-adv-x="565" d="M43 32 L213 32 L213 -8 Q218 -17 234.5 -27.5 Q251 -38 278 -38 Q306 -38 323.5 -27.5 Q341 -17 348 -2 L348 120 Q325 97 292.5 82 Q260 67 215 67 Q176 67 145.5 79.5 Q115 92 93.5 111 Q72 130 58 152.5 Q44 175 37 195 L37 428 Q44 447 58 469.5 Q72 492 93.5 511.5 Q115 531 145.5 543.5 Q176 556 215 556 Q263 556 297.5 538.5 Q332 521 355 495 L355 544 L524 544 L524 -34 Q514 -56 495 -80 Q476 -104 446.5 -123.5 Q417 -143 375 -155.5 Q333 -168 278 -168 Q222 -168 181.5 -155 Q141 -142 113 -124 Q85 -106 68 -86 Q51 -66 43 -51 L43 32 Z M348 399 Q337 409 320 416 Q303 423 279 423 Q251 423 234.5 412 Q218 401 213 392 L213 229 Q218 219 234.5 208 Q251 197 280 197 Q303 197 320 203.5 Q337 210 348 221 L348 399 Z " />
<glyph glyph-name="h" unicode="h" horiz-adv-x="570" d="M42 700 L218 700 L218 503 Q241 526 273.5 541 Q306 556 351 556 Q390 556 420.5 543.5 Q451 531 472.5 511.5 Q494 492 508 469.5 Q522 447 529 428 L529 0 L353 0 L353 392 Q348 401 331.5 412 Q315 423 286 423 Q262 423 245 416.5 Q228 410 218 400 L218 0 L42 0 L42 700 Z " />
<glyph glyph-name="i" unicode="i" horiz-adv-x="262" d="M40 706 Q48 723 70 738.5 Q92 754 131 754 Q171 754 193 738.5 Q215 723 223 706 L223 642 Q215 625 193 609.5 Q171 594 131 594 Q92 594 70 609.5 Q48 625 40 642 L40 706 Z M43 544 L219 544 L219 0 L43 0 L43 544 Z " />
<glyph glyph-name="j" unicode="j" horiz-adv-x="261" d="M-28 -38 Q-1 -38 17 -24.5 Q35 -11 42 8 L42 544 L218 544 L218 -30 Q209 -51 190 -75.5 Q171 -100 141 -121 Q111 -142 69 -155.5 Q27 -169 -28 -169 L-28 -38 Z M38 706 Q46 723 68 738.5 Q90 754 129 754 Q170 754 192 738.5 Q214 723 221 706 L221 642 Q214 625 192 609.5 Q170 594 129 594 Q90 594 68 609.5 Q46 625 38 642 L38 706 Z " />
<glyph glyph-name="k" unicode="k" horiz-adv-x="535" d="M42 700 L218 700 L218 374 L235 374 L391 544 L509 544 L509 450 L371 306 L515 94 L515 0 L376 0 L253 187 L218 151 L218 0 L42 0 L42 700 Z " />
<glyph glyph-name="l" unicode="l" horiz-adv-x="259" d="M42 700 L218 700 L218 0 L42 0 L42 700 Z " />
<glyph glyph-name="m" unicode="m" horiz-adv-x="840" d="M42 544 L205 544 L205 493 Q227 520 260 538 Q293 556 341 556 Q395 556 430 532.5 Q465 509 485 480 Q507 512 542 534 Q577 556 631 556 Q670 556 698.5 543.5 Q727 531 747.5 512.5 Q768 494 780.5 471.5 Q793 449 800 430 L800 0 L624 0 L624 395 Q619 405 606 414 Q593 423 567 423 Q546 423 531.5 417 Q517 411 509 403 L509 0 L333 0 L333 395 Q328 405 315 414 Q302 423 276 423 Q255 423 240.5 417 Q226 411 218 403 L218 0 L42 0 L42 544 Z " />
<glyph glyph-name="n" unicode="n" horiz-adv-x="570" d="M42 544 L205 544 L205 488 Q228 517 263.5 536.5 Q299 556 351 556 Q390 556 420.5 543.5 Q451 531 472.5 511.5 Q494 492 508 469.5 Q522 447 529 428 L529 0 L353 0 L353 392 Q348 401 331.5 412 Q315 423 286 423 Q262 423 245 416.5 Q228 410 218 400 L218 0 L42 0 L42 544 Z " />
<glyph glyph-name="o" unicode="o" horiz-adv-x="568" d="M37 422 Q46 443 65.5 467.5 Q85 492 115 512.5 Q145 533 187 546.5 Q229 560 284 560 Q339 560 380.5 546.5 Q422 533 452 512.5 Q482 492 501.5 467.5 Q521 443 531 422 L531 122 Q521 101 501.5 76.5 Q482 52 452 32 Q422 12 380.5 -1.5 Q339 -15 284 -15 Q229 -15 187 -1.5 Q145 12 115 32 Q85 52 65.5 76.5 Q46 101 37 122 L37 422 Z M355 390 Q348 405 329.5 416.5 Q311 428 284 428 Q257 428 238.5 416.5 Q220 405 213 390 L213 154 Q220 140 238.5 128.5 Q257 117 284 117 Q311 117 329.5 128.5 Q348 140 355 154 L355 390 Z " />
<glyph glyph-name="p" unicode="p" horiz-adv-x="566" d="M42 544 L211 544 L211 495 Q234 521 268.5 538.5 Q303 556 351 556 Q390 556 420.5 543.5 Q451 531 472.5 511.5 Q494 492 508 469.5 Q522 447 529 428 L529 117 Q522 97 508 74.5 Q494 52 472.5 33 Q451 14 420.5 1.5 Q390 -11 351 -11 Q306 -11 273.5 4 Q241 19 218 42 L218 -156 L42 -156 L42 544 Z M353 392 Q348 401 331.5 412 Q315 423 286 423 Q262 423 245 416.5 Q228 410 218 400 L218 145 Q228 135 245 128 Q262 121 287 121 Q315 121 331.5 132.5 Q348 144 353 153 L353 392 Z " />
<glyph glyph-name="q" unicode="q" horiz-adv-x="565" d="M37 428 Q44 447 58 469.5 Q72 492 93.5 511.5 Q115 531 145.5 543.5 Q176 556 215 556 Q263 556 297.5 538.5 Q332 521 355 495 L355 544 L524 544 L524 -156 L348 -156 L348 42 Q325 19 292.5 4 Q260 -11 215 -11 Q176 -11 145.5 1.5 Q115 14 93.5 33 Q72 52 58 74.5 Q44 97 37 117 L37 428 Z M348 399 Q337 409 320 416 Q303 423 279 423 Q251 423 234.5 412 Q218 401 213 392 L213 153 Q218 143 234.5 132 Q251 121 280 121 Q303 121 320 127.5 Q337 134 348 145 L348 399 Z " />
<glyph glyph-name="r" unicode="r" horiz-adv-x="391" d="M42 544 L205 544 L205 469 Q225 501 258.5 522.5 Q292 544 350 544 L357 544 Q362 544 370 543 L370 387 Q362 388 355 388 L344 388 Q294 388 263 379 Q232 370 218 357 L218 0 L42 0 L42 544 Z " />
<glyph glyph-name="s" unicode="s" horiz-adv-x="527" d="M35 177 L197 177 L197 138 Q204 127 221 117.5 Q238 108 263 108 Q288 108 305.5 117.5 Q323 127 330 138 L330 176 Q325 187 309.5 193.5 Q294 200 274 204 L220 214 Q174 223 141.5 234.5 Q109 246 87 259 Q65 272 52.5 284.5 Q40 297 35 306 L35 453 Q42 464 58.5 482 Q75 500 102.5 517.5 Q130 535 170 547.5 Q210 560 264 560 Q318 560 357.5 547 Q397 534 424.5 517 Q452 500 468 481.5 Q484 463 492 453 L492 371 L330 371 L330 407 Q323 418 305.5 427 Q288 436 263 436 Q238 436 221 427 Q204 418 197 407 L197 373 Q202 362 217.5 356 Q233 350 253 346 L307 335 Q352 326 384.5 314 Q417 302 439 289.5 Q461 277 473.5 265 Q486 253 492 244 L492 92 Q484 80 467.5 62 Q451 44 423.5 27 Q396 10 356.5 -2.5 Q317 -15 263 -15 Q209 -15 169.5 -2.5 Q130 10 102.5 27 Q75 44 58.5 62.5 Q42 81 35 92 L35 177 Z " />
<glyph glyph-name="t" unicode="t" horiz-adv-x="368" d="M71 418 L23 418 L23 544 L71 544 L71 656 L247 656 L247 544 L348 544 L348 418 L247 418 L247 140 Q252 134 266.5 125.5 Q281 117 318 117 Q340 117 348 119 L348 0 Q335 -4 312 -8.5 Q289 -13 251 -13 Q209 -13 177.5 -4.5 Q146 4 124.5 17.5 Q103 31 90 48.5 Q77 66 71 83 L71 418 Z " />
<glyph glyph-name="u" unicode="u" horiz-adv-x="565" d="M41 544 L217 544 L217 151 Q222 143 237 132 Q252 121 281 121 Q305 121 321 127.5 Q337 134 347 144 L347 544 L523 544 L523 0 L360 0 L360 55 Q337 27 302 8 Q267 -11 216 -11 Q177 -11 147 1.5 Q117 14 96 32.5 Q75 51 61.5 73 Q48 95 41 115 L41 544 Z " />
<glyph glyph-name="v" unicode="v" horiz-adv-x="544" d="M25 450 L25 544 L193 544 L272 198 L289 198 L370 544 L519 544 L519 450 L385 0 L158 0 L25 450 Z " />
<glyph glyph-name="w" unicode="w" horiz-adv-x="808" d="M28 450 L28 544 L197 544 L252 197 L270 197 L339 544 L489 544 L557 197 L575 197 L631 544 L780 544 L780 450 L673 0 L468 0 L416 233 L401 233 L351 0 L136 0 L28 450 Z " />
<glyph glyph-name="x" unicode="x" horiz-adv-x="529" d="M27 94 L140 273 L27 450 L27 544 L186 544 L259 377 L269 377 L342 544 L503 544 L503 450 L388 273 L503 94 L503 0 L342 0 L269 166 L259 166 L186 0 L27 0 L27 94 Z " />
<glyph glyph-name="y" unicode="y" horiz-adv-x="533" d="M41 -39 Q51 -40 69 -40.5 Q87 -41 95 -41 Q127 -41 149.5 -31.5 Q172 -22 181 -13 L189 17 L27 450 L27 544 L195 544 L266 251 L284 251 L351 544 L507 544 L507 451 L339 -91 Q327 -105 308.5 -119.5 Q290 -134 265 -145 Q240 -156 207.5 -163 Q175 -170 135 -170 Q107 -170 81 -167 Q55 -164 41 -159 L41 -39 Z " />
<glyph glyph-name="z" unicode="z" horiz-adv-x="483" d="M26 118 L241 406 L241 418 L26 418 L26 544 L457 544 L457 435 L235 139 L235 127 L457 127 L457 0 L26 0 L26 118 Z " />
<glyph glyph-name="agrave" unicode="&#xe0;" horiz-adv-x="563" d="M36 233 Q42 245 54.5 261 Q67 277 88 291.5 Q109 306 139 316.5 Q169 327 209 327 Q255 327 289 313 Q323 299 347 279 L347 390 Q339 406 321 417 Q303 428 277 428 Q250 428 233 418 Q216 408 210 398 L210 363 L47 363 L47 453 Q54 462 70 480 Q86 498 113.5 516 Q141 534 181 547 Q221 560 277 560 Q332 560 373.5 546.5 Q415 533 445 512.5 Q475 492 494 467.5 Q513 443 523 422 L523 0 L353 0 L353 38 Q328 15 293 0 Q258 -15 209 -15 Q169 -15 139 -6 Q109 3 87.5 16 Q66 29 53.5 43.5 Q41 58 36 68 L36 233 Z M208 123 Q214 115 229.5 105 Q245 95 274 95 Q301 95 319 103 Q337 111 347 122 L347 188 Q337 199 318.5 207.5 Q300 216 274 216 Q245 216 229 206.5 Q213 197 208 190 L208 123 Z M139 689 L139 763 L305 763 L353 608 L353 593 L219 593 L139 689 Z " />
<glyph glyph-name="aacute" unicode="&#xe1;" horiz-adv-x="563" d="M36 233 Q42 245 54.5 261 Q67 277 88 291.5 Q109 306 139 316.5 Q169 327 209 327 Q255 327 289 313 Q323 299 347 279 L347 390 Q339 406 321 417 Q303 428 277 428 Q250 428 233 418 Q216 408 210 398 L210 363 L47 363 L47 453 Q54 462 70 480 Q86 498 113.5 516 Q141 534 181 547 Q221 560 277 560 Q332 560 373.5 546.5 Q415 533 445 512.5 Q475 492 494 467.5 Q513 443 523 422 L523 0 L353 0 L353 38 Q328 15 293 0 Q258 -15 209 -15 Q169 -15 139 -6 Q109 3 87.5 16 Q66 29 53.5 43.5 Q41 58 36 68 L36 233 Z M208 123 Q214 115 229.5 105 Q245 95 274 95 Q301 95 319 103 Q337 111 347 122 L347 188 Q337 199 318.5 207.5 Q300 216 274 216 Q245 216 229 206.5 Q213 197 208 190 L208 123 Z M214 608 L260 763 L428 763 L428 689 L347 593 L214 593 L214 608 Z " />
<glyph glyph-name="acircumflex" unicode="&#xe2;" horiz-adv-x="563" d="M36 233 Q42 245 54.5 261 Q67 277 88 291.5 Q109 306 139 316.5 Q169 327 209 327 Q255 327 289 313 Q323 299 347 279 L347 390 Q339 406 321 417 Q303 428 277 428 Q250 428 233 418 Q216 408 210 398 L210 363 L47 363 L47 453 Q54 462 70 480 Q86 498 113.5 516 Q141 534 181 547 Q221 560 277 560 Q332 560 373.5 546.5 Q415 533 445 512.5 Q475 492 494 467.5 Q513 443 523 422 L523 0 L353 0 L353 38 Q328 15 293 0 Q258 -15 209 -15 Q169 -15 139 -6 Q109 3 87.5 16 Q66 29 53.5 43.5 Q41 58 36 68 L36 233 Z M208 123 Q214 115 229.5 105 Q245 95 274 95 Q301 95 319 103 Q337 111 347 122 L347 188 Q337 199 318.5 207.5 Q300 216 274 216 Q245 216 229 206.5 Q213 197 208 190 L208 123 Z M99 604 L174 759 L399 759 L473 604 L473 589 L347 589 L287 684 L225 589 L99 589 L99 604 Z " />
<glyph glyph-name="atilde" unicode="&#xe3;" horiz-adv-x="563" d="M36 233 Q42 245 54.5 261 Q67 277 88 291.5 Q109 306 139 316.5 Q169 327 209 327 Q255 327 289 313 Q323 299 347 279 L347 390 Q339 406 321 417 Q303 428 277 428 Q250 428 233 418 Q216 408 210 398 L210 363 L47 363 L47 453 Q54 462 70 480 Q86 498 113.5 516 Q141 534 181 547 Q221 560 277 560 Q332 560 373.5 546.5 Q415 533 445 512.5 Q475 492 494 467.5 Q513 443 523 422 L523 0 L353 0 L353 38 Q328 15 293 0 Q258 -15 209 -15 Q169 -15 139 -6 Q109 3 87.5 16 Q66 29 53.5 43.5 Q41 58 36 68 L36 233 Z M208 123 Q214 115 229.5 105 Q245 95 274 95 Q301 95 319 103 Q337 111 347 122 L347 188 Q337 199 318.5 207.5 Q300 216 274 216 Q245 216 229 206.5 Q213 197 208 190 L208 123 Z M488 678 Q484 662 474.5 646.5 Q465 631 449.5 619 Q434 607 413.5 600 Q393 593 367 593 Q335 593 314.5 600.5 Q294 608 278.5 617 Q263 626 250 633.5 Q237 641 221 641 Q204 641 195.5 634 Q187 627 184 618 L184 598 L83 598 L83 664 Q90 697 121 723 Q152 749 204 749 Q235 749 255.5 741.5 Q276 734 292 725 Q308 716 321 708.5 Q334 701 350 701 Q379 701 386 723 L386 744 L488 744 L488 678 Z " />
<glyph glyph-name="adieresis" unicode="&#xe4;" horiz-adv-x="563" d="M36 233 Q42 245 54.5 261 Q67 277 88 291.5 Q109 306 139 316.5 Q169 327 209 327 Q255 327 289 313 Q323 299 347 279 L347 390 Q339 406 321 417 Q303 428 277 428 Q250 428 233 418 Q216 408 210 398 L210 363 L47 363 L47 453 Q54 462 70 480 Q86 498 113.5 516 Q141 534 181 547 Q221 560 277 560 Q332 560 373.5 546.5 Q415 533 445 512.5 Q475 492 494 467.5 Q513 443 523 422 L523 0 L353 0 L353 38 Q328 15 293 0 Q258 -15 209 -15 Q169 -15 139 -6 Q109 3 87.5 16 Q66 29 53.5 43.5 Q41 58 36 68 L36 233 Z M208 123 Q214 115 229.5 105 Q245 95 274 95 Q301 95 319 103 Q337 111 347 122 L347 188 Q337 199 318.5 207.5 Q300 216 274 216 Q245 216 229 206.5 Q213 197 208 190 L208 123 Z M97 717 Q100 721 106 727 Q112 733 122 738 Q132 743 146 747 Q160 751 179 751 Q218 751 237 738 Q256 725 262 717 L262 625 Q256 617 237 604 Q218 591 179 591 Q141 591 122.5 604 Q104 617 97 625 L97 717 Z M322 717 Q329 725 348 738 Q367 751 405 751 Q424 751 438.5 747 Q453 743 462.5 738 Q472 733 478.5 727 Q485 721 488 717 L488 625 Q485 621 478.5 615 Q472 609 462.5 604 Q453 599 438.5 595 Q424 591 405 591 Q367 591 348.5 604 Q330 617 322 625 L322 717 Z " />
<glyph glyph-name="amacron" unicode="&#x101;" horiz-adv-x="563" d="M36 233 Q42 245 54.5 261 Q67 277 88 291.5 Q109 306 139 316.5 Q169 327 209 327 Q255 327 289 313 Q323 299 347 279 L347 390 Q339 406 321 417 Q303 428 277 428 Q250 428 233 418 Q216 408 210 398 L210 363 L47 363 L47 453 Q54 462 70 480 Q86 498 113.5 516 Q141 534 181 547 Q221 560 277 560 Q332 560 373.5 546.5 Q415 533 445 512.5 Q475 492 494 467.5 Q513 443 523 422 L523 0 L353 0 L353 38 Q328 15 293 0 Q258 -15 209 -15 Q169 -15 139 -6 Q109 3 87.5 16 Q66 29 53.5 43.5 Q41 58 36 68 L36 233 Z M208 123 Q214 115 229.5 105 Q245 95 274 95 Q301 95 319 103 Q337 111 347 122 L347 188 Q337 199 318.5 207.5 Q300 216 274 216 Q245 216 229 206.5 Q213 197 208 190 L208 123 Z M96 732 L476 732 L476 614 L96 614 L96 732 Z " />
<glyph glyph-name="abreve" unicode="&#x103;" horiz-adv-x="563" d="M36 233 Q42 245 54.5 261 Q67 277 88 291.5 Q109 306 139 316.5 Q169 327 209 327 Q255 327 289 313 Q323 299 347 279 L347 390 Q339 406 321 417 Q303 428 277 428 Q250 428 233 418 Q216 408 210 398 L210 363 L47 363 L47 453 Q54 462 70 480 Q86 498 113.5 516 Q141 534 181 547 Q221 560 277 560 Q332 560 373.5 546.5 Q415 533 445 512.5 Q475 492 494 467.5 Q513 443 523 422 L523 0 L353 0 L353 38 Q328 15 293 0 Q258 -15 209 -15 Q169 -15 139 -6 Q109 3 87.5 16 Q66 29 53.5 43.5 Q41 58 36 68 L36 233 Z M208 123 Q214 115 229.5 105 Q245 95 274 95 Q301 95 319 103 Q337 111 347 122 L347 188 Q337 199 318.5 207.5 Q300 216 274 216 Q245 216 229 206.5 Q213 197 208 190 L208 123 Z M99 739 L226 739 L226 711 Q230 702 244.5 691.5 Q259 681 286 681 Q313 681 326.5 691.5 Q340 702 344 711 L344 739 L471 739 L471 688 Q460 667 445 648.5 Q430 630 407.5 616.5 Q385 603 355 595 Q325 587 286 587 Q247 587 216.5 595 Q186 603 163.5 616.5 Q141 630 125 648.5 Q109 667 99 688 L99 739 Z " />
<glyph glyph-name="aring" unicode="&#xe5;" horiz-adv-x="563" d="M36 233 Q42 245 54.5 261 Q67 277 88 291.5 Q109 306 139 316.5 Q169 327 209 327 Q255 327 289 313 Q323 299 347 279 L347 390 Q339 406 321 417 Q303 428 277 428 Q250 428 233 418 Q216 408 210 398 L210 363 L47 363 L47 453 Q54 462 70 480 Q86 498 113.5 516 Q141 534 181 547 Q221 560 277 560 Q332 560 373.5 546.5 Q415 533 445 512.5 Q475 492 494 467.5 Q513 443 523 422 L523 0 L353 0 L353 38 Q328 15 293 0 Q258 -15 209 -15 Q169 -15 139 -6 Q109 3 87.5 16 Q66 29 53.5 43.5 Q41 58 36 68 L36 233 Z M208 123 Q214 115 229.5 105 Q245 95 274 95 Q301 95 319 103 Q337 111 347 122 L347 188 Q337 199 318.5 207.5 Q300 216 274 216 Q245 216 229 206.5 Q213 197 208 190 L208 123 Z M238 668 Q242 660 254.5 653 Q267 646 288 646 Q311 646 322.5 653 Q334 660 339 668 L339 726 Q334 734 322.5 741 Q311 748 288 748 Q267 748 254.5 741 Q242 734 238 726 L238 668 Z M157 745 Q173 776 208 795.5 Q243 815 288 815 Q334 815 369 795.5 Q404 776 420 745 L420 649 Q404 618 369 598.5 Q334 579 288 579 Q243 579 208 598.5 Q173 618 157 649 L157 745 Z " />
<glyph glyph-name="aogonek" unicode="&#x105;" horiz-adv-x="563" d="M308 -107 Q312 -97 324 -80 Q336 -63 353 -44 Q370 -25 391 -6 Q395 -3 399 0 L353 0 L353 38 Q328 15 293 0 Q258 -15 209 -15 Q169 -15 139 -6 Q109 3 87.5 16 Q66 29 53.5 43.5 Q41 58 36 68 L36 233 Q42 245 54.5 261 Q67 277 88 291.5 Q109 306 139 316.5 Q169 327 209 327 Q255 327 289 313 Q323 299 347 279 L347 390 Q339 406 321 417 Q303 428 277 428 Q250 428 233 418 Q216 408 210 398 L210 363 L47 363 L47 453 Q54 462 70 480 Q86 498 113.5 516 Q141 534 181 547 Q221 560 277 560 Q332 560 373.5 546.5 Q415 533 445 512.5 Q475 492 494 467.5 Q513 443 523 422 L523 0 Q476 -44 457 -71.5 Q438 -99 433 -110 L433 -132 Q437 -140 448.5 -144 Q460 -148 474 -148 Q496 -148 523 -141 L523 -228 Q510 -234 493.5 -238 Q477 -242 443 -242 Q398 -242 360.5 -230 Q323 -218 308 -187 L308 -107 Z M208 123 Q214 115 229.5 105 Q245 95 274 95 Q301 95 319 103 Q337 111 347 122 L347 188 Q337 199 318.5 207.5 Q300 216 274 216 Q245 216 229 206.5 Q213 197 208 190 L208 123 Z " />
<glyph glyph-name="ae" unicode="&#xe6;" horiz-adv-x="863" d="M38 233 Q43 245 56 261 Q69 277 90 291.5 Q111 306 141 316.5 Q171 327 211 327 Q256 327 290 313.5 Q324 300 348 280 L348 390 Q340 406 322.5 417 Q305 428 278 428 Q251 428 234.5 418 Q218 408 211 398 L211 363 L49 363 L49 453 Q55 462 71 480 Q87 498 114.5 516 Q142 534 182.5 547 Q223 560 278 560 Q329 560 368 548.5 Q407 537 436 519 Q465 537 504 548.5 Q543 560 594 560 Q649 560 690 546.5 Q731 533 759.5 514.5 Q788 496 804.5 476.5 Q821 457 828 445 L828 226 L524 226 L524 154 Q531 140 549 128.5 Q567 117 594 117 Q621 117 640 128.5 Q659 140 666 154 L666 186 L828 186 L828 99 Q821 87 804.5 67.5 Q788 48 759.5 30 Q731 12 690 -1.5 Q649 -15 594 -15 Q528 -15 482 3 Q436 21 405 47 Q377 21 335.5 3 Q294 -15 235 -15 Q190 -15 156 -6 Q122 3 98 16 Q74 29 59.5 43 Q45 57 38 68 L38 233 Z M210 123 Q216 115 231.5 105 Q247 95 275 95 Q301 95 319.5 103.5 Q338 112 348 123 L348 188 Q337 199 319 207.5 Q301 216 275 216 Q247 216 231 206.5 Q215 197 210 190 L210 123 Z M666 331 L666 391 Q659 406 640 417 Q621 428 594 428 Q567 428 549 417 Q531 406 524 391 L524 331 L666 331 Z " />
<glyph glyph-name="aeacute" unicode="&#x1fd;" horiz-adv-x="863" d="M38 233 Q43 245 56 261 Q69 277 90 291.5 Q111 306 141 316.5 Q171 327 211 327 Q256 327 290 313.5 Q324 300 348 280 L348 390 Q340 406 322.5 417 Q305 428 278 428 Q251 428 234.5 418 Q218 408 211 398 L211 363 L49 363 L49 453 Q55 462 71 480 Q87 498 114.5 516 Q142 534 182.5 547 Q223 560 278 560 Q329 560 368 548.5 Q407 537 436 519 Q465 537 504 548.5 Q543 560 594 560 Q649 560 690 546.5 Q731 533 759.5 514.5 Q788 496 804.5 476.5 Q821 457 828 445 L828 226 L524 226 L524 154 Q531 140 549 128.5 Q567 117 594 117 Q621 117 640 128.5 Q659 140 666 154 L666 186 L828 186 L828 99 Q821 87 804.5 67.5 Q788 48 759.5 30 Q731 12 690 -1.5 Q649 -15 594 -15 Q528 -15 482 3 Q436 21 405 47 Q377 21 335.5 3 Q294 -15 235 -15 Q190 -15 156 -6 Q122 3 98 16 Q74 29 59.5 43 Q45 57 38 68 L38 233 Z M210 123 Q216 115 231.5 105 Q247 95 275 95 Q301 95 319.5 103.5 Q338 112 348 123 L348 188 Q337 199 319 207.5 Q301 216 275 216 Q247 216 231 206.5 Q215 197 210 190 L210 123 Z M666 331 L666 391 Q659 406 640 417 Q621 428 594 428 Q567 428 549 417 Q531 406 524 391 L524 331 L666 331 Z M373 608 L419 763 L587 763 L587 689 L506 593 L373 593 L373 608 Z " />
<glyph glyph-name="cacute" unicode="&#x107;" horiz-adv-x="548" d="M37 422 Q46 443 65 467.5 Q84 492 114 512.5 Q144 533 186 546.5 Q228 560 283 560 Q338 560 379 546.5 Q420 533 448 514.5 Q476 496 493 476.5 Q510 457 517 445 L517 325 L355 325 L355 390 Q348 405 329 416.5 Q310 428 283 428 Q256 428 238 416.5 Q220 405 213 390 L213 154 Q220 140 238 128.5 Q256 117 283 117 Q310 117 329 128.5 Q348 140 355 154 L355 219 L517 219 L517 99 Q511 87 494 68 Q477 49 448.5 30.5 Q420 12 379 -1.5 Q338 -15 283 -15 Q228 -15 186 -1.5 Q144 12 114 32 Q84 52 65 76.5 Q46 101 37 122 L37 422 Z M211 608 L257 763 L425 763 L425 689 L344 593 L211 593 L211 608 Z " />
<glyph glyph-name="ccircumflex" unicode="&#x109;" horiz-adv-x="548" d="M37 422 Q46 443 65 467.5 Q84 492 114 512.5 Q144 533 186 546.5 Q228 560 283 560 Q338 560 379 546.5 Q420 533 448 514.5 Q476 496 493 476.5 Q510 457 517 445 L517 325 L355 325 L355 390 Q348 405 329 416.5 Q310 428 283 428 Q256 428 238 416.5 Q220 405 213 390 L213 154 Q220 140 238 128.5 Q256 117 283 117 Q310 117 329 128.5 Q348 140 355 154 L355 219 L517 219 L517 99 Q511 87 494 68 Q477 49 448.5 30.5 Q420 12 379 -1.5 Q338 -15 283 -15 Q228 -15 186 -1.5 Q144 12 114 32 Q84 52 65 76.5 Q46 101 37 122 L37 422 Z M99 604 L174 759 L399 759 L473 604 L473 589 L347 589 L287 684 L225 589 L99 589 L99 604 Z " />
<glyph glyph-name="ccaron" unicode="&#x10d;" horiz-adv-x="548" d="M37 422 Q46 443 65 467.5 Q84 492 114 512.5 Q144 533 186 546.5 Q228 560 283 560 Q338 560 379 546.5 Q420 533 448 514.5 Q476 496 493 476.5 Q510 457 517 445 L517 325 L355 325 L355 390 Q348 405 329 416.5 Q310 428 283 428 Q256 428 238 416.5 Q220 405 213 390 L213 154 Q220 140 238 128.5 Q256 117 283 117 Q310 117 329 128.5 Q348 140 355 154 L355 219 L517 219 L517 99 Q511 87 494 68 Q477 49 448.5 30.5 Q420 12 379 -1.5 Q338 -15 283 -15 Q228 -15 186 -1.5 Q144 12 114 32 Q84 52 65 76.5 Q46 101 37 122 L37 422 Z M97 744 L97 759 L223 759 L285 663 L345 759 L471 759 L471 744 L397 589 L172 589 L97 744 Z " />
<glyph glyph-name="cdotaccent" unicode="&#x10b;" horiz-adv-x="548" d="M37 422 Q46 443 65 467.5 Q84 492 114 512.5 Q144 533 186 546.5 Q228 560 283 560 Q338 560 379 546.5 Q420 533 448 514.5 Q476 496 493 476.5 Q510 457 517 445 L517 325 L355 325 L355 390 Q348 405 329 416.5 Q310 428 283 428 Q256 428 238 416.5 Q220 405 213 390 L213 154 Q220 140 238 128.5 Q256 117 283 117 Q310 117 329 128.5 Q348 140 355 154 L355 219 L517 219 L517 99 Q511 87 494 68 Q477 49 448.5 30.5 Q420 12 379 -1.5 Q338 -15 283 -15 Q228 -15 186 -1.5 Q144 12 114 32 Q84 52 65 76.5 Q46 101 37 122 L37 422 Z M194 720 Q202 737 224 752.5 Q246 768 285 768 Q325 768 347 752.5 Q369 737 377 720 L377 656 Q369 639 347 623.5 Q325 608 285 608 Q246 608 224 623.5 Q202 639 194 656 L194 720 Z " />
<glyph glyph-name="ccedilla" unicode="&#xe7;" horiz-adv-x="548" d="M184 -163 Q200 -167 221 -170 Q242 -173 251 -173 Q278 -171 287 -166 Q296 -161 304 -153 L304 -130 Q299 -122 286 -119 Q273 -116 256 -116 L197 -116 L227 -11 Q205 -7 186 -1 Q144 12 114 32 Q84 52 65 76.5 Q46 101 37 122 L37 422 Q46 443 65 467.5 Q84 492 114 512.5 Q144 533 186 546.5 Q228 560 283 560 Q338 560 379 546.5 Q420 533 448 514.5 Q476 496 493 476.5 Q510 457 517 445 L517 325 L355 325 L355 390 Q348 405 329 416.5 Q310 428 283 428 Q256 428 238 416.5 Q220 405 213 390 L213 154 Q220 140 238 128.5 Q256 117 283 117 Q310 117 329 128.5 Q348 140 355 154 L355 219 L517 219 L517 99 Q511 87 494 68 Q477 49 448.5 30.5 Q420 12 379 -1 Q350 -11 313 -14 L304 -48 L314 -48 Q353 -48 375.5 -63.5 Q398 -79 407 -101 L407 -190 Q390 -220 354.5 -237 Q319 -254 270 -254 Q235 -254 205.5 -249 Q176 -244 163 -237 L184 -163 Z " />
<glyph glyph-name="dcaron" unicode="&#x10f;" horiz-adv-x="739" d="M564 489 L586 700 L729 700 L729 610 L676 473 L564 473 L564 489 Z M37 428 Q44 447 58 469.5 Q72 492 93.5 511.5 Q115 531 145.5 543.5 Q176 556 215 556 Q260 556 292.5 541 Q325 526 348 503 L348 700 L524 700 L524 0 L355 0 L355 49 Q332 23 297.5 6 Q263 -11 215 -11 Q176 -11 145.5 1.5 Q115 14 93.5 33 Q72 52 58 74.5 Q44 97 37 117 L37 428 Z M348 399 Q337 409 320 416 Q303 423 279 423 Q251 423 234.5 412 Q218 401 213 392 L213 153 Q218 143 234.5 132 Q251 121 280 121 Q303 121 320 127.5 Q337 134 348 145 L348 399 Z " />
<glyph glyph-name="dcroat" unicode="&#x111;" horiz-adv-x="565" d="M37 399 Q44 419 58 441.5 Q72 464 93.5 483 Q115 502 145.5 514.5 Q176 527 215 527 Q260 527 292.5 512 Q325 497 348 474 L348 566 L211 566 L211 655 L348 655 L348 700 L524 700 L524 655 L564 655 L564 566 L524 566 L524 0 L355 0 L355 49 Q332 23 297.5 6 Q263 -11 215 -11 Q176 -11 145.5 1.5 Q115 14 93.5 33 Q72 52 58 74.5 Q44 97 37 117 L37 399 Z M348 372 Q337 382 320 389 Q303 396 279 396 Q251 396 234.5 385 Q218 374 213 365 L213 151 Q218 141 234.5 130 Q251 119 280 119 Q303 119 320 125.5 Q337 132 348 143 L348 372 Z " />
<glyph glyph-name="egrave" unicode="&#xe8;" horiz-adv-x="552" d="M37 422 Q46 443 65 467.5 Q84 492 114 512.5 Q144 533 186 546.5 Q228 560 283 560 Q338 560 379 546.5 Q420 533 448.5 514.5 Q477 496 493.5 476.5 Q510 457 517 445 L517 226 L213 226 L213 154 Q220 140 238 128.5 Q256 117 283 117 Q310 117 329 128.5 Q348 140 355 154 L355 186 L517 186 L517 99 Q510 87 493.5 67.5 Q477 48 448.5 30 Q420 12 379 -1.5 Q338 -15 283 -15 Q228 -15 186 -1.5 Q144 12 114 32 Q84 52 65 76.5 Q46 101 37 122 L37 422 Z M355 331 L355 391 Q348 406 329 417 Q310 428 283 428 Q256 428 238 417 Q220 406 213 391 L213 331 L355 331 Z M153 689 L153 763 L319 763 L367 608 L367 593 L233 593 L153 689 Z " />
<glyph glyph-name="eacute" unicode="&#xe9;" horiz-adv-x="552" d="M37 422 Q46 443 65 467.5 Q84 492 114 512.5 Q144 533 186 546.5 Q228 560 283 560 Q338 560 379 546.5 Q420 533 448.5 514.5 Q477 496 493.5 476.5 Q510 457 517 445 L517 226 L213 226 L213 154 Q220 140 238 128.5 Q256 117 283 117 Q310 117 329 128.5 Q348 140 355 154 L355 186 L517 186 L517 99 Q510 87 493.5 67.5 Q477 48 448.5 30 Q420 12 379 -1.5 Q338 -15 283 -15 Q228 -15 186 -1.5 Q144 12 114 32 Q84 52 65 76.5 Q46 101 37 122 L37 422 Z M355 331 L355 391 Q348 406 329 417 Q310 428 283 428 Q256 428 238 417 Q220 406 213 391 L213 331 L355 331 Z M215 608 L261 763 L429 763 L429 689 L348 593 L215 593 L215 608 Z " />
<glyph glyph-name="ecircumflex" unicode="&#xea;" horiz-adv-x="552" d="M37 422 Q46 443 65 467.5 Q84 492 114 512.5 Q144 533 186 546.5 Q228 560 283 560 Q338 560 379 546.5 Q420 533 448.5 514.5 Q477 496 493.5 476.5 Q510 457 517 445 L517 226 L213 226 L213 154 Q220 140 238 128.5 Q256 117 283 117 Q310 117 329 128.5 Q348 140 355 154 L355 186 L517 186 L517 99 Q510 87 493.5 67.5 Q477 48 448.5 30 Q420 12 379 -1.5 Q338 -15 283 -15 Q228 -15 186 -1.5 Q144 12 114 32 Q84 52 65 76.5 Q46 101 37 122 L37 422 Z M355 331 L355 391 Q348 406 329 417 Q310 428 283 428 Q256 428 238 417 Q220 406 213 391 L213 331 L355 331 Z M99 604 L174 759 L399 759 L473 604 L473 589 L347 589 L287 684 L225 589 L99 589 L99 604 Z " />
<glyph glyph-name="ecaron" unicode="&#x11b;" horiz-adv-x="552" d="M37 422 Q46 443 65 467.5 Q84 492 114 512.5 Q144 533 186 546.5 Q228 560 283 560 Q338 560 379 546.5 Q420 533 448.5 514.5 Q477 496 493.5 476.5 Q510 457 517 445 L517 226 L213 226 L213 154 Q220 140 238 128.5 Q256 117 283 117 Q310 117 329 128.5 Q348 140 355 154 L355 186 L517 186 L517 99 Q510 87 493.5 67.5 Q477 48 448.5 30 Q420 12 379 -1.5 Q338 -15 283 -15 Q228 -15 186 -1.5 Q144 12 114 32 Q84 52 65 76.5 Q46 101 37 122 L37 422 Z M355 331 L355 391 Q348 406 329 417 Q310 428 283 428 Q256 428 238 417 Q220 406 213 391 L213 331 L355 331 Z M99 744 L99 759 L225 759 L287 663 L347 759 L473 759 L473 744 L399 589 L174 589 L99 744 Z " />
<glyph glyph-name="edieresis" unicode="&#xeb;" horiz-adv-x="552" d="M37 422 Q46 443 65 467.5 Q84 492 114 512.5 Q144 533 186 546.5 Q228 560 283 560 Q338 560 379 546.5 Q420 533 448.5 514.5 Q477 496 493.5 476.5 Q510 457 517 445 L517 226 L213 226 L213 154 Q220 140 238 128.5 Q256 117 283 117 Q310 117 329 128.5 Q348 140 355 154 L355 186 L517 186 L517 99 Q510 87 493.5 67.5 Q477 48 448.5 30 Q420 12 379 -1.5 Q338 -15 283 -15 Q228 -15 186 -1.5 Q144 12 114 32 Q84 52 65 76.5 Q46 101 37 122 L37 422 Z M355 331 L355 391 Q348 406 329 417 Q310 428 283 428 Q256 428 238 417 Q220 406 213 391 L213 331 L355 331 Z M91 717 Q94 721 100 727 Q106 733 116 738 Q126 743 140 747 Q154 751 173 751 Q212 751 231 738 Q250 725 256 717 L256 625 Q250 617 231 604 Q212 591 173 591 Q135 591 116.5 604 Q98 617 91 625 L91 717 Z M316 717 Q323 725 342 738 Q361 751 399 751 Q418 751 432.5 747 Q447 743 456.5 738 Q466 733 472.5 727 Q479 721 482 717 L482 625 Q479 621 472.5 615 Q466 609 456.5 604 Q447 599 432.5 595 Q418 591 399 591 Q361 591 342.5 604 Q324 617 316 625 L316 717 Z " />
<glyph glyph-name="emacron" unicode="&#x113;" horiz-adv-x="552" d="M37 422 Q46 443 65 467.5 Q84 492 114 512.5 Q144 533 186 546.5 Q228 560 283 560 Q338 560 379 546.5 Q420 533 448.5 514.5 Q477 496 493.5 476.5 Q510 457 517 445 L517 226 L213 226 L213 154 Q220 140 238 128.5 Q256 117 283 117 Q310 117 329 128.5 Q348 140 355 154 L355 186 L517 186 L517 99 Q510 87 493.5 67.5 Q477 48 448.5 30 Q420 12 379 -1.5 Q338 -15 283 -15 Q228 -15 186 -1.5 Q144 12 114 32 Q84 52 65 76.5 Q46 101 37 122 L37 422 Z M355 331 L355 391 Q348 406 329 417 Q310 428 283 428 Q256 428 238 417 Q220 406 213 391 L213 331 L355 331 Z M97 732 L477 732 L477 614 L97 614 L97 732 Z " />
<glyph glyph-name="ebreve" unicode="&#x115;" horiz-adv-x="552" d="M37 422 Q46 443 65 467.5 Q84 492 114 512.5 Q144 533 186 546.5 Q228 560 283 560 Q338 560 379 546.5 Q420 533 448.5 514.5 Q477 496 493.5 476.5 Q510 457 517 445 L517 226 L213 226 L213 154 Q220 140 238 128.5 Q256 117 283 117 Q310 117 329 128.5 Q348 140 355 154 L355 186 L517 186 L517 99 Q510 87 493.5 67.5 Q477 48 448.5 30 Q420 12 379 -1.5 Q338 -15 283 -15 Q228 -15 186 -1.5 Q144 12 114 32 Q84 52 65 76.5 Q46 101 37 122 L37 422 Z M355 331 L355 391 Q348 406 329 417 Q310 428 283 428 Q256 428 238 417 Q220 406 213 391 L213 331 L355 331 Z M97 739 L224 739 L224 711 Q228 702 242.5 691.5 Q257 681 284 681 Q311 681 324.5 691.5 Q338 702 342 711 L342 739 L469 739 L469 688 Q458 667 443 648.5 Q428 630 405.5 616.5 Q383 603 353 595 Q323 587 284 587 Q245 587 214.5 595 Q184 603 161.5 616.5 Q139 630 123 648.5 Q107 667 97 688 L97 739 Z " />
<glyph glyph-name="edotaccent" unicode="&#x117;" horiz-adv-x="552" d="M37 422 Q46 443 65 467.5 Q84 492 114 512.5 Q144 533 186 546.5 Q228 560 283 560 Q338 560 379 546.5 Q420 533 448.5 514.5 Q477 496 493.5 476.5 Q510 457 517 445 L517 226 L213 226 L213 154 Q220 140 238 128.5 Q256 117 283 117 Q310 117 329 128.5 Q348 140 355 154 L355 186 L517 186 L517 99 Q510 87 493.5 67.5 Q477 48 448.5 30 Q420 12 379 -1.5 Q338 -15 283 -15 Q228 -15 186 -1.5 Q144 12 114 32 Q84 52 65 76.5 Q46 101 37 122 L37 422 Z M355 331 L355 391 Q348 406 329 417 Q310 428 283 428 Q256 428 238 417 Q220 406 213 391 L213 331 L355 331 Z M194 710 Q202 727 224 742.5 Q246 758 285 758 Q325 758 347 742.5 Q369 727 377 710 L377 646 Q369 629 347 613.5 Q325 598 285 598 Q246 598 224 613.5 Q202 629 194 646 L194 710 Z " />
<glyph glyph-name="eogonek" unicode="&#x119;" horiz-adv-x="552" d="M302 -95 Q305 -84 315.5 -61.5 Q326 -39 343 -10 Q329 -12 314 -13.5 Q299 -15 283 -15 Q228 -15 186 -1.5 Q144 12 114 32 Q84 52 65 76.5 Q46 101 37 122 L37 422 Q46 443 65 467.5 Q84 492 114 512.5 Q144 533 186 546.5 Q228 560 283 560 Q338 560 379 546.5 Q420 533 448.5 514.5 Q477 496 493.5 476.5 Q510 457 517 445 L517 223 L213 223 L213 154 Q220 140 238 128.5 Q256 117 283 117 Q310 117 329 128.5 Q348 140 355 154 L355 183 L517 183 L517 98 Q492 54 475.5 20.5 Q459 -13 449 -37 Q439 -61 434 -76 Q429 -91 427 -98 L427 -121 Q431 -129 442.5 -132.5 Q454 -136 468 -136 Q490 -136 517 -129 L517 -217 Q504 -223 487.5 -227 Q471 -231 437 -231 Q392 -231 354.5 -218.5 Q317 -206 302 -176 L302 -95 Z M355 328 L355 391 Q348 406 329 417 Q310 428 283 428 Q256 428 238 417 Q220 406 213 391 L213 328 L355 328 Z " />
<glyph glyph-name="gcircumflex" unicode="&#x11d;" horiz-adv-x="566" d="M43 32 L213 32 L213 -8 Q218 -17 234.5 -27.5 Q251 -38 278 -38 Q306 -38 323.5 -27.5 Q341 -17 348 -2 L348 120 Q325 97 292.5 82 Q260 67 215 67 Q176 67 145.5 79.5 Q115 92 93.5 111 Q72 130 58 152.5 Q44 175 37 195 L37 428 Q44 447 58 469.5 Q72 492 93.5 511.5 Q115 531 145.5 543.5 Q176 556 215 556 Q263 556 297.5 538.5 Q332 521 355 495 L355 544 L524 544 L524 -34 Q514 -56 495 -80 Q476 -104 446.5 -123.5 Q417 -143 375 -155.5 Q333 -168 278 -168 Q222 -168 181.5 -155 Q141 -142 113 -124 Q85 -106 68 -86 Q51 -66 43 -51 L43 32 Z M348 399 Q337 409 320 416 Q303 423 279 423 Q251 423 234.5 412 Q218 401 213 392 L213 229 Q218 219 234.5 208 Q251 197 280 197 Q303 197 320 203.5 Q337 210 348 221 L348 399 Z M114 604 L189 759 L414 759 L488 604 L488 589 L362 589 L302 684 L240 589 L114 589 L114 604 Z " />
<glyph glyph-name="gbreve" unicode="&#x11f;" horiz-adv-x="566" d="M43 32 L213 32 L213 -8 Q218 -17 234.5 -27.5 Q251 -38 278 -38 Q306 -38 323.5 -27.5 Q341 -17 348 -2 L348 120 Q325 97 292.5 82 Q260 67 215 67 Q176 67 145.5 79.5 Q115 92 93.5 111 Q72 130 58 152.5 Q44 175 37 195 L37 428 Q44 447 58 469.5 Q72 492 93.5 511.5 Q115 531 145.5 543.5 Q176 556 215 556 Q263 556 297.5 538.5 Q332 521 355 495 L355 544 L524 544 L524 -34 Q514 -56 495 -80 Q476 -104 446.5 -123.5 Q417 -143 375 -155.5 Q333 -168 278 -168 Q222 -168 181.5 -155 Q141 -142 113 -124 Q85 -106 68 -86 Q51 -66 43 -51 L43 32 Z M348 399 Q337 409 320 416 Q303 423 279 423 Q251 423 234.5 412 Q218 401 213 392 L213 229 Q218 219 234.5 208 Q251 197 280 197 Q303 197 320 203.5 Q337 210 348 221 L348 399 Z M111 739 L238 739 L238 711 Q242 702 256.5 691.5 Q271 681 298 681 Q325 681 338.5 691.5 Q352 702 356 711 L356 739 L483 739 L483 688 Q472 667 457 648.5 Q442 630 419.5 616.5 Q397 603 367 595 Q337 587 298 587 Q259 587 228.5 595 Q198 603 175.5 616.5 Q153 630 137 648.5 Q121 667 111 688 L111 739 Z " />
<glyph glyph-name="gdotaccent" unicode="&#x121;" horiz-adv-x="566" d="M43 32 L213 32 L213 -8 Q218 -17 234.5 -27.5 Q251 -38 278 -38 Q306 -38 323.5 -27.5 Q341 -17 348 -2 L348 120 Q325 97 292.5 82 Q260 67 215 67 Q176 67 145.5 79.5 Q115 92 93.5 111 Q72 130 58 152.5 Q44 175 37 195 L37 428 Q44 447 58 469.5 Q72 492 93.5 511.5 Q115 531 145.5 543.5 Q176 556 215 556 Q263 556 297.5 538.5 Q332 521 355 495 L355 544 L524 544 L524 -34 Q514 -56 495 -80 Q476 -104 446.5 -123.5 Q417 -143 375 -155.5 Q333 -168 278 -168 Q222 -168 181.5 -155 Q141 -142 113 -124 Q85 -106 68 -86 Q51 -66 43 -51 L43 32 Z M348 399 Q337 409 320 416 Q303 423 279 423 Q251 423 234.5 412 Q218 401 213 392 L213 229 Q218 219 234.5 208 Q251 197 280 197 Q303 197 320 203.5 Q337 210 348 221 L348 399 Z M199 710 Q207 727 229 742.5 Q251 758 290 758 Q330 758 352 742.5 Q374 727 382 710 L382 646 Q374 629 352 613.5 Q330 598 290 598 Q251 598 229 613.5 Q207 629 199 646 L199 710 Z " />
<glyph glyph-name="gcommaaccent" unicode="&#x123;" horiz-adv-x="566" d="M43 32 L213 32 L213 -8 Q218 -17 234.5 -27.5 Q251 -38 278 -38 Q306 -38 323.5 -27.5 Q341 -17 348 -2 L348 120 Q325 97 292.5 82 Q260 67 215 67 Q176 67 145.5 79.5 Q115 92 93.5 111 Q72 130 58 152.5 Q44 175 37 195 L37 428 Q44 447 58 469.5 Q72 492 93.5 511.5 Q115 531 145.5 543.5 Q176 556 215 556 Q263 556 297.5 538.5 Q332 521 355 495 L355 544 L524 544 L524 -34 Q514 -56 495 -80 Q476 -104 446.5 -123.5 Q417 -143 375 -155.5 Q333 -168 278 -168 Q222 -168 181.5 -155 Q141 -142 113 -124 Q85 -106 68 -86 Q51 -66 43 -51 L43 32 Z M348 399 Q337 409 320 416 Q303 423 279 423 Q251 423 234.5 412 Q218 401 213 392 L213 229 Q218 219 234.5 208 Q251 197 280 197 Q303 197 320 203.5 Q337 210 348 221 L348 399 Z M206 766 Q209 776 218.5 787.5 Q228 799 243.5 808.5 Q259 818 280.5 824.5 Q302 831 329 831 L372 831 L372 766 L347 766 Q301 766 293 751 L293 732 L297 732 Q336 732 358 716.5 Q380 701 388 684 L388 631 Q380 615 358 599 Q336 583 297 583 Q257 583 235 599 Q213 615 206 631 L206 766 Z " />
<glyph glyph-name="hcircumflex" unicode="&#x125;" horiz-adv-x="570" d="M42 700 L218 700 L218 503 Q241 526 273.5 541 Q306 556 351 556 Q390 556 420.5 543.5 Q451 531 472.5 511.5 Q494 492 508 469.5 Q522 447 529 428 L529 0 L353 0 L353 392 Q348 401 331.5 412 Q315 423 286 423 Q262 423 245 416.5 Q228 410 218 400 L218 0 L42 0 L42 700 Z M105 753 L180 901 L405 901 L479 753 L479 737 L353 737 L293 827 L231 737 L105 737 L105 753 Z " />
<glyph glyph-name="hbar" unicode="&#x127;" horiz-adv-x="580" d="M52 566 L15 566 L15 655 L52 655 L52 700 L228 700 L228 655 L368 655 L368 566 L228 566 L228 474 Q251 497 283.5 512 Q316 527 361 527 Q400 527 430.5 514.5 Q461 502 482.5 483 Q504 464 518 441.5 Q532 419 539 399 L539 0 L363 0 L363 363 Q358 373 341.5 383.5 Q325 394 296 394 Q272 394 255 387.5 Q238 381 228 371 L228 0 L52 0 L52 566 Z " />
<glyph glyph-name="igrave" unicode="&#xec;" horiz-adv-x="262" d="M43 544 L219 544 L219 0 L43 0 L43 544 Z M4 689 L4 763 L170 763 L218 608 L218 593 L84 593 L4 689 Z " />
<glyph glyph-name="iacute" unicode="&#xed;" horiz-adv-x="262" d="M43 544 L219 544 L219 0 L43 0 L43 544 Z M48 608 L94 763 L262 763 L262 689 L181 593 L48 593 L48 608 Z " />
<glyph glyph-name="icircumflex" unicode="&#xee;" horiz-adv-x="262" d="M43 544 L219 544 L219 0 L43 0 L43 544 Z M-55 604 L20 759 L245 759 L319 604 L319 589 L193 589 L133 684 L71 589 L-55 589 L-55 604 Z " />
<glyph glyph-name="itilde" unicode="&#x129;" horiz-adv-x="262" d="M43 544 L219 544 L219 0 L43 0 L43 544 Z M335 678 Q331 662 321.5 646.5 Q312 631 296.5 619 Q281 607 260.5 600 Q240 593 214 593 Q182 593 161.5 600.5 Q141 608 125.5 617 Q110 626 97 633.5 Q84 641 68 641 Q51 641 42.5 634 Q34 627 31 618 L31 598 L-70 598 L-70 664 Q-63 697 -32 723 Q-1 749 51 749 Q82 749 102.5 741.5 Q123 734 139 725 Q155 716 168 708.5 Q181 701 197 701 Q226 701 233 723 L233 744 L335 744 L335 678 Z " />
<glyph glyph-name="idieresis" unicode="&#xef;" horiz-adv-x="262" d="M43 544 L219 544 L219 0 L43 0 L43 544 Z M-63 717 Q-60 721 -54 727 Q-48 733 -38 738 Q-28 743 -14 747 Q0 751 19 751 Q58 751 77 738 Q96 725 102 717 L102 625 Q96 617 77 604 Q58 591 19 591 Q-19 591 -37.5 604 Q-56 617 -63 625 L-63 717 Z M162 717 Q169 725 188 738 Q207 751 245 751 Q264 751 278.5 747 Q293 743 302.5 738 Q312 733 318.5 727 Q325 721 328 717 L328 625 Q325 621 318.5 615 Q312 609 302.5 604 Q293 599 278.5 595 Q264 591 245 591 Q207 591 188.5 604 Q170 617 162 625 L162 717 Z " />
<glyph glyph-name="imacron" unicode="&#x12b;" horiz-adv-x="262" d="M43 544 L219 544 L219 0 L43 0 L43 544 Z M-58 732 L322 732 L322 614 L-58 614 L-58 732 Z " />
<glyph glyph-name="ibreve" unicode="&#x12d;" horiz-adv-x="262" d="M43 544 L219 544 L219 0 L43 0 L43 544 Z M-54 739 L73 739 L73 711 Q77 702 91.5 691.5 Q106 681 133 681 Q160 681 173.5 691.5 Q187 702 191 711 L191 739 L318 739 L318 688 Q307 667 292 648.5 Q277 630 254.5 616.5 Q232 603 202 595 Q172 587 133 587 Q94 587 63.5 595 Q33 603 10.5 616.5 Q-12 630 -28 648.5 Q-44 667 -54 688 L-54 739 Z " />
<glyph glyph-name="iogonek" unicode="&#x12f;" horiz-adv-x="262" d="M4 -107 Q8 -97 20 -80 Q32 -63 49 -44 Q66 -25 87 -6 Q91 -3 95 0 L43 0 L43 544 L219 544 L219 0 Q172 -44 153 -71.5 Q134 -99 129 -110 L129 -132 Q133 -140 144.5 -144 Q156 -148 170 -148 Q192 -148 219 -141 L219 -228 Q206 -234 189.5 -238 Q173 -242 139 -242 Q94 -242 56.5 -230 Q19 -218 4 -187 L4 -107 Z M40 706 Q48 723 70 738.5 Q92 754 131 754 Q171 754 193 738.5 Q215 723 223 706 L223 642 Q215 625 193 609.5 Q171 594 131 594 Q92 594 70 609.5 Q48 625 40 642 L40 706 Z " />
<glyph glyph-name="dotlessi" unicode="&#x131;" horiz-adv-x="262" d="M43 544 L219 544 L219 0 L43 0 L43 544 Z " />
<glyph glyph-name="ij" unicode="&#x133;" horiz-adv-x="523" d="M40 706 Q48 723 70 738.5 Q92 754 131 754 Q171 754 193 738.5 Q215 723 223 706 L223 642 Q215 625 193 609.5 Q171 594 131 594 Q92 594 70 609.5 Q48 625 40 642 L40 706 Z M43 544 L219 544 L219 0 L43 0 L43 544 Z M234 -38 Q261 -38 279 -24.5 Q297 -11 304 8 L304 544 L480 544 L480 -30 Q471 -51 452 -75.5 Q433 -100 403 -121 Q373 -142 331 -155.5 Q289 -169 234 -169 L234 -38 Z M300 706 Q308 723 330 738.5 Q352 754 391 754 Q432 754 454 738.5 Q476 723 483 706 L483 642 Q476 625 454 609.5 Q432 594 391 594 Q352 594 330 609.5 Q308 625 300 642 L300 706 Z " />
<glyph glyph-name="dotlessj" unicode="&#x237;" horiz-adv-x="261" d="M-28 -38 Q-1 -38 17 -24.5 Q35 -11 42 8 L42 544 L218 544 L218 -30 Q209 -51 190 -75.5 Q171 -100 141 -121 Q111 -142 69 -155.5 Q27 -169 -28 -169 L-28 -38 Z " />
<glyph glyph-name="jcircumflex" unicode="&#x135;" horiz-adv-x="261" d="M-28 -38 Q-1 -38 17 -24.5 Q35 -11 42 8 L42 544 L218 544 L218 -30 Q209 -51 190 -75.5 Q171 -100 141 -121 Q111 -142 69 -155.5 Q27 -169 -28 -169 L-28 -38 Z M-57 604 L18 759 L243 759 L317 604 L317 589 L191 589 L131 684 L69 589 L-57 589 L-57 604 Z " />
<glyph glyph-name="kcommaaccent" unicode="&#x137;" horiz-adv-x="531" d="M42 700 L218 700 L218 374 L235 374 L391 544 L509 544 L509 450 L371 306 L515 94 L515 0 L376 0 L253 187 L218 151 L218 0 L42 0 L42 700 Z M197 -194 L236 -194 Q250 -194 262.5 -191.5 Q275 -189 280 -178 L280 -158 L277 -158 Q237 -158 215.5 -151 Q194 -144 187 -136 L187 -66 Q194 -58 215.5 -49 Q237 -40 277 -40 Q316 -40 337 -49 Q358 -58 365 -66 L365 -181 Q362 -191 354 -202.5 Q346 -214 332 -223.5 Q318 -233 298 -239.5 Q278 -246 252 -246 L197 -246 L197 -194 Z " />
<glyph glyph-name="kgreenlandic" unicode="&#x138;" horiz-adv-x="535" d="M42 544 L218 544 L218 374 L235 374 L391 544 L509 544 L509 450 L371 306 L515 94 L515 0 L376 0 L253 187 L218 151 L218 0 L42 0 L42 544 Z " />
<glyph glyph-name="lacute" unicode="&#x13a;" horiz-adv-x="259" d="M42 700 L218 700 L218 0 L42 0 L42 700 Z M49 753 L98 901 L257 901 L257 828 L176 737 L49 737 L49 753 Z " />
<glyph glyph-name="lcaron" unicode="&#x13e;" horiz-adv-x="432" d="M257 489 L279 700 L422 700 L422 610 L369 473 L257 473 L257 489 Z M42 700 L218 700 L218 0 L42 0 L42 700 Z " />
<glyph glyph-name="lcommaaccent" unicode="&#x13c;" horiz-adv-x="259" d="M42 700 L218 700 L218 0 L42 0 L42 700 Z M51 -194 L90 -194 Q104 -194 116.5 -191.5 Q129 -189 134 -178 L134 -158 L131 -158 Q91 -158 69.5 -151 Q48 -144 41 -136 L41 -66 Q48 -58 69.5 -49 Q91 -40 131 -40 Q170 -40 191 -49 Q212 -58 219 -66 L219 -181 Q216 -191 208 -202.5 Q200 -214 186 -223.5 Q172 -233 152 -239.5 Q132 -246 106 -246 L51 -246 L51 -194 Z " />
<glyph glyph-name="lslash" unicode="&#x142;" horiz-adv-x="352" d="M88 245 L28 210 L28 350 L88 385 L88 700 L264 700 L264 487 L324 522 L324 382 L264 347 L264 0 L88 0 L88 245 Z " />
<glyph glyph-name="ldot" unicode="&#x140;" horiz-adv-x="464" d="M44 700 L220 700 L220 0 L44 0 L44 700 Z M268 393 Q276 410 298 425.5 Q320 441 359 441 Q399 441 421 425.5 Q443 410 451 393 L451 329 Q443 312 421 296.5 Q399 281 359 281 Q320 281 298 296.5 Q276 312 268 329 L268 393 Z " />
<glyph glyph-name="nacute" unicode="&#x144;" horiz-adv-x="570" d="M42 544 L205 544 L205 488 Q228 517 263.5 536.5 Q299 556 351 556 Q390 556 420.5 543.5 Q451 531 472.5 511.5 Q494 492 508 469.5 Q522 447 529 428 L529 0 L353 0 L353 392 Q348 401 331.5 412 Q315 423 286 423 Q262 423 245 416.5 Q228 410 218 400 L218 0 L42 0 L42 544 Z M209 612 L255 767 L423 767 L423 693 L342 597 L209 597 L209 612 Z " />
<glyph glyph-name="ncaron" unicode="&#x148;" horiz-adv-x="570" d="M42 544 L205 544 L205 488 Q228 517 263.5 536.5 Q299 556 351 556 Q390 556 420.5 543.5 Q451 531 472.5 511.5 Q494 492 508 469.5 Q522 447 529 428 L529 0 L353 0 L353 392 Q348 401 331.5 412 Q315 423 286 423 Q262 423 245 416.5 Q228 410 218 400 L218 0 L42 0 L42 544 Z M101 748 L101 763 L227 763 L289 667 L349 763 L475 763 L475 748 L401 593 L176 593 L101 748 Z " />
<glyph glyph-name="ntilde" unicode="&#xf1;" horiz-adv-x="570" d="M42 544 L205 544 L205 488 Q228 517 263.5 536.5 Q299 556 351 556 Q390 556 420.5 543.5 Q451 531 472.5 511.5 Q494 492 508 469.5 Q522 447 529 428 L529 0 L353 0 L353 392 Q348 401 331.5 412 Q315 423 286 423 Q262 423 245 416.5 Q228 410 218 400 L218 0 L42 0 L42 544 Z M488 682 Q484 666 474.5 650.5 Q465 635 449.5 623 Q434 611 413.5 604 Q393 597 367 597 Q335 597 314.5 604.5 Q294 612 278.5 621 Q263 630 250 637.5 Q237 645 221 645 Q204 645 195.5 638 Q187 631 184 622 L184 602 L83 602 L83 668 Q90 701 121 727 Q152 753 204 753 Q235 753 255.5 745.5 Q276 738 292 729 Q308 720 321 712.5 Q334 705 350 705 Q379 705 386 727 L386 748 L488 748 L488 682 Z " />
<glyph glyph-name="ncommaaccent" unicode="&#x146;" horiz-adv-x="570" d="M42 544 L205 544 L205 488 Q228 517 263.5 536.5 Q299 556 351 556 Q390 556 420.5 543.5 Q451 531 472.5 511.5 Q494 492 508 469.5 Q522 447 529 428 L529 0 L353 0 L353 392 Q348 401 331.5 412 Q315 423 286 423 Q262 423 245 416.5 Q228 410 218 400 L218 0 L42 0 L42 544 Z M205 -192 L244 -192 Q258 -192 270.5 -189.5 Q283 -187 288 -176 L288 -156 L285 -156 Q245 -156 223.5 -149 Q202 -142 195 -134 L195 -64 Q202 -56 223.5 -47 Q245 -38 285 -38 Q324 -38 345 -47 Q366 -56 373 -64 L373 -179 Q370 -189 362 -200.5 Q354 -212 340 -221.5 Q326 -231 306 -237.5 Q286 -244 260 -244 L205 -244 L205 -192 Z " />
<glyph glyph-name="napostrophe" unicode="&#x149;" horiz-adv-x="570" d="M42 544 L205 544 L205 488 Q228 517 263.5 536.5 Q299 556 351 556 Q390 556 420.5 543.5 Q451 531 472.5 511.5 Q494 492 508 469.5 Q522 447 529 428 L529 0 L353 0 L353 392 Q348 401 331.5 412 Q315 423 286 423 Q262 423 245 416.5 Q228 410 218 400 L218 0 L42 0 L42 544 Z M25 625 L64 625 Q78 625 90.5 627.5 Q103 630 108 641 L108 661 L105 661 Q65 661 43.5 668 Q22 675 15 683 L15 753 Q22 761 43.5 770 Q65 779 105 779 Q144 779 165 770 Q186 761 193 753 L193 638 Q190 628 182 616.5 Q174 605 160 595.5 Q146 586 126 579.5 Q106 573 80 573 L25 573 L25 625 Z " />
<glyph glyph-name="ograve" unicode="&#xf2;" horiz-adv-x="568" d="M37 422 Q46 443 65.5 467.5 Q85 492 115 512.5 Q145 533 187 546.5 Q229 560 284 560 Q339 560 380.5 546.5 Q422 533 452 512.5 Q482 492 501.5 467.5 Q521 443 531 422 L531 122 Q521 101 501.5 76.5 Q482 52 452 32 Q422 12 380.5 -1.5 Q339 -15 284 -15 Q229 -15 187 -1.5 Q145 12 115 32 Q85 52 65.5 76.5 Q46 101 37 122 L37 422 Z M355 390 Q348 405 329.5 416.5 Q311 428 284 428 Q257 428 238.5 416.5 Q220 405 213 390 L213 154 Q220 140 238.5 128.5 Q257 117 284 117 Q311 117 329.5 128.5 Q348 140 355 154 L355 390 Z M144 693 L144 767 L310 767 L358 612 L358 597 L224 597 L144 693 Z " />
<glyph glyph-name="oacute" unicode="&#xf3;" horiz-adv-x="568" d="M37 422 Q46 443 65.5 467.5 Q85 492 115 512.5 Q145 533 187 546.5 Q229 560 284 560 Q339 560 380.5 546.5 Q422 533 452 512.5 Q482 492 501.5 467.5 Q521 443 531 422 L531 122 Q521 101 501.5 76.5 Q482 52 452 32 Q422 12 380.5 -1.5 Q339 -15 284 -15 Q229 -15 187 -1.5 Q145 12 115 32 Q85 52 65.5 76.5 Q46 101 37 122 L37 422 Z M355 390 Q348 405 329.5 416.5 Q311 428 284 428 Q257 428 238.5 416.5 Q220 405 213 390 L213 154 Q220 140 238.5 128.5 Q257 117 284 117 Q311 117 329.5 128.5 Q348 140 355 154 L355 390 Z M216 612 L262 767 L430 767 L430 693 L349 597 L216 597 L216 612 Z " />
<glyph glyph-name="ocircumflex" unicode="&#xf4;" horiz-adv-x="568" d="M37 422 Q46 443 65.5 467.5 Q85 492 115 512.5 Q145 533 187 546.5 Q229 560 284 560 Q339 560 380.5 546.5 Q422 533 452 512.5 Q482 492 501.5 467.5 Q521 443 531 422 L531 122 Q521 101 501.5 76.5 Q482 52 452 32 Q422 12 380.5 -1.5 Q339 -15 284 -15 Q229 -15 187 -1.5 Q145 12 115 32 Q85 52 65.5 76.5 Q46 101 37 122 L37 422 Z M355 390 Q348 405 329.5 416.5 Q311 428 284 428 Q257 428 238.5 416.5 Q220 405 213 390 L213 154 Q220 140 238.5 128.5 Q257 117 284 117 Q311 117 329.5 128.5 Q348 140 355 154 L355 390 Z M98 604 L173 759 L398 759 L472 604 L472 589 L346 589 L286 684 L224 589 L98 589 L98 604 Z " />
<glyph glyph-name="otilde" unicode="&#xf5;" horiz-adv-x="568" d="M37 422 Q46 443 65.5 467.5 Q85 492 115 512.5 Q145 533 187 546.5 Q229 560 284 560 Q339 560 380.5 546.5 Q422 533 452 512.5 Q482 492 501.5 467.5 Q521 443 531 422 L531 122 Q521 101 501.5 76.5 Q482 52 452 32 Q422 12 380.5 -1.5 Q339 -15 284 -15 Q229 -15 187 -1.5 Q145 12 115 32 Q85 52 65.5 76.5 Q46 101 37 122 L37 422 Z M355 390 Q348 405 329.5 416.5 Q311 428 284 428 Q257 428 238.5 416.5 Q220 405 213 390 L213 154 Q220 140 238.5 128.5 Q257 117 284 117 Q311 117 329.5 128.5 Q348 140 355 154 L355 390 Z M487 682 Q483 666 473.5 650.5 Q464 635 448.5 623 Q433 611 412.5 604 Q392 597 366 597 Q334 597 313.5 604.5 Q293 612 277.5 621 Q262 630 249 637.5 Q236 645 220 645 Q203 645 194.5 638 Q186 631 183 622 L183 602 L82 602 L82 668 Q89 701 120 727 Q151 753 203 753 Q234 753 254.5 745.5 Q275 738 291 729 Q307 720 320 712.5 Q333 705 349 705 Q378 705 385 727 L385 748 L487 748 L487 682 Z " />
<glyph glyph-name="odieresis" unicode="&#xf6;" horiz-adv-x="568" d="M37 422 Q46 443 65.5 467.5 Q85 492 115 512.5 Q145 533 187 546.5 Q229 560 284 560 Q339 560 380.5 546.5 Q422 533 452 512.5 Q482 492 501.5 467.5 Q521 443 531 422 L531 122 Q521 101 501.5 76.5 Q482 52 452 32 Q422 12 380.5 -1.5 Q339 -15 284 -15 Q229 -15 187 -1.5 Q145 12 115 32 Q85 52 65.5 76.5 Q46 101 37 122 L37 422 Z M355 390 Q348 405 329.5 416.5 Q311 428 284 428 Q257 428 238.5 416.5 Q220 405 213 390 L213 154 Q220 140 238.5 128.5 Q257 117 284 117 Q311 117 329.5 128.5 Q348 140 355 154 L355 390 Z M90 717 Q93 721 99 727 Q105 733 115 738 Q125 743 139 747 Q153 751 172 751 Q211 751 230 738 Q249 725 255 717 L255 625 Q249 617 230 604 Q211 591 172 591 Q134 591 115.5 604 Q97 617 90 625 L90 717 Z M315 717 Q322 725 341 738 Q360 751 398 751 Q417 751 431.5 747 Q446 743 455.5 738 Q465 733 471.5 727 Q478 721 481 717 L481 625 Q478 621 471.5 615 Q465 609 455.5 604 Q446 599 431.5 595 Q417 591 398 591 Q360 591 341.5 604 Q323 617 315 625 L315 717 Z " />
<glyph glyph-name="omacron" unicode="&#x14d;" horiz-adv-x="568" d="M37 422 Q46 443 65.5 467.5 Q85 492 115 512.5 Q145 533 187 546.5 Q229 560 284 560 Q339 560 380.5 546.5 Q422 533 452 512.5 Q482 492 501.5 467.5 Q521 443 531 422 L531 122 Q521 101 501.5 76.5 Q482 52 452 32 Q422 12 380.5 -1.5 Q339 -15 284 -15 Q229 -15 187 -1.5 Q145 12 115 32 Q85 52 65.5 76.5 Q46 101 37 122 L37 422 Z M355 390 Q348 405 329.5 416.5 Q311 428 284 428 Q257 428 238.5 416.5 Q220 405 213 390 L213 154 Q220 140 238.5 128.5 Q257 117 284 117 Q311 117 329.5 128.5 Q348 140 355 154 L355 390 Z M95 732 L475 732 L475 614 L95 614 L95 732 Z " />
<glyph glyph-name="obreve" unicode="&#x14f;" horiz-adv-x="568" d="M37 422 Q46 443 65.5 467.5 Q85 492 115 512.5 Q145 533 187 546.5 Q229 560 284 560 Q339 560 380.5 546.5 Q422 533 452 512.5 Q482 492 501.5 467.5 Q521 443 531 422 L531 122 Q521 101 501.5 76.5 Q482 52 452 32 Q422 12 380.5 -1.5 Q339 -15 284 -15 Q229 -15 187 -1.5 Q145 12 115 32 Q85 52 65.5 76.5 Q46 101 37 122 L37 422 Z M355 390 Q348 405 329.5 416.5 Q311 428 284 428 Q257 428 238.5 416.5 Q220 405 213 390 L213 154 Q220 140 238.5 128.5 Q257 117 284 117 Q311 117 329.5 128.5 Q348 140 355 154 L355 390 Z M99 742 L226 742 L226 714 Q230 705 244.5 694.5 Q259 684 286 684 Q313 684 326.5 694.5 Q340 705 344 714 L344 742 L471 742 L471 691 Q460 670 445 651.5 Q430 633 407.5 619.5 Q385 606 355 598 Q325 590 286 590 Q247 590 216.5 598 Q186 606 163.5 619.5 Q141 633 125 651.5 Q109 670 99 691 L99 742 Z " />
<glyph glyph-name="ohungarumlaut" unicode="&#x151;" horiz-adv-x="568" d="M37 422 Q46 443 65.5 467.5 Q85 492 115 512.5 Q145 533 187 546.5 Q229 560 284 560 Q339 560 380.5 546.5 Q422 533 452 512.5 Q482 492 501.5 467.5 Q521 443 531 422 L531 122 Q521 101 501.5 76.5 Q482 52 452 32 Q422 12 380.5 -1.5 Q339 -15 284 -15 Q229 -15 187 -1.5 Q145 12 115 32 Q85 52 65.5 76.5 Q46 101 37 122 L37 422 Z M355 390 Q348 405 329.5 416.5 Q311 428 284 428 Q257 428 238.5 416.5 Q220 405 213 390 L213 154 Q220 140 238.5 128.5 Q257 117 284 117 Q311 117 329.5 128.5 Q348 140 355 154 L355 390 Z M127 606 L158 761 L297 761 L297 701 L240 591 L127 591 L127 606 Z M331 606 L362 761 L500 761 L500 701 L443 591 L331 591 L331 606 Z " />
<glyph glyph-name="oslash" unicode="&#xf8;" horiz-adv-x="568" d="M37 52 L61 81 Q45 102 37 122 L37 422 Q46 443 65.5 467.5 Q85 492 115 512.5 Q145 533 187 546.5 Q229 560 284 560 Q333 560 371.5 549 Q410 538 439 521 L459 544 L531 544 L531 494 L505 463 Q522 441 531 422 L531 122 Q521 101 501.5 76.5 Q482 52 452 32 Q422 12 380.5 -1.5 Q339 -15 284 -15 Q234 -15 195.5 -4.5 Q157 6 128 23 L108 0 L37 0 L37 52 Z M355 288 L220 131 Q229 120 245.5 112.5 Q262 105 284 105 Q311 105 329.5 116.5 Q348 128 355 142 L355 288 Z M347 414 Q338 425 321.5 432.5 Q305 440 284 440 Q257 440 238.5 428.5 Q220 417 213 402 L213 257 L347 414 Z " />
<glyph glyph-name="oslashacute" unicode="&#x1ff;" horiz-adv-x="568" d="M37 52 L61 81 Q45 102 37 122 L37 422 Q46 443 65.5 467.5 Q85 492 115 512.5 Q145 533 187 546.5 Q229 560 284 560 Q333 560 371.5 549 Q410 538 439 521 L459 544 L531 544 L531 494 L505 463 Q522 441 531 422 L531 122 Q521 101 501.5 76.5 Q482 52 452 32 Q422 12 380.5 -1.5 Q339 -15 284 -15 Q234 -15 195.5 -4.5 Q157 6 128 23 L108 0 L37 0 L37 52 Z M355 288 L220 131 Q229 120 245.5 112.5 Q262 105 284 105 Q311 105 329.5 116.5 Q348 128 355 142 L355 288 Z M347 414 Q338 425 321.5 432.5 Q305 440 284 440 Q257 440 238.5 428.5 Q220 417 213 402 L213 257 L347 414 Z M225 612 L271 767 L439 767 L439 693 L358 597 L225 597 L225 612 Z " />
<glyph glyph-name="oe" unicode="&#x153;" horiz-adv-x="870" d="M37 422 Q46 443 65.5 467.5 Q85 492 115 512.5 Q145 533 187 546.5 Q229 560 284 560 Q335 560 374 548.5 Q413 537 442 519 Q471 537 510.5 548.5 Q550 560 601 560 Q656 560 697 546.5 Q738 533 766.5 514.5 Q795 496 811.5 476.5 Q828 457 835 445 L835 226 L531 226 L531 154 Q538 140 556 128.5 Q574 117 601 117 Q628 117 647 128.5 Q666 140 673 154 L673 186 L835 186 L835 99 Q828 87 811.5 67.5 Q795 48 766.5 30 Q738 12 697 -1.5 Q656 -15 601 -15 Q550 -15 510.5 -3.5 Q471 8 442 25 Q413 7 374 -4 Q335 -15 284 -15 Q229 -15 187 -1.5 Q145 12 115 32 Q85 52 65.5 76.5 Q46 101 37 122 L37 422 Z M355 390 Q348 405 329.5 416.5 Q311 428 284 428 Q257 428 238.5 416.5 Q220 405 213 390 L213 154 Q220 140 238.5 128.5 Q257 117 284 117 Q311 117 329.5 128.5 Q348 140 355 154 L355 390 Z M673 331 L673 391 Q666 406 647 417 Q628 428 601 428 Q574 428 556 417 Q538 406 531 391 L531 331 L673 331 Z " />
<glyph glyph-name="racute" unicode="&#x155;" horiz-adv-x="391" d="M42 544 L205 544 L205 469 Q225 501 258.5 522.5 Q292 544 350 544 L357 544 Q362 544 370 543 L370 387 Q362 388 355 388 L344 388 Q294 388 263 379 Q232 370 218 357 L218 0 L42 0 L42 544 Z M130 608 L176 763 L344 763 L344 689 L263 593 L130 593 L130 608 Z " />
<glyph glyph-name="rcaron" unicode="&#x159;" horiz-adv-x="391" d="M42 544 L205 544 L205 469 Q225 501 258.5 522.5 Q292 544 350 544 L357 544 Q362 544 370 543 L370 387 Q362 388 355 388 L344 388 Q294 388 263 379 Q232 370 218 357 L218 0 L42 0 L42 544 Z M26 746 L26 761 L152 761 L214 665 L274 761 L400 761 L400 746 L326 591 L101 591 L26 746 Z " />
<glyph glyph-name="rcommaaccent" unicode="&#x157;" horiz-adv-x="391" d="M42 544 L205 544 L205 469 Q225 501 258.5 522.5 Q292 544 350 544 L357 544 Q362 544 370 543 L370 387 Q362 388 355 388 L344 388 Q294 388 263 379 Q232 370 218 357 L218 0 L42 0 L42 544 Z M51 -194 L90 -194 Q104 -194 116.5 -191.5 Q129 -189 134 -178 L134 -158 L131 -158 Q91 -158 69.5 -151 Q48 -144 41 -136 L41 -66 Q48 -58 69.5 -49 Q91 -40 131 -40 Q170 -40 191 -49 Q212 -58 219 -66 L219 -181 Q216 -191 208 -202.5 Q200 -214 186 -223.5 Q172 -233 152 -239.5 Q132 -246 106 -246 L51 -246 L51 -194 Z " />
<glyph glyph-name="sacute" unicode="&#x15b;" horiz-adv-x="527" d="M35 177 L197 177 L197 138 Q204 127 221 117.5 Q238 108 263 108 Q288 108 305.5 117.5 Q323 127 330 138 L330 176 Q325 187 309.5 193.5 Q294 200 274 204 L220 214 Q174 223 141.5 234.5 Q109 246 87 259 Q65 272 52.5 284.5 Q40 297 35 306 L35 453 Q42 464 58.5 482 Q75 500 102.5 517.5 Q130 535 170 547.5 Q210 560 264 560 Q318 560 357.5 547 Q397 534 424.5 517 Q452 500 468 481.5 Q484 463 492 453 L492 371 L330 371 L330 407 Q323 418 305.5 427 Q288 436 263 436 Q238 436 221 427 Q204 418 197 407 L197 373 Q202 362 217.5 356 Q233 350 253 346 L307 335 Q352 326 384.5 314 Q417 302 439 289.5 Q461 277 473.5 265 Q486 253 492 244 L492 92 Q484 80 467.5 62 Q451 44 423.5 27 Q396 10 356.5 -2.5 Q317 -15 263 -15 Q209 -15 169.5 -2.5 Q130 10 102.5 27 Q75 44 58.5 62.5 Q42 81 35 92 L35 177 Z M191 612 L237 767 L405 767 L405 693 L324 597 L191 597 L191 612 Z " />
<glyph glyph-name="scircumflex" unicode="&#x15d;" horiz-adv-x="527" d="M35 177 L197 177 L197 138 Q204 127 221 117.5 Q238 108 263 108 Q288 108 305.5 117.5 Q323 127 330 138 L330 176 Q325 187 309.5 193.5 Q294 200 274 204 L220 214 Q174 223 141.5 234.5 Q109 246 87 259 Q65 272 52.5 284.5 Q40 297 35 306 L35 453 Q42 464 58.5 482 Q75 500 102.5 517.5 Q130 535 170 547.5 Q210 560 264 560 Q318 560 357.5 547 Q397 534 424.5 517 Q452 500 468 481.5 Q484 463 492 453 L492 371 L330 371 L330 407 Q323 418 305.5 427 Q288 436 263 436 Q238 436 221 427 Q204 418 197 407 L197 373 Q202 362 217.5 356 Q233 350 253 346 L307 335 Q352 326 384.5 314 Q417 302 439 289.5 Q461 277 473.5 265 Q486 253 492 244 L492 92 Q484 80 467.5 62 Q451 44 423.5 27 Q396 10 356.5 -2.5 Q317 -15 263 -15 Q209 -15 169.5 -2.5 Q130 10 102.5 27 Q75 44 58.5 62.5 Q42 81 35 92 L35 177 Z M80 606 L155 761 L380 761 L454 606 L454 591 L328 591 L268 686 L206 591 L80 591 L80 606 Z " />
<glyph glyph-name="scaron" unicode="&#x161;" horiz-adv-x="527" d="M35 177 L197 177 L197 138 Q204 127 221 117.5 Q238 108 263 108 Q288 108 305.5 117.5 Q323 127 330 138 L330 176 Q325 187 309.5 193.5 Q294 200 274 204 L220 214 Q174 223 141.5 234.5 Q109 246 87 259 Q65 272 52.5 284.5 Q40 297 35 306 L35 453 Q42 464 58.5 482 Q75 500 102.5 517.5 Q130 535 170 547.5 Q210 560 264 560 Q318 560 357.5 547 Q397 534 424.5 517 Q452 500 468 481.5 Q484 463 492 453 L492 371 L330 371 L330 407 Q323 418 305.5 427 Q288 436 263 436 Q238 436 221 427 Q204 418 197 407 L197 373 Q202 362 217.5 356 Q233 350 253 346 L307 335 Q352 326 384.5 314 Q417 302 439 289.5 Q461 277 473.5 265 Q486 253 492 244 L492 92 Q484 80 467.5 62 Q451 44 423.5 27 Q396 10 356.5 -2.5 Q317 -15 263 -15 Q209 -15 169.5 -2.5 Q130 10 102.5 27 Q75 44 58.5 62.5 Q42 81 35 92 L35 177 Z M80 748 L80 763 L206 763 L268 667 L328 763 L454 763 L454 748 L380 593 L155 593 L80 748 Z " />
<glyph glyph-name="scedilla" unicode="&#x15f;" horiz-adv-x="527" d="M168 -163 Q185 -167 204 -169.5 Q223 -172 240 -172 Q259 -172 270 -167.5 Q281 -163 288 -154 L288 -130 Q284 -124 273 -120 Q262 -116 245 -116 L181 -116 L211 -11 Q189 -9 167 -2 Q128 10 100.5 27 Q73 44 56.5 62.5 Q40 81 33 92 L33 177 L195 177 L195 138 Q202 127 219 117.5 Q236 108 261 108 Q286 108 303.5 117.5 Q321 127 328 138 L328 176 Q323 187 307.5 193.5 Q292 200 272 204 L218 214 Q172 223 139.5 234.5 Q107 246 85 259 Q63 272 50.5 284.5 Q38 297 33 306 L33 453 Q40 464 56.5 482 Q73 500 100.5 517.5 Q128 535 168 547.5 Q208 560 262 560 Q316 560 355.5 547 Q395 534 422.5 517 Q450 500 466 481.5 Q482 463 490 453 L490 371 L328 371 L328 407 Q321 418 303.5 427 Q286 436 261 436 Q236 436 219 427 Q202 418 195 407 L195 373 Q200 362 215.5 356 Q231 350 251 346 L305 335 Q350 326 382.5 314 Q415 302 437 289.5 Q459 277 471.5 265 Q484 253 490 244 L490 92 Q482 80 465.5 62 Q449 44 421.5 27 Q394 10 354 -2 Q326 -11 297 -13 L288 -48 L302 -48 Q338 -49 361.5 -65 Q385 -81 391 -101 L391 -190 Q377 -217 341 -235.5 Q305 -254 251 -254 Q216 -254 188 -249 Q160 -244 147 -237 L168 -163 Z " />
<glyph glyph-name="scommaaccent" unicode="&#x219;" horiz-adv-x="527" d="M35 177 L197 177 L197 138 Q204 127 221 117.5 Q238 108 263 108 Q288 108 305.5 117.5 Q323 127 330 138 L330 176 Q325 187 309.5 193.5 Q294 200 274 204 L220 214 Q174 223 141.5 234.5 Q109 246 87 259 Q65 272 52.5 284.5 Q40 297 35 306 L35 453 Q42 464 58.5 482 Q75 500 102.5 517.5 Q130 535 170 547.5 Q210 560 264 560 Q318 560 357.5 547 Q397 534 424.5 517 Q452 500 468 481.5 Q484 463 492 453 L492 371 L330 371 L330 407 Q323 418 305.5 427 Q288 436 263 436 Q238 436 221 427 Q204 418 197 407 L197 373 Q202 362 217.5 356 Q233 350 253 346 L307 335 Q352 326 384.5 314 Q417 302 439 289.5 Q461 277 473.5 265 Q486 253 492 244 L492 92 Q484 80 467.5 62 Q451 44 423.5 27 Q396 10 356.5 -2.5 Q317 -15 263 -15 Q209 -15 169.5 -2.5 Q130 10 102.5 27 Q75 44 58.5 62.5 Q42 81 35 92 L35 177 Z M187 -197 L226 -197 Q240 -197 252.5 -194.5 Q265 -192 270 -181 L270 -161 L267 -161 Q227 -161 205.5 -154 Q184 -147 177 -139 L177 -69 Q184 -61 205.5 -52 Q227 -43 267 -43 Q306 -43 327 -52 Q348 -61 355 -69 L355 -184 Q352 -194 344 -205.5 Q336 -217 322 -226.5 Q308 -236 288 -242.5 Q268 -249 242 -249 L187 -249 L187 -197 Z " />
<glyph glyph-name="germandbls" unicode="&#xdf;" horiz-adv-x="567" d="M42 583 Q52 603 71 626 Q90 649 119.5 669 Q149 689 190 702 Q231 715 284 715 Q338 715 378 702.5 Q418 690 446.5 672.5 Q475 655 492 636 Q509 617 517 605 L517 425 Q507 409 490 393 Q473 377 456 367 Q491 344 508.5 321.5 Q526 299 535 279 L535 122 Q521 93 500.5 70.5 Q480 48 448.5 32.5 Q417 17 374 8.5 Q331 0 273 0 L273 132 Q305 132 325 137.5 Q345 143 359 166 L359 255 Q350 275 330 283.5 Q310 292 286 292 L286 423 Q308 423 327 431.5 Q346 440 355 457 L355 550 Q346 566 327 574.5 Q308 583 284 583 Q259 583 242 573 Q225 563 218 550 L218 0 L42 0 L42 583 Z " />
<glyph glyph-name="tcaron" unicode="&#x165;" horiz-adv-x="442" d="M297 603 L319 814 L462 814 L462 724 L409 587 L297 587 L297 603 Z M71 418 L23 418 L23 544 L71 544 L71 656 L247 656 L247 544 L348 544 L348 418 L247 418 L247 140 Q252 134 266.5 125.5 Q281 117 318 117 Q340 117 348 119 L348 0 Q335 -4 312 -8.5 Q289 -13 251 -13 Q209 -13 177.5 -4.5 Q146 4 124.5 17.5 Q103 31 90 48.5 Q77 66 71 83 L71 418 Z " />
<glyph glyph-name="tcommaaccent" unicode="&#x163;" horiz-adv-x="368" d="M116 -163 Q137 -167 154.5 -169.5 Q172 -172 189 -172 Q206 -172 219 -166.5 Q232 -161 237 -154 L237 -130 Q231 -123 221 -119.5 Q211 -116 194 -116 L130 -116 L163 -1 Q142 6 124 17 Q103 31 90 48.5 Q77 66 71 83 L71 418 L23 418 L23 544 L71 544 L71 656 L247 656 L247 544 L348 544 L348 418 L247 418 L247 140 Q252 134 266.5 125.5 Q281 117 318 117 Q340 117 348 119 L348 0 Q335 -4 312 -8.5 Q289 -13 257 -13 L246 -13 L237 -48 L247 -48 Q289 -48 310.5 -65 Q332 -82 340 -101 L340 -190 Q325 -219 287 -236.5 Q249 -254 200 -254 Q165 -254 139 -249.5 Q113 -245 96 -237 L116 -163 Z " />
<glyph glyph-name="uni021B" unicode="&#x21b;" horiz-adv-x="368" d="M71 418 L23 418 L23 544 L71 544 L71 656 L247 656 L247 544 L348 544 L348 418 L247 418 L247 140 Q252 134 266.5 125.5 Q281 117 318 117 Q340 117 348 119 L348 0 Q335 -4 312 -8.5 Q289 -13 251 -13 Q209 -13 177.5 -4.5 Q146 4 124.5 17.5 Q103 31 90 48.5 Q77 66 71 83 L71 418 Z M132 -194 L171 -194 Q185 -194 197.5 -191.5 Q210 -189 215 -178 L215 -158 L212 -158 Q172 -158 150.5 -151 Q129 -144 122 -136 L122 -66 Q129 -58 150.5 -49 Q172 -40 212 -40 Q251 -40 272 -49 Q293 -58 300 -66 L300 -181 Q297 -191 289 -202.5 Q281 -214 267 -223.5 Q253 -233 233 -239.5 Q213 -246 187 -246 L132 -246 L132 -194 Z " />
<glyph glyph-name="tbar" unicode="&#x167;" horiz-adv-x="368" d="M71 214 L23 214 L23 341 L71 341 L71 418 L23 418 L23 544 L71 544 L71 656 L247 656 L247 544 L348 544 L348 418 L247 418 L247 341 L348 341 L348 214 L247 214 L247 140 Q252 134 266.5 125.5 Q281 117 318 117 Q340 117 348 119 L348 0 Q335 -4 312 -8.5 Q289 -13 251 -13 Q209 -13 177.5 -4.5 Q146 4 124.5 17.5 Q103 31 90 48.5 Q77 66 71 83 L71 214 Z " />
<glyph glyph-name="ugrave" unicode="&#xf9;" horiz-adv-x="565" d="M41 544 L217 544 L217 151 Q222 143 237 132 Q252 121 281 121 Q305 121 321 127.5 Q337 134 347 144 L347 544 L523 544 L523 0 L360 0 L360 55 Q337 27 302 8 Q267 -11 216 -11 Q177 -11 147 1.5 Q117 14 96 32.5 Q75 51 61.5 73 Q48 95 41 115 L41 544 Z M139 689 L139 763 L305 763 L353 608 L353 593 L219 593 L139 689 Z " />
<glyph glyph-name="uacute" unicode="&#xfa;" horiz-adv-x="565" d="M41 544 L217 544 L217 151 Q222 143 237 132 Q252 121 281 121 Q305 121 321 127.5 Q337 134 347 144 L347 544 L523 544 L523 0 L360 0 L360 55 Q337 27 302 8 Q267 -11 216 -11 Q177 -11 147 1.5 Q117 14 96 32.5 Q75 51 61.5 73 Q48 95 41 115 L41 544 Z M211 608 L257 763 L425 763 L425 689 L344 593 L211 593 L211 608 Z " />
<glyph glyph-name="ucircumflex" unicode="&#xfb;" horiz-adv-x="565" d="M41 544 L217 544 L217 151 Q222 143 237 132 Q252 121 281 121 Q305 121 321 127.5 Q337 134 347 144 L347 544 L523 544 L523 0 L360 0 L360 55 Q337 27 302 8 Q267 -11 216 -11 Q177 -11 147 1.5 Q117 14 96 32.5 Q75 51 61.5 73 Q48 95 41 115 L41 544 Z M95 604 L170 759 L395 759 L469 604 L469 589 L343 589 L283 684 L221 589 L95 589 L95 604 Z " />
<glyph glyph-name="utilde" unicode="&#x169;" horiz-adv-x="565" d="M41 544 L217 544 L217 151 Q222 143 237 132 Q252 121 281 121 Q305 121 321 127.5 Q337 134 347 144 L347 544 L523 544 L523 0 L360 0 L360 55 Q337 27 302 8 Q267 -11 216 -11 Q177 -11 147 1.5 Q117 14 96 32.5 Q75 51 61.5 73 Q48 95 41 115 L41 544 Z M486 678 Q482 662 472.5 646.5 Q463 631 447.5 619 Q432 607 411.5 600 Q391 593 365 593 Q333 593 312.5 600.5 Q292 608 276.5 617 Q261 626 248 633.5 Q235 641 219 641 Q202 641 193.5 634 Q185 627 182 618 L182 598 L81 598 L81 664 Q88 697 119 723 Q150 749 202 749 Q233 749 253.5 741.5 Q274 734 290 725 Q306 716 319 708.5 Q332 701 348 701 Q377 701 384 723 L384 744 L486 744 L486 678 Z " />
<glyph glyph-name="udieresis" unicode="&#xfc;" horiz-adv-x="565" d="M41 544 L217 544 L217 151 Q222 143 237 132 Q252 121 281 121 Q305 121 321 127.5 Q337 134 347 144 L347 544 L523 544 L523 0 L360 0 L360 55 Q337 27 302 8 Q267 -11 216 -11 Q177 -11 147 1.5 Q117 14 96 32.5 Q75 51 61.5 73 Q48 95 41 115 L41 544 Z M88 717 Q91 721 97 727 Q103 733 113 738 Q123 743 137 747 Q151 751 170 751 Q209 751 228 738 Q247 725 253 717 L253 625 Q247 617 228 604 Q209 591 170 591 Q132 591 113.5 604 Q95 617 88 625 L88 717 Z M313 717 Q320 725 339 738 Q358 751 396 751 Q415 751 429.5 747 Q444 743 453.5 738 Q463 733 469.5 727 Q476 721 479 717 L479 625 Q476 621 469.5 615 Q463 609 453.5 604 Q444 599 429.5 595 Q415 591 396 591 Q358 591 339.5 604 Q321 617 313 625 L313 717 Z " />
<glyph glyph-name="umacron" unicode="&#x16b;" horiz-adv-x="565" d="M41 544 L217 544 L217 151 Q222 143 237 132 Q252 121 281 121 Q305 121 321 127.5 Q337 134 347 144 L347 544 L523 544 L523 0 L360 0 L360 55 Q337 27 302 8 Q267 -11 216 -11 Q177 -11 147 1.5 Q117 14 96 32.5 Q75 51 61.5 73 Q48 95 41 115 L41 544 Z M92 732 L472 732 L472 614 L92 614 L92 732 Z " />
<glyph glyph-name="ubreve" unicode="&#x16d;" horiz-adv-x="565" d="M41 544 L217 544 L217 151 Q222 143 237 132 Q252 121 281 121 Q305 121 321 127.5 Q337 134 347 144 L347 544 L523 544 L523 0 L360 0 L360 55 Q337 27 302 8 Q267 -11 216 -11 Q177 -11 147 1.5 Q117 14 96 32.5 Q75 51 61.5 73 Q48 95 41 115 L41 544 Z M94 739 L221 739 L221 711 Q225 702 239.5 691.5 Q254 681 281 681 Q308 681 321.5 691.5 Q335 702 339 711 L339 739 L466 739 L466 688 Q455 667 440 648.5 Q425 630 402.5 616.5 Q380 603 350 595 Q320 587 281 587 Q242 587 211.5 595 Q181 603 158.5 616.5 Q136 630 120 648.5 Q104 667 94 688 L94 739 Z " />
<glyph glyph-name="uring" unicode="&#x16f;" horiz-adv-x="565" d="M41 544 L217 544 L217 151 Q222 143 237 132 Q252 121 281 121 Q305 121 321 127.5 Q337 134 347 144 L347 544 L523 544 L523 0 L360 0 L360 55 Q337 27 302 8 Q267 -11 216 -11 Q177 -11 147 1.5 Q117 14 96 32.5 Q75 51 61.5 73 Q48 95 41 115 L41 544 Z M232 668 Q236 660 248.5 653 Q261 646 282 646 Q305 646 316.5 653 Q328 660 333 668 L333 726 Q328 734 316.5 741 Q305 748 282 748 Q261 748 248.5 741 Q236 734 232 726 L232 668 Z M151 745 Q167 776 202 795.5 Q237 815 282 815 Q328 815 363 795.5 Q398 776 414 745 L414 649 Q398 618 363 598.5 Q328 579 282 579 Q237 579 202 598.5 Q167 618 151 649 L151 745 Z " />
<glyph glyph-name="uhungarumlaut" unicode="&#x171;" horiz-adv-x="565" d="M41 544 L217 544 L217 151 Q222 143 237 132 Q252 121 281 121 Q305 121 321 127.5 Q337 134 347 144 L347 544 L523 544 L523 0 L360 0 L360 55 Q337 27 302 8 Q267 -11 216 -11 Q177 -11 147 1.5 Q117 14 96 32.5 Q75 51 61.5 73 Q48 95 41 115 L41 544 Z M120 604 L151 759 L290 759 L290 699 L233 589 L120 589 L120 604 Z M324 604 L355 759 L493 759 L493 699 L436 589 L324 589 L324 604 Z " />
<glyph glyph-name="uogonek" unicode="&#x173;" horiz-adv-x="565" d="M308 -107 Q312 -97 324 -80 Q336 -63 353 -44 Q370 -25 391 -6 Q395 -3 399 0 L360 0 L360 55 Q337 27 302 8 Q267 -11 216 -11 Q177 -11 147 1.5 Q117 14 96 32.5 Q75 51 61.5 73 Q48 95 41 115 L41 544 L217 544 L217 151 Q222 143 237 132 Q252 121 281 121 Q305 121 321 127.5 Q337 134 347 144 L347 544 L523 544 L523 0 Q476 -44 457 -71.5 Q438 -99 433 -110 L433 -132 Q437 -140 448.5 -144 Q460 -148 474 -148 Q496 -148 523 -141 L523 -228 Q510 -234 493.5 -238 Q477 -242 443 -242 Q398 -242 360.5 -230 Q323 -218 308 -187 L308 -107 Z " />
<glyph glyph-name="wgrave" unicode="&#x1e81;" horiz-adv-x="808" d="M28 450 L28 544 L197 544 L252 197 L270 197 L339 544 L489 544 L557 197 L575 197 L631 544 L780 544 L780 450 L673 0 L468 0 L416 233 L401 233 L351 0 L136 0 L28 450 Z M266 689 L266 763 L432 763 L480 608 L480 593 L346 593 L266 689 Z " />
<glyph glyph-name="wacute" unicode="&#x1e83;" horiz-adv-x="808" d="M28 450 L28 544 L197 544 L252 197 L270 197 L339 544 L489 544 L557 197 L575 197 L631 544 L780 544 L780 450 L673 0 L468 0 L416 233 L401 233 L351 0 L136 0 L28 450 Z M347 608 L393 763 L561 763 L561 689 L480 593 L347 593 L347 608 Z " />
<glyph glyph-name="wcircumflex" unicode="&#x175;" horiz-adv-x="808" d="M28 450 L28 544 L197 544 L252 197 L270 197 L339 544 L489 544 L557 197 L575 197 L631 544 L780 544 L780 450 L673 0 L468 0 L416 233 L401 233 L351 0 L136 0 L28 450 Z M221 604 L296 759 L521 759 L595 604 L595 589 L469 589 L409 684 L347 589 L221 589 L221 604 Z " />
<glyph glyph-name="wdieresis" unicode="&#x1e85;" horiz-adv-x="808" d="M28 450 L28 544 L197 544 L252 197 L270 197 L339 544 L489 544 L557 197 L575 197 L631 544 L780 544 L780 450 L673 0 L468 0 L416 233 L401 233 L351 0 L136 0 L28 450 Z M216 717 Q219 721 225 727 Q231 733 241 738 Q251 743 265 747 Q279 751 298 751 Q337 751 356 738 Q375 725 381 717 L381 625 Q375 617 356 604 Q337 591 298 591 Q260 591 241.5 604 Q223 617 216 625 L216 717 Z M441 717 Q448 725 467 738 Q486 751 524 751 Q543 751 557.5 747 Q572 743 581.5 738 Q591 733 597.5 727 Q604 721 607 717 L607 625 Q604 621 597.5 615 Q591 609 581.5 604 Q572 599 557.5 595 Q543 591 524 591 Q486 591 467.5 604 Q449 617 441 625 L441 717 Z " />
<glyph glyph-name="ygrave" unicode="&#x1ef3;" horiz-adv-x="533" d="M41 -39 Q51 -40 69 -40.5 Q87 -41 95 -41 Q127 -41 149.5 -31.5 Q172 -22 181 -13 L189 17 L27 450 L27 544 L195 544 L266 251 L284 251 L351 544 L507 544 L507 451 L339 -91 Q327 -105 308.5 -119.5 Q290 -134 265 -145 Q240 -156 207.5 -163 Q175 -170 135 -170 Q107 -170 81 -167 Q55 -164 41 -159 L41 -39 Z M122 689 L122 763 L288 763 L336 608 L336 593 L202 593 L122 689 Z " />
<glyph glyph-name="yacute" unicode="&#xfd;" horiz-adv-x="533" d="M41 -39 Q51 -40 69 -40.5 Q87 -41 95 -41 Q127 -41 149.5 -31.5 Q172 -22 181 -13 L189 17 L27 450 L27 544 L195 544 L266 251 L284 251 L351 544 L507 544 L507 451 L339 -91 Q327 -105 308.5 -119.5 Q290 -134 265 -145 Q240 -156 207.5 -163 Q175 -170 135 -170 Q107 -170 81 -167 Q55 -164 41 -159 L41 -39 Z M193 608 L239 763 L407 763 L407 689 L326 593 L193 593 L193 608 Z " />
<glyph glyph-name="ycircumflex" unicode="&#x177;" horiz-adv-x="533" d="M41 -39 Q51 -40 69 -40.5 Q87 -41 95 -41 Q127 -41 149.5 -31.5 Q172 -22 181 -13 L189 17 L27 450 L27 544 L195 544 L266 251 L284 251 L351 544 L507 544 L507 451 L339 -91 Q327 -105 308.5 -119.5 Q290 -134 265 -145 Q240 -156 207.5 -163 Q175 -170 135 -170 Q107 -170 81 -167 Q55 -164 41 -159 L41 -39 Z M84 604 L159 759 L384 759 L458 604 L458 589 L332 589 L272 684 L210 589 L84 589 L84 604 Z " />
<glyph glyph-name="ydieresis" unicode="&#xff;" horiz-adv-x="533" d="M41 -39 Q51 -40 69 -40.5 Q87 -41 95 -41 Q127 -41 149.5 -31.5 Q172 -22 181 -13 L189 17 L27 450 L27 544 L195 544 L266 251 L284 251 L351 544 L507 544 L507 451 L339 -91 Q327 -105 308.5 -119.5 Q290 -134 265 -145 Q240 -156 207.5 -163 Q175 -170 135 -170 Q107 -170 81 -167 Q55 -164 41 -159 L41 -39 Z M76 717 Q79 721 85 727 Q91 733 101 738 Q111 743 125 747 Q139 751 158 751 Q197 751 216 738 Q235 725 241 717 L241 625 Q235 617 216 604 Q197 591 158 591 Q120 591 101.5 604 Q83 617 76 625 L76 717 Z M301 717 Q308 725 327 738 Q346 751 384 751 Q403 751 417.5 747 Q432 743 441.5 738 Q451 733 457.5 727 Q464 721 467 717 L467 625 Q464 621 457.5 615 Q451 609 441.5 604 Q432 599 417.5 595 Q403 591 384 591 Q346 591 327.5 604 Q309 617 301 625 L301 717 Z " />
<glyph glyph-name="zacute" unicode="&#x17a;" horiz-adv-x="483" d="M26 118 L241 406 L241 418 L26 418 L26 544 L457 544 L457 435 L235 139 L235 127 L457 127 L457 0 L26 0 L26 118 Z M174 608 L220 763 L388 763 L388 689 L307 593 L174 593 L174 608 Z " />
<glyph glyph-name="zcaron" unicode="&#x17e;" horiz-adv-x="483" d="M26 118 L241 406 L241 418 L26 418 L26 544 L457 544 L457 435 L235 139 L235 127 L457 127 L457 0 L26 0 L26 118 Z M64 744 L64 759 L190 759 L252 663 L312 759 L438 759 L438 744 L364 589 L139 589 L64 744 Z " />
<glyph glyph-name="zdotaccent" unicode="&#x17c;" horiz-adv-x="483" d="M26 118 L241 406 L241 418 L26 418 L26 544 L457 544 L457 435 L235 139 L235 127 L457 127 L457 0 L26 0 L26 118 Z M161 706 Q169 723 191 738.5 Q213 754 252 754 Q292 754 314 738.5 Q336 723 344 706 L344 642 Q336 625 314 609.5 Q292 594 252 594 Q213 594 191 609.5 Q169 625 161 642 L161 706 Z " />
<glyph glyph-name="eng" unicode="&#x14b;" horiz-adv-x="570" d="M42 544 L205 544 L205 488 Q228 517 263.5 536.5 Q299 556 351 556 Q390 556 420.5 543.5 Q451 531 472.5 511.5 Q494 492 508 469.5 Q522 447 529 428 L529 -30 Q520 -51 501 -75.5 Q482 -100 452 -121 Q422 -142 380 -155.5 Q338 -169 283 -169 L283 -38 Q310 -38 328 -24.5 Q346 -11 353 8 L353 392 Q348 401 331.5 412 Q315 423 286 423 Q262 423 245 416.5 Q228 410 218 400 L218 0 L42 0 L42 544 Z " />
<glyph glyph-name="eth" unicode="&#xf0;" horiz-adv-x="568" d="M37 338 Q43 360 57 384 Q71 408 93.5 428 Q116 448 147.5 461 Q179 474 220 474 Q265 474 296.5 458 Q328 442 355 419 L355 486 Q348 499 338 512.5 Q328 526 314 540 L157 489 L157 570 L244 598 Q227 610 210 621 Q193 632 176 641 L287 731 Q322 718 355.5 698 Q389 678 418 654 L531 691 L531 610 L481 594 Q499 573 512 554 Q525 535 531 521 L531 123 Q521 101 501.5 77 Q482 53 452 32.5 Q422 12 380.5 -1.5 Q339 -15 284 -15 Q229 -15 187 -1.5 Q145 12 115 32 Q85 52 66 76.5 Q47 101 37 122 L37 338 Z M355 306 Q348 320 329.5 331.5 Q311 343 284 343 Q257 343 238.5 331.5 Q220 320 213 306 L213 154 Q220 140 238.5 128.5 Q257 117 284 117 Q311 117 329.5 128.5 Q348 140 355 154 L355 306 Z " />
<glyph glyph-name="thorn" unicode="&#xfe;" horiz-adv-x="566" d="M42 700 L218 700 L218 503 Q241 526 273.5 541 Q306 556 351 556 Q390 556 420.5 543.5 Q451 531 472.5 511.5 Q494 492 508 469.5 Q522 447 529 428 L529 117 Q522 97 508 74.5 Q494 52 472.5 33 Q451 14 420.5 1.5 Q390 -11 351 -11 Q306 -11 273.5 4 Q241 19 218 42 L218 -156 L42 -156 L42 700 Z M353 392 Q348 401 331.5 412 Q315 423 286 423 Q262 423 245 416.5 Q228 410 218 400 L218 145 Q228 135 245 128 Q262 121 287 121 Q315 121 331.5 132.5 Q348 144 353 153 L353 392 Z " />
<glyph glyph-name="uni0259" unicode="&#x259;" horiz-adv-x="552" d="M35 319 L339 319 L339 391 Q332 405 314 416.5 Q296 428 269 428 Q242 428 223 416.5 Q204 405 197 391 L197 359 L35 359 L35 446 Q42 458 58.5 477.5 Q75 497 103.5 515 Q132 533 173 546.5 Q214 560 269 560 Q324 560 366 546.5 Q408 533 438 513 Q468 493 487 468.5 Q506 444 515 423 L515 123 Q506 102 487 77.5 Q468 53 438 32.5 Q408 12 366 -1.5 Q324 -15 269 -15 Q214 -15 173 -1.5 Q132 12 103.5 30.5 Q75 49 58.5 68.5 Q42 88 35 100 L35 319 Z M197 154 Q204 139 223 128 Q242 117 269 117 Q296 117 314 128 Q332 139 339 154 L339 214 L197 214 L197 154 Z " />
<glyph glyph-name="longs" unicode="&#x17f;" horiz-adv-x="318" d="M42 619 Q48 636 61 653.5 Q74 671 95.5 684.5 Q117 698 148.5 706.5 Q180 715 222 715 Q257 715 282.5 710.5 Q308 706 319 702 L319 583 Q311 585 289 585 Q252 585 237.5 576.5 Q223 568 218 562 L218 0 L42 0 L42 619 Z " />
<glyph glyph-name="ff" unicode="&#xfb00;" horiz-adv-x="686" d="M71 418 L23 418 L23 544 L71 544 L71 636 Q77 653 90 670 Q103 687 124.5 701 Q146 715 177.5 723.5 Q209 732 251 732 Q286 732 311.5 727.5 Q337 723 348 719 L348 600 Q340 602 318 602 Q281 602 266.5 593.5 Q252 585 247 578 L247 544 L390 544 L390 636 Q396 653 409 670 Q422 687 443.5 701 Q465 715 496.5 723.5 Q528 732 571 732 Q606 732 631.5 727.5 Q657 723 667 719 L667 600 Q659 602 637 602 Q601 602 586.5 593.5 Q572 585 566 578 L566 544 L667 544 L667 418 L566 418 L566 0 L390 0 L390 418 L247 418 L247 0 L71 0 L71 418 Z " />
<glyph glyph-name="fi" unicode="&#xfb01;" horiz-adv-x="629" d="M71 418 L23 418 L23 544 L71 544 L71 636 Q77 653 90 670 Q103 687 124.5 701 Q146 715 177.5 723.5 Q209 732 251 732 Q286 732 311.5 727.5 Q337 723 348 719 L348 600 Q340 602 318 602 Q280 602 265.5 593 Q251 584 247 578 L247 544 L348 544 L348 418 L247 418 L247 0 L71 0 L71 418 Z M407 706 Q415 723 437 738.5 Q459 754 498 754 Q538 754 560 738.5 Q582 723 590 706 L590 642 Q582 625 560 609.5 Q538 594 498 594 Q459 594 437 609.5 Q415 625 407 642 L407 706 Z M410 544 L586 544 L586 0 L410 0 L410 544 Z " />
<glyph glyph-name="fl" unicode="&#xfb02;" horiz-adv-x="626" d="M71 418 L23 418 L23 544 L71 544 L71 636 Q77 653 90 670 Q103 687 124.5 701 Q146 715 177.5 723.5 Q209 732 251 732 Q286 732 311.5 727.5 Q337 723 348 719 L348 600 Q340 602 318 602 Q280 602 265.5 593 Q251 584 247 578 L247 544 L348 544 L348 418 L247 418 L247 0 L71 0 L71 418 Z M409 700 L585 700 L585 0 L409 0 L409 700 Z " />
<glyph glyph-name="ampersand" unicode="&#x26;" horiz-adv-x="695" d="M90 590 Q99 607 118 629 Q137 651 167 670 Q197 689 238 702 Q279 715 333 715 Q387 715 428.5 702 Q470 689 499.5 670 Q529 651 548 629 Q567 607 576 590 L576 488 L400 488 L400 556 Q393 566 376 574.5 Q359 583 333 583 Q308 583 291 574.5 Q274 566 266 556 L266 482 L454 307 L454 364 L606 364 L606 166 L675 102 L675 0 L571 0 L520 47 Q483 19 435.5 2 Q388 -15 317 -15 Q255 -15 207.5 -2 Q160 11 126.5 31.5 Q93 52 71.5 76 Q50 100 40 122 L40 277 Q54 306 83 334 Q112 362 160 381 L90 446 L90 590 Z M323 119 Q378 119 414 145 L264 284 Q229 275 216 250 L216 161 Q226 144 256.5 131.5 Q287 119 323 119 Z " />
<glyph glyph-name="grave" unicode="&#x60;" horiz-adv-x="474" d="M131 689 L131 763 L297 763 L345 608 L345 593 L211 593 L131 689 Z " />
<glyph glyph-name="acute" unicode="&#xb4;" horiz-adv-x="474" d="M131 608 L177 763 L345 763 L345 689 L264 593 L131 593 L131 608 Z " />
<glyph glyph-name="circumflex" unicode="&#x2c6;" horiz-adv-x="474" d="M50 604 L125 759 L350 759 L424 604 L424 589 L298 589 L238 684 L176 589 L50 589 L50 604 Z " />
<glyph glyph-name="caron" unicode="&#x2c7;" horiz-adv-x="474" d="M50 744 L50 759 L176 759 L238 663 L298 759 L424 759 L424 744 L350 589 L125 589 L50 744 Z " />
<glyph glyph-name="commaaccent" unicode="&#xf6c3;" horiz-adv-x="474" d="M158 -194 L197 -194 Q211 -194 223.5 -191.5 Q236 -189 241 -178 L241 -158 L238 -158 Q198 -158 176.5 -151 Q155 -144 148 -136 L148 -66 Q155 -58 176.5 -49 Q198 -40 238 -40 Q277 -40 298 -49 Q319 -58 326 -66 L326 -181 Q323 -191 315 -202.5 Q307 -214 293 -223.5 Q279 -233 259 -239.5 Q239 -246 213 -246 L158 -246 L158 -194 Z " />
<glyph glyph-name="tilde" unicode="&#x2dc;" horiz-adv-x="474" d="M440 678 Q436 662 426.5 646.5 Q417 631 401.5 619 Q386 607 365.5 600 Q345 593 319 593 Q287 593 266.5 600.5 Q246 608 230.5 617 Q215 626 202 633.5 Q189 641 173 641 Q156 641 147.5 634 Q139 627 136 618 L136 598 L35 598 L35 664 Q42 697 73 723 Q104 749 156 749 Q187 749 207.5 741.5 Q228 734 244 725 Q260 716 273 708.5 Q286 701 302 701 Q331 701 338 723 L338 744 L440 744 L440 678 Z " />
<glyph glyph-name="dieresis" unicode="&#xa8;" horiz-adv-x="474" d="M43 717 Q46 721 52 727 Q58 733 68 738 Q78 743 92 747 Q106 751 125 751 Q164 751 183 738 Q202 725 208 717 L208 625 Q202 617 183 604 Q164 591 125 591 Q87 591 68.5 604 Q50 617 43 625 L43 717 Z M268 717 Q275 725 294 738 Q313 751 351 751 Q370 751 384.5 747 Q399 743 408.5 738 Q418 733 424.5 727 Q431 721 434 717 L434 625 Q431 621 424.5 615 Q418 609 408.5 604 Q399 599 384.5 595 Q370 591 351 591 Q313 591 294.5 604 Q276 617 268 625 L268 717 Z " />
<glyph glyph-name="macron" unicode="&#xaf;" horiz-adv-x="474" d="M48 732 L428 732 L428 614 L48 614 L48 732 Z " />
<glyph glyph-name="breve" unicode="&#x2d8;" horiz-adv-x="474" d="M51 739 L178 739 L178 711 Q182 702 196.5 691.5 Q211 681 238 681 Q265 681 278.5 691.5 Q292 702 296 711 L296 739 L423 739 L423 688 Q412 667 397 648.5 Q382 630 359.5 616.5 Q337 603 307 595 Q277 587 238 587 Q199 587 168.5 595 Q138 603 115.5 616.5 Q93 630 77 648.5 Q61 667 51 688 L51 739 Z " />
<glyph glyph-name="ring" unicode="&#x2da;" horiz-adv-x="474" d="M188 668 Q192 660 204.5 653 Q217 646 238 646 Q261 646 272.5 653 Q284 660 289 668 L289 726 Q284 734 272.5 741 Q261 748 238 748 Q217 748 204.5 741 Q192 734 188 726 L188 668 Z M107 745 Q123 776 158 795.5 Q193 815 238 815 Q284 815 319 795.5 Q354 776 370 745 L370 649 Q354 618 319 598.5 Q284 579 238 579 Q193 579 158 598.5 Q123 618 107 649 L107 745 Z " />
<glyph glyph-name="hungarumlaut" unicode="&#x2dd;" horiz-adv-x="474" d="M54 604 L85 759 L224 759 L224 699 L167 589 L54 589 L54 604 Z M258 604 L289 759 L427 759 L427 699 L370 589 L258 589 L258 604 Z " />
<glyph glyph-name="dotaccent" unicode="&#x2d9;" horiz-adv-x="474" d="M146 706 Q154 723 176 738.5 Q198 754 237 754 Q277 754 299 738.5 Q321 723 329 706 L329 642 Q321 625 299 609.5 Q277 594 237 594 Q198 594 176 609.5 Q154 625 146 642 L146 706 Z " />
<glyph glyph-name="cedilla" unicode="&#xb8;" horiz-adv-x="474" d="M139 -166 Q156 -169 173.5 -172 Q191 -175 208 -175 Q227 -175 241.5 -170 Q256 -165 260 -157 L260 -126 Q256 -118 243 -115 Q230 -112 213 -112 L154 -112 L187 3 L274 3 L260 -48 L270 -48 Q312 -48 333.5 -65 Q355 -82 363 -101 L363 -190 Q349 -220 313.5 -237 Q278 -254 219 -254 Q184 -254 158 -249 Q132 -244 119 -237 L139 -166 Z " />
<glyph glyph-name="ogonek" unicode="&#x2db;" horiz-adv-x="474" d="M132 -107 Q136 -97 148 -80 Q160 -63 177 -44 Q194 -25 215.5 -6.5 Q237 12 260 25 L347 0 Q300 -44 281 -71.5 Q262 -99 257 -110 L257 -132 Q261 -140 272.5 -144 Q284 -148 298 -148 Q320 -148 347 -141 L347 -228 Q334 -234 317.5 -238 Q301 -242 267 -242 Q222 -242 184.5 -230 Q147 -218 132 -187 L132 -107 Z " />
<glyph glyph-name="comma" unicode="&#x2c;" horiz-adv-x="242" d="M46 -65 L80 -65 Q91 -65 103.5 -57.5 Q116 -50 121 -39 L121 -13 Q82 -13 60 3 Q38 19 30 35 L30 121 Q38 137 60 153 Q82 169 121 169 Q161 169 183.5 153 Q206 137 213 121 L213 -54 Q210 -64 200 -78.5 Q190 -93 174.5 -106 Q159 -119 138 -128.5 Q117 -138 90 -138 L46 -138 L46 -65 Z " />
<glyph glyph-name="semicolon" unicode="&#x3b;" horiz-adv-x="254" d="M52 -65 L86 -65 Q97 -65 109.5 -57.5 Q122 -50 127 -39 L127 -13 Q88 -13 66 3 Q44 19 36 35 L36 121 Q44 137 66 153 Q88 169 127 169 Q167 169 189.5 153 Q212 137 219 121 L219 -54 Q216 -64 206 -78.5 Q196 -93 180.5 -106 Q165 -119 144 -128.5 Q123 -138 96 -138 L52 -138 L52 -65 Z M36 438 Q44 454 66 470 Q88 486 127 486 Q167 486 189.5 470 Q212 454 219 438 L219 352 Q212 336 189.5 320 Q167 304 127 304 Q88 304 66 320 Q44 336 36 352 L36 438 Z " />
<glyph glyph-name="colon" unicode="&#x3a;" horiz-adv-x="254" d="M36 121 Q44 137 66 153 Q88 169 127 169 Q167 169 189.5 153 Q212 137 219 121 L219 35 Q212 19 189.5 3 Q167 -13 127 -13 Q88 -13 66 3 Q44 19 36 35 L36 121 Z M36 438 Q44 454 66 470 Q88 486 127 486 Q167 486 189.5 470 Q212 454 219 438 L219 352 Q212 336 189.5 320 Q167 304 127 304 Q88 304 66 320 Q44 336 36 352 L36 438 Z " />
<glyph glyph-name="period" unicode="&#x2e;" horiz-adv-x="242" d="M30 121 Q38 137 60 153 Q82 169 121 169 Q161 169 183.5 153 Q206 137 213 121 L213 35 Q206 19 183.5 3 Q161 -13 121 -13 Q82 -13 60 3 Q38 19 30 35 L30 121 Z " />
<glyph glyph-name="ellipsis" unicode="&#x2026;" horiz-adv-x="711" d="M30 121 Q38 137 60 153 Q82 169 121 169 Q161 169 183.5 153 Q206 137 213 121 L213 35 Q206 19 183.5 3 Q161 -13 121 -13 Q82 -13 60 3 Q38 19 30 35 L30 121 Z M264 121 Q272 137 294 153 Q316 169 355 169 Q395 169 417.5 153 Q440 137 447 121 L447 35 Q440 19 417.5 3 Q395 -13 355 -13 Q316 -13 294 3 Q272 19 264 35 L264 121 Z M499 121 Q507 137 529 153 Q551 169 590 169 Q630 169 652.5 153 Q675 137 682 121 L682 35 Q675 19 652.5 3 Q630 -13 590 -13 Q551 -13 529 3 Q507 19 499 35 L499 121 Z " />
<glyph glyph-name="hyphen" unicode="&#x2d;" horiz-adv-x="368" d="M31 403 L337 403 L337 264 L31 264 L31 403 Z " />
<glyph glyph-name="exclam" unicode="&#x21;" horiz-adv-x="297" d="M50 540 L50 700 L247 700 L247 540 L225 198 L71 198 L50 540 Z M57 113 Q65 129 87 145 Q109 161 148 161 Q189 161 211 145 Q233 129 240 113 L240 35 Q233 19 211 3 Q189 -13 148 -13 Q109 -13 87 3 Q65 19 57 35 L57 113 Z " />
<glyph glyph-name="exclamdown" unicode="&#xa1;" horiz-adv-x="297" d="M247 7 L247 -153 L50 -153 L50 7 L72 349 L226 349 L247 7 Z M240 434 Q232 418 210 402 Q188 386 149 386 Q108 386 86 402 Q64 418 57 434 L57 512 Q64 528 86 544 Q108 560 149 560 Q188 560 210 544 Q232 528 240 512 L240 434 Z " />
<glyph glyph-name="question" unicode="&#x3f;" horiz-adv-x="546" d="M139 322 L271 410 Q298 428 316.5 441.5 Q335 455 342 466 L342 536 Q333 551 313 561.5 Q293 572 265 572 Q237 572 217.5 562 Q198 552 189 536 L189 474 L21 474 L21 608 Q32 623 51.5 641.5 Q71 660 101 676.5 Q131 693 171.5 704 Q212 715 265 715 Q323 715 367 701.5 Q411 688 442.5 668 Q474 648 494 625.5 Q514 603 525 585 L525 406 Q521 398 512 389.5 Q503 381 492 372 Q481 363 468.5 354.5 Q456 346 446 339 L318 254 L318 207 L139 207 L139 322 Z M137 121 Q145 137 167 153 Q189 169 228 169 Q269 169 291 153 Q313 137 320 121 L320 35 Q313 19 291 3 Q269 -13 228 -13 Q189 -13 167 3 Q145 19 137 35 L137 121 Z " />
<glyph glyph-name="questiondown" unicode="&#xbf;" horiz-adv-x="546" d="M407 225 L275 137 Q248 119 229.5 105.5 Q211 92 204 81 L204 11 Q213 -4 233 -14.5 Q253 -25 281 -25 Q309 -25 328.5 -15 Q348 -5 357 11 L357 73 L525 73 L525 -61 Q514 -76 494.5 -94.5 Q475 -113 445 -129.5 Q415 -146 374.5 -157 Q334 -168 281 -168 Q222 -168 178.5 -154.5 Q135 -141 103.5 -121 Q72 -101 52 -78.5 Q32 -56 21 -38 L21 141 Q25 149 34 157.5 Q43 166 54 175 Q65 184 77.5 192.5 Q90 201 100 208 L228 293 L228 340 L407 340 L407 225 Z M409 426 Q401 410 379 394 Q357 378 318 378 Q277 378 255 394 Q233 410 226 426 L226 512 Q233 528 255 544 Q277 560 318 560 Q357 560 379 544 Q401 528 409 512 L409 426 Z " />
<glyph glyph-name="quoteleft" unicode="&#x2018;" horiz-adv-x="243" d="M197.003 641.996 L163.005 641.996 Q152.006 641.996 139.506 634.496 Q127.007 626.997 122.007 615.998 L122.007 589.999 Q161.005 589.999 183.004 574 Q205.002 558.001 213.002 542.002 L213.002 456.007 Q205.002 440.008 183.004 424.009 Q161.005 408.01 122.007 408.01 Q82.0098 408.01 59.5112 424.009 Q37.0126 440.008 30.013 456.007 L30.013 630.997 Q33.0128 640.996 43.0122 655.495 Q53.0116 669.994 68.5107 682.994 Q84.0097 695.993 105.008 705.492 Q126.007 714.992 153.005 714.992 L197.003 714.992 L197.003 641.996 Z " />
<glyph glyph-name="quoteright" unicode="&#x2019;" horiz-adv-x="243" d="M46 481 L80 481 Q91 481 103.5 488.5 Q116 496 121 507 L121 533 Q82 533 60 549 Q38 565 30 581 L30 667 Q38 683 60 699 Q82 715 121 715 Q161 715 183.5 699 Q206 683 213 667 L213 492 Q210 482 200 467.5 Q190 453 174.5 440 Q159 427 138 417.5 Q117 408 90 408 L46 408 L46 481 Z " />
<glyph glyph-name="quotedblleft" unicode="&#x201c;" horiz-adv-x="469" d="M197.003 641.996 L163.005 641.996 Q152.006 641.996 139.506 634.496 Q127.007 626.997 122.007 615.998 L122.007 589.999 Q161.005 589.999 183.004 574 Q205.002 558.001 213.002 542.002 L213.002 456.007 Q205.002 440.008 183.004 424.009 Q161.005 408.01 122.007 408.01 Q82.0098 408.01 59.5112 424.009 Q37.0126 440.008 30.013 456.007 L30.013 630.997 Q33.0128 640.996 43.0122 655.495 Q53.0116 669.994 68.5107 682.994 Q84.0097 695.993 105.008 705.492 Q126.007 714.992 153.005 714.992 L197.003 714.992 L197.003 641.996 Z M423.003 641.996 L389.005 641.996 Q378.006 641.996 365.506 634.496 Q353.007 626.997 348.007 615.998 L348.007 589.999 Q387.005 589.999 409.004 574 Q431.002 558.001 439.002 542.002 L439.002 456.007 Q431.002 440.008 409.004 424.009 Q387.005 408.01 348.007 408.01 Q308.01 408.01 285.511 424.009 Q263.013 440.008 256.013 456.007 L256.013 630.997 Q259.013 640.996 269.012 655.495 Q279.012 669.994 294.511 682.994 Q310.01 695.993 331.008 705.492 Q352.007 714.992 379.005 714.992 L423.003 714.992 L423.003 641.996 Z " />
<glyph glyph-name="quotedblright" unicode="&#x201d;" horiz-adv-x="469" d="M46 481 L80 481 Q91 481 103.5 488.5 Q116 496 121 507 L121 533 Q82 533 60 549 Q38 565 30 581 L30 667 Q38 683 60 699 Q82 715 121 715 Q161 715 183.5 699 Q206 683 213 667 L213 492 Q210 482 200 467.5 Q190 453 174.5 440 Q159 427 138 417.5 Q117 408 90 408 L46 408 L46 481 Z M272 481 L306 481 Q317 481 329.5 488.5 Q342 496 347 507 L347 533 Q308 533 286 549 Q264 565 256 581 L256 667 Q264 683 286 699 Q308 715 347 715 Q387 715 409.5 699 Q432 683 439 667 L439 492 Q436 482 426 467.5 Q416 453 400.5 440 Q385 427 364 417.5 Q343 408 316 408 L272 408 L272 481 Z " />
<glyph glyph-name="quotesinglbase" unicode="&#x201a;" horiz-adv-x="243" d="M46 -65 L80 -65 Q91 -65 103.5 -57.5 Q116 -50 121 -39 L121 -13 Q82 -13 60 3 Q38 19 30 35 L30 121 Q38 137 60 153 Q82 169 121 169 Q161 169 183.5 153 Q206 137 213 121 L213 -54 Q210 -64 200 -78.5 Q190 -93 174.5 -106 Q159 -119 138 -128.5 Q117 -138 90 -138 L46 -138 L46 -65 Z " />
<glyph glyph-name="quotedblbase" unicode="&#x201e;" horiz-adv-x="469" d="M46 -65 L80 -65 Q91 -65 103.5 -57.5 Q116 -50 121 -39 L121 -13 Q82 -13 60 3 Q38 19 30 35 L30 121 Q38 137 60 153 Q82 169 121 169 Q161 169 183.5 153 Q206 137 213 121 L213 -54 Q210 -64 200 -78.5 Q190 -93 174.5 -106 Q159 -119 138 -128.5 Q117 -138 90 -138 L46 -138 L46 -65 Z M272 -65 L306 -65 Q317 -65 329.5 -57.5 Q342 -50 347 -39 L347 -13 Q308 -13 286 3 Q264 19 256 35 L256 121 Q264 137 286 153 Q308 169 347 169 Q387 169 409.5 153 Q432 137 439 121 L439 -54 Q436 -64 426 -78.5 Q416 -93 400.5 -106 Q385 -119 364 -128.5 Q343 -138 316 -138 L272 -138 L272 -65 Z " />
<glyph glyph-name="guilsinglleft" unicode="&#x2039;" horiz-adv-x="362" d="M31 215 L31 352 L201 544 L329 544 L329 452 L173 284 L329 116 L329 24 L201 24 L31 215 Z " />
<glyph glyph-name="guilsinglright" unicode="&#x203a;" horiz-adv-x="362" d="M33 116 L188 284 L33 452 L33 544 L161 544 L331 352 L331 215 L161 24 L33 24 L33 116 Z " />
<glyph glyph-name="guillemotleft" unicode="&#xab;" horiz-adv-x="639" d="M31 215 L31 352 L201 544 L329 544 L329 452 L173 284 L329 116 L329 24 L201 24 L31 215 Z M308 215 L308 352 L478 544 L606 544 L606 452 L450 284 L606 116 L606 24 L478 24 L308 215 Z " />
<glyph glyph-name="guillemotright" unicode="&#xbb;" horiz-adv-x="640" d="M33 116 L188 284 L33 452 L33 544 L161 544 L331 352 L331 215 L161 24 L33 24 L33 116 Z M311 116 L466 284 L311 452 L311 544 L439 544 L609 352 L609 215 L439 24 L311 24 L311 116 Z " />
<glyph glyph-name="slash" unicode="&#x2f;" horiz-adv-x="422" d="M34 -18 L239 731 L387 731 L387 639 L182 -110 L34 -110 L34 -18 Z " />
<glyph glyph-name="bar" unicode="&#x7c;" horiz-adv-x="318" d="M64 790 L253 790 L253 -130 L64 -130 L64 790 Z " />
<glyph glyph-name="endash" unicode="&#x2013;" horiz-adv-x="568" d="M31 403 L537 403 L537 264 L31 264 L31 403 Z " />
<glyph glyph-name="emdash" unicode="&#x2014;" horiz-adv-x="868" d="M31 403 L837 403 L837 264 L31 264 L31 403 Z " />
<glyph glyph-name="bullet" unicode="&#x2022;" horiz-adv-x="361" d="M41 418 Q58 444 93.5 464 Q129 484 180 484 Q229 484 265 464.5 Q301 445 320 418 L320 264 Q301 235 265 215.5 Q229 196 180 196 Q129 196 93.5 216.5 Q58 237 41 265 L41 418 Z " />
<glyph glyph-name="periodcentered" unicode="&#xb7;" horiz-adv-x="242" d="M30 384 Q38 400 60 416 Q82 432 121 432 Q161 432 183.5 416 Q206 400 213 384 L213 298 Q206 282 183.5 266 Q161 250 121 250 Q82 250 60 266 Q38 282 30 298 L30 384 Z " />
<glyph glyph-name="parenleft" unicode="&#x28;" horiz-adv-x="359" d="M41 531 Q52 561 74 591 Q96 621 130 645.5 Q164 670 211 685 Q258 700 319 700 L330 700 L330 575 L319 575 Q293 575 278 565.5 Q263 556 254.5 541 Q246 526 242.5 507.5 Q239 489 237 472 L237 66 Q239 48 242.5 28.5 Q246 9 254 -6.5 Q262 -22 277.5 -32.5 Q293 -43 319 -43 L330 -43 L330 -168 L319 -168 Q258 -168 211 -153 Q164 -138 130 -113.5 Q96 -89 74 -59 Q52 -29 41 1 L41 531 Z " />
<glyph glyph-name="parenright" unicode="&#x29;" horiz-adv-x="359" d="M318.003 531 Q307.003 561 285.005 591 Q263.006 621 229.008 645.5 Q195.01 670 148.013 685 Q101.016 700 40.0195 700 L29.0201 700 L29.0201 575 L40.0195 575 Q66.0179 575 81.017 565.5 Q96.0161 556 104.516 541 Q113.015 526 116.515 507.5 Q120.015 489 122.014 472 L122.014 66 Q120.015 48 116.515 28.5 Q113.015 9 105.016 -6.5 Q97.016 -22 81.5169 -32.5 Q66.0179 -43 40.0195 -43 L29.0201 -43 L29.0201 -168 L40.0195 -168 Q101.016 -168 148.013 -153 Q195.01 -138 229.008 -113.5 Q263.006 -89 285.005 -59 Q307.003 -29 318.003 1 L318.003 531 Z " />
<glyph glyph-name="bracketleft" unicode="&#x5b;" horiz-adv-x="368" d="M48 700 L336 700 L336 575 L238 575 L238 -43 L336 -43 L336 -168 L48 -168 L48 700 Z " />
<glyph glyph-name="bracketright" unicode="&#x5d;" horiz-adv-x="368" d="M320.003 700 L32.0205 700 L32.0205 575 L130.015 575 L130.015 -43 L32.0205 -43 L32.0205 -168 L320.003 -168 L320.003 700 Z " />
<glyph glyph-name="braceleft" unicode="&#x7b;" horiz-adv-x="378" d="M72 147 Q70 176 58.5 186.5 Q47 197 27 197 L27 323 Q47 323 58.5 333.5 Q70 344 72 374 L72 531 Q83 561 105 591 Q127 621 161 645.5 Q195 670 242 685 Q289 700 350 700 L350 575 Q327 575 312 568 Q297 561 288 549 Q279 537 275 521.5 Q271 506 269 488 L269 351 Q249 294 199 260 Q249 225 269 169 L269 32 Q271 15 275 -0.5 Q279 -16 288 -28 Q297 -40 312 -47 Q327 -54 350 -54 L350 -180 Q289 -180 242 -165 Q195 -150 161 -125.5 Q127 -101 105 -70.5 Q83 -40 72 -10 L72 147 Z " />
<glyph glyph-name="braceright" unicode="&#x7d;" horiz-adv-x="378" d="M306.004 147 Q308.004 176 319.504 186.5 Q331.003 197 351.002 197 L351.002 323 Q331.003 323 319.504 333.5 Q308.004 344 306.004 374 L306.004 531 Q295.005 561 273.006 591 Q251.008 621 217.01 645.5 Q183.012 670 136.015 685 Q89.0176 700 28.0214 700 L28.0214 575 Q51.02 575 66.019 568 Q81.0181 561 90.0176 549 Q99.017 537 103.017 521.5 Q107.017 506 109.016 488 L109.016 351 Q129.015 294 179.012 260 Q129.015 225 109.016 169 L109.016 32 Q107.017 15 103.017 -0.5 Q99.017 -16 90.0176 -28 Q81.0181 -40 66.019 -47 Q51.02 -54 28.0214 -54 L28.0214 -180 Q89.0176 -180 136.015 -165 Q183.012 -150 217.01 -125.5 Q251.008 -101 273.006 -70.5 Q295.005 -40 306.004 -10 L306.004 147 Z " />
<glyph glyph-name="asterisk" unicode="&#x2a;" horiz-adv-x="490" d="M167 514 L33 533 Q29 552 31.5 570.5 Q34 589 39 606 Q46 625 55 641.5 Q64 658 78 670 L196 607 L172 739 Q205 756 245 756 Q264 756 282.5 752 Q301 748 317 739 L293 607 L412 670 Q426 658 435.5 641.5 Q445 625 451 606 Q456 589 458.5 570.5 Q461 552 457 533 L323 514 L422 419 Q414 402 401 388 Q388 374 373 363 Q358 352 341 344 Q324 336 305 334 L245 456 L186 334 Q167 336 149.5 344 Q132 352 117 363 Q102 374 89 388 Q76 402 69 419 L167 514 Z " />
<glyph glyph-name="dagger" unicode="&#x2020;" horiz-adv-x="650" d="M235 340 L123 328 L24 328 L24 484 L123 484 L231 472 L229 540 L229 700 L419 700 L419 540 L417 472 L527 484 L627 484 L627 328 L527 328 L413 340 L397 -168 L250 -168 L235 340 Z " />
<glyph glyph-name="daggerdbl" unicode="&#x2021;" horiz-adv-x="670" d="M251 147 L133 134 L34 134 L34 290 L133 290 L247 278 L244 400 L133 388 L34 388 L34 544 L133 544 L240 532 L240 700 L430 700 L430 533 L537 544 L637 544 L637 388 L537 388 L425 400 L422 278 L537 290 L637 290 L637 134 L537 134 L418 147 L408 -168 L261 -168 L251 147 Z " />
<glyph glyph-name="section" unicode="&#xa7;" horiz-adv-x="529" d="M36 98 L198 98 L198 58 Q205 47 222 38 Q239 29 265 29 Q289 29 306.5 38 Q324 47 331 58 L331 98 Q326 109 310 115 Q294 121 274 125 L223 136 Q178 145 145.5 157 Q113 169 90.5 181.5 Q68 194 55 206 Q42 218 36 227 L36 377 Q41 385 51.5 397.5 Q62 410 79 423 Q62 434 51.5 445 Q41 456 36 464 L36 608 Q43 620 59.5 638 Q76 656 103.5 673 Q131 690 171 702.5 Q211 715 265 715 Q319 715 358.5 702.5 Q398 690 425.5 672.5 Q453 655 469 637 Q485 619 493 608 L493 527 L331 527 L331 566 Q324 577 306.5 586.5 Q289 596 264 596 Q239 596 222 586.5 Q205 577 198 566 L198 527 Q203 516 218.5 510 Q234 504 254 499 L305 489 Q350 480 383 468 Q416 456 438.5 443.5 Q461 431 474 419 Q487 407 493 398 L493 248 Q487 239 476.5 226.5 Q466 214 449 201 Q467 190 477.5 179.5 Q488 169 493 161 L493 16 Q486 5 469.5 -13.5 Q453 -32 425.5 -49 Q398 -66 358 -78.5 Q318 -91 264 -91 Q210 -91 170.5 -78 Q131 -65 103.5 -48 Q76 -31 59.5 -13 Q43 5 36 16 L36 98 Z M269 260 Q292 261 308 270 Q324 279 331 290 L331 333 Q326 344 310.5 350.5 Q295 357 275 362 L259 365 Q236 363 220 354.5 Q204 346 198 335 L198 291 Q203 280 218.5 274 Q234 268 254 263 L269 260 Z " />
<glyph glyph-name="paragraph" unicode="&#xb6;" horiz-adv-x="675" d="M493 700 L623 700 L623 -100 L493 -100 L493 700 Z M287 -100 L287 224 L251 224 Q211 224 177.5 233.5 Q144 243 117 259.5 Q90 276 69.5 298 Q49 320 36 344 L36 581 Q70 639 126.5 669.5 Q183 700 251 700 L417 700 L417 -100 L287 -100 Z " />
<glyph glyph-name="asciicircum" unicode="&#x5e;" horiz-adv-x="500" d="M34 444 L171 700 L330 700 L467 444 L467 342 L353 342 L261 525 L241 525 L148 342 L34 342 L34 444 Z " />
<glyph glyph-name="asciitilde" unicode="&#x7e;" horiz-adv-x="586" d="M34 417 Q50 429 71 440 Q89 448 114.5 455.5 Q140 463 172 463 Q208 463 242 455 Q276 447 309 437.5 Q342 428 374.5 420 Q407 412 440 412 Q465 412 485.5 419 Q506 426 521 434 Q539 444 552 456 L552 305 Q539 295 522 288 Q508 281 487.5 276 Q467 271 441 271 Q402 271 368 279 Q334 287 301.5 296.5 Q269 306 237 314 Q205 322 170 322 Q141 322 116 314 Q91 306 73 296 Q52 285 34 271 L34 417 Z " />
<glyph glyph-name="brokenbar" unicode="&#xa6;" horiz-adv-x="319" d="M64 790 L253 790 L253 384 L64 384 L64 790 Z M64 313 L253 313 L253 -129 L64 -129 L64 313 Z " />
<glyph glyph-name="backslash" unicode="&#x5c;" horiz-adv-x="422" d="M34 639 L34 731 L182 731 L387 -18 L387 -110 L239 -110 L34 639 Z " />
<glyph glyph-name="underscore" unicode="&#x5f;" horiz-adv-x="520" d="M-5 -46 L525 -46 L525 -156 L-5 -156 L-5 -46 Z " />
<glyph glyph-name="quotesingle" unicode="&#x27;" horiz-adv-x="212" d="M30 554 L30 700 L182 700 L182 555 L160 416 L52 416 L30 554 Z " />
<glyph glyph-name="quotedbl" unicode="&#x22;" horiz-adv-x="416" d="M30 554 L30 700 L182 700 L182 555 L160 416 L52 416 L30 554 Z M234 554 L234 700 L386 700 L386 555 L364 416 L256 416 L234 554 Z " />
<glyph glyph-name="at" unicode="&#x40;" horiz-adv-x="913" d="M683 -99 Q633 -129 576.5 -145.5 Q520 -162 457 -162 Q385 -162 318.5 -144.5 Q252 -127 196.5 -93.5 Q141 -60 98.5 -12 Q56 36 31 98 L31 455 Q56 516 100.5 564.5 Q145 613 202.5 646.5 Q260 680 326.5 697.5 Q393 715 461 715 Q551 715 623 689 Q695 663 748 624 Q801 585 834.5 539 Q868 493 882 454 L882 105 Q853 69 806 50.5 Q759 32 711 32 Q654 32 614.5 48 Q575 64 547 96 Q521 69 484 50.5 Q447 32 396 32 Q361 32 332.5 43.5 Q304 55 282.5 72.5 Q261 90 247 110.5 Q233 131 227 149 L227 394 Q233 412 246 432.5 Q259 453 279 471 Q299 489 327 500.5 Q355 512 390 512 Q434 512 465 496.5 Q496 481 518 458 L518 498 L672 498 L672 151 Q684 126 723 126 Q741 126 752 132.5 Q763 139 773 150 L773 432 Q762 457 738.5 489.5 Q715 522 676.5 550.5 Q638 579 583.5 598.5 Q529 618 457 618 Q404 618 355.5 606 Q307 594 266 570 Q225 546 193 510.5 Q161 475 141 429 L141 125 Q161 78 193 42.5 Q225 7 266.5 -17 Q308 -41 356.5 -53.5 Q405 -66 457 -66 Q553 -66 629 -23 L683 -99 Z M447 146 Q473 146 490.5 154.5 Q508 163 518 174 L518 369 Q508 380 490 388.5 Q472 397 446 397 Q420 397 404 386.5 Q388 376 383 367 L383 176 Q388 168 404.5 157 Q421 146 447 146 Z " />
<glyph glyph-name="copyright" unicode="&#xa9;" horiz-adv-x="791" d="M193 473 Q200 486 214.5 505 Q229 524 253.5 540.5 Q278 557 312.5 569 Q347 581 394 581 Q440 581 474 570.5 Q508 560 531.5 545.5 Q555 531 569 515.5 Q583 500 589 490 L589 390 L457 390 L457 446 Q451 455 436 464 Q421 473 397 473 Q374 473 358.5 464.5 Q343 456 337 446 L337 253 Q343 243 358.5 234.5 Q374 226 397 226 Q421 226 436 235 Q451 244 457 253 L457 309 L589 309 L589 209 Q583 199 569 184 Q555 169 532 154.5 Q509 140 475 129.5 Q441 119 394 119 Q347 119 312 131 Q277 143 253 159.5 Q229 176 214 194.5 Q199 213 193 227 L193 473 Z M28 350 Q28 426 57 493 Q86 560 136 609 Q186 658 253 686.5 Q320 715 395 715 Q471 715 538 686.5 Q605 658 655 609 Q705 560 734 493 Q763 426 763 350 Q763 273 734 206.5 Q705 140 655 91 Q605 42 538 13.5 Q471 -15 395 -15 Q320 -15 253 13.5 Q186 42 136 91 Q86 140 57 206.5 Q28 273 28 350 Z M395 53 Q457 53 510.5 76 Q564 99 603 139.5 Q642 180 664.5 234 Q687 288 687 350 Q687 412 664.5 466 Q642 520 603 560.5 Q564 601 510.5 624 Q457 647 395 647 Q333 647 280 624 Q227 601 188 560.5 Q149 520 126.5 466 Q104 412 104 350 Q104 288 126.5 234 Q149 180 188 139.5 Q227 99 280 76 Q333 53 395 53 Z " />
<glyph glyph-name="registered" unicode="&#xae;" horiz-adv-x="518" d="M18 585 Q18 634 37 677.5 Q56 721 89 753.5 Q122 786 166 805 Q210 824 259 824 Q308 824 352 805 Q396 786 429 753.5 Q462 721 481 677.5 Q500 634 500 585 Q500 536 481 492.5 Q462 449 429 416.5 Q396 384 352 365 Q308 346 259 346 Q210 346 166 365 Q122 384 89 416.5 Q56 449 37 492.5 Q18 536 18 585 Z M259 393 Q298 393 332.5 408 Q367 423 392.5 449.5 Q418 476 433 511 Q448 546 448 585 Q448 624 433 659 Q418 694 392.5 720.5 Q367 747 332.5 762 Q298 777 259 777 Q219 777 184.5 762 Q150 747 124.5 720.5 Q99 694 84.5 659 Q70 624 70 585 Q70 546 84.5 511 Q99 476 124.5 449.5 Q150 423 184.5 408 Q219 393 259 393 Z M261 539 L231 539 L231 457 L156 457 L156 723 L285 723 Q311 723 336 709 Q361 695 373 670 L373 590 Q360 564 333 550 L371 503 L371 457 L304 457 L261 539 Z M270 596 Q278 596 285.5 599 Q293 602 297 611 L297 650 Q293 658 285.5 661 Q278 664 270 664 L231 664 L231 596 L270 596 Z " />
<glyph glyph-name="trademark" unicode="&#x2122;" horiz-adv-x="814" d="M342 700 L502 700 L557 512 L568 512 L624 700 L776 700 L776 310 L668 310 L668 522 L658 522 L594 310 L524 310 L461 522 L450 522 L450 310 L342 310 L342 700 Z M109 609 L22 609 L22 700 L312 700 L312 609 L225 609 L225 310 L109 310 L109 609 Z " />
<glyph glyph-name="uni2117" unicode="&#x2117;" horiz-adv-x="791" d="M246 562 L447 562 Q491 562 529.5 538 Q568 514 585 475 L585 343 Q568 304 529.5 280 Q491 256 447 256 L368 256 L368 135 L246 135 L246 562 Z M425 346 Q437 346 449.5 352.5 Q462 359 468 373 L468 446 Q462 460 449.5 466 Q437 472 425 472 L368 472 L368 346 L425 346 Z M28 350 Q28 426 57 493 Q86 560 136 609 Q186 658 253 686.5 Q320 715 395 715 Q471 715 538 686.5 Q605 658 655 609 Q705 560 734 493 Q763 426 763 350 Q763 273 734 206.5 Q705 140 655 91 Q605 42 538 13.5 Q471 -15 395 -15 Q320 -15 253 13.5 Q186 42 136 91 Q86 140 57 206.5 Q28 273 28 350 Z M395 53 Q457 53 510.5 76 Q564 99 603 139.5 Q642 180 664.5 234 Q687 288 687 350 Q687 412 664.5 466 Q642 520 603 560.5 Q564 601 510.5 624 Q457 647 395 647 Q333 647 280 624 Q227 601 188 560.5 Q149 520 126.5 466 Q104 412 104 350 Q104 288 126.5 234 Q149 180 188 139.5 Q227 99 280 76 Q333 53 395 53 Z " />
<glyph glyph-name="currency" unicode="&#xa4;" horiz-adv-x="591" d="M46 164 L66 184 Q54 200 48 216 L48 449 Q54 465 66 481 L46 502 L46 587 L161 587 L180 567 Q204 576 232.5 581.5 Q261 587 295 587 Q329 587 358 581.5 Q387 576 411 566 L432 587 L544 587 L544 502 L523 481 Q529 473 533.5 465 Q538 457 542 449 L542 216 Q533 199 524 184 L544 164 L544 80 L432 80 L413 98 Q362 78 295 78 Q228 78 179 98 L161 80 L46 80 L46 164 Z M366 418 Q359 432 340.5 443.5 Q322 455 295 455 Q268 455 250 443.5 Q232 432 224 418 L224 247 Q232 233 250 221.5 Q268 210 295 210 Q322 210 340.5 221.5 Q359 233 366 247 L366 418 Z " />
<glyph glyph-name="Euro" unicode="&#x20ac;" horiz-adv-x="601" d="M70 244 L26 244 L26 330 L70 330 L70 376 L26 376 L26 462 L70 462 L70 581 Q79 601 100 624.5 Q121 648 153 668 Q185 688 228.5 701.5 Q272 715 327 715 Q382 715 424 702 Q466 689 495.5 671 Q525 653 543 634 Q561 615 569 603 L569 504 L401 504 L401 541 Q395 556 374.5 567.5 Q354 579 327 579 Q300 579 280 567.5 Q260 556 252 541 L252 462 L458 462 L458 376 L252 376 L252 330 L458 330 L458 244 L252 244 L252 159 Q260 144 280 133 Q300 122 327 122 Q354 122 374.5 133 Q395 144 401 159 L401 196 L569 196 L569 97 Q562 86 544 67 Q526 48 496 30 Q466 12 424 -1.5 Q382 -15 327 -15 Q272 -15 228.5 -1.5 Q185 12 153 32 Q121 52 100 75.5 Q79 99 70 119 L70 244 Z " />
<glyph glyph-name="dollar" unicode="&#x24;" horiz-adv-x="596" d="M227 -8 Q185 0 153.5 15.5 Q122 31 99.5 49.5 Q77 68 62.5 86.5 Q48 105 41 119 L41 227 L224 227 L224 159 Q230 147 248 134.5 Q266 122 298 122 Q330 122 348.5 134.5 Q367 147 373 159 L373 239 Q366 252 354 261.5 Q342 271 311 279 L268 288 Q210 300 170.5 315 Q131 330 105 347 Q79 364 64.5 381.5 Q50 399 41 415 L41 581 Q47 594 61 612 Q75 630 98 649 Q121 668 153 684 Q185 700 227 708 L227 791 L370 791 L370 708 Q412 700 444 684 Q476 668 498.5 649 Q521 630 535 612 Q549 594 555 581 L555 478 L373 478 L373 541 Q367 553 348.5 566 Q330 579 298 579 Q266 579 247.5 565.5 Q229 552 224 541 L224 476 Q229 465 241.5 454.5 Q254 444 286 436 L328 427 Q386 415 425.5 400 Q465 385 490.5 368 Q516 351 531 333 Q546 315 555 299 L555 119 Q548 105 533.5 86.5 Q519 68 496.5 49.5 Q474 31 443 15.5 Q412 0 370 -8 L370 -91 L227 -91 L227 -8 Z " />
<glyph glyph-name="cent" unicode="&#xa2;" horiz-adv-x="548" d="M213 -8 Q175 -1 145.5 14 Q116 29 94.5 47 Q73 65 58.5 84.5 Q44 104 37 122 L37 422 Q44 440 58.5 459.5 Q73 479 94.5 497 Q116 515 145.5 530 Q175 545 213 553 L213 635 L356 635 L356 552 Q392 544 419.5 530 Q447 516 466.5 500.5 Q486 485 498.5 470 Q511 455 517 445 L517 325 L355 325 L355 390 Q348 405 329 416.5 Q310 428 283 428 Q256 428 238 416.5 Q220 405 213 390 L213 154 Q220 140 238 128.5 Q256 117 283 117 Q310 117 329 128.5 Q348 140 355 154 L355 219 L517 219 L517 99 Q512 89 499.5 74 Q487 59 467.5 43.5 Q448 28 420 14 Q392 0 356 -7 L356 -91 L213 -91 L213 -8 Z " />
<glyph glyph-name="sterling" unicode="&#xa3;" horiz-adv-x="608" d="M37 119 Q46 121 57 128 Q68 135 73 150 L73 295 L29 295 L29 397 L73 397 L73 581 Q82 600 102.5 623.5 Q123 647 155 667 Q187 687 230.5 701 Q274 715 329 715 Q384 715 426.5 701.5 Q469 688 499 670 Q529 652 547 633 Q565 614 572 603 L572 496 L404 496 L404 541 Q397 556 376.5 567.5 Q356 579 329 579 Q302 579 282 567 Q262 555 255 541 L255 397 L473 397 L473 295 L255 295 L255 192 Q250 179 243 166 Q236 153 226 141 L572 141 L572 0 L37 0 L37 119 Z " />
<glyph glyph-name="florin" unicode="&#x192;" horiz-adv-x="416" d="M8 -50 L49 -50 Q81 -50 93 -41 Q105 -32 109 -24 L109 390 L62 390 L62 516 L109 516 L109 617 Q115 634 128 651.5 Q141 669 162 683 Q183 697 212.5 705.5 Q242 714 282 714 Q317 714 345 709.5 Q373 705 386 701 L386 584 L345 584 Q313 584 301 574.5 Q289 565 285 557 L285 516 L386 516 L386 390 L285 390 L285 -83 Q279 -100 266 -117.5 Q253 -135 232 -149 Q211 -163 181.5 -172 Q152 -181 112 -181 Q77 -181 49 -176.5 Q21 -172 8 -167 L8 -50 Z " />
<glyph glyph-name="yen" unicode="&#xa5;" horiz-adv-x="609" d="M205 197 L28 197 L28 282 L205 282 L205 285 L171 346 L28 346 L28 431 L125 431 L28 608 L28 700 L210 700 L305 485 L322 485 L417 700 L581 700 L581 608 L484 431 L581 431 L581 346 L438 346 L403 282 L581 282 L581 197 L395 197 L395 0 L205 0 L205 197 Z " />
<glyph glyph-name="uni20A8" unicode="&#x20a8;" horiz-adv-x="511" d="M41 250 L41 361 L170 361 Q193 361 214.5 371 Q236 381 244 401 L244 425 L41 425 L41 511 L244 511 L244 537 Q235 556 214 566.5 Q193 577 170 577 L41 577 L41 700 L494 700 L494 614 L402 614 Q409 606 415.5 597 Q422 588 427 578 L427 511 L494 511 L494 425 L427 425 L427 374 Q403 327 359.5 296.5 Q316 266 264 255 L426 92 L426 0 L262 0 L41 250 Z " />
<glyph glyph-name="uni20BA" unicode="&#x20ba;" horiz-adv-x="598" d="M24 429 L84 458 L84 700 L266 700 L266 546 L430 626 L430 528 L266 448 L266 388 L430 468 L430 370 L266 290 L266 137 L337 137 Q364 137 384 148.5 Q404 160 411 174 L411 254 L579 254 L579 112 Q572 101 554 82 Q536 63 506 45 Q476 27 434 13.5 Q392 0 337 0 L84 0 L84 202 L24 173 L24 271 L84 300 L84 360 L24 331 L24 429 Z " />
<glyph glyph-name="uni20BD" unicode="&#x20bd;" horiz-adv-x="617" d="M20 387 L65 387 L65 700 L372 700 Q441 700 497 669.5 Q553 639 587 581 L587 384 Q574 360 553.5 338.5 Q533 317 506 300.5 Q479 284 445.5 274.5 Q412 265 372 265 L255 265 L255 214 L487 214 L487 129 L255 129 L255 0 L65 0 L65 129 L20 129 L20 214 L65 214 L65 265 L20 265 L20 387 Z M255 387 L329 387 Q355 387 374.5 396.5 Q394 406 404 425 L404 523 Q393 543 372.5 552 Q352 561 329 561 L255 561 L255 387 Z " />
<glyph glyph-name="ordfeminine" unicode="&#xaa;" horiz-adv-x="417" d="M46 500 Q50 507 59 518 Q68 529 82 538.5 Q96 548 116.5 555 Q137 562 164 562 Q196 562 220.5 553.5 Q245 545 264 532 L264 601 Q258 616 242.5 626 Q227 636 204 636 Q181 636 168 627 Q155 618 150 611 L150 588 L52 588 L52 640 Q57 648 68 660 Q79 672 97 683.5 Q115 695 141.5 703.5 Q168 712 204 712 Q240 712 268 703 Q296 694 316.5 680 Q337 666 350.5 649 Q364 632 370 615 L370 354 L267 354 L267 377 Q248 363 222.5 354 Q197 345 164 345 Q137 345 116.5 351 Q96 357 81.5 365.5 Q67 374 58.5 383.5 Q50 393 46 400 L46 500 Z M148 432 Q151 425 163.5 417.5 Q176 410 200 410 Q223 410 239.5 416 Q256 422 264 431 L264 474 Q256 483 239.5 490 Q223 497 200 497 Q176 497 164.5 489.5 Q153 482 148 475 L148 432 Z " />
<glyph glyph-name="ordmasculine" unicode="&#xba;" horiz-adv-x="422" d="M45 615 Q52 632 65 649 Q78 666 98.5 680 Q119 694 147 703 Q175 712 211 712 Q247 712 275 703 Q303 694 323.5 680 Q344 666 357.5 649 Q371 632 377 615 L377 441 Q371 424 357.5 407 Q344 390 323.5 376 Q303 362 275 353.5 Q247 345 211 345 Q175 345 147 353.5 Q119 362 98.5 376 Q78 390 65 407 Q52 424 45 441 L45 615 Z M271 601 Q266 615 250 625.5 Q234 636 211 636 Q187 636 172 625.5 Q157 615 151 601 L151 454 Q157 441 172 431.5 Q187 422 211 422 Q234 422 250 431.5 Q266 441 271 454 L271 601 Z " />
<glyph glyph-name="numbersign" unicode="&#x23;" horiz-adv-x="563" d="M55 92 L69 184 L24 184 L24 309 L89 309 L104 399 L59 399 L59 524 L124 524 L152 700 L275 700 L275 608 L261 524 L356 524 L384 700 L507 700 L507 608 L493 524 L539 524 L539 399 L474 399 L459 309 L505 309 L505 184 L439 184 L410 0 L287 0 L287 92 L301 184 L206 184 L177 0 L55 0 L55 92 Z M321 309 L336 399 L241 399 L226 309 L321 309 Z " />
<glyph glyph-name="uni2116" unicode="&#x2116;" horiz-adv-x="1040" d="M629 600 Q636 616 651 635 Q666 654 689.5 670.5 Q713 687 745.5 697.5 Q778 708 822 708 Q865 708 898 697.5 Q931 687 954.5 670.5 Q978 654 992.5 635 Q1007 616 1015 600 L1015 444 Q1007 428 992.5 409 Q978 390 954.5 374 Q931 358 898 347.5 Q865 337 822 337 Q778 337 745.5 347.5 Q713 358 689.5 374 Q666 390 651 409 Q636 428 629 444 L629 600 Z M761 468 Q768 457 782.5 447 Q797 437 822 437 Q846 437 861.5 447 Q877 457 883 468 L883 576 Q877 588 861.5 598 Q846 608 822 608 Q797 608 782.5 598 Q768 588 761 576 L761 468 Z M50 700 L255 700 L379 332 L397 332 L397 700 L573 700 L573 0 L368 0 L244 367 L226 367 L226 0 L50 0 L50 700 Z M629 301 L1015 301 L1015 194 L629 194 L629 301 Z " />
<glyph glyph-name="zero" unicode="0" horiz-adv-x="596" d="M41 581 Q51 601 71.5 624.5 Q92 648 124 668 Q156 688 199.5 701.5 Q243 715 298 715 Q353 715 396.5 701.5 Q440 688 472 668 Q504 648 524.5 624.5 Q545 601 555 581 L555 119 Q545 99 524.5 75.5 Q504 52 472 32 Q440 12 396.5 -1.5 Q353 -15 298 -15 Q243 -15 199.5 -1.5 Q156 12 124 32 Q92 52 71.5 75.5 Q51 99 41 119 L41 581 Z M373 541 Q366 556 345.5 567.5 Q325 579 298 579 Q271 579 251 567.5 Q231 556 224 541 L224 159 Q231 144 251 133 Q271 122 298 122 Q325 122 345.5 133 Q366 144 373 159 L373 541 Z " />
<glyph glyph-name="one" unicode="1" horiz-adv-x="443" d="M41 121 L143 121 L143 526 L41 491 L41 617 L189 700 L325 700 L325 121 L422 121 L422 0 L41 0 L41 121 Z " />
<glyph glyph-name="two" unicode="2" horiz-adv-x="573" d="M36 135 L298 383 Q324 408 337.5 422 Q351 436 353 444 L353 541 Q345 556 325.5 567.5 Q306 579 278 579 Q251 579 232 568 Q213 557 206 545 L206 455 L38 455 L38 607 Q46 618 63.5 636 Q81 654 110.5 671.5 Q140 689 181.5 702 Q223 715 278 715 Q333 715 376.5 701.5 Q420 688 452 668 Q484 648 504.5 624.5 Q525 601 535 581 L535 404 Q530 392 513.5 371.5 Q497 351 470 327 L278 153 L278 145 L537 145 L537 0 L36 0 L36 135 Z " />
<glyph glyph-name="three" unicode="3" horiz-adv-x="574" d="M36 216 L204 216 L204 159 Q211 145 231 133.5 Q251 122 278 122 Q306 122 325.5 133.5 Q345 145 352 159 L352 247 Q346 266 326.5 279.5 Q307 293 279 293 L184 293 L184 422 L276 422 Q303 422 322 435 Q341 448 348 461 L348 545 Q341 558 322 568.5 Q303 579 276 579 Q249 579 229.5 568 Q210 557 204 545 L204 490 L36 490 L36 607 Q43 618 61 636 Q79 654 108.5 671.5 Q138 689 179.5 702 Q221 715 276 715 Q331 715 374 701.5 Q417 688 449 668 Q481 648 501.5 625.5 Q522 603 531 585 L531 435 Q522 420 497 400.5 Q472 381 439 364 Q474 347 499 323 Q524 299 535 278 L535 119 Q526 100 505.5 76.5 Q485 53 453 33 Q421 13 377 -1 Q333 -15 278 -15 Q223 -15 181 -2 Q139 11 109 29 Q79 47 61 66 Q43 85 36 97 L36 216 Z " />
<glyph glyph-name="four" unicode="4" horiz-adv-x="603" d="M22 270 L250 700 L516 700 L516 275 L586 275 L586 136 L516 136 L516 0 L342 0 L342 136 L22 136 L22 270 Z M342 275 L342 531 L324 531 L188 275 L342 275 Z " />
<glyph glyph-name="five" unicode="5" horiz-adv-x="562" d="M40 206 L208 206 L208 159 Q216 145 236 133.5 Q256 122 283 122 Q310 122 330 133 Q350 144 357 159 L357 296 Q350 310 331 321.5 Q312 333 283 333 Q254 333 236.5 322.5 Q219 312 212 303 L212 278 L44 278 L44 700 L523 700 L523 554 L212 554 L212 414 Q237 434 269.5 445.5 Q302 457 344 457 Q379 457 408.5 448 Q438 439 461 424.5 Q484 410 500 391.5 Q516 373 525 354 L525 97 Q517 84 498.5 65 Q480 46 450.5 28 Q421 10 379.5 -2.5 Q338 -15 283 -15 Q228 -15 186.5 -2.5 Q145 10 115.5 28 Q86 46 67.5 65 Q49 84 40 97 L40 206 Z " />
<glyph glyph-name="six" unicode="6" horiz-adv-x="581" d="M41 581 Q51 602 72 625.5 Q93 649 124.5 669 Q156 689 199.5 702 Q243 715 298 715 Q353 715 394.5 702.5 Q436 690 466 672 Q496 654 514 635 Q532 616 541 603 L541 490 L373 490 L373 541 Q366 556 345.5 567.5 Q325 579 298 579 Q271 579 251 567.5 Q231 556 224 541 L224 396 Q250 418 283 431.5 Q316 445 359 445 Q394 445 423.5 436.5 Q453 428 476 413.5 Q499 399 515.5 380.5 Q532 362 541 342 L541 97 Q533 85 515 66 Q497 47 467 29 Q437 11 395 -2 Q353 -15 298 -15 Q243 -15 199.5 -1.5 Q156 12 124 32 Q92 52 71.5 75.5 Q51 99 41 119 L41 581 Z M224 159 Q231 145 251 133.5 Q271 122 298 122 Q325 122 345.5 133.5 Q366 145 373 159 L373 284 Q366 298 345.5 309.5 Q325 321 296 321 Q275 321 258 315.5 Q241 310 224 299 L224 159 Z " />
<glyph glyph-name="seven" unicode="7" horiz-adv-x="513" d="M105 102 L305 538 L305 554 L15 554 L15 700 L489 700 L489 568 L262 0 L105 0 L105 102 Z " />
<glyph glyph-name="eight" unicode="8" horiz-adv-x="587" d="M37 271 Q47 291 68 315.5 Q89 340 124 361 Q95 378 78 396 Q61 414 53 425 L53 607 Q61 618 78.5 636 Q96 654 125.5 671.5 Q155 689 196.5 702 Q238 715 293 715 Q348 715 390 702 Q432 689 461 671.5 Q490 654 508 635.5 Q526 617 534 607 L534 425 Q526 415 508.5 397 Q491 379 462 361 Q497 341 518 316 Q539 291 550 271 L550 119 Q541 99 520.5 75.5 Q500 52 468 32 Q436 12 392 -1.5 Q348 -15 293 -15 Q238 -15 194.5 -1.5 Q151 12 119 32 Q87 52 66.5 75.5 Q46 99 37 119 L37 271 Z M219 159 Q226 145 246 133.5 Q266 122 293 122 Q321 122 341 133.5 Q361 145 368 159 L368 265 Q361 279 341 291 Q321 303 293 303 Q266 303 246 291 Q226 279 219 265 L219 159 Z M221 449 Q229 438 247.5 427 Q266 416 293 416 Q321 416 340 427 Q359 438 366 449 L366 546 Q359 557 340 568 Q321 579 293 579 Q266 579 247.5 568 Q229 557 221 546 L221 449 Z " />
<glyph glyph-name="nine" unicode="9" horiz-adv-x="578" d="M38 203 L206 203 L206 159 Q213 145 233 133.5 Q253 122 280 122 Q308 122 327.5 133.5 Q347 145 355 159 L355 293 Q329 271 295.5 257.5 Q262 244 220 244 Q185 244 155.5 253 Q126 262 103 276 Q80 290 63.5 308.5 Q47 327 38 347 L38 603 Q45 615 63.5 634 Q82 653 111.5 671 Q141 689 183 702 Q225 715 280 715 Q335 715 379 701.5 Q423 688 455 668 Q487 648 507.5 624.5 Q528 601 537 581 L537 119 Q527 98 506.5 74.5 Q486 51 454 31 Q422 11 378.5 -2 Q335 -15 280 -15 Q225 -15 183.5 -2.5 Q142 10 112.5 28 Q83 46 65 65 Q47 84 38 97 L38 203 Z M355 541 Q347 556 327.5 567.5 Q308 579 280 579 Q253 579 233 567.5 Q213 556 206 541 L206 405 Q213 391 233.5 379.5 Q254 368 283 368 Q323 368 355 390 L355 541 Z " />
<glyph glyph-name="zero.superior" unicode="&#x2070;" horiz-adv-x="436" d="M43 629 Q50 640 64 654 Q78 668 99.5 680.5 Q121 693 150.5 701.5 Q180 710 218 710 Q255 710 284.5 701.5 Q314 693 336 680.5 Q358 668 372 654 Q386 640 393 629 L393 352 Q386 340 372 326 Q358 312 336 300 Q314 288 284.5 279.5 Q255 271 218 271 Q180 271 150.5 279.5 Q121 288 99.5 300 Q78 312 64 326 Q50 340 43 352 L43 629 Z M268 603 Q263 609 249.5 614.5 Q236 620 218 620 Q199 620 186 614.5 Q173 609 168 603 L168 377 Q173 371 186 365.5 Q199 360 218 360 Q236 360 249.5 365.5 Q263 371 268 377 L268 603 Z " />
<glyph glyph-name="one.superior" unicode="&#xb9;" horiz-adv-x="322" d="M37 361 L105 361 L105 599 L37 597 L37 671 L124 700 L229 700 L229 361 L294 361 L294 280 L37 280 L37 361 Z " />
<glyph glyph-name="two.superior" unicode="&#xb2;" horiz-adv-x="420" d="M40 371 L218 512 Q235 526 244 534 Q253 542 255 546 L255 603 Q250 609 237 614.5 Q224 620 205 620 Q186 620 173.5 614.5 Q161 609 156 604 L156 549 L41 549 L41 645 Q46 651 58.5 661.5 Q71 672 91 683 Q111 694 139 702 Q167 710 205 710 Q243 710 272.5 701.5 Q302 693 323.5 680.5 Q345 668 359 654 Q373 640 380 629 L380 519 Q373 506 335 479 L204 384 L204 379 L381 379 L381 280 L40 280 L40 371 Z " />
<glyph glyph-name="three.superior" unicode="&#xb3;" horiz-adv-x="421" d="M39 412 L154 412 L154 377 Q159 371 172.5 365.5 Q186 360 205 360 Q223 360 236.5 365.5 Q250 371 255 377 L255 428 Q250 437 237 443 Q224 449 205 449 L140 449 L140 537 L203 537 Q221 537 234 543 Q247 549 252 555 L252 604 Q247 610 234 615 Q221 620 203 620 Q185 620 172 614.5 Q159 609 154 604 L154 571 L39 571 L39 645 Q44 651 56.5 662 Q69 673 89 683.5 Q109 694 137 702 Q165 710 203 710 Q240 710 269.5 701.5 Q299 693 321 680.5 Q343 668 356.5 654 Q370 640 376 629 L376 538 Q371 529 354.5 518 Q338 507 315 497 Q338 487 355 474 Q372 461 380 449 L380 352 Q374 341 360 327 Q346 313 324 300.5 Q302 288 272.5 279.5 Q243 271 205 271 Q167 271 138.5 279 Q110 287 89.5 297.5 Q69 308 56.5 319 Q44 330 39 336 L39 412 Z " />
<glyph glyph-name="four.superior" unicode="&#x2074;" horiz-adv-x="441" d="M30 445 L185 700 L366 700 L366 449 L414 449 L414 357 L366 357 L366 280 L247 280 L247 357 L30 357 L30 445 Z M247 449 L247 590 L235 590 L146 449 L247 449 Z " />
<glyph glyph-name="five.superior" unicode="&#x2075;" horiz-adv-x="412" d="M43 404 L158 404 L158 377 Q163 371 176 365.5 Q189 360 208 360 Q226 360 239.5 365.5 Q253 371 258 377 L258 453 Q253 460 240 465 Q227 470 208 470 Q188 470 176.5 465 Q165 460 160 455 L160 439 L45 439 L45 700 L371 700 L371 601 L160 601 L160 527 Q177 539 198.5 546.5 Q220 554 249 554 Q297 554 329 536 Q361 518 372 495 L372 336 Q367 329 354.5 318 Q342 307 322 296.5 Q302 286 273.5 278.5 Q245 271 208 271 Q170 271 142 278.5 Q114 286 94 296.5 Q74 307 61.5 318 Q49 329 43 336 L43 404 Z " />
<glyph glyph-name="six.superior" unicode="&#x2076;" horiz-adv-x="426" d="M43 629 Q50 641 64 655 Q78 669 100 681.5 Q122 694 151 702 Q180 710 218 710 Q255 710 283.5 702 Q312 694 332.5 683.5 Q353 673 365.5 662 Q378 651 383 644 L383 572 L268 572 L268 603 Q263 609 249.5 614.5 Q236 620 218 620 Q199 620 186 614.5 Q173 609 168 603 L168 517 Q185 531 208 539.5 Q231 548 260 548 Q308 548 339.5 530 Q371 512 383 489 L383 336 Q378 330 365.5 319 Q353 308 333 297.5 Q313 287 284 279 Q255 271 218 271 Q180 271 150.5 279 Q121 287 99.5 299.5 Q78 312 64 326 Q50 340 43 352 L43 629 Z M168 377 Q173 371 186 365.5 Q199 360 218 360 Q236 360 249.5 365.5 Q263 371 268 377 L268 447 Q263 454 249.5 459 Q236 464 217 464 Q203 464 191 461 Q179 458 168 453 L168 377 Z " />
<glyph glyph-name="seven.superior" unicode="&#x2077;" horiz-adv-x="380" d="M85 349 L220 595 L220 601 L27 601 L27 700 L350 700 L350 616 L198 280 L85 280 L85 349 Z " />
<glyph glyph-name="eight.superior" unicode="&#x2078;" horiz-adv-x="425" d="M38 446 Q44 457 57.5 470.5 Q71 484 92 497 Q75 507 64.5 516.5 Q54 526 49 532 L49 645 Q54 651 66 662 Q78 673 98 683.5 Q118 694 146.5 702 Q175 710 213 710 Q251 710 279.5 702 Q308 694 328 683 Q348 672 360 661.5 Q372 651 377 645 L377 532 Q372 527 361 517 Q350 507 333 497 Q354 485 367 471 Q380 457 388 446 L388 352 Q381 340 367 326 Q353 312 331.5 299.5 Q310 287 280.5 279 Q251 271 213 271 Q175 271 145.5 279 Q116 287 94 299.5 Q72 312 58 326 Q44 340 38 352 L38 446 Z M162 377 Q167 371 180.5 365.5 Q194 360 213 360 Q231 360 244.5 365.5 Q258 371 263 377 L263 440 Q258 446 244.5 451.5 Q231 457 213 457 Q194 457 180.5 451.5 Q167 446 162 440 L162 377 Z M164 549 Q169 544 181.5 539 Q194 534 213 534 Q231 534 243.5 539 Q256 544 261 549 L261 604 Q256 609 243.5 614.5 Q231 620 213 620 Q194 620 181.5 614.5 Q169 609 164 604 L164 549 Z " />
<glyph glyph-name="nine.superior" unicode="&#x2079;" horiz-adv-x="424" d="M41 404 L156 404 L156 377 Q160 371 173.5 365.5 Q187 360 206 360 Q224 360 237.5 365.5 Q251 371 256 377 L256 455 Q239 441 216.5 432.5 Q194 424 165 424 Q117 424 85 442.5 Q53 461 41 484 L41 644 Q45 650 57.5 661 Q70 672 90.5 683 Q111 694 139.5 702 Q168 710 206 710 Q243 710 273 701.5 Q303 693 324.5 680.5 Q346 668 360.5 654 Q375 640 381 629 L381 352 Q374 339 360 325 Q346 311 324 299 Q302 287 272.5 279 Q243 271 206 271 Q168 271 140 278.5 Q112 286 92 296.5 Q72 307 59.5 318 Q47 329 41 336 L41 404 Z M156 525 Q160 519 174 513.5 Q188 508 208 508 Q235 508 256 518 L256 603 Q251 609 237.5 614.5 Q224 620 206 620 Q187 620 173.5 614.5 Q160 609 156 603 L156 525 Z " />
<glyph glyph-name="uni00A0" unicode="&#xa0;" horiz-adv-x="202" d="" />
<glyph glyph-name="fraction" unicode="&#x2044;" horiz-adv-x="199" d="M-174 70 L299 700 L373 700 L373 630 L-99 0 L-174 0 L-174 70 Z " />
<glyph glyph-name="onequarter" unicode="&#xbc;" horiz-adv-x="927" d="M186 70 L659 700 L733 700 L733 630 L261 0 L186 0 L186 70 Z M40 361 L108 361 L108 599 L40 597 L40 671 L127 700 L232 700 L232 361 L297 361 L297 280 L40 280 L40 361 Z M503 166 L658 421 L839 421 L839 170 L887 170 L887 78 L839 78 L839 1 L720 1 L720 78 L503 78 L503 166 Z M720 170 L720 311 L708 311 L619 170 L720 170 Z " />
<glyph glyph-name="onehalf" unicode="&#xbd;" horiz-adv-x="974" d="M40 361 L108 361 L108 599 L40 597 L40 671 L127 700 L232 700 L232 361 L297 361 L297 280 L40 280 L40 361 Z M186 70 L659 700 L733 700 L733 630 L261 0 L186 0 L186 70 Z M593 92 L771 233 Q788 247 797 255 Q806 263 808 267 L808 324 Q803 330 790 335.5 Q777 341 758 341 Q739 341 726.5 335.5 Q714 330 709 325 L709 270 L594 270 L594 366 Q599 372 611.5 382.5 Q624 393 644 404 Q664 415 692 423 Q720 431 758 431 Q796 431 825.5 422.5 Q855 414 876.5 401.5 Q898 389 912 375 Q926 361 933 350 L933 240 Q926 227 888 200 L757 105 L757 100 L934 100 L934 1 L593 1 L593 92 Z " />
<glyph glyph-name="threequarters" unicode="&#xbe;" horiz-adv-x="971" d="M235 70 L708 700 L782 700 L782 630 L310 0 L235 0 L235 70 Z M547 166 L702 421 L883 421 L883 170 L931 170 L931 78 L883 78 L883 1 L764 1 L764 78 L547 78 L547 166 Z M764 170 L764 311 L752 311 L663 170 L764 170 Z M40 412 L155 412 L155 377 Q160 371 173.5 365.5 Q187 360 206 360 Q224 360 237.5 365.5 Q251 371 256 377 L256 428 Q251 437 238 443 Q225 449 206 449 L141 449 L141 537 L204 537 Q222 537 235 543 Q248 549 253 555 L253 604 Q248 610 235 615 Q222 620 204 620 Q186 620 173 614.5 Q160 609 155 604 L155 571 L40 571 L40 645 Q45 651 57.5 662 Q70 673 90 683.5 Q110 694 138 702 Q166 710 204 710 Q241 710 270.5 701.5 Q300 693 322 680.5 Q344 668 357.5 654 Q371 640 377 629 L377 538 Q372 529 355.5 518 Q339 507 316 497 Q339 487 356 474 Q373 461 381 449 L381 352 Q375 341 361 327 Q347 313 325 300.5 Q303 288 273.5 279.5 Q244 271 206 271 Q168 271 139.5 279 Q111 287 90.5 297.5 Q70 308 57.5 319 Q45 330 40 336 L40 412 Z " />
<glyph glyph-name="fiveeighths" unicode="&#x215d;" horiz-adv-x="1032" d="M240 70 L713 700 L787 700 L787 630 L315 0 L240 0 L240 70 Z M41 404 L156 404 L156 377 Q161 371 174 365.5 Q187 360 206 360 Q224 360 237.5 365.5 Q251 371 256 377 L256 453 Q251 460 238 465 Q225 470 206 470 Q186 470 174.5 465 Q163 460 158 455 L158 439 L43 439 L43 700 L369 700 L369 601 L158 601 L158 527 Q175 539 196.5 546.5 Q218 554 247 554 Q295 554 327 536 Q359 518 370 495 L370 336 Q365 329 352.5 318 Q340 307 320 296.5 Q300 286 271.5 278.5 Q243 271 206 271 Q168 271 140 278.5 Q112 286 92 296.5 Q72 307 59.5 318 Q47 329 41 336 L41 404 Z M642 167 Q648 178 661.5 191.5 Q675 205 696 218 Q679 228 668.5 237.5 Q658 247 653 253 L653 366 Q658 372 670 383 Q682 394 702 404.5 Q722 415 750.5 423 Q779 431 817 431 Q855 431 883.5 423 Q912 415 932 404 Q952 393 964 382.5 Q976 372 981 366 L981 253 Q976 248 965 238 Q954 228 937 218 Q958 206 971 192 Q984 178 992 167 L992 73 Q985 61 971 47 Q957 33 935.5 20.5 Q914 8 884.5 0 Q855 -8 817 -8 Q779 -8 749.5 0 Q720 8 698 20.5 Q676 33 662 47 Q648 61 642 73 L642 167 Z M766 98 Q771 92 784.5 86.5 Q798 81 817 81 Q835 81 848.5 86.5 Q862 92 867 98 L867 161 Q862 167 848.5 172.5 Q835 178 817 178 Q798 178 784.5 172.5 Q771 167 766 161 L766 98 Z M768 270 Q773 265 785.5 260 Q798 255 817 255 Q835 255 847.5 260 Q860 265 865 270 L865 325 Q860 330 847.5 335.5 Q835 341 817 341 Q798 341 785.5 335.5 Q773 330 768 325 L768 270 Z " />
<glyph glyph-name="oneeighth" unicode="&#x215b;" horiz-adv-x="988" d="M196 70 L669 700 L743 700 L743 630 L271 0 L196 0 L196 70 Z M40 361 L108 361 L108 599 L40 597 L40 671 L127 700 L232 700 L232 361 L297 361 L297 280 L40 280 L40 361 Z M598 167 Q604 178 617.5 191.5 Q631 205 652 218 Q635 228 624.5 237.5 Q614 247 609 253 L609 366 Q614 372 626 383 Q638 394 658 404.5 Q678 415 706.5 423 Q735 431 773 431 Q811 431 839.5 423 Q868 415 888 404 Q908 393 920 382.5 Q932 372 937 366 L937 253 Q932 248 921 238 Q910 228 893 218 Q914 206 927 192 Q940 178 948 167 L948 73 Q941 61 927 47 Q913 33 891.5 20.5 Q870 8 840.5 0 Q811 -8 773 -8 Q735 -8 705.5 0 Q676 8 654 20.5 Q632 33 618 47 Q604 61 598 73 L598 167 Z M722 98 Q727 92 740.5 86.5 Q754 81 773 81 Q791 81 804.5 86.5 Q818 92 823 98 L823 161 Q818 167 804.5 172.5 Q791 178 773 178 Q754 178 740.5 172.5 Q727 167 722 161 L722 98 Z M724 270 Q729 265 741.5 260 Q754 255 773 255 Q791 255 803.5 260 Q816 265 821 270 L821 325 Q816 330 803.5 335.5 Q791 341 773 341 Q754 341 741.5 335.5 Q729 330 724 325 L724 270 Z " />
<glyph glyph-name="seveneighths" unicode="&#x215e;" horiz-adv-x="968" d="M176 70 L649 700 L723 700 L723 630 L251 0 L176 0 L176 70 Z M98 349 L233 595 L233 601 L40 601 L40 700 L363 700 L363 616 L211 280 L98 280 L98 349 Z M578 167 Q584 178 597.5 191.5 Q611 205 632 218 Q615 228 604.5 237.5 Q594 247 589 253 L589 366 Q594 372 606 383 Q618 394 638 404.5 Q658 415 686.5 423 Q715 431 753 431 Q791 431 819.5 423 Q848 415 868 404 Q888 393 900 382.5 Q912 372 917 366 L917 253 Q912 248 901 238 Q890 228 873 218 Q894 206 907 192 Q920 178 928 167 L928 73 Q921 61 907 47 Q893 33 871.5 20.5 Q850 8 820.5 0 Q791 -8 753 -8 Q715 -8 685.5 0 Q656 8 634 20.5 Q612 33 598 47 Q584 61 578 73 L578 167 Z M702 98 Q707 92 720.5 86.5 Q734 81 753 81 Q771 81 784.5 86.5 Q798 92 803 98 L803 161 Q798 167 784.5 172.5 Q771 178 753 178 Q734 178 720.5 172.5 Q707 167 702 161 L702 98 Z M704 270 Q709 265 721.5 260 Q734 255 753 255 Q771 255 783.5 260 Q796 265 801 270 L801 325 Q796 330 783.5 335.5 Q771 341 753 341 Q734 341 721.5 335.5 Q709 330 704 325 L704 270 Z " />
<glyph glyph-name="threeeighths" unicode="&#x215c;" horiz-adv-x="1027" d="M637 167 Q643 178 656.5 191.5 Q670 205 691 218 Q674 228 663.5 237.5 Q653 247 648 253 L648 366 Q653 372 665 383 Q677 394 697 404.5 Q717 415 745.5 423 Q774 431 812 431 Q850 431 878.5 423 Q907 415 927 404 Q947 393 959 382.5 Q971 372 976 366 L976 253 Q971 248 960 238 Q949 228 932 218 Q953 206 966 192 Q979 178 987 167 L987 73 Q980 61 966 47 Q952 33 930.5 20.5 Q909 8 879.5 0 Q850 -8 812 -8 Q774 -8 744.5 0 Q715 8 693 20.5 Q671 33 657 47 Q643 61 637 73 L637 167 Z M761 98 Q766 92 779.5 86.5 Q793 81 812 81 Q830 81 843.5 86.5 Q857 92 862 98 L862 161 Q857 167 843.5 172.5 Q830 178 812 178 Q793 178 779.5 172.5 Q766 167 761 161 L761 98 Z M763 270 Q768 265 780.5 260 Q793 255 812 255 Q830 255 842.5 260 Q855 265 860 270 L860 325 Q855 330 842.5 335.5 Q830 341 812 341 Q793 341 780.5 335.5 Q768 330 763 325 L763 270 Z M40 412 L155 412 L155 377 Q160 371 173.5 365.5 Q187 360 206 360 Q224 360 237.5 365.5 Q251 371 256 377 L256 428 Q251 437 238 443 Q225 449 206 449 L141 449 L141 537 L204 537 Q222 537 235 543 Q248 549 253 555 L253 604 Q248 610 235 615 Q222 620 204 620 Q186 620 173 614.5 Q160 609 155 604 L155 571 L40 571 L40 645 Q45 651 57.5 662 Q70 673 90 683.5 Q110 694 138 702 Q166 710 204 710 Q241 710 270.5 701.5 Q300 693 322 680.5 Q344 668 357.5 654 Q371 640 377 629 L377 538 Q372 529 355.5 518 Q339 507 316 497 Q339 487 356 474 Q373 461 381 449 L381 352 Q375 341 361 327 Q347 313 325 300.5 Q303 288 273.5 279.5 Q244 271 206 271 Q168 271 139.5 279 Q111 287 90.5 297.5 Q70 308 57.5 319 Q45 330 40 336 L40 412 Z M235 70 L708 700 L782 700 L782 630 L310 0 L235 0 L235 70 Z " />
<glyph glyph-name="twothirds" unicode="&#x2154;" horiz-adv-x="1053" d="M672 133 L787 133 L787 98 Q792 92 805.5 86.5 Q819 81 838 81 Q856 81 869.5 86.5 Q883 92 888 98 L888 149 Q883 158 870 164 Q857 170 838 170 L773 170 L773 258 L836 258 Q854 258 867 264 Q880 270 885 276 L885 325 Q880 331 867 336 Q854 341 836 341 Q818 341 805 335.5 Q792 330 787 325 L787 292 L672 292 L672 366 Q677 372 689.5 383 Q702 394 722 404.5 Q742 415 770 423 Q798 431 836 431 Q873 431 902.5 422.5 Q932 414 954 401.5 Q976 389 989.5 375 Q1003 361 1009 350 L1009 259 Q1004 250 987.5 239 Q971 228 948 218 Q971 208 988 195 Q1005 182 1013 170 L1013 73 Q1007 62 993 48 Q979 34 957 21.5 Q935 9 905.5 0.5 Q876 -8 838 -8 Q800 -8 771.5 0 Q743 8 722.5 18.5 Q702 29 689.5 40 Q677 51 672 57 L672 133 Z M40 371 L218 512 Q235 526 244 534 Q253 542 255 546 L255 603 Q250 609 237 614.5 Q224 620 205 620 Q186 620 173.5 614.5 Q161 609 156 604 L156 549 L41 549 L41 645 Q46 651 58.5 661.5 Q71 672 91 683 Q111 694 139 702 Q167 710 205 710 Q243 710 272.5 701.5 Q302 693 323.5 680.5 Q345 668 359 654 Q373 640 380 629 L380 519 Q373 506 335 479 L204 384 L204 379 L381 379 L381 280 L40 280 L40 371 Z M269 70 L742 700 L816 700 L816 630 L344 0 L269 0 L269 70 Z " />
<glyph glyph-name="uniE000" unicode="&#xe000;" horiz-adv-x="1031" d="M245 70 L718 700 L792 700 L792 630 L320 0 L245 0 L245 70 Z M41 629 Q48 641 62 655 Q76 669 98 681.5 Q120 694 149 702 Q178 710 216 710 Q253 710 281.5 702 Q310 694 330.5 683.5 Q351 673 363.5 662 Q376 651 381 644 L381 572 L266 572 L266 603 Q261 609 247.5 614.5 Q234 620 216 620 Q197 620 184 614.5 Q171 609 166 603 L166 517 Q183 531 206 539.5 Q229 548 258 548 Q306 548 337.5 530 Q369 512 381 489 L381 336 Q376 330 363.5 319 Q351 308 331 297.5 Q311 287 282 279 Q253 271 216 271 Q178 271 148.5 279 Q119 287 97.5 299.5 Q76 312 62 326 Q48 340 41 352 L41 629 Z M166 377 Q171 371 184 365.5 Q197 360 216 360 Q234 360 247.5 365.5 Q261 371 266 377 L266 447 Q261 454 247.5 459 Q234 464 215 464 Q201 464 189 461 Q177 458 166 453 L166 377 Z M641 167 Q647 178 660.5 191.5 Q674 205 695 218 Q678 228 667.5 237.5 Q657 247 652 253 L652 366 Q657 372 669 383 Q681 394 701 404.5 Q721 415 749.5 423 Q778 431 816 431 Q854 431 882.5 423 Q911 415 931 404 Q951 393 963 382.5 Q975 372 980 366 L980 253 Q975 248 964 238 Q953 228 936 218 Q957 206 970 192 Q983 178 991 167 L991 73 Q984 61 970 47 Q956 33 934.5 20.5 Q913 8 883.5 0 Q854 -8 816 -8 Q778 -8 748.5 0 Q719 8 697 20.5 Q675 33 661 47 Q647 61 641 73 L641 167 Z M765 98 Q770 92 783.5 86.5 Q797 81 816 81 Q834 81 847.5 86.5 Q861 92 866 98 L866 161 Q861 167 847.5 172.5 Q834 178 816 178 Q797 178 783.5 172.5 Q770 167 765 161 L765 98 Z M767 270 Q772 265 784.5 260 Q797 255 816 255 Q834 255 846.5 260 Q859 265 864 270 L864 325 Q859 330 846.5 335.5 Q834 341 816 341 Q797 341 784.5 335.5 Q772 330 767 325 L767 270 Z " />
<glyph glyph-name="uniE001" unicode="&#xe001;" horiz-adv-x="1278" d="M602 82 L670 82 L670 320 L602 318 L602 392 L689 421 L794 421 L794 82 L859 82 L859 1 L602 1 L602 82 Z M898 350 Q905 362 919 376 Q933 390 955 402.5 Q977 415 1006 423 Q1035 431 1073 431 Q1110 431 1138.5 423 Q1167 415 1187.5 404.5 Q1208 394 1220.5 383 Q1233 372 1238 365 L1238 293 L1123 293 L1123 324 Q1118 330 1104.5 335.5 Q1091 341 1073 341 Q1054 341 1041 335.5 Q1028 330 1023 324 L1023 238 Q1040 252 1063 260.5 Q1086 269 1115 269 Q1163 269 1194.5 251 Q1226 233 1238 210 L1238 57 Q1233 51 1220.5 40 Q1208 29 1188 18.5 Q1168 8 1139 0 Q1110 -8 1073 -8 Q1035 -8 1005.5 0 Q976 8 954.5 20.5 Q933 33 919 47 Q905 61 898 73 L898 350 Z M1023 98 Q1028 92 1041 86.5 Q1054 81 1073 81 Q1091 81 1104.5 86.5 Q1118 92 1123 98 L1123 168 Q1118 175 1104.5 180 Q1091 185 1072 185 Q1058 185 1046 182 Q1034 179 1023 174 L1023 98 Z M179 70 L652 700 L726 700 L726 630 L254 0 L179 0 L179 70 Z M40 361 L108 361 L108 599 L40 597 L40 671 L127 700 L232 700 L232 361 L297 361 L297 280 L40 280 L40 361 Z " />
<glyph glyph-name="percent" unicode="&#x25;" horiz-adv-x="918" d="M265 598 Q260 607 247.5 614 Q235 621 216 621 Q198 621 185 614 Q172 607 167 598 L167 454 Q172 445 185 438.5 Q198 432 216 432 Q235 432 247.5 438.5 Q260 445 265 454 L265 598 Z M42 615 Q49 632 63 649 Q77 666 98.5 679.5 Q120 693 149 701.5 Q178 710 216 710 Q253 710 282.5 701.5 Q312 693 334 679.5 Q356 666 370 649 Q384 632 390 615 L390 437 Q384 420 370 403.5 Q356 387 334 373.5 Q312 360 282.5 351.5 Q253 343 216 343 Q178 343 149 351.5 Q120 360 98.5 373.5 Q77 387 63 403.5 Q49 420 42 437 L42 615 Z M751 246 Q746 255 733.5 262 Q721 269 702 269 Q684 269 671 262 Q658 255 653 246 L653 102 Q658 93 671 86.5 Q684 80 702 80 Q721 80 733.5 86.5 Q746 93 751 102 L751 246 Z M528 263 Q534 280 548 297 Q562 314 584 327.5 Q606 341 635 349.5 Q664 358 702 358 Q739 358 768.5 349.5 Q798 341 820 327.5 Q842 314 856 297 Q870 280 876 263 L876 85 Q870 68 856 51.5 Q842 35 820 21.5 Q798 8 768.5 -0.5 Q739 -9 702 -9 Q664 -9 635 -0.5 Q606 8 584 21.5 Q562 35 548 51.5 Q534 68 528 85 L528 263 Z M187 70 L659 700 L733 700 L733 630 L261 0 L187 0 L187 70 Z " />
<glyph glyph-name="perthousand" unicode="&#x2030;" horiz-adv-x="1312" d="M265 598 Q260 607 247.5 614 Q235 621 216 621 Q198 621 185 614 Q172 607 167 598 L167 454 Q172 445 185 438.5 Q198 432 216 432 Q235 432 247.5 438.5 Q260 445 265 454 L265 598 Z M42 615 Q49 632 63 649 Q77 666 98.5 679.5 Q120 693 149 701.5 Q178 710 216 710 Q253 710 282.5 701.5 Q312 693 334 679.5 Q356 666 370 649 Q384 632 390 615 L390 437 Q384 420 370 403.5 Q356 387 334 373.5 Q312 360 282.5 351.5 Q253 343 216 343 Q178 343 149 351.5 Q120 360 98.5 373.5 Q77 387 63 403.5 Q49 420 42 437 L42 615 Z M751 246 Q746 255 733.5 262 Q721 269 702 269 Q684 269 671 262 Q658 255 653 246 L653 102 Q658 93 671 86.5 Q684 80 702 80 Q721 80 733.5 86.5 Q746 93 751 102 L751 246 Z M528 263 Q534 280 548 297 Q562 314 584 327.5 Q606 341 635 349.5 Q664 358 702 358 Q739 358 768.5 349.5 Q798 341 820 327.5 Q842 314 856 297 Q870 280 876 263 L876 85 Q870 68 856 51.5 Q842 35 820 21.5 Q798 8 768.5 -0.5 Q739 -9 702 -9 Q664 -9 635 -0.5 Q606 8 584 21.5 Q562 35 548 51.5 Q534 68 528 85 L528 263 Z M1145 246 Q1140 255 1127.5 262 Q1115 269 1096 269 Q1078 269 1065 262 Q1052 255 1047 246 L1047 102 Q1052 93 1065 86.5 Q1078 80 1096 80 Q1115 80 1127.5 86.5 Q1140 93 1145 102 L1145 246 Z M922 263 Q928 280 942 297 Q956 314 978 327.5 Q1000 341 1029 349.5 Q1058 358 1096 358 Q1133 358 1162.5 349.5 Q1192 341 1214 327.5 Q1236 314 1250 297 Q1264 280 1270 263 L1270 85 Q1264 68 1250 51.5 Q1236 35 1214 21.5 Q1192 8 1162.5 -0.5 Q1133 -9 1096 -9 Q1058 -9 1029 -0.5 Q1000 8 978 21.5 Q956 35 942 51.5 Q928 68 922 85 L922 263 Z M187 70 L659 700 L733 700 L733 630 L261 0 L187 0 L187 70 Z " />
<glyph glyph-name="plus" unicode="&#x2b;" horiz-adv-x="588" d="M223 264 L31 264 L31 403 L223 403 L223 596 L364 596 L364 403 L557 403 L557 264 L364 264 L364 70 L223 70 L223 264 Z " />
<glyph glyph-name="minus" unicode="&#x2212;" horiz-adv-x="588" d="M31 403 L557 403 L557 264 L31 264 L31 403 Z " />
<glyph glyph-name="plusminus" unicode="&#xb1;" horiz-adv-x="588" d="M31 497 L223 497 L223 664 L364 664 L364 497 L557 497 L557 358 L364 358 L364 190 L223 190 L223 358 L31 358 L31 497 Z M31 151 L557 151 L557 12 L31 12 L31 151 Z " />
<glyph glyph-name="multiply" unicode="&#xd7;" horiz-adv-x="588" d="M34 172 L194 334 L34 494 L34 587 L140 587 L294 432 L449 587 L554 587 L554 494 L394 334 L554 172 L554 80 L449 80 L294 233 L140 80 L34 80 L34 172 Z " />
<glyph glyph-name="divide" unicode="&#xf7;" horiz-adv-x="588" d="M31 403 L557 403 L557 264 L31 264 L31 403 Z M203 170 Q211 186 233 202 Q255 218 294 218 Q334 218 356.5 202 Q379 186 386 170 L386 84 Q379 68 356.5 52 Q334 36 294 36 Q255 36 233 52 Q211 68 203 84 L203 170 Z M203 583 Q211 599 233 615 Q255 631 294 631 Q334 631 356.5 615 Q379 599 386 583 L386 497 Q379 481 356.5 465 Q334 449 294 449 Q255 449 233 465 Q211 481 203 497 L203 583 Z " />
<glyph glyph-name="equal" unicode="&#x3d;" horiz-adv-x="588" d="M31 296 L557 296 L557 157 L31 157 L31 296 Z M31 512 L557 512 L557 373 L31 373 L31 512 Z " />
<glyph glyph-name="notequal" unicode="&#x2260;" horiz-adv-x="588" d="M31 295 L208 295 L238 373 L31 373 L31 512 L291 512 L323 596 L464 596 L432 512 L557 512 L557 373 L379 373 L349 295 L557 295 L557 156 L296 156 L264 70 L123 70 L155 156 L31 156 L31 295 Z " />
<glyph glyph-name="approxequal" unicode="&#x2248;" horiz-adv-x="588" d="M35 276 Q51 288 72 299 Q90 307 115.5 314.5 Q141 322 173 322 Q209 322 243 314 Q277 306 310 296.5 Q343 287 375.5 279 Q408 271 441 271 Q466 271 486.5 278 Q507 285 522 293 Q540 303 553 315 L553 164 Q540 154 523 147 Q509 140 488.5 135 Q468 130 442 130 Q403 130 369 138 Q335 146 302.5 155.5 Q270 165 238 173 Q206 181 171 181 Q142 181 117 173 Q92 165 74 155 Q53 144 35 130 L35 276 Z M35 493 Q51 505 72 516 Q90 524 115.5 531.5 Q141 539 173 539 Q209 539 243 531 Q277 523 310 513.5 Q343 504 375.5 496 Q408 488 441 488 Q466 488 486.5 495 Q507 502 522 510 Q540 520 553 532 L553 381 Q540 371 523 364 Q509 357 488.5 352 Q468 347 442 347 Q403 347 369 355 Q335 363 302.5 372.5 Q270 382 238 390 Q206 398 171 398 Q142 398 117 390 Q92 382 74 372 Q53 361 35 347 L35 493 Z " />
<glyph glyph-name="less" unicode="&#x3c;" horiz-adv-x="588" d="M25 357 L435 544 L563 544 L563 450 L201 294 L563 138 L563 44 L435 44 L25 232 L25 357 Z " />
<glyph glyph-name="greater" unicode="&#x3e;" horiz-adv-x="588" d="M25 138 L387 294 L25 450 L25 544 L153 544 L563 357 L563 232 L153 44 L25 44 L25 138 Z " />
<glyph glyph-name="lessequal" unicode="&#x2264;" horiz-adv-x="588" d="M31 432 L429 608 L557 608 L557 514 L247 403 L557 291 L557 197 L429 197 L31 339 L31 432 Z M31 151 L557 151 L557 12 L31 12 L31 151 Z " />
<glyph glyph-name="greaterequal" unicode="&#x2265;" horiz-adv-x="588" d="M31 291 L341 403 L31 514 L31 608 L159 608 L557 432 L557 339 L159 197 L31 197 L31 291 Z M31 151 L557 151 L557 12 L31 12 L31 151 Z " />
<glyph glyph-name="logicalnot" unicode="&#xac;" horiz-adv-x="588" d="M31 403 L557 403 L557 70 L417 70 L417 264 L31 264 L31 403 Z " />
<glyph glyph-name="uni00AD" unicode="&#xad;" horiz-adv-x="368" d="M31 403 L337 403 L337 264 L31 264 L31 403 Z " />
<glyph glyph-name="Delta" unicode="&#x2206;" horiz-adv-x="637" d="M23 102 L182 700 L455 700 L614 102 L614 0 L23 0 L23 102 Z M406 139 L321 529 L302 529 L213 139 L406 139 Z " />
<glyph glyph-name="uni0394" unicode="&#x394;" horiz-adv-x="637" d="M23 102 L182 700 L455 700 L614 102 L614 0 L23 0 L23 102 Z M406 139 L321 529 L302 529 L213 139 L406 139 Z " />
<glyph glyph-name="Omega" unicode="&#x2126;" horiz-adv-x="626" d="M41 146 L182 146 L182 180 Q124 203 90 240 Q56 277 41 310 L41 562 Q52 586 73 613 Q94 640 127 662.5 Q160 685 206 700 Q252 715 313 715 Q374 715 420 700 Q466 685 499 662.5 Q532 640 553 613 Q574 586 585 562 L585 310 Q570 277 536 240 Q502 203 445 180 L445 146 L585 146 L585 0 L335 0 L335 286 Q358 290 373 302.5 Q388 315 395 329 L395 527 Q387 545 366 558.5 Q345 572 313 572 Q281 572 260 558.5 Q239 545 231 527 L231 329 Q238 315 252.5 302.5 Q267 290 292 286 L292 0 L41 0 L41 146 Z " />
<glyph glyph-name="uni03A9" unicode="&#x3a9;" horiz-adv-x="626" d="M41 146 L182 146 L182 180 Q124 203 90 240 Q56 277 41 310 L41 562 Q52 586 73 613 Q94 640 127 662.5 Q160 685 206 700 Q252 715 313 715 Q374 715 420 700 Q466 685 499 662.5 Q532 640 553 613 Q574 586 585 562 L585 310 Q570 277 536 240 Q502 203 445 180 L445 146 L585 146 L585 0 L335 0 L335 286 Q358 290 373 302.5 Q388 315 395 329 L395 527 Q387 545 366 558.5 Q345 572 313 572 Q281 572 260 558.5 Q239 545 231 527 L231 329 Q238 315 252.5 302.5 Q267 290 292 286 L292 0 L41 0 L41 146 Z " />
<glyph glyph-name="mu" unicode="&#xb5;" horiz-adv-x="564" d="M41 544 L217 544 L217 151 Q222 143 237 132 Q252 121 281 121 Q305 121 321 127.5 Q337 134 347 144 L347 544 L523 544 L523 0 L360 0 L360 55 Q337 27 302.5 8.5 Q268 -10 217 -11 L217 -156 L41 -156 L41 544 Z " />
<glyph glyph-name="uni03BC" unicode="&#x3bc;" horiz-adv-x="564" d="M41 544 L217 544 L217 151 Q222 143 237 132 Q252 121 281 121 Q305 121 321 127.5 Q337 134 347 144 L347 544 L523 544 L523 0 L360 0 L360 55 Q337 27 302.5 8.5 Q268 -10 217 -11 L217 -156 L41 -156 L41 544 Z " />
<glyph glyph-name="pi" unicode="&#x3c0;" horiz-adv-x="693" d="M95 418 L29 418 L29 544 L660 544 L660 418 L563 418 L563 140 Q569 134 583.5 125.5 Q598 117 634 117 Q656 117 664 119 L664 0 Q651 -4 628 -8.5 Q605 -13 567 -13 Q525 -13 493.5 -4.5 Q462 4 440.5 17.5 Q419 31 406 48.5 Q393 66 387 83 L387 418 L271 418 L271 0 L95 0 L95 418 Z " />
<glyph glyph-name="degree" unicode="&#xb0;" horiz-adv-x="400" d="M27 716 Q34 729 47 745 Q60 761 81 775 Q102 789 131.5 798 Q161 807 199 807 Q238 807 267.5 797.5 Q297 788 318 774.5 Q339 761 352 745 Q365 729 372 716 L372 584 Q365 570 352 554 Q339 538 318 524.5 Q297 511 267.5 501.5 Q238 492 199 492 Q161 492 131.5 501 Q102 510 81 524 Q60 538 47 554 Q34 570 27 584 L27 716 Z M149 615 Q154 606 166.5 598.5 Q179 591 199 591 Q219 591 232 598.5 Q245 606 251 615 L251 684 Q245 693 232 700.5 Q219 708 199 708 Q179 708 166.5 700.5 Q154 693 149 684 L149 615 Z " />
<glyph glyph-name="infinity" unicode="&#x221e;" horiz-adv-x="748" d="M88 465 Q95 482 109 499 Q123 516 144.5 529.5 Q166 543 195 551.5 Q224 560 262 560 Q297 560 325 552.5 Q353 545 374 533 Q395 545 423 552.5 Q451 560 486 560 Q523 560 552.5 551.5 Q582 543 603.5 529.5 Q625 516 639 499 Q653 482 660 465 L660 215 Q653 198 639 181.5 Q625 165 603.5 151.5 Q582 138 552.5 129.5 Q523 121 486 121 Q451 121 423 128 Q395 135 374 147 Q353 135 325 128 Q297 121 262 121 Q224 121 195 129.5 Q166 138 144.5 151.5 Q123 165 109 181.5 Q95 198 88 215 L88 465 Z M535 449 Q530 458 517.5 464 Q505 470 486 470 Q468 470 454.5 464 Q441 458 436 449 L436 231 Q441 222 454.5 216 Q468 210 486 210 Q505 210 517.5 216 Q530 222 535 231 L535 449 Z M311 449 Q306 458 293.5 464 Q281 470 262 470 Q244 470 231 464 Q218 458 213 449 L213 231 Q218 222 231 216 Q244 210 262 210 Q281 210 293.5 216 Q306 222 311 231 L311 449 Z " />
</font>
</svg>
