<?xml version="1.0" encoding="UTF-8"?>
<svg xmlns="http://www.w3.org/2000/svg" xmlns:xlink="http://www.w3.org/1999/xlink" version="1.2" >
<font id="Cadillac Trim V1 Regular">
<font-face  font-family="Cadillac Trim V1" units-per-em="1000" ascent="750" descent="-250" font-style="normal" font-weight="400" font-stretch="normal" cap-height="700" x-height="539" underline-position="-56" underline-thickness="67" />
<missing-glyph  horiz-adv-x="600" d="M74 800 L525 800 L525 -100 L74 -100 L74 800 Z M446 -32 L446 732 L153 732 L153 -32 L446 -32 Z " />
<glyph glyph-name=".null" d="" />
<glyph glyph-name="nonmarkingreturn" unicode="&#xd;" horiz-adv-x="196" d="" />
<glyph glyph-name="space" unicode="&#x20;" horiz-adv-x="206" d="" />
<glyph glyph-name="A" unicode="A" horiz-adv-x="612" d="M29 64 L225 700 L386 700 L583 64 L583 0 L488 0 L423 221 L179 221 L114 0 L29 0 L29 64 Z M204 303 L399 303 L311 606 L294 606 L204 303 Z " />
<glyph glyph-name="B" unicode="B" horiz-adv-x="589" d="M71 700 L338 700 Q374 700 404 690 Q434 680 458.5 663.5 Q483 647 502 626 Q521 605 533 582 L533 446 Q519 423 494.5 400.5 Q470 378 444 365 Q470 354 498 332 Q526 310 542 283 L542 119 Q530 98 512 77 Q494 56 469 38.5 Q444 21 411 10.5 Q378 0 338 0 L71 0 L71 700 Z M323 401 Q355 401 385 418.5 Q415 436 434 465 L434 549 Q417 580 386.5 599 Q356 618 315 618 L178 618 L178 401 L323 401 Z M315 82 Q367 82 396.5 102.5 Q426 123 443 152 L443 257 Q426 285 393.5 303.5 Q361 322 323 322 L178 322 L178 82 L315 82 Z " />
<glyph glyph-name="C" unicode="C" horiz-adv-x="615" d="M564 270 L564 132 Q553 109 533.5 83.5 Q514 58 483.5 36 Q453 14 411 0 Q369 -14 313 -14 Q257 -14 214.5 0.5 Q172 15 141 37.5 Q110 60 90 87 Q70 114 59 139 L59 562 Q70 587 90 613.5 Q110 640 141 662.5 Q172 685 214.5 699.5 Q257 714 313 714 Q369 714 411 700 Q453 686 483.5 664 Q514 642 533.5 616.5 Q553 591 564 569 L564 441 L460 441 L460 540 Q453 558 440 574 Q427 590 408.5 602.5 Q390 615 366 622.5 Q342 630 313 630 Q284 630 260.5 622.5 Q237 615 218.5 602.5 Q200 590 186.5 574 Q173 558 166 540 L166 161 Q173 143 186 127 Q199 111 217.5 98.5 Q236 86 260 78.5 Q284 71 313 71 Q342 71 365.5 78.5 Q389 86 407.5 98.5 Q426 111 439 127 Q452 143 460 161 L460 270 L564 270 Z " />
<glyph glyph-name="D" unicode="D" horiz-adv-x="626" d="M460 536 Q446 571 408.5 594.5 Q371 618 313 618 L178 618 L178 82 L313 82 Q371 82 408.5 105.5 Q446 129 460 164 L460 536 Z M567 138 Q556 113 536.5 88 Q517 63 488 43.5 Q459 24 420.5 12 Q382 0 332 0 L71 0 L71 700 L332 700 Q382 700 420.5 688 Q459 676 488 656.5 Q517 637 536.5 612 Q556 587 567 562 L567 138 Z " />
<glyph glyph-name="E" unicode="E" horiz-adv-x="538" d="M71 700 L485 700 L485 618 L178 618 L178 401 L464 401 L464 319 L178 319 L178 82 L493 82 L493 0 L71 0 L71 700 Z " />
<glyph glyph-name="F" unicode="F" horiz-adv-x="520" d="M71 700 L475 700 L475 618 L178 618 L178 399 L460 399 L460 317 L178 317 L178 0 L71 0 L71 700 Z " />
<glyph glyph-name="G" unicode="G" horiz-adv-x="616" d="M327 372 L564 372 L564 132 Q553 109 533.5 83.5 Q514 58 483.5 36 Q453 14 411 0 Q369 -14 313 -14 Q257 -14 214.5 0.5 Q172 15 141 37.5 Q110 60 90 87 Q70 114 59 139 L59 562 Q70 587 90 613.5 Q110 640 141 662.5 Q172 685 214.5 699.5 Q257 714 313 714 Q369 714 411 700 Q453 686 483.5 664 Q514 642 533.5 616.5 Q553 591 564 569 L564 463 L460 463 L460 540 Q453 558 440 574 Q427 590 408.5 602.5 Q390 615 366 622.5 Q342 630 313 630 Q284 630 260.5 622.5 Q237 615 218.5 602.5 Q200 590 186.5 574 Q173 558 166 540 L166 161 Q173 143 186.5 127 Q200 111 218.5 98.5 Q237 86 261.5 78.5 Q286 71 315 71 Q374 71 411 98 Q448 125 463 158 L463 290 L327 290 L327 372 Z " />
<glyph glyph-name="H" unicode="H" horiz-adv-x="648" d="M71 700 L178 700 L178 402 L470 402 L470 700 L577 700 L577 0 L470 0 L470 320 L178 320 L178 0 L71 0 L71 700 Z " />
<glyph glyph-name="I" unicode="I" horiz-adv-x="249" d="M71 700 L178 700 L178 0 L71 0 L71 700 Z " />
<glyph glyph-name="J" unicode="J" horiz-adv-x="387" d="M20 82 L65 82 Q119 82 157.5 104.5 Q196 127 212 165 L212 700 L320 700 L320 139 Q306 110 285 84 Q264 58 234 39 Q204 20 164 9 Q124 -2 72 -2 Q57 -2 44 -1.5 Q31 -1 20 0 L20 82 Z " />
<glyph glyph-name="K" unicode="K" horiz-adv-x="575" d="M71 700 L178 700 L178 397 L194 397 L470 700 L538 700 L538 636 L316 397 L546 64 L546 0 L469 0 L246 324 L178 251 L178 0 L71 0 L71 700 Z " />
<glyph glyph-name="L" unicode="L" horiz-adv-x="455" d="M71 700 L178 700 L178 82 L432 82 L432 0 L71 0 L71 700 Z " />
<glyph glyph-name="M" unicode="M" horiz-adv-x="798" d="M71 700 L222 700 L393 316 L410 316 L577 700 L727 700 L727 0 L626 0 L626 550 L609 550 L437 165 L360 165 L188 550 L171 550 L171 0 L71 0 L71 700 Z " />
<glyph glyph-name="N" unicode="N" horiz-adv-x="662" d="M71 700 L204 700 L474 169 L490 169 L490 700 L591 700 L591 0 L458 0 L188 531 L171 531 L171 0 L71 0 L71 700 Z " />
<glyph glyph-name="O" unicode="O" horiz-adv-x="626" d="M166 161 Q173 143 186 127 Q199 111 217.5 98.5 Q236 86 260 78.5 Q284 71 313 71 Q342 71 366 78.5 Q390 86 408.5 98.5 Q427 111 440 127 Q453 143 460 161 L460 540 Q453 558 440 574 Q427 590 408.5 602.5 Q390 615 366 622.5 Q342 630 313 630 Q284 630 260 622.5 Q236 615 217.5 602.5 Q199 590 186 574 Q173 558 166 540 L166 161 Z M59 562 Q70 587 90 613.5 Q110 640 141 662.5 Q172 685 214.5 699.5 Q257 714 313 714 Q369 714 411.5 699.5 Q454 685 485 662.5 Q516 640 536 613.5 Q556 587 567 562 L567 139 Q556 114 536 87 Q516 60 485 37.5 Q454 15 411.5 0.5 Q369 -14 313 -14 Q257 -14 214.5 0.5 Q172 15 141 37.5 Q110 60 90 87 Q70 114 59 139 L59 562 Z " />
<glyph glyph-name="P" unicode="P" horiz-adv-x="580" d="M71 700 L331 700 Q394 700 447.5 669.5 Q501 639 533 582 L533 376 Q506 327 454.5 292.5 Q403 258 331 258 L178 258 L178 0 L71 0 L71 700 Z M307 340 Q346 340 378.5 357.5 Q411 375 429 409 L429 549 Q409 587 375 602.5 Q341 618 307 618 L178 618 L178 340 L307 340 Z " />
<glyph glyph-name="Q" unicode="Q" horiz-adv-x="626" d="M59 562 Q70 587 90 613.5 Q110 640 141 662.5 Q172 685 214.5 699.5 Q257 714 313 714 Q369 714 411.5 699.5 Q454 685 485 662.5 Q516 640 536 613.5 Q556 587 567 562 L567 139 Q559 119 545 98.5 Q531 78 511.5 59 Q492 40 465.5 24.5 Q439 9 406 -1 Q415 -18 428 -30.5 Q441 -43 455.5 -52 Q470 -61 484.5 -65.5 Q499 -70 510 -70 L570 -70 L570 -147 L506 -147 Q476 -147 447 -137 Q418 -127 392.5 -109.5 Q367 -92 346 -67.5 Q325 -43 312 -14 Q256 -14 213.5 0.5 Q171 15 140.5 37.5 Q110 60 90 87 Q70 114 59 139 L59 562 Z M166 161 Q173 143 186 127 Q199 111 217.5 98.5 Q236 86 260 78.5 Q284 71 313 71 Q342 71 366 78.5 Q390 86 408.5 98.5 Q427 111 440 127 Q453 143 460 161 L460 540 Q453 558 440 574 Q427 590 408.5 602.5 Q390 615 366 622.5 Q342 630 313 630 Q284 630 260 622.5 Q236 615 217.5 602.5 Q199 590 186 574 Q173 558 166 540 L166 161 Z " />
<glyph glyph-name="R" unicode="R" horiz-adv-x="596" d="M285 279 L178 279 L178 0 L71 0 L71 700 L338 700 Q401 700 454.5 669 Q508 638 539 582 L539 398 Q516 357 480 327.5 Q444 298 396 286 L545 64 L545 0 L465 0 L285 279 Z M314 358 Q356 358 387 376 Q418 394 437 427 L437 549 Q418 583 385.5 600.5 Q353 618 314 618 L178 618 L178 358 L314 358 Z " />
<glyph glyph-name="S" unicode="S" horiz-adv-x="590" d="M50 220 L154 220 L154 148 Q161 135 173 121.5 Q185 108 202.5 96.5 Q220 85 243 78 Q266 71 295 71 Q323 71 346.5 78 Q370 85 387.5 96.5 Q405 108 417 121.5 Q429 135 436 148 L436 234 Q430 245 422 255 Q414 265 401 274 Q388 283 369 291 Q350 299 322 306 L255 322 Q202 335 167 349.5 Q132 364 109.5 379.5 Q87 395 73.5 411.5 Q60 428 50 445 L50 582 Q60 600 78.5 623 Q97 646 126 666 Q155 686 197 700 Q239 714 295 714 Q351 714 392.5 700 Q434 686 463.5 665.5 Q493 645 511.5 622 Q530 599 539 582 L539 490 L436 490 L436 553 Q430 566 417.5 579.5 Q405 593 387.5 604.5 Q370 616 346.5 623 Q323 630 295 630 Q266 630 243 622.5 Q220 615 202 604 Q184 593 172 579 Q160 565 154 553 L154 484 Q160 473 168 463.5 Q176 454 189.5 445.5 Q203 437 222 429 Q241 421 270 414 L337 397 Q389 384 423.5 369 Q458 354 480.5 338.5 Q503 323 516.5 306 Q530 289 539 273 L539 119 Q529 101 510.5 77.5 Q492 54 462.5 34 Q433 14 392 0 Q351 -14 295 -14 Q239 -14 197 0 Q155 14 126 34.5 Q97 55 78.5 78 Q60 101 50 119 L50 220 Z " />
<glyph glyph-name="T" unicode="T" horiz-adv-x="530" d="M211 618 L24 618 L24 700 L505 700 L505 618 L319 618 L319 0 L211 0 L211 618 Z " />
<glyph glyph-name="U" unicode="U" horiz-adv-x="642" d="M575 700 L575 139 Q564 114 544 87 Q524 60 493 37.5 Q462 15 419.5 0.5 Q377 -14 321 -14 Q265 -14 222.5 0.5 Q180 15 149 37.5 Q118 60 98 87 Q78 114 67 139 L67 700 L174 700 L174 161 Q181 143 194 127 Q207 111 225.5 98.5 Q244 86 268 78.5 Q292 71 321 71 Q350 71 373.5 78.5 Q397 86 415.5 98.5 Q434 111 447 127 Q460 143 468 161 L468 700 L575 700 Z " />
<glyph glyph-name="V" unicode="V" horiz-adv-x="594" d="M29 636 L29 700 L125 700 L292 114 L309 114 L476 700 L565 700 L565 636 L374 0 L220 0 L29 636 Z " />
<glyph glyph-name="W" unicode="W" horiz-adv-x="901" d="M34 636 L34 700 L133 700 L239 137 L256 137 L395 700 L505 700 L645 137 L662 137 L768 700 L867 700 L867 636 L737 0 L585 0 L455 508 L439 508 L310 0 L163 0 L34 636 Z " />
<glyph glyph-name="X" unicode="X" horiz-adv-x="586" d="M45 64 L223 350 L45 636 L45 700 L135 700 L288 428 L305 428 L461 700 L540 700 L540 636 L363 351 L540 64 L540 0 L451 0 L299 273 L282 273 L126 0 L45 0 L45 64 Z " />
<glyph glyph-name="Y" unicode="Y" horiz-adv-x="562" d="M225 304 L33 636 L33 700 L126 700 L277 419 L294 419 L445 700 L529 700 L529 636 L333 295 L333 0 L225 0 L225 304 Z " />
<glyph glyph-name="Z" unicode="Z" horiz-adv-x="562" d="M43 69 L383 604 L383 618 L50 618 L50 700 L518 700 L518 631 L178 96 L178 82 L518 82 L518 0 L43 0 L43 69 Z " />
<glyph glyph-name="Agrave" unicode="&#xc0;" horiz-adv-x="612" d="M29 64 L225 700 L386 700 L583 64 L583 0 L488 0 L423 221 L179 221 L114 0 L29 0 L29 64 Z M204 303 L399 303 L311 606 L294 606 L204 303 Z M195 857 L195 903 L286 903 L349 765 L349 749 L276 749 L195 857 Z " />
<glyph glyph-name="Aacute" unicode="&#xc1;" horiz-adv-x="612" d="M29 64 L225 700 L386 700 L583 64 L583 0 L488 0 L423 221 L179 221 L114 0 L29 0 L29 64 Z M204 303 L399 303 L311 606 L294 606 L204 303 Z M259 765 L321 903 L413 903 L413 857 L333 749 L259 749 L259 765 Z " />
<glyph glyph-name="Acircumflex" unicode="&#xc2;" horiz-adv-x="612" d="M29 64 L225 700 L386 700 L583 64 L583 0 L488 0 L423 221 L179 221 L114 0 L29 0 L29 64 Z M204 303 L399 303 L311 606 L294 606 L204 303 Z M151 765 L238 903 L368 903 L455 765 L455 749 L386 749 L303 852 L220 749 L151 749 L151 765 Z " />
<glyph glyph-name="Atilde" unicode="&#xc3;" horiz-adv-x="612" d="M29 64 L225 700 L386 700 L583 64 L583 0 L488 0 L423 221 L179 221 L114 0 L29 0 L29 64 Z M204 303 L399 303 L311 606 L294 606 L204 303 Z M487 816 Q478 790 453 770 Q428 750 385 750 Q356 750 336 758.5 Q316 767 299.5 776.5 Q283 786 267.5 794.5 Q252 803 234 803 Q212 803 201 793.5 Q190 784 186 775 L186 755 L123 755 L123 801 Q134 830 160 849 Q186 868 226 868 Q254 868 274 859.5 Q294 851 311 841.5 Q328 832 343.5 823.5 Q359 815 377 815 Q396 815 407.5 823.5 Q419 832 424 843 L424 862 L487 862 L487 816 Z " />
<glyph glyph-name="Adieresis" unicode="&#xc4;" horiz-adv-x="612" d="M29 64 L225 700 L386 700 L583 64 L583 0 L488 0 L423 221 L179 221 L114 0 L29 0 L29 64 Z M204 303 L399 303 L311 606 L294 606 L204 303 Z M149 843 Q154 849 166.5 856.5 Q179 864 202 864 Q225 864 237 856.5 Q249 849 254 843 L254 782 Q249 776 237 768.5 Q225 761 202 761 Q179 761 166.5 768.5 Q154 776 149 782 L149 843 Z M354 843 Q359 849 371.5 856.5 Q384 864 407 864 Q430 864 442.5 856.5 Q455 849 459 843 L459 782 Q455 776 442.5 768.5 Q430 761 407 761 Q384 761 371.5 768.5 Q359 776 354 782 L354 843 Z " />
<glyph glyph-name="Amacron" unicode="&#x100;" horiz-adv-x="612" d="M29 64 L225 700 L386 700 L583 64 L583 0 L488 0 L423 221 L179 221 L114 0 L29 0 L29 64 Z M204 303 L399 303 L311 606 L294 606 L204 303 Z M135 838 L474 838 L474 766 L135 766 L135 838 Z " />
<glyph glyph-name="Abreve" unicode="&#x102;" horiz-adv-x="612" d="M29 64 L225 700 L386 700 L583 64 L583 0 L488 0 L423 221 L179 221 L114 0 L29 0 L29 64 Z M204 303 L399 303 L311 606 L294 606 L204 303 Z M154 865 L229 865 L229 837 Q233 828 250.5 813.5 Q268 799 304 799 Q341 799 357.5 813.5 Q374 828 378 837 L378 865 L454 865 L454 822 Q447 807 435.5 792.5 Q424 778 406 766 Q388 754 363 746.5 Q338 739 304 739 Q270 739 245 746.5 Q220 754 202 766 Q184 778 172.5 792.5 Q161 807 154 822 L154 865 Z " />
<glyph glyph-name="Aring" unicode="&#xc5;" horiz-adv-x="612" d="M29 64 L224 698 Q207 712 199 729 L199 812 Q211 835 238.5 852 Q266 869 305 869 Q343 869 371 852 Q399 835 411 812 L411 729 Q402 713 386 699 L583 64 L583 0 L488 0 L423 221 L179 221 L114 0 L29 0 L29 64 Z M204 303 L399 303 L311 606 L294 606 L204 303 Z M251 741 Q256 733 269.5 724.5 Q283 716 305 716 Q327 716 340 724.5 Q353 733 358 741 L358 800 Q353 808 340 816.5 Q327 825 305 825 Q283 825 269.5 816.5 Q256 808 251 800 L251 741 Z " />
<glyph glyph-name="Aogonek" unicode="&#x104;" horiz-adv-x="612" d="M397 -115 Q402 -105 413.5 -89 Q425 -73 442 -54.5 Q459 -36 481 -17 Q491 -8 501 0 L488 0 L423 221 L179 221 L114 0 L29 0 L29 64 L225 700 L386 700 L583 64 L583 0 Q526 -45 501 -77.5 Q476 -110 471 -120 L471 -153 Q476 -161 489.5 -168 Q503 -175 521 -175 Q538 -175 552.5 -171.5 Q567 -168 583 -160 L583 -216 Q569 -224 552 -228 Q535 -232 506 -232 Q469 -232 439 -220 Q409 -208 397 -184 L397 -115 Z M204 303 L399 303 L311 606 L294 606 L204 303 Z " />
<glyph glyph-name="AE" unicode="&#xc6;" horiz-adv-x="829" d="M374 209 L180 209 L103 0 L21 0 L21 64 L263 700 L775 700 L775 618 L482 618 L482 401 L755 401 L755 319 L482 319 L482 82 L784 82 L784 0 L374 0 L374 209 Z M210 291 L374 291 L374 618 L331 618 L210 291 Z " />
<glyph glyph-name="AEacute" unicode="&#x1fc;" horiz-adv-x="829" d="M374 209 L180 209 L103 0 L21 0 L21 64 L263 700 L775 700 L775 618 L482 618 L482 401 L755 401 L755 319 L482 319 L482 82 L784 82 L784 0 L374 0 L374 209 Z M210 291 L374 291 L374 618 L331 618 L210 291 Z M449 765 L511 903 L603 903 L603 857 L523 749 L449 749 L449 765 Z " />
<glyph glyph-name="Cacute" unicode="&#x106;" horiz-adv-x="615" d="M564 270 L564 132 Q553 109 533.5 83.5 Q514 58 483.5 36 Q453 14 411 0 Q369 -14 313 -14 Q257 -14 214.5 0.5 Q172 15 141 37.5 Q110 60 90 87 Q70 114 59 139 L59 562 Q70 587 90 613.5 Q110 640 141 662.5 Q172 685 214.5 699.5 Q257 714 313 714 Q369 714 411 700 Q453 686 483.5 664 Q514 642 533.5 616.5 Q553 591 564 569 L564 441 L460 441 L460 540 Q453 558 440 574 Q427 590 408.5 602.5 Q390 615 366 622.5 Q342 630 313 630 Q284 630 260.5 622.5 Q237 615 218.5 602.5 Q200 590 186.5 574 Q173 558 166 540 L166 161 Q173 143 186 127 Q199 111 217.5 98.5 Q236 86 260 78.5 Q284 71 313 71 Q342 71 365.5 78.5 Q389 86 407.5 98.5 Q426 111 439 127 Q452 143 460 161 L460 270 L564 270 Z M270 771 L332 909 L424 909 L424 863 L344 755 L270 755 L270 771 Z " />
<glyph glyph-name="Ccircumflex" unicode="&#x108;" horiz-adv-x="615" d="M564 270 L564 132 Q553 109 533.5 83.5 Q514 58 483.5 36 Q453 14 411 0 Q369 -14 313 -14 Q257 -14 214.5 0.5 Q172 15 141 37.5 Q110 60 90 87 Q70 114 59 139 L59 562 Q70 587 90 613.5 Q110 640 141 662.5 Q172 685 214.5 699.5 Q257 714 313 714 Q369 714 411 700 Q453 686 483.5 664 Q514 642 533.5 616.5 Q553 591 564 569 L564 441 L460 441 L460 540 Q453 558 440 574 Q427 590 408.5 602.5 Q390 615 366 622.5 Q342 630 313 630 Q284 630 260.5 622.5 Q237 615 218.5 602.5 Q200 590 186.5 574 Q173 558 166 540 L166 161 Q173 143 186 127 Q199 111 217.5 98.5 Q236 86 260 78.5 Q284 71 313 71 Q342 71 365.5 78.5 Q389 86 407.5 98.5 Q426 111 439 127 Q452 143 460 161 L460 270 L564 270 Z M165 770 L252 908 L382 908 L469 770 L469 754 L400 754 L317 857 L234 754 L165 754 L165 770 Z " />
<glyph glyph-name="Ccaron" unicode="&#x10c;" horiz-adv-x="615" d="M564 270 L564 132 Q553 109 533.5 83.5 Q514 58 483.5 36 Q453 14 411 0 Q369 -14 313 -14 Q257 -14 214.5 0.5 Q172 15 141 37.5 Q110 60 90 87 Q70 114 59 139 L59 562 Q70 587 90 613.5 Q110 640 141 662.5 Q172 685 214.5 699.5 Q257 714 313 714 Q369 714 411 700 Q453 686 483.5 664 Q514 642 533.5 616.5 Q553 591 564 569 L564 441 L460 441 L460 540 Q453 558 440 574 Q427 590 408.5 602.5 Q390 615 366 622.5 Q342 630 313 630 Q284 630 260.5 622.5 Q237 615 218.5 602.5 Q200 590 186.5 574 Q173 558 166 540 L166 161 Q173 143 186 127 Q199 111 217.5 98.5 Q236 86 260 78.5 Q284 71 313 71 Q342 71 365.5 78.5 Q389 86 407.5 98.5 Q426 111 439 127 Q452 143 460 161 L460 270 L564 270 Z M162 892 L162 908 L231 908 L314 805 L397 908 L466 908 L466 892 L379 754 L249 754 L162 892 Z " />
<glyph glyph-name="Cdotaccent" unicode="&#x10a;" horiz-adv-x="615" d="M564 270 L564 132 Q553 109 533.5 83.5 Q514 58 483.5 36 Q453 14 411 0 Q369 -14 313 -14 Q257 -14 214.5 0.5 Q172 15 141 37.5 Q110 60 90 87 Q70 114 59 139 L59 562 Q70 587 90 613.5 Q110 640 141 662.5 Q172 685 214.5 699.5 Q257 714 313 714 Q369 714 411 700 Q453 686 483.5 664 Q514 642 533.5 616.5 Q553 591 564 569 L564 441 L460 441 L460 540 Q453 558 440 574 Q427 590 408.5 602.5 Q390 615 366 622.5 Q342 630 313 630 Q284 630 260.5 622.5 Q237 615 218.5 602.5 Q200 590 186.5 574 Q173 558 166 540 L166 161 Q173 143 186 127 Q199 111 217.5 98.5 Q236 86 260 78.5 Q284 71 313 71 Q342 71 365.5 78.5 Q389 86 407.5 98.5 Q426 111 439 127 Q452 143 460 161 L460 270 L564 270 Z M257 850 Q262 860 276 869 Q290 878 314 878 Q338 878 352 869 Q366 860 371 850 L371 800 Q366 790 352 781 Q338 772 314 772 Q290 772 276 781 Q262 790 257 800 L257 850 Z " />
<glyph glyph-name="Ccedilla" unicode="&#xc7;" horiz-adv-x="615" d="M231 -174 Q247 -182 266 -187 Q285 -192 307 -192 Q327 -192 341 -185 Q355 -178 359 -169 L359 -123 Q355 -115 342 -108.5 Q329 -102 309 -102 L251 -102 L277 -12 Q243 -9 214 0 Q172 15 141 37.5 Q110 60 90 87 Q70 114 59 139 L59 562 Q70 587 90 613.5 Q110 640 141 662.5 Q172 685 214.5 699.5 Q257 714 313 714 Q369 714 411 700 Q453 686 483.5 664 Q514 642 533.5 616.5 Q553 591 564 569 L564 441 L460 441 L460 540 Q453 558 440 574 Q427 590 408.5 602.5 Q390 615 366 622.5 Q342 630 313 630 Q284 630 260.5 622.5 Q237 615 218.5 602.5 Q200 590 186.5 574 Q173 558 166 540 L166 161 Q173 143 186 127 Q199 111 217.5 98.5 Q236 86 260 78.5 Q284 71 313 71 Q342 71 365.5 78.5 Q389 86 407.5 98.5 Q426 111 439 127 Q452 143 460 161 L460 270 L564 270 L564 132 Q553 109 533.5 83.5 Q514 58 483.5 36 Q453 14 411 0 Q374 -12 327 -14 L314 -60 L332 -60 Q367 -60 388 -75 Q409 -90 417 -107 L417 -189 Q406 -212 379 -227 Q352 -242 312 -242 Q280 -242 256 -235.5 Q232 -229 218 -220 L231 -174 Z " />
<glyph glyph-name="Dcaron" unicode="&#x10e;" horiz-adv-x="626" d="M460 536 Q446 571 408.5 594.5 Q371 618 313 618 L178 618 L178 82 L313 82 Q371 82 408.5 105.5 Q446 129 460 164 L460 536 Z M567 138 Q556 113 536.5 88 Q517 63 488 43.5 Q459 24 420.5 12 Q382 0 332 0 L71 0 L71 700 L332 700 Q382 700 420.5 688 Q459 676 488 656.5 Q517 637 536.5 612 Q556 587 567 562 L567 138 Z M158 887 L158 903 L227 903 L310 800 L393 903 L462 903 L462 887 L375 749 L245 749 L158 887 Z " />
<glyph glyph-name="Dcroat" unicode="&#x110;" horiz-adv-x="652" d="M39 397 L93 397 L93 700 L354 700 Q404 700 443 688 Q482 676 510.5 656.5 Q539 637 558.5 612 Q578 587 589 562 L589 138 Q578 113 558.5 88 Q539 63 510.5 43.5 Q482 24 443 12 Q404 0 354 0 L93 0 L93 315 L39 315 L39 397 Z M482 536 Q468 571 430.5 594.5 Q393 618 335 618 L200 618 L200 397 L357 397 L357 315 L200 315 L200 82 L335 82 Q393 82 430.5 105.5 Q468 129 482 164 L482 536 Z " />
<glyph glyph-name="Egrave" unicode="&#xc8;" horiz-adv-x="525" d="M71 700 L485 700 L485 618 L178 618 L178 401 L464 401 L464 319 L178 319 L178 82 L493 82 L493 0 L71 0 L71 700 Z M171 857 L171 903 L262 903 L325 765 L325 749 L252 749 L171 857 Z " />
<glyph glyph-name="Eacute" unicode="&#xc9;" horiz-adv-x="525" d="M71 700 L485 700 L485 618 L178 618 L178 401 L464 401 L464 319 L178 319 L178 82 L493 82 L493 0 L71 0 L71 700 Z M233 765 L295 903 L387 903 L387 857 L307 749 L233 749 L233 765 Z " />
<glyph glyph-name="Ecircumflex" unicode="&#xca;" horiz-adv-x="525" d="M71 700 L485 700 L485 618 L178 618 L178 401 L464 401 L464 319 L178 319 L178 82 L493 82 L493 0 L71 0 L71 700 Z M122 765 L209 903 L339 903 L426 765 L426 749 L357 749 L274 852 L191 749 L122 749 L122 765 Z " />
<glyph glyph-name="Ecaron" unicode="&#x11a;" horiz-adv-x="525" d="M71 700 L485 700 L485 618 L178 618 L178 401 L464 401 L464 319 L178 319 L178 82 L493 82 L493 0 L71 0 L71 700 Z M125 887 L125 903 L194 903 L277 800 L360 903 L429 903 L429 887 L342 749 L212 749 L125 887 Z " />
<glyph glyph-name="Edieresis" unicode="&#xcb;" horiz-adv-x="525" d="M71 700 L485 700 L485 618 L178 618 L178 401 L464 401 L464 319 L178 319 L178 82 L493 82 L493 0 L71 0 L71 700 Z M121 843 Q126 849 138.5 856.5 Q151 864 174 864 Q197 864 209 856.5 Q221 849 226 843 L226 782 Q221 776 209 768.5 Q197 761 174 761 Q151 761 138.5 768.5 Q126 776 121 782 L121 843 Z M326 843 Q331 849 343.5 856.5 Q356 864 379 864 Q402 864 414.5 856.5 Q427 849 431 843 L431 782 Q427 776 414.5 768.5 Q402 761 379 761 Q356 761 343.5 768.5 Q331 776 326 782 L326 843 Z " />
<glyph glyph-name="Emacron" unicode="&#x112;" horiz-adv-x="525" d="M71 700 L485 700 L485 618 L178 618 L178 401 L464 401 L464 319 L178 319 L178 82 L493 82 L493 0 L71 0 L71 700 Z M106 838 L445 838 L445 766 L106 766 L106 838 Z " />
<glyph glyph-name="Ebreve" unicode="&#x114;" horiz-adv-x="525" d="M71 700 L485 700 L485 618 L178 618 L178 401 L464 401 L464 319 L178 319 L178 82 L493 82 L493 0 L71 0 L71 700 Z M126 866 L201 866 L201 838 Q205 829 222.5 814.5 Q240 800 276 800 Q313 800 329.5 814.5 Q346 829 350 838 L350 866 L426 866 L426 823 Q419 808 407.5 793.5 Q396 779 378 767 Q360 755 335 747.5 Q310 740 276 740 Q242 740 217 747.5 Q192 755 174 767 Q156 779 144.5 793.5 Q133 808 126 823 L126 866 Z " />
<glyph glyph-name="Edotaccent" unicode="&#x116;" horiz-adv-x="525" d="M71 700 L485 700 L485 618 L178 618 L178 401 L464 401 L464 319 L178 319 L178 82 L493 82 L493 0 L71 0 L71 700 Z M221 846 Q226 856 240 865 Q254 874 278 874 Q302 874 316 865 Q330 856 335 846 L335 796 Q330 786 316 777 Q302 768 278 768 Q254 768 240 777 Q226 786 221 796 L221 846 Z " />
<glyph glyph-name="Eogonek" unicode="&#x118;" horiz-adv-x="525" d="M294 -115 Q299 -105 310.5 -89 Q322 -73 339 -54.5 Q356 -36 378 -17 Q388 -8 398 0 L71 0 L71 700 L472 700 L472 618 L178 618 L178 401 L451 401 L451 319 L178 319 L178 82 L480 82 L480 0 Q423 -45 398 -77.5 Q373 -110 368 -120 L368 -153 Q373 -161 386.5 -168 Q400 -175 418 -175 Q435 -175 449.5 -171.5 Q464 -168 480 -160 L480 -216 Q466 -224 449 -228 Q432 -232 403 -232 Q366 -232 336 -220 Q306 -208 294 -184 L294 -115 Z " />
<glyph glyph-name="Gcircumflex" unicode="&#x11c;" horiz-adv-x="616" d="M327 372 L564 372 L564 132 Q553 109 533.5 83.5 Q514 58 483.5 36 Q453 14 411 0 Q369 -14 313 -14 Q257 -14 214.5 0.5 Q172 15 141 37.5 Q110 60 90 87 Q70 114 59 139 L59 562 Q70 587 90 613.5 Q110 640 141 662.5 Q172 685 214.5 699.5 Q257 714 313 714 Q369 714 411 700 Q453 686 483.5 664 Q514 642 533.5 616.5 Q553 591 564 569 L564 463 L460 463 L460 540 Q453 558 440 574 Q427 590 408.5 602.5 Q390 615 366 622.5 Q342 630 313 630 Q284 630 260.5 622.5 Q237 615 218.5 602.5 Q200 590 186.5 574 Q173 558 166 540 L166 161 Q173 143 186.5 127 Q200 111 218.5 98.5 Q237 86 261.5 78.5 Q286 71 315 71 Q374 71 411 98 Q448 125 463 158 L463 290 L327 290 L327 372 Z M162 768 L249 906 L379 906 L466 768 L466 752 L397 752 L314 855 L231 752 L162 752 L162 768 Z " />
<glyph glyph-name="Gbreve" unicode="&#x11e;" horiz-adv-x="616" d="M327 372 L564 372 L564 132 Q553 109 533.5 83.5 Q514 58 483.5 36 Q453 14 411 0 Q369 -14 313 -14 Q257 -14 214.5 0.5 Q172 15 141 37.5 Q110 60 90 87 Q70 114 59 139 L59 562 Q70 587 90 613.5 Q110 640 141 662.5 Q172 685 214.5 699.5 Q257 714 313 714 Q369 714 411 700 Q453 686 483.5 664 Q514 642 533.5 616.5 Q553 591 564 569 L564 463 L460 463 L460 540 Q453 558 440 574 Q427 590 408.5 602.5 Q390 615 366 622.5 Q342 630 313 630 Q284 630 260.5 622.5 Q237 615 218.5 602.5 Q200 590 186.5 574 Q173 558 166 540 L166 161 Q173 143 186.5 127 Q200 111 218.5 98.5 Q237 86 261.5 78.5 Q286 71 315 71 Q374 71 411 98 Q448 125 463 158 L463 290 L327 290 L327 372 Z M164 870 L239 870 L239 842 Q243 833 260.5 818.5 Q278 804 314 804 Q351 804 367.5 818.5 Q384 833 388 842 L388 870 L464 870 L464 827 Q457 812 445.5 797.5 Q434 783 416 771 Q398 759 373 751.5 Q348 744 314 744 Q280 744 255 751.5 Q230 759 212 771 Q194 783 182.5 797.5 Q171 812 164 827 L164 870 Z " />
<glyph glyph-name="Gdotaccent" unicode="&#x120;" horiz-adv-x="616" d="M327 372 L564 372 L564 132 Q553 109 533.5 83.5 Q514 58 483.5 36 Q453 14 411 0 Q369 -14 313 -14 Q257 -14 214.5 0.5 Q172 15 141 37.5 Q110 60 90 87 Q70 114 59 139 L59 562 Q70 587 90 613.5 Q110 640 141 662.5 Q172 685 214.5 699.5 Q257 714 313 714 Q369 714 411 700 Q453 686 483.5 664 Q514 642 533.5 616.5 Q553 591 564 569 L564 463 L460 463 L460 540 Q453 558 440 574 Q427 590 408.5 602.5 Q390 615 366 622.5 Q342 630 313 630 Q284 630 260.5 622.5 Q237 615 218.5 602.5 Q200 590 186.5 574 Q173 558 166 540 L166 161 Q173 143 186.5 127 Q200 111 218.5 98.5 Q237 86 261.5 78.5 Q286 71 315 71 Q374 71 411 98 Q448 125 463 158 L463 290 L327 290 L327 372 Z M256 849 Q261 859 275 868 Q289 877 313 877 Q337 877 351 868 Q365 859 370 849 L370 799 Q365 789 351 780 Q337 771 313 771 Q289 771 275 780 Q261 789 256 799 L256 849 Z " />
<glyph glyph-name="Gcommaaccent" unicode="&#x122;" horiz-adv-x="616" d="M327 372 L564 372 L564 132 Q553 109 533.5 83.5 Q514 58 483.5 36 Q453 14 411 0 Q369 -14 313 -14 Q257 -14 214.5 0.5 Q172 15 141 37.5 Q110 60 90 87 Q70 114 59 139 L59 562 Q70 587 90 613.5 Q110 640 141 662.5 Q172 685 214.5 699.5 Q257 714 313 714 Q369 714 411 700 Q453 686 483.5 664 Q514 642 533.5 616.5 Q553 591 564 569 L564 463 L460 463 L460 540 Q453 558 440 574 Q427 590 408.5 602.5 Q390 615 366 622.5 Q342 630 313 630 Q284 630 260.5 622.5 Q237 615 218.5 602.5 Q200 590 186.5 574 Q173 558 166 540 L166 161 Q173 143 186.5 127 Q200 111 218.5 98.5 Q237 86 261.5 78.5 Q286 71 315 71 Q374 71 411 98 Q448 125 463 158 L463 290 L327 290 L327 372 Z M263 -174 L288 -174 Q307 -174 314 -163 L314 -136 L312 -136 Q289 -136 276 -131.5 Q263 -127 259 -122 L259 -72 Q263 -67 276 -61 Q289 -55 312 -55 Q335 -55 348 -61 Q361 -67 365 -72 L365 -167 Q359 -184 341 -196.5 Q323 -209 297 -209 L263 -209 L263 -174 Z " />
<glyph glyph-name="Hcircumflex" unicode="&#x124;" horiz-adv-x="648" d="M71 700 L178 700 L178 402 L470 402 L470 700 L577 700 L577 0 L470 0 L470 320 L178 320 L178 0 L71 0 L71 700 Z M172 765 L259 903 L389 903 L476 765 L476 749 L407 749 L324 852 L241 749 L172 749 L172 765 Z " />
<glyph glyph-name="Hbar" unicode="&#x126;" horiz-adv-x="648" d="M29 619 L71 619 L71 700 L178 700 L178 619 L470 619 L470 700 L577 700 L577 619 L624 619 L624 551 L577 551 L577 0 L470 0 L470 319 L178 319 L178 0 L71 0 L71 551 L29 551 L29 619 Z M470 402 L470 551 L178 551 L178 402 L470 402 Z " />
<glyph glyph-name="Igrave" unicode="&#xcc;" horiz-adv-x="249" d="M71 700 L178 700 L178 0 L71 0 L71 700 Z M23 857 L23 903 L114 903 L177 765 L177 749 L104 749 L23 857 Z " />
<glyph glyph-name="Iacute" unicode="&#xcd;" horiz-adv-x="249" d="M71 700 L178 700 L178 0 L71 0 L71 700 Z M73 765 L135 903 L227 903 L227 857 L147 749 L73 749 L73 765 Z " />
<glyph glyph-name="Icircumflex" unicode="&#xce;" horiz-adv-x="249" d="M71 700 L178 700 L178 0 L71 0 L71 700 Z M-26 765 L61 903 L191 903 L278 765 L278 749 L209 749 L126 852 L43 749 L-26 749 L-26 765 Z " />
<glyph glyph-name="Itilde" unicode="&#x128;" horiz-adv-x="249" d="M71 700 L178 700 L178 0 L71 0 L71 700 Z M309 817 Q300 791 275 771 Q250 751 207 751 Q178 751 158 759.5 Q138 768 121.5 777.5 Q105 787 89.5 795.5 Q74 804 56 804 Q34 804 23 794.5 Q12 785 8 776 L8 756 L-55 756 L-55 802 Q-44 831 -18 850 Q8 869 48 869 Q76 869 96 860.5 Q116 852 133 842.5 Q150 833 165.5 824.5 Q181 816 199 816 Q218 816 229.5 824.5 Q241 833 246 844 L246 863 L309 863 L309 817 Z " />
<glyph glyph-name="Idieresis" unicode="&#xcf;" horiz-adv-x="249" d="M71 700 L178 700 L178 0 L71 0 L71 700 Z M-28 845 Q-23 851 -10.5 858.5 Q2 866 25 866 Q48 866 60 858.5 Q72 851 77 845 L77 784 Q72 778 60 770.5 Q48 763 25 763 Q2 763 -10.5 770.5 Q-23 778 -28 784 L-28 845 Z M177 845 Q182 851 194.5 858.5 Q207 866 230 866 Q253 866 265.5 858.5 Q278 851 282 845 L282 784 Q278 778 265.5 770.5 Q253 763 230 763 Q207 763 194.5 770.5 Q182 778 177 784 L177 845 Z " />
<glyph glyph-name="Imacron" unicode="&#x12a;" horiz-adv-x="249" d="M71 700 L178 700 L178 0 L71 0 L71 700 Z M-43 838 L296 838 L296 766 L-43 766 L-43 838 Z " />
<glyph glyph-name="Ibreve" unicode="&#x12c;" horiz-adv-x="249" d="M71 700 L178 700 L178 0 L71 0 L71 700 Z M-24 867 L51 867 L51 839 Q55 830 72.5 815.5 Q90 801 126 801 Q163 801 179.5 815.5 Q196 830 200 839 L200 867 L276 867 L276 824 Q269 809 257.5 794.5 Q246 780 228 768 Q210 756 185 748.5 Q160 741 126 741 Q92 741 67 748.5 Q42 756 24 768 Q6 780 -5.5 794.5 Q-17 809 -24 824 L-24 867 Z " />
<glyph glyph-name="Idotaccent" unicode="&#x130;" horiz-adv-x="249" d="M71 700 L178 700 L178 0 L71 0 L71 700 Z M69 846 Q74 856 88 865 Q102 874 126 874 Q150 874 164 865 Q178 856 183 846 L183 796 Q178 786 164 777 Q150 768 126 768 Q102 768 88 777 Q74 786 69 796 L69 846 Z " />
<glyph glyph-name="Iogonek" unicode="&#x12e;" horiz-adv-x="249" d="M-8 -115 Q-3 -105 8.5 -89 Q20 -73 37 -54.5 Q54 -36 76 -17 Q86 -8 96 0 L71 0 L71 700 L178 700 L178 0 Q121 -45 96 -77.5 Q71 -110 66 -120 L66 -153 Q71 -161 84.5 -168 Q98 -175 116 -175 Q133 -175 147.5 -171.5 Q162 -168 178 -160 L178 -216 Q164 -224 147 -228 Q130 -232 101 -232 Q64 -232 34 -220 Q4 -208 -8 -184 L-8 -115 Z " />
<glyph glyph-name="IJ" unicode="&#x132;" horiz-adv-x="628" d="M71 700 L178 700 L178 0 L71 0 L71 700 Z M261 82 L306 82 Q360 82 398.5 104.5 Q437 127 453 165 L453 700 L561 700 L561 139 Q547 110 526 84 Q505 58 475 39 Q445 20 405 9 Q365 -2 313 -2 Q298 -2 285 -1.5 Q272 -1 261 0 L261 82 Z " />
<glyph glyph-name="Jcircumflex" unicode="&#x134;" horiz-adv-x="387" d="M20 82 L65 82 Q119 82 157.5 104.5 Q196 127 212 165 L212 700 L320 700 L320 139 Q306 110 285 84 Q264 58 234 39 Q204 20 164 9 Q124 -2 72 -2 Q57 -2 44 -1.5 Q31 -1 20 0 L20 82 Z M111 765 L198 903 L328 903 L415 765 L415 749 L346 749 L263 852 L180 749 L111 749 L111 765 Z " />
<glyph glyph-name="Kcommaaccent" unicode="&#x136;" horiz-adv-x="575" d="M71 700 L178 700 L178 397 L194 397 L470 700 L538 700 L538 636 L316 397 L546 64 L546 0 L469 0 L246 324 L178 251 L178 0 L71 0 L71 700 Z M249 -173 L274 -173 Q293 -173 300 -162 L300 -135 L298 -135 Q275 -135 262 -130.5 Q249 -126 245 -121 L245 -71 Q249 -66 262 -60 Q275 -54 298 -54 Q321 -54 334 -60 Q347 -66 351 -71 L351 -166 Q345 -183 327 -195.5 Q309 -208 283 -208 L249 -208 L249 -173 Z " />
<glyph glyph-name="Lacute" unicode="&#x139;" horiz-adv-x="455" d="M71 700 L178 700 L178 82 L432 82 L432 0 L71 0 L71 700 Z M73 765 L135 903 L227 903 L227 857 L147 749 L73 749 L73 765 Z " />
<glyph glyph-name="Lcaron" unicode="&#x13d;" horiz-adv-x="469" d="M71 700 L178 700 L178 82 L432 82 L432 0 L71 0 L71 700 Z M273 531 L292 700 L375 700 L375 646 L337 516 L273 516 L273 531 Z " />
<glyph glyph-name="Lcommaaccent" unicode="&#x13b;" horiz-adv-x="455" d="M71 700 L178 700 L178 82 L432 82 L432 0 L71 0 L71 700 Z M202 -173 L227 -173 Q246 -173 253 -162 L253 -135 L251 -135 Q228 -135 215 -130.5 Q202 -126 198 -121 L198 -71 Q202 -66 215 -60 Q228 -54 251 -54 Q274 -54 287 -60 Q300 -66 304 -71 L304 -166 Q298 -183 280 -195.5 Q262 -208 236 -208 L202 -208 L202 -173 Z " />
<glyph glyph-name="Lslash" unicode="&#x141;" horiz-adv-x="488" d="M26 258 L104 298 L104 700 L211 700 L211 354 L382 443 L382 359 L211 270 L211 82 L465 82 L465 0 L104 0 L104 214 L26 174 L26 258 Z " />
<glyph glyph-name="Ldot" unicode="&#x13f;" horiz-adv-x="486" d="M71 700 L178 700 L178 82 L432 82 L432 0 L71 0 L71 700 Z M308 417 Q313 427 327 436 Q341 445 365 445 Q389 445 403 436 Q417 427 422 417 L422 367 Q417 357 403 348 Q389 339 365 339 Q341 339 327 348 Q313 357 308 367 L308 417 Z " />
<glyph glyph-name="Nacute" unicode="&#x143;" horiz-adv-x="662" d="M71 700 L204 700 L474 169 L490 169 L490 700 L591 700 L591 0 L458 0 L188 531 L171 531 L171 0 L71 0 L71 700 Z M308 760 L370 898 L462 898 L462 852 L382 744 L308 744 L308 760 Z " />
<glyph glyph-name="Ncaron" unicode="&#x147;" horiz-adv-x="662" d="M71 700 L204 700 L474 169 L490 169 L490 700 L591 700 L591 0 L458 0 L188 531 L171 531 L171 0 L71 0 L71 700 Z M194 882 L194 898 L263 898 L346 795 L429 898 L498 898 L498 882 L411 744 L281 744 L194 882 Z " />
<glyph glyph-name="Ntilde" unicode="&#xd1;" horiz-adv-x="662" d="M71 700 L204 700 L474 169 L490 169 L490 700 L591 700 L591 0 L458 0 L188 531 L171 531 L171 0 L71 0 L71 700 Z M519 816 Q510 790 485 770 Q460 750 417 750 Q388 750 368 758.5 Q348 767 331.5 776.5 Q315 786 299.5 794.5 Q284 803 266 803 Q244 803 233 793.5 Q222 784 218 775 L218 755 L155 755 L155 801 Q166 830 192 849 Q218 868 258 868 Q286 868 306 859.5 Q326 851 343 841.5 Q360 832 375.5 823.5 Q391 815 409 815 Q428 815 439.5 823.5 Q451 832 456 843 L456 862 L519 862 L519 816 Z " />
<glyph glyph-name="Ncommaaccent" unicode="&#x145;" horiz-adv-x="662" d="M71 700 L204 700 L474 169 L490 169 L490 700 L591 700 L591 0 L458 0 L188 531 L171 531 L171 0 L71 0 L71 700 Z M291 -171 L316 -171 Q335 -171 342 -160 L342 -133 L340 -133 Q317 -133 304 -128.5 Q291 -124 287 -119 L287 -69 Q291 -64 304 -58 Q317 -52 340 -52 Q363 -52 376 -58 Q389 -64 393 -69 L393 -164 Q387 -181 369 -193.5 Q351 -206 325 -206 L291 -206 L291 -171 Z " />
<glyph glyph-name="Ograve" unicode="&#xd2;" horiz-adv-x="626" d="M166 161 Q173 143 186 127 Q199 111 217.5 98.5 Q236 86 260 78.5 Q284 71 313 71 Q342 71 366 78.5 Q390 86 408.5 98.5 Q427 111 440 127 Q453 143 460 161 L460 540 Q453 558 440 574 Q427 590 408.5 602.5 Q390 615 366 622.5 Q342 630 313 630 Q284 630 260 622.5 Q236 615 217.5 602.5 Q199 590 186 574 Q173 558 166 540 L166 161 Z M59 562 Q70 587 90 613.5 Q110 640 141 662.5 Q172 685 214.5 699.5 Q257 714 313 714 Q369 714 411.5 699.5 Q454 685 485 662.5 Q516 640 536 613.5 Q556 587 567 562 L567 139 Q556 114 536 87 Q516 60 485 37.5 Q454 15 411.5 0.5 Q369 -14 313 -14 Q257 -14 214.5 0.5 Q172 15 141 37.5 Q110 60 90 87 Q70 114 59 139 L59 562 Z M199 862 L199 908 L290 908 L353 770 L353 754 L280 754 L199 862 Z " />
<glyph glyph-name="Oacute" unicode="&#xd3;" horiz-adv-x="626" d="M166 161 Q173 143 186 127 Q199 111 217.5 98.5 Q236 86 260 78.5 Q284 71 313 71 Q342 71 366 78.5 Q390 86 408.5 98.5 Q427 111 440 127 Q453 143 460 161 L460 540 Q453 558 440 574 Q427 590 408.5 602.5 Q390 615 366 622.5 Q342 630 313 630 Q284 630 260 622.5 Q236 615 217.5 602.5 Q199 590 186 574 Q173 558 166 540 L166 161 Z M59 562 Q70 587 90 613.5 Q110 640 141 662.5 Q172 685 214.5 699.5 Q257 714 313 714 Q369 714 411.5 699.5 Q454 685 485 662.5 Q516 640 536 613.5 Q556 587 567 562 L567 139 Q556 114 536 87 Q516 60 485 37.5 Q454 15 411.5 0.5 Q369 -14 313 -14 Q257 -14 214.5 0.5 Q172 15 141 37.5 Q110 60 90 87 Q70 114 59 139 L59 562 Z M275 770 L337 908 L429 908 L429 862 L349 754 L275 754 L275 770 Z " />
<glyph glyph-name="Ocircumflex" unicode="&#xd4;" horiz-adv-x="626" d="M166 161 Q173 143 186 127 Q199 111 217.5 98.5 Q236 86 260 78.5 Q284 71 313 71 Q342 71 366 78.5 Q390 86 408.5 98.5 Q427 111 440 127 Q453 143 460 161 L460 540 Q453 558 440 574 Q427 590 408.5 602.5 Q390 615 366 622.5 Q342 630 313 630 Q284 630 260 622.5 Q236 615 217.5 602.5 Q199 590 186 574 Q173 558 166 540 L166 161 Z M59 562 Q70 587 90 613.5 Q110 640 141 662.5 Q172 685 214.5 699.5 Q257 714 313 714 Q369 714 411.5 699.5 Q454 685 485 662.5 Q516 640 536 613.5 Q556 587 567 562 L567 139 Q556 114 536 87 Q516 60 485 37.5 Q454 15 411.5 0.5 Q369 -14 313 -14 Q257 -14 214.5 0.5 Q172 15 141 37.5 Q110 60 90 87 Q70 114 59 139 L59 562 Z M162 770 L249 908 L379 908 L466 770 L466 754 L397 754 L314 857 L231 754 L162 754 L162 770 Z " />
<glyph glyph-name="Otilde" unicode="&#xd5;" horiz-adv-x="626" d="M166 161 Q173 143 186 127 Q199 111 217.5 98.5 Q236 86 260 78.5 Q284 71 313 71 Q342 71 366 78.5 Q390 86 408.5 98.5 Q427 111 440 127 Q453 143 460 161 L460 540 Q453 558 440 574 Q427 590 408.5 602.5 Q390 615 366 622.5 Q342 630 313 630 Q284 630 260 622.5 Q236 615 217.5 602.5 Q199 590 186 574 Q173 558 166 540 L166 161 Z M59 562 Q70 587 90 613.5 Q110 640 141 662.5 Q172 685 214.5 699.5 Q257 714 313 714 Q369 714 411.5 699.5 Q454 685 485 662.5 Q516 640 536 613.5 Q556 587 567 562 L567 139 Q556 114 536 87 Q516 60 485 37.5 Q454 15 411.5 0.5 Q369 -14 313 -14 Q257 -14 214.5 0.5 Q172 15 141 37.5 Q110 60 90 87 Q70 114 59 139 L59 562 Z M496 821 Q487 795 462 775 Q437 755 394 755 Q365 755 345 763.5 Q325 772 308.5 781.5 Q292 791 276.5 799.5 Q261 808 243 808 Q221 808 210 798.5 Q199 789 195 780 L195 760 L132 760 L132 806 Q143 835 169 854 Q195 873 235 873 Q263 873 283 864.5 Q303 856 320 846.5 Q337 837 352.5 828.5 Q368 820 386 820 Q405 820 416.5 828.5 Q428 837 433 848 L433 867 L496 867 L496 821 Z " />
<glyph glyph-name="Odieresis" unicode="&#xd6;" horiz-adv-x="626" d="M166 161 Q173 143 186 127 Q199 111 217.5 98.5 Q236 86 260 78.5 Q284 71 313 71 Q342 71 366 78.5 Q390 86 408.5 98.5 Q427 111 440 127 Q453 143 460 161 L460 540 Q453 558 440 574 Q427 590 408.5 602.5 Q390 615 366 622.5 Q342 630 313 630 Q284 630 260 622.5 Q236 615 217.5 602.5 Q199 590 186 574 Q173 558 166 540 L166 161 Z M59 562 Q70 587 90 613.5 Q110 640 141 662.5 Q172 685 214.5 699.5 Q257 714 313 714 Q369 714 411.5 699.5 Q454 685 485 662.5 Q516 640 536 613.5 Q556 587 567 562 L567 139 Q556 114 536 87 Q516 60 485 37.5 Q454 15 411.5 0.5 Q369 -14 313 -14 Q257 -14 214.5 0.5 Q172 15 141 37.5 Q110 60 90 87 Q70 114 59 139 L59 562 Z M158 845 Q163 851 175.5 858.5 Q188 866 211 866 Q234 866 246 858.5 Q258 851 263 845 L263 784 Q258 778 246 770.5 Q234 763 211 763 Q188 763 175.5 770.5 Q163 778 158 784 L158 845 Z M363 845 Q368 851 380.5 858.5 Q393 866 416 866 Q439 866 451.5 858.5 Q464 851 468 845 L468 784 Q464 778 451.5 770.5 Q439 763 416 763 Q393 763 380.5 770.5 Q368 778 363 784 L363 845 Z " />
<glyph glyph-name="Omacron" unicode="&#x14c;" horiz-adv-x="626" d="M166 161 Q173 143 186 127 Q199 111 217.5 98.5 Q236 86 260 78.5 Q284 71 313 71 Q342 71 366 78.5 Q390 86 408.5 98.5 Q427 111 440 127 Q453 143 460 161 L460 540 Q453 558 440 574 Q427 590 408.5 602.5 Q390 615 366 622.5 Q342 630 313 630 Q284 630 260 622.5 Q236 615 217.5 602.5 Q199 590 186 574 Q173 558 166 540 L166 161 Z M59 562 Q70 587 90 613.5 Q110 640 141 662.5 Q172 685 214.5 699.5 Q257 714 313 714 Q369 714 411.5 699.5 Q454 685 485 662.5 Q516 640 536 613.5 Q556 587 567 562 L567 139 Q556 114 536 87 Q516 60 485 37.5 Q454 15 411.5 0.5 Q369 -14 313 -14 Q257 -14 214.5 0.5 Q172 15 141 37.5 Q110 60 90 87 Q70 114 59 139 L59 562 Z M144 843 L483 843 L483 771 L144 771 L144 843 Z " />
<glyph glyph-name="Obreve" unicode="&#x14e;" horiz-adv-x="626" d="M166 161 Q173 143 186 127 Q199 111 217.5 98.5 Q236 86 260 78.5 Q284 71 313 71 Q342 71 366 78.5 Q390 86 408.5 98.5 Q427 111 440 127 Q453 143 460 161 L460 540 Q453 558 440 574 Q427 590 408.5 602.5 Q390 615 366 622.5 Q342 630 313 630 Q284 630 260 622.5 Q236 615 217.5 602.5 Q199 590 186 574 Q173 558 166 540 L166 161 Z M59 562 Q70 587 90 613.5 Q110 640 141 662.5 Q172 685 214.5 699.5 Q257 714 313 714 Q369 714 411.5 699.5 Q454 685 485 662.5 Q516 640 536 613.5 Q556 587 567 562 L567 139 Q556 114 536 87 Q516 60 485 37.5 Q454 15 411.5 0.5 Q369 -14 313 -14 Q257 -14 214.5 0.5 Q172 15 141 37.5 Q110 60 90 87 Q70 114 59 139 L59 562 Z M163 871 L238 871 L238 843 Q242 834 259.5 819.5 Q277 805 313 805 Q350 805 366.5 819.5 Q383 834 387 843 L387 871 L463 871 L463 828 Q456 813 444.5 798.5 Q433 784 415 772 Q397 760 372 752.5 Q347 745 313 745 Q279 745 254 752.5 Q229 760 211 772 Q193 784 181.5 798.5 Q170 813 163 828 L163 871 Z " />
<glyph glyph-name="Ohungarumlaut" unicode="&#x150;" horiz-adv-x="626" d="M166 161 Q173 143 186 127 Q199 111 217.5 98.5 Q236 86 260 78.5 Q284 71 313 71 Q342 71 366 78.5 Q390 86 408.5 98.5 Q427 111 440 127 Q453 143 460 161 L460 540 Q453 558 440 574 Q427 590 408.5 602.5 Q390 615 366 622.5 Q342 630 313 630 Q284 630 260 622.5 Q236 615 217.5 602.5 Q199 590 186 574 Q173 558 166 540 L166 161 Z M59 562 Q70 587 90 613.5 Q110 640 141 662.5 Q172 685 214.5 699.5 Q257 714 313 714 Q369 714 411.5 699.5 Q454 685 485 662.5 Q516 640 536 613.5 Q556 587 567 562 L567 139 Q556 114 536 87 Q516 60 485 37.5 Q454 15 411.5 0.5 Q369 -14 313 -14 Q257 -14 214.5 0.5 Q172 15 141 37.5 Q110 60 90 87 Q70 114 59 139 L59 562 Z M191 764 L237 902 L316 902 L316 863 L256 749 L191 749 L191 764 Z M373 764 L418 902 L497 902 L497 863 L437 749 L373 749 L373 764 Z " />
<glyph glyph-name="Oslash" unicode="&#xd8;" horiz-adv-x="626" d="M59 562 Q70 587 90 613.5 Q110 640 141 662.5 Q172 685 214.5 699.5 Q257 714 313 714 Q373 714 416.5 697.5 Q460 681 492 657 L522 700 L567 700 L567 666 L533 617 Q544 603 552.5 589 Q561 575 567 562 L567 139 Q556 114 536 87 Q516 60 485 37.5 Q454 15 411.5 0.5 Q369 -14 313 -14 Q253 -14 209.5 2 Q166 18 134 43 L104 0 L59 0 L59 34 L93 83 Q82 97 73.5 111 Q65 125 59 139 L59 562 Z M166 188 L437 577 Q417 600 386 615 Q355 630 313 630 Q284 630 260 622.5 Q236 615 217.5 602.5 Q199 590 186 574 Q173 558 166 540 L166 188 Z M313 71 Q342 71 366 78.5 Q390 86 408.5 98.5 Q427 111 440 127 Q453 143 460 161 L460 512 L189 123 Q209 100 240 85.5 Q271 71 313 71 Z " />
<glyph glyph-name="Oslashacute" unicode="&#x1fe;" horiz-adv-x="626" d="M59 562 Q70 587 90 613.5 Q110 640 141 662.5 Q172 685 214.5 699.5 Q257 714 313 714 Q373 714 416.5 697.5 Q460 681 492 657 L522 700 L567 700 L567 666 L533 617 Q544 603 552.5 589 Q561 575 567 562 L567 139 Q556 114 536 87 Q516 60 485 37.5 Q454 15 411.5 0.5 Q369 -14 313 -14 Q253 -14 209.5 2 Q166 18 134 43 L104 0 L59 0 L59 34 L93 83 Q82 97 73.5 111 Q65 125 59 139 L59 562 Z M166 188 L437 577 Q417 600 386 615 Q355 630 313 630 Q284 630 260 622.5 Q236 615 217.5 602.5 Q199 590 186 574 Q173 558 166 540 L166 188 Z M313 71 Q342 71 366 78.5 Q390 86 408.5 98.5 Q427 111 440 127 Q453 143 460 161 L460 512 L189 123 Q209 100 240 85.5 Q271 71 313 71 Z M279 770 L341 908 L433 908 L433 862 L353 754 L279 754 L279 770 Z " />
<glyph glyph-name="OE" unicode="&#x152;" horiz-adv-x="914" d="M58 562 Q69 587 89 613.5 Q109 640 140 662.5 Q171 685 213.5 699.5 Q256 714 312 714 Q357 714 393.5 704.5 Q430 695 459 679 L459 700 L861 700 L861 618 L567 618 L567 401 L840 401 L840 319 L567 319 L567 82 L869 82 L869 0 L459 0 L459 21 Q430 5 393.5 -4.5 Q357 -14 312 -14 Q256 -14 213.5 0.5 Q171 15 140 37.5 Q109 60 89 87 Q69 114 58 139 L58 562 Z M165 161 Q172 143 185 127 Q198 111 216.5 98.5 Q235 86 259 78.5 Q283 71 312 71 Q371 71 407.5 98.5 Q444 126 459 161 L459 540 Q452 558 439 574 Q426 590 407.5 602.5 Q389 615 365 622.5 Q341 630 312 630 Q254 630 217.5 602.5 Q181 575 165 540 L165 161 Z " />
<glyph glyph-name="Racute" unicode="&#x154;" horiz-adv-x="596" d="M285 279 L178 279 L178 0 L71 0 L71 700 L338 700 Q401 700 454.5 669 Q508 638 539 582 L539 398 Q516 357 480 327.5 Q444 298 396 286 L545 64 L545 0 L465 0 L285 279 Z M314 358 Q356 358 387 376 Q418 394 437 427 L437 549 Q418 583 385.5 600.5 Q353 618 314 618 L178 618 L178 358 L314 358 Z M240 765 L302 903 L394 903 L394 857 L314 749 L240 749 L240 765 Z " />
<glyph glyph-name="Rcaron" unicode="&#x158;" horiz-adv-x="596" d="M285 279 L178 279 L178 0 L71 0 L71 700 L338 700 Q401 700 454.5 669 Q508 638 539 582 L539 398 Q516 357 480 327.5 Q444 298 396 286 L545 64 L545 0 L465 0 L285 279 Z M314 358 Q356 358 387 376 Q418 394 437 427 L437 549 Q418 583 385.5 600.5 Q353 618 314 618 L178 618 L178 358 L314 358 Z M147 887 L147 903 L216 903 L299 800 L382 903 L451 903 L451 887 L364 749 L234 749 L147 887 Z " />
<glyph glyph-name="Rcommaaccent" unicode="&#x156;" horiz-adv-x="596" d="M285 279 L178 279 L178 0 L71 0 L71 700 L338 700 Q401 700 454.5 669 Q508 638 539 582 L539 398 Q516 357 480 327.5 Q444 298 396 286 L545 64 L545 0 L465 0 L285 279 Z M314 358 Q356 358 387 376 Q418 394 437 427 L437 549 Q418 583 385.5 600.5 Q353 618 314 618 L178 618 L178 358 L314 358 Z M251 -173 L276 -173 Q295 -173 302 -162 L302 -135 L300 -135 Q277 -135 264 -130.5 Q251 -126 247 -121 L247 -71 Q251 -66 264 -60 Q277 -54 300 -54 Q323 -54 336 -60 Q349 -66 353 -71 L353 -166 Q347 -183 329 -195.5 Q311 -208 285 -208 L251 -208 L251 -173 Z " />
<glyph glyph-name="Sacute" unicode="&#x15a;" horiz-adv-x="590" d="M50 220 L154 220 L154 148 Q161 135 173 121.5 Q185 108 202.5 96.5 Q220 85 243 78 Q266 71 295 71 Q323 71 346.5 78 Q370 85 387.5 96.5 Q405 108 417 121.5 Q429 135 436 148 L436 234 Q430 245 422 255 Q414 265 401 274 Q388 283 369 291 Q350 299 322 306 L255 322 Q202 335 167 349.5 Q132 364 109.5 379.5 Q87 395 73.5 411.5 Q60 428 50 445 L50 582 Q60 600 78.5 623 Q97 646 126 666 Q155 686 197 700 Q239 714 295 714 Q351 714 392.5 700 Q434 686 463.5 665.5 Q493 645 511.5 622 Q530 599 539 582 L539 490 L436 490 L436 553 Q430 566 417.5 579.5 Q405 593 387.5 604.5 Q370 616 346.5 623 Q323 630 295 630 Q266 630 243 622.5 Q220 615 202 604 Q184 593 172 579 Q160 565 154 553 L154 484 Q160 473 168 463.5 Q176 454 189.5 445.5 Q203 437 222 429 Q241 421 270 414 L337 397 Q389 384 423.5 369 Q458 354 480.5 338.5 Q503 323 516.5 306 Q530 289 539 273 L539 119 Q529 101 510.5 77.5 Q492 54 462.5 34 Q433 14 392 0 Q351 -14 295 -14 Q239 -14 197 0 Q155 14 126 34.5 Q97 55 78.5 78 Q60 101 50 119 L50 220 Z M256 770 L318 908 L410 908 L410 862 L330 754 L256 754 L256 770 Z " />
<glyph glyph-name="Scircumflex" unicode="&#x15c;" horiz-adv-x="590" d="M50 220 L154 220 L154 148 Q161 135 173 121.5 Q185 108 202.5 96.5 Q220 85 243 78 Q266 71 295 71 Q323 71 346.5 78 Q370 85 387.5 96.5 Q405 108 417 121.5 Q429 135 436 148 L436 234 Q430 245 422 255 Q414 265 401 274 Q388 283 369 291 Q350 299 322 306 L255 322 Q202 335 167 349.5 Q132 364 109.5 379.5 Q87 395 73.5 411.5 Q60 428 50 445 L50 582 Q60 600 78.5 623 Q97 646 126 666 Q155 686 197 700 Q239 714 295 714 Q351 714 392.5 700 Q434 686 463.5 665.5 Q493 645 511.5 622 Q530 599 539 582 L539 490 L436 490 L436 553 Q430 566 417.5 579.5 Q405 593 387.5 604.5 Q370 616 346.5 623 Q323 630 295 630 Q266 630 243 622.5 Q220 615 202 604 Q184 593 172 579 Q160 565 154 553 L154 484 Q160 473 168 463.5 Q176 454 189.5 445.5 Q203 437 222 429 Q241 421 270 414 L337 397 Q389 384 423.5 369 Q458 354 480.5 338.5 Q503 323 516.5 306 Q530 289 539 273 L539 119 Q529 101 510.5 77.5 Q492 54 462.5 34 Q433 14 392 0 Q351 -14 295 -14 Q239 -14 197 0 Q155 14 126 34.5 Q97 55 78.5 78 Q60 101 50 119 L50 220 Z M150 770 L237 908 L367 908 L454 770 L454 754 L385 754 L302 857 L219 754 L150 754 L150 770 Z " />
<glyph glyph-name="Scaron" unicode="&#x160;" horiz-adv-x="590" d="M50 220 L154 220 L154 148 Q161 135 173 121.5 Q185 108 202.5 96.5 Q220 85 243 78 Q266 71 295 71 Q323 71 346.5 78 Q370 85 387.5 96.5 Q405 108 417 121.5 Q429 135 436 148 L436 234 Q430 245 422 255 Q414 265 401 274 Q388 283 369 291 Q350 299 322 306 L255 322 Q202 335 167 349.5 Q132 364 109.5 379.5 Q87 395 73.5 411.5 Q60 428 50 445 L50 582 Q60 600 78.5 623 Q97 646 126 666 Q155 686 197 700 Q239 714 295 714 Q351 714 392.5 700 Q434 686 463.5 665.5 Q493 645 511.5 622 Q530 599 539 582 L539 490 L436 490 L436 553 Q430 566 417.5 579.5 Q405 593 387.5 604.5 Q370 616 346.5 623 Q323 630 295 630 Q266 630 243 622.5 Q220 615 202 604 Q184 593 172 579 Q160 565 154 553 L154 484 Q160 473 168 463.5 Q176 454 189.5 445.5 Q203 437 222 429 Q241 421 270 414 L337 397 Q389 384 423.5 369 Q458 354 480.5 338.5 Q503 323 516.5 306 Q530 289 539 273 L539 119 Q529 101 510.5 77.5 Q492 54 462.5 34 Q433 14 392 0 Q351 -14 295 -14 Q239 -14 197 0 Q155 14 126 34.5 Q97 55 78.5 78 Q60 101 50 119 L50 220 Z M149 892 L149 908 L218 908 L301 805 L384 908 L453 908 L453 892 L366 754 L236 754 L149 892 Z " />
<glyph glyph-name="Scedilla" unicode="&#x15e;" horiz-adv-x="590" d="M212 -174 Q228 -182 247 -187 Q266 -192 288 -192 Q308 -192 322 -185 Q336 -178 340 -169 L340 -123 Q336 -115 323 -108.5 Q310 -102 290 -102 L232 -102 L258 -12 Q224 -9 197 0 Q155 14 126 34.5 Q97 55 78.5 78 Q60 101 50 119 L50 220 L154 220 L154 148 Q161 135 173 121.5 Q185 108 202.5 96.5 Q220 85 243 78 Q266 71 295 71 Q323 71 346.5 78 Q370 85 387.5 96.5 Q405 108 417 121.5 Q429 135 436 148 L436 234 Q430 245 422 255 Q414 265 401 274 Q388 283 369 291 Q350 299 322 306 L255 322 Q202 335 167 349.5 Q132 364 109.5 379.5 Q87 395 73.5 411.5 Q60 428 50 445 L50 582 Q60 600 78.5 623 Q97 646 126 666 Q155 686 197 700 Q239 714 295 714 Q351 714 392.5 700 Q434 686 463.5 665.5 Q493 645 511.5 622 Q530 599 539 582 L539 490 L436 490 L436 553 Q430 566 417.5 579.5 Q405 593 387.5 604.5 Q370 616 346.5 623 Q323 630 295 630 Q266 630 243 622.5 Q220 615 202 604 Q184 593 172 579 Q160 565 154 553 L154 484 Q160 473 168 463.5 Q176 454 189.5 445.5 Q203 437 222 429 Q241 421 270 414 L337 397 Q389 384 423.5 369 Q458 354 480.5 338.5 Q503 323 516.5 306 Q530 289 539 273 L539 119 Q529 101 510.5 77.5 Q492 54 462.5 34 Q433 14 392 0 Q356 -12 308 -14 L295 -60 L313 -60 Q348 -60 369 -75 Q390 -90 398 -107 L398 -189 Q387 -212 360 -227 Q333 -242 293 -242 Q261 -242 237 -235.5 Q213 -229 199 -220 L212 -174 Z " />
<glyph glyph-name="Scommaaccent" unicode="&#x218;" horiz-adv-x="590" d="M50 220 L154 220 L154 148 Q161 135 173 121.5 Q185 108 202.5 96.5 Q220 85 243 78 Q266 71 295 71 Q323 71 346.5 78 Q370 85 387.5 96.5 Q405 108 417 121.5 Q429 135 436 148 L436 234 Q430 245 422 255 Q414 265 401 274 Q388 283 369 291 Q350 299 322 306 L255 322 Q202 335 167 349.5 Q132 364 109.5 379.5 Q87 395 73.5 411.5 Q60 428 50 445 L50 582 Q60 600 78.5 623 Q97 646 126 666 Q155 686 197 700 Q239 714 295 714 Q351 714 392.5 700 Q434 686 463.5 665.5 Q493 645 511.5 622 Q530 599 539 582 L539 490 L436 490 L436 553 Q430 566 417.5 579.5 Q405 593 387.5 604.5 Q370 616 346.5 623 Q323 630 295 630 Q266 630 243 622.5 Q220 615 202 604 Q184 593 172 579 Q160 565 154 553 L154 484 Q160 473 168 463.5 Q176 454 189.5 445.5 Q203 437 222 429 Q241 421 270 414 L337 397 Q389 384 423.5 369 Q458 354 480.5 338.5 Q503 323 516.5 306 Q530 289 539 273 L539 119 Q529 101 510.5 77.5 Q492 54 462.5 34 Q433 14 392 0 Q351 -14 295 -14 Q239 -14 197 0 Q155 14 126 34.5 Q97 55 78.5 78 Q60 101 50 119 L50 220 Z M242 -173 L267 -173 Q286 -173 293 -162 L293 -135 L291 -135 Q268 -135 255 -130.5 Q242 -126 238 -121 L238 -71 Q242 -66 255 -60 Q268 -54 291 -54 Q314 -54 327 -60 Q340 -66 344 -71 L344 -166 Q338 -183 320 -195.5 Q302 -208 276 -208 L242 -208 L242 -173 Z " />
<glyph glyph-name="Tcaron" unicode="&#x164;" horiz-adv-x="530" d="M211 618 L24 618 L24 700 L505 700 L505 618 L319 618 L319 0 L211 0 L211 618 Z M114 887 L114 903 L183 903 L266 800 L349 903 L418 903 L418 887 L331 749 L201 749 L114 887 Z " />
<glyph glyph-name="Tcommaaccent" unicode="&#x162;" horiz-adv-x="530" d="M190 -174 Q206 -182 225 -187 Q244 -192 266 -192 Q286 -192 300 -185 Q314 -178 318 -169 L318 -123 Q314 -115 301 -108.5 Q288 -102 268 -102 L210 -102 L239 0 L211 0 L211 618 L24 618 L24 700 L505 700 L505 618 L319 618 L319 0 L290 0 L273 -60 L291 -60 Q326 -60 347 -75 Q368 -90 376 -107 L376 -189 Q365 -212 338 -227 Q311 -242 271 -242 Q239 -242 215 -235.5 Q191 -229 177 -220 L190 -174 Z " />
<glyph glyph-name="uni021A" unicode="&#x21a;" horiz-adv-x="530" d="M211 618 L24 618 L24 700 L505 700 L505 618 L319 618 L319 0 L211 0 L211 618 Z M216 -173 L241 -173 Q260 -173 267 -162 L267 -135 L265 -135 Q242 -135 229 -130.5 Q216 -126 212 -121 L212 -71 Q216 -66 229 -60 Q242 -54 265 -54 Q288 -54 301 -60 Q314 -66 318 -71 L318 -166 Q312 -183 294 -195.5 Q276 -208 250 -208 L216 -208 L216 -173 Z " />
<glyph glyph-name="Tbar" unicode="&#x166;" horiz-adv-x="530" d="M77 409 L211 409 L211 618 L24 618 L24 700 L505 700 L505 618 L319 618 L319 409 L454 409 L454 340 L319 340 L319 0 L211 0 L211 340 L77 340 L77 409 Z " />
<glyph glyph-name="Ugrave" unicode="&#xd9;" horiz-adv-x="642" d="M575 700 L575 139 Q564 114 544 87 Q524 60 493 37.5 Q462 15 419.5 0.5 Q377 -14 321 -14 Q265 -14 222.5 0.5 Q180 15 149 37.5 Q118 60 98 87 Q78 114 67 139 L67 700 L174 700 L174 161 Q181 143 194 127 Q207 111 225.5 98.5 Q244 86 268 78.5 Q292 71 321 71 Q350 71 373.5 78.5 Q397 86 415.5 98.5 Q434 111 447 127 Q460 143 468 161 L468 700 L575 700 Z M211 857 L211 903 L302 903 L365 765 L365 749 L292 749 L211 857 Z " />
<glyph glyph-name="Uacute" unicode="&#xda;" horiz-adv-x="642" d="M575 700 L575 139 Q564 114 544 87 Q524 60 493 37.5 Q462 15 419.5 0.5 Q377 -14 321 -14 Q265 -14 222.5 0.5 Q180 15 149 37.5 Q118 60 98 87 Q78 114 67 139 L67 700 L174 700 L174 161 Q181 143 194 127 Q207 111 225.5 98.5 Q244 86 268 78.5 Q292 71 321 71 Q350 71 373.5 78.5 Q397 86 415.5 98.5 Q434 111 447 127 Q460 143 468 161 L468 700 L575 700 Z M280 765 L342 903 L434 903 L434 857 L354 749 L280 749 L280 765 Z " />
<glyph glyph-name="Ucircumflex" unicode="&#xdb;" horiz-adv-x="642" d="M575 700 L575 139 Q564 114 544 87 Q524 60 493 37.5 Q462 15 419.5 0.5 Q377 -14 321 -14 Q265 -14 222.5 0.5 Q180 15 149 37.5 Q118 60 98 87 Q78 114 67 139 L67 700 L174 700 L174 161 Q181 143 194 127 Q207 111 225.5 98.5 Q244 86 268 78.5 Q292 71 321 71 Q350 71 373.5 78.5 Q397 86 415.5 98.5 Q434 111 447 127 Q460 143 468 161 L468 700 L575 700 Z M170 765 L257 903 L387 903 L474 765 L474 749 L405 749 L322 852 L239 749 L170 749 L170 765 Z " />
<glyph glyph-name="Utilde" unicode="&#x168;" horiz-adv-x="642" d="M575 700 L575 139 Q564 114 544 87 Q524 60 493 37.5 Q462 15 419.5 0.5 Q377 -14 321 -14 Q265 -14 222.5 0.5 Q180 15 149 37.5 Q118 60 98 87 Q78 114 67 139 L67 700 L174 700 L174 161 Q181 143 194 127 Q207 111 225.5 98.5 Q244 86 268 78.5 Q292 71 321 71 Q350 71 373.5 78.5 Q397 86 415.5 98.5 Q434 111 447 127 Q460 143 468 161 L468 700 L575 700 Z M505 818 Q496 792 471 772 Q446 752 403 752 Q374 752 354 760.5 Q334 769 317.5 778.5 Q301 788 285.5 796.5 Q270 805 252 805 Q230 805 219 795.5 Q208 786 204 777 L204 757 L141 757 L141 803 Q152 832 178 851 Q204 870 244 870 Q272 870 292 861.5 Q312 853 329 843.5 Q346 834 361.5 825.5 Q377 817 395 817 Q414 817 425.5 825.5 Q437 834 442 845 L442 864 L505 864 L505 818 Z " />
<glyph glyph-name="Udieresis" unicode="&#xdc;" horiz-adv-x="642" d="M575 700 L575 139 Q564 114 544 87 Q524 60 493 37.5 Q462 15 419.5 0.5 Q377 -14 321 -14 Q265 -14 222.5 0.5 Q180 15 149 37.5 Q118 60 98 87 Q78 114 67 139 L67 700 L174 700 L174 161 Q181 143 194 127 Q207 111 225.5 98.5 Q244 86 268 78.5 Q292 71 321 71 Q350 71 373.5 78.5 Q397 86 415.5 98.5 Q434 111 447 127 Q460 143 468 161 L468 700 L575 700 Z M167 845 Q172 851 184.5 858.5 Q197 866 220 866 Q243 866 255 858.5 Q267 851 272 845 L272 784 Q267 778 255 770.5 Q243 763 220 763 Q197 763 184.5 770.5 Q172 778 167 784 L167 845 Z M372 845 Q377 851 389.5 858.5 Q402 866 425 866 Q448 866 460.5 858.5 Q473 851 477 845 L477 784 Q473 778 460.5 770.5 Q448 763 425 763 Q402 763 389.5 770.5 Q377 778 372 784 L372 845 Z " />
<glyph glyph-name="Umacron" unicode="&#x16a;" horiz-adv-x="642" d="M575 700 L575 139 Q564 114 544 87 Q524 60 493 37.5 Q462 15 419.5 0.5 Q377 -14 321 -14 Q265 -14 222.5 0.5 Q180 15 149 37.5 Q118 60 98 87 Q78 114 67 139 L67 700 L174 700 L174 161 Q181 143 194 127 Q207 111 225.5 98.5 Q244 86 268 78.5 Q292 71 321 71 Q350 71 373.5 78.5 Q397 86 415.5 98.5 Q434 111 447 127 Q460 143 468 161 L468 700 L575 700 Z M154 838 L493 838 L493 766 L154 766 L154 838 Z " />
<glyph glyph-name="Ubreve" unicode="&#x16c;" horiz-adv-x="642" d="M575 700 L575 139 Q564 114 544 87 Q524 60 493 37.5 Q462 15 419.5 0.5 Q377 -14 321 -14 Q265 -14 222.5 0.5 Q180 15 149 37.5 Q118 60 98 87 Q78 114 67 139 L67 700 L174 700 L174 161 Q181 143 194 127 Q207 111 225.5 98.5 Q244 86 268 78.5 Q292 71 321 71 Q350 71 373.5 78.5 Q397 86 415.5 98.5 Q434 111 447 127 Q460 143 468 161 L468 700 L575 700 Z M173 858 L248 858 L248 830 Q252 821 269.5 806.5 Q287 792 323 792 Q360 792 376.5 806.5 Q393 821 397 830 L397 858 L473 858 L473 815 Q466 800 454.5 785.5 Q443 771 425 759 Q407 747 382 739.5 Q357 732 323 732 Q289 732 264 739.5 Q239 747 221 759 Q203 771 191.5 785.5 Q180 800 173 815 L173 858 Z " />
<glyph glyph-name="Uring" unicode="&#x16e;" horiz-adv-x="642" d="M575 700 L575 139 Q564 114 544 87 Q524 60 493 37.5 Q462 15 419.5 0.5 Q377 -14 321 -14 Q265 -14 222.5 0.5 Q180 15 149 37.5 Q118 60 98 87 Q78 114 67 139 L67 700 L174 700 L174 161 Q181 143 194 127 Q207 111 225.5 98.5 Q244 86 268 78.5 Q292 71 321 71 Q350 71 373.5 78.5 Q397 86 415.5 98.5 Q434 111 447 127 Q460 143 468 161 L468 700 L575 700 Z M272 753 Q277 745 290.5 736.5 Q304 728 326 728 Q348 728 361 736.5 Q374 745 379 753 L379 812 Q374 820 361 828.5 Q348 837 326 837 Q304 837 290.5 828.5 Q277 820 272 812 L272 753 Z M220 824 Q232 847 259.5 864 Q287 881 326 881 Q364 881 392 864 Q420 847 432 824 L432 741 Q420 718 392 701 Q364 684 326 684 Q287 684 259.5 701 Q232 718 220 741 L220 824 Z " />
<glyph glyph-name="Uhungarumlaut" unicode="&#x170;" horiz-adv-x="642" d="M575 700 L575 139 Q564 114 544 87 Q524 60 493 37.5 Q462 15 419.5 0.5 Q377 -14 321 -14 Q265 -14 222.5 0.5 Q180 15 149 37.5 Q118 60 98 87 Q78 114 67 139 L67 700 L174 700 L174 161 Q181 143 194 127 Q207 111 225.5 98.5 Q244 86 268 78.5 Q292 71 321 71 Q350 71 373.5 78.5 Q397 86 415.5 98.5 Q434 111 447 127 Q460 143 468 161 L468 700 L575 700 Z M195 759 L241 897 L320 897 L320 858 L260 744 L195 744 L195 759 Z M377 759 L422 897 L501 897 L501 858 L441 744 L377 744 L377 759 Z " />
<glyph glyph-name="Uogonek" unicode="&#x172;" horiz-adv-x="642" d="M306 -115 Q312 -101 330 -71.5 Q348 -42 381 -9 Q367 -11 352 -12.5 Q337 -14 321 -14 Q265 -14 222.5 0.5 Q180 15 149 37.5 Q118 60 98 87 Q78 114 67 139 L67 700 L174 700 L174 161 Q181 143 194 127 Q207 111 225.5 98.5 Q244 86 268 78.5 Q292 71 321 71 Q350 71 373.5 78.5 Q397 86 415.5 98.5 Q434 111 447 127 Q460 143 468 161 L468 700 L575 700 L575 139 Q564 115 546 89.5 Q528 64 499 42 Q467 10 445 -17.5 Q423 -45 409.5 -66 Q396 -87 389 -101 Q382 -115 380 -120 L380 -153 Q385 -161 398.5 -168 Q412 -175 430 -175 Q447 -175 461 -171.5 Q475 -168 491 -160 L491 -216 Q477 -224 460.5 -228 Q444 -232 415 -232 Q377 -232 347 -220 Q317 -208 306 -184 L306 -115 Z " />
<glyph glyph-name="Wgrave" unicode="&#x1e80;" horiz-adv-x="901" d="M34 636 L34 700 L133 700 L239 137 L256 137 L395 700 L505 700 L645 137 L662 137 L768 700 L867 700 L867 636 L737 0 L585 0 L455 508 L439 508 L310 0 L163 0 L34 636 Z M334 857 L334 903 L425 903 L488 765 L488 749 L415 749 L334 857 Z " />
<glyph glyph-name="Wacute" unicode="&#x1e82;" horiz-adv-x="901" d="M34 636 L34 700 L133 700 L239 137 L256 137 L395 700 L505 700 L645 137 L662 137 L768 700 L867 700 L867 636 L737 0 L585 0 L455 508 L439 508 L310 0 L163 0 L34 636 Z M412 765 L474 903 L566 903 L566 857 L486 749 L412 749 L412 765 Z " />
<glyph glyph-name="Wcircumflex" unicode="&#x174;" horiz-adv-x="901" d="M34 636 L34 700 L133 700 L239 137 L256 137 L395 700 L505 700 L645 137 L662 137 L768 700 L867 700 L867 636 L737 0 L585 0 L455 508 L439 508 L310 0 L163 0 L34 636 Z M300 765 L387 903 L517 903 L604 765 L604 749 L535 749 L452 852 L369 749 L300 749 L300 765 Z " />
<glyph glyph-name="Wdieresis" unicode="&#x1e84;" horiz-adv-x="901" d="M34 636 L34 700 L133 700 L239 137 L256 137 L395 700 L505 700 L645 137 L662 137 L768 700 L867 700 L867 636 L737 0 L585 0 L455 508 L439 508 L310 0 L163 0 L34 636 Z M294 843 Q299 849 311.5 856.5 Q324 864 347 864 Q370 864 382 856.5 Q394 849 399 843 L399 782 Q394 776 382 768.5 Q370 761 347 761 Q324 761 311.5 768.5 Q299 776 294 782 L294 843 Z M499 843 Q504 849 516.5 856.5 Q529 864 552 864 Q575 864 587.5 856.5 Q600 849 604 843 L604 782 Q600 776 587.5 768.5 Q575 761 552 761 Q529 761 516.5 768.5 Q504 776 499 782 L499 843 Z " />
<glyph glyph-name="Ygrave" unicode="&#x1ef2;" horiz-adv-x="562" d="M225 304 L33 636 L33 700 L126 700 L277 419 L294 419 L445 700 L529 700 L529 636 L333 295 L333 0 L225 0 L225 304 Z M179 857 L179 903 L270 903 L333 765 L333 749 L260 749 L179 857 Z " />
<glyph glyph-name="Yacute" unicode="&#xdd;" horiz-adv-x="562" d="M225 304 L33 636 L33 700 L126 700 L277 419 L294 419 L445 700 L529 700 L529 636 L333 295 L333 0 L225 0 L225 304 Z M245 765 L307 903 L399 903 L399 857 L319 749 L245 749 L245 765 Z " />
<glyph glyph-name="Ycircumflex" unicode="&#x176;" horiz-adv-x="562" d="M225 304 L33 636 L33 700 L126 700 L277 419 L294 419 L445 700 L529 700 L529 636 L333 295 L333 0 L225 0 L225 304 Z M133 765 L220 903 L350 903 L437 765 L437 749 L368 749 L285 852 L202 749 L133 749 L133 765 Z " />
<glyph glyph-name="Ydieresis" unicode="&#x178;" horiz-adv-x="562" d="M225 304 L33 636 L33 700 L126 700 L277 419 L294 419 L445 700 L529 700 L529 636 L333 295 L333 0 L225 0 L225 304 Z M130 843 Q135 849 147.5 856.5 Q160 864 183 864 Q206 864 218 856.5 Q230 849 235 843 L235 782 Q230 776 218 768.5 Q206 761 183 761 Q160 761 147.5 768.5 Q135 776 130 782 L130 843 Z M335 843 Q340 849 352.5 856.5 Q365 864 388 864 Q411 864 423.5 856.5 Q436 849 440 843 L440 782 Q436 776 423.5 768.5 Q411 761 388 761 Q365 761 352.5 768.5 Q340 776 335 782 L335 843 Z " />
<glyph glyph-name="Zacute" unicode="&#x179;" horiz-adv-x="562" d="M43 69 L383 604 L383 618 L50 618 L50 700 L518 700 L518 631 L178 96 L178 82 L518 82 L518 0 L43 0 L43 69 Z M238 765 L300 903 L392 903 L392 857 L312 749 L238 749 L238 765 Z " />
<glyph glyph-name="Zcaron" unicode="&#x17d;" horiz-adv-x="562" d="M43 69 L383 604 L383 618 L50 618 L50 700 L518 700 L518 631 L178 96 L178 82 L518 82 L518 0 L43 0 L43 69 Z M146 887 L146 903 L215 903 L298 800 L381 903 L450 903 L450 887 L363 749 L233 749 L146 887 Z " />
<glyph glyph-name="Zdotaccent" unicode="&#x17b;" horiz-adv-x="562" d="M43 69 L383 604 L383 618 L50 618 L50 700 L518 700 L518 631 L178 96 L178 82 L518 82 L518 0 L43 0 L43 69 Z M236 846 Q241 856 255 865 Q269 874 293 874 Q317 874 331 865 Q345 856 350 846 L350 796 Q345 786 331 777 Q317 768 293 768 Q269 768 255 777 Q241 786 236 796 L236 846 Z " />
<glyph glyph-name="Eng" unicode="&#x14a;" horiz-adv-x="662" d="M71 700 L204 700 L477 162 L490 162 L490 700 L591 700 L591 -26 Q579 -55 557 -81.5 Q535 -108 503.5 -128 Q472 -148 430.5 -160.5 Q389 -173 337 -173 Q324 -173 313 -172.5 Q302 -172 296 -171 L296 -91 Q301 -92 314.5 -92.5 Q328 -93 336 -93 Q382 -93 417 -74.5 Q452 -56 472 -27 L188 532 L171 532 L171 0 L71 0 L71 700 Z " />
<glyph glyph-name="Eth" unicode="&#xd0;" horiz-adv-x="658" d="M39 397 L93 397 L93 700 L354 700 Q404 700 443 688 Q482 676 510.5 656.5 Q539 637 558.5 612 Q578 587 589 562 L589 138 Q578 113 558.5 88 Q539 63 510.5 43.5 Q482 24 443 12 Q404 0 354 0 L93 0 L93 315 L39 315 L39 397 Z M482 536 Q468 571 430.5 594.5 Q393 618 335 618 L200 618 L200 397 L357 397 L357 315 L200 315 L200 82 L335 82 Q393 82 430.5 105.5 Q468 129 482 164 L482 536 Z " />
<glyph glyph-name="Thorn" unicode="&#xde;" horiz-adv-x="575" d="M71 700 L178 700 L178 593 L331 593 Q394 593 447.5 562.5 Q501 532 533 475 L533 259 Q506 210 454.5 175.5 Q403 141 331 141 L178 141 L178 0 L71 0 L71 700 Z M307 223 Q346 223 378.5 240.5 Q411 258 429 292 L429 442 Q409 480 375 495.5 Q341 511 307 511 L178 511 L178 223 L307 223 Z " />
<glyph glyph-name="uni018F" unicode="&#x18f;" horiz-adv-x="616" d="M450 540 Q435 575 398.5 602.5 Q362 630 303 630 Q274 630 250 622.5 Q226 615 207.5 602.5 Q189 590 176 574 Q163 558 156 540 L156 463 L53 463 L53 569 Q63 591 82.5 616.5 Q102 642 132.5 664 Q163 686 205 700 Q247 714 303 714 Q359 714 402 699.5 Q445 685 476 662.5 Q507 640 527 613.5 Q547 587 558 562 L558 139 Q547 114 527 87 Q507 60 475.5 37.5 Q444 15 401.5 0.5 Q359 -14 303 -14 Q247 -14 205 0 Q163 14 133 36 Q103 58 83.5 83.5 Q64 109 53 132 L53 368 L450 368 L450 540 Z M302 71 Q331 71 355 78.5 Q379 86 397.5 98.5 Q416 111 429.5 127 Q443 143 450 161 L450 293 L153 293 L153 158 Q168 125 205.5 98 Q243 71 302 71 Z " />
<glyph glyph-name="a" unicode="a" horiz-adv-x="545" d="M390 43 Q364 20 325.5 3 Q287 -14 234 -14 Q188 -14 155.5 -4 Q123 6 100.5 19.5 Q78 33 65.5 47.5 Q53 62 48 70 L48 227 Q54 236 66.5 251.5 Q79 267 101 281 Q123 295 155.5 305.5 Q188 316 233 316 Q286 316 324 301.5 Q362 287 387 267 L387 399 Q374 429 343.5 451.5 Q313 474 263 474 Q239 474 220 468.5 Q201 463 187.5 455 Q174 447 165.5 438 Q157 429 152 422 L152 374 L59 374 L59 454 Q65 463 79 479.5 Q93 496 117.5 512.5 Q142 529 178 541 Q214 553 263 553 Q312 553 349.5 540 Q387 527 414.5 507.5 Q442 488 460 464.5 Q478 441 487 420 L487 0 L390 0 L390 43 Z M255 61 Q305 61 338 79 Q371 97 387 120 L387 184 Q372 207 338.5 225 Q305 243 255 243 Q208 243 182 227.5 Q156 212 146 199 L146 108 Q150 103 159 95 Q168 87 181 79.5 Q194 72 212.5 66.5 Q231 61 255 61 Z " />
<glyph glyph-name="b" unicode="b" horiz-adv-x="549" d="M61 700 L161 700 L161 500 Q187 522 223 536.5 Q259 551 309 551 Q353 551 385.5 539 Q418 527 440.5 510 Q463 493 477 473 Q491 453 498 438 L498 101 Q491 86 477 66 Q463 46 440.5 29 Q418 12 385.5 0 Q353 -12 309 -12 Q258 -12 221 3 Q184 18 158 41 L158 0 L61 0 L61 700 Z M284 472 Q239 472 208.5 456.5 Q178 441 161 421 L161 118 Q178 98 208.5 82.5 Q239 67 284 67 Q309 67 328 73 Q347 79 361 87.5 Q375 96 384 106 Q393 116 398 124 L398 415 Q393 423 384 433 Q375 443 361 451.5 Q347 460 328 466 Q309 472 284 472 Z " />
<glyph glyph-name="c" unicode="c" horiz-adv-x="530" d="M51 420 Q60 441 78 464.5 Q96 488 123.5 507.5 Q151 527 188.5 540 Q226 553 275 553 Q324 553 361 540.5 Q398 528 424.5 509.5 Q451 491 467.5 469.5 Q484 448 492 431 L492 337 L399 337 L399 399 Q387 428 355.5 451 Q324 474 275 474 Q225 474 194 451 Q163 428 151 399 L151 140 Q163 111 194 88 Q225 65 275 65 Q324 65 355.5 88 Q387 111 399 140 L399 202 L492 202 L492 108 Q484 91 468 70 Q452 49 425.5 30 Q399 11 361.5 -1.5 Q324 -14 275 -14 Q226 -14 188.5 -1 Q151 12 123.5 31.5 Q96 51 78 74.5 Q60 98 51 119 L51 420 Z " />
<glyph glyph-name="d" unicode="d" horiz-adv-x="549" d="M392 42 Q366 19 328.5 3.5 Q291 -12 240 -12 Q196 -12 163.5 0 Q131 12 108.5 29 Q86 46 72 66 Q58 86 51 101 L51 438 Q58 453 72 473 Q86 493 108.5 510 Q131 527 163.5 539 Q196 551 240 551 Q290 551 326 536.5 Q362 522 388 500 L388 700 L488 700 L488 0 L392 0 L392 42 Z M265 67 Q309 67 340 82 Q371 97 388 118 L388 421 Q371 441 340 456.5 Q309 472 265 472 Q240 472 221 466 Q202 460 188 451.5 Q174 443 164.5 433 Q155 423 151 415 L151 124 Q156 116 165 106 Q174 96 188 87.5 Q202 79 221 73 Q240 67 265 67 Z " />
<glyph glyph-name="e" unicode="e" horiz-adv-x="540" d="M51 420 Q60 441 78 464.5 Q96 488 123.5 507.5 Q151 527 188.5 540 Q226 553 275 553 Q324 553 361.5 540 Q399 527 425.5 508.5 Q452 490 468 469.5 Q484 449 492 433 L492 243 L151 243 L151 140 Q163 111 194 88 Q225 65 275 65 Q324 65 355.5 88 Q387 111 399 140 L399 178 L492 178 L492 106 Q484 89 467.5 68 Q451 47 424.5 29 Q398 11 361 -1.5 Q324 -14 275 -14 Q226 -14 188.5 -1 Q151 12 123.5 31.5 Q96 51 78 74.5 Q60 98 51 119 L51 420 Z M151 313 L399 313 L399 399 Q387 428 355.5 451 Q324 474 275 474 Q225 474 194 451 Q163 428 151 399 L151 313 Z " />
<glyph glyph-name="f" unicode="f" horiz-adv-x="354" d="M24 539 L88 539 L88 630 Q94 644 105.5 660.5 Q117 677 136.5 690.5 Q156 704 185.5 713 Q215 722 257 722 Q285 722 306.5 718.5 Q328 715 336 713 L336 642 Q330 643 318 644 Q306 645 292 645 Q264 645 245.5 639.5 Q227 634 215 626.5 Q203 619 197 610.5 Q191 602 188 596 L188 539 L336 539 L336 464 L188 464 L188 0 L88 0 L88 464 L24 464 L24 539 Z " />
<glyph glyph-name="g" unicode="g" horiz-adv-x="549" d="M55 21 L151 21 L151 -34 Q156 -42 165 -52 Q174 -62 188 -70.5 Q202 -79 221 -84.5 Q240 -90 264 -90 Q315 -90 345 -70.5 Q375 -51 388 -22 L388 118 Q362 96 325.5 81.5 Q289 67 240 67 Q196 67 163.5 79 Q131 91 108.5 108 Q86 125 72 145 Q58 165 51 180 L51 438 Q58 453 72 473 Q86 493 108.5 510 Q131 527 163.5 539 Q196 551 240 551 Q291 551 328.5 535 Q366 519 392 496 L392 539 L488 539 L488 -42 Q479 -64 461 -86.5 Q443 -109 416 -127 Q389 -145 351 -156.5 Q313 -168 264 -168 Q215 -168 179 -156 Q143 -144 117.5 -127.5 Q92 -111 77 -92.5 Q62 -74 55 -60 L55 21 Z M265 146 Q309 146 340 161 Q371 176 388 197 L388 421 Q371 441 340 456.5 Q309 472 265 472 Q240 472 221 466 Q202 460 188 451.5 Q174 443 164.5 433 Q155 423 151 415 L151 203 Q156 195 165 185 Q174 175 188 166.5 Q202 158 221 152 Q240 146 265 146 Z " />
<glyph glyph-name="h" unicode="h" horiz-adv-x="556" d="M398 0 L398 415 Q393 423 384 433 Q375 443 361 451.5 Q347 460 328 466 Q309 472 284 472 Q239 472 208.5 456.5 Q178 441 161 421 L161 0 L61 0 L61 700 L161 700 L161 500 Q187 522 223 536.5 Q259 551 309 551 Q353 551 385.5 539 Q418 527 440.5 510 Q463 493 477 473 Q491 453 498 438 L498 0 L398 0 Z " />
<glyph glyph-name="i" unicode="i" horiz-adv-x="224" d="M55 699 Q60 709 74 718 Q88 727 112 727 Q136 727 150 718 Q164 709 169 699 L169 652 Q164 642 150 633 Q136 624 112 624 Q88 624 74 633 Q60 642 55 652 L55 699 Z M62 539 L162 539 L162 0 L62 0 L62 539 Z " />
<glyph glyph-name="j" unicode="j" horiz-adv-x="223" d="M-62 -92 Q-13 -92 18 -68.5 Q49 -45 61 -13 L61 539 L161 539 L161 -37 Q152 -58 134.5 -81.5 Q117 -105 89.5 -124.5 Q62 -144 24.5 -157 Q-13 -170 -62 -170 L-62 -92 Z M55 699 Q60 709 74 718 Q88 727 111 727 Q135 727 149 718 Q163 709 168 699 L168 652 Q163 642 149 633 Q135 624 111 624 Q88 624 74 633 Q60 642 55 652 L55 699 Z " />
<glyph glyph-name="k" unicode="k" horiz-adv-x="499" d="M61 700 L161 700 L161 302 L175 302 L404 539 L471 539 L471 480 L295 304 L478 59 L478 0 L404 0 L228 236 L161 169 L161 0 L61 0 L61 700 Z " />
<glyph glyph-name="l" unicode="l" horiz-adv-x="222" d="M61 700 L161 700 L161 0 L61 0 L61 700 Z " />
<glyph glyph-name="m" unicode="m" horiz-adv-x="812" d="M358 0 L358 422 Q349 439 327.5 455.5 Q306 472 264 472 Q226 472 200.5 458 Q175 444 161 425 L161 0 L61 0 L61 539 L155 539 L155 498 Q177 521 210 536 Q243 551 289 551 Q347 551 381.5 529.5 Q416 508 435 482 Q458 510 495 530.5 Q532 551 586 551 Q626 551 655 540 Q684 529 704 512.5 Q724 496 736 477.5 Q748 459 754 444 L754 0 L654 0 L654 422 Q645 439 623.5 455.5 Q602 472 560 472 Q522 472 497 458 Q472 444 458 425 L458 0 L358 0 Z " />
<glyph glyph-name="n" unicode="n" horiz-adv-x="556" d="M398 0 L398 415 Q393 423 384 433 Q375 443 361 451.5 Q347 460 328 466 Q309 472 284 472 Q239 472 208.5 456.5 Q178 441 161 421 L161 0 L61 0 L61 539 L155 539 L155 494 Q181 518 218.5 534.5 Q256 551 309 551 Q353 551 385.5 539 Q418 527 440.5 510 Q463 493 477 473 Q491 453 498 438 L498 0 L398 0 Z " />
<glyph glyph-name="o" unicode="o" horiz-adv-x="550" d="M51 420 Q60 441 78 464.5 Q96 488 123.5 507.5 Q151 527 188.5 540 Q226 553 275 553 Q324 553 361.5 540 Q399 527 426.5 507.5 Q454 488 472 464.5 Q490 441 499 420 L499 119 Q490 98 472 74.5 Q454 51 426.5 31.5 Q399 12 361.5 -1 Q324 -14 275 -14 Q226 -14 188.5 -1 Q151 12 123.5 31.5 Q96 51 78 74.5 Q60 98 51 119 L51 420 Z M151 140 Q163 111 194.5 88 Q226 65 275 65 Q325 65 356 88 Q387 111 399 140 L399 399 Q387 428 356 451 Q325 474 275 474 Q226 474 194.5 451 Q163 428 151 399 L151 140 Z " />
<glyph glyph-name="p" unicode="p" horiz-adv-x="549" d="M61 539 L158 539 L158 497 Q184 520 221 535.5 Q258 551 309 551 Q353 551 385.5 539 Q418 527 440.5 510 Q463 493 477 473 Q491 453 498 438 L498 101 Q491 86 477 66 Q463 46 440.5 29 Q418 12 385.5 0 Q353 -12 309 -12 Q259 -12 223 2.5 Q187 17 161 39 L161 -161 L61 -161 L61 539 Z M284 472 Q239 472 208.5 456.5 Q178 441 161 421 L161 118 Q178 98 208.5 82.5 Q239 67 284 67 Q309 67 328 73 Q347 79 361 87.5 Q375 96 384 106 Q393 116 398 124 L398 415 Q393 423 384 433 Q375 443 361 451.5 Q347 460 328 466 Q309 472 284 472 Z " />
<glyph glyph-name="q" unicode="q" horiz-adv-x="549" d="M388 39 Q362 17 325.5 2.5 Q289 -12 240 -12 Q196 -12 163.5 0 Q131 12 108.5 29 Q86 46 72 66 Q58 86 51 101 L51 438 Q58 453 72 473 Q86 493 108.5 510 Q131 527 163.5 539 Q196 551 240 551 Q291 551 328.5 535 Q366 519 392 496 L392 539 L488 539 L488 -161 L388 -161 L388 39 Z M265 67 Q309 67 340 82 Q371 97 388 118 L388 421 Q371 441 340 456.5 Q309 472 265 472 Q240 472 221 466 Q202 460 188 451.5 Q174 443 164.5 433 Q155 423 151 415 L151 124 Q156 116 165 106 Q174 96 188 87.5 Q202 79 221 73 Q240 67 265 67 Z " />
<glyph glyph-name="r" unicode="r" horiz-adv-x="359" d="M61 539 L155 539 L155 468 Q177 497 215.5 518 Q254 539 315 539 Q318 539 323 539 Q328 539 336 538 L336 450 Q327 451 321 451 Q315 451 312 451 Q255 451 217.5 434.5 Q180 418 161 395 L161 0 L61 0 L61 539 Z " />
<glyph glyph-name="s" unicode="s" horiz-adv-x="510" d="M50 169 L143 169 L143 116 Q156 98 183 81 Q210 64 255 64 Q300 64 327.5 81 Q355 98 367 116 L367 180 Q347 212 277 228 L213 242 Q139 258 101 283 Q63 308 50 329 L50 454 Q58 465 73.5 482 Q89 499 114 514.5 Q139 530 173.5 541.5 Q208 553 255 553 Q302 553 337 541.5 Q372 530 396.5 514.5 Q421 499 436.5 482 Q452 465 460 454 L460 372 L367 372 L367 423 Q355 441 327.5 458 Q300 475 255 475 Q210 475 182.5 458 Q155 441 143 423 L143 368 Q163 336 234 321 L296 307 Q370 290 408.5 265.5 Q447 241 460 220 L460 85 Q452 73 436.5 56.5 Q421 40 396 24 Q371 8 336 -3 Q301 -14 255 -14 Q208 -14 173.5 -3 Q139 8 114 24 Q89 40 73.5 57 Q58 74 50 85 L50 169 Z " />
<glyph glyph-name="t" unicode="t" horiz-adv-x="354" d="M24 539 L88 539 L88 653 L188 653 L188 539 L336 539 L336 464 L188 464 L188 116 Q191 110 197.5 101.5 Q204 93 216 85.5 Q228 78 246.5 72.5 Q265 67 292 67 Q306 67 318 68 Q330 69 336 70 L336 -1 Q327 -3 306.5 -6.5 Q286 -10 257 -10 Q215 -10 185.5 -1 Q156 8 136.5 21.5 Q117 35 105.5 51.5 Q94 68 88 82 L88 464 L24 464 L24 539 Z " />
<glyph glyph-name="u" unicode="u" horiz-adv-x="548" d="M158 539 L158 124 Q163 116 171.5 106 Q180 96 193 87.5 Q206 79 224.5 73 Q243 67 268 67 Q312 67 341 82 Q370 97 387 117 L387 539 L487 539 L487 0 L393 0 L393 42 Q368 19 331 3.5 Q294 -12 243 -12 Q199 -12 167.5 0 Q136 12 114 29 Q92 46 78.5 66 Q65 86 58 101 L58 539 L158 539 Z " />
<glyph glyph-name="v" unicode="v" horiz-adv-x="516" d="M33 480 L33 539 L125 539 L254 110 L270 110 L400 539 L483 539 L483 480 L326 0 L191 0 L33 480 Z " />
<glyph glyph-name="w" unicode="w" horiz-adv-x="785" d="M37 480 L37 539 L128 539 L220 109 L236 109 L343 539 L448 539 L554 109 L570 109 L663 539 L748 539 L748 480 L629 0 L501 0 L399 391 L385 391 L283 0 L156 0 L37 480 Z " />
<glyph glyph-name="x" unicode="x" horiz-adv-x="486" d="M37 59 L175 273 L37 480 L37 539 L118 539 L239 328 L247 328 L372 539 L449 539 L449 480 L311 273 L449 59 L449 0 L368 0 L247 211 L239 211 L113 0 L37 0 L37 59 Z " />
<glyph glyph-name="y" unicode="y" horiz-adv-x="507" d="M210 -3 L35 479 L35 539 L127 539 L251 139 L265 139 L388 539 L472 539 L472 481 L281 -94 Q256 -127 208.5 -148.5 Q161 -170 104 -170 Q78 -170 62 -167.5 Q46 -165 38 -163 L38 -91 Q49 -92 63 -92.5 Q77 -93 85 -93 Q123 -93 151.5 -80 Q180 -67 196 -50 L210 -3 Z " />
<glyph glyph-name="z" unicode="z" horiz-adv-x="464" d="M31 69 L308 454 L308 464 L31 464 L31 539 L434 539 L434 474 L152 85 L152 75 L434 75 L434 0 L31 0 L31 69 Z " />
<glyph glyph-name="agrave" unicode="&#xe0;" horiz-adv-x="545" d="M390 43 Q364 20 325.5 3 Q287 -14 234 -14 Q188 -14 155.5 -4 Q123 6 100.5 19.5 Q78 33 65.5 47.5 Q53 62 48 70 L48 227 Q54 236 66.5 251.5 Q79 267 101 281 Q123 295 155.5 305.5 Q188 316 233 316 Q286 316 324 301.5 Q362 287 387 267 L387 399 Q374 429 343.5 451.5 Q313 474 263 474 Q239 474 220 468.5 Q201 463 187.5 455 Q174 447 165.5 438 Q157 429 152 422 L152 374 L59 374 L59 454 Q65 463 79 479.5 Q93 496 117.5 512.5 Q142 529 178 541 Q214 553 263 553 Q312 553 349.5 540 Q387 527 414.5 507.5 Q442 488 460 464.5 Q478 441 487 420 L487 0 L390 0 L390 43 Z M255 61 Q305 61 338 79 Q371 97 387 120 L387 184 Q372 207 338.5 225 Q305 243 255 243 Q208 243 182 227.5 Q156 212 146 199 L146 108 Q150 103 159 95 Q168 87 181 79.5 Q194 72 212.5 66.5 Q231 61 255 61 Z M158 720 L158 766 L251 766 L314 614 L314 599 L239 599 L158 720 Z " />
<glyph glyph-name="aacute" unicode="&#xe1;" horiz-adv-x="545" d="M390 43 Q364 20 325.5 3 Q287 -14 234 -14 Q188 -14 155.5 -4 Q123 6 100.5 19.5 Q78 33 65.5 47.5 Q53 62 48 70 L48 227 Q54 236 66.5 251.5 Q79 267 101 281 Q123 295 155.5 305.5 Q188 316 233 316 Q286 316 324 301.5 Q362 287 387 267 L387 399 Q374 429 343.5 451.5 Q313 474 263 474 Q239 474 220 468.5 Q201 463 187.5 455 Q174 447 165.5 438 Q157 429 152 422 L152 374 L59 374 L59 454 Q65 463 79 479.5 Q93 496 117.5 512.5 Q142 529 178 541 Q214 553 263 553 Q312 553 349.5 540 Q387 527 414.5 507.5 Q442 488 460 464.5 Q478 441 487 420 L487 0 L390 0 L390 43 Z M255 61 Q305 61 338 79 Q371 97 387 120 L387 184 Q372 207 338.5 225 Q305 243 255 243 Q208 243 182 227.5 Q156 212 146 199 L146 108 Q150 103 159 95 Q168 87 181 79.5 Q194 72 212.5 66.5 Q231 61 255 61 Z M228 614 L290 766 L384 766 L384 720 L304 599 L228 599 L228 614 Z " />
<glyph glyph-name="acircumflex" unicode="&#xe2;" horiz-adv-x="545" d="M390 43 Q364 20 325.5 3 Q287 -14 234 -14 Q188 -14 155.5 -4 Q123 6 100.5 19.5 Q78 33 65.5 47.5 Q53 62 48 70 L48 227 Q54 236 66.5 251.5 Q79 267 101 281 Q123 295 155.5 305.5 Q188 316 233 316 Q286 316 324 301.5 Q362 287 387 267 L387 399 Q374 429 343.5 451.5 Q313 474 263 474 Q239 474 220 468.5 Q201 463 187.5 455 Q174 447 165.5 438 Q157 429 152 422 L152 374 L59 374 L59 454 Q65 463 79 479.5 Q93 496 117.5 512.5 Q142 529 178 541 Q214 553 263 553 Q312 553 349.5 540 Q387 527 414.5 507.5 Q442 488 460 464.5 Q478 441 487 420 L487 0 L390 0 L390 43 Z M255 61 Q305 61 338 79 Q371 97 387 120 L387 184 Q372 207 338.5 225 Q305 243 255 243 Q208 243 182 227.5 Q156 212 146 199 L146 108 Q150 103 159 95 Q168 87 181 79.5 Q194 72 212.5 66.5 Q231 61 255 61 Z M120 613 L207 764 L337 764 L424 613 L424 597 L355 597 L272 713 L189 597 L120 597 L120 613 Z " />
<glyph glyph-name="atilde" unicode="&#xe3;" horiz-adv-x="545" d="M390 43 Q364 20 325.5 3 Q287 -14 234 -14 Q188 -14 155.5 -4 Q123 6 100.5 19.5 Q78 33 65.5 47.5 Q53 62 48 70 L48 227 Q54 236 66.5 251.5 Q79 267 101 281 Q123 295 155.5 305.5 Q188 316 233 316 Q286 316 324 301.5 Q362 287 387 267 L387 399 Q374 429 343.5 451.5 Q313 474 263 474 Q239 474 220 468.5 Q201 463 187.5 455 Q174 447 165.5 438 Q157 429 152 422 L152 374 L59 374 L59 454 Q65 463 79 479.5 Q93 496 117.5 512.5 Q142 529 178 541 Q214 553 263 553 Q312 553 349.5 540 Q387 527 414.5 507.5 Q442 488 460 464.5 Q478 441 487 420 L487 0 L390 0 L390 43 Z M255 61 Q305 61 338 79 Q371 97 387 120 L387 184 Q372 207 338.5 225 Q305 243 255 243 Q208 243 182 227.5 Q156 212 146 199 L146 108 Q150 103 159 95 Q168 87 181 79.5 Q194 72 212.5 66.5 Q231 61 255 61 Z M456 679 Q447 653 422 632.5 Q397 612 354 612 Q325 612 305 620.5 Q285 629 268.5 638.5 Q252 648 236.5 656.5 Q221 665 203 665 Q181 665 170 655.5 Q159 646 155 638 L155 618 L92 618 L92 664 Q103 693 129 711.5 Q155 730 195 730 Q223 730 243 722 Q263 714 280 704 Q297 694 312.5 686 Q328 678 346 678 Q365 678 376.5 686 Q388 694 393 706 L393 725 L456 725 L456 679 Z " />
<glyph glyph-name="adieresis" unicode="&#xe4;" horiz-adv-x="545" d="M390 43 Q364 20 325.5 3 Q287 -14 234 -14 Q188 -14 155.5 -4 Q123 6 100.5 19.5 Q78 33 65.5 47.5 Q53 62 48 70 L48 227 Q54 236 66.5 251.5 Q79 267 101 281 Q123 295 155.5 305.5 Q188 316 233 316 Q286 316 324 301.5 Q362 287 387 267 L387 399 Q374 429 343.5 451.5 Q313 474 263 474 Q239 474 220 468.5 Q201 463 187.5 455 Q174 447 165.5 438 Q157 429 152 422 L152 374 L59 374 L59 454 Q65 463 79 479.5 Q93 496 117.5 512.5 Q142 529 178 541 Q214 553 263 553 Q312 553 349.5 540 Q387 527 414.5 507.5 Q442 488 460 464.5 Q478 441 487 420 L487 0 L390 0 L390 43 Z M255 61 Q305 61 338 79 Q371 97 387 120 L387 184 Q372 207 338.5 225 Q305 243 255 243 Q208 243 182 227.5 Q156 212 146 199 L146 108 Q150 103 159 95 Q168 87 181 79.5 Q194 72 212.5 66.5 Q231 61 255 61 Z M121 706 Q126 711 138.5 719 Q151 727 174 727 Q197 727 209.5 719 Q222 711 226 706 L226 641 Q222 636 209.5 628 Q197 620 174 620 Q151 620 138.5 628 Q126 636 121 641 L121 706 Z M328 706 Q333 711 345.5 719 Q358 727 381 727 Q404 727 416 719 Q428 711 433 706 L433 641 Q428 636 416 628 Q404 620 381 620 Q358 620 345.5 628 Q333 636 328 641 L328 706 Z " />
<glyph glyph-name="amacron" unicode="&#x101;" horiz-adv-x="545" d="M390 43 Q364 20 325.5 3 Q287 -14 234 -14 Q188 -14 155.5 -4 Q123 6 100.5 19.5 Q78 33 65.5 47.5 Q53 62 48 70 L48 227 Q54 236 66.5 251.5 Q79 267 101 281 Q123 295 155.5 305.5 Q188 316 233 316 Q286 316 324 301.5 Q362 287 387 267 L387 399 Q374 429 343.5 451.5 Q313 474 263 474 Q239 474 220 468.5 Q201 463 187.5 455 Q174 447 165.5 438 Q157 429 152 422 L152 374 L59 374 L59 454 Q65 463 79 479.5 Q93 496 117.5 512.5 Q142 529 178 541 Q214 553 263 553 Q312 553 349.5 540 Q387 527 414.5 507.5 Q442 488 460 464.5 Q478 441 487 420 L487 0 L390 0 L390 43 Z M255 61 Q305 61 338 79 Q371 97 387 120 L387 184 Q372 207 338.5 225 Q305 243 255 243 Q208 243 182 227.5 Q156 212 146 199 L146 108 Q150 103 159 95 Q168 87 181 79.5 Q194 72 212.5 66.5 Q231 61 255 61 Z M102 716 L441 716 L441 644 L102 644 L102 716 Z " />
<glyph glyph-name="abreve" unicode="&#x103;" horiz-adv-x="545" d="M390 43 Q364 20 325.5 3 Q287 -14 234 -14 Q188 -14 155.5 -4 Q123 6 100.5 19.5 Q78 33 65.5 47.5 Q53 62 48 70 L48 227 Q54 236 66.5 251.5 Q79 267 101 281 Q123 295 155.5 305.5 Q188 316 233 316 Q286 316 324 301.5 Q362 287 387 267 L387 399 Q374 429 343.5 451.5 Q313 474 263 474 Q239 474 220 468.5 Q201 463 187.5 455 Q174 447 165.5 438 Q157 429 152 422 L152 374 L59 374 L59 454 Q65 463 79 479.5 Q93 496 117.5 512.5 Q142 529 178 541 Q214 553 263 553 Q312 553 349.5 540 Q387 527 414.5 507.5 Q442 488 460 464.5 Q478 441 487 420 L487 0 L390 0 L390 43 Z M255 61 Q305 61 338 79 Q371 97 387 120 L387 184 Q372 207 338.5 225 Q305 243 255 243 Q208 243 182 227.5 Q156 212 146 199 L146 108 Q150 103 159 95 Q168 87 181 79.5 Q194 72 212.5 66.5 Q231 61 255 61 Z M121 725 L196 725 L196 698 Q200 689 217.5 674 Q235 659 271 659 Q289 659 302.5 663.5 Q316 668 324.5 674 Q333 680 338 686.5 Q343 693 345 698 L345 725 L421 725 L421 682 Q414 667 402.5 652.5 Q391 638 373.5 626.5 Q356 615 330.5 607.5 Q305 600 271 600 Q236 600 211 607.5 Q186 615 168.5 626.5 Q151 638 139.5 652.5 Q128 667 121 682 L121 725 Z " />
<glyph glyph-name="aring" unicode="&#xe5;" horiz-adv-x="545" d="M390 43 Q364 20 325.5 3 Q287 -14 234 -14 Q188 -14 155.5 -4 Q123 6 100.5 19.5 Q78 33 65.5 47.5 Q53 62 48 70 L48 227 Q54 236 66.5 251.5 Q79 267 101 281 Q123 295 155.5 305.5 Q188 316 233 316 Q286 316 324 301.5 Q362 287 387 267 L387 399 Q374 429 343.5 451.5 Q313 474 263 474 Q239 474 220 468.5 Q201 463 187.5 455 Q174 447 165.5 438 Q157 429 152 422 L152 374 L59 374 L59 454 Q65 463 79 479.5 Q93 496 117.5 512.5 Q142 529 178 541 Q214 553 263 553 Q312 553 349.5 540 Q387 527 414.5 507.5 Q442 488 460 464.5 Q478 441 487 420 L487 0 L390 0 L390 43 Z M255 61 Q305 61 338 79 Q371 97 387 120 L387 184 Q372 207 338.5 225 Q305 243 255 243 Q208 243 182 227.5 Q156 212 146 199 L146 108 Q150 103 159 95 Q168 87 181 79.5 Q194 72 212.5 66.5 Q231 61 255 61 Z M221 659 Q226 651 239.5 643 Q253 635 275 635 Q297 635 310 643 Q323 651 328 659 L328 718 Q323 726 310 734.5 Q297 743 275 743 Q253 743 239.5 734.5 Q226 726 221 718 L221 659 Z M169 731 Q181 754 208.5 771 Q236 788 275 788 Q313 788 341 771 Q369 754 381 731 L381 647 Q369 624 341 607 Q313 590 275 590 Q236 590 208.5 607 Q181 624 169 647 L169 731 Z " />
<glyph glyph-name="aogonek" unicode="&#x105;" horiz-adv-x="545" d="M301 -115 Q306 -105 317.5 -89 Q329 -73 346 -54.5 Q363 -36 385 -17 Q395 -8 405 0 L390 0 L390 43 Q364 20 325.5 3 Q287 -14 234 -14 Q188 -14 155.5 -4 Q123 6 100.5 19.5 Q78 33 65.5 47.5 Q53 62 48 70 L48 227 Q54 236 66.5 251.5 Q79 267 101 281 Q123 295 155.5 305.5 Q188 316 233 316 Q286 316 324 301.5 Q362 287 387 267 L387 399 Q374 429 343.5 451.5 Q313 474 263 474 Q239 474 220 468.5 Q201 463 187.5 455 Q174 447 165.5 438 Q157 429 152 422 L152 374 L59 374 L59 454 Q65 463 79 479.5 Q93 496 117.5 512.5 Q142 529 178 541 Q214 553 263 553 Q312 553 349.5 540 Q387 527 414.5 507.5 Q442 488 460 464.5 Q478 441 487 420 L487 0 Q430 -45 405 -77.5 Q380 -110 375 -120 L375 -153 Q380 -161 393.5 -168 Q407 -175 425 -175 Q442 -175 456.5 -171.5 Q471 -168 487 -160 L487 -216 Q473 -224 456 -228 Q439 -232 410 -232 Q373 -232 343 -220 Q313 -208 301 -184 L301 -115 Z M255 61 Q305 61 338 79 Q371 97 387 120 L387 184 Q372 207 338.5 225 Q305 243 255 243 Q208 243 182 227.5 Q156 212 146 199 L146 108 Q150 103 159 95 Q168 87 181 79.5 Q194 72 212.5 66.5 Q231 61 255 61 Z " />
<glyph glyph-name="ae" unicode="&#xe6;" horiz-adv-x="876" d="M48 227 Q54 236 66.5 251.5 Q79 267 101 281 Q123 295 155.5 305.5 Q188 316 233 316 Q284 316 322.5 301.5 Q361 287 387 267 L387 399 Q374 429 343 451.5 Q312 474 263 474 Q239 474 220.5 468.5 Q202 463 188.5 455 Q175 447 166 438 Q157 429 152 422 L152 374 L59 374 L59 454 Q65 463 79.5 479.5 Q94 496 118.5 512.5 Q143 529 178.5 541 Q214 553 263 553 Q323 553 365.5 534 Q408 515 437 489 Q465 515 508 534 Q551 553 611 553 Q660 553 697.5 540 Q735 527 761.5 508.5 Q788 490 804 469.5 Q820 449 828 433 L828 243 L487 243 L487 140 Q499 111 530 88 Q561 65 611 65 Q660 65 691.5 88 Q723 111 735 140 L735 178 L828 178 L828 106 Q820 89 803.5 68 Q787 47 760.5 29 Q734 11 697 -1.5 Q660 -14 611 -14 Q542 -14 495.5 9.5 Q449 33 421 65 Q393 32 347.5 9 Q302 -14 234 -14 Q188 -14 155.5 -4 Q123 6 100.5 19.5 Q78 33 65.5 47.5 Q53 62 48 70 L48 227 Z M255 61 Q303 61 337 78.5 Q371 96 387 120 L387 184 Q371 207 338 225 Q305 243 255 243 Q206 243 181 227 Q156 211 146 199 L146 108 Q150 103 158.5 95 Q167 87 180.5 79.5 Q194 72 212.5 66.5 Q231 61 255 61 Z M487 313 L735 313 L735 399 Q723 428 691.5 451 Q660 474 611 474 Q561 474 530 451 Q499 428 487 399 L487 313 Z " />
<glyph glyph-name="aeacute" unicode="&#x1fd;" horiz-adv-x="876" d="M48 227 Q54 236 66.5 251.5 Q79 267 101 281 Q123 295 155.5 305.5 Q188 316 233 316 Q284 316 322.5 301.5 Q361 287 387 267 L387 399 Q374 429 343 451.5 Q312 474 263 474 Q239 474 220.5 468.5 Q202 463 188.5 455 Q175 447 166 438 Q157 429 152 422 L152 374 L59 374 L59 454 Q65 463 79.5 479.5 Q94 496 118.5 512.5 Q143 529 178.5 541 Q214 553 263 553 Q323 553 365.5 534 Q408 515 437 489 Q465 515 508 534 Q551 553 611 553 Q660 553 697.5 540 Q735 527 761.5 508.5 Q788 490 804 469.5 Q820 449 828 433 L828 243 L487 243 L487 140 Q499 111 530 88 Q561 65 611 65 Q660 65 691.5 88 Q723 111 735 140 L735 178 L828 178 L828 106 Q820 89 803.5 68 Q787 47 760.5 29 Q734 11 697 -1.5 Q660 -14 611 -14 Q542 -14 495.5 9.5 Q449 33 421 65 Q393 32 347.5 9 Q302 -14 234 -14 Q188 -14 155.5 -4 Q123 6 100.5 19.5 Q78 33 65.5 47.5 Q53 62 48 70 L48 227 Z M255 61 Q303 61 337 78.5 Q371 96 387 120 L387 184 Q371 207 338 225 Q305 243 255 243 Q206 243 181 227 Q156 211 146 199 L146 108 Q150 103 158.5 95 Q167 87 180.5 79.5 Q194 72 212.5 66.5 Q231 61 255 61 Z M487 313 L735 313 L735 399 Q723 428 691.5 451 Q660 474 611 474 Q561 474 530 451 Q499 428 487 399 L487 313 Z M400 614 L462 766 L556 766 L556 720 L476 599 L400 599 L400 614 Z " />
<glyph glyph-name="cacute" unicode="&#x107;" horiz-adv-x="530" d="M51 420 Q60 441 78 464.5 Q96 488 123.5 507.5 Q151 527 188.5 540 Q226 553 275 553 Q324 553 361 540.5 Q398 528 424.5 509.5 Q451 491 467.5 469.5 Q484 448 492 431 L492 337 L399 337 L399 399 Q387 428 355.5 451 Q324 474 275 474 Q225 474 194 451 Q163 428 151 399 L151 140 Q163 111 194 88 Q225 65 275 65 Q324 65 355.5 88 Q387 111 399 140 L399 202 L492 202 L492 108 Q484 91 468 70 Q452 49 425.5 30 Q399 11 361.5 -1.5 Q324 -14 275 -14 Q226 -14 188.5 -1 Q151 12 123.5 31.5 Q96 51 78 74.5 Q60 98 51 119 L51 420 Z M231 614 L293 766 L387 766 L387 720 L307 599 L231 599 L231 614 Z " />
<glyph glyph-name="ccircumflex" unicode="&#x109;" horiz-adv-x="530" d="M51 420 Q60 441 78 464.5 Q96 488 123.5 507.5 Q151 527 188.5 540 Q226 553 275 553 Q324 553 361 540.5 Q398 528 424.5 509.5 Q451 491 467.5 469.5 Q484 448 492 431 L492 337 L399 337 L399 399 Q387 428 355.5 451 Q324 474 275 474 Q225 474 194 451 Q163 428 151 399 L151 140 Q163 111 194 88 Q225 65 275 65 Q324 65 355.5 88 Q387 111 399 140 L399 202 L492 202 L492 108 Q484 91 468 70 Q452 49 425.5 30 Q399 11 361.5 -1.5 Q324 -14 275 -14 Q226 -14 188.5 -1 Q151 12 123.5 31.5 Q96 51 78 74.5 Q60 98 51 119 L51 420 Z M125 613 L212 764 L342 764 L429 613 L429 597 L360 597 L277 713 L194 597 L125 597 L125 613 Z " />
<glyph glyph-name="ccaron" unicode="&#x10d;" horiz-adv-x="530" d="M51 420 Q60 441 78 464.5 Q96 488 123.5 507.5 Q151 527 188.5 540 Q226 553 275 553 Q324 553 361 540.5 Q398 528 424.5 509.5 Q451 491 467.5 469.5 Q484 448 492 431 L492 337 L399 337 L399 399 Q387 428 355.5 451 Q324 474 275 474 Q225 474 194 451 Q163 428 151 399 L151 140 Q163 111 194 88 Q225 65 275 65 Q324 65 355.5 88 Q387 111 399 140 L399 202 L492 202 L492 108 Q484 91 468 70 Q452 49 425.5 30 Q399 11 361.5 -1.5 Q324 -14 275 -14 Q226 -14 188.5 -1 Q151 12 123.5 31.5 Q96 51 78 74.5 Q60 98 51 119 L51 420 Z M122 748 L122 764 L191 764 L274 648 L357 764 L426 764 L426 748 L339 597 L209 597 L122 748 Z " />
<glyph glyph-name="cdotaccent" unicode="&#x10b;" horiz-adv-x="530" d="M51 420 Q60 441 78 464.5 Q96 488 123.5 507.5 Q151 527 188.5 540 Q226 553 275 553 Q324 553 361 540.5 Q398 528 424.5 509.5 Q451 491 467.5 469.5 Q484 448 492 431 L492 337 L399 337 L399 399 Q387 428 355.5 451 Q324 474 275 474 Q225 474 194 451 Q163 428 151 399 L151 140 Q163 111 194 88 Q225 65 275 65 Q324 65 355.5 88 Q387 111 399 140 L399 202 L492 202 L492 108 Q484 91 468 70 Q452 49 425.5 30 Q399 11 361.5 -1.5 Q324 -14 275 -14 Q226 -14 188.5 -1 Q151 12 123.5 31.5 Q96 51 78 74.5 Q60 98 51 119 L51 420 Z M221 709 Q226 719 240 728 Q254 737 278 737 Q302 737 316 728 Q330 719 335 709 L335 659 Q330 649 316 640 Q302 631 278 631 Q254 631 240 640 Q226 649 221 659 L221 709 Z " />
<glyph glyph-name="ccedilla" unicode="&#xe7;" horiz-adv-x="530" d="M194 -174 Q210 -182 229 -187 Q248 -192 270 -192 Q290 -192 304 -185 Q318 -178 322 -169 L322 -123 Q318 -115 305 -108.5 Q292 -102 272 -102 L214 -102 L240 -12 Q212 -9 188 -1 Q151 12 123.5 31.5 Q96 51 78 74.5 Q60 98 51 119 L51 420 Q60 441 78 464.5 Q96 488 123.5 507.5 Q151 527 188.5 540 Q226 553 275 553 Q324 553 361 540.5 Q398 528 424.5 509.5 Q451 491 467.5 469.5 Q484 448 492 431 L492 337 L399 337 L399 399 Q387 428 355.5 451 Q324 474 275 474 Q225 474 194 451 Q163 428 151 399 L151 140 Q163 111 194 88 Q225 65 275 65 Q324 65 355.5 88 Q387 111 399 140 L399 202 L492 202 L492 108 Q484 91 468 70 Q452 49 425.5 30 Q399 11 361 -1 Q330 -12 290 -14 L277 -60 L295 -60 Q330 -60 351 -75 Q372 -90 380 -107 L380 -189 Q369 -212 342 -227 Q315 -242 275 -242 Q243 -242 219 -235.5 Q195 -229 181 -220 L194 -174 Z " />
<glyph glyph-name="dcaron" unicode="&#x10f;" horiz-adv-x="690" d="M392 42 Q366 19 328.5 3.5 Q291 -12 240 -12 Q196 -12 163.5 0 Q131 12 108.5 29 Q86 46 72 66 Q58 86 51 101 L51 438 Q58 453 72 473 Q86 493 108.5 510 Q131 527 163.5 539 Q196 551 240 551 Q290 551 326 536.5 Q362 522 388 500 L388 700 L488 700 L488 0 L392 0 L392 42 Z M265 67 Q309 67 340 82 Q371 97 388 118 L388 421 Q371 441 340 456.5 Q309 472 265 472 Q240 472 221 466 Q202 460 188 451.5 Q174 443 164.5 433 Q155 423 151 415 L151 124 Q156 116 165 106 Q174 96 188 87.5 Q202 79 221 73 Q240 67 265 67 Z M568 531 L587 700 L670 700 L670 646 L632 516 L568 516 L568 531 Z " />
<glyph glyph-name="dcroat" unicode="&#x111;" horiz-adv-x="549" d="M226 649 L388 649 L388 700 L488 700 L488 649 L544 649 L544 592 L488 592 L488 0 L392 0 L392 42 Q366 19 328.5 3.5 Q291 -12 240 -12 Q196 -12 163.5 0 Q131 12 108.5 29 Q86 46 72 66 Q58 86 51 101 L51 434 Q58 449 72 469 Q86 489 108.5 506 Q131 523 163.5 535 Q196 547 240 547 Q290 547 326 532.5 Q362 518 388 496 L388 592 L226 592 L226 649 Z M265 66 Q309 66 340 81 Q371 96 388 117 L388 418 Q371 438 340 453.5 Q309 469 265 469 Q240 469 221 463 Q202 457 188 448.5 Q174 440 164.5 430 Q155 420 151 412 L151 123 Q156 115 165 105 Q174 95 188 86.5 Q202 78 221 72 Q240 66 265 66 Z " />
<glyph glyph-name="egrave" unicode="&#xe8;" horiz-adv-x="540" d="M51 420 Q60 441 78 464.5 Q96 488 123.5 507.5 Q151 527 188.5 540 Q226 553 275 553 Q324 553 361.5 540 Q399 527 425.5 508.5 Q452 490 468 469.5 Q484 449 492 433 L492 243 L151 243 L151 140 Q163 111 194 88 Q225 65 275 65 Q324 65 355.5 88 Q387 111 399 140 L399 178 L492 178 L492 106 Q484 89 467.5 68 Q451 47 424.5 29 Q398 11 361 -1.5 Q324 -14 275 -14 Q226 -14 188.5 -1 Q151 12 123.5 31.5 Q96 51 78 74.5 Q60 98 51 119 L51 420 Z M151 313 L399 313 L399 399 Q387 428 355.5 451 Q324 474 275 474 Q225 474 194 451 Q163 428 151 399 L151 313 Z M171 720 L171 766 L264 766 L327 614 L327 599 L252 599 L171 720 Z " />
<glyph glyph-name="eacute" unicode="&#xe9;" horiz-adv-x="540" d="M51 420 Q60 441 78 464.5 Q96 488 123.5 507.5 Q151 527 188.5 540 Q226 553 275 553 Q324 553 361.5 540 Q399 527 425.5 508.5 Q452 490 468 469.5 Q484 449 492 433 L492 243 L151 243 L151 140 Q163 111 194 88 Q225 65 275 65 Q324 65 355.5 88 Q387 111 399 140 L399 178 L492 178 L492 106 Q484 89 467.5 68 Q451 47 424.5 29 Q398 11 361 -1.5 Q324 -14 275 -14 Q226 -14 188.5 -1 Q151 12 123.5 31.5 Q96 51 78 74.5 Q60 98 51 119 L51 420 Z M151 313 L399 313 L399 399 Q387 428 355.5 451 Q324 474 275 474 Q225 474 194 451 Q163 428 151 399 L151 313 Z M235 614 L297 766 L391 766 L391 720 L311 599 L235 599 L235 614 Z " />
<glyph glyph-name="ecircumflex" unicode="&#xea;" horiz-adv-x="540" d="M51 420 Q60 441 78 464.5 Q96 488 123.5 507.5 Q151 527 188.5 540 Q226 553 275 553 Q324 553 361.5 540 Q399 527 425.5 508.5 Q452 490 468 469.5 Q484 449 492 433 L492 243 L151 243 L151 140 Q163 111 194 88 Q225 65 275 65 Q324 65 355.5 88 Q387 111 399 140 L399 178 L492 178 L492 106 Q484 89 467.5 68 Q451 47 424.5 29 Q398 11 361 -1.5 Q324 -14 275 -14 Q226 -14 188.5 -1 Q151 12 123.5 31.5 Q96 51 78 74.5 Q60 98 51 119 L51 420 Z M151 313 L399 313 L399 399 Q387 428 355.5 451 Q324 474 275 474 Q225 474 194 451 Q163 428 151 399 L151 313 Z M124 613 L211 764 L341 764 L428 613 L428 597 L359 597 L276 713 L193 597 L124 597 L124 613 Z " />
<glyph glyph-name="ecaron" unicode="&#x11b;" horiz-adv-x="540" d="M51 420 Q60 441 78 464.5 Q96 488 123.5 507.5 Q151 527 188.5 540 Q226 553 275 553 Q324 553 361.5 540 Q399 527 425.5 508.5 Q452 490 468 469.5 Q484 449 492 433 L492 243 L151 243 L151 140 Q163 111 194 88 Q225 65 275 65 Q324 65 355.5 88 Q387 111 399 140 L399 178 L492 178 L492 106 Q484 89 467.5 68 Q451 47 424.5 29 Q398 11 361 -1.5 Q324 -14 275 -14 Q226 -14 188.5 -1 Q151 12 123.5 31.5 Q96 51 78 74.5 Q60 98 51 119 L51 420 Z M151 313 L399 313 L399 399 Q387 428 355.5 451 Q324 474 275 474 Q225 474 194 451 Q163 428 151 399 L151 313 Z M125 748 L125 764 L194 764 L277 648 L360 764 L429 764 L429 748 L342 597 L212 597 L125 748 Z " />
<glyph glyph-name="edieresis" unicode="&#xeb;" horiz-adv-x="540" d="M51 420 Q60 441 78 464.5 Q96 488 123.5 507.5 Q151 527 188.5 540 Q226 553 275 553 Q324 553 361.5 540 Q399 527 425.5 508.5 Q452 490 468 469.5 Q484 449 492 433 L492 243 L151 243 L151 140 Q163 111 194 88 Q225 65 275 65 Q324 65 355.5 88 Q387 111 399 140 L399 178 L492 178 L492 106 Q484 89 467.5 68 Q451 47 424.5 29 Q398 11 361 -1.5 Q324 -14 275 -14 Q226 -14 188.5 -1 Q151 12 123.5 31.5 Q96 51 78 74.5 Q60 98 51 119 L51 420 Z M151 313 L399 313 L399 399 Q387 428 355.5 451 Q324 474 275 474 Q225 474 194 451 Q163 428 151 399 L151 313 Z M122 706 Q127 711 139.5 719 Q152 727 175 727 Q198 727 210.5 719 Q223 711 227 706 L227 641 Q223 636 210.5 628 Q198 620 175 620 Q152 620 139.5 628 Q127 636 122 641 L122 706 Z M329 706 Q334 711 346.5 719 Q359 727 382 727 Q405 727 417 719 Q429 711 434 706 L434 641 Q429 636 417 628 Q405 620 382 620 Q359 620 346.5 628 Q334 636 329 641 L329 706 Z " />
<glyph glyph-name="emacron" unicode="&#x113;" horiz-adv-x="540" d="M51 420 Q60 441 78 464.5 Q96 488 123.5 507.5 Q151 527 188.5 540 Q226 553 275 553 Q324 553 361.5 540 Q399 527 425.5 508.5 Q452 490 468 469.5 Q484 449 492 433 L492 243 L151 243 L151 140 Q163 111 194 88 Q225 65 275 65 Q324 65 355.5 88 Q387 111 399 140 L399 178 L492 178 L492 106 Q484 89 467.5 68 Q451 47 424.5 29 Q398 11 361 -1.5 Q324 -14 275 -14 Q226 -14 188.5 -1 Q151 12 123.5 31.5 Q96 51 78 74.5 Q60 98 51 119 L51 420 Z M151 313 L399 313 L399 399 Q387 428 355.5 451 Q324 474 275 474 Q225 474 194 451 Q163 428 151 399 L151 313 Z M108 716 L447 716 L447 644 L108 644 L108 716 Z " />
<glyph glyph-name="ebreve" unicode="&#x115;" horiz-adv-x="540" d="M51 420 Q60 441 78 464.5 Q96 488 123.5 507.5 Q151 527 188.5 540 Q226 553 275 553 Q324 553 361.5 540 Q399 527 425.5 508.5 Q452 490 468 469.5 Q484 449 492 433 L492 243 L151 243 L151 140 Q163 111 194 88 Q225 65 275 65 Q324 65 355.5 88 Q387 111 399 140 L399 178 L492 178 L492 106 Q484 89 467.5 68 Q451 47 424.5 29 Q398 11 361 -1.5 Q324 -14 275 -14 Q226 -14 188.5 -1 Q151 12 123.5 31.5 Q96 51 78 74.5 Q60 98 51 119 L51 420 Z M151 313 L399 313 L399 399 Q387 428 355.5 451 Q324 474 275 474 Q225 474 194 451 Q163 428 151 399 L151 313 Z M125 725 L200 725 L200 698 Q204 689 221.5 674 Q239 659 275 659 Q293 659 306.5 663.5 Q320 668 328.5 674 Q337 680 342 686.5 Q347 693 349 698 L349 725 L425 725 L425 682 Q418 667 406.5 652.5 Q395 638 377.5 626.5 Q360 615 334.5 607.5 Q309 600 275 600 Q240 600 215 607.5 Q190 615 172.5 626.5 Q155 638 143.5 652.5 Q132 667 125 682 L125 725 Z " />
<glyph glyph-name="edotaccent" unicode="&#x117;" horiz-adv-x="540" d="M51 420 Q60 441 78 464.5 Q96 488 123.5 507.5 Q151 527 188.5 540 Q226 553 275 553 Q324 553 361.5 540 Q399 527 425.5 508.5 Q452 490 468 469.5 Q484 449 492 433 L492 243 L151 243 L151 140 Q163 111 194 88 Q225 65 275 65 Q324 65 355.5 88 Q387 111 399 140 L399 178 L492 178 L492 106 Q484 89 467.5 68 Q451 47 424.5 29 Q398 11 361 -1.5 Q324 -14 275 -14 Q226 -14 188.5 -1 Q151 12 123.5 31.5 Q96 51 78 74.5 Q60 98 51 119 L51 420 Z M151 313 L399 313 L399 399 Q387 428 355.5 451 Q324 474 275 474 Q225 474 194 451 Q163 428 151 399 L151 313 Z M221 704 Q226 714 240 723 Q254 732 278 732 Q302 732 316 723 Q330 714 335 704 L335 654 Q330 644 316 635 Q302 626 278 626 Q254 626 240 635 Q226 644 221 654 L221 704 Z " />
<glyph glyph-name="eogonek" unicode="&#x119;" horiz-adv-x="540" d="M307 -104 Q310 -93 323 -66 Q336 -39 356 -3 Q320 -14 275 -14 Q226 -14 188.5 -1 Q151 12 123.5 31.5 Q96 51 78 74.5 Q60 98 51 119 L51 420 Q60 441 78 464.5 Q96 488 123.5 507.5 Q151 527 188.5 540 Q226 553 275 553 Q324 553 361.5 540 Q399 527 425.5 508.5 Q452 490 468 469.5 Q484 449 492 433 L492 243 L151 243 L151 140 Q163 111 194 88 Q225 65 275 65 Q324 65 355.5 88 Q387 111 399 140 L399 178 L492 178 L492 103 Q480 84 465 59 Q450 34 434.5 6 Q419 -22 405 -52 Q391 -82 381 -110 L381 -142 Q385 -151 398.5 -157.5 Q412 -164 430 -164 Q447 -164 461.5 -160.5 Q476 -157 492 -150 L492 -205 Q478 -213 461 -217.5 Q444 -222 415 -222 Q378 -222 348 -209.5 Q318 -197 307 -173 L307 -104 Z M151 313 L399 313 L399 399 Q387 428 355.5 451 Q324 474 275 474 Q225 474 194 451 Q163 428 151 399 L151 313 Z " />
<glyph glyph-name="gcircumflex" unicode="&#x11d;" horiz-adv-x="549" d="M55 21 L151 21 L151 -34 Q156 -42 165 -52 Q174 -62 188 -70.5 Q202 -79 221 -84.5 Q240 -90 264 -90 Q315 -90 345 -70.5 Q375 -51 388 -22 L388 118 Q362 96 325.5 81.5 Q289 67 240 67 Q196 67 163.5 79 Q131 91 108.5 108 Q86 125 72 145 Q58 165 51 180 L51 438 Q58 453 72 473 Q86 493 108.5 510 Q131 527 163.5 539 Q196 551 240 551 Q291 551 328.5 535 Q366 519 392 496 L392 539 L488 539 L488 -42 Q479 -64 461 -86.5 Q443 -109 416 -127 Q389 -145 351 -156.5 Q313 -168 264 -168 Q215 -168 179 -156 Q143 -144 117.5 -127.5 Q92 -111 77 -92.5 Q62 -74 55 -60 L55 21 Z M265 146 Q309 146 340 161 Q371 176 388 197 L388 421 Q371 441 340 456.5 Q309 472 265 472 Q240 472 221 466 Q202 460 188 451.5 Q174 443 164.5 433 Q155 423 151 415 L151 203 Q156 195 165 185 Q174 175 188 166.5 Q202 158 221 152 Q240 146 265 146 Z M131 613 L218 764 L348 764 L435 613 L435 597 L366 597 L283 713 L200 597 L131 597 L131 613 Z " />
<glyph glyph-name="gbreve" unicode="&#x11f;" horiz-adv-x="549" d="M55 21 L151 21 L151 -34 Q156 -42 165 -52 Q174 -62 188 -70.5 Q202 -79 221 -84.5 Q240 -90 264 -90 Q315 -90 345 -70.5 Q375 -51 388 -22 L388 118 Q362 96 325.5 81.5 Q289 67 240 67 Q196 67 163.5 79 Q131 91 108.5 108 Q86 125 72 145 Q58 165 51 180 L51 438 Q58 453 72 473 Q86 493 108.5 510 Q131 527 163.5 539 Q196 551 240 551 Q291 551 328.5 535 Q366 519 392 496 L392 539 L488 539 L488 -42 Q479 -64 461 -86.5 Q443 -109 416 -127 Q389 -145 351 -156.5 Q313 -168 264 -168 Q215 -168 179 -156 Q143 -144 117.5 -127.5 Q92 -111 77 -92.5 Q62 -74 55 -60 L55 21 Z M265 146 Q309 146 340 161 Q371 176 388 197 L388 421 Q371 441 340 456.5 Q309 472 265 472 Q240 472 221 466 Q202 460 188 451.5 Q174 443 164.5 433 Q155 423 151 415 L151 203 Q156 195 165 185 Q174 175 188 166.5 Q202 158 221 152 Q240 146 265 146 Z M129 725 L204 725 L204 698 Q208 689 225.5 674 Q243 659 279 659 Q297 659 310.5 663.5 Q324 668 332.5 674 Q341 680 346 686.5 Q351 693 353 698 L353 725 L429 725 L429 682 Q422 667 410.5 652.5 Q399 638 381.5 626.5 Q364 615 338.5 607.5 Q313 600 279 600 Q244 600 219 607.5 Q194 615 176.5 626.5 Q159 638 147.5 652.5 Q136 667 129 682 L129 725 Z " />
<glyph glyph-name="gdotaccent" unicode="&#x121;" horiz-adv-x="549" d="M55 21 L151 21 L151 -34 Q156 -42 165 -52 Q174 -62 188 -70.5 Q202 -79 221 -84.5 Q240 -90 264 -90 Q315 -90 345 -70.5 Q375 -51 388 -22 L388 118 Q362 96 325.5 81.5 Q289 67 240 67 Q196 67 163.5 79 Q131 91 108.5 108 Q86 125 72 145 Q58 165 51 180 L51 438 Q58 453 72 473 Q86 493 108.5 510 Q131 527 163.5 539 Q196 551 240 551 Q291 551 328.5 535 Q366 519 392 496 L392 539 L488 539 L488 -42 Q479 -64 461 -86.5 Q443 -109 416 -127 Q389 -145 351 -156.5 Q313 -168 264 -168 Q215 -168 179 -156 Q143 -144 117.5 -127.5 Q92 -111 77 -92.5 Q62 -74 55 -60 L55 21 Z M265 146 Q309 146 340 161 Q371 176 388 197 L388 421 Q371 441 340 456.5 Q309 472 265 472 Q240 472 221 466 Q202 460 188 451.5 Q174 443 164.5 433 Q155 423 151 415 L151 203 Q156 195 165 185 Q174 175 188 166.5 Q202 158 221 152 Q240 146 265 146 Z M221 704 Q226 714 240 723 Q254 732 278 732 Q302 732 316 723 Q330 714 335 704 L335 654 Q330 644 316 635 Q302 626 278 626 Q254 626 240 635 Q226 644 221 654 L221 704 Z " />
<glyph glyph-name="gcommaaccent" unicode="&#x123;" horiz-adv-x="549" d="M55 21 L151 21 L151 -34 Q156 -42 165 -52 Q174 -62 188 -70.5 Q202 -79 221 -84.5 Q240 -90 264 -90 Q315 -90 345 -70.5 Q375 -51 388 -22 L388 118 Q362 96 325.5 81.5 Q289 67 240 67 Q196 67 163.5 79 Q131 91 108.5 108 Q86 125 72 145 Q58 165 51 180 L51 438 Q58 453 72 473 Q86 493 108.5 510 Q131 527 163.5 539 Q196 551 240 551 Q291 551 328.5 535 Q366 519 392 496 L392 539 L488 539 L488 -42 Q479 -64 461 -86.5 Q443 -109 416 -127 Q389 -145 351 -156.5 Q313 -168 264 -168 Q215 -168 179 -156 Q143 -144 117.5 -127.5 Q92 -111 77 -92.5 Q62 -74 55 -60 L55 21 Z M265 146 Q309 146 340 161 Q371 176 388 197 L388 421 Q371 441 340 456.5 Q309 472 265 472 Q240 472 221 466 Q202 460 188 451.5 Q174 443 164.5 433 Q155 423 151 415 L151 203 Q156 195 165 185 Q174 175 188 166.5 Q202 158 221 152 Q240 146 265 146 Z M226 732 Q230 744 249.5 759 Q269 774 302 774 L329 774 L329 734 L312 734 Q286 734 280 723 L280 695 Q305 695 319.5 686.5 Q334 678 338 668 L338 627 Q334 618 320 609 Q306 600 283 600 Q260 600 245.5 609 Q231 618 226 627 L226 732 Z " />
<glyph glyph-name="hcircumflex" unicode="&#x125;" horiz-adv-x="556" d="M398 0 L398 415 Q393 423 384 433 Q375 443 361 451.5 Q347 460 328 466 Q309 472 284 472 Q239 472 208.5 456.5 Q178 441 161 421 L161 0 L61 0 L61 700 L161 700 L161 500 Q187 522 223 536.5 Q259 551 309 551 Q353 551 385.5 539 Q418 527 440.5 510 Q463 493 477 473 Q491 453 498 438 L498 0 L398 0 Z M135 765 L222 903 L352 903 L439 765 L439 749 L370 749 L287 852 L204 749 L135 749 L135 765 Z " />
<glyph glyph-name="hbar" unicode="&#x127;" horiz-adv-x="556" d="M15 649 L61 649 L61 700 L161 700 L161 649 L334 649 L334 592 L161 592 L161 496 Q187 518 223 532.5 Q259 547 309 547 Q353 547 385.5 535 Q418 523 440.5 506 Q463 489 477 469 Q491 449 498 434 L498 0 L398 0 L398 411 Q393 419 384 429 Q375 439 361 447.5 Q347 456 328 462 Q309 468 284 468 Q239 468 208.5 452.5 Q178 437 161 417 L161 0 L61 0 L61 592 L15 592 L15 649 Z " />
<glyph glyph-name="igrave" unicode="&#xec;" horiz-adv-x="224" d="M62 539 L162 539 L162 0 L62 0 L62 539 Z M7 720 L7 766 L100 766 L163 614 L163 599 L88 599 L7 720 Z " />
<glyph glyph-name="iacute" unicode="&#xed;" horiz-adv-x="224" d="M62 539 L162 539 L162 0 L62 0 L62 539 Z M63 614 L125 766 L219 766 L219 720 L139 599 L63 599 L63 614 Z " />
<glyph glyph-name="icircumflex" unicode="&#xee;" horiz-adv-x="224" d="M62 539 L162 539 L162 0 L62 0 L62 539 Z M-39 613 L48 764 L178 764 L265 613 L265 597 L196 597 L113 713 L30 597 L-39 597 L-39 613 Z " />
<glyph glyph-name="itilde" unicode="&#x129;" horiz-adv-x="224" d="M62 539 L162 539 L162 0 L62 0 L62 539 Z M295 679 Q286 653 261 632.5 Q236 612 193 612 Q164 612 144 620.5 Q124 629 107.5 638.5 Q91 648 75.5 656.5 Q60 665 42 665 Q20 665 9 655.5 Q-2 646 -6 638 L-6 618 L-69 618 L-69 664 Q-58 693 -32 711.5 Q-6 730 34 730 Q62 730 82 722 Q102 714 119 704 Q136 694 151.5 686 Q167 678 185 678 Q204 678 215.5 686 Q227 694 232 706 L232 725 L295 725 L295 679 Z " />
<glyph glyph-name="idieresis" unicode="&#xef;" horiz-adv-x="224" d="M62 539 L162 539 L162 0 L62 0 L62 539 Z M-43 706 Q-38 711 -25.5 719 Q-13 727 10 727 Q33 727 45.5 719 Q58 711 62 706 L62 641 Q58 636 45.5 628 Q33 620 10 620 Q-13 620 -25.5 628 Q-38 636 -43 641 L-43 706 Z M164 706 Q169 711 181.5 719 Q194 727 217 727 Q240 727 252 719 Q264 711 269 706 L269 641 Q264 636 252 628 Q240 620 217 620 Q194 620 181.5 628 Q169 636 164 641 L164 706 Z " />
<glyph glyph-name="imacron" unicode="&#x12b;" horiz-adv-x="224" d="M62 539 L162 539 L162 0 L62 0 L62 539 Z M-56 716 L283 716 L283 644 L-56 644 L-56 716 Z " />
<glyph glyph-name="ibreve" unicode="&#x12d;" horiz-adv-x="224" d="M62 539 L162 539 L162 0 L62 0 L62 539 Z M-37 725 L38 725 L38 698 Q42 689 59.5 674 Q77 659 113 659 Q131 659 144.5 663.5 Q158 668 166.5 674 Q175 680 180 686.5 Q185 693 187 698 L187 725 L263 725 L263 682 Q256 667 244.5 652.5 Q233 638 215.5 626.5 Q198 615 172.5 607.5 Q147 600 113 600 Q78 600 53 607.5 Q28 615 10.5 626.5 Q-7 638 -18.5 652.5 Q-30 667 -37 682 L-37 725 Z " />
<glyph glyph-name="iogonek" unicode="&#x12f;" horiz-adv-x="224" d="M-24 -115 Q-19 -105 -7.5 -89 Q4 -73 21 -54.5 Q38 -36 60 -17 Q70 -8 80 0 L62 0 L62 539 L162 539 L162 0 Q105 -45 80 -77.5 Q55 -110 50 -120 L50 -153 Q55 -161 68.5 -168 Q82 -175 100 -175 Q117 -175 131.5 -171.5 Q146 -168 162 -160 L162 -216 Q148 -224 131 -228 Q114 -232 85 -232 Q48 -232 18 -220 Q-12 -208 -24 -184 L-24 -115 Z M55 699 Q60 709 74 718 Q88 727 112 727 Q136 727 150 718 Q164 709 169 699 L169 652 Q164 642 150 633 Q136 624 112 624 Q88 624 74 633 Q60 642 55 652 L55 699 Z " />
<glyph glyph-name="dotlessi" unicode="&#x131;" horiz-adv-x="224" d="M62 539 L162 539 L162 0 L62 0 L62 539 Z " />
<glyph glyph-name="ij" unicode="&#x133;" horiz-adv-x="447" d="M55 699 Q60 709 74 718 Q88 727 112 727 Q136 727 150 718 Q164 709 169 699 L169 652 Q164 642 150 633 Q136 624 112 624 Q88 624 74 633 Q60 642 55 652 L55 699 Z M62 539 L162 539 L162 0 L62 0 L62 539 Z M162 -92 Q211 -92 242 -68.5 Q273 -45 285 -13 L285 539 L385 539 L385 -37 Q376 -58 358.5 -81.5 Q341 -105 313.5 -124.5 Q286 -144 248.5 -157 Q211 -170 162 -170 L162 -92 Z M279 699 Q284 709 298 718 Q312 727 335 727 Q359 727 373 718 Q387 709 392 699 L392 652 Q387 642 373 633 Q359 624 335 624 Q312 624 298 633 Q284 642 279 652 L279 699 Z " />
<glyph glyph-name="dotlessj" unicode="&#x237;" horiz-adv-x="223" d="M-62 -92 Q-13 -92 18 -68.5 Q49 -45 61 -13 L61 539 L161 539 L161 -37 Q152 -58 134.5 -81.5 Q117 -105 89.5 -124.5 Q62 -144 24.5 -157 Q-13 -170 -62 -170 L-62 -92 Z " />
<glyph glyph-name="jcircumflex" unicode="&#x135;" horiz-adv-x="223" d="M-62 -92 Q-13 -92 18 -68.5 Q49 -45 61 -13 L61 539 L161 539 L161 -37 Q152 -58 134.5 -81.5 Q117 -105 89.5 -124.5 Q62 -144 24.5 -157 Q-13 -170 -62 -170 L-62 -92 Z M-40 613 L47 764 L177 764 L264 613 L264 597 L195 597 L112 713 L29 597 L-40 597 L-40 613 Z " />
<glyph glyph-name="kcommaaccent" unicode="&#x137;" horiz-adv-x="499" d="M61 700 L161 700 L161 302 L175 302 L404 539 L471 539 L471 480 L295 304 L478 59 L478 0 L404 0 L228 236 L161 169 L161 0 L61 0 L61 700 Z M211 -173 L236 -173 Q255 -173 262 -162 L262 -135 L260 -135 Q237 -135 224 -130.5 Q211 -126 207 -121 L207 -71 Q211 -66 224 -60 Q237 -54 260 -54 Q283 -54 296 -60 Q309 -66 313 -71 L313 -166 Q307 -183 289 -195.5 Q271 -208 245 -208 L211 -208 L211 -173 Z " />
<glyph glyph-name="kgreenlandic" unicode="&#x138;" horiz-adv-x="499" d="M61 539 L161 539 L161 302 L175 302 L404 539 L471 539 L471 480 L295 304 L479 59 L479 0 L403 0 L228 236 L161 169 L161 0 L61 0 L61 539 Z " />
<glyph glyph-name="lacute" unicode="&#x13a;" horiz-adv-x="222" d="M61 700 L161 700 L161 0 L61 0 L61 700 Z M64 765 L126 903 L218 903 L218 857 L138 749 L64 749 L64 765 Z " />
<glyph glyph-name="lcaron" unicode="&#x13e;" horiz-adv-x="361" d="M61 700 L161 700 L161 0 L61 0 L61 700 Z M239 531 L258 700 L341 700 L341 646 L303 516 L239 516 L239 531 Z " />
<glyph glyph-name="lcommaaccent" unicode="&#x13c;" horiz-adv-x="222" d="M61 700 L161 700 L161 0 L61 0 L61 700 Z M63 -173 L88 -173 Q107 -173 114 -162 L114 -135 L112 -135 Q89 -135 76 -130.5 Q63 -126 59 -121 L59 -71 Q63 -66 76 -60 Q89 -54 112 -54 Q135 -54 148 -60 Q161 -66 165 -71 L165 -166 Q159 -183 141 -195.5 Q123 -208 97 -208 L63 -208 L63 -173 Z " />
<glyph glyph-name="lslash" unicode="&#x142;" horiz-adv-x="342" d="M30 338 L121 391 L121 700 L221 700 L221 449 L312 502 L312 418 L221 365 L221 0 L121 0 L121 307 L30 255 L30 338 Z " />
<glyph glyph-name="ldot" unicode="&#x140;" horiz-adv-x="397" d="M251 390 Q256 400 270 409 Q284 418 308 418 Q332 418 346 409 Q360 400 365 390 L365 340 Q360 330 346 321 Q332 312 308 312 Q284 312 270 321 Q256 330 251 340 L251 390 Z M62 700 L162 700 L162 0 L62 0 L62 700 Z " />
<glyph glyph-name="nacute" unicode="&#x144;" horiz-adv-x="556" d="M398 0 L398 415 Q393 423 384 433 Q375 443 361 451.5 Q347 460 328 466 Q309 472 284 472 Q239 472 208.5 456.5 Q178 441 161 421 L161 0 L61 0 L61 539 L155 539 L155 494 Q181 518 218.5 534.5 Q256 551 309 551 Q353 551 385.5 539 Q418 527 440.5 510 Q463 493 477 473 Q491 453 498 438 L498 0 L398 0 Z M234 616 L296 768 L390 768 L390 722 L310 601 L234 601 L234 616 Z " />
<glyph glyph-name="ncaron" unicode="&#x148;" horiz-adv-x="556" d="M398 0 L398 415 Q393 423 384 433 Q375 443 361 451.5 Q347 460 328 466 Q309 472 284 472 Q239 472 208.5 456.5 Q178 441 161 421 L161 0 L61 0 L61 539 L155 539 L155 494 Q181 518 218.5 534.5 Q256 551 309 551 Q353 551 385.5 539 Q418 527 440.5 510 Q463 493 477 473 Q491 453 498 438 L498 0 L398 0 Z M128 750 L128 766 L197 766 L280 650 L363 766 L432 766 L432 750 L345 599 L215 599 L128 750 Z " />
<glyph glyph-name="ntilde" unicode="&#xf1;" horiz-adv-x="556" d="M398 0 L398 415 Q393 423 384 433 Q375 443 361 451.5 Q347 460 328 466 Q309 472 284 472 Q239 472 208.5 456.5 Q178 441 161 421 L161 0 L61 0 L61 539 L155 539 L155 494 Q181 518 218.5 534.5 Q256 551 309 551 Q353 551 385.5 539 Q418 527 440.5 510 Q463 493 477 473 Q491 453 498 438 L498 0 L398 0 Z M462 681 Q453 655 428 634.5 Q403 614 360 614 Q331 614 311 622.5 Q291 631 274.5 640.5 Q258 650 242.5 658.5 Q227 667 209 667 Q187 667 176 657.5 Q165 648 161 640 L161 620 L98 620 L98 666 Q109 695 135 713.5 Q161 732 201 732 Q229 732 249 724 Q269 716 286 706 Q303 696 318.5 688 Q334 680 352 680 Q371 680 382.5 688 Q394 696 399 708 L399 727 L462 727 L462 681 Z " />
<glyph glyph-name="ncommaaccent" unicode="&#x146;" horiz-adv-x="556" d="M398 0 L398 415 Q393 423 384 433 Q375 443 361 451.5 Q347 460 328 466 Q309 472 284 472 Q239 472 208.5 456.5 Q178 441 161 421 L161 0 L61 0 L61 539 L155 539 L155 494 Q181 518 218.5 534.5 Q256 551 309 551 Q353 551 385.5 539 Q418 527 440.5 510 Q463 493 477 473 Q491 453 498 438 L498 0 L398 0 Z M229 -172 L254 -172 Q273 -172 280 -161 L280 -134 L278 -134 Q255 -134 242 -129.5 Q229 -125 225 -120 L225 -70 Q229 -65 242 -59 Q255 -53 278 -53 Q301 -53 314 -59 Q327 -65 331 -70 L331 -165 Q325 -182 307 -194.5 Q289 -207 263 -207 L229 -207 L229 -172 Z " />
<glyph glyph-name="napostrophe" unicode="&#x149;" horiz-adv-x="556" d="M398 0 L398 415 Q393 423 384 433 Q375 443 361 451.5 Q347 460 328 466 Q309 472 284 472 Q239 472 208.5 456.5 Q178 441 161 421 L161 0 L61 0 L61 539 L155 539 L155 494 Q181 518 218.5 534.5 Q256 551 309 551 Q353 551 385.5 539 Q418 527 440.5 510 Q463 493 477 473 Q491 453 498 438 L498 0 L398 0 Z M23 626 L48 626 Q67 626 74 637 L74 664 L72 664 Q49 664 36 668.5 Q23 673 19 678 L19 728 Q23 733 36 739 Q49 745 72 745 Q95 745 108 739 Q121 733 125 728 L125 633 Q119 616 101 603.5 Q83 591 57 591 L23 591 L23 626 Z " />
<glyph glyph-name="ograve" unicode="&#xf2;" horiz-adv-x="550" d="M51 420 Q60 441 78 464.5 Q96 488 123.5 507.5 Q151 527 188.5 540 Q226 553 275 553 Q324 553 361.5 540 Q399 527 426.5 507.5 Q454 488 472 464.5 Q490 441 499 420 L499 119 Q490 98 472 74.5 Q454 51 426.5 31.5 Q399 12 361.5 -1 Q324 -14 275 -14 Q226 -14 188.5 -1 Q151 12 123.5 31.5 Q96 51 78 74.5 Q60 98 51 119 L51 420 Z M151 140 Q163 111 194.5 88 Q226 65 275 65 Q325 65 356 88 Q387 111 399 140 L399 399 Q387 428 356 451 Q325 474 275 474 Q226 474 194.5 451 Q163 428 151 399 L151 140 Z M166 722 L166 768 L259 768 L322 616 L322 601 L247 601 L166 722 Z " />
<glyph glyph-name="oacute" unicode="&#xf3;" horiz-adv-x="550" d="M51 420 Q60 441 78 464.5 Q96 488 123.5 507.5 Q151 527 188.5 540 Q226 553 275 553 Q324 553 361.5 540 Q399 527 426.5 507.5 Q454 488 472 464.5 Q490 441 499 420 L499 119 Q490 98 472 74.5 Q454 51 426.5 31.5 Q399 12 361.5 -1 Q324 -14 275 -14 Q226 -14 188.5 -1 Q151 12 123.5 31.5 Q96 51 78 74.5 Q60 98 51 119 L51 420 Z M151 140 Q163 111 194.5 88 Q226 65 275 65 Q325 65 356 88 Q387 111 399 140 L399 399 Q387 428 356 451 Q325 474 275 474 Q226 474 194.5 451 Q163 428 151 399 L151 140 Z M236 616 L298 768 L392 768 L392 722 L312 601 L236 601 L236 616 Z " />
<glyph glyph-name="ocircumflex" unicode="&#xf4;" horiz-adv-x="550" d="M51 420 Q60 441 78 464.5 Q96 488 123.5 507.5 Q151 527 188.5 540 Q226 553 275 553 Q324 553 361.5 540 Q399 527 426.5 507.5 Q454 488 472 464.5 Q490 441 499 420 L499 119 Q490 98 472 74.5 Q454 51 426.5 31.5 Q399 12 361.5 -1 Q324 -14 275 -14 Q226 -14 188.5 -1 Q151 12 123.5 31.5 Q96 51 78 74.5 Q60 98 51 119 L51 420 Z M151 140 Q163 111 194.5 88 Q226 65 275 65 Q325 65 356 88 Q387 111 399 140 L399 399 Q387 428 356 451 Q325 474 275 474 Q226 474 194.5 451 Q163 428 151 399 L151 140 Z M126 613 L213 764 L343 764 L430 613 L430 597 L361 597 L278 713 L195 597 L126 597 L126 613 Z " />
<glyph glyph-name="otilde" unicode="&#xf5;" horiz-adv-x="550" d="M51 420 Q60 441 78 464.5 Q96 488 123.5 507.5 Q151 527 188.5 540 Q226 553 275 553 Q324 553 361.5 540 Q399 527 426.5 507.5 Q454 488 472 464.5 Q490 441 499 420 L499 119 Q490 98 472 74.5 Q454 51 426.5 31.5 Q399 12 361.5 -1 Q324 -14 275 -14 Q226 -14 188.5 -1 Q151 12 123.5 31.5 Q96 51 78 74.5 Q60 98 51 119 L51 420 Z M151 140 Q163 111 194.5 88 Q226 65 275 65 Q325 65 356 88 Q387 111 399 140 L399 399 Q387 428 356 451 Q325 474 275 474 Q226 474 194.5 451 Q163 428 151 399 L151 140 Z M459 681 Q450 655 425 634.5 Q400 614 357 614 Q328 614 308 622.5 Q288 631 271.5 640.5 Q255 650 239.5 658.5 Q224 667 206 667 Q184 667 173 657.5 Q162 648 158 640 L158 620 L95 620 L95 666 Q106 695 132 713.5 Q158 732 198 732 Q226 732 246 724 Q266 716 283 706 Q300 696 315.5 688 Q331 680 349 680 Q368 680 379.5 688 Q391 696 396 708 L396 727 L459 727 L459 681 Z " />
<glyph glyph-name="odieresis" unicode="&#xf6;" horiz-adv-x="550" d="M51 420 Q60 441 78 464.5 Q96 488 123.5 507.5 Q151 527 188.5 540 Q226 553 275 553 Q324 553 361.5 540 Q399 527 426.5 507.5 Q454 488 472 464.5 Q490 441 499 420 L499 119 Q490 98 472 74.5 Q454 51 426.5 31.5 Q399 12 361.5 -1 Q324 -14 275 -14 Q226 -14 188.5 -1 Q151 12 123.5 31.5 Q96 51 78 74.5 Q60 98 51 119 L51 420 Z M151 140 Q163 111 194.5 88 Q226 65 275 65 Q325 65 356 88 Q387 111 399 140 L399 399 Q387 428 356 451 Q325 474 275 474 Q226 474 194.5 451 Q163 428 151 399 L151 140 Z M120 706 Q125 711 137.5 719 Q150 727 173 727 Q196 727 208.5 719 Q221 711 225 706 L225 641 Q221 636 208.5 628 Q196 620 173 620 Q150 620 137.5 628 Q125 636 120 641 L120 706 Z M327 706 Q332 711 344.5 719 Q357 727 380 727 Q403 727 415 719 Q427 711 432 706 L432 641 Q427 636 415 628 Q403 620 380 620 Q357 620 344.5 628 Q332 636 327 641 L327 706 Z " />
<glyph glyph-name="omacron" unicode="&#x14d;" horiz-adv-x="550" d="M51 420 Q60 441 78 464.5 Q96 488 123.5 507.5 Q151 527 188.5 540 Q226 553 275 553 Q324 553 361.5 540 Q399 527 426.5 507.5 Q454 488 472 464.5 Q490 441 499 420 L499 119 Q490 98 472 74.5 Q454 51 426.5 31.5 Q399 12 361.5 -1 Q324 -14 275 -14 Q226 -14 188.5 -1 Q151 12 123.5 31.5 Q96 51 78 74.5 Q60 98 51 119 L51 420 Z M151 140 Q163 111 194.5 88 Q226 65 275 65 Q325 65 356 88 Q387 111 399 140 L399 399 Q387 428 356 451 Q325 474 275 474 Q226 474 194.5 451 Q163 428 151 399 L151 140 Z M107 716 L446 716 L446 644 L107 644 L107 716 Z " />
<glyph glyph-name="obreve" unicode="&#x14f;" horiz-adv-x="550" d="M51 420 Q60 441 78 464.5 Q96 488 123.5 507.5 Q151 527 188.5 540 Q226 553 275 553 Q324 553 361.5 540 Q399 527 426.5 507.5 Q454 488 472 464.5 Q490 441 499 420 L499 119 Q490 98 472 74.5 Q454 51 426.5 31.5 Q399 12 361.5 -1 Q324 -14 275 -14 Q226 -14 188.5 -1 Q151 12 123.5 31.5 Q96 51 78 74.5 Q60 98 51 119 L51 420 Z M151 140 Q163 111 194.5 88 Q226 65 275 65 Q325 65 356 88 Q387 111 399 140 L399 399 Q387 428 356 451 Q325 474 275 474 Q226 474 194.5 451 Q163 428 151 399 L151 140 Z M126 727 L201 727 L201 700 Q205 691 222.5 676 Q240 661 276 661 Q294 661 307.5 665.5 Q321 670 329.5 676 Q338 682 343 688.5 Q348 695 350 700 L350 727 L426 727 L426 684 Q419 669 407.5 654.5 Q396 640 378.5 628.5 Q361 617 335.5 609.5 Q310 602 276 602 Q241 602 216 609.5 Q191 617 173.5 628.5 Q156 640 144.5 654.5 Q133 669 126 684 L126 727 Z " />
<glyph glyph-name="ohungarumlaut" unicode="&#x151;" horiz-adv-x="550" d="M51 420 Q60 441 78 464.5 Q96 488 123.5 507.5 Q151 527 188.5 540 Q226 553 275 553 Q324 553 361.5 540 Q399 527 426.5 507.5 Q454 488 472 464.5 Q490 441 499 420 L499 119 Q490 98 472 74.5 Q454 51 426.5 31.5 Q399 12 361.5 -1 Q324 -14 275 -14 Q226 -14 188.5 -1 Q151 12 123.5 31.5 Q96 51 78 74.5 Q60 98 51 119 L51 420 Z M151 140 Q163 111 194.5 88 Q226 65 275 65 Q325 65 356 88 Q387 111 399 140 L399 399 Q387 428 356 451 Q325 474 275 474 Q226 474 194.5 451 Q163 428 151 399 L151 140 Z M148 609 L194 760 L273 760 L273 721 L213 593 L148 593 L148 609 Z M330 609 L375 760 L454 760 L454 721 L394 593 L330 593 L330 609 Z " />
<glyph glyph-name="oslash" unicode="&#xf8;" horiz-adv-x="550" d="M51 34 L80 71 Q61 95 51 119 L51 420 Q60 441 78 464.5 Q96 488 123.5 507.5 Q151 527 188.5 540 Q226 553 275 553 Q325 553 363 540 Q401 527 428 507 L454 539 L499 539 L499 505 L469 468 Q479 456 486.5 443.5 Q494 431 499 420 L499 119 Q490 98 472 74.5 Q454 51 426.5 31.5 Q399 12 361.5 -1 Q324 -14 275 -14 Q224 -14 186.5 -1 Q149 12 122 32 L96 0 L51 0 L51 34 Z M151 159 L373 437 Q356 453 331.5 463.5 Q307 474 275 474 Q226 474 194.5 451 Q163 428 151 399 L151 159 Z M275 65 Q325 65 356 88 Q387 111 399 140 L399 379 L177 101 Q194 85 218.5 75 Q243 65 275 65 Z " />
<glyph glyph-name="oslashacute" unicode="&#x1ff;" horiz-adv-x="550" d="M51 34 L80 71 Q61 95 51 119 L51 420 Q60 441 78 464.5 Q96 488 123.5 507.5 Q151 527 188.5 540 Q226 553 275 553 Q325 553 363 540 Q401 527 428 507 L454 539 L499 539 L499 505 L469 468 Q479 456 486.5 443.5 Q494 431 499 420 L499 119 Q490 98 472 74.5 Q454 51 426.5 31.5 Q399 12 361.5 -1 Q324 -14 275 -14 Q224 -14 186.5 -1 Q149 12 122 32 L96 0 L51 0 L51 34 Z M151 159 L373 437 Q356 453 331.5 463.5 Q307 474 275 474 Q226 474 194.5 451 Q163 428 151 399 L151 159 Z M275 65 Q325 65 356 88 Q387 111 399 140 L399 379 L177 101 Q194 85 218.5 75 Q243 65 275 65 Z M247 616 L309 768 L403 768 L403 722 L323 601 L247 601 L247 616 Z " />
<glyph glyph-name="oe" unicode="&#x153;" horiz-adv-x="888" d="M51 420 Q60 441 78 464.5 Q96 488 123.5 507.5 Q151 527 188.5 540 Q226 553 275 553 Q335 553 377.5 534 Q420 515 449 489 Q477 515 520 534 Q563 553 623 553 Q672 553 709.5 540 Q747 527 773.5 508.5 Q800 490 816 469.5 Q832 449 840 433 L840 243 L499 243 L499 140 Q511 111 542 88 Q573 65 623 65 Q672 65 703.5 88 Q735 111 747 140 L747 178 L840 178 L840 106 Q832 89 815.5 68 Q799 47 772.5 29 Q746 11 709 -1.5 Q672 -14 623 -14 Q563 -14 520 4.5 Q477 23 449 49 Q420 23 377.5 4.5 Q335 -14 275 -14 Q226 -14 188.5 -1 Q151 12 123.5 31.5 Q96 51 78 74.5 Q60 98 51 119 L51 420 Z M151 140 Q163 111 194.5 88 Q226 65 275 65 Q325 65 356 88 Q387 111 399 140 L399 399 Q387 428 356 451 Q325 474 275 474 Q226 474 194.5 451 Q163 428 151 399 L151 140 Z M499 313 L747 313 L747 399 Q735 428 703.5 451 Q672 474 623 474 Q573 474 542 451 Q511 428 499 399 L499 313 Z " />
<glyph glyph-name="racute" unicode="&#x155;" horiz-adv-x="359" d="M61 539 L155 539 L155 468 Q177 497 215.5 518 Q254 539 315 539 Q318 539 323 539 Q328 539 336 538 L336 450 Q327 451 321 451 Q315 451 312 451 Q255 451 217.5 434.5 Q180 418 161 395 L161 0 L61 0 L61 539 Z M150 614 L212 766 L306 766 L306 720 L226 599 L150 599 L150 614 Z " />
<glyph glyph-name="rcaron" unicode="&#x159;" horiz-adv-x="359" d="M61 539 L155 539 L155 468 Q177 497 215.5 518 Q254 539 315 539 Q318 539 323 539 Q328 539 336 538 L336 450 Q327 451 321 451 Q315 451 312 451 Q255 451 217.5 434.5 Q180 418 161 395 L161 0 L61 0 L61 539 Z M53 749 L53 765 L122 765 L205 649 L288 765 L357 765 L357 749 L270 598 L140 598 L53 749 Z " />
<glyph glyph-name="rcommaaccent" unicode="&#x157;" horiz-adv-x="359" d="M61 539 L155 539 L155 468 Q177 497 215.5 518 Q254 539 315 539 Q318 539 323 539 Q328 539 336 538 L336 450 Q327 451 321 451 Q315 451 312 451 Q255 451 217.5 434.5 Q180 418 161 395 L161 0 L61 0 L61 539 Z M63 -173 L88 -173 Q107 -173 114 -162 L114 -135 L112 -135 Q89 -135 76 -130.5 Q63 -126 59 -121 L59 -71 Q63 -66 76 -60 Q89 -54 112 -54 Q135 -54 148 -60 Q161 -66 165 -71 L165 -166 Q159 -183 141 -195.5 Q123 -208 97 -208 L63 -208 L63 -173 Z " />
<glyph glyph-name="sacute" unicode="&#x15b;" horiz-adv-x="510" d="M50 169 L143 169 L143 116 Q156 98 183 81 Q210 64 255 64 Q300 64 327.5 81 Q355 98 367 116 L367 180 Q347 212 277 228 L213 242 Q139 258 101 283 Q63 308 50 329 L50 454 Q58 465 73.5 482 Q89 499 114 514.5 Q139 530 173.5 541.5 Q208 553 255 553 Q302 553 337 541.5 Q372 530 396.5 514.5 Q421 499 436.5 482 Q452 465 460 454 L460 372 L367 372 L367 423 Q355 441 327.5 458 Q300 475 255 475 Q210 475 182.5 458 Q155 441 143 423 L143 368 Q163 336 234 321 L296 307 Q370 290 408.5 265.5 Q447 241 460 220 L460 85 Q452 73 436.5 56.5 Q421 40 396 24 Q371 8 336 -3 Q301 -14 255 -14 Q208 -14 173.5 -3 Q139 8 114 24 Q89 40 73.5 57 Q58 74 50 85 L50 169 Z M211 616 L273 768 L367 768 L367 722 L287 601 L211 601 L211 616 Z " />
<glyph glyph-name="scircumflex" unicode="&#x15d;" horiz-adv-x="510" d="M50 169 L143 169 L143 116 Q156 98 183 81 Q210 64 255 64 Q300 64 327.5 81 Q355 98 367 116 L367 180 Q347 212 277 228 L213 242 Q139 258 101 283 Q63 308 50 329 L50 454 Q58 465 73.5 482 Q89 499 114 514.5 Q139 530 173.5 541.5 Q208 553 255 553 Q302 553 337 541.5 Q372 530 396.5 514.5 Q421 499 436.5 482 Q452 465 460 454 L460 372 L367 372 L367 423 Q355 441 327.5 458 Q300 475 255 475 Q210 475 182.5 458 Q155 441 143 423 L143 368 Q163 336 234 321 L296 307 Q370 290 408.5 265.5 Q447 241 460 220 L460 85 Q452 73 436.5 56.5 Q421 40 396 24 Q371 8 336 -3 Q301 -14 255 -14 Q208 -14 173.5 -3 Q139 8 114 24 Q89 40 73.5 57 Q58 74 50 85 L50 169 Z M107 614 L194 765 L324 765 L411 614 L411 598 L342 598 L259 714 L176 598 L107 598 L107 614 Z " />
<glyph glyph-name="scaron" unicode="&#x161;" horiz-adv-x="510" d="M50 169 L143 169 L143 116 Q156 98 183 81 Q210 64 255 64 Q300 64 327.5 81 Q355 98 367 116 L367 180 Q347 212 277 228 L213 242 Q139 258 101 283 Q63 308 50 329 L50 454 Q58 465 73.5 482 Q89 499 114 514.5 Q139 530 173.5 541.5 Q208 553 255 553 Q302 553 337 541.5 Q372 530 396.5 514.5 Q421 499 436.5 482 Q452 465 460 454 L460 372 L367 372 L367 423 Q355 441 327.5 458 Q300 475 255 475 Q210 475 182.5 458 Q155 441 143 423 L143 368 Q163 336 234 321 L296 307 Q370 290 408.5 265.5 Q447 241 460 220 L460 85 Q452 73 436.5 56.5 Q421 40 396 24 Q371 8 336 -3 Q301 -14 255 -14 Q208 -14 173.5 -3 Q139 8 114 24 Q89 40 73.5 57 Q58 74 50 85 L50 169 Z M105 750 L105 766 L174 766 L257 650 L340 766 L409 766 L409 750 L322 599 L192 599 L105 750 Z " />
<glyph glyph-name="scedilla" unicode="&#x15f;" horiz-adv-x="510" d="M172 -174 Q188 -182 207 -187 Q226 -192 248 -192 Q268 -192 282 -185 Q296 -178 300 -169 L300 -123 Q296 -115 283 -108.5 Q270 -102 250 -102 L192 -102 L218 -12 Q193 -9 173 -3 Q139 8 114 24 Q89 40 73.5 57 Q58 74 50 85 L50 169 L143 169 L143 116 Q156 98 183 81 Q210 64 255 64 Q300 64 327.5 81 Q355 98 367 116 L367 180 Q347 212 277 228 L213 242 Q139 258 101 283 Q63 308 50 329 L50 454 Q58 465 73.5 482 Q89 499 114 514.5 Q139 530 173.5 541.5 Q208 553 255 553 Q302 553 337 541.5 Q372 530 396.5 514.5 Q421 499 436.5 482 Q452 465 460 454 L460 372 L367 372 L367 423 Q355 441 327.5 458 Q300 475 255 475 Q210 475 182.5 458 Q155 441 143 423 L143 368 Q163 336 234 321 L296 307 Q370 290 408.5 265.5 Q447 241 460 220 L460 85 Q452 73 436.5 56.5 Q421 40 396 24 Q371 8 336 -3 Q306 -12 268 -14 L255 -60 L273 -60 Q308 -60 329 -75 Q350 -90 358 -107 L358 -189 Q347 -212 320 -227 Q293 -242 253 -242 Q221 -242 197 -235.5 Q173 -229 159 -220 L172 -174 Z " />
<glyph glyph-name="scommaaccent" unicode="&#x219;" horiz-adv-x="510" d="M50 169 L143 169 L143 116 Q156 98 183 81 Q210 64 255 64 Q300 64 327.5 81 Q355 98 367 116 L367 180 Q347 212 277 228 L213 242 Q139 258 101 283 Q63 308 50 329 L50 454 Q58 465 73.5 482 Q89 499 114 514.5 Q139 530 173.5 541.5 Q208 553 255 553 Q302 553 337 541.5 Q372 530 396.5 514.5 Q421 499 436.5 482 Q452 465 460 454 L460 372 L367 372 L367 423 Q355 441 327.5 458 Q300 475 255 475 Q210 475 182.5 458 Q155 441 143 423 L143 368 Q163 336 234 321 L296 307 Q370 290 408.5 265.5 Q447 241 460 220 L460 85 Q452 73 436.5 56.5 Q421 40 396 24 Q371 8 336 -3 Q301 -14 255 -14 Q208 -14 173.5 -3 Q139 8 114 24 Q89 40 73.5 57 Q58 74 50 85 L50 169 Z M206 -174 L231 -174 Q250 -174 257 -163 L257 -136 L255 -136 Q232 -136 219 -131.5 Q206 -127 202 -122 L202 -72 Q206 -67 219 -61 Q232 -55 255 -55 Q278 -55 291 -61 Q304 -67 308 -72 L308 -167 Q302 -184 284 -196.5 Q266 -209 240 -209 L206 -209 L206 -174 Z " />
<glyph glyph-name="germandbls" unicode="&#xdf;" horiz-adv-x="555" d="M61 595 Q72 615 90 636 Q108 657 135 674.5 Q162 692 197.5 703 Q233 714 278 714 Q323 714 358.5 703 Q394 692 420.5 675.5 Q447 659 464 640 Q481 621 490 606 L490 437 Q476 417 454 398.5 Q432 380 406 370 Q449 351 473 323.5 Q497 296 509 268 L509 119 Q480 57 424.5 28.5 Q369 0 272 0 L272 79 Q294 79 314.5 80.5 Q335 82 352 88.5 Q369 95 383.5 108.5 Q398 122 409 145 L409 251 Q392 291 357 308.5 Q322 326 285 326 L285 404 Q321 404 351 418.5 Q381 433 397 458 L397 573 Q382 600 351 618 Q320 636 278 636 Q233 636 204 616.5 Q175 597 161 573 L161 0 L61 0 L61 595 Z " />
<glyph glyph-name="tcaron" unicode="&#x165;" horiz-adv-x="401" d="M24 539 L88 539 L88 653 L188 653 L188 539 L336 539 L336 464 L188 464 L188 116 Q191 110 197.5 101.5 Q204 93 216 85.5 Q228 78 246.5 72.5 Q265 67 292 67 Q306 67 318 68 Q330 69 336 70 L336 -1 Q327 -3 306.5 -6.5 Q286 -10 257 -10 Q215 -10 185.5 -1 Q156 8 136.5 21.5 Q117 35 105.5 51.5 Q94 68 88 82 L88 464 L24 464 L24 539 Z M270 622 L289 791 L372 791 L372 737 L334 607 L270 607 L270 622 Z " />
<glyph glyph-name="tcommaaccent" unicode="&#x163;" horiz-adv-x="354" d="M130 -174 Q146 -182 165 -187 Q184 -192 206 -192 Q226 -192 240 -185 Q254 -178 258 -169 L258 -123 Q254 -115 241 -108.5 Q228 -102 208 -102 L150 -102 L179 1 Q154 9 136 21 Q117 35 105.5 51.5 Q94 68 88 82 L88 464 L24 464 L24 539 L88 539 L88 653 L188 653 L188 539 L336 539 L336 464 L188 464 L188 116 Q191 110 197.5 101.5 Q204 93 216 85.5 Q228 78 246.5 72.5 Q265 67 292 67 Q306 67 318 68 Q330 69 336 70 L336 -1 Q327 -3 306.5 -6.5 Q286 -10 257 -10 Q241 -10 228 -9 L213 -60 L231 -60 Q266 -60 287 -75 Q308 -90 316 -107 L316 -189 Q305 -212 278 -227 Q251 -242 211 -242 Q179 -242 155 -235.5 Q131 -229 117 -220 L130 -174 Z " />
<glyph glyph-name="uni021B" unicode="&#x21b;" horiz-adv-x="354" d="M24 539 L88 539 L88 653 L188 653 L188 539 L336 539 L336 464 L188 464 L188 116 Q191 110 197.5 101.5 Q204 93 216 85.5 Q228 78 246.5 72.5 Q265 67 292 67 Q306 67 318 68 Q330 69 336 70 L336 -1 Q327 -3 306.5 -6.5 Q286 -10 257 -10 Q215 -10 185.5 -1 Q156 8 136.5 21.5 Q117 35 105.5 51.5 Q94 68 88 82 L88 464 L24 464 L24 539 Z M162 -173 L187 -173 Q206 -173 213 -162 L213 -135 L211 -135 Q188 -135 175 -130.5 Q162 -126 158 -121 L158 -71 Q162 -66 175 -60 Q188 -54 211 -54 Q234 -54 247 -60 Q260 -66 264 -71 L264 -166 Q258 -183 240 -195.5 Q222 -208 196 -208 L162 -208 L162 -173 Z " />
<glyph glyph-name="tbar" unicode="&#x167;" horiz-adv-x="354" d="M24 539 L88 539 L88 653 L188 653 L188 539 L336 539 L336 464 L188 464 L188 323 L336 323 L336 248 L188 248 L188 116 Q191 110 197.5 101.5 Q204 93 216 85.5 Q228 78 246.5 72.5 Q265 67 292 67 Q306 67 318 68 Q330 69 336 70 L336 -1 Q327 -3 306.5 -6.5 Q286 -10 257 -10 Q215 -10 185.5 -1 Q156 8 136.5 21.5 Q117 35 105.5 51.5 Q94 68 88 82 L88 248 L24 248 L24 323 L88 323 L88 464 L24 464 L24 539 Z " />
<glyph glyph-name="ugrave" unicode="&#xf9;" horiz-adv-x="548" d="M158 539 L158 124 Q163 116 171.5 106 Q180 96 193 87.5 Q206 79 224.5 73 Q243 67 268 67 Q312 67 341 82 Q370 97 387 117 L387 539 L487 539 L487 0 L393 0 L393 42 Q368 19 331 3.5 Q294 -12 243 -12 Q199 -12 167.5 0 Q136 12 114 29 Q92 46 78.5 66 Q65 86 58 101 L58 539 L158 539 Z M165 720 L165 766 L258 766 L321 614 L321 599 L246 599 L165 720 Z " />
<glyph glyph-name="uacute" unicode="&#xfa;" horiz-adv-x="548" d="M158 539 L158 124 Q163 116 171.5 106 Q180 96 193 87.5 Q206 79 224.5 73 Q243 67 268 67 Q312 67 341 82 Q370 97 387 117 L387 539 L487 539 L487 0 L393 0 L393 42 Q368 19 331 3.5 Q294 -12 243 -12 Q199 -12 167.5 0 Q136 12 114 29 Q92 46 78.5 66 Q65 86 58 101 L58 539 L158 539 Z M230 614 L292 766 L386 766 L386 720 L306 599 L230 599 L230 614 Z " />
<glyph glyph-name="ucircumflex" unicode="&#xfb;" horiz-adv-x="548" d="M158 539 L158 124 Q163 116 171.5 106 Q180 96 193 87.5 Q206 79 224.5 73 Q243 67 268 67 Q312 67 341 82 Q370 97 387 117 L387 539 L487 539 L487 0 L393 0 L393 42 Q368 19 331 3.5 Q294 -12 243 -12 Q199 -12 167.5 0 Q136 12 114 29 Q92 46 78.5 66 Q65 86 58 101 L58 539 L158 539 Z M123 613 L210 764 L340 764 L427 613 L427 597 L358 597 L275 713 L192 597 L123 597 L123 613 Z " />
<glyph glyph-name="utilde" unicode="&#x169;" horiz-adv-x="548" d="M158 539 L158 124 Q163 116 171.5 106 Q180 96 193 87.5 Q206 79 224.5 73 Q243 67 268 67 Q312 67 341 82 Q370 97 387 117 L387 539 L487 539 L487 0 L393 0 L393 42 Q368 19 331 3.5 Q294 -12 243 -12 Q199 -12 167.5 0 Q136 12 114 29 Q92 46 78.5 66 Q65 86 58 101 L58 539 L158 539 Z M457 679 Q448 653 423 632.5 Q398 612 355 612 Q326 612 306 620.5 Q286 629 269.5 638.5 Q253 648 237.5 656.5 Q222 665 204 665 Q182 665 171 655.5 Q160 646 156 638 L156 618 L93 618 L93 664 Q104 693 130 711.5 Q156 730 196 730 Q224 730 244 722 Q264 714 281 704 Q298 694 313.5 686 Q329 678 347 678 Q366 678 377.5 686 Q389 694 394 706 L394 725 L457 725 L457 679 Z " />
<glyph glyph-name="udieresis" unicode="&#xfc;" horiz-adv-x="548" d="M158 539 L158 124 Q163 116 171.5 106 Q180 96 193 87.5 Q206 79 224.5 73 Q243 67 268 67 Q312 67 341 82 Q370 97 387 117 L387 539 L487 539 L487 0 L393 0 L393 42 Q368 19 331 3.5 Q294 -12 243 -12 Q199 -12 167.5 0 Q136 12 114 29 Q92 46 78.5 66 Q65 86 58 101 L58 539 L158 539 Z M120 706 Q125 711 137.5 719 Q150 727 173 727 Q196 727 208.5 719 Q221 711 225 706 L225 641 Q221 636 208.5 628 Q196 620 173 620 Q150 620 137.5 628 Q125 636 120 641 L120 706 Z M327 706 Q332 711 344.5 719 Q357 727 380 727 Q403 727 415 719 Q427 711 432 706 L432 641 Q427 636 415 628 Q403 620 380 620 Q357 620 344.5 628 Q332 636 327 641 L327 706 Z " />
<glyph glyph-name="umacron" unicode="&#x16b;" horiz-adv-x="548" d="M158 539 L158 124 Q163 116 171.5 106 Q180 96 193 87.5 Q206 79 224.5 73 Q243 67 268 67 Q312 67 341 82 Q370 97 387 117 L387 539 L487 539 L487 0 L393 0 L393 42 Q368 19 331 3.5 Q294 -12 243 -12 Q199 -12 167.5 0 Q136 12 114 29 Q92 46 78.5 66 Q65 86 58 101 L58 539 L158 539 Z M104 716 L443 716 L443 644 L104 644 L104 716 Z " />
<glyph glyph-name="ubreve" unicode="&#x16d;" horiz-adv-x="548" d="M158 539 L158 124 Q163 116 171.5 106 Q180 96 193 87.5 Q206 79 224.5 73 Q243 67 268 67 Q312 67 341 82 Q370 97 387 117 L387 539 L487 539 L487 0 L393 0 L393 42 Q368 19 331 3.5 Q294 -12 243 -12 Q199 -12 167.5 0 Q136 12 114 29 Q92 46 78.5 66 Q65 86 58 101 L58 539 L158 539 Z M123 725 L198 725 L198 698 Q202 689 219.5 674 Q237 659 273 659 Q291 659 304.5 663.5 Q318 668 326.5 674 Q335 680 340 686.5 Q345 693 347 698 L347 725 L423 725 L423 682 Q416 667 404.5 652.5 Q393 638 375.5 626.5 Q358 615 332.5 607.5 Q307 600 273 600 Q238 600 213 607.5 Q188 615 170.5 626.5 Q153 638 141.5 652.5 Q130 667 123 682 L123 725 Z " />
<glyph glyph-name="uring" unicode="&#x16f;" horiz-adv-x="548" d="M158 539 L158 124 Q163 116 171.5 106 Q180 96 193 87.5 Q206 79 224.5 73 Q243 67 268 67 Q312 67 341 82 Q370 97 387 117 L387 539 L487 539 L487 0 L393 0 L393 42 Q368 19 331 3.5 Q294 -12 243 -12 Q199 -12 167.5 0 Q136 12 114 29 Q92 46 78.5 66 Q65 86 58 101 L58 539 L158 539 Z M221 659 Q226 651 239.5 643 Q253 635 275 635 Q297 635 310 643 Q323 651 328 659 L328 718 Q323 726 310 734.5 Q297 743 275 743 Q253 743 239.5 734.5 Q226 726 221 718 L221 659 Z M169 731 Q181 754 208.5 771 Q236 788 275 788 Q313 788 341 771 Q369 754 381 731 L381 647 Q369 624 341 607 Q313 590 275 590 Q236 590 208.5 607 Q181 624 169 647 L169 731 Z " />
<glyph glyph-name="uhungarumlaut" unicode="&#x171;" horiz-adv-x="548" d="M158 539 L158 124 Q163 116 171.5 106 Q180 96 193 87.5 Q206 79 224.5 73 Q243 67 268 67 Q312 67 341 82 Q370 97 387 117 L387 539 L487 539 L487 0 L393 0 L393 42 Q368 19 331 3.5 Q294 -12 243 -12 Q199 -12 167.5 0 Q136 12 114 29 Q92 46 78.5 66 Q65 86 58 101 L58 539 L158 539 Z M148 608 L194 759 L273 759 L273 720 L213 592 L148 592 L148 608 Z M330 608 L375 759 L454 759 L454 720 L394 592 L330 592 L330 608 Z " />
<glyph glyph-name="uogonek" unicode="&#x173;" horiz-adv-x="548" d="M301 -115 Q306 -105 317.5 -89 Q329 -73 346 -54.5 Q363 -36 385 -17 Q395 -8 405 0 L393 0 L393 42 Q368 19 331 3.5 Q294 -12 243 -12 Q199 -12 167.5 0 Q136 12 114 29 Q92 46 78.5 66 Q65 86 58 101 L58 539 L158 539 L158 124 Q163 116 171.5 106 Q180 96 193 87.5 Q206 79 224.5 73 Q243 67 268 67 Q312 67 341 82 Q370 97 387 117 L387 539 L487 539 L487 0 Q430 -45 405 -77.5 Q380 -110 375 -120 L375 -153 Q380 -161 393.5 -168 Q407 -175 425 -175 Q442 -175 456.5 -171.5 Q471 -168 487 -160 L487 -216 Q473 -224 456 -228 Q439 -232 410 -232 Q373 -232 343 -220 Q313 -208 301 -184 L301 -115 Z " />
<glyph glyph-name="wgrave" unicode="&#x1e81;" horiz-adv-x="785" d="M37 480 L37 539 L128 539 L220 109 L236 109 L343 539 L448 539 L554 109 L570 109 L663 539 L748 539 L748 480 L629 0 L501 0 L399 391 L385 391 L283 0 L156 0 L37 480 Z M276 720 L276 766 L369 766 L432 614 L432 599 L357 599 L276 720 Z " />
<glyph glyph-name="wacute" unicode="&#x1e83;" horiz-adv-x="785" d="M37 480 L37 539 L128 539 L220 109 L236 109 L343 539 L448 539 L554 109 L570 109 L663 539 L748 539 L748 480 L629 0 L501 0 L399 391 L385 391 L283 0 L156 0 L37 480 Z M354 614 L416 766 L510 766 L510 720 L430 599 L354 599 L354 614 Z " />
<glyph glyph-name="wcircumflex" unicode="&#x175;" horiz-adv-x="785" d="M37 480 L37 539 L128 539 L220 109 L236 109 L343 539 L448 539 L554 109 L570 109 L663 539 L748 539 L748 480 L629 0 L501 0 L399 391 L385 391 L283 0 L156 0 L37 480 Z M240 613 L327 764 L457 764 L544 613 L544 597 L475 597 L392 713 L309 597 L240 597 L240 613 Z " />
<glyph glyph-name="wdieresis" unicode="&#x1e85;" horiz-adv-x="785" d="M37 480 L37 539 L128 539 L220 109 L236 109 L343 539 L448 539 L554 109 L570 109 L663 539 L748 539 L748 480 L629 0 L501 0 L399 391 L385 391 L283 0 L156 0 L37 480 Z M236 706 Q241 711 253.5 719 Q266 727 289 727 Q312 727 324.5 719 Q337 711 341 706 L341 641 Q337 636 324.5 628 Q312 620 289 620 Q266 620 253.5 628 Q241 636 236 641 L236 706 Z M443 706 Q448 711 460.5 719 Q473 727 496 727 Q519 727 531 719 Q543 711 548 706 L548 641 Q543 636 531 628 Q519 620 496 620 Q473 620 460.5 628 Q448 636 443 641 L443 706 Z " />
<glyph glyph-name="ygrave" unicode="&#x1ef3;" horiz-adv-x="507" d="M210 -3 L35 479 L35 539 L127 539 L251 139 L265 139 L388 539 L472 539 L472 481 L281 -94 Q256 -127 208.5 -148.5 Q161 -170 104 -170 Q78 -170 62 -167.5 Q46 -165 38 -163 L38 -91 Q49 -92 63 -92.5 Q77 -93 85 -93 Q123 -93 151.5 -80 Q180 -67 196 -50 L210 -3 Z M145 720 L145 766 L238 766 L301 614 L301 599 L226 599 L145 720 Z " />
<glyph glyph-name="yacute" unicode="&#xfd;" horiz-adv-x="507" d="M210 -3 L35 479 L35 539 L127 539 L251 139 L265 139 L388 539 L472 539 L472 481 L281 -94 Q256 -127 208.5 -148.5 Q161 -170 104 -170 Q78 -170 62 -167.5 Q46 -165 38 -163 L38 -91 Q49 -92 63 -92.5 Q77 -93 85 -93 Q123 -93 151.5 -80 Q180 -67 196 -50 L210 -3 Z M209 614 L271 766 L365 766 L365 720 L285 599 L209 599 L209 614 Z " />
<glyph glyph-name="ycircumflex" unicode="&#x177;" horiz-adv-x="507" d="M210 -3 L35 479 L35 539 L127 539 L251 139 L265 139 L388 539 L472 539 L472 481 L281 -94 Q256 -127 208.5 -148.5 Q161 -170 104 -170 Q78 -170 62 -167.5 Q46 -165 38 -163 L38 -91 Q49 -92 63 -92.5 Q77 -93 85 -93 Q123 -93 151.5 -80 Q180 -67 196 -50 L210 -3 Z M106 613 L193 764 L323 764 L410 613 L410 597 L341 597 L258 713 L175 597 L106 597 L106 613 Z " />
<glyph glyph-name="ydieresis" unicode="&#xff;" horiz-adv-x="507" d="M210 -3 L35 479 L35 539 L127 539 L251 139 L265 139 L388 539 L472 539 L472 481 L281 -94 Q256 -127 208.5 -148.5 Q161 -170 104 -170 Q78 -170 62 -167.5 Q46 -165 38 -163 L38 -91 Q49 -92 63 -92.5 Q77 -93 85 -93 Q123 -93 151.5 -80 Q180 -67 196 -50 L210 -3 Z M98 706 Q103 711 115.5 719 Q128 727 151 727 Q174 727 186.5 719 Q199 711 203 706 L203 641 Q199 636 186.5 628 Q174 620 151 620 Q128 620 115.5 628 Q103 636 98 641 L98 706 Z M305 706 Q310 711 322.5 719 Q335 727 358 727 Q381 727 393 719 Q405 711 410 706 L410 641 Q405 636 393 628 Q381 620 358 620 Q335 620 322.5 628 Q310 636 305 641 L305 706 Z " />
<glyph glyph-name="zacute" unicode="&#x17a;" horiz-adv-x="464" d="M31 69 L308 454 L308 464 L31 464 L31 539 L434 539 L434 474 L152 85 L152 75 L434 75 L434 0 L31 0 L31 69 Z M192 614 L254 766 L348 766 L348 720 L268 599 L192 599 L192 614 Z " />
<glyph glyph-name="zcaron" unicode="&#x17e;" horiz-adv-x="464" d="M31 69 L308 454 L308 464 L31 464 L31 539 L434 539 L434 474 L152 85 L152 75 L434 75 L434 0 L31 0 L31 69 Z M89 748 L89 764 L158 764 L241 648 L324 764 L393 764 L393 748 L306 597 L176 597 L89 748 Z " />
<glyph glyph-name="zdotaccent" unicode="&#x17c;" horiz-adv-x="464" d="M31 69 L308 454 L308 464 L31 464 L31 539 L434 539 L434 474 L152 85 L152 75 L434 75 L434 0 L31 0 L31 69 Z M185 702 Q190 712 204 721 Q218 730 242 730 Q266 730 280 721 Q294 712 299 702 L299 652 Q294 642 280 633 Q266 624 242 624 Q218 624 204 633 Q190 642 185 652 L185 702 Z " />
<glyph glyph-name="eng" unicode="&#x14b;" horiz-adv-x="556" d="M275 -92 Q324 -92 355 -68.5 Q386 -45 398 -13 L398 415 Q393 423 384 433 Q375 443 361 451.5 Q347 460 328 466 Q309 472 284 472 Q239 472 208.5 456.5 Q178 441 161 421 L161 0 L61 0 L61 539 L155 539 L155 494 Q181 518 218.5 534.5 Q256 551 309 551 Q353 551 385.5 539 Q418 527 440.5 510 Q463 493 477 473 Q491 453 498 438 L498 -37 Q489 -58 471.5 -81.5 Q454 -105 426.5 -124.5 Q399 -144 361.5 -157 Q324 -170 275 -170 L275 -92 Z " />
<glyph glyph-name="eth" unicode="&#xf0;" horiz-adv-x="550" d="M171 575 L289 613 Q269 630 247.5 644.5 Q226 659 206 670 L271 722 Q302 708 331.5 688 Q361 668 387 645 L499 682 L499 630 L427 606 Q453 578 472 551.5 Q491 525 499 507 L499 119 Q490 98 472 74.5 Q454 51 426.5 31.5 Q399 12 361.5 -1 Q324 -14 275 -14 Q226 -14 188.5 -1 Q151 12 123.5 31.5 Q96 51 78 74.5 Q60 98 51 119 L51 354 Q59 375 75 398.5 Q91 422 115.5 441 Q140 460 173 472.5 Q206 485 248 485 Q301 485 336.5 471 Q372 457 399 435 L399 485 Q391 505 372.5 528 Q354 551 331 575 L171 523 L171 575 Z M151 140 Q163 111 194.5 88 Q226 65 275 65 Q325 65 356 88 Q387 111 399 140 L399 356 Q385 373 355 390 Q325 407 275 407 Q226 407 194.5 384.5 Q163 362 151 333 L151 140 Z " />
<glyph glyph-name="thorn" unicode="&#xfe;" horiz-adv-x="549" d="M61 700 L161 700 L161 500 Q187 522 223 536.5 Q259 551 309 551 Q353 551 385.5 539 Q418 527 440.5 510 Q463 493 477 473 Q491 453 498 438 L498 101 Q491 86 477 66 Q463 46 440.5 29 Q418 12 385.5 0 Q353 -12 309 -12 Q259 -12 223 2.5 Q187 17 161 39 L161 -161 L61 -161 L61 700 Z M284 472 Q239 472 208.5 456.5 Q178 441 161 421 L161 118 Q178 98 208.5 82.5 Q239 67 284 67 Q309 67 328 73 Q347 79 361 87.5 Q375 96 384 106 Q393 116 398 124 L398 415 Q393 423 384 433 Q375 443 361 451.5 Q347 460 328 466 Q309 472 284 472 Z " />
<glyph glyph-name="uni0259" unicode="&#x259;" horiz-adv-x="540" d="M489 119 Q480 98 462 74.5 Q444 51 416.5 31.5 Q389 12 351.5 -1 Q314 -14 265 -14 Q216 -14 178.5 -1 Q141 12 114.5 30.5 Q88 49 71.5 69.5 Q55 90 48 106 L48 295 L389 295 L389 399 Q377 428 346 451 Q315 474 265 474 Q216 474 184.5 451 Q153 428 141 399 L141 361 L48 361 L48 433 Q56 450 72.5 471 Q89 492 115.5 510 Q142 528 179 540.5 Q216 553 265 553 Q314 553 351.5 540 Q389 527 416.5 507.5 Q444 488 462 464.5 Q480 441 489 420 L489 119 Z M389 226 L141 226 L141 140 Q153 111 184.5 88 Q216 65 265 65 Q315 65 346 88 Q377 111 389 140 L389 226 Z " />
<glyph glyph-name="longs" unicode="&#x17f;" horiz-adv-x="333" d="M88 622 Q94 636 105.5 652.5 Q117 669 136.5 682.5 Q156 696 185.5 705 Q215 714 257 714 Q285 714 306.5 710.5 Q328 707 336 705 L336 634 Q330 635 318 636 Q306 637 292 637 Q265 637 246.5 631.5 Q228 626 216 618.5 Q204 611 197.5 602.5 Q191 594 188 588 L188 0 L88 0 L88 622 Z " />
<glyph glyph-name="ff" unicode="&#xfb00;" horiz-adv-x="658" d="M24 539 L88 539 L88 630 Q94 644 105.5 660.5 Q117 677 136.5 690.5 Q156 704 185.5 713 Q215 722 257 722 Q285 722 306.5 718.5 Q328 715 336 713 L336 642 Q330 643 318 644 Q306 645 292 645 Q265 645 246.5 639.5 Q228 634 216 626.5 Q204 619 197.5 610.5 Q191 602 188 596 L188 539 L393 539 L393 630 Q399 644 410.5 660.5 Q422 677 441.5 690.5 Q461 704 490.5 713 Q520 722 562 722 Q590 722 611.5 718.5 Q633 715 641 713 L641 642 Q635 643 623 644 Q611 645 597 645 Q569 645 550.5 639.5 Q532 634 520.5 626.5 Q509 619 502.5 610.5 Q496 602 493 596 L493 539 L641 539 L641 464 L493 464 L493 0 L393 0 L393 464 L188 464 L188 0 L88 0 L88 464 L24 464 L24 539 Z " />
<glyph glyph-name="fi" unicode="&#xfb01;" horiz-adv-x="577" d="M24 539 L88 539 L88 630 Q94 644 105.5 660.5 Q117 677 136.5 690.5 Q156 704 185.5 713 Q215 722 257 722 Q285 722 306.5 718.5 Q328 715 336 713 L336 642 Q330 643 318 644 Q306 645 292 645 Q264 645 245.5 639.5 Q227 634 215 626.5 Q203 619 197 610.5 Q191 602 188 596 L188 539 L336 539 L336 464 L188 464 L188 0 L88 0 L88 464 L24 464 L24 539 Z M408 699 Q413 709 427 718 Q441 727 465 727 Q489 727 503 718 Q517 709 522 699 L522 652 Q517 642 503 633 Q489 624 465 624 Q441 624 427 633 Q413 642 408 652 L408 699 Z M415 539 L515 539 L515 0 L415 0 L415 539 Z " />
<glyph glyph-name="fl" unicode="&#xfb02;" horiz-adv-x="576" d="M24 539 L88 539 L88 630 Q94 644 105.5 660.5 Q117 677 136.5 690.5 Q156 704 185.5 713 Q215 722 257 722 Q285 722 306.5 718.5 Q328 715 336 713 L336 642 Q330 643 318 644 Q306 645 292 645 Q264 645 245.5 639.5 Q227 634 215 626.5 Q203 619 197 610.5 Q191 602 188 596 L188 539 L336 539 L336 464 L188 464 L188 0 L88 0 L88 464 L24 464 L24 539 Z M414 700 L514 700 L514 0 L414 0 L414 700 Z " />
<glyph glyph-name="ampersand" unicode="&#x26;" horiz-adv-x="675" d="M112 612 Q119 625 136 642.5 Q153 660 179 676 Q205 692 241 703 Q277 714 323 714 Q369 714 405 703 Q441 692 467 676 Q493 660 510 642.5 Q527 625 535 612 L535 520 L435 520 L435 590 Q422 605 394.5 620.5 Q367 636 323 636 Q280 636 252.5 620 Q225 604 211 590 L211 481 L479 228 L479 334 L567 334 L567 145 L654 63 L654 0 L597 0 L520 72 Q484 36 433.5 11 Q383 -14 307 -14 Q253 -14 211.5 -2 Q170 10 139.5 29 Q109 48 89 72 Q69 96 59 119 L59 272 Q76 308 109 337.5 Q142 367 191 383 L112 458 L112 612 Z M310 65 Q359 65 395 83 Q431 101 457 132 L253 324 Q219 316 194 298 Q169 280 158 254 L158 143 Q175 107 215.5 86 Q256 65 310 65 Z " />
<glyph glyph-name="grave" unicode="&#x60;" horiz-adv-x="436" d="M141 720 L141 766 L234 766 L297 614 L297 599 L222 599 L141 720 Z " />
<glyph glyph-name="acute" unicode="&#xb4;" horiz-adv-x="436" d="M139 614 L201 766 L295 766 L295 720 L215 599 L139 599 L139 614 Z " />
<glyph glyph-name="circumflex" unicode="&#x2c6;" horiz-adv-x="436" d="M66 613 L153 764 L283 764 L370 613 L370 597 L301 597 L218 713 L135 597 L66 597 L66 613 Z " />
<glyph glyph-name="caron" unicode="&#x2c7;" horiz-adv-x="436" d="M66 748 L66 764 L135 764 L218 648 L301 764 L370 764 L370 748 L283 597 L153 597 L66 748 Z " />
<glyph glyph-name="commaaccent" unicode="&#xf6c3;" horiz-adv-x="436" d="M169 -173 L194 -173 Q213 -173 220 -162 L220 -135 L218 -135 Q195 -135 182 -130.5 Q169 -126 165 -121 L165 -71 Q169 -66 182 -60 Q195 -54 218 -54 Q241 -54 254 -60 Q267 -66 271 -71 L271 -166 Q265 -183 247 -195.5 Q229 -208 203 -208 L169 -208 L169 -173 Z " />
<glyph glyph-name="tilde" unicode="&#x2dc;" horiz-adv-x="436" d="M400 679 Q391 653 366 632.5 Q341 612 298 612 Q269 612 249 620.5 Q229 629 212.5 638.5 Q196 648 180.5 656.5 Q165 665 147 665 Q125 665 114 655.5 Q103 646 99 638 L99 618 L36 618 L36 664 Q47 693 73 711.5 Q99 730 139 730 Q167 730 187 722 Q207 714 224 704 Q241 694 256.5 686 Q272 678 290 678 Q309 678 320.5 686 Q332 694 337 706 L337 725 L400 725 L400 679 Z " />
<glyph glyph-name="dieresis" unicode="&#xa8;" horiz-adv-x="436" d="M63 706 Q68 711 80.5 719 Q93 727 116 727 Q139 727 151.5 719 Q164 711 168 706 L168 641 Q164 636 151.5 628 Q139 620 116 620 Q93 620 80.5 628 Q68 636 63 641 L63 706 Z M270 706 Q275 711 287.5 719 Q300 727 323 727 Q346 727 358 719 Q370 711 375 706 L375 641 Q370 636 358 628 Q346 620 323 620 Q300 620 287.5 628 Q275 636 270 641 L270 706 Z " />
<glyph glyph-name="macron" unicode="&#xaf;" horiz-adv-x="436" d="M49 716 L388 716 L388 644 L49 644 L49 716 Z " />
<glyph glyph-name="breve" unicode="&#x2d8;" horiz-adv-x="436" d="M68 725 L143 725 L143 698 Q147 689 164.5 674 Q182 659 218 659 Q236 659 249.5 663.5 Q263 668 271.5 674 Q280 680 285 686.5 Q290 693 292 698 L292 725 L368 725 L368 682 Q361 667 349.5 652.5 Q338 638 320.5 626.5 Q303 615 277.5 607.5 Q252 600 218 600 Q183 600 158 607.5 Q133 615 115.5 626.5 Q98 638 86.5 652.5 Q75 667 68 682 L68 725 Z " />
<glyph glyph-name="ring" unicode="&#x2da;" horiz-adv-x="436" d="M165 659 Q170 651 183.5 643 Q197 635 219 635 Q241 635 254 643 Q267 651 272 659 L272 718 Q267 726 254 734.5 Q241 743 219 743 Q197 743 183.5 734.5 Q170 726 165 718 L165 659 Z M113 731 Q125 754 152.5 771 Q180 788 219 788 Q257 788 285 771 Q313 754 325 731 L325 647 Q313 624 285 607 Q257 590 219 590 Q180 590 152.5 607 Q125 624 113 647 L113 731 Z " />
<glyph glyph-name="hungarumlaut" unicode="&#x2dd;" horiz-adv-x="436" d="M67 608 L113 759 L192 759 L192 720 L132 592 L67 592 L67 608 Z M249 608 L294 759 L373 759 L373 720 L313 592 L249 592 L249 608 Z " />
<glyph glyph-name="dotaccent" unicode="&#x2d9;" horiz-adv-x="436" d="M161 702 Q166 712 180 721 Q194 730 218 730 Q242 730 256 721 Q270 712 275 702 L275 652 Q270 642 256 633 Q242 624 218 624 Q194 624 180 633 Q166 642 161 652 L161 702 Z " />
<glyph glyph-name="cedilla" unicode="&#xb8;" horiz-adv-x="436" d="M131 -170 Q147 -178 166 -183 Q185 -188 206 -188 Q226 -188 237 -181 Q248 -174 252 -165 L252 -127 Q248 -119 238 -112.5 Q228 -106 208 -106 L150 -106 L182 5 L238 5 L219 -60 L237 -60 Q267 -60 288 -75 Q309 -90 317 -107 L317 -189 Q306 -212 279 -227 Q252 -242 212 -242 Q180 -242 156 -235.5 Q132 -229 118 -220 L131 -170 Z " />
<glyph glyph-name="ogonek" unicode="&#x2db;" horiz-adv-x="436" d="M131 -113 Q148 -81 186 -44 Q224 -7 264 19 L317 0 Q260 -45 235 -77.5 Q210 -110 205 -120 L205 -153 Q210 -160 223.5 -165.5 Q237 -171 255 -171 Q272 -171 286.5 -169 Q301 -167 317 -160 L317 -216 Q303 -224 286 -228 Q269 -232 240 -232 Q203 -232 173 -220 Q143 -208 131 -184 L131 -113 Z " />
<glyph glyph-name="comma" unicode="&#x2c;" horiz-adv-x="192" d="M49 -67 L71 -67 Q77 -67 84.5 -62.5 Q92 -58 96 -51 L96 -13 Q73 -13 58.5 -3.5 Q44 6 39 15 L39 79 Q44 89 58.5 98 Q73 107 96 107 Q119 107 134 98 Q149 89 153 79 L153 -60 Q151 -66 144.5 -75 Q138 -84 128.5 -92 Q119 -100 105.5 -106 Q92 -112 76 -112 L49 -112 L49 -67 Z " />
<glyph glyph-name="semicolon" unicode="&#x3b;" horiz-adv-x="208" d="M57 -67 L79 -67 Q85 -67 92.5 -62.5 Q100 -58 104 -51 L104 -13 Q81 -13 66.5 -3.5 Q52 6 47 15 L47 79 Q52 89 66.5 98 Q81 107 104 107 Q127 107 142 98 Q157 89 161 79 L161 -60 Q159 -66 152.5 -75 Q146 -84 136.5 -92 Q127 -100 113.5 -106 Q100 -112 84 -112 L57 -112 L57 -67 Z M47 421 Q52 431 66 440 Q80 449 104 449 Q128 449 142 440 Q156 431 160 421 L160 361 Q156 352 142 342.5 Q128 333 104 333 Q80 333 66 342.5 Q52 352 47 361 L47 421 Z " />
<glyph glyph-name="colon" unicode="&#x3a;" horiz-adv-x="208" d="M47 79 Q52 89 66 98 Q80 107 104 107 Q128 107 142 98 Q156 89 160 79 L160 19 Q156 10 142 0.5 Q128 -9 104 -9 Q80 -9 66 0.5 Q52 10 47 19 L47 79 Z M47 421 Q52 431 66 440 Q80 449 104 449 Q128 449 142 440 Q156 431 160 421 L160 361 Q156 352 142 342.5 Q128 333 104 333 Q80 333 66 342.5 Q52 352 47 361 L47 421 Z " />
<glyph glyph-name="period" unicode="&#x2e;" horiz-adv-x="192" d="M39 79 Q44 89 58 98 Q72 107 96 107 Q120 107 134 98 Q148 89 152 79 L152 19 Q148 10 134 0.5 Q120 -9 96 -9 Q72 -9 58 0.5 Q44 10 39 19 L39 79 Z " />
<glyph glyph-name="ellipsis" unicode="&#x2026;" horiz-adv-x="567" d="M39 79 Q44 89 58 98 Q72 107 96 107 Q120 107 134 98 Q148 89 152 79 L152 19 Q148 10 134 0.5 Q120 -9 96 -9 Q72 -9 58 0.5 Q44 10 39 19 L39 79 Z M227 79 Q232 89 246 98 Q260 107 284 107 Q308 107 322 98 Q336 89 340 79 L340 19 Q336 10 322 0.5 Q308 -9 284 -9 Q260 -9 246 0.5 Q232 10 227 19 L227 79 Z M415 79 Q420 89 434 98 Q448 107 472 107 Q496 107 510 98 Q524 89 528 79 L528 19 Q524 10 510 0.5 Q496 -9 472 -9 Q448 -9 434 0.5 Q420 10 415 19 L415 79 Z " />
<glyph glyph-name="hyphen" unicode="&#x2d;" horiz-adv-x="364" d="M41 378 L323 378 L323 296 L41 296 L41 378 Z " />
<glyph glyph-name="exclam" unicode="&#x21;" horiz-adv-x="272" d="M80 583 L80 700 L192 700 L192 583 L179 161 L93 161 L80 583 Z M79 76 Q84 85 98 94.5 Q112 104 136 104 Q160 104 174 94.5 Q188 85 192 76 L192 19 Q188 10 174 0.5 Q160 -9 136 -9 Q112 -9 98 0.5 Q84 10 79 19 L79 76 Z " />
<glyph glyph-name="exclamdown" unicode="&#xa1;" horiz-adv-x="272" d="M192 -39 L192 -156 L80 -156 L80 -39 L93 383 L179 383 L192 -39 Z M193 468 Q188 459 174 449.5 Q160 440 136 440 Q112 440 98 449.5 Q84 459 80 468 L80 525 Q84 534 98 543.5 Q112 553 136 553 Q160 553 174 543.5 Q188 534 193 525 L193 468 Z " />
<glyph glyph-name="question" unicode="&#x3f;" horiz-adv-x="530" d="M167 286 L322 396 Q345 412 365 428 Q385 444 393 456 L393 568 Q376 591 342.5 610.5 Q309 630 261 630 Q213 630 180 610.5 Q147 591 130 568 L130 489 L33 489 L33 607 Q45 623 64 642 Q83 661 110.5 677 Q138 693 175.5 703.5 Q213 714 261 714 Q312 714 351 702 Q390 690 418.5 672.5 Q447 655 466.5 634.5 Q486 614 497 597 L497 421 Q492 413 483 403.5 Q474 394 462.5 384.5 Q451 375 438.5 366 Q426 357 416 350 L269 245 L269 172 L167 172 L167 286 Z M161 79 Q166 89 180 98 Q194 107 218 107 Q242 107 256 98 Q270 89 275 79 L275 19 Q270 10 256 0.5 Q242 -9 218 -9 Q194 -9 180 0.5 Q166 10 161 19 L161 79 Z " />
<glyph glyph-name="questiondown" unicode="&#xbf;" horiz-adv-x="530" d="M363 258 L208 148 Q185 132 165 116 Q145 100 137 88 L137 -24 Q154 -47 187.5 -66.5 Q221 -86 269 -86 Q317 -86 350 -66.5 Q383 -47 400 -24 L400 55 L497 55 L497 -63 Q485 -79 466 -98 Q447 -117 419.5 -133 Q392 -149 354.5 -159.5 Q317 -170 269 -170 Q218 -170 179 -158 Q140 -146 111.5 -128.5 Q83 -111 63.5 -90.5 Q44 -70 33 -53 L33 123 Q37 131 46.5 140.5 Q56 150 67.5 159.5 Q79 169 91 177.5 Q103 186 114 194 L261 299 L261 372 L363 372 L363 258 Z M369 465 Q364 455 350 446 Q336 437 312 437 Q288 437 274 446 Q260 455 255 465 L255 525 Q260 534 274 543.5 Q288 553 312 553 Q336 553 350 543.5 Q364 534 369 525 L369 465 Z " />
<glyph glyph-name="quoteleft" unicode="&#x2018;" horiz-adv-x="194" d="M144.003 668.996 L122.004 668.996 Q116.005 668.996 108.505 664.496 Q101.006 659.996 97.0059 652.997 L97.0059 614.999 Q120.004 614.999 134.504 605.5 Q149.003 596 154.002 587.001 L154.002 523.005 Q149.003 513.005 134.504 504.006 Q120.004 495.007 97.0059 495.007 Q74.0073 495.007 59.0082 504.006 Q44.0091 513.005 40.0093 523.005 L40.0093 661.996 Q42.0092 667.996 48.5088 676.995 Q55.0084 685.995 64.5078 693.994 Q74.0073 701.994 87.5064 707.994 Q101.006 713.993 117.005 713.993 L144.003 713.993 L144.003 668.996 Z " />
<glyph glyph-name="quoteright" unicode="&#x2019;" horiz-adv-x="194" d="M50 540 L72 540 Q78 540 85.5 544.5 Q93 549 97 556 L97 594 Q74 594 59.5 603.5 Q45 613 40 622 L40 686 Q45 696 59.5 705 Q74 714 97 714 Q120 714 135 705 Q150 696 154 686 L154 547 Q152 541 145.5 532 Q139 523 129.5 515 Q120 507 106.5 501 Q93 495 77 495 L50 495 L50 540 Z " />
<glyph glyph-name="quotedblleft" unicode="&#x201c;" horiz-adv-x="370" d="M144.003 668.996 L122.004 668.996 Q116.005 668.996 108.505 664.496 Q101.006 659.996 97.0059 652.997 L97.0059 614.999 Q120.004 614.999 134.504 605.5 Q149.003 596 154.002 587.001 L154.002 523.005 Q149.003 513.005 134.504 504.006 Q120.004 495.007 97.0059 495.007 Q74.0073 495.007 59.0082 504.006 Q44.0091 513.005 40.0093 523.005 L40.0093 661.996 Q42.0092 667.996 48.5088 676.995 Q55.0084 685.995 64.5078 693.994 Q74.0073 701.994 87.5064 707.994 Q101.006 713.993 117.005 713.993 L144.003 713.993 L144.003 668.996 Z M320.003 668.996 L298.004 668.996 Q292.005 668.996 284.505 664.496 Q277.006 659.996 273.006 652.997 L273.006 614.999 Q296.004 614.999 310.504 605.5 Q325.003 596 330.002 587.001 L330.002 523.005 Q325.003 513.005 310.504 504.006 Q296.004 495.007 273.006 495.007 Q250.007 495.007 235.008 504.006 Q220.009 513.005 216.009 523.005 L216.009 661.996 Q218.009 667.996 224.509 676.995 Q231.008 685.995 240.508 693.994 Q250.007 701.994 263.506 707.994 Q277.006 713.993 293.005 713.993 L320.003 713.993 L320.003 668.996 Z " />
<glyph glyph-name="quotedblright" unicode="&#x201d;" horiz-adv-x="370" d="M50 540 L72 540 Q78 540 85.5 544.5 Q93 549 97 556 L97 594 Q74 594 59.5 603.5 Q45 613 40 622 L40 686 Q45 696 59.5 705 Q74 714 97 714 Q120 714 135 705 Q150 696 154 686 L154 547 Q152 541 145.5 532 Q139 523 129.5 515 Q120 507 106.5 501 Q93 495 77 495 L50 495 L50 540 Z M227 540 L249 540 Q255 540 262.5 544.5 Q270 549 274 556 L274 594 Q251 594 236.5 603.5 Q222 613 217 622 L217 686 Q222 696 236.5 705 Q251 714 274 714 Q297 714 312 705 Q327 696 331 686 L331 547 Q329 541 322.5 532 Q316 523 306.5 515 Q297 507 283.5 501 Q270 495 254 495 L227 495 L227 540 Z " />
<glyph glyph-name="quotesinglbase" unicode="&#x201a;" horiz-adv-x="194" d="M50 -67 L72 -67 Q78 -67 85.5 -62.5 Q93 -58 97 -51 L97 -13 Q74 -13 59.5 -3.5 Q45 6 40 15 L40 79 Q45 89 59.5 98 Q74 107 97 107 Q120 107 135 98 Q150 89 154 79 L154 -60 Q152 -66 145.5 -75 Q139 -84 129.5 -92 Q120 -100 106.5 -106 Q93 -112 77 -112 L50 -112 L50 -67 Z " />
<glyph glyph-name="quotedblbase" unicode="&#x201e;" horiz-adv-x="371" d="M50 -67 L72 -67 Q78 -67 85.5 -62.5 Q93 -58 97 -51 L97 -13 Q74 -13 59.5 -3.5 Q45 6 40 15 L40 79 Q45 89 59.5 98 Q74 107 97 107 Q120 107 135 98 Q150 89 154 79 L154 -60 Q152 -66 145.5 -75 Q139 -84 129.5 -92 Q120 -100 106.5 -106 Q93 -112 77 -112 L50 -112 L50 -67 Z M227 -67 L249 -67 Q255 -67 262.5 -62.5 Q270 -58 274 -51 L274 -13 Q251 -13 236.5 -3.5 Q222 6 217 15 L217 79 Q222 89 236.5 98 Q251 107 274 107 Q297 107 312 98 Q327 89 331 79 L331 -60 Q329 -66 322.5 -75 Q316 -84 306.5 -92 Q297 -100 283.5 -106 Q270 -112 254 -112 L227 -112 L227 -67 Z " />
<glyph glyph-name="guilsinglleft" unicode="&#x2039;" horiz-adv-x="340" d="M41 256 L41 331 L221 539 L293 539 L293 485 L124 293 L293 102 L293 48 L221 48 L41 256 Z " />
<glyph glyph-name="guilsinglright" unicode="&#x203a;" horiz-adv-x="341" d="M47 102 L216 293 L47 485 L47 539 L120 539 L300 331 L300 256 L120 48 L47 48 L47 102 Z " />
<glyph glyph-name="guillemotleft" unicode="&#xab;" horiz-adv-x="598" d="M41 256 L41 331 L221 539 L293 539 L293 485 L124 293 L293 102 L293 48 L221 48 L41 256 Z M299 256 L299 331 L479 539 L551 539 L551 485 L382 293 L551 102 L551 48 L479 48 L299 256 Z " />
<glyph glyph-name="guillemotright" unicode="&#xbb;" horiz-adv-x="599" d="M47 102 L216 293 L47 485 L47 539 L120 539 L300 331 L300 256 L120 48 L47 48 L47 102 Z M305 102 L474 293 L305 485 L305 539 L378 539 L558 331 L558 256 L378 48 L305 48 L305 102 Z " />
<glyph glyph-name="slash" unicode="&#x2f;" horiz-adv-x="395" d="M47 -56 L263 731 L347 731 L347 677 L132 -110 L47 -110 L47 -56 Z " />
<glyph glyph-name="bar" unicode="&#x7c;" horiz-adv-x="323" d="M108 790 L214 790 L214 -130 L108 -130 L108 790 Z " />
<glyph glyph-name="endash" unicode="&#x2013;" horiz-adv-x="564" d="M41 378 L523 378 L523 296 L41 296 L41 378 Z " />
<glyph glyph-name="emdash" unicode="&#x2014;" horiz-adv-x="864" d="M41 378 L823 378 L823 296 L41 296 L41 378 Z " />
<glyph glyph-name="bullet" unicode="&#x2022;" horiz-adv-x="332" d="M61 411 Q74 431 101 446 Q128 461 166 461 Q203 461 230 446.5 Q257 432 271 411 L271 296 Q257 274 230 259 Q203 244 166 244 Q128 244 101 260 Q74 276 61 297 L61 411 Z " />
<glyph glyph-name="periodcentered" unicode="&#xb7;" horiz-adv-x="192" d="M39 371 Q44 381 58 390 Q72 399 96 399 Q120 399 134 390 Q148 381 152 371 L152 311 Q148 302 134 292.5 Q120 283 96 283 Q72 283 58 292.5 Q44 302 39 311 L39 371 Z " />
<glyph glyph-name="parenleft" unicode="&#x28;" horiz-adv-x="366" d="M321 625 Q288 625 263.5 614.5 Q239 604 221 587 Q203 570 191.5 548.5 Q180 527 174 506 L174 28 Q180 6 191 -15.5 Q202 -37 220 -54.5 Q238 -72 263 -82.5 Q288 -93 321 -93 L329 -93 L329 -168 L321 -168 Q265 -168 222 -153.5 Q179 -139 147.5 -116 Q116 -93 95.5 -64.5 Q75 -36 64 -8 L64 540 Q75 568 95.5 596.5 Q116 625 147.5 648 Q179 671 222 685.5 Q265 700 321 700 L329 700 L329 625 L321 625 Z " />
<glyph glyph-name="parenright" unicode="&#x29;" horiz-adv-x="366" d="M45.0196 625 Q78.0176 625 102.516 614.5 Q127.015 604 145.013 587 Q163.012 570 174.512 548.5 Q186.011 527 192.011 506 L192.011 28 Q186.011 6 175.012 -15.5 Q164.012 -37 146.013 -54.5 Q128.015 -72 103.016 -82.5 Q78.0176 -93 45.0196 -93 L37.0201 -93 L37.0201 -168 L45.0196 -168 Q101.016 -168 144.014 -153.5 Q187.011 -139 218.509 -116 Q250.007 -93 270.506 -64.5 Q291.005 -36 302.004 -8 L302.004 540 Q291.005 568 270.506 596.5 Q250.007 625 218.509 648 Q187.011 671 144.014 685.5 Q101.016 700 45.0196 700 L37.0201 700 L37.0201 625 L45.0196 625 Z " />
<glyph glyph-name="bracketleft" unicode="&#x5b;" horiz-adv-x="367" d="M182 -93 L320 -93 L320 -168 L75 -168 L75 700 L320 700 L320 625 L182 625 L182 -93 Z " />
<glyph glyph-name="bracketright" unicode="&#x5d;" horiz-adv-x="367" d="M185.011 -93 L47.0195 -93 L47.0195 -168 L292.005 -168 L292.005 700 L47.0195 700 L47.0195 625 L185.011 625 L185.011 -93 Z " />
<glyph glyph-name="braceleft" unicode="&#x7b;" horiz-adv-x="385" d="M93 173 Q89 190 81 200 Q73 210 63 215.5 Q53 221 42 223 Q31 225 21 225 L21 300 Q31 300 42 301.5 Q53 303 63 308.5 Q73 314 81 324.5 Q89 335 93 352 L93 540 Q104 568 124.5 596.5 Q145 625 176.5 648 Q208 671 251.5 685.5 Q295 700 351 700 L351 625 Q319 625 294.5 616 Q270 607 252 591.5 Q234 576 222 556 Q210 536 204 514 L204 336 Q195 310 179 292 Q163 274 142 262 Q163 250 179 232 Q195 214 204 189 L204 11 Q210 -11 222 -31.5 Q234 -52 252 -67.5 Q270 -83 294.5 -92 Q319 -101 351 -101 L351 -175 Q295 -175 251.5 -160.5 Q208 -146 176.5 -123 Q145 -100 124.5 -71.5 Q104 -43 93 -15 L93 173 Z " />
<glyph glyph-name="braceright" unicode="&#x7d;" horiz-adv-x="385" d="M292.006 173 Q296.005 190 304.005 200 Q312.004 210 322.004 215.5 Q332.003 221 343.003 223 Q354.002 225 364.001 225 L364.001 300 Q354.002 300 343.003 301.5 Q332.003 303 322.004 308.5 Q312.004 314 304.005 324.5 Q296.005 335 292.006 352 L292.006 540 Q281.006 568 260.508 596.5 Q240.009 625 208.511 648 Q177.013 671 133.515 685.5 Q90.018 700 34.0214 700 L34.0214 625 Q66.0195 625 90.518 616 Q115.016 607 133.015 591.5 Q151.014 576 163.014 556 Q175.013 536 181.012 514 L181.012 336 Q190.012 310 206.011 292 Q222.01 274 243.009 262 Q222.01 250 206.011 232 Q190.012 214 181.012 189 L181.012 11 Q175.013 -11 163.014 -31.5 Q151.014 -52 133.015 -67.5 Q115.016 -83 90.518 -92 Q66.0195 -101 34.0214 -101 L34.0214 -175 Q90.018 -175 133.515 -160.5 Q177.013 -146 208.511 -123 Q240.009 -100 260.508 -71.5 Q281.006 -43 292.006 -15 L292.006 173 Z " />
<glyph glyph-name="asterisk" unicode="&#x2a;" horiz-adv-x="495" d="M222 573 L204 740 Q214 746 225.5 748.5 Q237 751 248 751 Q259 751 270.5 748.5 Q282 746 291 740 L272 573 L425 643 Q433 637 439 626.5 Q445 616 449 605 Q452 595 453.5 583.5 Q455 572 452 561 L285 527 L401 402 Q396 391 388 382.5 Q380 374 372 367 Q363 360 352.5 355.5 Q342 351 331 351 L247 496 L165 351 Q153 351 142.5 355.5 Q132 360 124 367 Q115 374 107 382.5 Q99 391 95 402 L209 527 L43 561 Q40 572 41.5 583.5 Q43 595 46 605 Q50 616 56 626.5 Q62 637 70 643 L222 573 Z " />
<glyph glyph-name="dagger" unicode="&#x2020;" horiz-adv-x="633" d="M264 386 L126 377 L37 377 L37 468 L126 468 L263 458 L261 583 L261 700 L369 700 L369 583 L367 458 L507 468 L595 468 L595 377 L507 377 L365 386 L356 -168 L274 -168 L264 386 Z " />
<glyph glyph-name="daggerdbl" unicode="&#x2021;" horiz-adv-x="653" d="M47 281 L136 281 L277 271 L274 457 L136 448 L47 448 L47 539 L136 539 L273 529 L272 583 L272 700 L380 700 L380 583 L379 529 L517 539 L605 539 L605 448 L517 448 L378 457 L374 271 L517 281 L605 281 L605 190 L517 190 L373 199 L367 -168 L285 -168 L278 200 L136 190 L47 190 L47 281 Z " />
<glyph glyph-name="section" unicode="&#xa7;" horiz-adv-x="516" d="M463 247 Q454 233 436 215.5 Q418 198 389 182 Q419 168 437 153 Q455 138 463 125 L463 3 Q455 -9 439.5 -25.5 Q424 -42 399 -58 Q374 -74 339 -85 Q304 -96 258 -96 Q211 -96 176 -85 Q141 -74 116.5 -58 Q92 -42 76.5 -25 Q61 -8 53 3 L53 85 L146 85 L146 28 Q158 11 185.5 -6.5 Q213 -24 258 -24 Q303 -24 330.5 -6.5 Q358 11 370 28 L370 89 Q359 106 336.5 117.5 Q314 129 279 137 L218 151 Q144 167 105 191.5 Q66 216 53 237 L53 371 Q61 384 79 402 Q97 420 126 435 Q97 449 79 464.5 Q61 480 53 494 L53 615 Q61 627 76.5 643.5 Q92 660 117 676 Q142 692 176.5 703 Q211 714 258 714 Q305 714 340 702.5 Q375 691 399.5 675.5 Q424 660 439.5 643 Q455 626 463 615 L463 533 L370 533 L370 590 Q358 607 330.5 624.5 Q303 642 258 642 Q213 642 185.5 624.5 Q158 607 146 590 L146 529 Q157 512 179.5 501 Q202 490 237 482 L298 467 Q372 451 411 426.5 Q450 402 463 381 L463 247 Z M253 398 Q211 396 184 379.5 Q157 363 146 346 L146 274 Q157 257 179.5 245.5 Q202 234 236 226 L262 220 Q305 221 331.5 238 Q358 255 370 272 L370 345 Q359 362 336.5 373 Q314 384 280 392 L253 398 Z " />
<glyph glyph-name="paragraph" unicode="&#xb6;" horiz-adv-x="665" d="M510 700 L588 700 L588 -100 L510 -100 L510 700 Z M386 -100 L308 -100 L308 248 L250 248 Q178 248 126.5 282.5 Q75 317 48 366 L48 582 Q80 639 133.5 669.5 Q187 700 250 700 L386 700 L386 -100 Z " />
<glyph glyph-name="asciicircum" unicode="&#x5e;" horiz-adv-x="512" d="M47 401 L206 700 L306 700 L464 401 L464 342 L400 342 L264 603 L248 603 L113 342 L47 342 L47 401 Z " />
<glyph glyph-name="asciitilde" unicode="&#x7e;" horiz-adv-x="583" d="M33 387 Q49 399 70 410 Q88 418 113.5 425.5 Q139 433 171 433 Q207 433 241 425 Q275 417 308 407.5 Q341 398 373.5 390 Q406 382 439 382 Q464 382 484.5 389 Q505 396 520 404 Q538 414 551 426 L551 335 Q538 325 521 318 Q507 311 486.5 306 Q466 301 440 301 Q401 301 367 309 Q333 317 300.5 326.5 Q268 336 236 344 Q204 352 169 352 Q140 352 115 344 Q90 336 72 326 Q51 315 33 301 L33 387 Z " />
<glyph glyph-name="brokenbar" unicode="&#xa6;" horiz-adv-x="323" d="M108 275 L214 275 L214 -130 L108 -130 L108 275 Z M108 790 L214 790 L214 397 L108 397 L108 790 Z " />
<glyph glyph-name="backslash" unicode="&#x5c;" horiz-adv-x="395" d="M47 677 L47 731 L132 731 L347 -56 L347 -110 L263 -110 L47 677 Z " />
<glyph glyph-name="underscore" unicode="&#x5f;" horiz-adv-x="499" d="M-5 -65 L504 -65 L504 -132 L-5 -132 L-5 -65 Z " />
<glyph glyph-name="quotesingle" unicode="&#x27;" horiz-adv-x="169" d="M40 610 L40 700 L128 700 L128 610 L115 485 L54 485 L40 610 Z " />
<glyph glyph-name="quotedbl" unicode="&#x22;" horiz-adv-x="335" d="M40 610 L40 700 L128 700 L128 610 L115 485 L54 485 L40 610 Z M206 610 L206 700 L294 700 L294 610 L281 485 L220 485 L206 610 Z " />
<glyph glyph-name="at" unicode="&#x40;" horiz-adv-x="941" d="M697 -98 Q647 -128 590 -144.5 Q533 -161 471 -161 Q401 -161 336.5 -143 Q272 -125 218 -92 Q164 -59 122 -11 Q80 37 55 97 L55 456 Q80 516 123 564 Q166 612 221 645 Q276 678 340.5 696 Q405 714 473 714 Q563 714 634 687 Q705 660 756.5 620.5 Q808 581 840.5 536 Q873 491 886 455 L886 106 Q863 67 821.5 49.5 Q780 32 739 32 Q690 32 654.5 49.5 Q619 67 599 99 Q573 71 532 51.5 Q491 32 435 32 Q396 32 365.5 43.5 Q335 55 313.5 71.5 Q292 88 278 106.5 Q264 125 257 140 L257 411 Q264 426 277.5 444.5 Q291 463 312 479.5 Q333 496 363 507.5 Q393 519 432 519 Q486 519 523 500 Q560 481 584 454 L584 506 L673 506 L673 129 Q691 92 743 92 Q769 92 786 102 Q803 112 814 129 L814 441 Q803 468 777.5 504 Q752 540 710 572.5 Q668 605 608.5 628 Q549 651 471 651 Q354 651 263 596 Q172 541 128 440 L128 113 Q150 65 184.5 26 Q219 -13 263.5 -41 Q308 -69 360.5 -84 Q413 -99 471 -99 Q523 -99 570.5 -86 Q618 -73 660 -48 L697 -98 Z M460 102 Q505 102 536 117.5 Q567 133 584 154 L584 396 Q567 417 536 433 Q505 449 460 449 Q436 449 417 443.5 Q398 438 384 429.5 Q370 421 360.5 411 Q351 401 347 393 L347 158 Q352 150 361 140.5 Q370 131 384 122.5 Q398 114 417 108 Q436 102 460 102 Z " />
<glyph glyph-name="copyright" unicode="&#xa9;" horiz-adv-x="809" d="M213 479 Q220 491 234.5 508 Q249 525 272.5 540.5 Q296 556 328.5 567 Q361 578 404 578 Q447 578 479 567.5 Q511 557 534 543 Q557 529 571 513 Q585 497 592 487 L592 401 L514 401 L514 460 Q508 468 498.5 477.5 Q489 487 475.5 494.5 Q462 502 444.5 507 Q427 512 405 512 Q361 512 334.5 494.5 Q308 477 297 460 L297 237 Q303 229 312 219.5 Q321 210 334.5 202.5 Q348 195 365.5 190 Q383 185 405 185 Q449 185 476 202.5 Q503 220 514 237 L514 297 L592 297 L592 210 Q585 199 571 184 Q557 169 534 154.5 Q511 140 479 130 Q447 120 404 120 Q361 120 328.5 131 Q296 142 272.5 157.5 Q249 173 234.5 190 Q220 207 213 219 L213 479 Z M39 350 Q39 426 68 492 Q97 558 146.5 607.5 Q196 657 262.5 685.5 Q329 714 404 714 Q479 714 546 685.5 Q613 657 662.5 607.5 Q712 558 741 492 Q770 426 770 350 Q770 274 741 208 Q712 142 662.5 92.5 Q613 43 546 14.5 Q479 -14 404 -14 Q329 -14 262.5 14.5 Q196 43 146.5 92.5 Q97 142 68 208 Q39 274 39 350 Z M404 32 Q470 32 527.5 57 Q585 82 627.5 125.5 Q670 169 694.5 226.5 Q719 284 719 350 Q719 416 694.5 473.5 Q670 531 627.5 574.5 Q585 618 527.5 643 Q470 668 404 668 Q339 668 281.5 643 Q224 618 181.5 574.5 Q139 531 114.5 473.5 Q90 416 90 350 Q90 284 114.5 226.5 Q139 169 181.5 125.5 Q224 82 281.5 57 Q339 32 404 32 Z " />
<glyph glyph-name="registered" unicode="&#xae;" horiz-adv-x="518" d="M20 585 Q20 634 39 677.5 Q58 721 90.5 753.5 Q123 786 166.5 805 Q210 824 259 824 Q308 824 351.5 805 Q395 786 427.5 753.5 Q460 721 479 677.5 Q498 634 498 585 Q498 536 479 492.5 Q460 449 427.5 416.5 Q395 384 351.5 365 Q308 346 259 346 Q210 346 166.5 365 Q123 384 90.5 416.5 Q58 449 39 492.5 Q20 536 20 585 Z M259 377 Q302 377 339 393.5 Q376 410 404 438.5 Q432 467 448 504.5 Q464 542 464 585 Q464 628 448 665.5 Q432 703 404 731.5 Q376 760 339 776.5 Q302 793 259 793 Q216 793 178.5 776.5 Q141 760 113.5 731.5 Q86 703 70 665.5 Q54 628 54 585 Q54 542 70 504.5 Q86 467 113.5 438.5 Q141 410 178.5 393.5 Q216 377 259 377 Z M261 546 L215 546 L215 448 L164 448 L164 730 L284 730 Q310 730 334 716 Q358 702 370 677 L370 600 Q351 564 314 551 L365 479 L365 448 L322 448 L261 546 Z M274 589 Q288 589 300.5 594 Q313 599 321 615 L321 662 Q313 678 300.5 683 Q288 688 274 688 L215 688 L215 589 L274 589 Z " />
<glyph glyph-name="trademark" unicode="&#x2122;" horiz-adv-x="794" d="M352 700 L456 700 L543 426 L554 426 L640 700 L740 700 L740 310 L675 310 L675 601 L665 601 L572 310 L520 310 L427 601 L417 601 L417 310 L352 310 L352 700 Z M26 700 L312 700 L312 646 L203 646 L203 310 L135 310 L135 646 L26 646 L26 700 Z " />
<glyph glyph-name="uni2117" unicode="&#x2117;" horiz-adv-x="809" d="M264 570 L453 570 Q496 570 533 546.5 Q570 523 590 481 L590 358 Q570 316 533 292.5 Q496 269 453 269 L338 269 L338 116 L264 116 L264 570 Z M438 327 Q461 327 482.5 338.5 Q504 350 518 378 L518 462 Q504 489 482.5 500.5 Q461 512 438 512 L338 512 L338 327 L438 327 Z M39 350 Q39 426 68 492 Q97 558 146.5 607.5 Q196 657 262.5 685.5 Q329 714 404 714 Q479 714 546 685.5 Q613 657 662.5 607.5 Q712 558 741 492 Q770 426 770 350 Q770 274 741 208 Q712 142 662.5 92.5 Q613 43 546 14.5 Q479 -14 404 -14 Q329 -14 262.5 14.5 Q196 43 146.5 92.5 Q97 142 68 208 Q39 274 39 350 Z M404 32 Q470 32 527.5 57 Q585 82 627.5 125.5 Q670 169 694.5 226.5 Q719 284 719 350 Q719 416 694.5 473.5 Q670 531 627.5 574.5 Q585 618 527.5 643 Q470 668 404 668 Q339 668 281.5 643 Q224 618 181.5 574.5 Q139 531 114.5 473.5 Q90 416 90 350 Q90 284 114.5 226.5 Q139 169 181.5 125.5 Q224 82 281.5 57 Q339 32 404 32 Z " />
<glyph glyph-name="currency" unicode="&#xa4;" horiz-adv-x="590" d="M63 570 L131 570 L163 537 Q189 552 221 561 Q253 570 295 570 Q337 570 369.5 560.5 Q402 551 428 537 L461 570 L527 570 L527 520 L490 484 Q500 472 507 460 Q514 448 519 437 L519 235 Q514 224 507.5 212.5 Q501 201 491 189 L527 154 L527 104 L461 104 L428 136 Q402 121 369.5 112 Q337 103 295 103 Q253 103 220.5 112 Q188 121 162 135 L131 104 L63 104 L63 154 L98 189 Q80 214 71 235 L71 437 Q80 459 99 483 L63 520 L63 570 Z M171 256 Q183 227 214 204 Q245 181 295 181 Q345 181 376 204 Q407 227 419 256 L419 417 Q407 446 376 469 Q345 492 295 492 Q245 492 214 469 Q183 446 171 417 L171 256 Z " />
<glyph glyph-name="Euro" unicode="&#x20ac;" horiz-adv-x="595" d="M31 448 L89 448 L89 583 Q98 604 117 627 Q136 650 165.5 669.5 Q195 689 234 701.5 Q273 714 322 714 Q371 714 409.5 701.5 Q448 689 476.5 670.5 Q505 652 523 631 Q541 610 549 594 L549 512 L453 512 L453 559 Q441 588 406.5 611 Q372 634 322 634 Q273 634 238.5 611 Q204 588 191 559 L191 448 L434 448 L434 394 L191 394 L191 320 L434 320 L434 266 L191 266 L191 142 Q204 113 238.5 90 Q273 67 322 67 Q372 67 406.5 90 Q441 113 453 142 L453 188 L549 188 L549 107 Q541 90 523 69.5 Q505 49 476.5 30 Q448 11 409.5 -1.5 Q371 -14 322 -14 Q273 -14 234 -1.5 Q195 11 165.5 30.5 Q136 50 117 73.5 Q98 97 89 118 L89 266 L31 266 L31 320 L89 320 L89 394 L31 394 L31 448 Z " />
<glyph glyph-name="dollar" unicode="&#x24;" horiz-adv-x="585" d="M59 220 L161 220 L161 141 Q167 130 177.5 117 Q188 104 204 93 Q220 82 241.5 74.5 Q263 67 292 67 Q321 67 343 74.5 Q365 82 381.5 93.5 Q398 105 408 117.5 Q418 130 423 141 L423 240 Q418 251 412 260.5 Q406 270 394.5 279 Q383 288 365.5 296 Q348 304 320 311 L254 327 Q201 339 167 354 Q133 369 111 385 Q89 401 77.5 417 Q66 433 59 448 L59 583 Q64 596 78 616 Q92 636 115.5 655 Q139 674 172.5 689.5 Q206 705 251 711 L251 794 L334 794 L334 711 Q378 705 411 689.5 Q444 674 467.5 655 Q491 636 505.5 616.5 Q520 597 526 583 L526 490 L423 490 L423 559 Q419 570 409 583 Q399 596 382.5 607.5 Q366 619 343.5 626.5 Q321 634 292 634 Q263 634 241 626.5 Q219 619 203 607.5 Q187 596 176.5 583 Q166 570 161 559 L161 482 Q165 473 171 463.5 Q177 454 189 445 Q201 436 219.5 427.5 Q238 419 267 412 L332 396 Q384 384 418 369.5 Q452 355 473.5 339 Q495 323 506.5 306.5 Q518 290 526 275 L526 117 Q519 102 504.5 82.5 Q490 63 466.5 44 Q443 25 410 9.5 Q377 -6 334 -11 L334 -94 L251 -94 L251 -11 Q207 -6 174.5 9 Q142 24 118.5 43 Q95 62 80.5 82 Q66 102 59 117 L59 220 Z " />
<glyph glyph-name="cent" unicode="&#xa2;" horiz-adv-x="530" d="M51 420 Q59 439 74 460 Q89 481 111.5 499.5 Q134 518 165 531.5 Q196 545 235 550 L235 633 L320 633 L320 549 Q358 543 387 529.5 Q416 516 437 499 Q458 482 471.5 464 Q485 446 492 431 L492 337 L399 337 L399 399 Q387 428 355.5 451 Q324 474 275 474 Q225 474 194 451 Q163 428 151 399 L151 140 Q163 111 194 88 Q225 65 275 65 Q324 65 355.5 88 Q387 111 399 140 L399 202 L492 202 L492 108 Q485 93 471.5 74.5 Q458 56 437 39 Q416 22 387 8.5 Q358 -5 320 -10 L320 -94 L235 -94 L235 -11 Q196 -6 165 7.5 Q134 21 111.5 39.5 Q89 58 74 79 Q59 100 51 119 L51 420 Z " />
<glyph glyph-name="sterling" unicode="&#xa3;" horiz-adv-x="607" d="M40 381 L98 381 L98 583 Q107 603 126 626 Q145 649 174.5 668.5 Q204 688 243 701 Q282 714 331 714 Q380 714 418.5 701.5 Q457 689 485.5 670.5 Q514 652 532 631 Q550 610 558 594 L558 508 L462 508 L462 559 Q450 588 415.5 611 Q381 634 331 634 Q282 634 247 611 Q212 588 200 559 L200 381 L451 381 L451 318 L200 318 L200 135 Q193 122 184 108.5 Q175 95 164 82 L558 82 L558 0 L44 0 L44 71 Q55 73 72 85.5 Q89 98 98 122 L98 318 L40 318 L40 381 Z " />
<glyph glyph-name="florin" unicode="&#x192;" horiz-adv-x="430" d="M88 515 L152 515 L152 620 Q158 634 169.5 650.5 Q181 667 200.5 681 Q220 695 248 704 Q276 713 317 713 Q346 713 368.5 709.5 Q391 706 400 703 L400 636 L351 636 Q324 636 306.5 630.5 Q289 625 278 617 Q267 609 261 600 Q255 591 252 585 L252 515 L400 515 L400 440 L252 440 L252 -89 Q246 -104 234.5 -120 Q223 -136 204 -150 Q185 -164 156 -173 Q127 -182 87 -182 Q59 -182 36.5 -179 Q14 -176 4 -172 L4 -105 L54 -105 Q80 -105 97.5 -99.5 Q115 -94 126.5 -86 Q138 -78 143.5 -69.5 Q149 -61 152 -54 L152 440 L88 440 L88 515 Z " />
<glyph glyph-name="yen" unicode="&#xa5;" horiz-adv-x="575" d="M34 387 L185 387 L34 646 L34 700 L135 700 L286 420 L299 420 L449 700 L541 700 L541 646 L391 387 L541 387 L541 333 L360 333 L339 296 L339 248 L541 248 L541 194 L339 194 L339 0 L232 0 L232 194 L34 194 L34 248 L232 248 L232 306 L216 333 L34 333 L34 387 Z " />
<glyph glyph-name="uni20A8" unicode="&#x20a8;" horiz-adv-x="518" d="M59 515 L325 515 L325 548 Q318 567 304.5 581 Q291 595 274.5 605 Q258 615 241 620 Q224 625 210 625 L59 625 L59 700 L503 700 L503 646 L372 646 Q410 615 429 573 L429 515 L503 515 L503 461 L429 461 L429 408 Q416 379 394 356 Q372 333 346 316 Q320 299 291 290 Q262 281 236 281 L193 281 L429 54 L429 0 L338 0 L59 281 L59 349 L210 349 Q224 349 241 354 Q258 359 274.5 369 Q291 379 304.5 393.5 Q318 408 325 427 L325 461 L59 461 L59 515 Z " />
<glyph glyph-name="uni20BA" unicode="&#x20ba;" horiz-adv-x="573" d="M32 413 L98 445 L98 700 L200 700 L200 494 L398 590 L398 527 L200 431 L200 349 L398 445 L398 382 L200 286 L200 81 L319 81 Q369 81 403.5 103.5 Q438 126 450 155 L450 250 L546 250 L546 120 Q538 103 520 82.5 Q502 62 473.5 43.5 Q445 25 406.5 12.5 Q368 0 319 0 L98 0 L98 237 L32 205 L32 268 L98 300 L98 382 L32 350 L32 413 Z " />
<glyph glyph-name="uni20BD" unicode="&#x20bd;" horiz-adv-x="583" d="M20 362 L78 362 L78 700 L338 700 Q402 700 454.5 669.5 Q507 639 539 582 L539 406 Q512 357 461 324 Q410 291 338 291 L185 291 L185 215 L455 215 L455 161 L185 161 L185 0 L78 0 L78 161 L20 161 L20 215 L78 215 L78 291 L20 291 L20 362 Z M185 362 L315 362 Q353 362 385.5 379.5 Q418 397 436 431 L436 549 Q416 587 382 602.5 Q348 618 314 618 L185 618 L185 362 Z " />
<glyph glyph-name="ordfeminine" unicode="&#xaa;" horiz-adv-x="411" d="M289 390 Q270 374 242 363 Q214 352 176 352 Q147 352 126 358 Q105 364 90.5 372.5 Q76 381 67.5 390 Q59 399 55 405 L55 503 Q59 509 68 518.5 Q77 528 91.5 537.5 Q106 547 126.5 553.5 Q147 560 176 560 Q212 560 240 549 Q268 538 287 523 L287 610 Q278 630 256.5 645 Q235 660 200 660 Q166 660 148 647 Q130 634 123 625 L123 597 L61 597 L61 644 Q66 651 76 662 Q86 673 102.5 683.5 Q119 694 143 701.5 Q167 709 200 709 Q233 709 259 701 Q285 693 304 680 Q323 667 335 651 Q347 635 353 620 L353 360 L289 360 L289 390 Z M194 396 Q229 396 252.5 406.5 Q276 417 287 432 L287 478 Q276 492 252.5 504 Q229 516 194 516 Q159 516 142.5 504.5 Q126 493 119 485 L119 426 Q124 418 141.5 407 Q159 396 194 396 Z " />
<glyph glyph-name="ordmasculine" unicode="&#xba;" horiz-adv-x="414" d="M54 620 Q60 635 72.5 651 Q85 667 104 680 Q123 693 148.5 701 Q174 709 207 709 Q240 709 265.5 701 Q291 693 310 680 Q329 667 341.5 651 Q354 635 360 620 L360 440 Q354 425 341.5 409.5 Q329 394 310 381 Q291 368 265.5 360 Q240 352 207 352 Q174 352 148.5 360 Q123 368 104 381 Q85 394 72.5 409.5 Q60 425 54 440 L54 620 Z M120 450 Q129 431 150.5 416.5 Q172 402 207 402 Q242 402 264 416.5 Q286 431 294 450 L294 610 Q286 630 264 645 Q242 660 207 660 Q172 660 150.5 645 Q129 630 120 610 L120 450 Z " />
<glyph glyph-name="numbersign" unicode="&#x23;" horiz-adv-x="578" d="M323 54 L346 200 L183 200 L151 0 L80 0 L80 54 L103 200 L32 200 L32 273 L115 273 L140 425 L68 425 L68 498 L151 498 L184 700 L255 700 L255 646 L231 498 L394 498 L427 700 L498 700 L498 646 L474 498 L546 498 L546 425 L462 425 L438 273 L510 273 L510 200 L426 200 L394 0 L323 0 L323 54 Z M195 273 L358 273 L383 425 L219 425 L195 273 Z " />
<glyph glyph-name="uni2116" unicode="&#x2116;" horiz-adv-x="990" d="M606 607 Q613 622 626 639.5 Q639 657 660 672 Q681 687 710.5 697 Q740 707 779 707 Q818 707 846.5 697 Q875 687 896 672 Q917 657 930 639.5 Q943 622 950 607 L950 438 Q943 424 930 406.5 Q917 389 896 374 Q875 359 846.5 349 Q818 339 779 339 Q740 339 710.5 349 Q681 359 660 374 Q639 389 626 406.5 Q613 424 606 438 L606 607 Z M684 455 Q694 436 716 418.5 Q738 401 779 401 Q818 401 840 418.5 Q862 436 872 455 L872 591 Q862 611 840 628.5 Q818 646 779 646 Q738 646 716 628.5 Q694 611 684 591 L684 455 Z M71 700 L202 700 L408 176 L423 176 L423 700 L523 700 L523 0 L392 0 L186 524 L171 524 L171 0 L71 0 L71 700 Z M606 287 L950 287 L950 221 L606 221 L606 287 Z " />
<glyph glyph-name="zero" unicode="0" horiz-adv-x="586" d="M59 583 Q68 604 87.5 627 Q107 650 136 669.5 Q165 689 204.5 701.5 Q244 714 293 714 Q342 714 381.5 701.5 Q421 689 450 669.5 Q479 650 498.5 627 Q518 604 527 583 L527 118 Q518 97 498.5 73.5 Q479 50 450 30.5 Q421 11 381.5 -1.5 Q342 -14 293 -14 Q244 -14 204.5 -1.5 Q165 11 136 30.5 Q107 50 87.5 73.5 Q68 97 59 118 L59 583 Z M162 142 Q175 113 209.5 90 Q244 67 293 67 Q343 67 377.5 90 Q412 113 424 142 L424 559 Q412 588 377.5 611 Q343 634 293 634 Q244 634 209.5 611 Q175 588 162 559 L162 142 Z " />
<glyph glyph-name="one" unicode="1" horiz-adv-x="434" d="M56 72 L173 72 L173 588 L55 539 L55 615 L212 700 L275 700 L275 72 L387 72 L387 0 L56 0 L56 72 Z " />
<glyph glyph-name="two" unicode="2" horiz-adv-x="562" d="M48 78 L353 382 Q402 431 406 445 L406 559 Q394 588 359.5 611 Q325 634 275 634 Q251 634 230.5 628 Q210 622 194.5 612.5 Q179 603 167.5 592 Q156 581 150 571 L150 473 L55 473 L55 606 Q63 619 80 637.5 Q97 656 124 673 Q151 690 188.5 702 Q226 714 275 714 Q324 714 363.5 701.5 Q403 689 432 669.5 Q461 650 480.5 627 Q500 604 509 583 L509 420 Q503 408 484.5 387 Q466 366 445 345 L187 90 L187 84 L515 84 L515 0 L48 0 L48 78 Z " />
<glyph glyph-name="three" unicode="3" horiz-adv-x="571" d="M53 203 L149 203 L149 142 Q161 113 196 90 Q231 67 280 67 Q330 67 364.5 90 Q399 113 411 142 L411 248 Q399 279 364.5 302.5 Q330 326 280 326 L201 326 L201 404 L274 404 Q298 404 318.5 410 Q339 416 355 425.5 Q371 435 382 446.5 Q393 458 399 468 L399 571 Q393 581 382 592 Q371 603 355 612.5 Q339 622 318.5 628 Q298 634 274 634 Q249 634 228.5 628 Q208 622 192.5 612.5 Q177 603 166 592 Q155 581 149 571 L149 505 L53 505 L53 606 Q60 618 77.5 636.5 Q95 655 122 672.5 Q149 690 187 702 Q225 714 274 714 Q323 714 361.5 701.5 Q400 689 428.5 670.5 Q457 652 475.5 631.5 Q494 611 502 595 L502 453 Q492 434 463.5 409.5 Q435 385 391 369 Q439 352 470 322.5 Q501 293 514 266 L514 118 Q505 98 486 74.5 Q467 51 437.5 31.5 Q408 12 368.5 -1 Q329 -14 280 -14 Q231 -14 192.5 -1.5 Q154 11 125.5 30 Q97 49 79 69.5 Q61 90 53 107 L53 203 Z " />
<glyph glyph-name="four" unicode="4" horiz-adv-x="575" d="M26 247 L305 700 L464 700 L464 249 L554 249 L554 167 L464 167 L464 0 L366 0 L366 167 L26 167 L26 247 Z M366 249 L366 610 L349 610 L127 249 L366 249 Z " />
<glyph glyph-name="five" unicode="5" horiz-adv-x="563" d="M56 203 L151 203 L151 142 Q164 113 198.5 90 Q233 67 282 67 Q332 67 366.5 90 Q401 113 413 142 L413 303 Q401 332 367 355 Q333 378 282 378 Q257 378 237.5 372.5 Q218 367 203.5 358.5 Q189 350 179 340 Q169 330 163 322 L68 322 L68 700 L503 700 L503 615 L164 615 L164 404 Q185 424 223 441 Q261 458 312 458 Q351 458 383.5 447.5 Q416 437 441 420 Q466 403 483 382.5 Q500 362 509 342 L509 107 Q500 90 482 69 Q464 48 436 29.5 Q408 11 369.5 -1.5 Q331 -14 282 -14 Q233 -14 194.5 -1.5 Q156 11 128.5 29.5 Q101 48 83 69 Q65 90 56 107 L56 203 Z " />
<glyph glyph-name="six" unicode="6" horiz-adv-x="575" d="M58 583 Q67 604 86.5 627 Q106 650 135 669.5 Q164 689 203.5 701.5 Q243 714 292 714 Q341 714 379.5 701.5 Q418 689 446 671 Q474 653 492 632 Q510 611 519 594 L519 500 L423 500 L423 559 Q411 588 376.5 611 Q342 634 292 634 Q243 634 208.5 611 Q174 588 161 559 L161 381 Q188 407 225.5 423 Q263 439 317 439 Q358 439 391.5 428.5 Q425 418 450.5 401.5 Q476 385 493 364 Q510 343 519 323 L519 107 Q511 90 493 69.5 Q475 49 446.5 30 Q418 11 379.5 -1.5 Q341 -14 292 -14 Q243 -14 203.5 -1 Q164 12 135 31.5 Q106 51 86.5 74 Q67 97 58 118 L58 583 Z M291 359 Q249 359 216.5 344 Q184 329 161 304 L161 142 Q174 113 208.5 90 Q243 67 292 67 Q342 67 376.5 90 Q411 113 423 142 L423 289 Q411 318 376.5 338.5 Q342 359 291 359 Z " />
<glyph glyph-name="seven" unicode="7" horiz-adv-x="490" d="M117 64 L356 602 L356 615 L15 615 L15 700 L461 700 L461 622 L201 0 L117 0 L117 64 Z " />
<glyph glyph-name="eight" unicode="8" horiz-adv-x="580" d="M70 607 Q77 619 94 637.5 Q111 656 138 673 Q165 690 203 702 Q241 714 290 714 Q339 714 377 702 Q415 690 442 672.5 Q469 655 486 636.5 Q503 618 511 606 L511 443 Q501 428 477.5 404 Q454 380 414 361 Q458 341 485 312 Q512 283 524 257 L524 118 Q515 97 496 74 Q477 51 447.5 31.5 Q418 12 378.5 -1 Q339 -14 290 -14 Q241 -14 201.5 -1 Q162 12 133 31.5 Q104 51 84.5 74 Q65 97 56 118 L56 257 Q67 283 94.5 312 Q122 341 165 361 Q126 380 103 403.5 Q80 427 70 443 L70 607 Z M159 142 Q171 113 206 90 Q241 67 290 67 Q340 67 374.5 90 Q409 113 421 142 L421 251 Q409 280 374.5 303.5 Q340 327 290 327 Q241 327 206 303.5 Q171 280 159 251 L159 142 Z M165 457 Q171 447 182 436 Q193 425 209 416 Q225 407 245.5 401 Q266 395 290 395 Q315 395 335 401 Q355 407 371 416 Q387 425 398 436 Q409 447 415 457 L415 571 Q409 581 398 592 Q387 603 371 612.5 Q355 622 335 628 Q315 634 290 634 Q266 634 245.5 628 Q225 622 209 612.5 Q193 603 182 592 Q171 581 165 571 L165 457 Z " />
<glyph glyph-name="nine" unicode="9" horiz-adv-x="573" d="M515 118 Q506 97 486.5 73.5 Q467 50 437.5 30.5 Q408 11 369 -1.5 Q330 -14 281 -14 Q232 -14 193.5 -1.5 Q155 11 127 29 Q99 47 81 68 Q63 89 54 106 L54 195 L150 195 L150 142 Q162 113 197 90 Q232 67 281 67 Q331 67 365.5 90 Q400 113 412 142 L412 311 Q384 285 347 270 Q310 255 260 255 Q218 255 183.5 265.5 Q149 276 123 292.5 Q97 309 80 329.5 Q63 350 54 371 L54 595 Q62 611 80 631.5 Q98 652 126.5 670.5 Q155 689 193.5 701.5 Q232 714 281 714 Q330 714 369.5 701.5 Q409 689 438 669.5 Q467 650 486.5 627 Q506 604 515 583 L515 118 Z M282 334 Q324 334 356.5 349 Q389 364 412 388 L412 559 Q400 588 365.5 611 Q331 634 281 634 Q232 634 197 611 Q162 588 150 559 L150 404 Q162 375 197 354.5 Q232 334 282 334 Z " />
<glyph glyph-name="zero.superior" unicode="&#x2070;" horiz-adv-x="429" d="M54 630 Q60 642 73.5 656 Q87 670 107 681.5 Q127 693 153.5 701 Q180 709 214 709 Q248 709 275 701 Q302 693 322 681.5 Q342 670 355.5 656 Q369 642 375 630 L375 351 Q369 339 355.5 325 Q342 311 322 299 Q302 287 275 279.5 Q248 272 214 272 Q180 272 153.5 279.5 Q127 287 107 299 Q87 311 73.5 325 Q60 339 54 351 L54 630 Z M129 367 Q137 352 159.5 340 Q182 328 214 328 Q246 328 269 340 Q292 352 300 367 L300 613 Q292 628 269 640 Q246 652 214 652 Q182 652 159.5 640 Q137 628 129 613 L129 367 Z " />
<glyph glyph-name="one.superior" unicode="&#xb9;" horiz-adv-x="305" d="M48 331 L122 331 L122 637 L47 630 L47 676 L137 700 L197 700 L197 331 L268 331 L268 280 L48 280 L48 331 Z " />
<glyph glyph-name="two.superior" unicode="&#xb2;" horiz-adv-x="413" d="M47 337 L254 509 Q284 534 288 541 L288 613 Q280 628 257 640 Q234 652 202 652 Q170 652 149.5 641.5 Q129 631 121 620 L121 561 L51 561 L51 644 Q57 651 68.5 662 Q80 673 98.5 683.5 Q117 694 142.5 701.5 Q168 709 202 709 Q236 709 263 701 Q290 693 310 681.5 Q330 670 343.5 656 Q357 642 363 630 L363 523 Q360 518 348.5 507.5 Q337 497 321 485 L148 344 L148 341 L367 341 L367 280 L47 280 L47 337 Z " />
<glyph glyph-name="three.superior" unicode="&#xb3;" horiz-adv-x="420" d="M51 404 L120 404 L120 367 Q128 352 151 340 Q174 328 206 328 Q238 328 260.5 340 Q283 352 292 367 L292 429 Q284 445 261 457.5 Q238 470 206 470 L151 470 L151 525 L202 525 Q234 525 255 537 Q276 549 284 560 L284 620 Q276 630 255 641 Q234 652 202 652 Q170 652 149 641 Q128 630 120 620 L120 581 L51 581 L51 644 Q56 651 67.5 662 Q79 673 97.5 683.5 Q116 694 142 701.5 Q168 709 202 709 Q235 709 261.5 701 Q288 693 307.5 682 Q327 671 339.5 658.5 Q352 646 358 636 L358 549 Q351 538 332.5 524 Q314 510 285 500 Q317 491 337.5 474 Q358 457 366 441 L366 351 Q360 339 347 325 Q334 311 314 299.5 Q294 288 267 280 Q240 272 206 272 Q172 272 145.5 279.5 Q119 287 100 298 Q81 309 68.5 321 Q56 333 51 342 L51 404 Z " />
<glyph glyph-name="four.superior" unicode="&#x2074;" horiz-adv-x="423" d="M33 432 L219 700 L334 700 L334 433 L394 433 L394 376 L334 376 L334 280 L262 280 L262 376 L33 376 L33 432 Z M262 433 L262 639 L251 639 L105 433 L262 433 Z " />
<glyph glyph-name="five.superior" unicode="&#x2075;" horiz-adv-x="413" d="M52 403 L122 403 L122 367 Q130 352 152.5 340 Q175 328 207 328 Q239 328 262 340 Q285 352 293 367 L293 462 Q285 477 262.5 489.5 Q240 502 207 502 Q175 502 156.5 491 Q138 480 130 472 L130 464 L60 464 L60 700 L359 700 L359 639 L130 639 L130 522 Q147 536 171.5 545.5 Q196 555 230 555 Q283 555 317 533 Q351 511 362 487 L362 342 Q356 333 344 320.5 Q332 308 313 297.5 Q294 287 267.5 279.5 Q241 272 207 272 Q173 272 147 279.5 Q121 287 102 297.5 Q83 308 70.5 320.5 Q58 333 52 342 L52 403 Z " />
<glyph glyph-name="six.superior" unicode="&#x2076;" horiz-adv-x="422" d="M54 630 Q60 642 73.5 656 Q87 670 107 681.5 Q127 693 153.5 701 Q180 709 214 709 Q248 709 274.5 701.5 Q301 694 320.5 683 Q340 672 352 659.5 Q364 647 370 638 L370 579 L300 579 L300 613 Q292 628 269 640 Q246 652 214 652 Q182 652 159.5 640 Q137 628 129 613 L129 503 Q148 520 174.5 532 Q201 544 236 544 Q290 544 323.5 522.5 Q357 501 370 477 L370 342 Q364 333 352 321 Q340 309 320.5 298 Q301 287 274.5 279.5 Q248 272 214 272 Q180 272 153.5 279.5 Q127 287 107 299 Q87 311 73.5 325 Q60 339 54 351 L54 630 Z M214 491 Q186 491 165 482.5 Q144 474 129 461 L129 367 Q137 352 159.5 340 Q182 328 214 328 Q246 328 269 340 Q292 352 300 367 L300 452 Q292 467 269 479 Q246 491 214 491 Z " />
<glyph glyph-name="seven.superior" unicode="&#x2077;" horiz-adv-x="365" d="M92 325 L254 634 L254 639 L26 639 L26 700 L332 700 L332 648 L158 280 L92 280 L92 325 Z " />
<glyph glyph-name="eight.superior" unicode="&#x2078;" horiz-adv-x="424" d="M60 644 Q65 651 76.5 662 Q88 673 107 683.5 Q126 694 152 701.5 Q178 709 212 709 Q246 709 271.5 701.5 Q297 694 316 683.5 Q335 673 346.5 662 Q358 651 363 644 L363 543 Q357 535 342 521.5 Q327 508 303 497 Q330 484 347 467.5 Q364 451 372 437 L372 351 Q366 339 353 325 Q340 311 320 299 Q300 287 273 279.5 Q246 272 212 272 Q178 272 151 279.5 Q124 287 104 299 Q84 311 70.5 325 Q57 339 51 351 L51 437 Q59 451 76 467.5 Q93 484 119 497 Q95 508 80.5 521 Q66 534 60 543 L60 644 Z M126 367 Q134 352 157 340 Q180 328 212 328 Q244 328 266.5 340 Q289 352 297 367 L297 432 Q289 447 266.5 459.5 Q244 472 212 472 Q180 472 157 459.5 Q134 447 126 432 L126 367 Z M130 554 Q138 543 159 532 Q180 521 212 521 Q244 521 264.5 532 Q285 543 293 554 L293 620 Q285 630 264.5 641 Q244 652 212 652 Q180 652 159 641 Q138 630 130 620 L130 554 Z " />
<glyph glyph-name="nine.superior" unicode="&#x2079;" horiz-adv-x="421" d="M367 351 Q361 338 347.5 324 Q334 310 314 298.5 Q294 287 267.5 279.5 Q241 272 207 272 Q173 272 146.5 279.5 Q120 287 101 297.5 Q82 308 69.5 320 Q57 332 51 342 L51 399 L121 399 L121 367 Q129 352 152 340 Q175 328 207 328 Q239 328 261.5 340 Q284 352 292 367 L292 472 Q273 454 246.5 442.5 Q220 431 184 431 Q131 431 97 452.5 Q63 474 51 498 L51 638 Q56 647 68.5 659 Q81 671 100.5 682.5 Q120 694 146.5 701.5 Q173 709 207 709 Q241 709 267.5 701 Q294 693 314 681.5 Q334 670 347.5 656 Q361 642 367 630 L367 351 Z M207 484 Q233 484 254.5 492 Q276 500 292 514 L292 613 Q284 628 261.5 640 Q239 652 207 652 Q175 652 152 640 Q129 628 121 613 L121 524 Q129 509 152 496.5 Q175 484 207 484 Z " />
<glyph glyph-name="uni00A0" unicode="&#xa0;" horiz-adv-x="206" d="" />
<glyph glyph-name="fraction" unicode="&#x2044;" horiz-adv-x="171" d="M-182 45 L305 700 L353 700 L353 655 L-134 0 L-182 0 L-182 45 Z " />
<glyph glyph-name="onequarter" unicode="&#xbc;" horiz-adv-x="881" d="M168 45 L655 700 L703 700 L703 655 L216 0 L168 0 L168 45 Z M48 331 L122 331 L122 637 L47 630 L47 676 L137 700 L197 700 L197 331 L268 331 L268 280 L48 280 L48 331 Z M474 153 L660 421 L775 421 L775 154 L835 154 L835 97 L775 97 L775 1 L703 1 L703 97 L474 97 L474 153 Z M703 154 L703 360 L692 360 L546 154 L703 154 Z " />
<glyph glyph-name="onehalf" unicode="&#xbd;" horiz-adv-x="928" d="M48 331 L122 331 L122 637 L47 630 L47 676 L137 700 L197 700 L197 331 L268 331 L268 280 L48 280 L48 331 Z M168 45 L655 700 L703 700 L703 655 L216 0 L168 0 L168 45 Z M562 58 L769 230 Q799 255 803 262 L803 334 Q795 349 772 361 Q749 373 717 373 Q685 373 664.5 362.5 Q644 352 636 341 L636 282 L566 282 L566 365 Q572 372 583.5 383 Q595 394 613.5 404.5 Q632 415 657.5 422.5 Q683 430 717 430 Q751 430 778 422 Q805 414 825 402.5 Q845 391 858.5 377 Q872 363 878 351 L878 244 Q875 239 863.5 228.5 Q852 218 836 206 L663 65 L663 62 L882 62 L882 1 L562 1 L562 58 Z " />
<glyph glyph-name="threequarters" unicode="&#xbe;" horiz-adv-x="923" d="M212 45 L699 700 L747 700 L747 655 L260 0 L212 0 L212 45 Z M516 153 L702 421 L817 421 L817 154 L877 154 L877 97 L817 97 L817 1 L745 1 L745 97 L516 97 L516 153 Z M745 154 L745 360 L734 360 L588 154 L745 154 Z M48 404 L117 404 L117 367 Q125 352 148 340 Q171 328 203 328 Q235 328 257.5 340 Q280 352 289 367 L289 429 Q281 445 258 457.5 Q235 470 203 470 L148 470 L148 525 L199 525 Q231 525 252 537 Q273 549 281 560 L281 620 Q273 630 252 641 Q231 652 199 652 Q167 652 146 641 Q125 630 117 620 L117 581 L48 581 L48 644 Q53 651 64.5 662 Q76 673 94.5 683.5 Q113 694 139 701.5 Q165 709 199 709 Q232 709 258.5 701 Q285 693 304.5 682 Q324 671 336.5 658.5 Q349 646 355 636 L355 549 Q348 538 329.5 524 Q311 510 282 500 Q314 491 334.5 474 Q355 457 363 441 L363 351 Q357 339 344 325 Q331 311 311 299.5 Q291 288 264 280 Q237 272 203 272 Q169 272 142.5 279.5 Q116 287 97 298 Q78 309 65.5 321 Q53 333 48 342 L48 404 Z " />
<glyph glyph-name="fiveeighths" unicode="&#x215d;" horiz-adv-x="995" d="M226 45 L713 700 L761 700 L761 655 L274 0 L226 0 L226 45 Z M44 403 L114 403 L114 367 Q122 352 144.5 340 Q167 328 199 328 Q231 328 254 340 Q277 352 285 367 L285 462 Q277 477 254.5 489.5 Q232 502 199 502 Q167 502 148.5 491 Q130 480 122 472 L122 464 L52 464 L52 700 L351 700 L351 639 L122 639 L122 522 Q139 536 163.5 545.5 Q188 555 222 555 Q275 555 309 533 Q343 511 354 487 L354 342 Q348 333 336 320.5 Q324 308 305 297.5 Q286 287 259.5 279.5 Q233 272 199 272 Q165 272 139 279.5 Q113 287 94 297.5 Q75 308 62.5 320.5 Q50 333 44 342 L44 403 Z M638 365 Q643 372 654.5 383 Q666 394 685 404.5 Q704 415 730 422.5 Q756 430 790 430 Q824 430 849.5 422.5 Q875 415 894 404.5 Q913 394 924.5 383 Q936 372 941 365 L941 264 Q935 256 920 242.5 Q905 229 881 218 Q908 205 925 188.5 Q942 172 950 158 L950 72 Q944 60 931 46 Q918 32 898 20 Q878 8 851 0.5 Q824 -7 790 -7 Q756 -7 729 0.5 Q702 8 682 20 Q662 32 648.5 46 Q635 60 629 72 L629 158 Q637 172 654 188.5 Q671 205 697 218 Q673 229 658.5 242 Q644 255 638 264 L638 365 Z M704 88 Q712 73 735 61 Q758 49 790 49 Q822 49 844.5 61 Q867 73 875 88 L875 153 Q867 168 844.5 180.5 Q822 193 790 193 Q758 193 735 180.5 Q712 168 704 153 L704 88 Z M708 275 Q716 264 737 253 Q758 242 790 242 Q822 242 842.5 253 Q863 264 871 275 L871 341 Q863 351 842.5 362 Q822 373 790 373 Q758 373 737 362 Q716 351 708 341 L708 275 Z " />
<glyph glyph-name="oneeighth" unicode="&#x215b;" horiz-adv-x="957" d="M188 45 L675 700 L723 700 L723 655 L236 0 L188 0 L188 45 Z M51 331 L125 331 L125 637 L50 630 L50 676 L140 700 L200 700 L200 331 L271 331 L271 280 L51 280 L51 331 Z M600 365 Q605 372 616.5 383 Q628 394 647 404.5 Q666 415 692 422.5 Q718 430 752 430 Q786 430 811.5 422.5 Q837 415 856 404.5 Q875 394 886.5 383 Q898 372 903 365 L903 264 Q897 256 882 242.5 Q867 229 843 218 Q870 205 887 188.5 Q904 172 912 158 L912 72 Q906 60 893 46 Q880 32 860 20 Q840 8 813 0.5 Q786 -7 752 -7 Q718 -7 691 0.5 Q664 8 644 20 Q624 32 610.5 46 Q597 60 591 72 L591 158 Q599 172 616 188.5 Q633 205 659 218 Q635 229 620.5 242 Q606 255 600 264 L600 365 Z M666 88 Q674 73 697 61 Q720 49 752 49 Q784 49 806.5 61 Q829 73 837 88 L837 153 Q829 168 806.5 180.5 Q784 193 752 193 Q720 193 697 180.5 Q674 168 666 153 L666 88 Z M670 275 Q678 264 699 253 Q720 242 752 242 Q784 242 804.5 253 Q825 264 833 275 L833 341 Q825 351 804.5 362 Q784 373 752 373 Q720 373 699 362 Q678 351 670 341 L670 275 Z " />
<glyph glyph-name="seveneighths" unicode="&#x215e;" horiz-adv-x="933" d="M164 45 L651 700 L699 700 L699 655 L212 0 L164 0 L164 45 Z M111 325 L273 634 L273 639 L45 639 L45 700 L351 700 L351 648 L177 280 L111 280 L111 325 Z M576 365 Q581 372 592.5 383 Q604 394 623 404.5 Q642 415 668 422.5 Q694 430 728 430 Q762 430 787.5 422.5 Q813 415 832 404.5 Q851 394 862.5 383 Q874 372 879 365 L879 264 Q873 256 858 242.5 Q843 229 819 218 Q846 205 863 188.5 Q880 172 888 158 L888 72 Q882 60 869 46 Q856 32 836 20 Q816 8 789 0.5 Q762 -7 728 -7 Q694 -7 667 0.5 Q640 8 620 20 Q600 32 586.5 46 Q573 60 567 72 L567 158 Q575 172 592 188.5 Q609 205 635 218 Q611 229 596.5 242 Q582 255 576 264 L576 365 Z M642 88 Q650 73 673 61 Q696 49 728 49 Q760 49 782.5 61 Q805 73 813 88 L813 153 Q805 168 782.5 180.5 Q760 193 728 193 Q696 193 673 180.5 Q650 168 642 153 L642 88 Z M646 275 Q654 264 675 253 Q696 242 728 242 Q760 242 780.5 253 Q801 264 809 275 L809 341 Q801 351 780.5 362 Q760 373 728 373 Q696 373 675 362 Q654 351 646 341 L646 275 Z " />
<glyph glyph-name="threeeighths" unicode="&#x215c;" horiz-adv-x="989" d="M632 365 Q637 372 648.5 383 Q660 394 679 404.5 Q698 415 724 422.5 Q750 430 784 430 Q818 430 843.5 422.5 Q869 415 888 404.5 Q907 394 918.5 383 Q930 372 935 365 L935 264 Q929 256 914 242.5 Q899 229 875 218 Q902 205 919 188.5 Q936 172 944 158 L944 72 Q938 60 925 46 Q912 32 892 20 Q872 8 845 0.5 Q818 -7 784 -7 Q750 -7 723 0.5 Q696 8 676 20 Q656 32 642.5 46 Q629 60 623 72 L623 158 Q631 172 648 188.5 Q665 205 691 218 Q667 229 652.5 242 Q638 255 632 264 L632 365 Z M698 88 Q706 73 729 61 Q752 49 784 49 Q816 49 838.5 61 Q861 73 869 88 L869 153 Q861 168 838.5 180.5 Q816 193 784 193 Q752 193 729 180.5 Q706 168 698 153 L698 88 Z M702 275 Q710 264 731 253 Q752 242 784 242 Q816 242 836.5 253 Q857 264 865 275 L865 341 Q857 351 836.5 362 Q816 373 784 373 Q752 373 731 362 Q710 351 702 341 L702 275 Z M46 404 L115 404 L115 367 Q123 352 146 340 Q169 328 201 328 Q233 328 255.5 340 Q278 352 287 367 L287 429 Q279 445 256 457.5 Q233 470 201 470 L146 470 L146 525 L197 525 Q229 525 250 537 Q271 549 279 560 L279 620 Q271 630 250 641 Q229 652 197 652 Q165 652 144 641 Q123 630 115 620 L115 581 L46 581 L46 644 Q51 651 62.5 662 Q74 673 92.5 683.5 Q111 694 137 701.5 Q163 709 197 709 Q230 709 256.5 701 Q283 693 302.5 682 Q322 671 334.5 658.5 Q347 646 353 636 L353 549 Q346 538 327.5 524 Q309 510 280 500 Q312 491 332.5 474 Q353 457 361 441 L361 351 Q355 339 342 325 Q329 311 309 299.5 Q289 288 262 280 Q235 272 201 272 Q167 272 140.5 279.5 Q114 287 95 298 Q76 309 63.5 321 Q51 333 46 342 L46 404 Z M220 45 L707 700 L755 700 L755 655 L268 0 L220 0 L220 45 Z " />
<glyph glyph-name="twothirds" unicode="&#x2154;" horiz-adv-x="1022" d="M662 125 L731 125 L731 88 Q739 73 762 61 Q785 49 817 49 Q849 49 871.5 61 Q894 73 903 88 L903 150 Q895 166 872 178.5 Q849 191 817 191 L762 191 L762 246 L813 246 Q845 246 866 258 Q887 270 895 281 L895 341 Q887 351 866 362 Q845 373 813 373 Q781 373 760 362 Q739 351 731 341 L731 302 L662 302 L662 365 Q667 372 678.5 383 Q690 394 708.5 404.5 Q727 415 753 422.5 Q779 430 813 430 Q846 430 872.5 422 Q899 414 918.5 403 Q938 392 950.5 379.5 Q963 367 969 357 L969 270 Q962 259 943.5 245 Q925 231 896 221 Q928 212 948.5 195 Q969 178 977 162 L977 72 Q971 60 958 46 Q945 32 925 20.5 Q905 9 878 1 Q851 -7 817 -7 Q783 -7 756.5 0.5 Q730 8 711 19 Q692 30 679.5 42 Q667 54 662 63 L662 125 Z M46 337 L253 509 Q283 534 287 541 L287 613 Q279 628 256 640 Q233 652 201 652 Q169 652 148.5 641.5 Q128 631 120 620 L120 561 L50 561 L50 644 Q56 651 67.5 662 Q79 673 97.5 683.5 Q116 694 141.5 701.5 Q167 709 201 709 Q235 709 262 701 Q289 693 309 681.5 Q329 670 342.5 656 Q356 642 362 630 L362 523 Q359 518 347.5 507.5 Q336 497 320 485 L147 344 L147 341 L366 341 L366 280 L46 280 L46 337 Z M259 45 L746 700 L794 700 L794 655 L307 0 L259 0 L259 45 Z " />
<glyph glyph-name="uniE000" unicode="&#xe000;" horiz-adv-x="999" d="M232 45 L719 700 L767 700 L767 655 L280 0 L232 0 L232 45 Z M52 630 Q58 642 71.5 656 Q85 670 105 681.5 Q125 693 151.5 701 Q178 709 212 709 Q246 709 272.5 701.5 Q299 694 318.5 683 Q338 672 350 659.5 Q362 647 368 638 L368 579 L298 579 L298 613 Q290 628 267 640 Q244 652 212 652 Q180 652 157.5 640 Q135 628 127 613 L127 503 Q146 520 172.5 532 Q199 544 234 544 Q288 544 321.5 522.5 Q355 501 368 477 L368 342 Q362 333 350 321 Q338 309 318.5 298 Q299 287 272.5 279.5 Q246 272 212 272 Q178 272 151.5 279.5 Q125 287 105 299 Q85 311 71.5 325 Q58 339 52 351 L52 630 Z M212 491 Q184 491 163 482.5 Q142 474 127 461 L127 367 Q135 352 157.5 340 Q180 328 212 328 Q244 328 267 340 Q290 352 298 367 L298 452 Q290 467 267 479 Q244 491 212 491 Z M642 365 Q647 372 658.5 383 Q670 394 689 404.5 Q708 415 734 422.5 Q760 430 794 430 Q828 430 853.5 422.5 Q879 415 898 404.5 Q917 394 928.5 383 Q940 372 945 365 L945 264 Q939 256 924 242.5 Q909 229 885 218 Q912 205 929 188.5 Q946 172 954 158 L954 72 Q948 60 935 46 Q922 32 902 20 Q882 8 855 0.5 Q828 -7 794 -7 Q760 -7 733 0.5 Q706 8 686 20 Q666 32 652.5 46 Q639 60 633 72 L633 158 Q641 172 658 188.5 Q675 205 701 218 Q677 229 662.5 242 Q648 255 642 264 L642 365 Z M708 88 Q716 73 739 61 Q762 49 794 49 Q826 49 848.5 61 Q871 73 879 88 L879 153 Q871 168 848.5 180.5 Q826 193 794 193 Q762 193 739 180.5 Q716 168 708 153 L708 88 Z M712 275 Q720 264 741 253 Q762 242 794 242 Q826 242 846.5 253 Q867 264 875 275 L875 341 Q867 351 846.5 362 Q826 373 794 373 Q762 373 741 362 Q720 351 712 341 L712 275 Z " />
<glyph glyph-name="uniE001" unicode="&#xe001;" horiz-adv-x="1244" d="M599 52 L673 52 L673 358 L598 351 L598 397 L688 421 L748 421 L748 52 L819 52 L819 1 L599 1 L599 52 Z M885 351 Q891 363 904.5 377 Q918 391 938 402.5 Q958 414 984.5 422 Q1011 430 1045 430 Q1079 430 1105.5 422.5 Q1132 415 1151.5 404 Q1171 393 1183 380.5 Q1195 368 1201 359 L1201 300 L1131 300 L1131 334 Q1123 349 1100 361 Q1077 373 1045 373 Q1013 373 990.5 361 Q968 349 960 334 L960 224 Q979 241 1005.5 253 Q1032 265 1067 265 Q1121 265 1154.5 243.5 Q1188 222 1201 198 L1201 63 Q1195 54 1183 42 Q1171 30 1151.5 19 Q1132 8 1105.5 0.5 Q1079 -7 1045 -7 Q1011 -7 984.5 0.5 Q958 8 938 20 Q918 32 904.5 46 Q891 60 885 72 L885 351 Z M1045 212 Q1017 212 996 203.5 Q975 195 960 182 L960 88 Q968 73 990.5 61 Q1013 49 1045 49 Q1077 49 1100 61 Q1123 73 1131 88 L1131 173 Q1123 188 1100 200 Q1077 212 1045 212 Z M163 45 L650 700 L698 700 L698 655 L211 0 L163 0 L163 45 Z M42 331 L116 331 L116 637 L41 630 L41 676 L131 700 L191 700 L191 331 L262 331 L262 280 L42 280 L42 331 Z " />
<glyph glyph-name="percent" unicode="&#x25;" horiz-adv-x="890" d="M121 446 Q129 429 151.5 416.5 Q174 404 206 404 Q238 404 260.5 416.5 Q283 429 291 446 L291 610 Q283 627 260.5 640 Q238 653 206 653 Q174 653 151.5 640 Q129 627 121 610 L121 446 Z M46 622 Q52 637 65.5 652.5 Q79 668 99 680.5 Q119 693 145.5 701 Q172 709 206 709 Q240 709 267 701 Q294 693 314 680.5 Q334 668 347 652.5 Q360 637 366 622 L366 434 Q360 419 347 403.5 Q334 388 314 376 Q294 364 267 356 Q240 348 206 348 Q172 348 145.5 356 Q119 364 99 376 Q79 388 65.5 403.5 Q52 419 46 434 L46 622 Z M598 90 Q606 73 628.5 60.5 Q651 48 683 48 Q715 48 737.5 60.5 Q760 73 768 90 L768 254 Q760 271 737.5 284 Q715 297 683 297 Q651 297 628.5 284 Q606 271 598 254 L598 90 Z M523 266 Q529 281 542.5 296.5 Q556 312 576 324.5 Q596 337 622.5 345 Q649 353 683 353 Q717 353 744 345 Q771 337 791 324.5 Q811 312 824.5 296.5 Q838 281 844 266 L844 78 Q838 63 824.5 47.5 Q811 32 791 20 Q771 8 744 0 Q717 -8 683 -8 Q649 -8 622.5 0 Q596 8 576 20 Q556 32 542.5 47.5 Q529 63 523 78 L523 266 Z M178 48 L662 700 L713 700 L713 652 L229 0 L178 0 L178 48 Z " />
<glyph glyph-name="perthousand" unicode="&#x2030;" horiz-adv-x="1271" d="M121 446 Q129 429 151.5 416.5 Q174 404 206 404 Q238 404 260.5 416.5 Q283 429 291 446 L291 610 Q283 627 260.5 640 Q238 653 206 653 Q174 653 151.5 640 Q129 627 121 610 L121 446 Z M46 622 Q52 637 65.5 652.5 Q79 668 99 680.5 Q119 693 145.5 701 Q172 709 206 709 Q240 709 267 701 Q294 693 314 680.5 Q334 668 347 652.5 Q360 637 366 622 L366 434 Q360 419 347 403.5 Q334 388 314 376 Q294 364 267 356 Q240 348 206 348 Q172 348 145.5 356 Q119 364 99 376 Q79 388 65.5 403.5 Q52 419 46 434 L46 622 Z M598 90 Q606 73 628.5 60.5 Q651 48 683 48 Q715 48 737.5 60.5 Q760 73 768 90 L768 254 Q760 271 737.5 284 Q715 297 683 297 Q651 297 628.5 284 Q606 271 598 254 L598 90 Z M523 266 Q529 281 542.5 296.5 Q556 312 576 324.5 Q596 337 622.5 345 Q649 353 683 353 Q717 353 744 345 Q771 337 791 324.5 Q811 312 824.5 296.5 Q838 281 844 266 L844 78 Q838 63 824.5 47.5 Q811 32 791 20 Q771 8 744 0 Q717 -8 683 -8 Q649 -8 622.5 0 Q596 8 576 20 Q556 32 542.5 47.5 Q529 63 523 78 L523 266 Z M980 90 Q988 73 1010.5 60.5 Q1033 48 1065 48 Q1097 48 1119.5 60.5 Q1142 73 1150 90 L1150 254 Q1142 271 1119.5 284 Q1097 297 1065 297 Q1033 297 1010.5 284 Q988 271 980 254 L980 90 Z M905 266 Q911 281 924.5 296.5 Q938 312 958 324.5 Q978 337 1004.5 345 Q1031 353 1065 353 Q1099 353 1125.5 345 Q1152 337 1172 324.5 Q1192 312 1205.5 296.5 Q1219 281 1225 266 L1225 78 Q1219 63 1205.5 47.5 Q1192 32 1172 20 Q1152 8 1125.5 0 Q1099 -8 1065 -8 Q1031 -8 1004.5 0 Q978 8 958 20 Q938 32 924.5 47.5 Q911 63 905 78 L905 266 Z M178 48 L662 700 L713 700 L713 652 L229 0 L178 0 L178 48 Z " />
<glyph glyph-name="plus" unicode="&#x2b;" horiz-adv-x="584" d="M41 378 L250 378 L250 588 L332 588 L332 378 L543 378 L543 296 L332 296 L332 85 L250 85 L250 296 L41 296 L41 378 Z " />
<glyph glyph-name="minus" unicode="&#x2212;" horiz-adv-x="584" d="M41 378 L543 378 L543 296 L41 296 L41 378 Z " />
<glyph glyph-name="plusminus" unicode="&#xb1;" horiz-adv-x="584" d="M41 439 L250 439 L250 626 L332 626 L332 439 L543 439 L543 357 L332 357 L332 169 L250 169 L250 357 L41 357 L41 439 Z M41 106 L543 106 L543 25 L41 25 L41 106 Z " />
<glyph glyph-name="multiply" unicode="&#xd7;" horiz-adv-x="584" d="M55 158 L233 337 L55 516 L55 570 L116 570 L291 394 L467 570 L528 570 L528 516 L349 337 L528 158 L528 104 L467 104 L291 278 L116 104 L55 104 L55 158 Z " />
</font>
</svg>
