<?xml version="1.0" encoding="UTF-8"?>
<svg xmlns="http://www.w3.org/2000/svg" xmlns:xlink="http://www.w3.org/1999/xlink" version="1.2" >
<font id="Cadillac Trim V1 SemiBold">
<font-face  font-family="Cadillac Trim V1" units-per-em="1000" ascent="750" descent="-250" font-style="normal" font-weight="600" font-stretch="normal" cap-height="700" x-height="543" underline-position="-42" underline-thickness="96" />
<missing-glyph  horiz-adv-x="603" d="M56 800 L546 800 L546 -100 L56 -100 L56 800 Z M433 -2 L433 702 L169 702 L169 -2 L433 -2 Z " />
<glyph glyph-name=".null" d="" />
<glyph glyph-name="nonmarkingreturn" unicode="&#xd;" horiz-adv-x="196" d="" />
<glyph glyph-name="space" unicode="&#x20;" horiz-adv-x="203" d="" />
<glyph glyph-name="A" unicode="A" horiz-adv-x="629" d="M25 90 L196 700 L433 700 L604 90 L604 0 L456 0 L410 187 L204 187 L157 0 L25 0 L25 90 Z M235 308 L380 308 L318 560 L299 560 L235 308 Z " />
<glyph glyph-name="B" unicode="B" horiz-adv-x="604" d="M57 700 L355 700 Q393 700 424.5 689.5 Q456 679 481 662 Q506 645 524.5 623.5 Q543 602 555 581 L555 432 Q545 415 523 394 Q501 373 479 361 Q500 350 523.5 331 Q547 312 561 289 L561 119 Q549 98 530 76.5 Q511 55 485 38 Q459 21 426.5 10.5 Q394 0 355 0 L57 0 L57 700 Z M323 415 Q350 415 371 428 Q392 441 405 461 L405 534 Q394 556 372 569 Q350 582 319 582 L220 582 L220 415 L323 415 Z M319 118 Q357 118 378.5 131.5 Q400 145 411 166 L411 257 Q400 277 376 289.5 Q352 302 323 302 L220 302 L220 118 L319 118 Z " />
<glyph glyph-name="C" unicode="C" horiz-adv-x="615" d="M573 284 L573 126 Q562 106 542.5 81.5 Q523 57 491.5 35.5 Q460 14 416 -0.5 Q372 -15 313 -15 Q254 -15 209 0 Q164 15 131.5 37.5 Q99 60 78.5 87 Q58 114 47 138 L47 562 Q58 586 78.5 613 Q99 640 131.5 662.5 Q164 685 209 700 Q254 715 313 715 Q372 715 416 700.5 Q460 686 491.5 665 Q523 644 542.5 619.5 Q562 595 573 574 L573 427 L416 427 L416 531 Q406 555 380 573 Q354 591 313 591 Q272 591 246.5 573 Q221 555 210 531 L210 169 Q220 146 246 128 Q272 110 313 110 Q354 110 379.5 128 Q405 146 416 169 L416 284 L573 284 Z " />
<glyph glyph-name="D" unicode="D" horiz-adv-x="629" d="M419 524 Q409 547 383 563 Q357 579 316 579 L220 579 L220 121 L316 121 Q357 121 383 137 Q409 153 419 176 L419 524 Z M582 138 Q571 113 551.5 88.5 Q532 64 503 44.5 Q474 25 436 12.5 Q398 0 349 0 L57 0 L57 700 L349 700 Q398 700 436 687.5 Q474 675 503 655.5 Q532 636 551.5 611.5 Q571 587 582 562 L582 138 Z " />
<glyph glyph-name="E" unicode="E" horiz-adv-x="534" d="M57 700 L489 700 L489 579 L220 579 L220 418 L471 418 L471 297 L220 297 L220 121 L496 121 L496 0 L57 0 L57 700 Z " />
<glyph glyph-name="F" unicode="F" horiz-adv-x="517" d="M57 700 L479 700 L479 579 L220 579 L220 413 L467 413 L467 292 L220 292 L220 0 L57 0 L57 700 Z " />
<glyph glyph-name="G" unicode="G" horiz-adv-x="617" d="M321 390 L573 390 L573 126 Q562 106 542.5 81.5 Q523 57 491.5 35.5 Q460 14 416 -0.5 Q372 -15 313 -15 Q254 -15 209 0 Q164 15 131.5 37.5 Q99 60 78.5 87 Q58 114 47 138 L47 562 Q58 586 78.5 613 Q99 640 131.5 662.5 Q164 685 209 700 Q254 715 313 715 Q372 715 416 700.5 Q460 686 491.5 665 Q523 644 542.5 619.5 Q562 595 573 574 L573 459 L416 459 L416 531 Q406 555 380 573 Q354 591 313 591 Q272 591 246.5 573 Q221 555 210 531 L210 169 Q220 146 247 128 Q274 110 316 110 Q359 110 384.5 127 Q410 144 421 165 L421 273 L321 273 L321 390 Z " />
<glyph glyph-name="H" unicode="H" horiz-adv-x="656" d="M57 700 L220 700 L220 421 L436 421 L436 700 L599 700 L599 0 L436 0 L436 300 L220 300 L220 0 L57 0 L57 700 Z " />
<glyph glyph-name="I" unicode="I" horiz-adv-x="277" d="M57 700 L220 700 L220 0 L57 0 L57 700 Z " />
<glyph glyph-name="J" unicode="J" horiz-adv-x="388" d="M20 121 L67 121 Q106 121 133 135.5 Q160 150 171 176 L171 700 L334 700 L334 138 Q320 108 298.5 82.5 Q277 57 246.5 38.5 Q216 20 174.5 9 Q133 -2 79 -2 Q59 -2 43.5 -1.5 Q28 -1 20 0 L20 121 Z " />
<glyph glyph-name="K" unicode="K" horiz-adv-x="596" d="M57 700 L220 700 L220 450 L238 450 L452 700 L564 700 L564 610 L369 394 L570 90 L570 0 L444 0 L263 278 L220 229 L220 0 L57 0 L57 700 Z " />
<glyph glyph-name="L" unicode="L" horiz-adv-x="459" d="M57 700 L220 700 L220 121 L437 121 L437 0 L57 0 L57 700 Z " />
<glyph glyph-name="M" unicode="M" horiz-adv-x="807" d="M57 700 L272 700 L398 382 L417 382 L538 700 L750 700 L750 0 L598 0 L598 463 L579 463 L450 140 L356 140 L227 463 L209 463 L209 0 L57 0 L57 700 Z " />
<glyph glyph-name="N" unicode="N" horiz-adv-x="668" d="M57 700 L241 700 L441 275 L460 275 L460 700 L612 700 L612 0 L428 0 L227 424 L209 424 L209 0 L57 0 L57 700 Z " />
<glyph glyph-name="O" unicode="O" horiz-adv-x="626" d="M210 169 Q221 146 246.5 128 Q272 110 313 110 Q354 110 379.5 128 Q405 146 416 169 L416 531 Q405 555 379.5 573 Q354 591 313 591 Q272 591 246.5 573 Q221 555 210 531 L210 169 Z M47 562 Q58 586 78.5 613 Q99 640 131.5 662.5 Q164 685 209 700 Q254 715 313 715 Q372 715 417 700 Q462 685 494.5 662.5 Q527 640 547.5 613 Q568 586 579 562 L579 138 Q568 114 547.5 87 Q527 60 494.5 37.5 Q462 15 417 0 Q372 -15 313 -15 Q254 -15 209 0 Q164 15 131.5 37.5 Q99 60 78.5 87 Q58 114 47 138 L47 562 Z " />
<glyph glyph-name="P" unicode="P" horiz-adv-x="598" d="M57 700 L349 700 Q415 700 470.5 669.5 Q526 639 559 581 L559 361 Q546 337 526 315 Q506 293 479.5 276.5 Q453 260 420 250.5 Q387 241 349 241 L220 241 L220 0 L57 0 L57 700 Z M312 362 Q342 362 365.5 374.5 Q389 387 402 410 L402 531 Q388 557 363 568 Q338 579 311 579 L220 579 L220 362 L312 362 Z " />
<glyph glyph-name="Q" unicode="Q" horiz-adv-x="626" d="M47 562 Q58 586 78.5 613 Q99 640 131.5 662.5 Q164 685 209 700 Q254 715 313 715 Q372 715 417 700 Q462 685 494.5 662.5 Q527 640 547.5 613 Q568 586 579 562 L579 138 Q564 106 532 69.5 Q500 33 446 10 Q459 -12 481 -24 Q503 -36 520 -36 L584 -36 L584 -149 L502 -149 Q478 -149 449.5 -138.5 Q421 -128 394 -110 Q367 -92 345 -67.5 Q323 -43 311 -15 Q252 -15 207.5 0 Q163 15 131 37.5 Q99 60 78.5 87 Q58 114 47 138 L47 562 Z M210 169 Q221 146 246.5 128 Q272 110 313 110 Q354 110 379.5 128 Q405 146 416 169 L416 531 Q405 555 379.5 573 Q354 591 313 591 Q272 591 246.5 573 Q221 555 210 531 L210 169 Z " />
<glyph glyph-name="R" unicode="R" horiz-adv-x="611" d="M288 257 L220 257 L220 0 L57 0 L57 700 L353 700 Q420 700 475.5 669 Q531 638 563 581 L563 376 Q543 342 515 316 Q487 290 449 275 L570 90 L570 0 L443 0 L288 257 Z M317 370 Q349 370 372.5 382.5 Q396 395 408 418 L408 531 Q396 554 372 566.5 Q348 579 317 579 L220 579 L220 370 L317 370 Z " />
<glyph glyph-name="S" unicode="S" horiz-adv-x="595" d="M41 225 L198 225 L198 162 Q208 143 232.5 126.5 Q257 110 298 110 Q338 110 362 126.5 Q386 143 397 162 L397 233 Q389 249 371.5 261.5 Q354 274 315 283 L260 296 Q204 309 166.5 324 Q129 339 104 355 Q79 371 64.5 387.5 Q50 404 41 421 L41 581 Q51 599 70 622 Q89 645 119.5 665.5 Q150 686 194 700.5 Q238 715 298 715 Q357 715 400.5 700.5 Q444 686 475 665 Q506 644 525 621 Q544 598 554 581 L554 482 L397 482 L397 538 Q388 558 363 574.5 Q338 591 298 591 Q257 591 232.5 573.5 Q208 556 198 538 L198 478 Q206 462 225.5 449.5 Q245 437 286 428 L334 417 Q390 404 428 389 Q466 374 490.5 357.5 Q515 341 530 323.5 Q545 306 554 289 L554 119 Q544 101 524.5 78 Q505 55 474.5 34 Q444 13 400.5 -1 Q357 -15 298 -15 Q238 -15 194 -0.5 Q150 14 119.5 34.5 Q89 55 70 78 Q51 101 41 119 L41 225 Z " />
<glyph glyph-name="T" unicode="T" horiz-adv-x="537" d="M187 579 L24 579 L24 700 L512 700 L512 579 L350 579 L350 0 L187 0 L187 579 Z " />
<glyph glyph-name="U" unicode="U" horiz-adv-x="639" d="M585 700 L585 138 Q574 114 553.5 87 Q533 60 501 37.5 Q469 15 424 0 Q379 -15 320 -15 Q261 -15 216 0 Q171 15 138.5 37.5 Q106 60 85.5 87 Q65 114 54 138 L54 700 L217 700 L217 169 Q227 146 252.5 128 Q278 110 320 110 Q361 110 386 128 Q411 146 422 169 L422 700 L585 700 Z " />
<glyph glyph-name="V" unicode="V" horiz-adv-x="617" d="M25 610 L25 700 L179 700 L306 178 L324 178 L451 700 L592 700 L592 610 L422 0 L196 0 L25 610 Z " />
<glyph glyph-name="W" unicode="W" horiz-adv-x="927" d="M30 610 L30 700 L185 700 L265 214 L283 214 L390 700 L536 700 L643 214 L662 214 L740 700 L897 700 L897 610 L777 0 L560 0 L466 389 L448 389 L354 0 L150 0 L30 610 Z " />
<glyph glyph-name="X" unicode="X" horiz-adv-x="595" d="M35 90 L193 350 L35 610 L35 700 L181 700 L294 467 L313 467 L429 700 L560 700 L560 610 L402 350 L560 90 L560 0 L414 0 L302 233 L284 233 L167 0 L35 0 L35 90 Z " />
<glyph glyph-name="Y" unicode="Y" horiz-adv-x="579" d="M203 291 L27 610 L27 700 L174 700 L286 460 L305 460 L418 700 L552 700 L552 610 L366 275 L366 0 L203 0 L203 291 Z " />
<glyph glyph-name="Z" unicode="Z" horiz-adv-x="557" d="M35 102 L316 563 L316 579 L40 579 L40 700 L522 700 L522 598 L240 138 L240 121 L522 121 L522 0 L35 0 L35 102 Z " />
<glyph glyph-name="Agrave" unicode="&#xc0;" horiz-adv-x="629" d="M25 90 L196 700 L433 700 L604 90 L604 0 L456 0 L410 187 L204 187 L157 0 L25 0 L25 90 Z M235 308 L380 308 L318 560 L299 560 L235 308 Z M186 840 L186 904 L334 904 L386 759 L386 744 L267 744 L186 840 Z " />
<glyph glyph-name="Aacute" unicode="&#xc1;" horiz-adv-x="629" d="M25 90 L196 700 L433 700 L604 90 L604 0 L456 0 L410 187 L204 187 L157 0 L25 0 L25 90 Z M235 308 L380 308 L318 560 L299 560 L235 308 Z M239 759 L291 904 L439 904 L439 840 L359 744 L239 744 L239 759 Z " />
<glyph glyph-name="Acircumflex" unicode="&#xc2;" horiz-adv-x="629" d="M25 90 L196 700 L433 700 L604 90 L604 0 L456 0 L410 187 L204 187 L157 0 L25 0 L25 90 Z M235 308 L380 308 L318 560 L299 560 L235 308 Z M136 759 L215 904 L409 904 L488 759 L488 744 L380 744 L312 833 L244 744 L136 744 L136 759 Z " />
<glyph glyph-name="Atilde" unicode="&#xc3;" horiz-adv-x="629" d="M25 90 L196 700 L433 700 L604 90 L604 0 L456 0 L410 187 L204 187 L157 0 L25 0 L25 90 Z M235 308 L380 308 L318 560 L299 560 L235 308 Z M510 823 Q502 792 473 768 Q444 744 395 744 Q364 744 343.5 751.5 Q323 759 307.5 768.5 Q292 778 278 785.5 Q264 793 247 793 Q229 793 219.5 785.5 Q210 778 207 769 L207 749 L118 749 L118 809 Q126 841 155.5 864.5 Q185 888 233 888 Q263 888 283.5 880 Q304 872 320 863 Q336 854 350 846 Q364 838 381 838 Q397 838 407 844.5 Q417 851 421 862 L421 882 L510 882 L510 823 Z " />
<glyph glyph-name="Adieresis" unicode="&#xc4;" horiz-adv-x="629" d="M25 90 L196 700 L433 700 L604 90 L604 0 L456 0 L410 187 L204 187 L157 0 L25 0 L25 90 Z M235 308 L380 308 L318 560 L299 560 L235 308 Z M131 850 Q138 857 154.5 868 Q171 879 205 879 Q239 879 255.5 868 Q272 857 278 850 L278 774 Q272 766 255.5 755 Q239 744 205 744 Q171 744 154.5 755.5 Q138 767 131 774 L131 850 Z M348 850 Q355 857 371.5 868 Q388 879 422 879 Q456 879 472.5 868 Q489 857 495 850 L495 774 Q489 766 472.5 755 Q456 744 422 744 Q388 744 371.5 755.5 Q355 767 348 774 L348 850 Z " />
<glyph glyph-name="Amacron" unicode="&#x100;" horiz-adv-x="629" d="M25 90 L196 700 L433 700 L604 90 L604 0 L456 0 L410 187 L204 187 L157 0 L25 0 L25 90 Z M235 308 L380 308 L318 560 L299 560 L235 308 Z M130 858 L497 858 L497 753 L130 753 L130 858 Z " />
<glyph glyph-name="Abreve" unicode="&#x102;" horiz-adv-x="629" d="M25 90 L196 700 L433 700 L604 90 L604 0 L456 0 L410 187 L204 187 L157 0 L25 0 L25 90 Z M235 308 L380 308 L318 560 L299 560 L235 308 Z M139 875 L249 875 L249 847 Q253 838 268 826 Q283 814 313 814 Q343 814 358 826 Q373 838 377 847 L377 875 L487 875 L487 827 Q478 807 463.5 790 Q449 773 428 759.5 Q407 746 378.5 738.5 Q350 731 313 731 Q276 731 247.5 738.5 Q219 746 198 759.5 Q177 773 162.5 790 Q148 807 139 827 L139 875 Z " />
<glyph glyph-name="Aring" unicode="&#xc5;" horiz-adv-x="629" d="M190 826 Q205 855 238 873.5 Q271 892 315 892 Q358 892 390.5 873.5 Q423 855 438 826 L438 738 Q426 716 407 700 L433 700 L604 90 L604 0 L456 0 L410 187 L204 187 L157 0 L25 0 L25 90 L196 700 L220 700 Q201 716 190 738 L190 826 Z M235 308 L380 308 L318 560 L299 560 L235 308 Z M262 751 Q267 743 280 735.5 Q293 728 315 728 Q337 728 349 735.5 Q361 743 366 751 L366 810 Q361 818 349 825.5 Q337 833 315 833 Q293 833 280 825.5 Q267 818 262 810 L262 751 Z " />
<glyph glyph-name="Aogonek" unicode="&#x104;" horiz-adv-x="629" d="M399 -110 Q403 -100 414.5 -83 Q426 -66 443.5 -47 Q461 -28 482 -9 Q488 -4 494 0 L456 0 L410 187 L204 187 L157 0 L25 0 L25 90 L196 700 L433 700 L604 90 L604 0 Q554 -45 533 -73.5 Q512 -102 507 -113 L507 -139 Q517 -157 551 -157 Q577 -157 604 -147 L604 -224 Q591 -231 574 -235 Q557 -239 525 -239 Q483 -239 448 -227 Q413 -215 399 -186 L399 -110 Z M235 308 L380 308 L318 560 L299 560 L235 308 Z " />
<glyph glyph-name="AE" unicode="&#xc6;" horiz-adv-x="847" d="M370 174 L205 174 L149 0 L18 0 L18 90 L230 700 L802 700 L802 579 L533 579 L533 418 L785 418 L785 297 L533 297 L533 121 L809 121 L809 0 L370 0 L370 174 Z M244 295 L370 295 L370 579 L335 579 L244 295 Z " />
<glyph glyph-name="AEacute" unicode="&#x1fc;" horiz-adv-x="847" d="M370 174 L205 174 L149 0 L18 0 L18 90 L230 700 L802 700 L802 579 L533 579 L533 418 L785 418 L785 297 L533 297 L533 121 L809 121 L809 0 L370 0 L370 174 Z M244 295 L370 295 L370 579 L335 579 L244 295 Z M416 759 L468 904 L616 904 L616 840 L536 744 L416 744 L416 759 Z " />
<glyph glyph-name="Cacute" unicode="&#x106;" horiz-adv-x="615" d="M573 284 L573 126 Q562 106 542.5 81.5 Q523 57 491.5 35.5 Q460 14 416 -0.5 Q372 -15 313 -15 Q254 -15 209 0 Q164 15 131.5 37.5 Q99 60 78.5 87 Q58 114 47 138 L47 562 Q58 586 78.5 613 Q99 640 131.5 662.5 Q164 685 209 700 Q254 715 313 715 Q372 715 416 700.5 Q460 686 491.5 665 Q523 644 542.5 619.5 Q562 595 573 574 L573 427 L416 427 L416 531 Q406 555 380 573 Q354 591 313 591 Q272 591 246.5 573 Q221 555 210 531 L210 169 Q220 146 246 128 Q272 110 313 110 Q354 110 379.5 128 Q405 146 416 169 L416 284 L573 284 Z M246 769 L298 914 L446 914 L446 850 L366 754 L246 754 L246 769 Z " />
<glyph glyph-name="Ccircumflex" unicode="&#x108;" horiz-adv-x="615" d="M573 284 L573 126 Q562 106 542.5 81.5 Q523 57 491.5 35.5 Q460 14 416 -0.5 Q372 -15 313 -15 Q254 -15 209 0 Q164 15 131.5 37.5 Q99 60 78.5 87 Q58 114 47 138 L47 562 Q58 586 78.5 613 Q99 640 131.5 662.5 Q164 685 209 700 Q254 715 313 715 Q372 715 416 700.5 Q460 686 491.5 665 Q523 644 542.5 619.5 Q562 595 573 574 L573 427 L416 427 L416 531 Q406 555 380 573 Q354 591 313 591 Q272 591 246.5 573 Q221 555 210 531 L210 169 Q220 146 246 128 Q272 110 313 110 Q354 110 379.5 128 Q405 146 416 169 L416 284 L573 284 Z M141 767 L220 912 L414 912 L493 767 L493 752 L385 752 L317 841 L249 752 L141 752 L141 767 Z " />
<glyph glyph-name="Ccaron" unicode="&#x10c;" horiz-adv-x="615" d="M573 284 L573 126 Q562 106 542.5 81.5 Q523 57 491.5 35.5 Q460 14 416 -0.5 Q372 -15 313 -15 Q254 -15 209 0 Q164 15 131.5 37.5 Q99 60 78.5 87 Q58 114 47 138 L47 562 Q58 586 78.5 613 Q99 640 131.5 662.5 Q164 685 209 700 Q254 715 313 715 Q372 715 416 700.5 Q460 686 491.5 665 Q523 644 542.5 619.5 Q562 595 573 574 L573 427 L416 427 L416 531 Q406 555 380 573 Q354 591 313 591 Q272 591 246.5 573 Q221 555 210 531 L210 169 Q220 146 246 128 Q272 110 313 110 Q354 110 379.5 128 Q405 146 416 169 L416 284 L573 284 Z M139 898 L139 913 L247 913 L315 824 L383 913 L491 913 L491 898 L412 753 L218 753 L139 898 Z " />
<glyph glyph-name="Cdotaccent" unicode="&#x10a;" horiz-adv-x="615" d="M573 284 L573 126 Q562 106 542.5 81.5 Q523 57 491.5 35.5 Q460 14 416 -0.5 Q372 -15 313 -15 Q254 -15 209 0 Q164 15 131.5 37.5 Q99 60 78.5 87 Q58 114 47 138 L47 562 Q58 586 78.5 613 Q99 640 131.5 662.5 Q164 685 209 700 Q254 715 313 715 Q372 715 416 700.5 Q460 686 491.5 665 Q523 644 542.5 619.5 Q562 595 573 574 L573 427 L416 427 L416 531 Q406 555 380 573 Q354 591 313 591 Q272 591 246.5 573 Q221 555 210 531 L210 169 Q220 146 246 128 Q272 110 313 110 Q354 110 379.5 128 Q405 146 416 169 L416 284 L573 284 Z M234 857 Q241 872 260 885.5 Q279 899 314 899 Q349 899 368.5 885.5 Q388 872 394 857 L394 799 Q388 784 368.5 770.5 Q349 757 314 757 Q279 757 260 770.5 Q241 784 234 799 L234 857 Z " />
<glyph glyph-name="Ccedilla" unicode="&#xc7;" horiz-adv-x="615" d="M221 -165 Q238 -170 256.5 -173 Q275 -176 294 -176 Q313 -176 327 -170.5 Q341 -165 345 -157 L345 -129 Q341 -121 328 -117 Q315 -113 298 -113 L235 -113 L264 -12 Q235 -9 199.5 3 Q164 15 131.5 37.5 Q99 60 78.5 87 Q58 114 47 138 L47 562 Q58 586 78.5 613 Q99 640 131.5 662.5 Q164 685 209 700 Q254 715 313 715 Q372 715 416 700.5 Q460 686 491.5 665 Q523 644 542.5 619.5 Q562 595 573 574 L573 427 L416 427 L416 531 Q406 555 380 573 Q354 591 313 591 Q272 591 246.5 573 Q221 555 210 531 L210 169 Q220 146 246 128 Q272 110 313 110 Q354 110 379.5 128 Q405 146 416 169 L416 284 L573 284 L573 126 Q562 106 542.5 81.5 Q523 57 491.5 35.5 Q460 14 420 1 Q380 -12 340 -14 L329 -52 L342 -52 Q374 -52 399.5 -67.5 Q425 -83 433 -103 L433 -190 Q419 -218 384 -234 Q349 -250 303 -250 Q269 -250 242.5 -244.5 Q216 -239 202 -231 L221 -165 Z " />
<glyph glyph-name="Dcaron" unicode="&#x10e;" horiz-adv-x="629" d="M419 524 Q409 547 383 563 Q357 579 316 579 L220 579 L220 121 L316 121 Q357 121 383 137 Q409 153 419 176 L419 524 Z M582 138 Q571 113 551.5 88.5 Q532 64 503 44.5 Q474 25 436 12.5 Q398 0 349 0 L57 0 L57 700 L349 700 Q398 700 436 687.5 Q474 675 503 655.5 Q532 636 551.5 611.5 Q571 587 582 562 L582 138 Z M138 889 L138 904 L246 904 L314 815 L382 904 L490 904 L490 889 L411 744 L217 744 L138 889 Z " />
<glyph glyph-name="Dcroat" unicode="&#x110;" horiz-adv-x="653" d="M31 416 L73 416 L73 700 L366 700 Q415 700 453 687.5 Q491 675 520 655.5 Q549 636 568.5 611.5 Q588 587 599 562 L599 138 Q588 113 568.5 88.5 Q549 64 520 44.5 Q491 25 453 12.5 Q415 0 366 0 L73 0 L73 295 L31 295 L31 416 Z M435 524 Q425 547 399 563 Q373 579 333 579 L237 579 L237 416 L347 416 L347 295 L237 295 L237 121 L333 121 Q373 121 399 137 Q425 153 435 176 L435 524 Z " />
<glyph glyph-name="Egrave" unicode="&#xc8;" horiz-adv-x="534" d="M57 700 L489 700 L489 579 L220 579 L220 418 L471 418 L471 297 L220 297 L220 121 L496 121 L496 0 L57 0 L57 700 Z M148 840 L148 904 L296 904 L348 759 L348 744 L229 744 L148 840 Z " />
<glyph glyph-name="Eacute" unicode="&#xc9;" horiz-adv-x="534" d="M57 700 L489 700 L489 579 L220 579 L220 418 L471 418 L471 297 L220 297 L220 121 L496 121 L496 0 L57 0 L57 700 Z M211 759 L263 904 L411 904 L411 840 L331 744 L211 744 L211 759 Z " />
<glyph glyph-name="Ecircumflex" unicode="&#xca;" horiz-adv-x="534" d="M57 700 L489 700 L489 579 L220 579 L220 418 L471 418 L471 297 L220 297 L220 121 L496 121 L496 0 L57 0 L57 700 Z M100 759 L179 904 L373 904 L452 759 L452 744 L344 744 L276 833 L208 744 L100 744 L100 759 Z " />
<glyph glyph-name="Ecaron" unicode="&#x11a;" horiz-adv-x="534" d="M57 700 L489 700 L489 579 L220 579 L220 418 L471 418 L471 297 L220 297 L220 121 L496 121 L496 0 L57 0 L57 700 Z M105 889 L105 904 L213 904 L281 815 L349 904 L457 904 L457 889 L378 744 L184 744 L105 889 Z " />
<glyph glyph-name="Edieresis" unicode="&#xcb;" horiz-adv-x="534" d="M57 700 L489 700 L489 579 L220 579 L220 418 L471 418 L471 297 L220 297 L220 121 L496 121 L496 0 L57 0 L57 700 Z M94 850 Q101 857 117.5 868 Q134 879 168 879 Q202 879 218.5 868 Q235 857 241 850 L241 774 Q235 766 218.5 755 Q202 744 168 744 Q134 744 117.5 755.5 Q101 767 94 774 L94 850 Z M311 850 Q318 857 334.5 868 Q351 879 385 879 Q419 879 435.5 868 Q452 857 458 850 L458 774 Q452 766 435.5 755 Q419 744 385 744 Q351 744 334.5 755.5 Q318 767 311 774 L311 850 Z " />
<glyph glyph-name="Emacron" unicode="&#x112;" horiz-adv-x="534" d="M57 700 L489 700 L489 579 L220 579 L220 418 L471 418 L471 297 L220 297 L220 121 L496 121 L496 0 L57 0 L57 700 Z M91 858 L458 858 L458 753 L91 753 L91 858 Z " />
<glyph glyph-name="Ebreve" unicode="&#x114;" horiz-adv-x="534" d="M57 700 L489 700 L489 579 L220 579 L220 418 L471 418 L471 297 L220 297 L220 121 L496 121 L496 0 L57 0 L57 700 Z M105 877 L215 877 L215 849 Q219 840 234 828 Q249 816 279 816 Q309 816 324 828 Q339 840 343 849 L343 877 L453 877 L453 829 Q444 809 429.5 792 Q415 775 394 761.5 Q373 748 344.5 740.5 Q316 733 279 733 Q242 733 213.5 740.5 Q185 748 164 761.5 Q143 775 128.5 792 Q114 809 105 829 L105 877 Z " />
<glyph glyph-name="Edotaccent" unicode="&#x116;" horiz-adv-x="534" d="M57 700 L489 700 L489 579 L220 579 L220 418 L471 418 L471 297 L220 297 L220 121 L496 121 L496 0 L57 0 L57 700 Z M198 850 Q205 865 224 878.5 Q243 892 278 892 Q313 892 332.5 878.5 Q352 865 358 850 L358 792 Q352 777 332.5 763.5 Q313 750 278 750 Q243 750 224 763.5 Q205 777 198 792 L198 850 Z " />
<glyph glyph-name="Eogonek" unicode="&#x118;" horiz-adv-x="534" d="M291 -110 Q295 -100 306.5 -83 Q318 -66 335.5 -47 Q353 -28 374 -9 Q380 -4 386 0 L57 0 L57 700 L489 700 L489 579 L220 579 L220 418 L471 418 L471 297 L220 297 L220 121 L496 121 L496 0 Q446 -45 425 -73.5 Q404 -102 399 -113 L399 -139 Q409 -157 443 -157 Q469 -157 496 -147 L496 -224 Q483 -231 466 -235 Q449 -239 417 -239 Q375 -239 340 -227 Q305 -215 291 -186 L291 -110 Z " />
<glyph glyph-name="Gcircumflex" unicode="&#x11c;" horiz-adv-x="617" d="M321 390 L573 390 L573 126 Q562 106 542.5 81.5 Q523 57 491.5 35.5 Q460 14 416 -0.5 Q372 -15 313 -15 Q254 -15 209 0 Q164 15 131.5 37.5 Q99 60 78.5 87 Q58 114 47 138 L47 562 Q58 586 78.5 613 Q99 640 131.5 662.5 Q164 685 209 700 Q254 715 313 715 Q372 715 416 700.5 Q460 686 491.5 665 Q523 644 542.5 619.5 Q562 595 573 574 L573 459 L416 459 L416 531 Q406 555 380 573 Q354 591 313 591 Q272 591 246.5 573 Q221 555 210 531 L210 169 Q220 146 247 128 Q274 110 316 110 Q359 110 384.5 127 Q410 144 421 165 L421 273 L321 273 L321 390 Z M138 765 L217 910 L411 910 L490 765 L490 750 L382 750 L314 839 L246 750 L138 750 L138 765 Z " />
<glyph glyph-name="Gbreve" unicode="&#x11e;" horiz-adv-x="617" d="M321 390 L573 390 L573 126 Q562 106 542.5 81.5 Q523 57 491.5 35.5 Q460 14 416 -0.5 Q372 -15 313 -15 Q254 -15 209 0 Q164 15 131.5 37.5 Q99 60 78.5 87 Q58 114 47 138 L47 562 Q58 586 78.5 613 Q99 640 131.5 662.5 Q164 685 209 700 Q254 715 313 715 Q372 715 416 700.5 Q460 686 491.5 665 Q523 644 542.5 619.5 Q562 595 573 574 L573 459 L416 459 L416 531 Q406 555 380 573 Q354 591 313 591 Q272 591 246.5 573 Q221 555 210 531 L210 169 Q220 146 247 128 Q274 110 316 110 Q359 110 384.5 127 Q410 144 421 165 L421 273 L321 273 L321 390 Z M141 885 L251 885 L251 857 Q255 848 270 836 Q285 824 315 824 Q345 824 360 836 Q375 848 379 857 L379 885 L489 885 L489 837 Q480 817 465.5 800 Q451 783 430 769.5 Q409 756 380.5 748.5 Q352 741 315 741 Q278 741 249.5 748.5 Q221 756 200 769.5 Q179 783 164.5 800 Q150 817 141 837 L141 885 Z " />
<glyph glyph-name="Gdotaccent" unicode="&#x120;" horiz-adv-x="617" d="M321 390 L573 390 L573 126 Q562 106 542.5 81.5 Q523 57 491.5 35.5 Q460 14 416 -0.5 Q372 -15 313 -15 Q254 -15 209 0 Q164 15 131.5 37.5 Q99 60 78.5 87 Q58 114 47 138 L47 562 Q58 586 78.5 613 Q99 640 131.5 662.5 Q164 685 209 700 Q254 715 313 715 Q372 715 416 700.5 Q460 686 491.5 665 Q523 644 542.5 619.5 Q562 595 573 574 L573 459 L416 459 L416 531 Q406 555 380 573 Q354 591 313 591 Q272 591 246.5 573 Q221 555 210 531 L210 169 Q220 146 247 128 Q274 110 316 110 Q359 110 384.5 127 Q410 144 421 165 L421 273 L321 273 L321 390 Z M233 855 Q240 870 259 883.5 Q278 897 313 897 Q348 897 367.5 883.5 Q387 870 393 855 L393 797 Q387 782 367.5 768.5 Q348 755 313 755 Q278 755 259 768.5 Q240 782 233 797 L233 855 Z " />
<glyph glyph-name="Gcommaaccent" unicode="&#x122;" horiz-adv-x="617" d="M321 390 L573 390 L573 126 Q562 106 542.5 81.5 Q523 57 491.5 35.5 Q460 14 416 -0.5 Q372 -15 313 -15 Q254 -15 209 0 Q164 15 131.5 37.5 Q99 60 78.5 87 Q58 114 47 138 L47 562 Q58 586 78.5 613 Q99 640 131.5 662.5 Q164 685 209 700 Q254 715 313 715 Q372 715 416 700.5 Q460 686 491.5 665 Q523 644 542.5 619.5 Q562 595 573 574 L573 459 L416 459 L416 531 Q406 555 380 573 Q354 591 313 591 Q272 591 246.5 573 Q221 555 210 531 L210 169 Q220 146 247 128 Q274 110 316 110 Q359 110 384.5 127 Q410 144 421 165 L421 273 L321 273 L321 390 Z M245 -190 L278 -190 Q291 -190 301 -187.5 Q311 -185 316 -175 L316 -153 L313 -153 Q279 -153 260 -147 Q241 -141 235 -133 L235 -69 Q241 -62 260 -54.5 Q279 -47 313 -47 Q347 -47 366 -54.5 Q385 -62 391 -69 L391 -181 Q382 -205 356 -222 Q330 -239 292 -239 L245 -239 L245 -190 Z " />
<glyph glyph-name="Hcircumflex" unicode="&#x124;" horiz-adv-x="656" d="M57 700 L220 700 L220 421 L436 421 L436 700 L599 700 L599 0 L436 0 L436 300 L220 300 L220 0 L57 0 L57 700 Z M152 759 L231 904 L425 904 L504 759 L504 744 L396 744 L328 833 L260 744 L152 744 L152 759 Z " />
<glyph glyph-name="Hbar" unicode="&#x126;" horiz-adv-x="656" d="M24 632 L57 632 L57 700 L220 700 L220 632 L436 632 L436 700 L599 700 L599 632 L634 632 L634 534 L599 534 L599 0 L436 0 L436 300 L220 300 L220 0 L57 0 L57 534 L24 534 L24 632 Z M436 421 L436 534 L220 534 L220 421 L436 421 Z " />
<glyph glyph-name="Igrave" unicode="&#xcc;" horiz-adv-x="277" d="M57 700 L220 700 L220 0 L57 0 L57 700 Z M21 840 L21 904 L169 904 L221 759 L221 744 L102 744 L21 840 Z " />
<glyph glyph-name="Iacute" unicode="&#xcd;" horiz-adv-x="277" d="M57 700 L220 700 L220 0 L57 0 L57 700 Z M57 759 L109 904 L257 904 L257 840 L177 744 L57 744 L57 759 Z " />
<glyph glyph-name="Icircumflex" unicode="&#xce;" horiz-adv-x="277" d="M57 700 L220 700 L220 0 L57 0 L57 700 Z M-35 759 L44 904 L238 904 L317 759 L317 744 L209 744 L141 833 L73 744 L-35 744 L-35 759 Z " />
<glyph glyph-name="Itilde" unicode="&#x128;" horiz-adv-x="277" d="M57 700 L220 700 L220 0 L57 0 L57 700 Z M337 824 Q329 793 300 769 Q271 745 222 745 Q191 745 170.5 752.5 Q150 760 134.5 769.5 Q119 779 105 786.5 Q91 794 74 794 Q56 794 46.5 786.5 Q37 779 34 770 L34 750 L-55 750 L-55 810 Q-47 842 -17.5 865.5 Q12 889 60 889 Q90 889 110.5 881 Q131 873 147 864 Q163 855 177 847 Q191 839 208 839 Q224 839 234 845.5 Q244 852 248 863 L248 883 L337 883 L337 824 Z " />
<glyph glyph-name="Idieresis" unicode="&#xcf;" horiz-adv-x="277" d="M57 700 L220 700 L220 0 L57 0 L57 700 Z M-41 853 Q-34 860 -17.5 871 Q-1 882 33 882 Q67 882 83.5 871 Q100 860 106 853 L106 777 Q100 769 83.5 758 Q67 747 33 747 Q-1 747 -17.5 758.5 Q-34 770 -41 777 L-41 853 Z M176 853 Q183 860 199.5 871 Q216 882 250 882 Q284 882 300.5 871 Q317 860 323 853 L323 777 Q317 769 300.5 758 Q284 747 250 747 Q216 747 199.5 758.5 Q183 770 176 777 L176 853 Z " />
<glyph glyph-name="Imacron" unicode="&#x12a;" horiz-adv-x="277" d="M57 700 L220 700 L220 0 L57 0 L57 700 Z M-43 858 L324 858 L324 753 L-43 753 L-43 858 Z " />
<glyph glyph-name="Ibreve" unicode="&#x12c;" horiz-adv-x="277" d="M57 700 L220 700 L220 0 L57 0 L57 700 Z M-34 879 L76 879 L76 851 Q80 842 95 830 Q110 818 140 818 Q170 818 185 830 Q200 842 204 851 L204 879 L314 879 L314 831 Q305 811 290.5 794 Q276 777 255 763.5 Q234 750 205.5 742.5 Q177 735 140 735 Q103 735 74.5 742.5 Q46 750 25 763.5 Q4 777 -10.5 794 Q-25 811 -34 831 L-34 879 Z " />
<glyph glyph-name="Idotaccent" unicode="&#x130;" horiz-adv-x="277" d="M57 700 L220 700 L220 0 L57 0 L57 700 Z M60 850 Q67 865 86 878.5 Q105 892 140 892 Q175 892 194.5 878.5 Q214 865 220 850 L220 792 Q214 777 194.5 763.5 Q175 750 140 750 Q105 750 86 763.5 Q67 777 60 792 L60 850 Z " />
<glyph glyph-name="Iogonek" unicode="&#x12e;" horiz-adv-x="277" d="M15 -110 Q19 -100 30.5 -83 Q42 -66 59.5 -47 Q77 -28 98 -9 Q104 -4 110 0 L57 0 L57 700 L220 700 L220 0 Q170 -45 149 -73.5 Q128 -102 123 -113 L123 -139 Q133 -157 167 -157 Q193 -157 220 -147 L220 -224 Q207 -231 190 -235 Q173 -239 141 -239 Q99 -239 64 -227 Q29 -215 15 -186 L15 -110 Z " />
<glyph glyph-name="IJ" unicode="&#x132;" horiz-adv-x="645" d="M57 700 L220 700 L220 0 L57 0 L57 700 Z M290 121 L337 121 Q376 121 403 135.5 Q430 150 441 176 L441 700 L604 700 L604 138 Q590 108 568.5 82.5 Q547 57 516.5 38.5 Q486 20 444.5 9 Q403 -2 349 -2 Q329 -2 313.5 -1.5 Q298 -1 290 0 L290 121 Z " />
<glyph glyph-name="Jcircumflex" unicode="&#x134;" horiz-adv-x="375" d="M20 121 L67 121 Q106 121 133 135.5 Q160 150 171 176 L171 700 L334 700 L334 138 Q320 108 298.5 82.5 Q277 57 246.5 38.5 Q216 20 174.5 9 Q133 -2 79 -2 Q59 -2 43.5 -1.5 Q28 -1 20 0 L20 121 Z M75 759 L154 904 L348 904 L427 759 L427 744 L319 744 L251 833 L183 744 L75 744 L75 759 Z " />
<glyph glyph-name="Kcommaaccent" unicode="&#x136;" horiz-adv-x="596" d="M57 700 L220 700 L220 450 L238 450 L452 700 L564 700 L564 610 L369 394 L570 90 L570 0 L444 0 L263 278 L220 229 L220 0 L57 0 L57 700 Z M243 -188 L276 -188 Q289 -188 299 -185.5 Q309 -183 314 -173 L314 -151 L311 -151 Q277 -151 258 -145 Q239 -139 233 -131 L233 -67 Q239 -60 258 -52.5 Q277 -45 311 -45 Q345 -45 364 -52.5 Q383 -60 389 -67 L389 -179 Q380 -203 354 -220 Q328 -237 290 -237 L243 -237 L243 -188 Z " />
<glyph glyph-name="Lacute" unicode="&#x139;" horiz-adv-x="459" d="M57 700 L220 700 L220 121 L437 121 L437 0 L57 0 L57 700 Z M57 759 L109 904 L257 904 L257 840 L177 744 L57 744 L57 759 Z " />
<glyph glyph-name="Lcaron" unicode="&#x13d;" horiz-adv-x="483" d="M57 700 L220 700 L220 121 L437 121 L437 0 L57 0 L57 700 Z M288 502 L309 700 L432 700 L432 622 L384 487 L288 487 L288 502 Z " />
<glyph glyph-name="Lcommaaccent" unicode="&#x13b;" horiz-adv-x="459" d="M57 700 L220 700 L220 121 L437 121 L437 0 L57 0 L57 700 Z M175 -188 L208 -188 Q221 -188 231 -185.5 Q241 -183 246 -173 L246 -151 L243 -151 Q209 -151 190 -145 Q171 -139 165 -131 L165 -67 Q171 -60 190 -52.5 Q209 -45 243 -45 Q277 -45 296 -52.5 Q315 -60 321 -67 L321 -179 Q312 -203 286 -220 Q260 -237 222 -237 L175 -237 L175 -188 Z " />
<glyph glyph-name="Lslash" unicode="&#x141;" horiz-adv-x="494" d="M23 271 L92 306 L92 700 L255 700 L255 390 L388 459 L388 338 L255 269 L255 121 L472 121 L472 0 L92 0 L92 184 L23 148 L23 271 Z " />
<glyph glyph-name="Ldot" unicode="&#x13f;" horiz-adv-x="505" d="M57 700 L220 700 L220 121 L437 121 L437 0 L57 0 L57 700 Z M310 423 Q317 438 336 451 Q355 464 390 464 Q425 464 444.5 451 Q464 438 470 423 L470 364 Q464 349 444.5 336 Q425 323 390 323 Q355 323 336 336 Q317 349 310 364 L310 423 Z " />
<glyph glyph-name="Nacute" unicode="&#x143;" horiz-adv-x="668" d="M57 700 L241 700 L441 275 L460 275 L460 700 L612 700 L612 0 L428 0 L227 424 L209 424 L209 0 L57 0 L57 700 Z M284 757 L336 902 L484 902 L484 838 L404 742 L284 742 L284 757 Z " />
<glyph glyph-name="Ncaron" unicode="&#x147;" horiz-adv-x="668" d="M57 700 L241 700 L441 275 L460 275 L460 700 L612 700 L612 0 L428 0 L227 424 L209 424 L209 0 L57 0 L57 700 Z M166 887 L166 902 L274 902 L342 813 L410 902 L518 902 L518 887 L439 742 L245 742 L166 887 Z " />
<glyph glyph-name="Ntilde" unicode="&#xd1;" horiz-adv-x="668" d="M57 700 L241 700 L441 275 L460 275 L460 700 L612 700 L612 0 L428 0 L227 424 L209 424 L209 0 L57 0 L57 700 Z M538 824 Q530 793 501 769 Q472 745 423 745 Q392 745 371.5 752.5 Q351 760 335.5 769.5 Q320 779 306 786.5 Q292 794 275 794 Q257 794 247.5 786.5 Q238 779 235 770 L235 750 L146 750 L146 810 Q154 842 183.5 865.5 Q213 889 261 889 Q291 889 311.5 881 Q332 873 348 864 Q364 855 378 847 Q392 839 409 839 Q425 839 435 845.5 Q445 852 449 863 L449 883 L538 883 L538 824 Z " />
<glyph glyph-name="Ncommaaccent" unicode="&#x145;" horiz-adv-x="668" d="M57 700 L241 700 L441 275 L460 275 L460 700 L612 700 L612 0 L428 0 L227 424 L209 424 L209 0 L57 0 L57 700 Z M276 -185 L309 -185 Q322 -185 332 -182.5 Q342 -180 347 -170 L347 -148 L344 -148 Q310 -148 291 -142 Q272 -136 266 -128 L266 -64 Q272 -57 291 -49.5 Q310 -42 344 -42 Q378 -42 397 -49.5 Q416 -57 422 -64 L422 -176 Q413 -200 387 -217 Q361 -234 323 -234 L276 -234 L276 -185 Z " />
<glyph glyph-name="Ograve" unicode="&#xd2;" horiz-adv-x="626" d="M210 169 Q221 146 246.5 128 Q272 110 313 110 Q354 110 379.5 128 Q405 146 416 169 L416 531 Q405 555 379.5 573 Q354 591 313 591 Q272 591 246.5 573 Q221 555 210 531 L210 169 Z M47 562 Q58 586 78.5 613 Q99 640 131.5 662.5 Q164 685 209 700 Q254 715 313 715 Q372 715 417 700 Q462 685 494.5 662.5 Q527 640 547.5 613 Q568 586 579 562 L579 138 Q568 114 547.5 87 Q527 60 494.5 37.5 Q462 15 417 0 Q372 -15 313 -15 Q254 -15 209 0 Q164 15 131.5 37.5 Q99 60 78.5 87 Q58 114 47 138 L47 562 Z M178 848 L178 912 L326 912 L378 767 L378 752 L259 752 L178 848 Z " />
<glyph glyph-name="Oacute" unicode="&#xd3;" horiz-adv-x="626" d="M210 169 Q221 146 246.5 128 Q272 110 313 110 Q354 110 379.5 128 Q405 146 416 169 L416 531 Q405 555 379.5 573 Q354 591 313 591 Q272 591 246.5 573 Q221 555 210 531 L210 169 Z M47 562 Q58 586 78.5 613 Q99 640 131.5 662.5 Q164 685 209 700 Q254 715 313 715 Q372 715 417 700 Q462 685 494.5 662.5 Q527 640 547.5 613 Q568 586 579 562 L579 138 Q568 114 547.5 87 Q527 60 494.5 37.5 Q462 15 417 0 Q372 -15 313 -15 Q254 -15 209 0 Q164 15 131.5 37.5 Q99 60 78.5 87 Q58 114 47 138 L47 562 Z M251 767 L303 912 L451 912 L451 848 L371 752 L251 752 L251 767 Z " />
<glyph glyph-name="Ocircumflex" unicode="&#xd4;" horiz-adv-x="626" d="M210 169 Q221 146 246.5 128 Q272 110 313 110 Q354 110 379.5 128 Q405 146 416 169 L416 531 Q405 555 379.5 573 Q354 591 313 591 Q272 591 246.5 573 Q221 555 210 531 L210 169 Z M47 562 Q58 586 78.5 613 Q99 640 131.5 662.5 Q164 685 209 700 Q254 715 313 715 Q372 715 417 700 Q462 685 494.5 662.5 Q527 640 547.5 613 Q568 586 579 562 L579 138 Q568 114 547.5 87 Q527 60 494.5 37.5 Q462 15 417 0 Q372 -15 313 -15 Q254 -15 209 0 Q164 15 131.5 37.5 Q99 60 78.5 87 Q58 114 47 138 L47 562 Z M138 767 L217 912 L411 912 L490 767 L490 752 L382 752 L314 841 L246 752 L138 752 L138 767 Z " />
<glyph glyph-name="Otilde" unicode="&#xd5;" horiz-adv-x="626" d="M210 169 Q221 146 246.5 128 Q272 110 313 110 Q354 110 379.5 128 Q405 146 416 169 L416 531 Q405 555 379.5 573 Q354 591 313 591 Q272 591 246.5 573 Q221 555 210 531 L210 169 Z M47 562 Q58 586 78.5 613 Q99 640 131.5 662.5 Q164 685 209 700 Q254 715 313 715 Q372 715 417 700 Q462 685 494.5 662.5 Q527 640 547.5 613 Q568 586 579 562 L579 138 Q568 114 547.5 87 Q527 60 494.5 37.5 Q462 15 417 0 Q372 -15 313 -15 Q254 -15 209 0 Q164 15 131.5 37.5 Q99 60 78.5 87 Q58 114 47 138 L47 562 Z M510 831 Q502 800 473 776 Q444 752 395 752 Q364 752 343.5 759.5 Q323 767 307.5 776.5 Q292 786 278 793.5 Q264 801 247 801 Q229 801 219.5 793.5 Q210 786 207 777 L207 757 L118 757 L118 817 Q126 849 155.5 872.5 Q185 896 233 896 Q263 896 283.5 888 Q304 880 320 871 Q336 862 350 854 Q364 846 381 846 Q397 846 407 852.5 Q417 859 421 870 L421 890 L510 890 L510 831 Z " />
<glyph glyph-name="Odieresis" unicode="&#xd6;" horiz-adv-x="626" d="M210 169 Q221 146 246.5 128 Q272 110 313 110 Q354 110 379.5 128 Q405 146 416 169 L416 531 Q405 555 379.5 573 Q354 591 313 591 Q272 591 246.5 573 Q221 555 210 531 L210 169 Z M47 562 Q58 586 78.5 613 Q99 640 131.5 662.5 Q164 685 209 700 Q254 715 313 715 Q372 715 417 700 Q462 685 494.5 662.5 Q527 640 547.5 613 Q568 586 579 562 L579 138 Q568 114 547.5 87 Q527 60 494.5 37.5 Q462 15 417 0 Q372 -15 313 -15 Q254 -15 209 0 Q164 15 131.5 37.5 Q99 60 78.5 87 Q58 114 47 138 L47 562 Z M131 853 Q138 860 154.5 871 Q171 882 205 882 Q239 882 255.5 871 Q272 860 278 853 L278 777 Q272 769 255.5 758 Q239 747 205 747 Q171 747 154.5 758.5 Q138 770 131 777 L131 853 Z M348 853 Q355 860 371.5 871 Q388 882 422 882 Q456 882 472.5 871 Q489 860 495 853 L495 777 Q489 769 472.5 758 Q456 747 422 747 Q388 747 371.5 758.5 Q355 770 348 777 L348 853 Z " />
<glyph glyph-name="Omacron" unicode="&#x14c;" horiz-adv-x="626" d="M210 169 Q221 146 246.5 128 Q272 110 313 110 Q354 110 379.5 128 Q405 146 416 169 L416 531 Q405 555 379.5 573 Q354 591 313 591 Q272 591 246.5 573 Q221 555 210 531 L210 169 Z M47 562 Q58 586 78.5 613 Q99 640 131.5 662.5 Q164 685 209 700 Q254 715 313 715 Q372 715 417 700 Q462 685 494.5 662.5 Q527 640 547.5 613 Q568 586 579 562 L579 138 Q568 114 547.5 87 Q527 60 494.5 37.5 Q462 15 417 0 Q372 -15 313 -15 Q254 -15 209 0 Q164 15 131.5 37.5 Q99 60 78.5 87 Q58 114 47 138 L47 562 Z M130 867 L497 867 L497 762 L130 762 L130 867 Z " />
<glyph glyph-name="Obreve" unicode="&#x14e;" horiz-adv-x="626" d="M210 169 Q221 146 246.5 128 Q272 110 313 110 Q354 110 379.5 128 Q405 146 416 169 L416 531 Q405 555 379.5 573 Q354 591 313 591 Q272 591 246.5 573 Q221 555 210 531 L210 169 Z M47 562 Q58 586 78.5 613 Q99 640 131.5 662.5 Q164 685 209 700 Q254 715 313 715 Q372 715 417 700 Q462 685 494.5 662.5 Q527 640 547.5 613 Q568 586 579 562 L579 138 Q568 114 547.5 87 Q527 60 494.5 37.5 Q462 15 417 0 Q372 -15 313 -15 Q254 -15 209 0 Q164 15 131.5 37.5 Q99 60 78.5 87 Q58 114 47 138 L47 562 Z M139 886 L249 886 L249 858 Q253 849 268 837 Q283 825 313 825 Q343 825 358 837 Q373 849 377 858 L377 886 L487 886 L487 838 Q478 818 463.5 801 Q449 784 428 770.5 Q407 757 378.5 749.5 Q350 742 313 742 Q276 742 247.5 749.5 Q219 757 198 770.5 Q177 784 162.5 801 Q148 818 139 838 L139 886 Z " />
<glyph glyph-name="Ohungarumlaut" unicode="&#x150;" horiz-adv-x="626" d="M210 169 Q221 146 246.5 128 Q272 110 313 110 Q354 110 379.5 128 Q405 146 416 169 L416 531 Q405 555 379.5 573 Q354 591 313 591 Q272 591 246.5 573 Q221 555 210 531 L210 169 Z M47 562 Q58 586 78.5 613 Q99 640 131.5 662.5 Q164 685 209 700 Q254 715 313 715 Q372 715 417 700 Q462 685 494.5 662.5 Q527 640 547.5 613 Q568 586 579 562 L579 138 Q568 114 547.5 87 Q527 60 494.5 37.5 Q462 15 417 0 Q372 -15 313 -15 Q254 -15 209 0 Q164 15 131.5 37.5 Q99 60 78.5 87 Q58 114 47 138 L47 562 Z M168 762 L203 907 L324 907 L324 854 L266 746 L168 746 L168 762 Z M365 762 L399 907 L520 907 L520 854 L462 746 L365 746 L365 762 Z " />
<glyph glyph-name="Oslash" unicode="&#xd8;" horiz-adv-x="626" d="M47 562 Q58 586 78.5 613 Q99 640 131.5 662.5 Q164 685 209 700 Q254 715 313 715 Q371 715 415.5 701 Q460 687 492 665 L517 700 L579 700 L579 654 L548 612 Q567 588 579 562 L579 138 Q568 114 547.5 87 Q527 60 494.5 37.5 Q462 15 417 0 Q372 -15 313 -15 Q254 -15 210 -1 Q166 13 134 35 L109 0 L47 0 L47 46 L77 88 Q58 113 47 138 L47 562 Z M210 272 L412 553 Q400 574 375 589 Q350 604 313 604 Q272 604 246.5 586 Q221 568 210 545 L210 272 Z M313 96 Q354 96 379.5 114 Q405 132 416 156 L416 427 L214 147 Q226 126 251 111 Q276 96 313 96 Z " />
<glyph glyph-name="Oslashacute" unicode="&#x1fe;" horiz-adv-x="626" d="M47 562 Q58 586 78.5 613 Q99 640 131.5 662.5 Q164 685 209 700 Q254 715 313 715 Q371 715 415.5 701 Q460 687 492 665 L517 700 L579 700 L579 654 L548 612 Q567 588 579 562 L579 138 Q568 114 547.5 87 Q527 60 494.5 37.5 Q462 15 417 0 Q372 -15 313 -15 Q254 -15 210 -1 Q166 13 134 35 L109 0 L47 0 L47 46 L77 88 Q58 113 47 138 L47 562 Z M210 272 L412 553 Q400 574 375 589 Q350 604 313 604 Q272 604 246.5 586 Q221 568 210 545 L210 272 Z M313 96 Q354 96 379.5 114 Q405 132 416 156 L416 427 L214 147 Q226 126 251 111 Q276 96 313 96 Z M257 767 L309 912 L457 912 L457 848 L377 752 L257 752 L257 767 Z " />
<glyph glyph-name="OE" unicode="&#x152;" horiz-adv-x="892" d="M47 562 Q58 586 78.5 613 Q99 640 131 662.5 Q163 685 208 700 Q253 715 313 715 Q342 715 368 711 Q394 707 417 700 L848 700 L848 579 L579 579 L579 418 L830 418 L830 297 L579 297 L579 121 L854 121 L854 0 L418 0 Q395 -7 369 -11 Q343 -15 313 -15 Q254 -15 209 0 Q164 15 131.5 37.5 Q99 60 78.5 87 Q58 114 47 138 L47 562 Z M210 169 Q220 146 245.5 128 Q271 110 313 110 Q354 110 379 128 Q404 146 415 169 L415 531 Q405 555 379.5 573 Q354 591 313 591 Q271 591 246 573 Q221 555 210 531 L210 169 Z " />
<glyph glyph-name="Racute" unicode="&#x154;" horiz-adv-x="611" d="M288 257 L220 257 L220 0 L57 0 L57 700 L353 700 Q420 700 475.5 669 Q531 638 563 581 L563 376 Q543 342 515 316 Q487 290 449 275 L570 90 L570 0 L443 0 L288 257 Z M317 370 Q349 370 372.5 382.5 Q396 395 408 418 L408 531 Q396 554 372 566.5 Q348 579 317 579 L220 579 L220 370 L317 370 Z M224 759 L276 904 L424 904 L424 840 L344 744 L224 744 L224 759 Z " />
<glyph glyph-name="Rcaron" unicode="&#x158;" horiz-adv-x="611" d="M288 257 L220 257 L220 0 L57 0 L57 700 L353 700 Q420 700 475.5 669 Q531 638 563 581 L563 376 Q543 342 515 316 Q487 290 449 275 L570 90 L570 0 L443 0 L288 257 Z M317 370 Q349 370 372.5 382.5 Q396 395 408 418 L408 531 Q396 554 372 566.5 Q348 579 317 579 L220 579 L220 370 L317 370 Z M132 889 L132 904 L240 904 L308 815 L376 904 L484 904 L484 889 L405 744 L211 744 L132 889 Z " />
<glyph glyph-name="Rcommaaccent" unicode="&#x156;" horiz-adv-x="611" d="M288 257 L220 257 L220 0 L57 0 L57 700 L353 700 Q420 700 475.5 669 Q531 638 563 581 L563 376 Q543 342 515 316 Q487 290 449 275 L570 90 L570 0 L443 0 L288 257 Z M317 370 Q349 370 372.5 382.5 Q396 395 408 418 L408 531 Q396 554 372 566.5 Q348 579 317 579 L220 579 L220 370 L317 370 Z M247 -188 L280 -188 Q293 -188 303 -185.5 Q313 -183 318 -173 L318 -151 L315 -151 Q281 -151 262 -145 Q243 -139 237 -131 L237 -67 Q243 -60 262 -52.5 Q281 -45 315 -45 Q349 -45 368 -52.5 Q387 -60 393 -67 L393 -179 Q384 -203 358 -220 Q332 -237 294 -237 L247 -237 L247 -188 Z " />
<glyph glyph-name="Sacute" unicode="&#x15a;" horiz-adv-x="595" d="M41 225 L198 225 L198 162 Q208 143 232.5 126.5 Q257 110 298 110 Q338 110 362 126.5 Q386 143 397 162 L397 233 Q389 249 371.5 261.5 Q354 274 315 283 L260 296 Q204 309 166.5 324 Q129 339 104 355 Q79 371 64.5 387.5 Q50 404 41 421 L41 581 Q51 599 70 622 Q89 645 119.5 665.5 Q150 686 194 700.5 Q238 715 298 715 Q357 715 400.5 700.5 Q444 686 475 665 Q506 644 525 621 Q544 598 554 581 L554 482 L397 482 L397 538 Q388 558 363 574.5 Q338 591 298 591 Q257 591 232.5 573.5 Q208 556 198 538 L198 478 Q206 462 225.5 449.5 Q245 437 286 428 L334 417 Q390 404 428 389 Q466 374 490.5 357.5 Q515 341 530 323.5 Q545 306 554 289 L554 119 Q544 101 524.5 78 Q505 55 474.5 34 Q444 13 400.5 -1 Q357 -15 298 -15 Q238 -15 194 -0.5 Q150 14 119.5 34.5 Q89 55 70 78 Q51 101 41 119 L41 225 Z M235 767 L287 912 L435 912 L435 848 L355 752 L235 752 L235 767 Z " />
<glyph glyph-name="Scircumflex" unicode="&#x15c;" horiz-adv-x="595" d="M41 225 L198 225 L198 162 Q208 143 232.5 126.5 Q257 110 298 110 Q338 110 362 126.5 Q386 143 397 162 L397 233 Q389 249 371.5 261.5 Q354 274 315 283 L260 296 Q204 309 166.5 324 Q129 339 104 355 Q79 371 64.5 387.5 Q50 404 41 421 L41 581 Q51 599 70 622 Q89 645 119.5 665.5 Q150 686 194 700.5 Q238 715 298 715 Q357 715 400.5 700.5 Q444 686 475 665 Q506 644 525 621 Q544 598 554 581 L554 482 L397 482 L397 538 Q388 558 363 574.5 Q338 591 298 591 Q257 591 232.5 573.5 Q208 556 198 538 L198 478 Q206 462 225.5 449.5 Q245 437 286 428 L334 417 Q390 404 428 389 Q466 374 490.5 357.5 Q515 341 530 323.5 Q545 306 554 289 L554 119 Q544 101 524.5 78 Q505 55 474.5 34 Q444 13 400.5 -1 Q357 -15 298 -15 Q238 -15 194 -0.5 Q150 14 119.5 34.5 Q89 55 70 78 Q51 101 41 119 L41 225 Z M128 767 L207 912 L401 912 L480 767 L480 752 L372 752 L304 841 L236 752 L128 752 L128 767 Z " />
<glyph glyph-name="Scaron" unicode="&#x160;" horiz-adv-x="595" d="M41 225 L198 225 L198 162 Q208 143 232.5 126.5 Q257 110 298 110 Q338 110 362 126.5 Q386 143 397 162 L397 233 Q389 249 371.5 261.5 Q354 274 315 283 L260 296 Q204 309 166.5 324 Q129 339 104 355 Q79 371 64.5 387.5 Q50 404 41 421 L41 581 Q51 599 70 622 Q89 645 119.5 665.5 Q150 686 194 700.5 Q238 715 298 715 Q357 715 400.5 700.5 Q444 686 475 665 Q506 644 525 621 Q544 598 554 581 L554 482 L397 482 L397 538 Q388 558 363 574.5 Q338 591 298 591 Q257 591 232.5 573.5 Q208 556 198 538 L198 478 Q206 462 225.5 449.5 Q245 437 286 428 L334 417 Q390 404 428 389 Q466 374 490.5 357.5 Q515 341 530 323.5 Q545 306 554 289 L554 119 Q544 101 524.5 78 Q505 55 474.5 34 Q444 13 400.5 -1 Q357 -15 298 -15 Q238 -15 194 -0.5 Q150 14 119.5 34.5 Q89 55 70 78 Q51 101 41 119 L41 225 Z M128 897 L128 912 L236 912 L304 823 L372 912 L480 912 L480 897 L401 752 L207 752 L128 897 Z " />
<glyph glyph-name="Scedilla" unicode="&#x15e;" horiz-adv-x="595" d="M205 -165 Q222 -170 241 -173 Q260 -176 279 -176 Q298 -176 311.5 -170.5 Q325 -165 329 -157 L329 -129 Q325 -121 312.5 -117 Q300 -113 283 -113 L220 -113 L247 -12 Q220 -9 194 0 Q150 14 119.5 34.5 Q89 55 70 78 Q51 101 41 119 L41 225 L198 225 L198 162 Q208 143 232.5 126.5 Q257 110 298 110 Q338 110 362 126.5 Q386 143 397 162 L397 233 Q389 249 371.5 261.5 Q354 274 315 283 L260 296 Q204 309 166.5 324 Q129 339 104 355 Q79 371 64.5 387.5 Q50 404 41 421 L41 581 Q51 599 70 622 Q89 645 119.5 665.5 Q150 686 194 700.5 Q238 715 298 715 Q357 715 400.5 700.5 Q444 686 475 665 Q506 644 525 621 Q544 598 554 581 L554 482 L397 482 L397 538 Q388 558 363 574.5 Q338 591 298 591 Q257 591 232.5 573.5 Q208 556 198 538 L198 478 Q206 462 225.5 449.5 Q245 437 286 428 L334 417 Q390 404 428 389 Q466 374 490.5 357.5 Q515 341 530 323.5 Q545 306 554 289 L554 119 Q544 101 524.5 78 Q505 55 474.5 34 Q444 13 400 -1 Q365 -12 324 -14 L313 -52 L326 -52 Q361 -52 385 -68 Q409 -84 417 -103 L417 -190 Q403 -218 368.5 -234 Q334 -250 288 -250 Q254 -250 226.5 -244.5 Q199 -239 185 -231 L205 -165 Z " />
<glyph glyph-name="Scommaaccent" unicode="&#x218;" horiz-adv-x="595" d="M41 225 L198 225 L198 162 Q208 143 232.5 126.5 Q257 110 298 110 Q338 110 362 126.5 Q386 143 397 162 L397 233 Q389 249 371.5 261.5 Q354 274 315 283 L260 296 Q204 309 166.5 324 Q129 339 104 355 Q79 371 64.5 387.5 Q50 404 41 421 L41 581 Q51 599 70 622 Q89 645 119.5 665.5 Q150 686 194 700.5 Q238 715 298 715 Q357 715 400.5 700.5 Q444 686 475 665 Q506 644 525 621 Q544 598 554 581 L554 482 L397 482 L397 538 Q388 558 363 574.5 Q338 591 298 591 Q257 591 232.5 573.5 Q208 556 198 538 L198 478 Q206 462 225.5 449.5 Q245 437 286 428 L334 417 Q390 404 428 389 Q466 374 490.5 357.5 Q515 341 530 323.5 Q545 306 554 289 L554 119 Q544 101 524.5 78 Q505 55 474.5 34 Q444 13 400.5 -1 Q357 -15 298 -15 Q238 -15 194 -0.5 Q150 14 119.5 34.5 Q89 55 70 78 Q51 101 41 119 L41 225 Z M226 -189 L259 -189 Q272 -189 282 -186.5 Q292 -184 297 -174 L297 -152 L294 -152 Q260 -152 241 -146 Q222 -140 216 -132 L216 -68 Q222 -61 241 -53.5 Q260 -46 294 -46 Q328 -46 347 -53.5 Q366 -61 372 -68 L372 -180 Q363 -204 337 -221 Q311 -238 273 -238 L226 -238 L226 -189 Z " />
<glyph glyph-name="Tcaron" unicode="&#x164;" horiz-adv-x="537" d="M187 579 L24 579 L24 700 L512 700 L512 579 L350 579 L350 0 L187 0 L187 579 Z M94 889 L94 904 L202 904 L270 815 L338 904 L446 904 L446 889 L367 744 L173 744 L94 889 Z " />
<glyph glyph-name="Tcommaaccent" unicode="&#x162;" horiz-adv-x="537" d="M184 -165 Q201 -170 220 -173 Q239 -176 258 -176 Q277 -176 290.5 -170.5 Q304 -165 308 -157 L308 -129 Q304 -121 291.5 -117 Q279 -113 262 -113 L198 -113 L230 0 L187 0 L187 579 L24 579 L24 700 L512 700 L512 579 L350 579 L350 0 L307 0 L292 -52 L304 -52 Q340 -52 364 -68.5 Q388 -85 396 -103 L396 -190 Q382 -218 347.5 -234 Q313 -250 267 -250 Q233 -250 205.5 -244.5 Q178 -239 164 -231 L184 -165 Z " />
<glyph glyph-name="uni021A" unicode="&#x21a;" horiz-adv-x="537" d="M187 579 L24 579 L24 700 L512 700 L512 579 L350 579 L350 0 L187 0 L187 579 Z M200 -188 L233 -188 Q246 -188 256 -185.5 Q266 -183 271 -173 L271 -151 L268 -151 Q234 -151 215 -145 Q196 -139 190 -131 L190 -67 Q196 -60 215 -52.5 Q234 -45 268 -45 Q302 -45 321 -52.5 Q340 -60 346 -67 L346 -179 Q337 -203 311 -220 Q285 -237 247 -237 L200 -237 L200 -188 Z " />
<glyph glyph-name="Tbar" unicode="&#x166;" horiz-adv-x="537" d="M72 415 L187 415 L187 579 L24 579 L24 700 L512 700 L512 579 L350 579 L350 415 L467 415 L467 317 L350 317 L350 0 L187 0 L187 317 L72 317 L72 415 Z " />
<glyph glyph-name="Ugrave" unicode="&#xd9;" horiz-adv-x="639" d="M585 700 L585 138 Q574 114 553.5 87 Q533 60 501 37.5 Q469 15 424 0 Q379 -15 320 -15 Q261 -15 216 0 Q171 15 138.5 37.5 Q106 60 85.5 87 Q65 114 54 138 L54 700 L217 700 L217 169 Q227 146 252.5 128 Q278 110 320 110 Q361 110 386 128 Q411 146 422 169 L422 700 L585 700 Z M184 840 L184 904 L332 904 L384 759 L384 744 L265 744 L184 840 Z " />
<glyph glyph-name="Uacute" unicode="&#xda;" horiz-adv-x="639" d="M585 700 L585 138 Q574 114 553.5 87 Q533 60 501 37.5 Q469 15 424 0 Q379 -15 320 -15 Q261 -15 216 0 Q171 15 138.5 37.5 Q106 60 85.5 87 Q65 114 54 138 L54 700 L217 700 L217 169 Q227 146 252.5 128 Q278 110 320 110 Q361 110 386 128 Q411 146 422 169 L422 700 L585 700 Z M253 759 L305 904 L453 904 L453 840 L373 744 L253 744 L253 759 Z " />
<glyph glyph-name="Ucircumflex" unicode="&#xdb;" horiz-adv-x="639" d="M585 700 L585 138 Q574 114 553.5 87 Q533 60 501 37.5 Q469 15 424 0 Q379 -15 320 -15 Q261 -15 216 0 Q171 15 138.5 37.5 Q106 60 85.5 87 Q65 114 54 138 L54 700 L217 700 L217 169 Q227 146 252.5 128 Q278 110 320 110 Q361 110 386 128 Q411 146 422 169 L422 700 L585 700 Z M144 759 L223 904 L417 904 L496 759 L496 744 L388 744 L320 833 L252 744 L144 744 L144 759 Z " />
<glyph glyph-name="Utilde" unicode="&#x168;" horiz-adv-x="639" d="M585 700 L585 138 Q574 114 553.5 87 Q533 60 501 37.5 Q469 15 424 0 Q379 -15 320 -15 Q261 -15 216 0 Q171 15 138.5 37.5 Q106 60 85.5 87 Q65 114 54 138 L54 700 L217 700 L217 169 Q227 146 252.5 128 Q278 110 320 110 Q361 110 386 128 Q411 146 422 169 L422 700 L585 700 Z M517 826 Q509 795 480 771 Q451 747 402 747 Q371 747 350.5 754.5 Q330 762 314.5 771.5 Q299 781 285 788.5 Q271 796 254 796 Q236 796 226.5 788.5 Q217 781 214 772 L214 752 L125 752 L125 812 Q133 844 162.5 867.5 Q192 891 240 891 Q270 891 290.5 883 Q311 875 327 866 Q343 857 357 849 Q371 841 388 841 Q404 841 414 847.5 Q424 854 428 865 L428 885 L517 885 L517 826 Z " />
<glyph glyph-name="Udieresis" unicode="&#xdc;" horiz-adv-x="639" d="M585 700 L585 138 Q574 114 553.5 87 Q533 60 501 37.5 Q469 15 424 0 Q379 -15 320 -15 Q261 -15 216 0 Q171 15 138.5 37.5 Q106 60 85.5 87 Q65 114 54 138 L54 700 L217 700 L217 169 Q227 146 252.5 128 Q278 110 320 110 Q361 110 386 128 Q411 146 422 169 L422 700 L585 700 Z M138 853 Q145 860 161.5 871 Q178 882 212 882 Q246 882 262.5 871 Q279 860 285 853 L285 777 Q279 769 262.5 758 Q246 747 212 747 Q178 747 161.5 758.5 Q145 770 138 777 L138 853 Z M355 853 Q362 860 378.5 871 Q395 882 429 882 Q463 882 479.5 871 Q496 860 502 853 L502 777 Q496 769 479.5 758 Q463 747 429 747 Q395 747 378.5 758.5 Q362 770 355 777 L355 853 Z " />
<glyph glyph-name="Umacron" unicode="&#x16a;" horiz-adv-x="639" d="M585 700 L585 138 Q574 114 553.5 87 Q533 60 501 37.5 Q469 15 424 0 Q379 -15 320 -15 Q261 -15 216 0 Q171 15 138.5 37.5 Q106 60 85.5 87 Q65 114 54 138 L54 700 L217 700 L217 169 Q227 146 252.5 128 Q278 110 320 110 Q361 110 386 128 Q411 146 422 169 L422 700 L585 700 Z M137 858 L504 858 L504 753 L137 753 L137 858 Z " />
<glyph glyph-name="Ubreve" unicode="&#x16c;" horiz-adv-x="639" d="M585 700 L585 138 Q574 114 553.5 87 Q533 60 501 37.5 Q469 15 424 0 Q379 -15 320 -15 Q261 -15 216 0 Q171 15 138.5 37.5 Q106 60 85.5 87 Q65 114 54 138 L54 700 L217 700 L217 169 Q227 146 252.5 128 Q278 110 320 110 Q361 110 386 128 Q411 146 422 169 L422 700 L585 700 Z M146 870 L256 870 L256 842 Q260 833 275 821 Q290 809 320 809 Q350 809 365 821 Q380 833 384 842 L384 870 L494 870 L494 822 Q485 802 470.5 785 Q456 768 435 754.5 Q414 741 385.5 733.5 Q357 726 320 726 Q283 726 254.5 733.5 Q226 741 205 754.5 Q184 768 169.5 785 Q155 802 146 822 L146 870 Z " />
<glyph glyph-name="Uring" unicode="&#x16e;" horiz-adv-x="639" d="M585 700 L585 138 Q574 114 553.5 87 Q533 60 501 37.5 Q469 15 424 0 Q379 -15 320 -15 Q261 -15 216 0 Q171 15 138.5 37.5 Q106 60 85.5 87 Q65 114 54 138 L54 700 L217 700 L217 169 Q227 146 252.5 128 Q278 110 320 110 Q361 110 386 128 Q411 146 422 169 L422 700 L585 700 Z M270 763 Q275 755 287.5 747.5 Q300 740 322 740 Q344 740 356 747.5 Q368 755 373 763 L373 822 Q368 830 356 837.5 Q344 845 322 845 Q300 845 287.5 837.5 Q275 830 270 822 L270 763 Z M198 838 Q213 867 245.5 885.5 Q278 904 322 904 Q365 904 397.5 885.5 Q430 867 445 838 L445 747 Q430 718 397.5 699.5 Q365 681 322 681 Q278 681 245.5 699.5 Q213 718 198 747 L198 838 Z " />
<glyph glyph-name="Uhungarumlaut" unicode="&#x170;" horiz-adv-x="639" d="M585 700 L585 138 Q574 114 553.5 87 Q533 60 501 37.5 Q469 15 424 0 Q379 -15 320 -15 Q261 -15 216 0 Q171 15 138.5 37.5 Q106 60 85.5 87 Q65 114 54 138 L54 700 L217 700 L217 169 Q227 146 252.5 128 Q278 110 320 110 Q361 110 386 128 Q411 146 422 169 L422 700 L585 700 Z M166 754 L201 899 L322 899 L322 846 L264 738 L166 738 L166 754 Z M363 754 L397 899 L518 899 L518 846 L460 738 L363 738 L363 754 Z " />
<glyph glyph-name="Uogonek" unicode="&#x172;" horiz-adv-x="639" d="M297 -110 Q303 -95 321 -68 Q339 -41 370 -12 Q346 -15 320 -15 Q261 -15 216 0 Q171 15 138.5 37.5 Q106 60 85.5 87 Q65 114 54 138 L54 700 L217 700 L217 169 Q227 146 252.5 128 Q278 110 320 110 Q361 110 386 128 Q411 146 422 169 L422 700 L586 700 L586 138 Q576 117 560.5 94 Q545 71 522 48 Q489 15 467 -12.5 Q445 -40 432.5 -60.5 Q420 -81 414 -94 Q408 -107 406 -113 L406 -139 Q410 -147 422 -152 Q434 -157 450 -157 Q464 -157 476 -154.5 Q488 -152 503 -147 L503 -224 Q489 -231 472.5 -235 Q456 -239 424 -239 Q382 -239 346.5 -227 Q311 -215 297 -186 L297 -110 Z " />
<glyph glyph-name="Wgrave" unicode="&#x1e80;" horiz-adv-x="923" d="M20 610 L20 700 L175 700 L255 214 L273 214 L380 700 L526 700 L633 214 L652 214 L730 700 L887 700 L887 610 L767 0 L550 0 L456 389 L438 389 L344 0 L140 0 L20 610 Z M314 840 L314 904 L462 904 L514 759 L514 744 L395 744 L314 840 Z " />
<glyph glyph-name="Wacute" unicode="&#x1e82;" horiz-adv-x="923" d="M20 610 L20 700 L175 700 L255 214 L273 214 L380 700 L526 700 L633 214 L652 214 L730 700 L887 700 L887 610 L767 0 L550 0 L456 389 L438 389 L344 0 L140 0 L20 610 Z M389 759 L441 904 L589 904 L589 840 L509 744 L389 744 L389 759 Z " />
<glyph glyph-name="Wcircumflex" unicode="&#x174;" horiz-adv-x="923" d="M20 610 L20 700 L175 700 L255 214 L273 214 L380 700 L526 700 L633 214 L652 214 L730 700 L887 700 L887 610 L767 0 L550 0 L456 389 L438 389 L344 0 L140 0 L20 610 Z M279 759 L358 904 L552 904 L631 759 L631 744 L523 744 L455 833 L387 744 L279 744 L279 759 Z " />
<glyph glyph-name="Wdieresis" unicode="&#x1e84;" horiz-adv-x="923" d="M20 610 L20 700 L175 700 L255 214 L273 214 L380 700 L526 700 L633 214 L652 214 L730 700 L887 700 L887 610 L767 0 L550 0 L456 389 L438 389 L344 0 L140 0 L20 610 Z M268 850 Q275 857 291.5 868 Q308 879 342 879 Q376 879 392.5 868 Q409 857 415 850 L415 774 Q409 766 392.5 755 Q376 744 342 744 Q308 744 291.5 755.5 Q275 767 268 774 L268 850 Z M485 850 Q492 857 508.5 868 Q525 879 559 879 Q593 879 609.5 868 Q626 857 632 850 L632 774 Q626 766 609.5 755 Q593 744 559 744 Q525 744 508.5 755.5 Q492 767 485 774 L485 850 Z " />
<glyph glyph-name="Ygrave" unicode="&#x1ef2;" horiz-adv-x="579" d="M203 291 L27 610 L27 700 L174 700 L286 460 L305 460 L418 700 L552 700 L552 610 L366 275 L366 0 L203 0 L203 291 Z M160 840 L160 904 L308 904 L360 759 L360 744 L241 744 L160 840 Z " />
<glyph glyph-name="Yacute" unicode="&#xdd;" horiz-adv-x="579" d="M203 291 L27 610 L27 700 L174 700 L286 460 L305 460 L418 700 L552 700 L552 610 L366 275 L366 0 L203 0 L203 291 Z M229 759 L281 904 L429 904 L429 840 L349 744 L229 744 L229 759 Z " />
<glyph glyph-name="Ycircumflex" unicode="&#x176;" horiz-adv-x="579" d="M203 291 L27 610 L27 700 L174 700 L286 460 L305 460 L418 700 L552 700 L552 610 L366 275 L366 0 L203 0 L203 291 Z M118 759 L197 904 L391 904 L470 759 L470 744 L362 744 L294 833 L226 744 L118 744 L118 759 Z " />
<glyph glyph-name="Ydieresis" unicode="&#x178;" horiz-adv-x="579" d="M203 291 L27 610 L27 700 L174 700 L286 460 L305 460 L418 700 L552 700 L552 610 L366 275 L366 0 L203 0 L203 291 Z M112 850 Q119 857 135.5 868 Q152 879 186 879 Q220 879 236.5 868 Q253 857 259 850 L259 774 Q253 766 236.5 755 Q220 744 186 744 Q152 744 135.5 755.5 Q119 767 112 774 L112 850 Z M329 850 Q336 857 352.5 868 Q369 879 403 879 Q437 879 453.5 868 Q470 857 476 850 L476 774 Q470 766 453.5 755 Q437 744 403 744 Q369 744 352.5 755.5 Q336 767 329 774 L329 850 Z " />
<glyph glyph-name="Zacute" unicode="&#x179;" horiz-adv-x="557" d="M35 102 L316 563 L316 579 L40 579 L40 700 L522 700 L522 598 L240 138 L240 121 L522 121 L522 0 L35 0 L35 102 Z M216 759 L268 904 L416 904 L416 840 L336 744 L216 744 L216 759 Z " />
<glyph glyph-name="Zcaron" unicode="&#x17d;" horiz-adv-x="557" d="M35 102 L316 563 L316 579 L40 579 L40 700 L522 700 L522 598 L240 138 L240 121 L522 121 L522 0 L35 0 L35 102 Z M118 889 L118 904 L226 904 L294 815 L362 904 L470 904 L470 889 L391 744 L197 744 L118 889 Z " />
<glyph glyph-name="Zdotaccent" unicode="&#x17b;" horiz-adv-x="557" d="M35 102 L316 563 L316 579 L40 579 L40 700 L522 700 L522 598 L240 138 L240 121 L522 121 L522 0 L35 0 L35 102 Z M210 850 Q217 865 236 878.5 Q255 892 290 892 Q325 892 344.5 878.5 Q364 865 370 850 L370 792 Q364 777 344.5 763.5 Q325 750 290 750 Q255 750 236 763.5 Q217 777 210 792 L210 850 Z " />
<glyph glyph-name="Eng" unicode="&#x14a;" horiz-adv-x="668" d="M57 700 L241 700 L443 270 L460 270 L460 700 L612 700 L612 -31 Q600 -59 577 -85 Q554 -111 520.5 -131.5 Q487 -152 443.5 -164 Q400 -176 346 -176 Q332 -176 321.5 -175.5 Q311 -175 305 -174 L305 -57 Q310 -58 322.5 -58.5 Q335 -59 344 -59 Q376 -59 400 -48 Q424 -37 438 -20 L227 426 L209 426 L209 0 L57 0 L57 700 Z " />
<glyph glyph-name="Eth" unicode="&#xd0;" horiz-adv-x="656" d="M31 416 L73 416 L73 700 L366 700 Q415 700 453 687.5 Q491 675 520 655.5 Q549 636 568.5 611.5 Q588 587 599 562 L599 138 Q588 113 568.5 88.5 Q549 64 520 44.5 Q491 25 453 12.5 Q415 0 366 0 L73 0 L73 295 L31 295 L31 416 Z M435 524 Q425 547 399 563 Q373 579 333 579 L237 579 L237 416 L347 416 L347 295 L237 295 L237 121 L333 121 Q373 121 399 137 Q425 153 435 176 L435 524 Z " />
<glyph glyph-name="Thorn" unicode="&#xde;" horiz-adv-x="593" d="M57 700 L220 700 L220 599 L349 599 Q415 599 470.5 568.5 Q526 538 559 480 L559 250 Q546 226 526 204 Q506 182 479.5 165.5 Q453 149 420 139.5 Q387 130 349 130 L220 130 L220 0 L57 0 L57 700 Z M312 251 Q342 251 365.5 263.5 Q389 276 402 299 L402 430 Q388 456 363 467 Q338 478 311 478 L220 478 L220 251 L312 251 Z " />
<glyph glyph-name="uni018F" unicode="&#x18f;" horiz-adv-x="617" d="M406 384 L406 531 Q395 555 370 573 Q345 591 304 591 Q262 591 236.5 573 Q211 555 201 531 L201 459 L44 459 L44 574 Q54 595 74 619.5 Q94 644 125.5 665 Q157 686 201 700.5 Q245 715 304 715 Q363 715 408 700 Q453 685 485.5 662.5 Q518 640 538.5 613 Q559 586 570 562 L570 138 Q559 114 538 87 Q517 60 485 37.5 Q453 15 408 0 Q363 -15 304 -15 Q244 -15 200 -0.5 Q156 14 125 35.5 Q94 57 74.5 81.5 Q55 106 44 126 L44 384 L406 384 Z M301 110 Q342 110 369 128 Q396 146 406 169 L406 275 L196 275 L196 165 Q207 144 232.5 127 Q258 110 301 110 Z " />
<glyph glyph-name="a" unicode="a" horiz-adv-x="557" d="M367 40 Q341 17 303.5 1 Q266 -15 214 -15 Q173 -15 143 -5.5 Q113 4 91.5 17.5 Q70 31 57.5 45 Q45 59 40 69 L40 231 Q46 242 58.5 257.5 Q71 273 92.5 287.5 Q114 302 146 312.5 Q178 323 222 323 Q267 323 302 312 Q337 301 360 284 L360 393 Q350 413 328 428 Q306 443 272 443 Q238 443 218.5 430 Q199 417 191 406 L191 366 L51 366 L51 453 Q57 462 72.5 479.5 Q88 497 114.5 514.5 Q141 532 180 544.5 Q219 557 272 557 Q325 557 365.5 544 Q406 531 435.5 510.5 Q465 490 483.5 466 Q502 442 511 421 L511 0 L367 0 L367 40 Z M268 91 Q301 91 324 100.5 Q347 110 360 124 L360 186 Q347 200 323.5 210.5 Q300 221 268 221 Q233 221 214 209.5 Q195 198 188 189 L188 122 Q195 114 214 102.5 Q233 91 268 91 Z " />
<glyph glyph-name="b" unicode="b" horiz-adv-x="561" d="M48 700 L199 700 L199 505 Q222 527 256.5 540.5 Q291 554 339 554 Q379 554 410 541.5 Q441 529 463 510.5 Q485 492 498.5 470.5 Q512 449 519 431 L519 112 Q512 94 498.5 72.5 Q485 51 463 32.5 Q441 14 410 1.5 Q379 -11 339 -11 Q287 -11 250.5 5 Q214 21 191 45 L191 0 L48 0 L48 700 Z M285 440 Q254 440 232.5 430.5 Q211 421 199 407 L199 135 Q211 121 233 112 Q255 103 286 103 Q321 103 341 117.5 Q361 132 368 143 L368 400 Q361 412 340.5 426 Q320 440 285 440 Z " />
<glyph glyph-name="c" unicode="c" horiz-adv-x="542" d="M42 421 Q51 442 69.5 466 Q88 490 117 510.5 Q146 531 186.5 544 Q227 557 280 557 Q333 557 372.5 544 Q412 531 440 513 Q468 495 484.5 475 Q501 455 509 441 L509 329 L369 329 L369 393 Q361 413 338 428 Q315 443 280 443 Q246 443 224 428 Q202 413 193 393 L193 149 Q202 130 224 115 Q246 100 280 100 Q315 100 338 115 Q361 130 369 149 L369 214 L509 214 L509 102 Q502 88 485.5 68.5 Q469 49 441 30 Q413 11 373 -2 Q333 -15 280 -15 Q227 -15 186.5 -2 Q146 11 117 31.5 Q88 52 69.5 76 Q51 100 42 121 L42 421 Z " />
<glyph glyph-name="d" unicode="d" horiz-adv-x="560" d="M370 45 Q346 21 310 5 Q274 -11 222 -11 Q181 -11 150.5 1.5 Q120 14 98 32.5 Q76 51 62.5 72.5 Q49 94 42 112 L42 431 Q49 449 62.5 470.5 Q76 492 98 510.5 Q120 529 150.5 541.5 Q181 554 222 554 Q269 554 303 540.5 Q337 527 361 506 L361 700 L512 700 L512 0 L370 0 L370 45 Z M276 103 Q305 103 326.5 112 Q348 121 361 134 L361 408 Q348 422 326.5 431 Q305 440 275 440 Q240 440 220 425.5 Q200 411 193 400 L193 143 Q200 131 220.5 117 Q241 103 276 103 Z " />
<glyph glyph-name="e" unicode="e" horiz-adv-x="548" d="M42 421 Q51 442 69.5 466 Q88 490 117 510.5 Q146 531 186.5 544 Q227 557 280 557 Q333 557 372.5 544 Q412 531 440 513 Q468 495 484.5 475 Q501 455 509 442 L509 229 L193 229 L193 149 Q202 130 224 115 Q246 100 280 100 Q315 100 338 115 Q361 130 369 149 L369 179 L509 179 L509 100 Q501 86 484.5 66.5 Q468 47 440 29 Q412 11 372.5 -2 Q333 -15 280 -15 Q227 -15 186.5 -2 Q146 11 117 31.5 Q88 52 69.5 76 Q51 100 42 121 L42 421 Z M193 327 L369 327 L369 393 Q361 413 338 428 Q315 443 280 443 Q246 443 224 428 Q202 413 193 393 L193 327 Z " />
<glyph glyph-name="f" unicode="f" horiz-adv-x="364" d="M24 543 L76 543 L76 634 Q82 650 94.5 667 Q107 684 128 697.5 Q149 711 180 720 Q211 729 253 729 Q286 729 310 725 Q334 721 344 717 L344 614 Q340 614 330.5 615 Q321 616 309 616 Q287 616 272.5 612.5 Q258 609 248.5 604 Q239 599 234 593.5 Q229 588 227 584 L227 543 L344 543 L344 433 L227 433 L227 0 L76 0 L76 433 L24 433 L24 543 Z " />
<glyph glyph-name="g" unicode="g" horiz-adv-x="560" d="M47 29 L193 29 L193 -17 Q200 -28 219.5 -41.5 Q239 -55 273 -55 Q308 -55 330 -42 Q352 -29 361 -9 L361 115 Q337 94 303 81 Q269 68 222 68 Q181 68 150.5 80.5 Q120 93 98 111.5 Q76 130 62.5 151.5 Q49 173 42 191 L42 431 Q49 449 62.5 470.5 Q76 492 98 510.5 Q120 529 150.5 541.5 Q181 554 222 554 Q273 554 308 539 Q343 524 367 501 L367 543 L512 543 L512 -37 Q502 -59 483.5 -82 Q465 -105 436 -124 Q407 -143 367 -155.5 Q327 -168 273 -168 Q220 -168 181 -155.5 Q142 -143 115 -125 Q88 -107 71.5 -87.5 Q55 -68 47 -54 L47 29 Z M276 182 Q305 182 326.5 191 Q348 200 361 213 L361 408 Q348 422 326.5 431 Q305 440 275 440 Q240 440 220 425.5 Q200 411 193 400 L193 222 Q200 210 220.5 196 Q241 182 276 182 Z " />
<glyph glyph-name="h" unicode="h" horiz-adv-x="565" d="M368 0 L368 400 Q361 412 340.5 426 Q320 440 285 440 Q254 440 232.5 430.5 Q211 421 199 407 L199 0 L48 0 L48 700 L199 700 L199 505 Q222 527 256.5 540.5 Q291 554 339 554 Q379 554 410 541.5 Q441 529 463 510.5 Q485 492 498.5 470 Q512 448 519 430 L519 0 L368 0 Z " />
<glyph glyph-name="i" unicode="i" horiz-adv-x="249" d="M45 704 Q52 719 71 732 Q90 745 125 745 Q160 745 179 732 Q198 719 204 704 L204 645 Q198 630 179 617 Q160 604 125 604 Q90 604 71 617 Q52 630 45 645 L45 704 Z M49 543 L200 543 L200 0 L49 0 L49 543 Z " />
<glyph glyph-name="j" unicode="j" horiz-adv-x="249" d="M-39 -56 Q-5 -56 17.5 -39 Q40 -22 48 1 L48 543 L199 543 L199 -32 Q190 -53 171.5 -77.5 Q153 -102 124 -122 Q95 -142 54.5 -155.5 Q14 -169 -39 -169 L-39 -56 Z M43 704 Q50 719 69.5 732 Q89 745 123 745 Q158 745 178 732 Q198 719 204 704 L204 645 Q198 630 178 617 Q158 604 123 604 Q89 604 69.5 617 Q50 630 43 645 L43 704 Z " />
<glyph glyph-name="k" unicode="k" horiz-adv-x="523" d="M48 700 L199 700 L199 351 L217 351 L394 543 L496 543 L496 460 L347 306 L503 83 L503 0 L385 0 L245 204 L199 154 L199 0 L48 0 L48 700 Z " />
<glyph glyph-name="l" unicode="l" horiz-adv-x="247" d="M48 700 L199 700 L199 0 L48 0 L48 700 Z " />
<glyph glyph-name="m" unicode="m" horiz-adv-x="830" d="M341 0 L341 405 Q335 416 319 428 Q303 440 272 440 Q245 440 227.5 431.5 Q210 423 199 410 L199 0 L48 0 L48 543 L189 543 L189 497 Q210 521 243 537.5 Q276 554 326 554 Q379 554 412.5 532.5 Q446 511 466 484 Q489 513 525 533.5 Q561 554 615 554 Q655 554 684 542 Q713 530 733 512 Q753 494 765.5 473 Q778 452 784 434 L784 0 L633 0 L633 405 Q627 416 611.5 428 Q596 440 564 440 Q538 440 520.5 431.5 Q503 423 492 411 L492 0 L341 0 Z " />
<glyph glyph-name="n" unicode="n" horiz-adv-x="565" d="M368 0 L368 400 Q361 412 340.5 426 Q320 440 285 440 Q254 440 232.5 430.5 Q211 421 199 407 L199 0 L48 0 L48 543 L187 543 L187 493 Q210 519 247.5 536.5 Q285 554 339 554 Q379 554 410 541.5 Q441 529 463 510.5 Q485 492 498.5 470.5 Q512 449 519 431 L519 0 L368 0 Z " />
<glyph glyph-name="o" unicode="o" horiz-adv-x="562" d="M42 421 Q51 442 69.5 466 Q88 490 117.5 510.5 Q147 531 187.5 544 Q228 557 281 557 Q334 557 374.5 544 Q415 531 444.5 510.5 Q474 490 492.5 466 Q511 442 520 421 L520 121 Q511 100 492.5 76 Q474 52 444.5 31.5 Q415 11 374.5 -2 Q334 -15 281 -15 Q228 -15 187.5 -2 Q147 11 117.5 31.5 Q88 52 69.5 76 Q51 100 42 121 L42 421 Z M193 149 Q202 130 224 115 Q246 100 281 100 Q316 100 338.5 115 Q361 130 369 149 L369 393 Q361 413 338.5 428 Q316 443 281 443 Q246 443 224 428 Q202 413 193 393 L193 149 Z " />
<glyph glyph-name="p" unicode="p" horiz-adv-x="561" d="M48 543 L191 543 L191 498 Q214 522 250.5 538 Q287 554 339 554 Q379 554 410 541.5 Q441 529 463 510.5 Q485 492 498.5 470.5 Q512 449 519 431 L519 112 Q512 94 498.5 72.5 Q485 51 463 32.5 Q441 14 410 1.5 Q379 -11 339 -11 Q291 -11 256.5 2.5 Q222 16 199 37 L199 -157 L48 -157 L48 543 Z M285 440 Q254 440 232.5 430.5 Q211 421 199 407 L199 136 Q211 122 233 112.5 Q255 103 286 103 Q321 103 341 117.5 Q361 132 368 143 L368 400 Q361 412 340.5 426 Q320 440 285 440 Z " />
<glyph glyph-name="q" unicode="q" horiz-adv-x="560" d="M361 36 Q337 15 303 2 Q269 -11 222 -11 Q181 -11 150.5 1.5 Q120 14 98 32.5 Q76 51 62.5 72.5 Q49 94 42 112 L42 431 Q49 449 62.5 470.5 Q76 492 98 510.5 Q120 529 150.5 541.5 Q181 554 222 554 Q274 554 310 538 Q346 522 370 498 L370 543 L512 543 L512 -157 L361 -157 L361 36 Z M276 103 Q305 103 326.5 112 Q348 121 361 134 L361 408 Q348 422 326.5 431 Q305 440 275 440 Q240 440 220 425.5 Q200 411 193 400 L193 143 Q200 131 220.5 117 Q241 103 276 103 Z " />
<glyph glyph-name="r" unicode="r" horiz-adv-x="381" d="M48 543 L189 543 L189 468 Q209 499 244.5 521 Q280 543 339 543 Q342 543 346.5 543 Q351 543 359 542 L359 408 Q351 409 345 409 Q339 409 334 409 Q282 409 248.5 397.5 Q215 386 199 371 L199 0 L48 0 L48 543 Z " />
<glyph glyph-name="s" unicode="s" horiz-adv-x="521" d="M40 175 L180 175 L180 131 Q188 118 208.5 106 Q229 94 260 94 Q292 94 312.5 106 Q333 118 342 131 L342 178 Q335 191 317.5 199.5 Q300 208 275 213 L219 224 Q176 232 145 243.5 Q114 255 92.5 268 Q71 281 58.5 293 Q46 305 40 315 L40 453 Q47 464 63 482 Q79 500 106 516.5 Q133 533 171.5 545 Q210 557 261 557 Q313 557 351 545 Q389 533 415.5 516 Q442 499 458 481.5 Q474 464 482 453 L482 371 L342 371 L342 411 Q333 425 312.5 436.5 Q292 448 260 448 Q229 448 208.5 436.5 Q188 425 180 411 L180 370 Q187 357 205 349 Q223 341 247 336 L304 324 Q347 315 378 303.5 Q409 292 430 280 Q451 268 463.5 256 Q476 244 482 235 L482 90 Q474 78 457.5 60 Q441 42 414.5 25.5 Q388 9 349.5 -3 Q311 -15 260 -15 Q209 -15 171 -3 Q133 9 106 26 Q79 43 63 60.5 Q47 78 40 90 L40 175 Z " />
<glyph glyph-name="t" unicode="t" horiz-adv-x="364" d="M24 543 L76 543 L76 655 L227 655 L227 543 L344 543 L344 433 L227 433 L227 133 Q233 124 250 112.5 Q267 101 309 101 Q334 101 344 103 L344 0 Q333 -3 310.5 -7.5 Q288 -12 253 -12 Q211 -12 180 -3 Q149 6 128 19.5 Q107 33 94.5 50 Q82 67 76 83 L76 433 L24 433 L24 543 Z " />
<glyph glyph-name="u" unicode="u" horiz-adv-x="559" d="M197 543 L197 143 Q204 131 223 117 Q242 103 277 103 Q307 103 327.5 112 Q348 121 360 135 L360 543 L511 543 L511 0 L373 0 L373 49 Q350 23 313.5 6 Q277 -11 223 -11 Q182 -11 152 1 Q122 13 100.5 31.5 Q79 50 66 71.5 Q53 93 46 111 L46 543 L197 543 Z " />
<glyph glyph-name="v" unicode="v" horiz-adv-x="536" d="M28 460 L28 543 L172 543 L267 170 L284 170 L380 543 L508 543 L508 460 L367 0 L169 0 L28 460 Z " />
<glyph glyph-name="w" unicode="w" horiz-adv-x="799" d="M31 460 L31 543 L175 543 L243 168 L260 168 L341 543 L475 543 L555 168 L572 168 L641 543 L768 543 L768 460 L657 0 L479 0 L412 292 L398 292 L330 0 L143 0 L31 460 Z " />
<glyph glyph-name="x" unicode="x" horiz-adv-x="515" d="M30 83 L151 272 L30 460 L30 543 L165 543 L253 363 L262 363 L349 543 L486 543 L486 460 L364 272 L486 83 L486 0 L350 0 L262 179 L253 179 L165 0 L30 0 L30 83 Z " />
<glyph glyph-name="y" unicode="y" horiz-adv-x="529" d="M197 12 L31 459 L31 543 L175 543 L261 212 L279 212 L364 543 L498 543 L498 460 L322 -92 Q297 -122 248.5 -146 Q200 -170 127 -170 Q101 -170 77.5 -167 Q54 -164 42 -160 L42 -56 Q52 -57 69 -57.5 Q86 -58 94 -58 Q128 -58 152 -47 Q176 -36 187 -25 L197 12 Z " />
<glyph glyph-name="z" unicode="z" horiz-adv-x="477" d="M28 102 L262 421 L262 433 L28 433 L28 543 L449 543 L449 447 L208 121 L208 110 L449 110 L449 0 L28 0 L28 102 Z " />
<glyph glyph-name="agrave" unicode="&#xe0;" horiz-adv-x="556" d="M367 40 Q341 17 303.5 1 Q266 -15 214 -15 Q173 -15 143 -5.5 Q113 4 91.5 17.5 Q70 31 57.5 45 Q45 59 40 69 L40 231 Q46 242 58.5 257.5 Q71 273 92.5 287.5 Q114 302 146 312.5 Q178 323 222 323 Q267 323 302 312 Q337 301 360 284 L360 393 Q350 413 328 428 Q306 443 272 443 Q238 443 218.5 430 Q199 417 191 406 L191 366 L51 366 L51 453 Q57 462 72.5 479.5 Q88 497 114.5 514.5 Q141 532 180 544.5 Q219 557 272 557 Q325 557 365.5 544 Q406 531 435.5 510.5 Q465 490 483.5 466 Q502 442 511 421 L511 0 L367 0 L367 40 Z M268 91 Q301 91 324 100.5 Q347 110 360 124 L360 186 Q347 200 323.5 210.5 Q300 221 268 221 Q233 221 214 209.5 Q195 198 188 189 L188 122 Q195 114 214 102.5 Q233 91 268 91 Z M141 702 L141 766 L289 766 L341 612 L341 597 L222 597 L141 702 Z " />
<glyph glyph-name="aacute" unicode="&#xe1;" horiz-adv-x="556" d="M367 40 Q341 17 303.5 1 Q266 -15 214 -15 Q173 -15 143 -5.5 Q113 4 91.5 17.5 Q70 31 57.5 45 Q45 59 40 69 L40 231 Q46 242 58.5 257.5 Q71 273 92.5 287.5 Q114 302 146 312.5 Q178 323 222 323 Q267 323 302 312 Q337 301 360 284 L360 393 Q350 413 328 428 Q306 443 272 443 Q238 443 218.5 430 Q199 417 191 406 L191 366 L51 366 L51 453 Q57 462 72.5 479.5 Q88 497 114.5 514.5 Q141 532 180 544.5 Q219 557 272 557 Q325 557 365.5 544 Q406 531 435.5 510.5 Q465 490 483.5 466 Q502 442 511 421 L511 0 L367 0 L367 40 Z M268 91 Q301 91 324 100.5 Q347 110 360 124 L360 186 Q347 200 323.5 210.5 Q300 221 268 221 Q233 221 214 209.5 Q195 198 188 189 L188 122 Q195 114 214 102.5 Q233 91 268 91 Z M215 612 L267 766 L415 766 L415 702 L335 597 L215 597 L215 612 Z " />
<glyph glyph-name="acircumflex" unicode="&#xe2;" horiz-adv-x="556" d="M367 40 Q341 17 303.5 1 Q266 -15 214 -15 Q173 -15 143 -5.5 Q113 4 91.5 17.5 Q70 31 57.5 45 Q45 59 40 69 L40 231 Q46 242 58.5 257.5 Q71 273 92.5 287.5 Q114 302 146 312.5 Q178 323 222 323 Q267 323 302 312 Q337 301 360 284 L360 393 Q350 413 328 428 Q306 443 272 443 Q238 443 218.5 430 Q199 417 191 406 L191 366 L51 366 L51 453 Q57 462 72.5 479.5 Q88 497 114.5 514.5 Q141 532 180 544.5 Q219 557 272 557 Q325 557 365.5 544 Q406 531 435.5 510.5 Q465 490 483.5 466 Q502 442 511 421 L511 0 L367 0 L367 40 Z M268 91 Q301 91 324 100.5 Q347 110 360 124 L360 186 Q347 200 323.5 210.5 Q300 221 268 221 Q233 221 214 209.5 Q195 198 188 189 L188 122 Q195 114 214 102.5 Q233 91 268 91 Z M105 609 L184 763 L378 763 L457 609 L457 594 L349 594 L281 692 L213 594 L105 594 L105 609 Z " />
<glyph glyph-name="atilde" unicode="&#xe3;" horiz-adv-x="556" d="M367 40 Q341 17 303.5 1 Q266 -15 214 -15 Q173 -15 143 -5.5 Q113 4 91.5 17.5 Q70 31 57.5 45 Q45 59 40 69 L40 231 Q46 242 58.5 257.5 Q71 273 92.5 287.5 Q114 302 146 312.5 Q178 323 222 323 Q267 323 302 312 Q337 301 360 284 L360 393 Q350 413 328 428 Q306 443 272 443 Q238 443 218.5 430 Q199 417 191 406 L191 366 L51 366 L51 453 Q57 462 72.5 479.5 Q88 497 114.5 514.5 Q141 532 180 544.5 Q219 557 272 557 Q325 557 365.5 544 Q406 531 435.5 510.5 Q465 490 483.5 466 Q502 442 511 421 L511 0 L367 0 L367 40 Z M268 91 Q301 91 324 100.5 Q347 110 360 124 L360 186 Q347 200 323.5 210.5 Q300 221 268 221 Q233 221 214 209.5 Q195 198 188 189 L188 122 Q195 114 214 102.5 Q233 91 268 91 Z M476 680 Q468 650 439 625.5 Q410 601 361 601 Q330 601 309.5 609 Q289 617 273.5 626 Q258 635 244 643 Q230 651 213 651 Q195 651 185.5 643 Q176 635 173 627 L173 606 L84 606 L84 666 Q92 698 121.5 721.5 Q151 745 199 745 Q229 745 249.5 737 Q270 729 286 720 Q302 711 316 703 Q330 695 347 695 Q379 695 387 720 L387 740 L476 740 L476 680 Z " />
<glyph glyph-name="adieresis" unicode="&#xe4;" horiz-adv-x="556" d="M367 40 Q341 17 303.5 1 Q266 -15 214 -15 Q173 -15 143 -5.5 Q113 4 91.5 17.5 Q70 31 57.5 45 Q45 59 40 69 L40 231 Q46 242 58.5 257.5 Q71 273 92.5 287.5 Q114 302 146 312.5 Q178 323 222 323 Q267 323 302 312 Q337 301 360 284 L360 393 Q350 413 328 428 Q306 443 272 443 Q238 443 218.5 430 Q199 417 191 406 L191 366 L51 366 L51 453 Q57 462 72.5 479.5 Q88 497 114.5 514.5 Q141 532 180 544.5 Q219 557 272 557 Q325 557 365.5 544 Q406 531 435.5 510.5 Q465 490 483.5 466 Q502 442 511 421 L511 0 L367 0 L367 40 Z M268 91 Q301 91 324 100.5 Q347 110 360 124 L360 186 Q347 200 323.5 210.5 Q300 221 268 221 Q233 221 214 209.5 Q195 198 188 189 L188 122 Q195 114 214 102.5 Q233 91 268 91 Z M103 712 Q109 719 126 730.5 Q143 742 176 742 Q211 742 227.5 730.5 Q244 719 250 712 L250 632 Q244 624 227.5 613 Q211 602 176 602 Q143 602 126 613 Q109 624 103 632 L103 712 Z M323 712 Q329 719 345.5 730.5 Q362 742 396 742 Q430 742 447 730.5 Q464 719 469 712 L469 632 Q464 624 447 613 Q430 602 396 602 Q362 602 345.5 613 Q329 624 323 632 L323 712 Z " />
<glyph glyph-name="amacron" unicode="&#x101;" horiz-adv-x="556" d="M367 40 Q341 17 303.5 1 Q266 -15 214 -15 Q173 -15 143 -5.5 Q113 4 91.5 17.5 Q70 31 57.5 45 Q45 59 40 69 L40 231 Q46 242 58.5 257.5 Q71 273 92.5 287.5 Q114 302 146 312.5 Q178 323 222 323 Q267 323 302 312 Q337 301 360 284 L360 393 Q350 413 328 428 Q306 443 272 443 Q238 443 218.5 430 Q199 417 191 406 L191 366 L51 366 L51 453 Q57 462 72.5 479.5 Q88 497 114.5 514.5 Q141 532 180 544.5 Q219 557 272 557 Q325 557 365.5 544 Q406 531 435.5 510.5 Q465 490 483.5 466 Q502 442 511 421 L511 0 L367 0 L367 40 Z M268 91 Q301 91 324 100.5 Q347 110 360 124 L360 186 Q347 200 323.5 210.5 Q300 221 268 221 Q233 221 214 209.5 Q195 198 188 189 L188 122 Q195 114 214 102.5 Q233 91 268 91 Z M96 728 L463 728 L463 623 L96 623 L96 728 Z " />
<glyph glyph-name="abreve" unicode="&#x103;" horiz-adv-x="556" d="M367 40 Q341 17 303.5 1 Q266 -15 214 -15 Q173 -15 143 -5.5 Q113 4 91.5 17.5 Q70 31 57.5 45 Q45 59 40 69 L40 231 Q46 242 58.5 257.5 Q71 273 92.5 287.5 Q114 302 146 312.5 Q178 323 222 323 Q267 323 302 312 Q337 301 360 284 L360 393 Q350 413 328 428 Q306 443 272 443 Q238 443 218.5 430 Q199 417 191 406 L191 366 L51 366 L51 453 Q57 462 72.5 479.5 Q88 497 114.5 514.5 Q141 532 180 544.5 Q219 557 272 557 Q325 557 365.5 544 Q406 531 435.5 510.5 Q465 490 483.5 466 Q502 442 511 421 L511 0 L367 0 L367 40 Z M268 91 Q301 91 324 100.5 Q347 110 360 124 L360 186 Q347 200 323.5 210.5 Q300 221 268 221 Q233 221 214 209.5 Q195 198 188 189 L188 122 Q195 114 214 102.5 Q233 91 268 91 Z M106 735 L216 735 L216 707 Q220 698 235 686 Q250 674 280 674 Q310 674 325 686 Q340 698 344 707 L344 735 L454 735 L454 686 Q445 667 430 649.5 Q415 632 394 619 Q373 606 345 598.5 Q317 591 280 591 Q243 591 215 598.5 Q187 606 166 619 Q145 632 130 649.5 Q115 667 106 686 L106 735 Z " />
<glyph glyph-name="aring" unicode="&#xe5;" horiz-adv-x="556" d="M367 40 Q341 17 303.5 1 Q266 -15 214 -15 Q173 -15 143 -5.5 Q113 4 91.5 17.5 Q70 31 57.5 45 Q45 59 40 69 L40 231 Q46 242 58.5 257.5 Q71 273 92.5 287.5 Q114 302 146 312.5 Q178 323 222 323 Q267 323 302 312 Q337 301 360 284 L360 393 Q350 413 328 428 Q306 443 272 443 Q238 443 218.5 430 Q199 417 191 406 L191 366 L51 366 L51 453 Q57 462 72.5 479.5 Q88 497 114.5 514.5 Q141 532 180 544.5 Q219 557 272 557 Q325 557 365.5 544 Q406 531 435.5 510.5 Q465 490 483.5 466 Q502 442 511 421 L511 0 L367 0 L367 40 Z M268 91 Q301 91 324 100.5 Q347 110 360 124 L360 186 Q347 200 323.5 210.5 Q300 221 268 221 Q233 221 214 209.5 Q195 198 188 189 L188 122 Q195 114 214 102.5 Q233 91 268 91 Z M232 665 Q236 657 248.5 649.5 Q261 642 283 642 Q305 642 317.5 649.5 Q330 657 334 665 L334 724 Q330 732 317.5 739.5 Q305 747 283 747 Q261 747 248.5 739.5 Q236 732 232 724 L232 665 Z M160 740 Q174 769 206.5 787.5 Q239 806 283 806 Q327 806 359.5 787.5 Q392 769 406 740 L406 649 Q392 620 359.5 601.5 Q327 583 283 583 Q239 583 206.5 601.5 Q174 620 160 649 L160 740 Z " />
<glyph glyph-name="aogonek" unicode="&#x105;" horiz-adv-x="557" d="M306 -110 Q310 -100 321.5 -83 Q333 -66 350.5 -47 Q368 -28 389 -9 Q395 -4 401 0 L367 0 L367 40 Q341 17 303.5 1 Q266 -15 214 -15 Q173 -15 143 -5.5 Q113 4 91.5 17.5 Q70 31 57.5 45 Q45 59 40 69 L40 231 Q46 242 58.5 257.5 Q71 273 92.5 287.5 Q114 302 146 312.5 Q178 323 222 323 Q267 323 302 312 Q337 301 360 284 L360 393 Q350 413 328 428 Q306 443 272 443 Q238 443 218.5 430 Q199 417 191 406 L191 366 L51 366 L51 453 Q57 462 72.5 479.5 Q88 497 114.5 514.5 Q141 532 180 544.5 Q219 557 272 557 Q325 557 365.5 544 Q406 531 435.5 510.5 Q465 490 483.5 466 Q502 442 511 421 L511 0 Q461 -45 440 -73.5 Q419 -102 414 -113 L414 -139 Q424 -157 458 -157 Q484 -157 511 -147 L511 -224 Q498 -231 481 -235 Q464 -239 432 -239 Q390 -239 355 -227 Q320 -215 306 -186 L306 -110 Z M268 91 Q301 91 324 100.5 Q347 110 360 124 L360 186 Q347 200 323.5 210.5 Q300 221 268 221 Q233 221 214 209.5 Q195 198 188 189 L188 122 Q195 114 214 102.5 Q233 91 268 91 Z " />
<glyph glyph-name="ae" unicode="&#xe6;" horiz-adv-x="866" d="M40 231 Q46 242 58.5 257.5 Q71 273 92.5 287.5 Q114 302 146 312.5 Q178 323 222 323 Q266 323 300 312.5 Q334 302 360 285 L360 393 Q350 413 328 428 Q306 443 272 443 Q238 443 218.5 430 Q199 417 191 406 L191 366 L51 366 L51 453 Q57 462 72.5 479.5 Q88 497 114.5 514.5 Q141 532 180 544.5 Q219 557 272 557 Q326 557 366 543.5 Q406 530 435 510 Q464 530 504 543.5 Q544 557 598 557 Q651 557 690.5 544 Q730 531 758 513 Q786 495 802.5 475 Q819 455 827 442 L827 229 L511 229 L511 149 Q520 130 542 115 Q564 100 598 100 Q633 100 656 115 Q679 130 687 149 L687 179 L827 179 L827 100 Q819 86 802.5 66.5 Q786 47 758 29 Q730 11 690.5 -2 Q651 -15 598 -15 Q532 -15 486 4 Q440 23 410 51 Q341 -15 229 -15 Q187 -15 154.5 -5.5 Q122 4 98 17.5 Q74 31 59.5 45 Q45 59 40 69 L40 231 Z M268 91 Q301 91 324 100 Q347 109 360 123 L360 186 Q347 200 323.5 210.5 Q300 221 268 221 Q233 221 214 209.5 Q195 198 188 189 L188 123 Q195 115 214 103 Q233 91 268 91 Z M511 327 L687 327 L687 393 Q679 413 656 428 Q633 443 598 443 Q564 443 542 428 Q520 413 511 393 L511 327 Z " />
<glyph glyph-name="aeacute" unicode="&#x1fd;" horiz-adv-x="866" d="M40 231 Q46 242 58.5 257.5 Q71 273 92.5 287.5 Q114 302 146 312.5 Q178 323 222 323 Q266 323 300 312.5 Q334 302 360 285 L360 393 Q350 413 328 428 Q306 443 272 443 Q238 443 218.5 430 Q199 417 191 406 L191 366 L51 366 L51 453 Q57 462 72.5 479.5 Q88 497 114.5 514.5 Q141 532 180 544.5 Q219 557 272 557 Q326 557 366 543.5 Q406 530 435 510 Q464 530 504 543.5 Q544 557 598 557 Q651 557 690.5 544 Q730 531 758 513 Q786 495 802.5 475 Q819 455 827 442 L827 229 L511 229 L511 149 Q520 130 542 115 Q564 100 598 100 Q633 100 656 115 Q679 130 687 149 L687 179 L827 179 L827 100 Q819 86 802.5 66.5 Q786 47 758 29 Q730 11 690.5 -2 Q651 -15 598 -15 Q532 -15 486 4 Q440 23 410 51 Q341 -15 229 -15 Q187 -15 154.5 -5.5 Q122 4 98 17.5 Q74 31 59.5 45 Q45 59 40 69 L40 231 Z M268 91 Q301 91 324 100 Q347 109 360 123 L360 186 Q347 200 323.5 210.5 Q300 221 268 221 Q233 221 214 209.5 Q195 198 188 189 L188 123 Q195 115 214 103 Q233 91 268 91 Z M511 327 L687 327 L687 393 Q679 413 656 428 Q633 443 598 443 Q564 443 542 428 Q520 413 511 393 L511 327 Z M381 612 L433 766 L581 766 L581 702 L501 597 L381 597 L381 612 Z " />
<glyph glyph-name="cacute" unicode="&#x107;" horiz-adv-x="542" d="M42 421 Q51 442 69.5 466 Q88 490 117 510.5 Q146 531 186.5 544 Q227 557 280 557 Q333 557 372.5 544 Q412 531 440 513 Q468 495 484.5 475 Q501 455 509 441 L509 329 L369 329 L369 393 Q361 413 338 428 Q315 443 280 443 Q246 443 224 428 Q202 413 193 393 L193 149 Q202 130 224 115 Q246 100 280 100 Q315 100 338 115 Q361 130 369 149 L369 214 L509 214 L509 102 Q502 88 485.5 68.5 Q469 49 441 30 Q413 11 373 -2 Q333 -15 280 -15 Q227 -15 186.5 -2 Q146 11 117 31.5 Q88 52 69.5 76 Q51 100 42 121 L42 421 Z M215 612 L267 766 L415 766 L415 702 L335 597 L215 597 L215 612 Z " />
<glyph glyph-name="ccircumflex" unicode="&#x109;" horiz-adv-x="542" d="M42 421 Q51 442 69.5 466 Q88 490 117 510.5 Q146 531 186.5 544 Q227 557 280 557 Q333 557 372.5 544 Q412 531 440 513 Q468 495 484.5 475 Q501 455 509 441 L509 329 L369 329 L369 393 Q361 413 338 428 Q315 443 280 443 Q246 443 224 428 Q202 413 193 393 L193 149 Q202 130 224 115 Q246 100 280 100 Q315 100 338 115 Q361 130 369 149 L369 214 L509 214 L509 102 Q502 88 485.5 68.5 Q469 49 441 30 Q413 11 373 -2 Q333 -15 280 -15 Q227 -15 186.5 -2 Q146 11 117 31.5 Q88 52 69.5 76 Q51 100 42 121 L42 421 Z M107 609 L186 763 L380 763 L459 609 L459 594 L351 594 L283 692 L215 594 L107 594 L107 609 Z " />
<glyph glyph-name="ccaron" unicode="&#x10d;" horiz-adv-x="542" d="M42 421 Q51 442 69.5 466 Q88 490 117 510.5 Q146 531 186.5 544 Q227 557 280 557 Q333 557 372.5 544 Q412 531 440 513 Q468 495 484.5 475 Q501 455 509 441 L509 329 L369 329 L369 393 Q361 413 338 428 Q315 443 280 443 Q246 443 224 428 Q202 413 193 393 L193 149 Q202 130 224 115 Q246 100 280 100 Q315 100 338 115 Q361 130 369 149 L369 214 L509 214 L509 102 Q502 88 485.5 68.5 Q469 49 441 30 Q413 11 373 -2 Q333 -15 280 -15 Q227 -15 186.5 -2 Q146 11 117 31.5 Q88 52 69.5 76 Q51 100 42 121 L42 421 Z M105 748 L105 763 L213 763 L281 665 L349 763 L457 763 L457 748 L378 594 L184 594 L105 748 Z " />
<glyph glyph-name="cdotaccent" unicode="&#x10b;" horiz-adv-x="542" d="M42 421 Q51 442 69.5 466 Q88 490 117 510.5 Q146 531 186.5 544 Q227 557 280 557 Q333 557 372.5 544 Q412 531 440 513 Q468 495 484.5 475 Q501 455 509 441 L509 329 L369 329 L369 393 Q361 413 338 428 Q315 443 280 443 Q246 443 224 428 Q202 413 193 393 L193 149 Q202 130 224 115 Q246 100 280 100 Q315 100 338 115 Q361 130 369 149 L369 214 L509 214 L509 102 Q502 88 485.5 68.5 Q469 49 441 30 Q413 11 373 -2 Q333 -15 280 -15 Q227 -15 186.5 -2 Q146 11 117 31.5 Q88 52 69.5 76 Q51 100 42 121 L42 421 Z M203 715 Q210 730 229 743 Q248 756 283 756 Q318 756 337.5 743 Q357 730 363 715 L363 656 Q357 641 337.5 628 Q318 615 283 615 Q248 615 229 628 Q210 641 203 656 L203 715 Z " />
<glyph glyph-name="ccedilla" unicode="&#xe7;" horiz-adv-x="542" d="M187 -165 Q204 -170 224 -173 Q244 -176 263 -176 Q284 -176 295 -170.5 Q306 -165 310 -157 L310 -129 Q306 -122 294.5 -117.5 Q283 -113 267 -113 L199 -113 L230 -10 Q210 -9 178 1 Q146 11 117 31.5 Q88 52 69.5 76 Q51 100 42 121 L42 421 Q51 442 69.5 466 Q88 490 117 510.5 Q146 531 186.5 544 Q227 557 280 557 Q333 557 372.5 544 Q412 531 440 513 Q468 495 484.5 475 Q501 455 509 441 L509 329 L369 329 L369 393 Q361 413 338 428 Q315 443 280 443 Q246 443 224 428 Q202 413 193 393 L193 149 Q202 130 224 115 Q246 100 280 100 Q315 100 338 115 Q361 130 369 149 L369 214 L509 214 L509 102 Q502 88 485.5 68.5 Q469 49 441 30 Q413 11 378 0 Q343 -11 305 -14 L294 -52 L307 -52 Q342 -52 366 -68.5 Q390 -85 398 -103 L398 -190 Q384 -218 350 -234 Q316 -250 273 -250 Q240 -250 210 -244.5 Q180 -239 166 -231 L187 -165 Z " />
<glyph glyph-name="dcaron" unicode="&#x10f;" horiz-adv-x="724" d="M565 502 L586 700 L709 700 L709 622 L661 487 L565 487 L565 502 Z M370 45 Q346 21 310 5 Q274 -11 222 -11 Q181 -11 150.5 1.5 Q120 14 98 32.5 Q76 51 62.5 72.5 Q49 94 42 112 L42 431 Q49 449 62.5 470.5 Q76 492 98 510.5 Q120 529 150.5 541.5 Q181 554 222 554 Q269 554 303 540.5 Q337 527 361 506 L361 700 L512 700 L512 0 L370 0 L370 45 Z M276 103 Q305 103 326.5 112 Q348 121 361 134 L361 408 Q348 422 326.5 431 Q305 440 275 440 Q240 440 220 425.5 Q200 411 193 400 L193 143 Q200 131 220.5 117 Q241 103 276 103 Z " />
<glyph glyph-name="dcroat" unicode="&#x111;" horiz-adv-x="575" d="M213 653 L361 653 L361 700 L512 700 L512 653 L557 653 L557 575 L512 575 L512 0 L370 0 L370 45 Q346 21 310 5 Q274 -11 222 -11 Q181 -11 150.5 1.5 Q120 14 98 32.5 Q76 51 62.5 72.5 Q49 94 42 112 L42 407 Q49 425 62.5 446.5 Q76 468 98 486.5 Q120 505 150.5 517.5 Q181 530 222 530 Q269 530 303 516.5 Q337 503 361 482 L361 575 L213 575 L213 653 Z M276 102 Q305 102 326.5 111 Q348 120 361 133 L361 385 Q348 399 326.5 408 Q305 417 275 417 Q240 417 220 402.5 Q200 388 193 377 L193 142 Q200 130 220.5 116 Q241 102 276 102 Z " />
<glyph glyph-name="egrave" unicode="&#xe8;" horiz-adv-x="548" d="M42 421 Q51 442 69.5 466 Q88 490 117 510.5 Q146 531 186.5 544 Q227 557 280 557 Q333 557 372.5 544 Q412 531 440 513 Q468 495 484.5 475 Q501 455 509 442 L509 229 L193 229 L193 149 Q202 130 224 115 Q246 100 280 100 Q315 100 338 115 Q361 130 369 149 L369 179 L509 179 L509 100 Q501 86 484.5 66.5 Q468 47 440 29 Q412 11 372.5 -2 Q333 -15 280 -15 Q227 -15 186.5 -2 Q146 11 117 31.5 Q88 52 69.5 76 Q51 100 42 121 L42 421 Z M193 327 L369 327 L369 393 Q361 413 338 428 Q315 443 280 443 Q246 443 224 428 Q202 413 193 393 L193 327 Z M155 702 L155 766 L303 766 L355 612 L355 597 L236 597 L155 702 Z " />
<glyph glyph-name="eacute" unicode="&#xe9;" horiz-adv-x="548" d="M42 421 Q51 442 69.5 466 Q88 490 117 510.5 Q146 531 186.5 544 Q227 557 280 557 Q333 557 372.5 544 Q412 531 440 513 Q468 495 484.5 475 Q501 455 509 442 L509 229 L193 229 L193 149 Q202 130 224 115 Q246 100 280 100 Q315 100 338 115 Q361 130 369 149 L369 179 L509 179 L509 100 Q501 86 484.5 66.5 Q468 47 440 29 Q412 11 372.5 -2 Q333 -15 280 -15 Q227 -15 186.5 -2 Q146 11 117 31.5 Q88 52 69.5 76 Q51 100 42 121 L42 421 Z M193 327 L369 327 L369 393 Q361 413 338 428 Q315 443 280 443 Q246 443 224 428 Q202 413 193 393 L193 327 Z M219 612 L271 766 L419 766 L419 702 L339 597 L219 597 L219 612 Z " />
<glyph glyph-name="ecircumflex" unicode="&#xea;" horiz-adv-x="548" d="M42 421 Q51 442 69.5 466 Q88 490 117 510.5 Q146 531 186.5 544 Q227 557 280 557 Q333 557 372.5 544 Q412 531 440 513 Q468 495 484.5 475 Q501 455 509 442 L509 229 L193 229 L193 149 Q202 130 224 115 Q246 100 280 100 Q315 100 338 115 Q361 130 369 149 L369 179 L509 179 L509 100 Q501 86 484.5 66.5 Q468 47 440 29 Q412 11 372.5 -2 Q333 -15 280 -15 Q227 -15 186.5 -2 Q146 11 117 31.5 Q88 52 69.5 76 Q51 100 42 121 L42 421 Z M193 327 L369 327 L369 393 Q361 413 338 428 Q315 443 280 443 Q246 443 224 428 Q202 413 193 393 L193 327 Z M107 609 L186 763 L380 763 L459 609 L459 594 L351 594 L283 692 L215 594 L107 594 L107 609 Z " />
<glyph glyph-name="ecaron" unicode="&#x11b;" horiz-adv-x="548" d="M42 421 Q51 442 69.5 466 Q88 490 117 510.5 Q146 531 186.5 544 Q227 557 280 557 Q333 557 372.5 544 Q412 531 440 513 Q468 495 484.5 475 Q501 455 509 442 L509 229 L193 229 L193 149 Q202 130 224 115 Q246 100 280 100 Q315 100 338 115 Q361 130 369 149 L369 179 L509 179 L509 100 Q501 86 484.5 66.5 Q468 47 440 29 Q412 11 372.5 -2 Q333 -15 280 -15 Q227 -15 186.5 -2 Q146 11 117 31.5 Q88 52 69.5 76 Q51 100 42 121 L42 421 Z M193 327 L369 327 L369 393 Q361 413 338 428 Q315 443 280 443 Q246 443 224 428 Q202 413 193 393 L193 327 Z M107 748 L107 763 L215 763 L283 665 L351 763 L459 763 L459 748 L380 594 L186 594 L107 748 Z " />
<glyph glyph-name="edieresis" unicode="&#xeb;" horiz-adv-x="548" d="M42 421 Q51 442 69.5 466 Q88 490 117 510.5 Q146 531 186.5 544 Q227 557 280 557 Q333 557 372.5 544 Q412 531 440 513 Q468 495 484.5 475 Q501 455 509 442 L509 229 L193 229 L193 149 Q202 130 224 115 Q246 100 280 100 Q315 100 338 115 Q361 130 369 149 L369 179 L509 179 L509 100 Q501 86 484.5 66.5 Q468 47 440 29 Q412 11 372.5 -2 Q333 -15 280 -15 Q227 -15 186.5 -2 Q146 11 117 31.5 Q88 52 69.5 76 Q51 100 42 121 L42 421 Z M193 327 L369 327 L369 393 Q361 413 338 428 Q315 443 280 443 Q246 443 224 428 Q202 413 193 393 L193 327 Z M101 712 Q107 719 124 730.5 Q141 742 174 742 Q209 742 225.5 730.5 Q242 719 248 712 L248 632 Q242 624 225.5 613 Q209 602 174 602 Q141 602 124 613 Q107 624 101 632 L101 712 Z M321 712 Q327 719 343.5 730.5 Q360 742 394 742 Q428 742 445 730.5 Q462 719 467 712 L467 632 Q462 624 445 613 Q428 602 394 602 Q360 602 343.5 613 Q327 624 321 632 L321 712 Z " />
<glyph glyph-name="emacron" unicode="&#x113;" horiz-adv-x="548" d="M42 421 Q51 442 69.5 466 Q88 490 117 510.5 Q146 531 186.5 544 Q227 557 280 557 Q333 557 372.5 544 Q412 531 440 513 Q468 495 484.5 475 Q501 455 509 442 L509 229 L193 229 L193 149 Q202 130 224 115 Q246 100 280 100 Q315 100 338 115 Q361 130 369 149 L369 179 L509 179 L509 100 Q501 86 484.5 66.5 Q468 47 440 29 Q412 11 372.5 -2 Q333 -15 280 -15 Q227 -15 186.5 -2 Q146 11 117 31.5 Q88 52 69.5 76 Q51 100 42 121 L42 421 Z M193 327 L369 327 L369 393 Q361 413 338 428 Q315 443 280 443 Q246 443 224 428 Q202 413 193 393 L193 327 Z M100 728 L467 728 L467 623 L100 623 L100 728 Z " />
<glyph glyph-name="ebreve" unicode="&#x115;" horiz-adv-x="548" d="M42 421 Q51 442 69.5 466 Q88 490 117 510.5 Q146 531 186.5 544 Q227 557 280 557 Q333 557 372.5 544 Q412 531 440 513 Q468 495 484.5 475 Q501 455 509 442 L509 229 L193 229 L193 149 Q202 130 224 115 Q246 100 280 100 Q315 100 338 115 Q361 130 369 149 L369 179 L509 179 L509 100 Q501 86 484.5 66.5 Q468 47 440 29 Q412 11 372.5 -2 Q333 -15 280 -15 Q227 -15 186.5 -2 Q146 11 117 31.5 Q88 52 69.5 76 Q51 100 42 121 L42 421 Z M193 327 L369 327 L369 393 Q361 413 338 428 Q315 443 280 443 Q246 443 224 428 Q202 413 193 393 L193 327 Z M107 735 L217 735 L217 707 Q221 698 236 686 Q251 674 281 674 Q311 674 326 686 Q341 698 345 707 L345 735 L455 735 L455 686 Q446 667 431 649.5 Q416 632 395 619 Q374 606 346 598.5 Q318 591 281 591 Q244 591 216 598.5 Q188 606 167 619 Q146 632 131 649.5 Q116 667 107 686 L107 735 Z " />
<glyph glyph-name="edotaccent" unicode="&#x117;" horiz-adv-x="548" d="M42 421 Q51 442 69.5 466 Q88 490 117 510.5 Q146 531 186.5 544 Q227 557 280 557 Q333 557 372.5 544 Q412 531 440 513 Q468 495 484.5 475 Q501 455 509 442 L509 229 L193 229 L193 149 Q202 130 224 115 Q246 100 280 100 Q315 100 338 115 Q361 130 369 149 L369 179 L509 179 L509 100 Q501 86 484.5 66.5 Q468 47 440 29 Q412 11 372.5 -2 Q333 -15 280 -15 Q227 -15 186.5 -2 Q146 11 117 31.5 Q88 52 69.5 76 Q51 100 42 121 L42 421 Z M193 327 L369 327 L369 393 Q361 413 338 428 Q315 443 280 443 Q246 443 224 428 Q202 413 193 393 L193 327 Z M203 707 Q210 722 229 735 Q248 748 283 748 Q318 748 337.5 735 Q357 722 363 707 L363 648 Q357 633 337.5 620 Q318 607 283 607 Q248 607 229 620 Q210 633 203 648 L203 707 Z " />
<glyph glyph-name="eogonek" unicode="&#x119;" horiz-adv-x="548" d="M42 421 Q51 442 69.5 466 Q88 490 117 510.5 Q146 531 186.5 544 Q227 557 280 557 Q333 557 372.5 544 Q412 531 440 513 Q468 495 484.5 475 Q501 455 509 442 L509 229 L193 229 L193 149 Q202 130 224 115 Q246 100 280 100 Q315 100 338 115 Q361 130 369 149 L369 179 L509 179 L509 97 Q456 8 435.5 -40 Q415 -88 411 -102 L411 -128 Q421 -145 455 -145 Q469 -145 481.5 -143 Q494 -141 508 -136 L508 -213 Q495 -220 478 -224 Q461 -228 429 -228 Q387 -228 352 -216 Q317 -204 303 -175 L303 -98 Q306 -87 317.5 -63.5 Q329 -40 346 -8 Q331 -11 314.5 -13 Q298 -15 280 -15 Q227 -15 186.5 -2 Q146 11 117 31.5 Q88 52 69.5 76 Q51 100 42 121 L42 421 Z M193 327 L369 327 L369 393 Q361 413 338 428 Q315 443 280 443 Q246 443 224 428 Q202 413 193 393 L193 327 Z " />
<glyph glyph-name="gcircumflex" unicode="&#x11d;" horiz-adv-x="561" d="M47 29 L193 29 L193 -17 Q200 -28 219.5 -41.5 Q239 -55 273 -55 Q308 -55 330 -42 Q352 -29 361 -9 L361 115 Q337 94 303 81 Q269 68 222 68 Q181 68 150.5 80.5 Q120 93 98 111.5 Q76 130 62.5 151.5 Q49 173 42 191 L42 431 Q49 449 62.5 470.5 Q76 492 98 510.5 Q120 529 150.5 541.5 Q181 554 222 554 Q273 554 308 539 Q343 524 367 501 L367 543 L512 543 L512 -37 Q502 -59 483.5 -82 Q465 -105 436 -124 Q407 -143 367 -155.5 Q327 -168 273 -168 Q220 -168 181 -155.5 Q142 -143 115 -125 Q88 -107 71.5 -87.5 Q55 -68 47 -54 L47 29 Z M276 182 Q305 182 326.5 191 Q348 200 361 213 L361 408 Q348 422 326.5 431 Q305 440 275 440 Q240 440 220 425.5 Q200 411 193 400 L193 222 Q200 210 220.5 196 Q241 182 276 182 Z M120 609 L199 763 L393 763 L472 609 L472 594 L364 594 L296 692 L228 594 L120 594 L120 609 Z " />
<glyph glyph-name="gbreve" unicode="&#x11f;" horiz-adv-x="561" d="M47 29 L193 29 L193 -17 Q200 -28 219.5 -41.5 Q239 -55 273 -55 Q308 -55 330 -42 Q352 -29 361 -9 L361 115 Q337 94 303 81 Q269 68 222 68 Q181 68 150.5 80.5 Q120 93 98 111.5 Q76 130 62.5 151.5 Q49 173 42 191 L42 431 Q49 449 62.5 470.5 Q76 492 98 510.5 Q120 529 150.5 541.5 Q181 554 222 554 Q273 554 308 539 Q343 524 367 501 L367 543 L512 543 L512 -37 Q502 -59 483.5 -82 Q465 -105 436 -124 Q407 -143 367 -155.5 Q327 -168 273 -168 Q220 -168 181 -155.5 Q142 -143 115 -125 Q88 -107 71.5 -87.5 Q55 -68 47 -54 L47 29 Z M276 182 Q305 182 326.5 191 Q348 200 361 213 L361 408 Q348 422 326.5 431 Q305 440 275 440 Q240 440 220 425.5 Q200 411 193 400 L193 222 Q200 210 220.5 196 Q241 182 276 182 Z M117 735 L227 735 L227 707 Q231 698 246 686 Q261 674 291 674 Q321 674 336 686 Q351 698 355 707 L355 735 L465 735 L465 686 Q456 667 441 649.5 Q426 632 405 619 Q384 606 356 598.5 Q328 591 291 591 Q254 591 226 598.5 Q198 606 177 619 Q156 632 141 649.5 Q126 667 117 686 L117 735 Z " />
<glyph glyph-name="gdotaccent" unicode="&#x121;" horiz-adv-x="561" d="M47 29 L193 29 L193 -17 Q200 -28 219.5 -41.5 Q239 -55 273 -55 Q308 -55 330 -42 Q352 -29 361 -9 L361 115 Q337 94 303 81 Q269 68 222 68 Q181 68 150.5 80.5 Q120 93 98 111.5 Q76 130 62.5 151.5 Q49 173 42 191 L42 431 Q49 449 62.5 470.5 Q76 492 98 510.5 Q120 529 150.5 541.5 Q181 554 222 554 Q273 554 308 539 Q343 524 367 501 L367 543 L512 543 L512 -37 Q502 -59 483.5 -82 Q465 -105 436 -124 Q407 -143 367 -155.5 Q327 -168 273 -168 Q220 -168 181 -155.5 Q142 -143 115 -125 Q88 -107 71.5 -87.5 Q55 -68 47 -54 L47 29 Z M276 182 Q305 182 326.5 191 Q348 200 361 213 L361 408 Q348 422 326.5 431 Q305 440 275 440 Q240 440 220 425.5 Q200 411 193 400 L193 222 Q200 210 220.5 196 Q241 182 276 182 Z M206 707 Q213 722 232 735 Q251 748 286 748 Q321 748 340.5 735 Q360 722 366 707 L366 648 Q360 633 340.5 620 Q321 607 286 607 Q251 607 232 620 Q213 633 206 648 L206 707 Z " />
<glyph glyph-name="gcommaaccent" unicode="&#x123;" horiz-adv-x="561" d="M47 29 L193 29 L193 -17 Q200 -28 219.5 -41.5 Q239 -55 273 -55 Q308 -55 330 -42 Q352 -29 361 -9 L361 115 Q337 94 303 81 Q269 68 222 68 Q181 68 150.5 80.5 Q120 93 98 111.5 Q76 130 62.5 151.5 Q49 173 42 191 L42 431 Q49 449 62.5 470.5 Q76 492 98 510.5 Q120 529 150.5 541.5 Q181 554 222 554 Q273 554 308 539 Q343 524 367 501 L367 543 L512 543 L512 -37 Q502 -59 483.5 -82 Q465 -105 436 -124 Q407 -143 367 -155.5 Q327 -168 273 -168 Q220 -168 181 -155.5 Q142 -143 115 -125 Q88 -107 71.5 -87.5 Q55 -68 47 -54 L47 29 Z M276 182 Q305 182 326.5 191 Q348 200 361 213 L361 408 Q348 422 326.5 431 Q305 440 275 440 Q240 440 220 425.5 Q200 411 193 400 L193 222 Q200 210 220.5 196 Q241 182 276 182 Z M213 755 Q216 764 224 774 Q232 784 245.5 793 Q259 802 278 807.5 Q297 813 320 813 L358 813 L358 756 L336 756 Q297 756 289 742 L289 720 L293 720 Q327 720 346.5 706.5 Q366 693 373 679 L373 630 Q366 616 346.5 602 Q327 588 293 588 Q258 588 238.5 602 Q219 616 213 630 L213 755 Z " />
<glyph glyph-name="hcircumflex" unicode="&#x125;" horiz-adv-x="565" d="M368 0 L368 400 Q361 412 340.5 426 Q320 440 285 440 Q254 440 232.5 430.5 Q211 421 199 407 L199 0 L48 0 L48 700 L199 700 L199 505 Q222 527 256.5 540.5 Q291 554 339 554 Q379 554 410 541.5 Q441 529 463 510.5 Q485 492 498.5 470 Q512 448 519 430 L519 0 L368 0 Z M115 759 L194 904 L388 904 L467 759 L467 744 L359 744 L291 833 L223 744 L115 744 L115 759 Z " />
<glyph glyph-name="hbar" unicode="&#x127;" horiz-adv-x="575" d="M18 653 L58 653 L58 700 L209 700 L209 653 L363 653 L363 575 L209 575 L209 481 Q232 503 266.5 516.5 Q301 530 349 530 Q389 530 420 517.5 Q451 505 473 486.5 Q495 468 508.5 446.5 Q522 425 529 407 L529 0 L378 0 L378 376 Q371 388 350.5 402 Q330 416 295 416 Q264 416 242.5 406.5 Q221 397 209 383 L209 0 L58 0 L58 575 L18 575 L18 653 Z " />
<glyph glyph-name="igrave" unicode="&#xec;" horiz-adv-x="250" d="M49 543 L201 543 L201 0 L49 0 L49 543 Z M1 702 L1 766 L149 766 L201 612 L201 597 L82 597 L1 702 Z " />
<glyph glyph-name="iacute" unicode="&#xed;" horiz-adv-x="250" d="M49 543 L201 543 L201 0 L49 0 L49 543 Z M50 612 L102 766 L250 766 L250 702 L170 597 L50 597 L50 612 Z " />
<glyph glyph-name="icircumflex" unicode="&#xee;" horiz-adv-x="250" d="M49 543 L201 543 L201 0 L49 0 L49 543 Z M-50 609 L29 763 L223 763 L302 609 L302 594 L194 594 L126 692 L58 594 L-50 594 L-50 609 Z " />
<glyph glyph-name="itilde" unicode="&#x129;" horiz-adv-x="250" d="M49 543 L201 543 L201 0 L49 0 L49 543 Z M322 680 Q314 650 285 625.5 Q256 601 207 601 Q176 601 155.5 609 Q135 617 119.5 626 Q104 635 90 643 Q76 651 59 651 Q41 651 31.5 643 Q22 635 19 627 L19 606 L-70 606 L-70 666 Q-62 698 -32.5 721.5 Q-3 745 45 745 Q75 745 95.5 737 Q116 729 132 720 Q148 711 162 703 Q176 695 193 695 Q225 695 233 720 L233 740 L322 740 L322 680 Z " />
<glyph glyph-name="idieresis" unicode="&#xef;" horiz-adv-x="250" d="M49 543 L201 543 L201 0 L49 0 L49 543 Z M-57 712 Q-51 719 -34 730.5 Q-17 742 16 742 Q51 742 67.5 730.5 Q84 719 90 712 L90 632 Q84 624 67.5 613 Q51 602 16 602 Q-17 602 -34 613 Q-51 624 -57 632 L-57 712 Z M163 712 Q169 719 185.5 730.5 Q202 742 236 742 Q270 742 287 730.5 Q304 719 309 712 L309 632 Q304 624 287 613 Q270 602 236 602 Q202 602 185.5 613 Q169 624 163 632 L163 712 Z " />
<glyph glyph-name="imacron" unicode="&#x12b;" horiz-adv-x="250" d="M49 543 L201 543 L201 0 L49 0 L49 543 Z M-58 728 L309 728 L309 623 L-58 623 L-58 728 Z " />
<glyph glyph-name="ibreve" unicode="&#x12d;" horiz-adv-x="250" d="M49 543 L201 543 L201 0 L49 0 L49 543 Z M-48 735 L62 735 L62 707 Q66 698 81 686 Q96 674 126 674 Q156 674 171 686 Q186 698 190 707 L190 735 L300 735 L300 686 Q291 667 276 649.5 Q261 632 240 619 Q219 606 191 598.5 Q163 591 126 591 Q89 591 61 598.5 Q33 606 12 619 Q-9 632 -24 649.5 Q-39 667 -48 686 L-48 735 Z " />
<glyph glyph-name="iogonek" unicode="&#x12f;" horiz-adv-x="249" d="M-5 -110 Q-1 -100 10.5 -83 Q22 -66 39.5 -47 Q57 -28 78 -9 Q84 -4 90 0 L49 0 L49 543 L200 543 L200 0 Q150 -45 129 -73.5 Q108 -102 103 -113 L103 -139 Q113 -157 147 -157 Q173 -157 200 -147 L200 -224 Q187 -231 170 -235 Q153 -239 121 -239 Q79 -239 44 -227 Q9 -215 -5 -186 L-5 -110 Z M45 704 Q52 719 71 732 Q90 745 125 745 Q160 745 179 732 Q198 719 204 704 L204 645 Q198 630 179 617 Q160 604 125 604 Q90 604 71 617 Q52 630 45 645 L45 704 Z " />
<glyph glyph-name="dotlessi" unicode="&#x131;" horiz-adv-x="250" d="M49 543 L201 543 L201 0 L49 0 L49 543 Z " />
<glyph glyph-name="ij" unicode="&#x133;" horiz-adv-x="499" d="M45 704 Q52 719 71 732 Q90 745 125 745 Q160 745 179 732 Q198 719 204 704 L204 645 Q198 630 179 617 Q160 604 125 604 Q90 604 71 617 Q52 630 45 645 L45 704 Z M49 543 L200 543 L200 0 L49 0 L49 543 Z M211 -56 Q245 -56 267.5 -39 Q290 -22 298 1 L298 543 L449 543 L449 -32 Q440 -53 421.5 -77.5 Q403 -102 374 -122 Q345 -142 304.5 -155.5 Q264 -169 211 -169 L211 -56 Z M293 704 Q300 719 319.5 732 Q339 745 373 745 Q408 745 428 732 Q448 719 454 704 L454 645 Q448 630 428 617 Q408 604 373 604 Q339 604 319.5 617 Q300 630 293 645 L293 704 Z " />
<glyph glyph-name="dotlessj" unicode="&#x237;" horiz-adv-x="249" d="M-39 -56 Q-5 -56 17.5 -39 Q40 -22 48 1 L48 543 L199 543 L199 -32 Q190 -53 171.5 -77.5 Q153 -102 124 -122 Q95 -142 54.5 -155.5 Q14 -169 -39 -169 L-39 -56 Z " />
<glyph glyph-name="jcircumflex" unicode="&#x135;" horiz-adv-x="249" d="M-39 -56 Q-5 -56 17.5 -39 Q40 -22 48 1 L48 543 L199 543 L199 -32 Q190 -53 171.5 -77.5 Q153 -102 124 -122 Q95 -142 54.5 -155.5 Q14 -169 -39 -169 L-39 -56 Z M-51 609 L28 763 L222 763 L301 609 L301 594 L193 594 L125 692 L57 594 L-51 594 L-51 609 Z " />
<glyph glyph-name="kcommaaccent" unicode="&#x137;" horiz-adv-x="520" d="M48 700 L199 700 L199 351 L217 351 L394 543 L496 543 L496 460 L347 306 L503 83 L503 0 L385 0 L245 204 L199 154 L199 0 L48 0 L48 700 Z M203 -188 L236 -188 Q249 -188 259 -185.5 Q269 -183 274 -173 L274 -151 L271 -151 Q237 -151 218 -145 Q199 -139 193 -131 L193 -67 Q199 -60 218 -52.5 Q237 -45 271 -45 Q305 -45 324 -52.5 Q343 -60 349 -67 L349 -179 Q340 -203 314 -220 Q288 -237 250 -237 L203 -237 L203 -188 Z " />
<glyph glyph-name="kgreenlandic" unicode="&#x138;" horiz-adv-x="523" d="M48 543 L199 543 L199 351 L217 351 L393 543 L496 543 L496 460 L347 306 L503 83 L503 0 L385 0 L245 203 L199 154 L199 0 L48 0 L48 543 Z " />
<glyph glyph-name="lacute" unicode="&#x13a;" horiz-adv-x="247" d="M48 700 L199 700 L199 0 L48 0 L48 700 Z M49 759 L101 904 L249 904 L249 840 L169 744 L49 744 L49 759 Z " />
<glyph glyph-name="lcaron" unicode="&#x13e;" horiz-adv-x="410" d="M48 700 L199 700 L199 0 L48 0 L48 700 Z M251 502 L272 700 L395 700 L395 622 L347 487 L251 487 L251 502 Z " />
<glyph glyph-name="lcommaaccent" unicode="&#x13c;" horiz-adv-x="247" d="M48 700 L199 700 L199 0 L48 0 L48 700 Z M57 -188 L90 -188 Q103 -188 113 -185.5 Q123 -183 128 -173 L128 -151 L125 -151 Q91 -151 72 -145 Q53 -139 47 -131 L47 -67 Q53 -60 72 -52.5 Q91 -45 125 -45 Q159 -45 178 -52.5 Q197 -60 203 -67 L203 -179 Q194 -203 168 -220 Q142 -237 104 -237 L57 -237 L57 -188 Z " />
<glyph glyph-name="lslash" unicode="&#x142;" horiz-adv-x="349" d="M29 346 L99 387 L99 700 L250 700 L250 475 L320 516 L320 394 L250 353 L250 0 L99 0 L99 265 L29 224 L29 346 Z " />
<glyph glyph-name="ldot" unicode="&#x140;" horiz-adv-x="449" d="M50 700 L201 700 L201 0 L50 0 L50 700 Z M262 391 Q269 406 288 419 Q307 432 342 432 Q377 432 396.5 419 Q416 406 422 391 L422 332 Q416 317 396.5 304 Q377 291 342 291 Q307 291 288 304 Q269 317 262 332 L262 391 Z " />
<glyph glyph-name="nacute" unicode="&#x144;" horiz-adv-x="565" d="M368 0 L368 400 Q361 412 340.5 426 Q320 440 285 440 Q254 440 232.5 430.5 Q211 421 199 407 L199 0 L48 0 L48 543 L187 543 L187 493 Q210 519 247.5 536.5 Q285 554 339 554 Q379 554 410 541.5 Q441 529 463 510.5 Q485 492 498.5 470.5 Q512 449 519 431 L519 0 L368 0 Z M214 615 L266 769 L414 769 L414 705 L334 600 L214 600 L214 615 Z " />
<glyph glyph-name="ncaron" unicode="&#x148;" horiz-adv-x="565" d="M368 0 L368 400 Q361 412 340.5 426 Q320 440 285 440 Q254 440 232.5 430.5 Q211 421 199 407 L199 0 L48 0 L48 543 L187 543 L187 493 Q210 519 247.5 536.5 Q285 554 339 554 Q379 554 410 541.5 Q441 529 463 510.5 Q485 492 498.5 470.5 Q512 449 519 431 L519 0 L368 0 Z M110 751 L110 766 L218 766 L286 668 L354 766 L462 766 L462 751 L383 597 L189 597 L110 751 Z " />
<glyph glyph-name="ntilde" unicode="&#xf1;" horiz-adv-x="565" d="M368 0 L368 400 Q361 412 340.5 426 Q320 440 285 440 Q254 440 232.5 430.5 Q211 421 199 407 L199 0 L48 0 L48 543 L187 543 L187 493 Q210 519 247.5 536.5 Q285 554 339 554 Q379 554 410 541.5 Q441 529 463 510.5 Q485 492 498.5 470.5 Q512 449 519 431 L519 0 L368 0 Z M480 683 Q472 653 443 628.5 Q414 604 365 604 Q334 604 313.5 612 Q293 620 277.5 629 Q262 638 248 646 Q234 654 217 654 Q199 654 189.5 646 Q180 638 177 630 L177 609 L88 609 L88 669 Q96 701 125.5 724.5 Q155 748 203 748 Q233 748 253.5 740 Q274 732 290 723 Q306 714 320 706 Q334 698 351 698 Q383 698 391 723 L391 743 L480 743 L480 683 Z " />
<glyph glyph-name="ncommaaccent" unicode="&#x146;" horiz-adv-x="565" d="M368 0 L368 400 Q361 412 340.5 426 Q320 440 285 440 Q254 440 232.5 430.5 Q211 421 199 407 L199 0 L48 0 L48 543 L187 543 L187 493 Q210 519 247.5 536.5 Q285 554 339 554 Q379 554 410 541.5 Q441 529 463 510.5 Q485 492 498.5 470.5 Q512 449 519 431 L519 0 L368 0 Z M214 -186 L247 -186 Q260 -186 270 -183.5 Q280 -181 285 -171 L285 -149 L282 -149 Q248 -149 229 -143 Q210 -137 204 -129 L204 -65 Q210 -58 229 -50.5 Q248 -43 282 -43 Q316 -43 335 -50.5 Q354 -58 360 -65 L360 -177 Q351 -201 325 -218 Q299 -235 261 -235 L214 -235 L214 -186 Z " />
<glyph glyph-name="napostrophe" unicode="&#x149;" horiz-adv-x="565" d="M368 0 L368 400 Q361 412 340.5 426 Q320 440 285 440 Q254 440 232.5 430.5 Q211 421 199 407 L199 0 L48 0 L48 543 L187 543 L187 493 Q210 519 247.5 536.5 Q285 554 339 554 Q379 554 410 541.5 Q441 529 463 510.5 Q485 492 498.5 470.5 Q512 449 519 431 L519 0 L368 0 Z M26 624 L59 624 Q72 624 82 626.5 Q92 629 97 639 L97 661 L94 661 Q60 661 41 667 Q22 673 16 681 L16 745 Q22 752 41 759.5 Q60 767 94 767 Q128 767 147 759.5 Q166 752 172 745 L172 633 Q163 609 137 592 Q111 575 73 575 L26 575 L26 624 Z " />
<glyph glyph-name="ograve" unicode="&#xf2;" horiz-adv-x="562" d="M42 421 Q51 442 69.5 466 Q88 490 117.5 510.5 Q147 531 187.5 544 Q228 557 281 557 Q334 557 374.5 544 Q415 531 444.5 510.5 Q474 490 492.5 466 Q511 442 520 421 L520 121 Q511 100 492.5 76 Q474 52 444.5 31.5 Q415 11 374.5 -2 Q334 -15 281 -15 Q228 -15 187.5 -2 Q147 11 117.5 31.5 Q88 52 69.5 76 Q51 100 42 121 L42 421 Z M193 149 Q202 130 224 115 Q246 100 281 100 Q316 100 338.5 115 Q361 130 369 149 L369 393 Q361 413 338.5 428 Q316 443 281 443 Q246 443 224 428 Q202 413 193 393 L193 149 Z M148 705 L148 769 L296 769 L348 615 L348 600 L229 600 L148 705 Z " />
<glyph glyph-name="oacute" unicode="&#xf3;" horiz-adv-x="562" d="M42 421 Q51 442 69.5 466 Q88 490 117.5 510.5 Q147 531 187.5 544 Q228 557 281 557 Q334 557 374.5 544 Q415 531 444.5 510.5 Q474 490 492.5 466 Q511 442 520 421 L520 121 Q511 100 492.5 76 Q474 52 444.5 31.5 Q415 11 374.5 -2 Q334 -15 281 -15 Q228 -15 187.5 -2 Q147 11 117.5 31.5 Q88 52 69.5 76 Q51 100 42 121 L42 421 Z M193 149 Q202 130 224 115 Q246 100 281 100 Q316 100 338.5 115 Q361 130 369 149 L369 393 Q361 413 338.5 428 Q316 443 281 443 Q246 443 224 428 Q202 413 193 393 L193 149 Z M220 615 L272 769 L420 769 L420 705 L340 600 L220 600 L220 615 Z " />
<glyph glyph-name="ocircumflex" unicode="&#xf4;" horiz-adv-x="562" d="M42 421 Q51 442 69.5 466 Q88 490 117.5 510.5 Q147 531 187.5 544 Q228 557 281 557 Q334 557 374.5 544 Q415 531 444.5 510.5 Q474 490 492.5 466 Q511 442 520 421 L520 121 Q511 100 492.5 76 Q474 52 444.5 31.5 Q415 11 374.5 -2 Q334 -15 281 -15 Q228 -15 187.5 -2 Q147 11 117.5 31.5 Q88 52 69.5 76 Q51 100 42 121 L42 421 Z M193 149 Q202 130 224 115 Q246 100 281 100 Q316 100 338.5 115 Q361 130 369 149 L369 393 Q361 413 338.5 428 Q316 443 281 443 Q246 443 224 428 Q202 413 193 393 L193 149 Z M107 609 L186 763 L380 763 L459 609 L459 594 L351 594 L283 692 L215 594 L107 594 L107 609 Z " />
<glyph glyph-name="otilde" unicode="&#xf5;" horiz-adv-x="562" d="M42 421 Q51 442 69.5 466 Q88 490 117.5 510.5 Q147 531 187.5 544 Q228 557 281 557 Q334 557 374.5 544 Q415 531 444.5 510.5 Q474 490 492.5 466 Q511 442 520 421 L520 121 Q511 100 492.5 76 Q474 52 444.5 31.5 Q415 11 374.5 -2 Q334 -15 281 -15 Q228 -15 187.5 -2 Q147 11 117.5 31.5 Q88 52 69.5 76 Q51 100 42 121 L42 421 Z M193 149 Q202 130 224 115 Q246 100 281 100 Q316 100 338.5 115 Q361 130 369 149 L369 393 Q361 413 338.5 428 Q316 443 281 443 Q246 443 224 428 Q202 413 193 393 L193 149 Z M478 683 Q470 653 441 628.5 Q412 604 363 604 Q332 604 311.5 612 Q291 620 275.5 629 Q260 638 246 646 Q232 654 215 654 Q197 654 187.5 646 Q178 638 175 630 L175 609 L86 609 L86 669 Q94 701 123.5 724.5 Q153 748 201 748 Q231 748 251.5 740 Q272 732 288 723 Q304 714 318 706 Q332 698 349 698 Q381 698 389 723 L389 743 L478 743 L478 683 Z " />
<glyph glyph-name="odieresis" unicode="&#xf6;" horiz-adv-x="562" d="M42 421 Q51 442 69.5 466 Q88 490 117.5 510.5 Q147 531 187.5 544 Q228 557 281 557 Q334 557 374.5 544 Q415 531 444.5 510.5 Q474 490 492.5 466 Q511 442 520 421 L520 121 Q511 100 492.5 76 Q474 52 444.5 31.5 Q415 11 374.5 -2 Q334 -15 281 -15 Q228 -15 187.5 -2 Q147 11 117.5 31.5 Q88 52 69.5 76 Q51 100 42 121 L42 421 Z M193 149 Q202 130 224 115 Q246 100 281 100 Q316 100 338.5 115 Q361 130 369 149 L369 393 Q361 413 338.5 428 Q316 443 281 443 Q246 443 224 428 Q202 413 193 393 L193 149 Z M99 712 Q105 719 122 730.5 Q139 742 172 742 Q207 742 223.5 730.5 Q240 719 246 712 L246 632 Q240 624 223.5 613 Q207 602 172 602 Q139 602 122 613 Q105 624 99 632 L99 712 Z M319 712 Q325 719 341.5 730.5 Q358 742 392 742 Q426 742 443 730.5 Q460 719 465 712 L465 632 Q460 624 443 613 Q426 602 392 602 Q358 602 341.5 613 Q325 624 319 632 L319 712 Z " />
<glyph glyph-name="omacron" unicode="&#x14d;" horiz-adv-x="562" d="M42 421 Q51 442 69.5 466 Q88 490 117.5 510.5 Q147 531 187.5 544 Q228 557 281 557 Q334 557 374.5 544 Q415 531 444.5 510.5 Q474 490 492.5 466 Q511 442 520 421 L520 121 Q511 100 492.5 76 Q474 52 444.5 31.5 Q415 11 374.5 -2 Q334 -15 281 -15 Q228 -15 187.5 -2 Q147 11 117.5 31.5 Q88 52 69.5 76 Q51 100 42 121 L42 421 Z M193 149 Q202 130 224 115 Q246 100 281 100 Q316 100 338.5 115 Q361 130 369 149 L369 393 Q361 413 338.5 428 Q316 443 281 443 Q246 443 224 428 Q202 413 193 393 L193 149 Z M99 728 L466 728 L466 623 L99 623 L99 728 Z " />
<glyph glyph-name="obreve" unicode="&#x14f;" horiz-adv-x="562" d="M42 421 Q51 442 69.5 466 Q88 490 117.5 510.5 Q147 531 187.5 544 Q228 557 281 557 Q334 557 374.5 544 Q415 531 444.5 510.5 Q474 490 492.5 466 Q511 442 520 421 L520 121 Q511 100 492.5 76 Q474 52 444.5 31.5 Q415 11 374.5 -2 Q334 -15 281 -15 Q228 -15 187.5 -2 Q147 11 117.5 31.5 Q88 52 69.5 76 Q51 100 42 121 L42 421 Z M193 149 Q202 130 224 115 Q246 100 281 100 Q316 100 338.5 115 Q361 130 369 149 L369 393 Q361 413 338.5 428 Q316 443 281 443 Q246 443 224 428 Q202 413 193 393 L193 149 Z M108 738 L218 738 L218 710 Q222 701 237 689 Q252 677 282 677 Q312 677 327 689 Q342 701 346 710 L346 738 L456 738 L456 689 Q447 670 432 652.5 Q417 635 396 622 Q375 609 347 601.5 Q319 594 282 594 Q245 594 217 601.5 Q189 609 168 622 Q147 635 132 652.5 Q117 670 108 689 L108 738 Z " />
<glyph glyph-name="ohungarumlaut" unicode="&#x151;" horiz-adv-x="562" d="M42 421 Q51 442 69.5 466 Q88 490 117.5 510.5 Q147 531 187.5 544 Q228 557 281 557 Q334 557 374.5 544 Q415 531 444.5 510.5 Q474 490 492.5 466 Q511 442 520 421 L520 121 Q511 100 492.5 76 Q474 52 444.5 31.5 Q415 11 374.5 -2 Q334 -15 281 -15 Q228 -15 187.5 -2 Q147 11 117.5 31.5 Q88 52 69.5 76 Q51 100 42 121 L42 421 Z M193 149 Q202 130 224 115 Q246 100 281 100 Q316 100 338.5 115 Q361 130 369 149 L369 393 Q361 413 338.5 428 Q316 443 281 443 Q246 443 224 428 Q202 413 193 393 L193 149 Z M133 606 L168 760 L289 760 L289 707 L231 591 L133 591 L133 606 Z M330 606 L364 760 L485 760 L485 707 L427 591 L330 591 L330 606 Z " />
<glyph glyph-name="oslash" unicode="&#xf8;" horiz-adv-x="562" d="M42 421 Q51 442 69.5 466 Q88 490 117.5 510.5 Q147 531 187.5 544 Q228 557 281 557 Q331 557 368.5 545.5 Q406 534 435 516 L458 543 L520 543 L520 497 L493 465 Q511 443 520 421 L520 121 Q511 100 492.5 76 Q474 52 444.5 31.5 Q415 11 374.5 -2 Q334 -15 281 -15 Q231 -15 193 -3.5 Q155 8 126 26 L104 0 L42 0 L42 46 L68 77 Q51 100 42 121 L42 421 Z M193 226 L357 422 Q345 435 326 444 Q307 453 281 453 Q246 453 224 438 Q202 423 193 403 L193 226 Z M281 90 Q316 90 338.5 105 Q361 120 369 139 L369 316 L205 121 Q217 107 236 98.5 Q255 90 281 90 Z " />
<glyph glyph-name="oslashacute" unicode="&#x1ff;" horiz-adv-x="562" d="M42 421 Q51 442 69.5 466 Q88 490 117.5 510.5 Q147 531 187.5 544 Q228 557 281 557 Q331 557 368.5 545.5 Q406 534 435 516 L458 543 L520 543 L520 497 L493 465 Q511 443 520 421 L520 121 Q511 100 492.5 76 Q474 52 444.5 31.5 Q415 11 374.5 -2 Q334 -15 281 -15 Q231 -15 193 -3.5 Q155 8 126 26 L104 0 L42 0 L42 46 L68 77 Q51 100 42 121 L42 421 Z M193 226 L357 422 Q345 435 326 444 Q307 453 281 453 Q246 453 224 438 Q202 423 193 403 L193 226 Z M281 90 Q316 90 338.5 105 Q361 120 369 139 L369 316 L205 121 Q217 107 236 98.5 Q255 90 281 90 Z M230 615 L282 769 L430 769 L430 705 L350 600 L230 600 L230 615 Z " />
<glyph glyph-name="oe" unicode="&#x153;" horiz-adv-x="876" d="M42 421 Q51 442 69.5 466 Q88 490 117.5 510.5 Q147 531 187.5 544 Q228 557 281 557 Q335 557 375 543.5 Q415 530 444 510 Q473 530 513 543.5 Q553 557 607 557 Q660 557 699.5 544 Q739 531 767 513 Q795 495 811.5 475 Q828 455 836 442 L836 229 L520 229 L520 149 Q529 130 551 115 Q573 100 607 100 Q642 100 665 115 Q688 130 696 149 L696 179 L836 179 L836 100 Q828 86 811.5 66.5 Q795 47 767 29 Q739 11 699.5 -2 Q660 -15 607 -15 Q553 -15 513 -2 Q473 11 444 31 Q415 11 375 -2 Q335 -15 281 -15 Q228 -15 187.5 -2 Q147 11 117.5 31.5 Q88 52 69.5 76 Q51 100 42 121 L42 421 Z M193 149 Q202 130 224 115 Q246 100 281 100 Q316 100 338.5 115 Q361 130 369 149 L369 393 Q361 413 338.5 428 Q316 443 281 443 Q246 443 224 428 Q202 413 193 393 L193 149 Z M520 327 L696 327 L696 393 Q688 413 665 428 Q642 443 607 443 Q573 443 551 428 Q529 413 520 393 L520 327 Z " />
<glyph glyph-name="racute" unicode="&#x155;" horiz-adv-x="381" d="M48 543 L189 543 L189 468 Q209 499 244.5 521 Q280 543 339 543 Q342 543 346.5 543 Q351 543 359 542 L359 408 Q351 409 345 409 Q339 409 334 409 Q282 409 248.5 397.5 Q215 386 199 371 L199 0 L48 0 L48 543 Z M133 612 L185 766 L333 766 L333 702 L253 597 L133 597 L133 612 Z " />
<glyph glyph-name="rcaron" unicode="&#x159;" horiz-adv-x="381" d="M48 543 L189 543 L189 468 Q209 499 244.5 521 Q280 543 339 543 Q342 543 346.5 543 Q351 543 359 542 L359 408 Q351 409 345 409 Q339 409 334 409 Q282 409 248.5 397.5 Q215 386 199 371 L199 0 L48 0 L48 543 Z M35 749 L35 764 L143 764 L211 666 L279 764 L387 764 L387 749 L308 595 L114 595 L35 749 Z " />
<glyph glyph-name="rcommaaccent" unicode="&#x157;" horiz-adv-x="381" d="M48 543 L189 543 L189 468 Q209 499 244.5 521 Q280 543 339 543 Q342 543 346.5 543 Q351 543 359 542 L359 408 Q351 409 345 409 Q339 409 334 409 Q282 409 248.5 397.5 Q215 386 199 371 L199 0 L48 0 L48 543 Z M56 -188 L89 -188 Q102 -188 112 -185.5 Q122 -183 127 -173 L127 -151 L124 -151 Q90 -151 71 -145 Q52 -139 46 -131 L46 -67 Q52 -60 71 -52.5 Q90 -45 124 -45 Q158 -45 177 -52.5 Q196 -60 202 -67 L202 -179 Q193 -203 167 -220 Q141 -237 103 -237 L56 -237 L56 -188 Z " />
<glyph glyph-name="sacute" unicode="&#x15b;" horiz-adv-x="521" d="M40 175 L180 175 L180 131 Q188 118 208.5 106 Q229 94 260 94 Q292 94 312.5 106 Q333 118 342 131 L342 178 Q335 191 317.5 199.5 Q300 208 275 213 L219 224 Q176 232 145 243.5 Q114 255 92.5 268 Q71 281 58.5 293 Q46 305 40 315 L40 453 Q47 464 63 482 Q79 500 106 516.5 Q133 533 171.5 545 Q210 557 261 557 Q313 557 351 545 Q389 533 415.5 516 Q442 499 458 481.5 Q474 464 482 453 L482 371 L342 371 L342 411 Q333 425 312.5 436.5 Q292 448 260 448 Q229 448 208.5 436.5 Q188 425 180 411 L180 370 Q187 357 205 349 Q223 341 247 336 L304 324 Q347 315 378 303.5 Q409 292 430 280 Q451 268 463.5 256 Q476 244 482 235 L482 90 Q474 78 457.5 60 Q441 42 414.5 25.5 Q388 9 349.5 -3 Q311 -15 260 -15 Q209 -15 171 -3 Q133 9 106 26 Q79 43 63 60.5 Q47 78 40 90 L40 175 Z M196 615 L248 769 L396 769 L396 705 L316 600 L196 600 L196 615 Z " />
<glyph glyph-name="scircumflex" unicode="&#x15d;" horiz-adv-x="521" d="M40 175 L180 175 L180 131 Q188 118 208.5 106 Q229 94 260 94 Q292 94 312.5 106 Q333 118 342 131 L342 178 Q335 191 317.5 199.5 Q300 208 275 213 L219 224 Q176 232 145 243.5 Q114 255 92.5 268 Q71 281 58.5 293 Q46 305 40 315 L40 453 Q47 464 63 482 Q79 500 106 516.5 Q133 533 171.5 545 Q210 557 261 557 Q313 557 351 545 Q389 533 415.5 516 Q442 499 458 481.5 Q474 464 482 453 L482 371 L342 371 L342 411 Q333 425 312.5 436.5 Q292 448 260 448 Q229 448 208.5 436.5 Q188 425 180 411 L180 370 Q187 357 205 349 Q223 341 247 336 L304 324 Q347 315 378 303.5 Q409 292 430 280 Q451 268 463.5 256 Q476 244 482 235 L482 90 Q474 78 457.5 60 Q441 42 414.5 25.5 Q388 9 349.5 -3 Q311 -15 260 -15 Q209 -15 171 -3 Q133 9 106 26 Q79 43 63 60.5 Q47 78 40 90 L40 175 Z M89 611 L168 765 L362 765 L441 611 L441 596 L333 596 L265 694 L197 596 L89 596 L89 611 Z " />
<glyph glyph-name="scaron" unicode="&#x161;" horiz-adv-x="521" d="M40 175 L180 175 L180 131 Q188 118 208.5 106 Q229 94 260 94 Q292 94 312.5 106 Q333 118 342 131 L342 178 Q335 191 317.5 199.5 Q300 208 275 213 L219 224 Q176 232 145 243.5 Q114 255 92.5 268 Q71 281 58.5 293 Q46 305 40 315 L40 453 Q47 464 63 482 Q79 500 106 516.5 Q133 533 171.5 545 Q210 557 261 557 Q313 557 351 545 Q389 533 415.5 516 Q442 499 458 481.5 Q474 464 482 453 L482 371 L342 371 L342 411 Q333 425 312.5 436.5 Q292 448 260 448 Q229 448 208.5 436.5 Q188 425 180 411 L180 370 Q187 357 205 349 Q223 341 247 336 L304 324 Q347 315 378 303.5 Q409 292 430 280 Q451 268 463.5 256 Q476 244 482 235 L482 90 Q474 78 457.5 60 Q441 42 414.5 25.5 Q388 9 349.5 -3 Q311 -15 260 -15 Q209 -15 171 -3 Q133 9 106 26 Q79 43 63 60.5 Q47 78 40 90 L40 175 Z M88 751 L88 766 L196 766 L264 668 L332 766 L440 766 L440 751 L361 597 L167 597 L88 751 Z " />
<glyph glyph-name="scedilla" unicode="&#x15f;" horiz-adv-x="521" d="M173 -165 Q190 -170 208 -173 Q226 -176 245 -176 Q264 -176 278.5 -170.5 Q293 -165 297 -157 L297 -129 Q293 -121 279.5 -117 Q266 -113 249 -113 L189 -113 L217 -13 Q192 -9 171 -3 Q133 9 106 26 Q79 43 63 60.5 Q47 78 40 90 L40 175 L180 175 L180 131 Q188 118 208.5 106 Q229 94 260 94 Q292 94 312.5 106 Q333 118 342 131 L342 178 Q335 191 317.5 199.5 Q300 208 275 213 L219 224 Q176 232 145 243.5 Q114 255 92.5 268 Q71 281 58.5 293 Q46 305 40 315 L40 453 Q47 464 63 482 Q79 500 106 516.5 Q133 533 171.5 545 Q210 557 261 557 Q313 557 351 545 Q389 533 415.5 516 Q442 499 458 481.5 Q474 464 482 453 L482 371 L342 371 L342 411 Q333 425 312.5 436.5 Q292 448 260 448 Q229 448 208.5 436.5 Q188 425 180 411 L180 370 Q187 357 205 349 Q223 341 247 336 L304 324 Q347 315 378 303.5 Q409 292 430 280 Q451 268 463.5 256 Q476 244 482 235 L482 90 Q474 78 457.5 60 Q441 42 414.5 25.5 Q388 9 349 -3 Q321 -12 293 -14 L282 -52 L295 -52 Q327 -52 352.5 -68.5 Q378 -85 386 -103 L386 -190 Q372 -218 336 -234 Q300 -250 254 -250 Q220 -250 194.5 -244.5 Q169 -239 155 -231 L173 -165 Z " />
<glyph glyph-name="scommaaccent" unicode="&#x219;" horiz-adv-x="521" d="M40 175 L180 175 L180 131 Q188 118 208.5 106 Q229 94 260 94 Q292 94 312.5 106 Q333 118 342 131 L342 178 Q335 191 317.5 199.5 Q300 208 275 213 L219 224 Q176 232 145 243.5 Q114 255 92.5 268 Q71 281 58.5 293 Q46 305 40 315 L40 453 Q47 464 63 482 Q79 500 106 516.5 Q133 533 171.5 545 Q210 557 261 557 Q313 557 351 545 Q389 533 415.5 516 Q442 499 458 481.5 Q474 464 482 453 L482 371 L342 371 L342 411 Q333 425 312.5 436.5 Q292 448 260 448 Q229 448 208.5 436.5 Q188 425 180 411 L180 370 Q187 357 205 349 Q223 341 247 336 L304 324 Q347 315 378 303.5 Q409 292 430 280 Q451 268 463.5 256 Q476 244 482 235 L482 90 Q474 78 457.5 60 Q441 42 414.5 25.5 Q388 9 349.5 -3 Q311 -15 260 -15 Q209 -15 171 -3 Q133 9 106 26 Q79 43 63 60.5 Q47 78 40 90 L40 175 Z M194 -190 L227 -190 Q240 -190 250 -187.5 Q260 -185 265 -175 L265 -153 L262 -153 Q228 -153 209 -147 Q190 -141 184 -133 L184 -69 Q190 -62 209 -54.5 Q228 -47 262 -47 Q296 -47 315 -54.5 Q334 -62 340 -69 L340 -181 Q331 -205 305 -222 Q279 -239 241 -239 L194 -239 L194 -190 Z " />
<glyph glyph-name="germandbls" unicode="&#xdf;" horiz-adv-x="563" d="M48 587 Q58 607 77 629.5 Q96 652 124.5 671 Q153 690 192 702.5 Q231 715 282 715 Q333 715 371.5 703 Q410 691 438 673.5 Q466 656 483 637.5 Q500 619 508 606 L508 429 Q497 412 478.5 395 Q460 378 440 368 Q477 346 496.5 322 Q516 298 527 275 L527 121 Q513 92 492 69.5 Q471 47 440.5 31.5 Q410 16 369 8 Q328 0 273 0 L273 115 Q308 115 333 121.5 Q358 128 375 159 L375 254 Q364 280 339 291.5 Q314 303 286 303 L286 417 Q312 417 335 427.5 Q358 438 369 457 L369 558 Q358 577 335 588.5 Q312 600 282 600 Q250 600 229.5 587 Q209 574 199 558 L199 0 L48 0 L48 587 Z " />
<glyph glyph-name="tcaron" unicode="&#x165;" horiz-adv-x="444" d="M288 609 L309 807 L432 807 L432 729 L384 594 L288 594 L288 609 Z M24 543 L76 543 L76 655 L227 655 L227 543 L344 543 L344 433 L227 433 L227 133 Q233 124 250 112.5 Q267 101 309 101 Q334 101 344 103 L344 0 Q333 -3 310.5 -7.5 Q288 -12 253 -12 Q211 -12 180 -3 Q149 6 128 19.5 Q107 33 94.5 50 Q82 67 76 83 L76 433 L24 433 L24 543 Z " />
<glyph glyph-name="tcommaaccent" unicode="&#x163;" horiz-adv-x="364" d="M123 -165 Q140 -170 158 -173 Q176 -176 195 -176 Q214 -176 228 -171 Q242 -166 247 -157 L247 -129 Q243 -121 229.5 -117 Q216 -113 199 -113 L138 -113 L169 0 Q146 8 128 19 Q107 33 94.5 50 Q82 67 76 83 L76 433 L24 433 L24 543 L76 543 L76 655 L227 655 L227 543 L344 543 L344 433 L227 433 L227 133 Q233 124 250 112.5 Q267 101 309 101 Q334 101 344 103 L344 0 Q333 -3 310.5 -7.5 Q288 -12 253 -12 L242 -12 L231 -52 L244 -52 Q277 -52 302 -67.5 Q327 -83 335 -103 L335 -190 Q321 -218 285.5 -234 Q250 -250 204 -250 Q170 -250 143.5 -244.5 Q117 -239 103 -231 L123 -165 Z " />
<glyph glyph-name="uni021B" unicode="&#x21b;" horiz-adv-x="364" d="M24 543 L76 543 L76 655 L227 655 L227 543 L344 543 L344 433 L227 433 L227 133 Q233 124 250 112.5 Q267 101 309 101 Q334 101 344 103 L344 0 Q333 -3 310.5 -7.5 Q288 -12 253 -12 Q211 -12 180 -3 Q149 6 128 19.5 Q107 33 94.5 50 Q82 67 76 83 L76 433 L24 433 L24 543 Z M143 -188 L176 -188 Q189 -188 199 -185.5 Q209 -183 214 -173 L214 -151 L211 -151 Q177 -151 158 -145 Q139 -139 133 -131 L133 -67 Q139 -60 158 -52.5 Q177 -45 211 -45 Q245 -45 264 -52.5 Q283 -60 289 -67 L289 -179 Q280 -203 254 -220 Q228 -237 190 -237 L143 -237 L143 -188 Z " />
<glyph glyph-name="tbar" unicode="&#x167;" horiz-adv-x="364" d="M24 543 L76 543 L76 655 L228 655 L228 543 L344 543 L344 433 L228 433 L228 335 L344 335 L344 225 L228 225 L228 133 Q234 124 250.5 112.5 Q267 101 309 101 Q334 101 344 103 L344 0 Q333 -3 310.5 -7.5 Q288 -12 253 -12 Q211 -12 180 -3 Q149 6 128 19.5 Q107 33 94.5 50 Q82 67 76 83 L76 225 L24 225 L24 335 L76 335 L76 433 L24 433 L24 543 Z " />
<glyph glyph-name="ugrave" unicode="&#xf9;" horiz-adv-x="559" d="M197 543 L197 143 Q204 131 223 117 Q242 103 277 103 Q307 103 327.5 112 Q348 121 360 135 L360 543 L511 543 L511 0 L373 0 L373 49 Q350 23 313.5 6 Q277 -11 223 -11 Q182 -11 152 1 Q122 13 100.5 31.5 Q79 50 66 71.5 Q53 93 46 111 L46 543 L197 543 Z M144 702 L144 766 L292 766 L344 612 L344 597 L225 597 L144 702 Z " />
<glyph glyph-name="uacute" unicode="&#xfa;" horiz-adv-x="559" d="M197 543 L197 143 Q204 131 223 117 Q242 103 277 103 Q307 103 327.5 112 Q348 121 360 135 L360 543 L511 543 L511 0 L373 0 L373 49 Q350 23 313.5 6 Q277 -11 223 -11 Q182 -11 152 1 Q122 13 100.5 31.5 Q79 50 66 71.5 Q53 93 46 111 L46 543 L197 543 Z M215 612 L267 766 L415 766 L415 702 L335 597 L215 597 L215 612 Z " />
<glyph glyph-name="ucircumflex" unicode="&#xfb;" horiz-adv-x="559" d="M197 543 L197 143 Q204 131 223 117 Q242 103 277 103 Q307 103 327.5 112 Q348 121 360 135 L360 543 L511 543 L511 0 L373 0 L373 49 Q350 23 313.5 6 Q277 -11 223 -11 Q182 -11 152 1 Q122 13 100.5 31.5 Q79 50 66 71.5 Q53 93 46 111 L46 543 L197 543 Z M104 609 L183 763 L377 763 L456 609 L456 594 L348 594 L280 692 L212 594 L104 594 L104 609 Z " />
<glyph glyph-name="utilde" unicode="&#x169;" horiz-adv-x="559" d="M197 543 L197 143 Q204 131 223 117 Q242 103 277 103 Q307 103 327.5 112 Q348 121 360 135 L360 543 L511 543 L511 0 L373 0 L373 49 Q350 23 313.5 6 Q277 -11 223 -11 Q182 -11 152 1 Q122 13 100.5 31.5 Q79 50 66 71.5 Q53 93 46 111 L46 543 L197 543 Z M476 680 Q468 650 439 625.5 Q410 601 361 601 Q330 601 309.5 609 Q289 617 273.5 626 Q258 635 244 643 Q230 651 213 651 Q195 651 185.5 643 Q176 635 173 627 L173 606 L84 606 L84 666 Q92 698 121.5 721.5 Q151 745 199 745 Q229 745 249.5 737 Q270 729 286 720 Q302 711 316 703 Q330 695 347 695 Q379 695 387 720 L387 740 L476 740 L476 680 Z " />
<glyph glyph-name="udieresis" unicode="&#xfc;" horiz-adv-x="559" d="M197 543 L197 143 Q204 131 223 117 Q242 103 277 103 Q307 103 327.5 112 Q348 121 360 135 L360 543 L511 543 L511 0 L373 0 L373 49 Q350 23 313.5 6 Q277 -11 223 -11 Q182 -11 152 1 Q122 13 100.5 31.5 Q79 50 66 71.5 Q53 93 46 111 L46 543 L197 543 Z M98 712 Q104 719 121 730.5 Q138 742 171 742 Q206 742 222.5 730.5 Q239 719 245 712 L245 632 Q239 624 222.5 613 Q206 602 171 602 Q138 602 121 613 Q104 624 98 632 L98 712 Z M318 712 Q324 719 340.5 730.5 Q357 742 391 742 Q425 742 442 730.5 Q459 719 464 712 L464 632 Q459 624 442 613 Q425 602 391 602 Q357 602 340.5 613 Q324 624 318 632 L318 712 Z " />
<glyph glyph-name="umacron" unicode="&#x16b;" horiz-adv-x="559" d="M197 543 L197 143 Q204 131 223 117 Q242 103 277 103 Q307 103 327.5 112 Q348 121 360 135 L360 543 L511 543 L511 0 L373 0 L373 49 Q350 23 313.5 6 Q277 -11 223 -11 Q182 -11 152 1 Q122 13 100.5 31.5 Q79 50 66 71.5 Q53 93 46 111 L46 543 L197 543 Z M96 728 L463 728 L463 623 L96 623 L96 728 Z " />
<glyph glyph-name="ubreve" unicode="&#x16d;" horiz-adv-x="559" d="M197 543 L197 143 Q204 131 223 117 Q242 103 277 103 Q307 103 327.5 112 Q348 121 360 135 L360 543 L511 543 L511 0 L373 0 L373 49 Q350 23 313.5 6 Q277 -11 223 -11 Q182 -11 152 1 Q122 13 100.5 31.5 Q79 50 66 71.5 Q53 93 46 111 L46 543 L197 543 Z M104 735 L214 735 L214 707 Q218 698 233 686 Q248 674 278 674 Q308 674 323 686 Q338 698 342 707 L342 735 L452 735 L452 686 Q443 667 428 649.5 Q413 632 392 619 Q371 606 343 598.5 Q315 591 278 591 Q241 591 213 598.5 Q185 606 164 619 Q143 632 128 649.5 Q113 667 104 686 L104 735 Z " />
<glyph glyph-name="uring" unicode="&#x16f;" horiz-adv-x="559" d="M197 543 L197 143 Q204 131 223 117 Q242 103 277 103 Q307 103 327.5 112 Q348 121 360 135 L360 543 L511 543 L511 0 L373 0 L373 49 Q350 23 313.5 6 Q277 -11 223 -11 Q182 -11 152 1 Q122 13 100.5 31.5 Q79 50 66 71.5 Q53 93 46 111 L46 543 L197 543 Z M229 665 Q233 657 245.5 649.5 Q258 642 280 642 Q302 642 314.5 649.5 Q327 657 331 665 L331 724 Q327 732 314.5 739.5 Q302 747 280 747 Q258 747 245.5 739.5 Q233 732 229 724 L229 665 Z M157 740 Q171 769 203.5 787.5 Q236 806 280 806 Q324 806 356.5 787.5 Q389 769 403 740 L403 649 Q389 620 356.5 601.5 Q324 583 280 583 Q236 583 203.5 601.5 Q171 620 157 649 L157 740 Z " />
<glyph glyph-name="uhungarumlaut" unicode="&#x171;" horiz-adv-x="559" d="M197 543 L197 143 Q204 131 223 117 Q242 103 277 103 Q307 103 327.5 112 Q348 121 360 135 L360 543 L511 543 L511 0 L373 0 L373 49 Q350 23 313.5 6 Q277 -11 223 -11 Q182 -11 152 1 Q122 13 100.5 31.5 Q79 50 66 71.5 Q53 93 46 111 L46 543 L197 543 Z M129 605 L164 759 L285 759 L285 706 L227 590 L129 590 L129 605 Z M326 605 L360 759 L481 759 L481 706 L423 590 L326 590 L326 605 Z " />
<glyph glyph-name="uogonek" unicode="&#x173;" horiz-adv-x="559" d="M306 -110 Q310 -100 321.5 -83 Q333 -66 350.5 -47 Q368 -28 389 -9 Q395 -4 401 0 L373 0 L373 49 Q350 23 313.5 6 Q277 -11 223 -11 Q182 -11 152 1 Q122 13 100.5 31.5 Q79 50 66 71.5 Q53 93 46 111 L46 543 L197 543 L197 143 Q204 131 223 117 Q242 103 277 103 Q307 103 327.5 112 Q348 121 360 135 L360 543 L511 543 L511 0 Q461 -45 440 -73.5 Q419 -102 414 -113 L414 -139 Q424 -157 458 -157 Q484 -157 511 -147 L511 -224 Q498 -231 481 -235 Q464 -239 432 -239 Q390 -239 355 -227 Q320 -215 306 -186 L306 -110 Z " />
<glyph glyph-name="wgrave" unicode="&#x1e81;" horiz-adv-x="799" d="M31 460 L31 543 L175 543 L243 168 L260 168 L341 543 L475 543 L555 168 L572 168 L641 543 L768 543 L768 460 L657 0 L479 0 L412 292 L398 292 L330 0 L143 0 L31 460 Z M266 702 L266 766 L414 766 L466 612 L466 597 L347 597 L266 702 Z " />
<glyph glyph-name="wacute" unicode="&#x1e83;" horiz-adv-x="799" d="M31 460 L31 543 L175 543 L243 168 L260 168 L341 543 L475 543 L555 168 L572 168 L641 543 L768 543 L768 460 L657 0 L479 0 L412 292 L398 292 L330 0 L143 0 L31 460 Z M347 612 L399 766 L547 766 L547 702 L467 597 L347 597 L347 612 Z " />
<glyph glyph-name="wcircumflex" unicode="&#x175;" horiz-adv-x="799" d="M31 460 L31 543 L175 543 L243 168 L260 168 L341 543 L475 543 L555 168 L572 168 L641 543 L768 543 L768 460 L657 0 L479 0 L412 292 L398 292 L330 0 L143 0 L31 460 Z M227 609 L306 763 L500 763 L579 609 L579 594 L471 594 L403 692 L335 594 L227 594 L227 609 Z " />
<glyph glyph-name="wdieresis" unicode="&#x1e85;" horiz-adv-x="799" d="M31 460 L31 543 L175 543 L243 168 L260 168 L341 543 L475 543 L555 168 L572 168 L641 543 L768 543 L768 460 L657 0 L479 0 L412 292 L398 292 L330 0 L143 0 L31 460 Z M222 712 Q228 719 245 730.5 Q262 742 295 742 Q330 742 346.5 730.5 Q363 719 369 712 L369 632 Q363 624 346.5 613 Q330 602 295 602 Q262 602 245 613 Q228 624 222 632 L222 712 Z M442 712 Q448 719 464.5 730.5 Q481 742 515 742 Q549 742 566 730.5 Q583 719 588 712 L588 632 Q583 624 566 613 Q549 602 515 602 Q481 602 464.5 613 Q448 624 442 632 L442 712 Z " />
<glyph glyph-name="ygrave" unicode="&#x1ef3;" horiz-adv-x="529" d="M197 12 L31 459 L31 543 L175 543 L261 212 L279 212 L364 543 L498 543 L498 460 L322 -92 Q297 -122 248.5 -146 Q200 -170 127 -170 Q101 -170 77.5 -167 Q54 -164 42 -160 L42 -56 Q52 -57 69 -57.5 Q86 -58 94 -58 Q128 -58 152 -47 Q176 -36 187 -25 L197 12 Z M131 702 L131 766 L279 766 L331 612 L331 597 L212 597 L131 702 Z " />
<glyph glyph-name="yacute" unicode="&#xfd;" horiz-adv-x="529" d="M197 12 L31 459 L31 543 L175 543 L261 212 L279 212 L364 543 L498 543 L498 460 L322 -92 Q297 -122 248.5 -146 Q200 -170 127 -170 Q101 -170 77.5 -167 Q54 -164 42 -160 L42 -56 Q52 -57 69 -57.5 Q86 -58 94 -58 Q128 -58 152 -47 Q176 -36 187 -25 L197 12 Z M201 612 L253 766 L401 766 L401 702 L321 597 L201 597 L201 612 Z " />
<glyph glyph-name="ycircumflex" unicode="&#x177;" horiz-adv-x="529" d="M197 12 L31 459 L31 543 L175 543 L261 212 L279 212 L364 543 L498 543 L498 460 L322 -92 Q297 -122 248.5 -146 Q200 -170 127 -170 Q101 -170 77.5 -167 Q54 -164 42 -160 L42 -56 Q52 -57 69 -57.5 Q86 -58 94 -58 Q128 -58 152 -47 Q176 -36 187 -25 L197 12 Z M94 609 L173 763 L367 763 L446 609 L446 594 L338 594 L270 692 L202 594 L94 594 L94 609 Z " />
<glyph glyph-name="ydieresis" unicode="&#xff;" horiz-adv-x="529" d="M197 12 L31 459 L31 543 L175 543 L261 212 L279 212 L364 543 L498 543 L498 460 L322 -92 Q297 -122 248.5 -146 Q200 -170 127 -170 Q101 -170 77.5 -167 Q54 -164 42 -160 L42 -56 Q52 -57 69 -57.5 Q86 -58 94 -58 Q128 -58 152 -47 Q176 -36 187 -25 L197 12 Z M86 712 Q92 719 109 730.5 Q126 742 159 742 Q194 742 210.5 730.5 Q227 719 233 712 L233 632 Q227 624 210.5 613 Q194 602 159 602 Q126 602 109 613 Q92 624 86 632 L86 712 Z M306 712 Q312 719 328.5 730.5 Q345 742 379 742 Q413 742 430 730.5 Q447 719 452 712 L452 632 Q447 624 430 613 Q413 602 379 602 Q345 602 328.5 613 Q312 624 306 632 L306 712 Z " />
<glyph glyph-name="zacute" unicode="&#x17a;" horiz-adv-x="477" d="M28 102 L262 421 L262 433 L28 433 L28 543 L449 543 L449 447 L208 121 L208 110 L449 110 L449 0 L28 0 L28 102 Z M177 612 L229 766 L377 766 L377 702 L297 597 L177 597 L177 612 Z " />
<glyph glyph-name="zcaron" unicode="&#x17e;" horiz-adv-x="477" d="M28 102 L262 421 L262 433 L28 433 L28 543 L449 543 L449 447 L208 121 L208 110 L449 110 L449 0 L28 0 L28 102 Z M72 748 L72 763 L180 763 L248 665 L316 763 L424 763 L424 748 L345 594 L151 594 L72 748 Z " />
<glyph glyph-name="zdotaccent" unicode="&#x17c;" horiz-adv-x="477" d="M28 102 L262 421 L262 433 L28 433 L28 543 L449 543 L449 447 L208 121 L208 110 L449 110 L449 0 L28 0 L28 102 Z M169 704 Q176 719 195 732 Q214 745 249 745 Q284 745 303.5 732 Q323 719 329 704 L329 645 Q323 630 303.5 617 Q284 604 249 604 Q214 604 195 617 Q176 630 169 645 L169 704 Z " />
<glyph glyph-name="eng" unicode="&#x14b;" horiz-adv-x="565" d="M280 -56 Q315 -56 337.5 -39 Q360 -22 368 1 L368 400 Q361 412 340.5 426 Q320 440 285 440 Q254 440 232.5 430.5 Q211 421 199 407 L199 0 L48 0 L48 543 L187 543 L187 493 Q210 519 247.5 536.5 Q285 554 339 554 Q379 554 410 541.5 Q441 529 463 510.5 Q485 492 498.5 470.5 Q512 449 519 431 L519 -32 Q510 -53 491.5 -77.5 Q473 -102 443.5 -122 Q414 -142 373.5 -155.5 Q333 -169 280 -169 L280 -56 Z " />
<glyph glyph-name="eth" unicode="&#xf0;" horiz-adv-x="562" d="M161 572 L258 603 Q240 617 221.5 628.5 Q203 640 186 650 L282 728 Q316 715 347.5 695 Q379 675 407 652 L520 688 L520 617 L463 598 Q484 575 498.5 553.5 Q513 532 520 516 L520 122 Q511 100 492.5 76 Q474 52 444.5 31.5 Q415 11 374.5 -2 Q334 -15 281 -15 Q228 -15 187.5 -2 Q147 11 117.5 31.5 Q88 52 69.5 76 Q51 100 42 121 L42 343 Q49 365 63.5 389 Q78 413 100.5 432.5 Q123 452 155 464.5 Q187 477 228 477 Q276 477 311 464.5 Q346 452 369 429 L369 486 Q361 501 348.5 517.5 Q336 534 319 551 L161 500 L161 572 Z M193 149 Q202 130 224 115 Q246 100 281 100 Q316 100 338.5 115 Q361 130 369 149 L369 325 Q361 338 338.5 350 Q316 362 281 362 Q246 362 224 348 Q202 334 193 315 L193 149 Z " />
<glyph glyph-name="thorn" unicode="&#xfe;" horiz-adv-x="561" d="M48 700 L199 700 L199 505 Q222 527 256.5 540.5 Q291 554 339 554 Q379 554 410 541.5 Q441 529 463 510.5 Q485 492 498.5 470.5 Q512 449 519 431 L519 112 Q512 94 498.5 72.5 Q485 51 463 32.5 Q441 14 410 1.5 Q379 -11 339 -11 Q291 -11 256.5 2.5 Q222 16 199 37 L199 -157 L48 -157 L48 700 Z M285 440 Q254 440 232.5 430.5 Q211 421 199 407 L199 136 Q211 122 233 112.5 Q255 103 286 103 Q321 103 341 117.5 Q361 132 368 143 L368 400 Q361 412 340.5 426 Q320 440 285 440 Z " />
<glyph glyph-name="uni0259" unicode="&#x259;" horiz-adv-x="548" d="M507 121 Q498 100 479.5 76 Q461 52 432 31.5 Q403 11 362.5 -2 Q322 -15 269 -15 Q216 -15 176 -2 Q136 11 108.5 29 Q81 47 64 66.5 Q47 86 40 100 L40 313 L356 313 L356 393 Q347 412 325 427 Q303 442 269 442 Q234 442 211 427 Q188 412 180 393 L180 363 L40 363 L40 442 Q48 456 64.5 475.5 Q81 495 109 513 Q137 531 176.5 544 Q216 557 269 557 Q322 557 362.5 544 Q403 531 432 510.5 Q461 490 479.5 466 Q498 442 507 421 L507 121 Z M356 215 L180 215 L180 149 Q188 129 211 114 Q234 99 269 99 Q303 99 325 114 Q347 129 356 149 L356 215 Z " />
<glyph glyph-name="longs" unicode="&#x17f;" horiz-adv-x="322" d="M49 620 Q55 636 67.5 653 Q80 670 101 683.5 Q122 697 153 706 Q184 715 226 715 Q259 715 283 711 Q307 707 317 703 L317 600 Q313 600 303.5 601 Q294 602 282 602 Q261 602 247 598.5 Q233 595 223.5 590 Q214 585 209 579.5 Q204 574 201 570 L201 0 L49 0 L49 620 Z " />
<glyph glyph-name="ff" unicode="&#xfb00;" horiz-adv-x="677" d="M24 543 L76 543 L76 634 Q82 650 94.5 667 Q107 684 128 697.5 Q149 711 180 720 Q211 729 253 729 Q286 729 310 725 Q334 721 344 717 L344 614 Q340 614 330.5 615 Q321 616 309 616 Q288 616 274 612.5 Q260 609 250.5 604 Q241 599 236 593.5 Q231 588 228 584 L228 543 L391 543 L391 634 Q397 650 409.5 667 Q422 684 443 697.5 Q464 711 495 720 Q526 729 568 729 Q601 729 625 725 Q649 721 659 717 L659 614 Q655 614 645.5 615 Q636 616 624 616 Q603 616 589 612.5 Q575 609 565.5 604 Q556 599 551 593.5 Q546 588 543 584 L543 543 L659 543 L659 433 L543 433 L543 0 L391 0 L391 433 L228 433 L228 0 L76 0 L76 433 L24 433 L24 543 Z " />
<glyph glyph-name="fi" unicode="&#xfb01;" horiz-adv-x="612" d="M24 543 L76 543 L76 634 Q82 650 94.5 667 Q107 684 128 697.5 Q149 711 180 720 Q211 729 253 729 Q286 729 310 725 Q334 721 344 717 L344 614 Q340 614 330.5 615 Q321 616 309 616 Q287 616 272.5 612.5 Q258 609 248.5 604 Q239 599 234 593.5 Q229 588 227 584 L227 543 L344 543 L344 433 L227 433 L227 0 L76 0 L76 433 L24 433 L24 543 Z M407 704 Q414 719 433 732 Q452 745 487 745 Q522 745 541 732 Q560 719 566 704 L566 645 Q560 630 541 617 Q522 604 487 604 Q452 604 433 617 Q414 630 407 645 L407 704 Z M411 543 L562 543 L562 0 L411 0 L411 543 Z " />
<glyph glyph-name="fl" unicode="&#xfb02;" horiz-adv-x="610" d="M24 543 L76 543 L76 634 Q82 650 94.5 667 Q107 684 128 697.5 Q149 711 180 720 Q211 729 253 729 Q286 729 310 725 Q334 721 344 717 L344 614 Q340 614 330.5 615 Q321 616 309 616 Q287 616 272.5 612.5 Q258 609 248.5 604 Q239 599 234 593.5 Q229 588 227 584 L227 543 L344 543 L344 433 L227 433 L227 0 L76 0 L76 433 L24 433 L24 543 Z M410 700 L561 700 L561 0 L410 0 L410 700 Z " />
<glyph glyph-name="ampersand" unicode="&#x26;" horiz-adv-x="685" d="M98 597 Q107 613 125 633.5 Q143 654 171.5 672 Q200 690 240 702.5 Q280 715 331 715 Q382 715 421.5 702.5 Q461 690 489.5 672 Q518 654 536 633.5 Q554 613 563 597 L563 499 L412 499 L412 567 Q403 578 382.5 589 Q362 600 331 600 Q300 600 279 589 Q258 578 249 567 L249 482 L463 282 L463 355 L594 355 L594 159 L669 89 L669 0 L580 0 L521 55 Q484 24 435.5 4.5 Q387 -15 315 -15 Q255 -15 209.5 -2 Q164 11 131.5 31 Q99 51 78 75 Q57 99 47 121 L47 276 Q62 306 92.5 335 Q123 364 171 382 L98 450 L98 597 Z M319 102 Q354 102 381 111.5 Q408 121 429 140 L262 297 Q239 292 222.5 280 Q206 268 198 251 L198 155 Q210 132 243.5 117 Q277 102 319 102 Z " />
<glyph glyph-name="grave" unicode="&#x60;" horiz-adv-x="462" d="M131 702 L131 766 L279 766 L331 612 L331 597 L212 597 L131 702 Z " />
<glyph glyph-name="acute" unicode="&#xb4;" horiz-adv-x="462" d="M131 612 L183 766 L331 766 L331 702 L251 597 L131 597 L131 612 Z " />
<glyph glyph-name="circumflex" unicode="&#x2c6;" horiz-adv-x="462" d="M55 609 L134 763 L328 763 L407 609 L407 594 L299 594 L231 692 L163 594 L55 594 L55 609 Z " />
<glyph glyph-name="caron" unicode="&#x2c7;" horiz-adv-x="462" d="M55 748 L55 763 L163 763 L231 665 L299 763 L407 763 L407 748 L328 594 L134 594 L55 748 Z " />
<glyph glyph-name="commaaccent" unicode="&#xf6c3;" horiz-adv-x="462" d="M163 -188 L196 -188 Q209 -188 219 -185.5 Q229 -183 234 -173 L234 -151 L231 -151 Q197 -151 178 -145 Q159 -139 153 -131 L153 -67 Q159 -60 178 -52.5 Q197 -45 231 -45 Q265 -45 284 -52.5 Q303 -60 309 -67 L309 -179 Q300 -203 274 -220 Q248 -237 210 -237 L163 -237 L163 -188 Z " />
<glyph glyph-name="tilde" unicode="&#x2dc;" horiz-adv-x="462" d="M427 680 Q419 650 390 625.5 Q361 601 312 601 Q281 601 260.5 609 Q240 617 224.5 626 Q209 635 195 643 Q181 651 164 651 Q146 651 136.5 643 Q127 635 124 627 L124 606 L35 606 L35 666 Q43 698 72.5 721.5 Q102 745 150 745 Q180 745 200.5 737 Q221 729 237 720 Q253 711 267 703 Q281 695 298 695 Q330 695 338 720 L338 740 L427 740 L427 680 Z " />
<glyph glyph-name="dieresis" unicode="&#xa8;" horiz-adv-x="462" d="M49 712 Q55 719 72 730.5 Q89 742 122 742 Q157 742 173.5 730.5 Q190 719 196 712 L196 632 Q190 624 173.5 613 Q157 602 122 602 Q89 602 72 613 Q55 624 49 632 L49 712 Z M269 712 Q275 719 291.5 730.5 Q308 742 342 742 Q376 742 393 730.5 Q410 719 415 712 L415 632 Q410 624 393 613 Q376 602 342 602 Q308 602 291.5 613 Q275 624 269 632 L269 712 Z " />
<glyph glyph-name="macron" unicode="&#xaf;" horiz-adv-x="462" d="M48 728 L415 728 L415 623 L48 623 L48 728 Z " />
<glyph glyph-name="breve" unicode="&#x2d8;" horiz-adv-x="462" d="M57 735 L167 735 L167 707 Q171 698 186 686 Q201 674 231 674 Q261 674 276 686 Q291 698 295 707 L295 735 L405 735 L405 686 Q396 667 381 649.5 Q366 632 345 619 Q324 606 296 598.5 Q268 591 231 591 Q194 591 166 598.5 Q138 606 117 619 Q96 632 81 649.5 Q66 667 57 686 L57 735 Z " />
<glyph glyph-name="ring" unicode="&#x2da;" horiz-adv-x="462" d="M181 665 Q185 657 197.5 649.5 Q210 642 232 642 Q254 642 266.5 649.5 Q279 657 283 665 L283 724 Q279 732 266.5 739.5 Q254 747 232 747 Q210 747 197.5 739.5 Q185 732 181 724 L181 665 Z M109 740 Q123 769 155.5 787.5 Q188 806 232 806 Q276 806 308.5 787.5 Q341 769 355 740 L355 649 Q341 620 308.5 601.5 Q276 583 232 583 Q188 583 155.5 601.5 Q123 620 109 649 L109 740 Z " />
<glyph glyph-name="hungarumlaut" unicode="&#x2dd;" horiz-adv-x="462" d="M58 605 L93 759 L214 759 L214 706 L156 590 L58 590 L58 605 Z M255 605 L289 759 L410 759 L410 706 L352 590 L255 590 L255 605 Z " />
<glyph glyph-name="dotaccent" unicode="&#x2d9;" horiz-adv-x="462" d="M151 704 Q158 719 177 732 Q196 745 231 745 Q266 745 285.5 732 Q305 719 311 704 L311 645 Q305 630 285.5 617 Q266 604 231 604 Q196 604 177 617 Q158 630 151 645 L151 704 Z " />
<glyph glyph-name="cedilla" unicode="&#xb8;" horiz-adv-x="462" d="M136 -165 Q153 -170 171 -173 Q189 -176 208 -176 Q227 -176 240.5 -170.5 Q254 -165 258 -157 L258 -129 Q254 -121 241.5 -117 Q229 -113 212 -113 L149 -113 L182 3 L259 3 L243 -52 L256 -52 Q290 -52 314.5 -68.5 Q339 -85 347 -103 L347 -190 Q333 -218 298 -234 Q263 -250 217 -250 Q183 -250 156 -244.5 Q129 -239 115 -231 L136 -165 Z " />
<glyph glyph-name="ogonek" unicode="&#x2db;" horiz-adv-x="462" d="M132 -110 Q136 -100 147.5 -83 Q159 -66 176.5 -47 Q194 -28 215.5 -9.5 Q237 9 261 23 L337 0 Q287 -45 266 -73.5 Q245 -102 240 -113 L240 -139 Q250 -154 284 -155 Q310 -155 337 -147 L337 -224 Q324 -231 307 -235 Q290 -239 258 -239 Q216 -239 181 -227 Q146 -215 132 -186 L132 -110 Z " />
<glyph glyph-name="comma" unicode="&#x2c;" horiz-adv-x="226" d="M47 -64 L77 -64 Q87 -64 97.5 -57.5 Q108 -51 113 -42 L113 -16 Q79 -16 59 -2 Q39 12 33 26 L33 106 Q39 120 59 134 Q79 148 113 148 Q148 148 168 134 Q188 120 194 106 L194 -55 Q191 -64 182.5 -76.5 Q174 -89 160 -101 Q146 -113 127.5 -121 Q109 -129 85 -129 L47 -129 L47 -64 Z " />
<glyph glyph-name="semicolon" unicode="&#x3b;" horiz-adv-x="239" d="M54 -64 L84 -64 Q94 -64 104.5 -57.5 Q115 -51 120 -42 L120 -16 Q86 -16 66 -2 Q46 12 40 26 L40 106 Q46 120 66 134 Q86 148 120 148 Q155 148 175 134 Q195 120 201 106 L201 -55 Q198 -64 189.5 -76.5 Q181 -89 167 -101 Q153 -113 134.5 -121 Q116 -129 92 -129 L54 -129 L54 -64 Z M40 438 Q46 452 65.5 466 Q85 480 120 480 Q155 480 174.5 466 Q194 452 200 438 L200 362 Q194 348 174.5 334 Q155 320 120 320 Q85 320 65.5 334 Q46 348 40 362 L40 438 Z " />
<glyph glyph-name="colon" unicode="&#x3a;" horiz-adv-x="239" d="M40 106 Q46 120 65.5 134 Q85 148 120 148 Q155 148 174.5 134 Q194 120 200 106 L200 30 Q194 16 174.5 2 Q155 -12 120 -12 Q85 -12 65.5 2 Q46 16 40 30 L40 106 Z M40 438 Q46 452 65.5 466 Q85 480 120 480 Q155 480 174.5 466 Q194 452 200 438 L200 362 Q194 348 174.5 334 Q155 320 120 320 Q85 320 65.5 334 Q46 348 40 362 L40 438 Z " />
<glyph glyph-name="period" unicode="&#x2e;" horiz-adv-x="226" d="M33 106 Q39 120 58.5 134 Q78 148 113 148 Q148 148 167.5 134 Q187 120 193 106 L193 30 Q187 16 167.5 2 Q148 -12 113 -12 Q78 -12 58.5 2 Q39 16 33 30 L33 106 Z " />
<glyph glyph-name="ellipsis" unicode="&#x2026;" horiz-adv-x="665" d="M33 106 Q39 120 58.5 134 Q78 148 113 148 Q148 148 167.5 134 Q187 120 193 106 L193 30 Q187 16 167.5 2 Q148 -12 113 -12 Q78 -12 58.5 2 Q39 16 33 30 L33 106 Z M253 106 Q259 120 278.5 134 Q298 148 333 148 Q368 148 387.5 134 Q407 120 413 106 L413 30 Q407 16 387.5 2 Q368 -12 333 -12 Q298 -12 278.5 2 Q259 16 253 30 L253 106 Z M472 106 Q478 120 497.5 134 Q517 148 552 148 Q587 148 606.5 134 Q626 120 632 106 L632 30 Q626 16 606.5 2 Q587 -12 552 -12 Q517 -12 497.5 2 Q478 16 472 30 L472 106 Z " />
<glyph glyph-name="hyphen" unicode="&#x2d;" horiz-adv-x="367" d="M34 395 L333 395 L333 274 L34 274 L34 395 Z " />
<glyph glyph-name="exclam" unicode="&#x21;" horiz-adv-x="289" d="M59 554 L59 700 L229 700 L229 554 L210 185 L78 185 L59 554 Z M64 100 Q71 114 90.5 127.5 Q110 141 144 141 Q179 141 199 127.5 Q219 114 225 100 L225 30 Q219 16 199 2 Q179 -12 144 -12 Q110 -12 90.5 2 Q71 16 64 30 L64 100 Z " />
<glyph glyph-name="exclamdown" unicode="&#xa1;" horiz-adv-x="289" d="M230 -8 L230 -154 L60 -154 L60 -8 L79 361 L211 361 L230 -8 Z M225 446 Q218 432 198.5 418.5 Q179 405 145 405 Q110 405 90 418.5 Q70 432 64 446 L64 516 Q70 530 90 544 Q110 558 145 558 Q179 558 198.5 544 Q218 530 225 516 L225 446 Z " />
<glyph glyph-name="question" unicode="&#x3f;" horiz-adv-x="541" d="M148 310 L288 407 Q313 424 332 438 Q351 452 358 463 L358 546 Q347 564 323 577.5 Q299 591 264 591 Q229 591 205 577.5 Q181 564 170 546 L170 479 L25 479 L25 608 Q37 623 56 641.5 Q75 660 104 676.5 Q133 693 172.5 704 Q212 715 264 715 Q320 715 362.5 702 Q405 689 435.5 669.5 Q466 650 485.5 628.5 Q505 607 516 589 L516 411 Q512 403 503 394 Q494 385 482.5 376 Q471 367 458.5 358.5 Q446 350 436 343 L302 251 L302 194 L148 194 L148 310 Z M145 106 Q151 120 170.5 134 Q190 148 225 148 Q260 148 279.5 134 Q299 120 305 106 L305 30 Q299 16 279.5 2 Q260 -12 225 -12 Q190 -12 170.5 2 Q151 16 145 30 L145 106 Z " />
<glyph glyph-name="questiondown" unicode="&#xbf;" horiz-adv-x="541" d="M393 236 L253 140 Q227 123 208.5 108.5 Q190 94 183 83 L183 0 Q194 -18 218 -31.5 Q242 -45 277 -45 Q312 -45 336 -31.5 Q360 -18 371 0 L371 67 L516 67 L516 -62 Q504 -77 485 -95.5 Q466 -114 437 -130.5 Q408 -147 368.5 -158 Q329 -169 277 -169 Q221 -169 178.5 -156 Q136 -143 105.5 -123.5 Q75 -104 55.5 -82.5 Q36 -61 25 -43 L25 135 Q29 143 38 152 Q47 161 58.5 170 Q70 179 82 187.5 Q94 196 105 203 L239 295 L239 352 L393 352 L393 236 Z M396 440 Q390 426 370.5 412 Q351 398 316 398 Q281 398 261.5 412 Q242 426 236 440 L236 516 Q242 530 261.5 544 Q281 558 316 558 Q351 558 370.5 544 Q390 530 396 516 L396 440 Z " />
<glyph glyph-name="quoteleft" unicode="&#x2018;" horiz-adv-x="227" d="M180.003 649.996 L150.005 649.996 Q140.005 649.996 129.506 643.496 Q119.007 636.997 114.007 627.997 L114.007 601.999 Q148.005 601.999 168.004 588 Q188.002 574.001 194.002 560.002 L194.002 480.006 Q188.002 466.007 168.004 452.008 Q148.005 438.009 114.007 438.009 Q79.009 438.009 59.0103 452.008 Q39.0115 466.007 33.0118 480.006 L33.0118 640.997 Q36.0117 649.996 44.5111 662.495 Q53.0106 674.995 67.0098 686.994 Q81.0089 698.993 99.5078 706.993 Q118.007 714.992 142.005 714.992 L180.003 714.992 L180.003 649.996 Z " />
<glyph glyph-name="quoteright" unicode="&#x2019;" horiz-adv-x="227" d="M48 503 L78 503 Q88 503 98.5 509.5 Q109 516 114 525 L114 551 Q80 551 60 565 Q40 579 34 593 L34 673 Q40 687 60 701 Q80 715 114 715 Q149 715 169 701 Q189 687 195 673 L195 512 Q192 503 183.5 490.5 Q175 478 161 466 Q147 454 128.5 446 Q110 438 86 438 L48 438 L48 503 Z " />
<glyph glyph-name="quotedblleft" unicode="&#x201c;" horiz-adv-x="437" d="M180.003 649.996 L150.005 649.996 Q140.005 649.996 129.506 643.496 Q119.007 636.997 114.007 627.997 L114.007 601.999 Q148.005 601.999 168.004 588 Q188.002 574.001 194.002 560.002 L194.002 480.006 Q188.002 466.007 168.004 452.008 Q148.005 438.009 114.007 438.009 Q79.009 438.009 59.0103 452.008 Q39.0115 466.007 33.0118 480.006 L33.0118 640.997 Q36.0117 649.996 44.5111 662.495 Q53.0106 674.995 67.0098 686.994 Q81.0089 698.993 99.5078 706.993 Q118.007 714.992 142.005 714.992 L180.003 714.992 L180.003 649.996 Z M390.003 649.996 L360.005 649.996 Q350.005 649.996 339.506 643.496 Q329.007 636.997 324.007 627.997 L324.007 601.999 Q358.005 601.999 378.004 588 Q398.002 574.001 404.002 560.002 L404.002 480.006 Q398.002 466.007 378.004 452.008 Q358.005 438.009 324.007 438.009 Q289.009 438.009 269.01 452.008 Q249.011 466.007 243.012 480.006 L243.012 640.997 Q246.012 649.996 254.511 662.495 Q263.011 674.995 277.01 686.994 Q291.009 698.993 309.508 706.993 Q328.007 714.992 352.005 714.992 L390.003 714.992 L390.003 649.996 Z " />
<glyph glyph-name="quotedblright" unicode="&#x201d;" horiz-adv-x="437" d="M48 503 L78 503 Q88 503 98.5 509.5 Q109 516 114 525 L114 551 Q80 551 60 565 Q40 579 34 593 L34 673 Q40 687 60 701 Q80 715 114 715 Q149 715 169 701 Q189 687 195 673 L195 512 Q192 503 183.5 490.5 Q175 478 161 466 Q147 454 128.5 446 Q110 438 86 438 L48 438 L48 503 Z M258 503 L288 503 Q298 503 308.5 509.5 Q319 516 324 525 L324 551 Q290 551 270 565 Q250 579 244 593 L244 673 Q250 687 270 701 Q290 715 324 715 Q359 715 379 701 Q399 687 405 673 L405 512 Q402 503 393.5 490.5 Q385 478 371 466 Q357 454 338.5 446 Q320 438 296 438 L258 438 L258 503 Z " />
<glyph glyph-name="quotesinglbase" unicode="&#x201a;" horiz-adv-x="227" d="M48 -64 L78 -64 Q88 -64 98.5 -57.5 Q109 -51 114 -42 L114 -16 Q80 -16 60 -2 Q40 12 34 26 L34 106 Q40 120 60 134 Q80 148 114 148 Q149 148 169 134 Q189 120 195 106 L195 -55 Q192 -64 183.5 -76.5 Q175 -89 161 -101 Q147 -113 128.5 -121 Q110 -129 86 -129 L48 -129 L48 -64 Z " />
<glyph glyph-name="quotedblbase" unicode="&#x201e;" horiz-adv-x="437" d="M48 -64 L78 -64 Q88 -64 98.5 -57.5 Q109 -51 114 -42 L114 -16 Q80 -16 60 -2 Q40 12 34 26 L34 106 Q40 120 60 134 Q80 148 114 148 Q149 148 169 134 Q189 120 195 106 L195 -55 Q192 -64 183.5 -76.5 Q175 -89 161 -101 Q147 -113 128.5 -121 Q110 -129 86 -129 L48 -129 L48 -64 Z M258 -64 L288 -64 Q298 -64 308.5 -57.5 Q319 -51 324 -42 L324 -16 Q290 -16 270 -2 Q250 12 244 26 L244 106 Q250 120 270 134 Q290 148 324 148 Q359 148 379 134 Q399 120 405 106 L405 -55 Q402 -64 393.5 -76.5 Q385 -89 371 -101 Q357 -113 338.5 -121 Q320 -129 296 -129 L258 -129 L258 -64 Z " />
<glyph glyph-name="guilsinglleft" unicode="&#x2039;" horiz-adv-x="355" d="M34 228 L34 345 L207 543 L317 543 L317 463 L157 287 L317 112 L317 32 L207 32 L34 228 Z " />
<glyph glyph-name="guilsinglright" unicode="&#x203a;" horiz-adv-x="355" d="M38 112 L198 287 L38 463 L38 543 L149 543 L321 345 L321 228 L149 32 L38 32 L38 112 Z " />
<glyph glyph-name="guillemotleft" unicode="&#xab;" horiz-adv-x="639" d="M34 228 L34 345 L207 543 L317 543 L317 463 L157 287 L317 112 L317 32 L207 32 L34 228 Z M318 228 L318 345 L491 543 L601 543 L601 463 L441 287 L601 112 L601 32 L491 32 L318 228 Z " />
<glyph glyph-name="guillemotright" unicode="&#xbb;" horiz-adv-x="638" d="M38 112 L198 287 L38 463 L38 543 L149 543 L321 345 L321 228 L149 32 L38 32 L38 112 Z M321 112 L481 287 L321 463 L321 543 L432 543 L604 345 L604 228 L432 32 L321 32 L321 112 Z " />
<glyph glyph-name="slash" unicode="&#x2f;" horiz-adv-x="413" d="M38 -30 L246 731 L374 731 L374 651 L166 -110 L38 -110 L38 -30 Z " />
<glyph glyph-name="bar" unicode="&#x7c;" horiz-adv-x="319" d="M78 790 L241 790 L241 -130 L78 -130 L78 790 Z " />
<glyph glyph-name="endash" unicode="&#x2013;" horiz-adv-x="567" d="M34 395 L533 395 L533 274 L34 274 L34 395 Z " />
<glyph glyph-name="emdash" unicode="&#x2014;" horiz-adv-x="867" d="M34 395 L833 395 L833 274 L34 274 L34 395 Z " />
<glyph glyph-name="bullet" unicode="&#x2022;" horiz-adv-x="352" d="M47 416 Q64 440 96.5 458 Q129 476 175 476 Q220 476 253.5 458.5 Q287 441 304 416 L304 275 Q287 248 253.5 229.5 Q220 211 175 211 Q129 211 96.5 230 Q64 249 47 275 L47 416 Z " />
<glyph glyph-name="periodcentered" unicode="&#xb7;" horiz-adv-x="226" d="M33 378 Q39 392 58.5 406 Q78 420 113 420 Q148 420 167.5 406 Q187 392 193 378 L193 302 Q187 288 167.5 274 Q148 260 113 260 Q78 260 58.5 274 Q39 288 33 302 L33 378 Z " />
<glyph glyph-name="parenleft" unicode="&#x28;" horiz-adv-x="362" d="M320 591 Q292 591 273.5 581 Q255 571 243.5 555.5 Q232 540 226 521 Q220 502 217 483 L217 54 Q220 34 226 14 Q232 -6 243 -22 Q254 -38 272.5 -48.5 Q291 -59 320 -59 L330 -59 L330 -168 L320 -168 Q260 -168 214.5 -153 Q169 -138 135.5 -114 Q102 -90 80.5 -60.5 Q59 -31 48 -2 L48 534 Q59 563 80.5 592.5 Q102 622 135.5 646 Q169 670 214.5 685 Q260 700 320 700 L330 700 L330 591 L320 591 L320 591 Z " />
<glyph glyph-name="parenright" unicode="&#x29;" horiz-adv-x="362" d="M42.0195 591 Q70.0178 591 88.5167 581 Q107.016 571 118.515 555.5 Q130.014 540 136.014 521 Q142.013 502 145.013 483 L145.013 54 Q142.013 34 136.014 14 Q130.014 -6 119.015 -22 Q108.016 -38 89.5166 -48.5 Q71.0178 -59 42.0195 -59 L32.0201 -59 L32.0201 -168 L42.0195 -168 Q102.016 -168 147.513 -153 Q193.01 -138 226.508 -114 Q260.006 -90 281.505 -60.5 Q303.004 -31 314.003 -2 L314.003 534 Q303.004 563 281.505 592.5 Q260.006 622 226.508 646 Q193.01 670 147.513 685 Q102.016 700 42.0195 700 L32.0201 700 L32.0201 591 L42.0195 591 L42.0195 591 Z " />
<glyph glyph-name="bracketleft" unicode="&#x5b;" horiz-adv-x="368" d="M220 -59 L331 -59 L331 -168 L57 -168 L57 700 L331 700 L331 591 L220 591 L220 -59 Z " />
<glyph glyph-name="bracketright" unicode="&#x5d;" horiz-adv-x="368" d="M148.013 -59 L37.0202 -59 L37.0202 -168 L311.003 -168 L311.003 700 L37.0202 700 L37.0202 591 L148.013 591 L148.013 -59 Z " />
<glyph glyph-name="braceleft" unicode="&#x7b;" horiz-adv-x="380" d="M79 155 Q75 186 60 196 Q45 206 25 206 L25 315 Q45 315 60 325 Q75 335 79 367 L79 534 Q90 563 111.5 592.5 Q133 622 166 646 Q199 670 245 685 Q291 700 350 700 L350 591 Q324 591 306 583.5 Q288 576 276.5 563 Q265 550 258 532.5 Q251 515 248 496 L248 346 Q228 292 180 260 Q229 228 248 176 L248 25 Q251 6 258 -11 Q265 -28 276.5 -41 Q288 -54 306 -61.5 Q324 -69 350 -69 L350 -178 Q291 -178 245 -163 Q199 -148 166 -124.5 Q133 -101 111.5 -71.5 Q90 -42 79 -12 L79 155 Z " />
<glyph glyph-name="braceright" unicode="&#x7d;" horiz-adv-x="380" d="M301.005 155 Q305.005 186 320.004 196 Q335.003 206 355.002 206 L355.002 315 Q335.003 315 320.004 325 Q305.005 335 301.005 367 L301.005 534 Q290.005 563 268.507 592.5 Q247.008 622 214.01 646 Q181.012 670 135.015 685 Q89.0178 700 30.0214 700 L30.0214 591 Q56.0198 591 74.0187 583.5 Q92.0176 576 103.517 563 Q115.016 550 122.016 532.5 Q129.015 515 132.015 496 L132.015 346 Q152.014 292 200.011 260 Q151.014 228 132.015 176 L132.015 25 Q129.015 6 122.016 -11 Q115.016 -28 103.517 -41 Q92.0176 -54 74.0187 -61.5 Q56.0198 -69 30.0214 -69 L30.0214 -178 Q89.0178 -178 135.015 -163 Q181.012 -148 214.01 -124.5 Q247.008 -101 268.507 -71.5 Q290.005 -42 301.005 -12 L301.005 155 Z " />
<glyph glyph-name="asterisk" unicode="&#x2a;" horiz-adv-x="492" d="M206 595 L183 739 Q197 747 213 750.5 Q229 754 246 754 Q263 754 279 750.5 Q295 747 309 739 L286 595 L416 661 Q428 651 436.5 636.5 Q445 622 450 606 Q455 591 457 575 Q459 559 456 542 L310 518 L415 414 Q409 399 397.5 386.5 Q386 374 373 364 Q360 354 345 347.5 Q330 341 313 339 L246 469 L179 339 Q162 341 147 347.5 Q132 354 119 364 Q106 374 94.5 386.5 Q83 399 77 414 L181 518 L36 542 Q33 559 34.5 575 Q36 591 41 606 Q47 622 55.5 636.5 Q64 651 75 661 L206 595 Z " />
<glyph glyph-name="dagger" unicode="&#x2020;" horiz-adv-x="645" d="M244 355 L124 344 L28 344 L28 479 L124 479 L241 467 L239 554 L239 700 L403 700 L403 554 L401 467 L521 479 L617 479 L617 344 L521 344 L398 355 L384 -168 L257 -168 L244 355 Z " />
<glyph glyph-name="daggerdbl" unicode="&#x2021;" horiz-adv-x="665" d="M38 287 L134 287 L257 275 L253 418 L134 407 L38 407 L38 543 L134 543 L250 531 L250 700 L414 700 L414 554 L413 532 L531 543 L627 543 L627 407 L531 407 L410 418 L406 275 L531 287 L627 287 L627 152 L531 152 L403 164 L395 -168 L268 -168 L259 164 L134 152 L38 152 L38 287 Z " />
<glyph glyph-name="section" unicode="&#xa7;" horiz-adv-x="525" d="M483 247 Q476 237 463.5 223 Q451 209 431 195 Q452 183 464.5 171 Q477 159 483 149 L483 12 Q476 1 460 -17 Q444 -35 417 -51.5 Q390 -68 351.5 -80 Q313 -92 262 -92 Q210 -92 172 -80 Q134 -68 107.5 -51 Q81 -34 65 -16.5 Q49 1 41 12 L41 94 L181 94 L181 49 Q190 35 210.5 23.5 Q231 12 263 12 Q294 12 314.5 23.5 Q335 35 343 49 L343 95 Q336 108 318 116 Q300 124 276 129 L222 141 Q179 150 147.5 161.5 Q116 173 94.5 185 Q73 197 60 209 Q47 221 41 230 L41 375 Q48 385 60.5 399 Q73 413 93 427 Q72 440 59.5 451.5 Q47 463 41 474 L41 611 Q48 622 64.5 640 Q81 658 108 674.5 Q135 691 173 703 Q211 715 263 715 Q315 715 353 703 Q391 691 417.5 674 Q444 657 459.5 639.5 Q475 622 483 611 L483 529 L343 529 L343 574 Q335 588 314.5 599.5 Q294 611 262 611 Q231 611 210.5 599.5 Q190 588 181 574 L181 528 Q189 515 206.5 507 Q224 499 249 494 L303 482 Q345 473 376.5 461.5 Q408 450 429.5 438 Q451 426 464 414 Q477 402 483 392 L483 247 Z M257 376 Q228 374 208.5 362.5 Q189 351 181 339 L181 286 Q188 273 205.5 264.5 Q223 256 248 251 L268 247 Q297 249 316 260 Q335 271 343 284 L343 337 Q336 350 319 358 Q302 366 277 372 L257 376 Z " />
<glyph glyph-name="paragraph" unicode="&#xb6;" horiz-adv-x="672" d="M499 700 L612 700 L612 -100 L499 -100 L499 700 Z M407 -100 L294 -100 L294 231 L251 231 Q212 231 179.5 240.5 Q147 250 120 266.5 Q93 283 73 305 Q53 327 40 351 L40 581 Q73 639 128.5 669.5 Q184 700 251 700 L407 700 L407 -100 Z " />
<glyph glyph-name="asciicircum" unicode="&#x5e;" horiz-adv-x="504" d="M38 430 L182 700 L322 700 L466 430 L466 342 L368 342 L262 550 L243 550 L137 342 L38 342 L38 430 Z " />
<glyph glyph-name="asciitilde" unicode="&#x7e;" horiz-adv-x="585" d="M34 407 Q50 419 71 430 Q89 438 114.5 445.5 Q140 453 172 453 Q208 453 242 445 Q276 437 309 427.5 Q342 418 374.5 410 Q407 402 440 402 Q465 402 485.5 409 Q506 416 521 424 Q539 434 552 446 L552 315 Q539 305 522 298 Q508 291 487.5 286 Q467 281 441 281 Q402 281 368 289 Q334 297 301.5 306.5 Q269 316 237 324 Q205 332 170 332 Q141 332 116 324 Q91 316 73 306 Q52 295 34 281 L34 407 Z " />
<glyph glyph-name="brokenbar" unicode="&#xa6;" horiz-adv-x="321" d="M78 790 L241 790 L241 388 L78 388 L78 790 Z M78 302 L241 302 L241 -130 L78 -130 L78 302 Z " />
<glyph glyph-name="backslash" unicode="&#x5c;" horiz-adv-x="413" d="M38 651 L38 731 L166 731 L374 -30 L374 -110 L246 -110 L38 651 Z " />
<glyph glyph-name="underscore" unicode="&#x5f;" horiz-adv-x="514" d="M-5 -52 L519 -52 L519 -148 L-5 -148 L-5 -52 Z " />
<glyph glyph-name="quotesingle" unicode="&#x27;" horiz-adv-x="198" d="M33 572 L33 700 L165 700 L165 573 L145 439 L53 439 L33 572 Z " />
<glyph glyph-name="quotedbl" unicode="&#x22;" horiz-adv-x="390" d="M33 572 L33 700 L165 700 L165 573 L145 439 L53 439 L33 572 Z M225 572 L225 700 L357 700 L357 573 L337 439 L245 439 L225 572 Z " />
<glyph glyph-name="at" unicode="&#x40;" horiz-adv-x="909" d="M692 -98 Q642 -128 585 -144.5 Q528 -161 466 -161 Q395 -161 329.5 -143.5 Q264 -126 209 -92.5 Q154 -59 111.5 -11 Q69 37 45 98 L45 456 Q69 517 113 565 Q157 613 213.5 646.5 Q270 680 335.5 697.5 Q401 715 469 715 Q559 715 630.5 688.5 Q702 662 754.5 622.5 Q807 583 840 537.5 Q873 492 887 454 L887 107 Q875 87 856 73 Q837 59 815.5 50 Q794 41 770 37 Q746 33 724 33 Q669 33 631 50 Q593 67 567 100 Q541 73 503 54 Q465 35 413 35 Q376 35 347 46.5 Q318 58 296.5 75.5 Q275 93 261 113 Q247 133 241 150 L241 400 Q247 417 260.5 437 Q274 457 294.5 474 Q315 491 343 502.5 Q371 514 408 514 Q455 514 488 497.5 Q521 481 544 456 L544 501 L677 501 L677 139 Q694 111 734 111 Q755 111 767.5 118.5 Q780 126 791 140 L791 435 Q780 461 755.5 494.5 Q731 528 691.5 557.5 Q652 587 596 607.5 Q540 628 466 628 Q355 628 268.5 578 Q182 528 140 433 L140 121 Q161 73 194 36.5 Q227 0 269.5 -25 Q312 -50 362 -63 Q412 -76 466 -76 Q515 -76 559.5 -63.5 Q604 -51 643 -28 L692 -98 Z M456 135 Q488 135 510 146.5 Q532 158 544 172 L544 377 Q532 392 509.5 403 Q487 414 455 414 Q422 414 402 400.5 Q382 387 376 376 L376 174 Q382 163 402 149 Q422 135 456 135 Z " />
<glyph glyph-name="copyright" unicode="&#xa9;" horiz-adv-x="797" d="M200 475 Q207 488 221.5 506 Q236 524 260 540.5 Q284 557 318 568.5 Q352 580 397 580 Q442 580 475.5 569.5 Q509 559 532 544.5 Q555 530 569 514.5 Q583 499 590 489 L590 394 L476 394 L476 451 Q468 462 449 474 Q430 486 400 486 Q370 486 351 474 Q332 462 324 451 L324 248 Q332 236 351 224.5 Q370 213 400 213 Q430 213 449 225 Q468 237 476 248 L476 305 L590 305 L590 209 Q583 199 569.5 183.5 Q556 168 532.5 154 Q509 140 476 129.5 Q443 119 397 119 Q352 119 317.5 130.5 Q283 142 259 158.5 Q235 175 220.5 193.5 Q206 212 200 225 L200 475 Z M31 350 Q31 426 60 492.5 Q89 559 139 608.5 Q189 658 256 686.5 Q323 715 398 715 Q474 715 540.5 686.5 Q607 658 657 608.5 Q707 559 736 492.5 Q765 426 765 350 Q765 274 736 207.5 Q707 141 657 91.5 Q607 42 540.5 13.5 Q474 -15 398 -15 Q323 -15 256 13.5 Q189 42 139 91.5 Q89 141 60 207.5 Q31 274 31 350 Z M398 46 Q461 46 516 70 Q571 94 611 135 Q651 176 674 231.5 Q697 287 697 350 Q697 413 674 468.5 Q651 524 611 565 Q571 606 516 630 Q461 654 398 654 Q335 654 280.5 630 Q226 606 185.5 565 Q145 524 122 468.5 Q99 413 99 350 Q99 287 122 231.5 Q145 176 185.5 135 Q226 94 280.5 70 Q335 46 398 46 Z " />
<glyph glyph-name="registered" unicode="&#xae;" horiz-adv-x="518" d="M20 585 Q20 634 39 677.5 Q58 721 90.5 753.5 Q123 786 166.5 805 Q210 824 259 824 Q308 824 351.5 805 Q395 786 427.5 753.5 Q460 721 479 677.5 Q498 634 498 585 Q498 536 479 492.5 Q460 449 427.5 416.5 Q395 384 351.5 365 Q308 346 259 346 Q210 346 166.5 365 Q123 384 90.5 416.5 Q58 449 39 492.5 Q20 536 20 585 Z M259 382 Q301 382 337.5 398 Q374 414 401 442 Q428 470 443.5 506.5 Q459 543 459 585 Q459 627 443.5 663.5 Q428 700 401 728 Q374 756 337.5 772 Q301 788 259 788 Q217 788 180.5 772 Q144 756 117 728 Q90 700 74.5 663.5 Q59 627 59 585 Q59 543 74.5 506.5 Q90 470 117 442 Q144 414 180.5 398 Q217 382 259 382 Z M259 537 L228 537 L228 449 L156 449 L156 727 L286 727 Q312 727 338 713 Q364 699 376 673 L376 592 Q369 577 357.5 566 Q346 555 332 548 L373 491 L373 449 L309 449 L259 537 Z M272 594 Q282 594 291.5 598 Q301 602 306 613 L306 652 Q301 663 291.5 666.5 Q282 670 272 670 L228 670 L228 594 L272 594 Z " />
<glyph glyph-name="trademark" unicode="&#x2122;" horiz-adv-x="807" d="M345 700 L487 700 L553 484 L563 484 L629 700 L764 700 L764 310 L670 310 L670 547 L660 547 L587 310 L523 310 L450 547 L439 547 L439 310 L345 310 L345 700 Z M23 700 L312 700 L312 621 L218 621 L218 310 L117 310 L117 621 L23 621 L23 700 Z " />
<glyph glyph-name="uni2117" unicode="&#x2117;" horiz-adv-x="797" d="M252 565 L449 565 Q493 565 531 541 Q569 517 587 477 L587 348 Q569 308 531 284 Q493 260 449 260 L358 260 L358 129 L252 129 L252 565 Z M429 340 Q445 340 460.5 348 Q476 356 484 375 L484 451 Q476 469 460.5 477 Q445 485 429 485 L358 485 L358 340 L429 340 Z M31 350 Q31 426 60 492.5 Q89 559 139 608.5 Q189 658 256 686.5 Q323 715 398 715 Q474 715 540.5 686.5 Q607 658 657 608.5 Q707 559 736 492.5 Q765 426 765 350 Q765 274 736 207.5 Q707 141 657 91.5 Q607 42 540.5 13.5 Q474 -15 398 -15 Q323 -15 256 13.5 Q189 42 139 91.5 Q89 141 60 207.5 Q31 274 31 350 Z M398 46 Q461 46 516 70 Q571 94 611 135 Q651 176 674 231.5 Q697 287 697 350 Q697 413 674 468.5 Q651 524 611 565 Q571 606 516 630 Q461 654 398 654 Q335 654 280.5 630 Q226 606 185.5 565 Q145 524 122 468.5 Q99 413 99 350 Q99 287 122 231.5 Q145 176 185.5 135 Q226 94 280.5 70 Q335 46 398 46 Z " />
<glyph glyph-name="currency" unicode="&#xa4;" horiz-adv-x="591" d="M51 581 L151 581 L174 558 Q199 569 229 575 Q259 581 295 581 Q331 581 361.5 574.5 Q392 568 417 557 L441 581 L539 581 L539 508 L512 481 Q526 462 534 445 L534 222 Q530 214 525 204.5 Q520 195 513 186 L539 161 L539 87 L441 87 L418 110 Q392 99 362 92.5 Q332 86 295 86 Q258 86 228 92 Q198 98 173 109 L151 87 L51 87 L51 161 L76 186 Q70 195 65 204.5 Q60 214 56 222 L56 445 Q60 453 65 462.5 Q70 472 77 481 L51 508 L51 581 Z M207 250 Q216 230 238 215.5 Q260 201 295 201 Q330 201 352.5 215.5 Q375 230 383 250 L383 417 Q375 437 352.5 452 Q330 467 295 467 Q260 467 238 452 Q216 437 207 417 L207 250 Z " />
<glyph glyph-name="Euro" unicode="&#x20ac;" horiz-adv-x="599" d="M28 457 L76 457 L76 582 Q85 602 105.5 625 Q126 648 157 668 Q188 688 230 701.5 Q272 715 325 715 Q378 715 419 702 Q460 689 489.5 670.5 Q519 652 537 632.5 Q555 613 563 600 L563 507 L418 507 L418 547 Q410 567 385 581.5 Q360 596 325 596 Q291 596 266 581.5 Q241 567 233 547 L233 457 L450 457 L450 382 L233 382 L233 327 L450 327 L450 251 L233 251 L233 153 Q241 134 266 119 Q291 104 325 104 Q360 104 385 119 Q410 134 418 153 L418 194 L563 194 L563 100 Q556 87 538 67.5 Q520 48 490.5 29.5 Q461 11 419.5 -2 Q378 -15 325 -15 Q272 -15 230 -1.5 Q188 12 157 32 Q126 52 105.5 75.5 Q85 99 76 119 L76 251 L28 251 L28 327 L76 327 L76 382 L28 382 L28 457 Z " />
<glyph glyph-name="dollar" unicode="&#x24;" horiz-adv-x="593" d="M47 225 L204 225 L204 153 Q212 138 234 121 Q256 104 296 104 Q336 104 359 121 Q382 138 389 153 L389 239 Q385 247 380 254 Q375 261 367 267 Q359 273 346 278.5 Q333 284 314 289 L264 301 Q207 313 169.5 328 Q132 343 107.5 359.5 Q83 376 69 393 Q55 410 47 426 L47 582 Q53 595 67 614 Q81 633 104 651.5 Q127 670 159.5 686 Q192 702 235 710 L235 792 L358 792 L358 710 Q401 702 433 686 Q465 670 488 651.5 Q511 633 525.5 614 Q540 595 546 582 L546 482 L389 482 L389 547 Q382 562 359 579 Q336 596 296 596 Q256 596 233.5 579 Q211 562 204 547 L204 478 Q209 464 224 451.5 Q239 439 280 429 L329 417 Q385 405 423 390 Q461 375 485.5 358.5 Q510 342 523.5 324.5 Q537 307 546 291 L546 118 Q538 104 524 85 Q510 66 487 47 Q464 28 432 12.5 Q400 -3 358 -10 L358 -92 L235 -92 L235 -10 Q192 -3 160 12.5 Q128 28 105.5 47 Q83 66 68.5 85 Q54 104 47 118 L47 225 Z " />
<glyph glyph-name="cent" unicode="&#xa2;" horiz-adv-x="542" d="M42 421 Q50 439 64 459 Q78 479 100 497.5 Q122 516 151.5 530.5 Q181 545 220 552 L220 634 L344 634 L344 551 Q381 544 409 530 Q437 516 457 500.5 Q477 485 490 469 Q503 453 509 441 L509 329 L369 329 L369 393 Q361 413 338 428 Q315 443 280 443 Q246 443 224 428 Q202 413 193 393 L193 149 Q202 130 224 115 Q246 100 280 100 Q315 100 338 115 Q361 130 369 149 L369 214 L509 214 L509 102 Q503 91 490.5 75 Q478 59 458 42.5 Q438 26 409.5 12 Q381 -2 344 -9 L344 -92 L220 -92 L220 -10 Q181 -3 151.5 11.5 Q122 26 100 44 Q78 62 64 82.5 Q50 103 42 121 L42 421 Z " />
<glyph glyph-name="sterling" unicode="&#xa3;" horiz-adv-x="608" d="M33 392 L81 392 L81 582 Q90 601 110 624.5 Q130 648 161 668 Q192 688 234.5 701.5 Q277 715 330 715 Q383 715 424.5 702 Q466 689 495.5 670.5 Q525 652 543 632.5 Q561 613 568 600 L568 500 L423 500 L423 547 Q414 567 389 581.5 Q364 596 330 596 Q295 596 270.5 581 Q246 566 238 547 L238 392 L466 392 L466 303 L238 303 L238 173 Q232 160 224.5 147 Q217 134 206 122 L568 122 L568 0 L39 0 L39 103 Q49 105 62 114 Q75 123 81 141 L81 303 L33 303 L33 392 Z " />
<glyph glyph-name="florin" unicode="&#x192;" horiz-adv-x="421" d="M70 516 L123 516 L123 618 Q129 634 141.5 651 Q154 668 174.5 682 Q195 696 224 705 Q253 714 293 714 Q326 714 352.5 710 Q379 706 391 702 L391 601 L347 601 Q327 601 314 597.5 Q301 594 293 588.5 Q285 583 280.5 577 Q276 571 274 566 L274 516 L391 516 L391 406 L274 406 L274 -85 Q268 -102 255.5 -119 Q243 -136 223 -149.5 Q203 -163 173.5 -172 Q144 -181 104 -181 Q71 -181 44.5 -177 Q18 -173 7 -169 L7 -68 L51 -68 Q70 -68 83 -64.5 Q96 -61 104 -55.5 Q112 -50 116.5 -44.5 Q121 -39 123 -34 L123 406 L70 406 L70 516 Z " />
<glyph glyph-name="yen" unicode="&#xa5;" horiz-adv-x="598" d="M30 417 L144 417 L30 620 L30 700 L186 700 L299 464 L314 464 L427 700 L568 700 L568 620 L455 417 L568 417 L568 342 L413 342 L377 276 L377 271 L568 271 L568 196 L377 196 L377 0 L214 0 L214 196 L30 196 L30 271 L214 271 L214 292 L186 342 L30 342 L30 417 Z " />
<glyph glyph-name="uni20A8" unicode="&#x20a8;" horiz-adv-x="514" d="M47 512 L270 512 L270 540 Q259 565 233.5 578.5 Q208 592 183 592 L47 592 L47 700 L497 700 L497 625 L393 625 Q403 614 411.5 602 Q420 590 428 576 L428 512 L497 512 L497 437 L428 437 L428 385 Q415 359 395 337.5 Q375 316 350.5 300 Q326 284 299 274 Q272 264 244 261 L427 80 L427 0 L287 0 L47 260 L47 357 L183 357 Q208 357 234 370.5 Q260 384 270 410 L270 437 L47 437 L47 512 Z " />
<glyph glyph-name="uni20BA" unicode="&#x20ba;" horiz-adv-x="590" d="M27 426 L88 455 L88 700 L245 700 L245 532 L420 617 L420 528 L245 443 L245 375 L420 460 L420 371 L245 286 L245 119 L331 119 Q366 119 391 133.5 Q416 148 424 168 L424 253 L568 253 L568 115 Q561 102 543 82.5 Q525 63 495.5 44.5 Q466 26 425 13 Q384 0 331 0 L88 0 L88 210 L27 181 L27 270 L88 299 L88 366 L27 337 L27 426 Z " />
<glyph glyph-name="uni20BD" unicode="&#x20bd;" horiz-adv-x="606" d="M20 379 L69 379 L69 700 L361 700 Q428 700 483 669.5 Q538 639 571 581 L571 391 Q545 343 491.5 308 Q438 273 361 273 L233 273 L233 214 L477 214 L477 139 L233 139 L233 0 L69 0 L69 139 L20 139 L20 214 L69 214 L69 273 L20 273 L20 379 Z M233 379 L324 379 Q354 379 378 391 Q402 403 415 427 L415 531 Q401 557 376 568 Q351 579 324 579 L233 579 L233 379 Z " />
<glyph glyph-name="ordfeminine" unicode="&#xaa;" horiz-adv-x="415" d="M274 381 Q255 367 229 357 Q203 347 168 347 Q141 347 120 353 Q99 359 84.5 367.5 Q70 376 61.5 385.5 Q53 395 49 401 L49 501 Q53 508 62 518 Q71 528 85.5 537.5 Q100 547 120.5 554 Q141 561 168 561 Q202 561 227.5 551.5 Q253 542 272 528 L272 604 Q264 621 247 632 Q230 643 203 643 Q176 643 161 633.5 Q146 624 141 616 L141 591 L55 591 L55 641 Q60 649 70.5 661 Q81 673 98.5 684 Q116 695 142 703 Q168 711 203 711 Q238 711 265.5 702.5 Q293 694 313 680.5 Q333 667 345.5 650 Q358 633 364 617 L364 356 L274 356 L274 381 Z M198 405 Q225 405 243.5 413.5 Q262 422 272 433 L272 475 Q262 486 243.5 494.5 Q225 503 198 503 Q171 503 157.5 494.5 Q144 486 139 478 L139 430 Q143 423 156.5 414 Q170 405 198 405 Z " />
<glyph glyph-name="ordmasculine" unicode="&#xba;" horiz-adv-x="420" d="M48 617 Q55 633 68 650 Q81 667 100.5 680.5 Q120 694 147.5 702.5 Q175 711 210 711 Q245 711 272 702.5 Q299 694 319 680.5 Q339 667 352 650 Q365 633 371 617 L371 441 Q365 424 352 407.5 Q339 391 319 377.5 Q299 364 272 355.5 Q245 347 210 347 Q175 347 147.5 355.5 Q120 364 100.5 377.5 Q81 391 68 407.5 Q55 424 48 441 L48 617 Z M141 453 Q148 438 165 427 Q182 416 210 416 Q237 416 254.5 427 Q272 438 279 453 L279 604 Q272 620 254.5 631.5 Q237 643 210 643 Q182 643 165 631.5 Q148 620 141 604 L141 453 Z " />
<glyph glyph-name="numbersign" unicode="&#x23;" horiz-adv-x="568" d="M299 80 L316 189 L198 189 L168 0 L63 0 L63 80 L80 189 L27 189 L27 297 L97 297 L115 408 L62 408 L62 516 L132 516 L162 700 L268 700 L268 620 L251 516 L368 516 L398 700 L504 700 L504 620 L487 516 L541 516 L541 408 L470 408 L452 297 L507 297 L507 189 L435 189 L405 0 L299 0 L299 80 Z M216 297 L333 297 L351 408 L234 408 L216 297 Z " />
<glyph glyph-name="uni2116" unicode="&#x2116;" horiz-adv-x="1028" d="M620 603 Q627 619 641.5 637 Q656 655 678.5 670.5 Q701 686 733 696.5 Q765 707 807 707 Q849 707 880.5 696.5 Q912 686 934.5 670.5 Q957 655 971 637 Q985 619 993 603 L993 442 Q985 427 971 408.5 Q957 390 934.5 374.5 Q912 359 880.5 348.5 Q849 338 807 338 Q765 338 733 348.5 Q701 359 678.5 374.5 Q656 390 641.5 408.5 Q627 427 620 442 L620 603 Z M735 464 Q743 450 760 437.5 Q777 425 807 425 Q836 425 853 437.5 Q870 450 878 464 L878 581 Q870 595 853 607.5 Q836 620 807 620 Q777 620 760 607.5 Q743 595 735 581 L735 464 Z M57 700 L238 700 L388 282 L405 282 L405 700 L557 700 L557 0 L376 0 L225 418 L209 418 L209 0 L57 0 L57 700 Z M620 297 L993 297 L993 203 L620 203 L620 297 Z " />
<glyph glyph-name="zero" unicode="0" horiz-adv-x="593" d="M47 582 Q56 602 76.5 625 Q97 648 128 668 Q159 688 201 701.5 Q243 715 296 715 Q349 715 391 701.5 Q433 688 464.5 668 Q496 648 516 625 Q536 602 546 582 L546 119 Q536 99 516 75.5 Q496 52 464.5 32 Q433 12 391 -1.5 Q349 -15 296 -15 Q243 -15 201 -1.5 Q159 12 128 32 Q97 52 76.5 75.5 Q56 99 47 119 L47 582 Z M204 153 Q212 134 237 119 Q262 104 296 104 Q331 104 356 119 Q381 134 389 153 L389 547 Q381 567 356 581.5 Q331 596 296 596 Q262 596 237 581.5 Q212 567 204 547 L204 153 Z " />
<glyph glyph-name="one" unicode="1" horiz-adv-x="436" d="M42 105 L148 105 L148 550 L42 510 L42 619 L190 700 L305 700 L305 105 L407 105 L407 0 L42 0 L42 105 Z " />
<glyph glyph-name="two" unicode="2" horiz-adv-x="569" d="M40 117 L316 383 Q342 408 355 422 Q368 436 370 444 L370 547 Q361 566 336.5 581 Q312 596 277 596 Q243 596 220 582 Q197 568 188 554 L188 461 L43 461 L43 607 Q51 619 68.5 637 Q86 655 114.5 672.5 Q143 690 183.5 702.5 Q224 715 277 715 Q331 715 373 701.5 Q415 688 446 668 Q477 648 497 625 Q517 602 527 582 L527 409 Q522 397 504.5 376.5 Q487 356 463 333 L249 133 L249 125 L530 125 L530 0 L40 0 L40 117 Z " />
<glyph glyph-name="three" unicode="3" horiz-adv-x="573" d="M41 212 L186 212 L186 153 Q195 134 219.5 119 Q244 104 279 104 Q314 104 338.5 119 Q363 134 371 153 L371 247 Q363 270 338.5 287 Q314 304 279 304 L190 304 L190 416 L275 416 Q310 416 333 432 Q356 448 365 464 L365 554 Q356 568 333 582 Q310 596 275 596 Q241 596 217.5 582 Q194 568 186 554 L186 495 L41 495 L41 607 Q48 618 66 636.5 Q84 655 112.5 672.5 Q141 690 181.5 702.5 Q222 715 275 715 Q328 715 370 702 Q412 689 442.5 669.5 Q473 650 492.5 628 Q512 606 521 588 L521 441 Q512 424 486 403 Q460 382 424 366 Q462 349 489.5 323 Q517 297 528 274 L528 119 Q519 99 499 76 Q479 53 448 32.5 Q417 12 374.5 -1.5 Q332 -15 279 -15 Q226 -15 185 -2 Q144 11 114.5 29.5 Q85 48 67 67.5 Q49 87 41 100 L41 212 Z " />
<glyph glyph-name="four" unicode="4" horiz-adv-x="594" d="M23 261 L268 700 L499 700 L499 265 L576 265 L576 149 L499 149 L499 0 L349 0 L349 149 L23 149 L23 261 Z M349 265 L349 562 L332 562 L165 265 L349 265 Z " />
<glyph glyph-name="five" unicode="5" horiz-adv-x="562" d="M45 205 L190 205 L190 153 Q199 134 223.5 119 Q248 104 283 104 Q317 104 342 118.5 Q367 133 375 153 L375 290 Q367 309 342 323.5 Q317 338 283 338 Q250 338 227.5 325.5 Q205 313 197 302 L52 302 L52 700 L517 700 L517 574 L197 574 L197 409 Q222 429 255 440.5 Q288 452 333 452 Q370 452 400.5 442.5 Q431 433 454.5 418 Q478 403 494.5 383.5 Q511 364 520 345 L520 100 Q512 86 494 66.5 Q476 47 446.5 29 Q417 11 376.5 -2 Q336 -15 283 -15 Q230 -15 189.5 -2.5 Q149 10 120 28 Q91 46 72.5 66 Q54 86 45 100 L45 205 Z " />
<glyph glyph-name="six" unicode="6" horiz-adv-x="579" d="M47 582 Q57 603 77 626 Q97 649 128 669 Q159 689 201 702 Q243 715 296 715 Q349 715 389.5 702.5 Q430 690 459.5 672 Q489 654 507 634 Q525 614 534 600 L534 493 L389 493 L389 547 Q381 566 356 581 Q331 596 296 596 Q262 596 237 581 Q212 566 204 547 L204 400 Q230 420 264 431.5 Q298 443 343 443 Q381 443 412 433.5 Q443 424 467 409 Q491 394 508 375 Q525 356 534 336 L534 100 Q526 87 508 67.5 Q490 48 460.5 29.5 Q431 11 390 -2 Q349 -15 296 -15 Q243 -15 201 -1.5 Q159 12 128 32 Q97 52 76.5 75.5 Q56 99 47 119 L47 582 Z M294 335 Q268 335 245.5 326.5 Q223 318 204 303 L204 153 Q212 134 237 119 Q262 104 296 104 Q331 104 356 119 Q381 134 389 153 L389 286 Q381 305 355.5 320 Q330 335 294 335 Z " />
<glyph glyph-name="seven" unicode="7" horiz-adv-x="506" d="M110 90 L322 559 L322 574 L16 574 L16 700 L479 700 L479 586 L242 0 L110 0 L110 90 Z " />
<glyph glyph-name="eight" unicode="8" horiz-adv-x="585" d="M58 607 Q66 618 83.5 636.5 Q101 655 129.5 672.5 Q158 690 198.5 702.5 Q239 715 292 715 Q346 715 386.5 702 Q427 689 455.5 671.5 Q484 654 501 636 Q518 618 526 607 L526 431 Q518 420 498.5 400 Q479 380 447 361 Q484 341 507.5 315 Q531 289 542 267 L542 119 Q533 99 512.5 75.5 Q492 52 461 32 Q430 12 388 -1.5 Q346 -15 292 -15 Q239 -15 197 -1.5 Q155 12 124 32 Q93 52 72.5 75.5 Q52 99 43 119 L43 267 Q54 288 77 314 Q100 340 137 361 Q105 379 85.5 398.5 Q66 418 58 431 L58 607 Z M200 153 Q208 134 233 119 Q258 104 292 104 Q327 104 352 119 Q377 134 385 153 L385 261 Q377 280 352 295 Q327 310 292 310 Q258 310 233 295 Q208 280 200 261 L200 153 Z M203 452 Q212 438 235 423.5 Q258 409 292 409 Q327 409 350 423.5 Q373 438 382 452 L382 554 Q373 568 350 582 Q327 596 292 596 Q258 596 235 582 Q212 568 203 554 L203 452 Z " />
<glyph glyph-name="nine" unicode="9" horiz-adv-x="576" d="M530 119 Q520 98 500 74.5 Q480 51 449 31 Q418 11 376 -2 Q334 -15 281 -15 Q228 -15 187.5 -2 Q147 11 117.5 29 Q88 47 70 66.5 Q52 86 43 100 L43 201 L188 201 L188 153 Q196 134 221 119 Q246 104 281 104 Q315 104 340 119 Q365 134 373 153 L373 291 Q347 271 312.5 259.5 Q278 248 233 248 Q195 248 164 257.5 Q133 267 109 282 Q85 297 68.5 316 Q52 335 43 355 L43 600 Q51 613 69 632.5 Q87 652 116.5 670.5 Q146 689 187 702 Q228 715 281 715 Q334 715 376 701.5 Q418 688 449 668 Q480 648 500.5 625 Q521 602 530 582 L530 119 Z M283 356 Q309 356 331 364.5 Q353 373 373 387 L373 547 Q365 566 340 581 Q315 596 281 596 Q246 596 221 581 Q196 566 188 547 L188 405 Q196 386 221.5 371 Q247 356 283 356 Z " />
<glyph glyph-name="zero.superior" unicode="&#x2070;" horiz-adv-x="434" d="M47 629 Q53 641 67 655 Q81 669 102 681 Q123 693 152 701 Q181 709 217 709 Q253 709 282 701 Q311 693 332 681 Q353 669 366.5 655 Q380 641 387 629 L387 351 Q380 339 366.5 325 Q353 311 332 299 Q311 287 282 279 Q253 271 217 271 Q181 271 152 279 Q123 287 102 299 Q81 311 67 325 Q53 339 47 351 L47 629 Z M155 374 Q161 365 177.5 357.5 Q194 350 217 350 Q240 350 256.5 357.5 Q273 365 278 374 L278 606 Q273 615 256.5 622.5 Q240 630 217 630 Q194 630 177.5 622.5 Q161 615 155 606 L155 374 Z " />
<glyph glyph-name="one.superior" unicode="&#xb9;" horiz-adv-x="317" d="M41 351 L110 351 L110 612 L40 608 L40 672 L128 700 L219 700 L219 351 L285 351 L285 280 L41 280 L41 351 Z " />
<glyph glyph-name="two.superior" unicode="&#xb2;" horiz-adv-x="418" d="M42 360 L230 511 Q247 524 255.5 532.5 Q264 541 266 544 L266 606 Q259 615 243 622.5 Q227 630 204 630 Q181 630 165.5 623 Q150 616 145 609 L145 553 L44 553 L44 644 Q50 650 62 661 Q74 672 93.5 682.5 Q113 693 140.5 701 Q168 709 204 709 Q241 709 269.5 701 Q298 693 319 681 Q340 669 353.5 655 Q367 641 374 629 L374 520 Q371 515 359.5 504.5 Q348 494 330 481 L186 371 L186 367 L377 367 L377 280 L42 280 L42 360 Z " />
<glyph glyph-name="three.superior" unicode="&#xb3;" horiz-adv-x="421" d="M43 409 L143 409 L143 374 Q149 365 165.5 357.5 Q182 350 205 350 Q228 350 244 357.5 Q260 365 267 374 L267 428 Q261 439 244.5 447.5 Q228 456 205 456 L144 456 L144 533 L203 533 Q226 533 241 541 Q256 549 262 557 L262 609 Q256 617 241 623.5 Q226 630 203 630 Q180 630 164 623 Q148 616 143 609 L143 574 L43 574 L43 644 Q48 651 60 662 Q72 673 91.5 683.5 Q111 694 139 701.5 Q167 709 203 709 Q239 709 267.5 701 Q296 693 316.5 681 Q337 669 350.5 655.5 Q364 642 370 631 L370 542 Q364 532 347 520 Q330 508 305 498 Q331 488 349 474 Q367 460 375 447 L375 351 Q369 340 355.5 326 Q342 312 321 300 Q300 288 271 279.5 Q242 271 205 271 Q169 271 141 279 Q113 287 93 297.5 Q73 308 60.5 319.5 Q48 331 43 338 L43 409 Z " />
<glyph glyph-name="four.superior" unicode="&#x2074;" horiz-adv-x="435" d="M31 441 L196 700 L356 700 L356 444 L408 444 L408 363 L356 363 L356 280 L252 280 L252 363 L31 363 L31 441 Z M252 444 L252 610 L240 610 L133 444 L252 444 Z " />
<glyph glyph-name="five.superior" unicode="&#x2075;" horiz-adv-x="412" d="M46 404 L146 404 L146 374 Q152 365 168.5 357.5 Q185 350 208 350 Q231 350 247 357.5 Q263 365 269 374 L269 456 Q263 465 247 472.5 Q231 480 208 480 Q184 480 170 473 Q156 466 150 460 L150 447 L50 447 L50 700 L367 700 L367 613 L150 613 L150 524 Q167 537 189.5 545.5 Q212 554 243 554 Q293 554 325.5 535 Q358 516 369 493 L369 338 Q363 330 351 319 Q339 308 319.5 297 Q300 286 272 278.5 Q244 271 208 271 Q172 271 144 278.5 Q116 286 96.5 296.5 Q77 307 64.5 318.5 Q52 330 46 338 L46 404 Z " />
<glyph glyph-name="six.superior" unicode="&#x2076;" horiz-adv-x="425" d="M47 629 Q54 641 67.5 655 Q81 669 102 681 Q123 693 152 701 Q181 709 217 709 Q253 709 281 701.5 Q309 694 329 683 Q349 672 361 660.5 Q373 649 379 642 L379 574 L278 574 L278 606 Q273 615 256.5 622.5 Q240 630 217 630 Q194 630 177.5 622.5 Q161 615 155 606 L155 513 Q173 528 197 537.5 Q221 547 252 547 Q302 547 334 527.5 Q366 508 379 485 L379 338 Q374 331 361.5 319.5 Q349 308 329 297.5 Q309 287 281 279 Q253 271 217 271 Q181 271 152 279 Q123 287 102 299 Q81 311 67 325 Q53 339 47 351 L47 629 Z M216 473 Q198 473 183 468.5 Q168 464 155 456 L155 374 Q161 365 177.5 357.5 Q194 350 217 350 Q240 350 256.5 357.5 Q273 365 278 374 L278 449 Q273 458 256 465.5 Q239 473 216 473 Z " />
<glyph glyph-name="seven.superior" unicode="&#x2077;" horiz-adv-x="375" d="M87 341 L231 608 L231 613 L27 613 L27 700 L344 700 L344 626 L185 280 L87 280 L87 341 Z " />
<glyph glyph-name="eight.superior" unicode="&#x2078;" horiz-adv-x="425" d="M52 644 Q57 651 69 662 Q81 673 100.5 683.5 Q120 694 148 701.5 Q176 709 212 709 Q249 709 276.5 701 Q304 693 323.5 682.5 Q343 672 355 661 Q367 650 372 644 L372 536 Q367 529 355 518.5 Q343 508 323 497 Q346 484 360.5 469.5 Q375 455 383 443 L383 351 Q376 339 362.5 325 Q349 311 327.5 299 Q306 287 277.5 279 Q249 271 212 271 Q176 271 147 279 Q118 287 97 299 Q76 311 62 325 Q48 339 42 351 L42 443 Q49 455 63.5 469.5 Q78 484 101 497 Q82 508 70 518.5 Q58 529 52 536 L52 644 Z M151 374 Q156 365 172.5 357.5 Q189 350 212 350 Q235 350 251.5 357.5 Q268 365 274 374 L274 438 Q268 446 251.5 454 Q235 462 212 462 Q189 462 172.5 454 Q156 446 151 438 L151 374 Z M153 551 Q159 544 174 537 Q189 530 212 530 Q235 530 250.5 537 Q266 544 272 551 L272 609 Q266 616 250.5 623 Q235 630 212 630 Q189 630 174 623 Q159 616 153 609 L153 551 Z " />
<glyph glyph-name="nine.superior" unicode="&#x2079;" horiz-adv-x="423" d="M377 351 Q370 339 356 325 Q342 311 321 299 Q300 287 271 279 Q242 271 206 271 Q170 271 142 278.5 Q114 286 94.5 296.5 Q75 307 62.5 318.5 Q50 330 44 338 L44 402 L145 402 L145 374 Q150 365 166.5 357.5 Q183 350 206 350 Q229 350 245.5 357.5 Q262 365 268 374 L268 460 Q250 445 226 435.5 Q202 426 171 426 Q121 426 88.5 445.5 Q56 465 44 489 L44 642 Q49 649 61 660 Q73 671 93.5 682 Q114 693 142 701 Q170 709 206 709 Q242 709 271 701 Q300 693 321 681 Q342 669 356 655 Q370 641 377 629 L377 351 Z M208 500 Q241 500 268 516 L268 606 Q262 615 245.5 622.5 Q229 630 206 630 Q183 630 166.5 622.5 Q150 615 145 606 L145 525 Q150 516 167 508 Q184 500 208 500 Z " />
<glyph glyph-name="uni00A0" unicode="&#xa0;" horiz-adv-x="203" d="" />
<glyph glyph-name="fraction" unicode="&#x2044;" horiz-adv-x="190" d="M-177 64 L298 700 L366 700 L366 636 L-108 0 L-177 0 L-177 64 Z " />
<glyph glyph-name="onequarter" unicode="&#xbc;" horiz-adv-x="915" d="M181 64 L656 700 L724 700 L724 636 L250 0 L181 0 L181 64 Z M44 351 L113 351 L113 612 L43 608 L43 672 L131 700 L222 700 L222 351 L288 351 L288 280 L44 280 L44 351 Z M495 162 L660 421 L820 421 L820 165 L872 165 L872 84 L820 84 L820 1 L716 1 L716 84 L495 84 L495 162 Z M716 165 L716 331 L704 331 L597 165 L716 165 Z " />
<glyph glyph-name="onehalf" unicode="&#xbd;" horiz-adv-x="957" d="M44 351 L113 351 L113 612 L43 608 L43 672 L131 700 L222 700 L222 351 L288 351 L288 280 L44 280 L44 351 Z M181 64 L656 700 L724 700 L724 636 L250 0 L181 0 L181 64 Z M579 81 L767 232 Q784 245 792.5 253.5 Q801 262 803 265 L803 327 Q796 336 780 343.5 Q764 351 741 351 Q718 351 702.5 344 Q687 337 682 330 L682 274 L581 274 L581 365 Q587 371 599 382 Q611 393 630.5 403.5 Q650 414 677.5 422 Q705 430 741 430 Q778 430 806.5 422 Q835 414 856 402 Q877 390 890.5 376 Q904 362 911 350 L911 241 Q908 236 896.5 225.5 Q885 215 867 202 L723 92 L723 88 L914 88 L914 1 L579 1 L579 81 Z " />
<glyph glyph-name="threequarters" unicode="&#xbe;" horiz-adv-x="952" d="M221 64 L696 700 L764 700 L764 636 L290 0 L221 0 L221 64 Z M532 162 L697 421 L857 421 L857 165 L909 165 L909 84 L857 84 L857 1 L753 1 L753 84 L532 84 L532 162 Z M753 165 L753 331 L741 331 L634 165 L753 165 Z M43 409 L143 409 L143 374 Q149 365 165.5 357.5 Q182 350 205 350 Q228 350 244 357.5 Q260 365 267 374 L267 428 Q261 439 244.5 447.5 Q228 456 205 456 L144 456 L144 533 L203 533 Q226 533 241 541 Q256 549 262 557 L262 609 Q256 617 241 623.5 Q226 630 203 630 Q180 630 164 623 Q148 616 143 609 L143 574 L43 574 L43 644 Q48 651 60 662 Q72 673 91.5 683.5 Q111 694 139 701.5 Q167 709 203 709 Q239 709 267.5 701 Q296 693 316.5 681 Q337 669 350.5 655.5 Q364 642 370 631 L370 542 Q364 532 347 520 Q330 508 305 498 Q331 488 349 474 Q367 460 375 447 L375 351 Q369 340 355.5 326 Q342 312 321 300 Q300 288 271 279.5 Q242 271 205 271 Q169 271 141 279 Q113 287 93 297.5 Q73 308 60.5 319.5 Q48 331 43 338 L43 409 Z " />
<glyph glyph-name="fiveeighths" unicode="&#x215d;" horiz-adv-x="1032" d="M237 64 L712 700 L780 700 L780 636 L306 0 L237 0 L237 64 Z M44 404 L144 404 L144 374 Q150 365 166.5 357.5 Q183 350 206 350 Q229 350 245 357.5 Q261 365 267 374 L267 456 Q261 465 245 472.5 Q229 480 206 480 Q182 480 168 473 Q154 466 148 460 L148 447 L48 447 L48 700 L365 700 L365 613 L148 613 L148 524 Q165 537 187.5 545.5 Q210 554 241 554 Q291 554 323.5 535 Q356 516 367 493 L367 338 Q361 330 349 319 Q337 308 317.5 297 Q298 286 270 278.5 Q242 271 206 271 Q170 271 142 278.5 Q114 286 94.5 296.5 Q75 307 62.5 318.5 Q50 330 44 338 L44 404 Z M656 365 Q661 372 673 383 Q685 394 704.5 404.5 Q724 415 752 422.5 Q780 430 816 430 Q853 430 880.5 422 Q908 414 927.5 403.5 Q947 393 959 382 Q971 371 976 365 L976 257 Q971 250 959 239.5 Q947 229 927 218 Q950 205 964.5 190.5 Q979 176 987 164 L987 72 Q980 60 966.5 46 Q953 32 931.5 20 Q910 8 881.5 0 Q853 -8 816 -8 Q780 -8 751 0 Q722 8 701 20 Q680 32 666 46 Q652 60 646 72 L646 164 Q653 176 667.5 190.5 Q682 205 705 218 Q686 229 674 239.5 Q662 250 656 257 L656 365 Z M755 95 Q760 86 776.5 78.5 Q793 71 816 71 Q839 71 855.5 78.5 Q872 86 878 95 L878 159 Q872 167 855.5 175 Q839 183 816 183 Q793 183 776.5 175 Q760 167 755 159 L755 95 Z M757 272 Q763 265 778 258 Q793 251 816 251 Q839 251 854.5 258 Q870 265 876 272 L876 330 Q870 337 854.5 344 Q839 351 816 351 Q793 351 778 344 Q763 337 757 330 L757 272 Z " />
<glyph glyph-name="oneeighth" unicode="&#x215b;" horiz-adv-x="988" d="M193 64 L668 700 L736 700 L736 636 L262 0 L193 0 L193 64 Z M44 351 L113 351 L113 612 L43 608 L43 672 L131 700 L222 700 L222 351 L288 351 L288 280 L44 280 L44 351 Z M612 365 Q617 372 629 383 Q641 394 660.5 404.5 Q680 415 708 422.5 Q736 430 772 430 Q809 430 836.5 422 Q864 414 883.5 403.5 Q903 393 915 382 Q927 371 932 365 L932 257 Q927 250 915 239.5 Q903 229 883 218 Q906 205 920.5 190.5 Q935 176 943 164 L943 72 Q936 60 922.5 46 Q909 32 887.5 20 Q866 8 837.5 0 Q809 -8 772 -8 Q736 -8 707 0 Q678 8 657 20 Q636 32 622 46 Q608 60 602 72 L602 164 Q609 176 623.5 190.5 Q638 205 661 218 Q642 229 630 239.5 Q618 250 612 257 L612 365 Z M711 95 Q716 86 732.5 78.5 Q749 71 772 71 Q795 71 811.5 78.5 Q828 86 834 95 L834 159 Q828 167 811.5 175 Q795 183 772 183 Q749 183 732.5 175 Q716 167 711 159 L711 95 Z M713 272 Q719 265 734 258 Q749 251 772 251 Q795 251 810.5 258 Q826 265 832 272 L832 330 Q826 337 810.5 344 Q795 351 772 351 Q749 351 734 344 Q719 337 713 330 L713 272 Z " />
<glyph glyph-name="seveneighths" unicode="&#x215e;" horiz-adv-x="968" d="M173 64 L648 700 L716 700 L716 636 L242 0 L173 0 L173 64 Z M100 341 L244 608 L244 613 L40 613 L40 700 L357 700 L357 626 L198 280 L100 280 L100 341 Z M592 365 Q597 372 609 383 Q621 394 640.5 404.5 Q660 415 688 422.5 Q716 430 752 430 Q789 430 816.5 422 Q844 414 863.5 403.5 Q883 393 895 382 Q907 371 912 365 L912 257 Q907 250 895 239.5 Q883 229 863 218 Q886 205 900.5 190.5 Q915 176 923 164 L923 72 Q916 60 902.5 46 Q889 32 867.5 20 Q846 8 817.5 0 Q789 -8 752 -8 Q716 -8 687 0 Q658 8 637 20 Q616 32 602 46 Q588 60 582 72 L582 164 Q589 176 603.5 190.5 Q618 205 641 218 Q622 229 610 239.5 Q598 250 592 257 L592 365 Z M691 95 Q696 86 712.5 78.5 Q729 71 752 71 Q775 71 791.5 78.5 Q808 86 814 95 L814 159 Q808 167 791.5 175 Q775 183 752 183 Q729 183 712.5 175 Q696 167 691 159 L691 95 Z M693 272 Q699 265 714 258 Q729 251 752 251 Q775 251 790.5 258 Q806 265 812 272 L812 330 Q806 337 790.5 344 Q775 351 752 351 Q729 351 714 344 Q699 337 693 330 L693 272 Z " />
<glyph glyph-name="threeeighths" unicode="&#x215c;" horiz-adv-x="1027" d="M651 365 Q656 372 668 383 Q680 394 699.5 404.5 Q719 415 747 422.5 Q775 430 811 430 Q848 430 875.5 422 Q903 414 922.5 403.5 Q942 393 954 382 Q966 371 971 365 L971 257 Q966 250 954 239.5 Q942 229 922 218 Q945 205 959.5 190.5 Q974 176 982 164 L982 72 Q975 60 961.5 46 Q948 32 926.5 20 Q905 8 876.5 0 Q848 -8 811 -8 Q775 -8 746 0 Q717 8 696 20 Q675 32 661 46 Q647 60 641 72 L641 164 Q648 176 662.5 190.5 Q677 205 700 218 Q681 229 669 239.5 Q657 250 651 257 L651 365 Z M750 95 Q755 86 771.5 78.5 Q788 71 811 71 Q834 71 850.5 78.5 Q867 86 873 95 L873 159 Q867 167 850.5 175 Q834 183 811 183 Q788 183 771.5 175 Q755 167 750 159 L750 95 Z M752 272 Q758 265 773 258 Q788 251 811 251 Q834 251 849.5 258 Q865 265 871 272 L871 330 Q865 337 849.5 344 Q834 351 811 351 Q788 351 773 344 Q758 337 752 330 L752 272 Z M44 409 L144 409 L144 374 Q150 365 166.5 357.5 Q183 350 206 350 Q229 350 245 357.5 Q261 365 268 374 L268 428 Q262 439 245.5 447.5 Q229 456 206 456 L145 456 L145 533 L204 533 Q227 533 242 541 Q257 549 263 557 L263 609 Q257 617 242 623.5 Q227 630 204 630 Q181 630 165 623 Q149 616 144 609 L144 574 L44 574 L44 644 Q49 651 61 662 Q73 673 92.5 683.5 Q112 694 140 701.5 Q168 709 204 709 Q240 709 268.5 701 Q297 693 317.5 681 Q338 669 351.5 655.5 Q365 642 371 631 L371 542 Q365 532 348 520 Q331 508 306 498 Q332 488 350 474 Q368 460 376 447 L376 351 Q370 340 356.5 326 Q343 312 322 300 Q301 288 272 279.5 Q243 271 206 271 Q170 271 142 279 Q114 287 94 297.5 Q74 308 61.5 319.5 Q49 331 44 338 L44 409 Z M232 64 L707 700 L775 700 L775 636 L301 0 L232 0 L232 64 Z " />
<glyph glyph-name="twothirds" unicode="&#x2154;" horiz-adv-x="1053" d="M676 130 L776 130 L776 95 Q782 86 798.5 78.5 Q815 71 838 71 Q861 71 877 78.5 Q893 86 900 95 L900 149 Q894 160 877.5 168.5 Q861 177 838 177 L777 177 L777 254 L836 254 Q859 254 874 262 Q889 270 895 278 L895 330 Q889 338 874 344.5 Q859 351 836 351 Q813 351 797 344 Q781 337 776 330 L776 295 L676 295 L676 365 Q681 372 693 383 Q705 394 724.5 404.5 Q744 415 772 422.5 Q800 430 836 430 Q872 430 900.5 422 Q929 414 949.5 402 Q970 390 983.5 376.5 Q997 363 1003 352 L1003 263 Q997 253 980 241 Q963 229 938 219 Q964 209 982 195 Q1000 181 1008 168 L1008 72 Q1002 61 988.5 47 Q975 33 954 21 Q933 9 904 0.5 Q875 -8 838 -8 Q802 -8 774 0 Q746 8 726 18.5 Q706 29 693.5 40.5 Q681 52 676 59 L676 130 Z M42 360 L230 511 Q247 524 255.5 532.5 Q264 541 266 544 L266 606 Q259 615 243 622.5 Q227 630 204 630 Q181 630 165.5 623 Q150 616 145 609 L145 553 L44 553 L44 644 Q50 650 62 661 Q74 672 93.5 682.5 Q113 693 140.5 701 Q168 709 204 709 Q241 709 269.5 701 Q298 693 319 681 Q340 669 353.5 655 Q367 641 374 629 L374 520 Q371 515 359.5 504.5 Q348 494 330 481 L186 371 L186 367 L377 367 L377 280 L42 280 L42 360 Z M266 64 L741 700 L809 700 L809 636 L335 0 L266 0 L266 64 Z " />
<glyph glyph-name="uniE000" unicode="&#xe000;" horiz-adv-x="1026" d="M242 64 L717 700 L785 700 L785 636 L311 0 L242 0 L242 64 Z M45 629 Q52 641 65.5 655 Q79 669 100 681 Q121 693 150 701 Q179 709 215 709 Q251 709 279 701.5 Q307 694 327 683 Q347 672 359 660.5 Q371 649 377 642 L377 574 L276 574 L276 606 Q271 615 254.5 622.5 Q238 630 215 630 Q192 630 175.5 622.5 Q159 615 153 606 L153 513 Q171 528 195 537.5 Q219 547 250 547 Q300 547 332 527.5 Q364 508 377 485 L377 338 Q372 331 359.5 319.5 Q347 308 327 297.5 Q307 287 279 279 Q251 271 215 271 Q179 271 150 279 Q121 287 100 299 Q79 311 65 325 Q51 339 45 351 L45 629 Z M214 473 Q196 473 181 468.5 Q166 464 153 456 L153 374 Q159 365 175.5 357.5 Q192 350 215 350 Q238 350 254.5 357.5 Q271 365 276 374 L276 449 Q271 458 254 465.5 Q237 473 214 473 Z M655 365 Q660 372 672 383 Q684 394 703.5 404.5 Q723 415 751 422.5 Q779 430 815 430 Q852 430 879.5 422 Q907 414 926.5 403.5 Q946 393 958 382 Q970 371 975 365 L975 257 Q970 250 958 239.5 Q946 229 926 218 Q949 205 963.5 190.5 Q978 176 986 164 L986 72 Q979 60 965.5 46 Q952 32 930.5 20 Q909 8 880.5 0 Q852 -8 815 -8 Q779 -8 750 0 Q721 8 700 20 Q679 32 665 46 Q651 60 645 72 L645 164 Q652 176 666.5 190.5 Q681 205 704 218 Q685 229 673 239.5 Q661 250 655 257 L655 365 Z M754 95 Q759 86 775.5 78.5 Q792 71 815 71 Q838 71 854.5 78.5 Q871 86 877 95 L877 159 Q871 167 854.5 175 Q838 183 815 183 Q792 183 775.5 175 Q759 167 754 159 L754 95 Z M756 272 Q762 265 777 258 Q792 251 815 251 Q838 251 853.5 258 Q869 265 875 272 L875 330 Q869 337 853.5 344 Q838 351 815 351 Q792 351 777 344 Q762 337 756 330 L756 272 Z " />
<glyph glyph-name="uniE001" unicode="&#xe001;" horiz-adv-x="1264" d="M606 72 L675 72 L675 333 L605 329 L605 393 L693 421 L784 421 L784 72 L850 72 L850 1 L606 1 L606 72 Z M892 350 Q899 362 912.5 376 Q926 390 947 402 Q968 414 997 422 Q1026 430 1062 430 Q1098 430 1126 422.5 Q1154 415 1174 404 Q1194 393 1206 381.5 Q1218 370 1224 363 L1224 295 L1123 295 L1123 327 Q1118 336 1101.5 343.5 Q1085 351 1062 351 Q1039 351 1022.5 343.5 Q1006 336 1000 327 L1000 234 Q1018 249 1042 258.5 Q1066 268 1097 268 Q1147 268 1179 248.5 Q1211 229 1224 206 L1224 59 Q1219 52 1206.5 40.5 Q1194 29 1174 18.5 Q1154 8 1126 0 Q1098 -8 1062 -8 Q1026 -8 997 0 Q968 8 947 20 Q926 32 912 46 Q898 60 892 72 L892 350 Z M1061 194 Q1043 194 1028 189.5 Q1013 185 1000 177 L1000 95 Q1006 86 1022.5 78.5 Q1039 71 1062 71 Q1085 71 1101.5 78.5 Q1118 86 1123 95 L1123 170 Q1118 179 1101 186.5 Q1084 194 1061 194 Z M176 64 L651 700 L719 700 L719 636 L245 0 L176 0 L176 64 Z M44 351 L113 351 L113 612 L43 608 L43 672 L131 700 L222 700 L222 351 L288 351 L288 280 L44 280 L44 351 Z " />
<glyph glyph-name="percent" unicode="&#x25;" horiz-adv-x="909" d="M152 451 Q158 440 174 431.5 Q190 423 213 423 Q236 423 252 431.5 Q268 440 274 451 L274 602 Q268 613 252 622 Q236 631 213 631 Q190 631 174 622 Q158 613 152 602 L152 451 Z M43 617 Q50 633 63.5 649.5 Q77 666 98 679.5 Q119 693 148 701 Q177 709 213 709 Q249 709 278 701 Q307 693 328 679.5 Q349 666 362.5 649.5 Q376 633 383 617 L383 436 Q376 420 362.5 403.5 Q349 387 328 374 Q307 361 278 352.5 Q249 344 213 344 Q177 344 148 352.5 Q119 361 98 374 Q77 387 63.5 403.5 Q50 420 43 436 L43 617 Z M635 98 Q641 87 657 78 Q673 69 696 69 Q719 69 735 78 Q751 87 757 98 L757 249 Q751 260 735 269 Q719 278 696 278 Q673 278 657 269 Q641 260 635 249 L635 98 Z M526 264 Q533 280 546.5 296.5 Q560 313 581 326 Q602 339 631 347.5 Q660 356 696 356 Q732 356 761 347.5 Q790 339 811 326 Q832 313 845.5 296.5 Q859 280 866 264 L866 83 Q859 66 845.5 50 Q832 34 811 20.5 Q790 7 761 -1 Q732 -9 696 -9 Q660 -9 631 -1 Q602 7 581 20.5 Q560 34 546.5 50 Q533 66 526 83 L526 264 Z M184 69 L653 700 L727 700 L727 631 L258 0 L184 0 L184 69 Z " />
<glyph glyph-name="perthousand" unicode="&#x2030;" horiz-adv-x="1299" d="M152 451 Q158 440 174 431.5 Q190 423 213 423 Q236 423 252 431.5 Q268 440 274 451 L274 602 Q268 613 252 622 Q236 631 213 631 Q190 631 174 622 Q158 613 152 602 L152 451 Z M43 617 Q50 633 63.5 649.5 Q77 666 98 679.5 Q119 693 148 701 Q177 709 213 709 Q249 709 278 701 Q307 693 328 679.5 Q349 666 362.5 649.5 Q376 633 383 617 L383 436 Q376 420 362.5 403.5 Q349 387 328 374 Q307 361 278 352.5 Q249 344 213 344 Q177 344 148 352.5 Q119 361 98 374 Q77 387 63.5 403.5 Q50 420 43 436 L43 617 Z M635 98 Q641 87 657 78 Q673 69 696 69 Q719 69 735 78 Q751 87 757 98 L757 249 Q751 260 735 269 Q719 278 696 278 Q673 278 657 269 Q641 260 635 249 L635 98 Z M526 264 Q533 280 546.5 296.5 Q560 313 581 326 Q602 339 631 347.5 Q660 356 696 356 Q732 356 761 347.5 Q790 339 811 326 Q832 313 845.5 296.5 Q859 280 866 264 L866 83 Q859 66 845.5 50 Q832 34 811 20.5 Q790 7 761 -1 Q732 -9 696 -9 Q660 -9 631 -1 Q602 7 581 20.5 Q560 34 546.5 50 Q533 66 526 83 L526 264 Z M1025 98 Q1031 87 1047 78 Q1063 69 1086 69 Q1109 69 1125 78 Q1141 87 1147 98 L1147 249 Q1141 260 1125 269 Q1109 278 1086 278 Q1063 278 1047 269 Q1031 260 1025 249 L1025 98 Z M916 264 Q923 280 936.5 296.5 Q950 313 971 326 Q992 339 1021 347.5 Q1050 356 1086 356 Q1122 356 1151 347.5 Q1180 339 1201 326 Q1222 313 1235.5 296.5 Q1249 280 1256 264 L1256 83 Q1249 66 1235.5 50 Q1222 34 1201 20.5 Q1180 7 1151 -1 Q1122 -9 1086 -9 Q1050 -9 1021 -1 Q992 7 971 20.5 Q950 34 936.5 50 Q923 66 916 83 L916 264 Z M184 69 L653 700 L727 700 L727 631 L258 0 L184 0 L184 69 Z " />
<glyph glyph-name="plus" unicode="&#x2b;" horiz-adv-x="587" d="M34 395 L232 395 L232 593 L354 593 L354 395 L553 395 L553 274 L354 274 L354 75 L232 75 L232 274 L34 274 L34 395 Z " />
<glyph glyph-name="minus" unicode="&#x2212;" horiz-adv-x="587" d="M34 395 L553 395 L553 274 L34 274 L34 395 Z " />
<glyph glyph-name="plusminus" unicode="&#xb1;" horiz-adv-x="587" d="M34 478 L232 478 L232 651 L354 651 L354 478 L553 478 L553 358 L354 358 L354 183 L232 183 L232 358 L34 358 L34 478 Z M34 137 L553 137 L553 16 L34 16 L34 137 Z " />
<glyph glyph-name="multiply" unicode="&#xd7;" horiz-adv-x="587" d="M41 167 L207 335 L41 501 L41 581 L133 581 L294 420 L455 581 L545 581 L545 501 L379 335 L545 167 L545 87 L455 87 L294 248 L133 87 L41 87 L41 167 Z " />
<glyph glyph-name="divide" unicode="&#xf7;" horiz-adv-x="587" d="M34 395 L553 395 L553 274 L34 274 L34 395 Z M214 174 Q220 188 239.5 202 Q259 216 294 216 Q329 216 348.5 202 Q368 188 374 174 L374 98 Q368 84 348.5 70 Q329 56 294 56 Q259 56 239.5 70 Q220 84 214 98 L214 174 Z M214 571 Q220 585 239.5 599 Q259 613 294 613 Q329 613 348.5 599 Q368 585 374 571 L374 495 Q368 481 348.5 467 Q329 453 294 453 Q259 453 239.5 467 Q220 481 214 495 L214 571 Z " />
<glyph glyph-name="equal" unicode="&#x3d;" horiz-adv-x="587" d="M34 289 L553 289 L553 168 L34 168 L34 289 Z M34 502 L553 502 L553 381 L34 381 L34 502 Z " />
<glyph glyph-name="notequal" unicode="&#x2260;" horiz-adv-x="587" d="M34 502 L297 502 L332 593 L454 593 L419 502 L553 502 L553 381 L372 381 L336 288 L553 288 L553 167 L289 167 L254 75 L132 75 L167 167 L34 167 L34 288 L214 288 L250 381 L34 381 L34 502 Z " />
<glyph glyph-name="approxequal" unicode="&#x2248;" horiz-adv-x="587" d="M35 269 Q51 281 72 292 Q90 300 115.5 307.5 Q141 315 173 315 Q209 315 243 307 Q277 299 310 289.5 Q343 280 375.5 272 Q408 264 441 264 Q466 264 486.5 271 Q507 278 522 286 Q540 296 553 308 L553 177 Q540 167 523 160 Q509 153 488.5 148 Q468 143 442 143 Q403 143 369 151 Q335 159 302.5 168.5 Q270 178 238 186 Q206 194 171 194 Q142 194 117 186 Q92 178 74 168 Q53 157 35 143 L35 269 Z M35 483 Q51 495 72 506 Q90 514 115.5 521.5 Q141 529 173 529 Q209 529 243 521 Q277 513 310 503.5 Q343 494 375.5 486 Q408 478 441 478 Q466 478 486.5 485 Q507 492 522 500 Q540 510 553 522 L553 391 Q540 381 523 374 Q509 367 488.5 362 Q468 357 442 357 Q403 357 369 365 Q335 373 302.5 382.5 Q270 392 238 400 Q206 408 171 408 Q142 408 117 400 Q92 392 74 382 Q53 371 35 357 L35 483 Z " />
<glyph glyph-name="less" unicode="&#x3c;" horiz-adv-x="587" d="M27 349 L450 543 L560 543 L560 461 L180 295 L560 130 L560 48 L450 48 L27 242 L27 349 Z " />
<glyph glyph-name="greater" unicode="&#x3e;" horiz-adv-x="587" d="M27 130 L406 295 L27 461 L27 543 L137 543 L560 349 L560 242 L137 48 L27 48 L27 130 Z " />
<glyph glyph-name="lessequal" unicode="&#x2264;" horiz-adv-x="587" d="M34 417 L443 595 L553 595 L553 513 L223 392 L553 270 L553 188 L443 188 L34 338 L34 417 Z M34 137 L553 137 L553 16 L34 16 L34 137 Z " />
<glyph glyph-name="greaterequal" unicode="&#x2265;" horiz-adv-x="587" d="M34 270 L364 392 L34 513 L34 595 L144 595 L553 417 L553 338 L144 188 L34 188 L34 270 Z M34 137 L553 137 L553 16 L34 16 L34 137 Z " />
<glyph glyph-name="logicalnot" unicode="&#xac;" horiz-adv-x="587" d="M34 395 L553 395 L553 75 L431 75 L431 274 L34 274 L34 395 Z " />
<glyph glyph-name="uni00AD" unicode="&#xad;" horiz-adv-x="367" d="M34 395 L333 395 L333 274 L34 274 L34 395 Z " />
<glyph glyph-name="Delta" unicode="&#x2206;" horiz-adv-x="629" d="M25 90 L196 700 L433 700 L604 90 L604 0 L25 0 L25 90 Z M190 121 L423 121 L318 552 L299 552 L190 121 Z " />
<glyph glyph-name="uni0394" unicode="&#x394;" horiz-adv-x="629" d="M25 90 L196 700 L433 700 L604 90 L604 0 L25 0 L25 90 Z M190 121 L423 121 L318 552 L299 552 L190 121 Z " />
<glyph glyph-name="Omega" unicode="&#x2126;" horiz-adv-x="626" d="M47 126 L191 126 L191 173 Q131 195 96.5 232.5 Q62 270 47 305 L47 562 Q58 586 78.5 613 Q99 640 131.5 662.5 Q164 685 209 700 Q254 715 313 715 Q372 715 417 700 Q462 685 494.5 662.5 Q527 640 547.5 613 Q568 586 579 562 L579 305 Q571 287 558.5 268.5 Q546 250 528.5 232.5 Q511 215 487.5 199.5 Q464 184 435 173 L435 126 L579 126 L579 0 L338 0 L338 265 Q370 270 389 287 Q408 304 416 322 L416 531 Q406 555 379.5 573 Q353 591 313 591 Q272 591 246 573 Q220 555 210 531 L210 322 Q218 304 237 287 Q256 270 288 265 L288 0 L47 0 L47 126 Z " />
<glyph glyph-name="uni03A9" unicode="&#x3a9;" horiz-adv-x="626" d="M47 126 L191 126 L191 173 Q131 195 96.5 232.5 Q62 270 47 305 L47 562 Q58 586 78.5 613 Q99 640 131.5 662.5 Q164 685 209 700 Q254 715 313 715 Q372 715 417 700 Q462 685 494.5 662.5 Q527 640 547.5 613 Q568 586 579 562 L579 305 Q571 287 558.5 268.5 Q546 250 528.5 232.5 Q511 215 487.5 199.5 Q464 184 435 173 L435 126 L579 126 L579 0 L338 0 L338 265 Q370 270 389 287 Q408 304 416 322 L416 531 Q406 555 379.5 573 Q353 591 313 591 Q272 591 246 573 Q220 555 210 531 L210 322 Q218 304 237 287 Q256 270 288 265 L288 0 L47 0 L47 126 Z " />
<glyph glyph-name="mu" unicode="&#xb5;" horiz-adv-x="559" d="M511 0 L371 0 L371 57 Q348 28 312 8.5 Q276 -11 223 -11 Q216 -11 210 -10.5 Q204 -10 198 -9 L198 -157 L46 -157 L46 543 L198 543 L198 139 Q205 129 223.5 115.5 Q242 102 277 102 Q308 102 328 111 Q348 120 360 132 L360 543 L511 543 L511 0 Z " />
<glyph glyph-name="uni03BC" unicode="&#x3bc;" horiz-adv-x="559" d="M511 0 L371 0 L371 57 Q348 28 312 8.5 Q276 -11 223 -11 Q216 -11 210 -10.5 Q204 -10 198 -9 L198 -157 L46 -157 L46 543 L198 543 L198 139 Q205 129 223.5 115.5 Q242 102 277 102 Q308 102 328 111 Q348 120 360 132 L360 543 L511 543 L511 0 Z " />
<glyph glyph-name="pi" unicode="&#x3c0;" horiz-adv-x="696" d="M397 433 L255 433 L255 0 L103 0 L103 433 L32 433 L32 543 L661 543 L661 433 L548 433 L548 133 Q554 124 571 112.5 Q588 101 630 101 Q642 101 651 101.5 Q660 102 665 103 L665 0 Q653 -3 630.5 -7.5 Q608 -12 573 -12 Q531 -12 500.5 -3 Q470 6 449 19.5 Q428 33 415.5 50 Q403 67 397 83 L397 433 Z " />
<glyph glyph-name="degree" unicode="&#xb0;" horiz-adv-x="393" d="M29 719 Q36 732 49 747 Q62 762 82 775.5 Q102 789 130.5 798 Q159 807 196 807 Q233 807 262 798 Q291 789 311 775.5 Q331 762 344 747 Q357 732 363 719 L363 588 Q357 575 344 559.5 Q331 544 311 530.5 Q291 517 262 508 Q233 499 196 499 Q159 499 130.5 508 Q102 517 82 530.5 Q62 544 49 559.5 Q36 575 29 588 L29 719 Z M135 616 Q141 605 156.5 595.5 Q172 586 196 586 Q220 586 236 595.5 Q252 605 258 616 L258 691 Q252 702 236 711 Q220 720 196 720 Q172 720 156.5 711 Q141 702 135 691 L135 616 Z " />
<glyph glyph-name="infinity" unicode="&#x221e;" horiz-adv-x="750" d="M90 467 Q96 483 110 499.5 Q124 516 145 529.5 Q166 543 195 551 Q224 559 260 559 Q297 559 325.5 550.5 Q354 542 375 529 Q396 542 424.5 550.5 Q453 559 490 559 Q526 559 555 551 Q584 543 605 529.5 Q626 516 640 499.5 Q654 483 660 467 L660 213 Q654 196 640 180 Q626 164 605 150.5 Q584 137 555 129 Q526 121 490 121 Q453 121 424.5 129 Q396 137 375 151 Q354 137 325.5 129 Q297 121 260 121 Q224 121 195 129 Q166 137 145 150.5 Q124 164 110 180 Q96 196 90 213 L90 467 Z M551 453 Q545 464 529 472.5 Q513 481 490 481 Q467 481 451 472.5 Q435 464 429 453 L429 227 Q435 216 451 208 Q467 200 490 200 Q513 200 529 208 Q545 216 551 227 L551 453 Z M320 453 Q315 464 299 472.5 Q283 481 260 481 Q237 481 220.5 472.5 Q204 464 199 453 L199 227 Q204 216 220.5 208 Q237 200 260 200 Q283 200 299 208 Q315 216 320 227 L320 453 Z " />
<glyph glyph-name="partialdiff" unicode="&#x2202;" horiz-adv-x="562" d="M42 343 Q49 365 63.5 389 Q78 413 100.5 432.5 Q123 452 155 464.5 Q187 477 228 477 Q276 477 311 464.5 Q346 452 369 429 L369 486 Q360 507 340 529.5 Q320 552 294.5 574 Q269 596 241 615.5 Q213 635 186 650 L282 728 Q325 712 364.5 684.5 Q404 657 435.5 626.5 Q467 596 489.5 566.5 Q512 537 520 516 L520 122 Q511 100 492.5 76 Q474 52 444.5 31.5 Q415 11 374.5 -2 Q334 -15 281 -15 Q228 -15 187.5 -2 Q147 11 117.5 31.5 Q88 52 69.5 76 Q51 100 42 121 L42 343 Z M193 149 Q202 130 224 115 Q246 100 281 100 Q316 100 338.5 115 Q361 130 369 149 L369 325 Q361 338 338.5 350 Q316 362 281 362 Q246 362 224 348 Q202 334 193 315 L193 149 Z " />
<glyph glyph-name="integral" unicode="&#x222b;" horiz-adv-x="425" d="M20 -68 L64 -68 Q83 -68 96 -64.5 Q109 -61 117 -55.5 Q125 -50 129.5 -44.5 Q134 -39 136 -34 L136 618 Q142 634 154.5 651 Q167 668 187.5 682 Q208 696 237.5 705 Q267 714 307 714 Q339 714 365.5 710 Q392 706 404 702 L404 601 L360 601 Q340 601 327.5 597.5 Q315 594 307 588.5 Q299 583 294.5 577 Q290 571 288 566 L288 -85 Q282 -102 269.5 -119 Q257 -136 236.5 -149.5 Q216 -163 186.5 -172 Q157 -181 117 -181 Q85 -181 58.5 -177 Q32 -173 20 -169 L20 -68 Z " />
<glyph glyph-name="radical" unicode="&#x221a;" horiz-adv-x="593" d="M21 543 L188 543 L287 193 L305 193 L435 700 L570 700 L570 620 L392 0 L196 0 L74 429 L21 429 L21 543 Z " />
<glyph glyph-name="summation" unicode="&#x2211;" horiz-adv-x="553" d="M35 2 L217 301 L35 598 L35 700 L518 700 L518 580 L245 580 L245 555 L376 352 L376 250 L245 45 L245 20 L518 20 L518 -100 L35 -100 L35 2 Z " />
<glyph glyph-name="product" unicode="&#x220f;" horiz-adv-x="635" d="M56 700 L579 700 L579 -100 L415 -100 L415 580 L219 580 L219 -100 L56 -100 L56 700 Z " />
<glyph glyph-name="lozenge" unicode="&#x25ca;" horiz-adv-x="602" d="M35 350 L221 700 L386 700 L571 350 L386 0 L221 0 L35 350 Z M200 350 L303 164 L406 350 L303 536 L200 350 Z " />
<glyph glyph-name="arrowleft" unicode="&#x2190;" horiz-adv-x="760" d="M0 388 L312 700 L413 700 L413 609 L204 410 L760 410 L760 289 L205 289 L413 91 L413 0 L312 0 L0 312 L0 350 L0 388 Z " />
</font>
</svg>
